<svg version="1.1" id="Layer_1" xmlns="http://www.w3.org/2000/svg" xmlns:xlink="http://www.w3.org/1999/xlink" x="0px" y="0px"
	 width="100%" viewBox="0 0 3000 3000" enable-background="new 0 0 3000 3000" xml:space="preserve">
<path fill="#FD0115" opacity="1.000000" stroke="none" 
	d="
M1738.000000,3002.000000 
	C1158.666748,3002.000000 580.333557,3002.000000 2.000233,3002.000000 
	C2.000155,2002.000244 2.000155,1002.000549 2.000078,2.000635 
	C1001.999512,2.000423 2001.999023,2.000423 3001.999023,2.000212 
	C3001.999268,1001.999329 3001.999268,2001.998657 3001.999512,3001.999023 
	C2581.000000,3002.000000 2160.000000,3002.000000 1738.000000,3002.000000 
M663.034607,1841.000854 
	C663.034119,1794.348755 663.016052,1747.696655 663.062012,1701.044556 
	C663.066223,1696.723511 663.162231,1692.358643 663.764893,1688.091675 
	C664.971619,1679.548828 668.631714,1675.940796 675.496460,1675.855835 
	C683.396118,1675.757935 688.768433,1680.139160 689.889648,1688.133545 
	C690.441528,1692.068115 690.305115,1696.113403 690.306519,1700.108643 
	C690.327942,1762.102783 690.320679,1824.097046 690.321838,1886.091187 
	C690.321899,1888.757568 690.114258,1891.447388 690.388672,1894.086304 
	C691.823730,1907.885254 698.568787,1918.160645 711.845947,1922.729004 
	C724.830261,1927.196655 736.829956,1924.757202 746.713928,1914.605347 
	C748.452026,1912.820190 750.141235,1910.987183 752.291626,1908.712524 
	C754.394775,1912.333618 756.095093,1915.139648 757.680725,1918.009033 
	C776.525208,1952.111084 794.807861,1986.539551 814.398865,2020.206909 
	C825.294250,2038.931030 826.181885,2058.113037 821.061951,2077.944092 
	C811.579346,2114.673096 801.269836,2151.188477 791.327637,2187.799072 
	C790.480469,2190.918701 789.804138,2194.084229 788.705200,2198.656738 
	C801.022461,2198.656738 812.151306,2198.656738 823.653870,2198.656738 
	C823.653870,2203.191162 823.653809,2206.502197 823.653809,2209.813232 
	C823.653931,2238.477295 823.643494,2267.141113 823.666565,2295.805176 
	C823.669800,2299.802490 823.575989,2303.826416 823.975586,2307.792725 
	C825.614502,2324.062256 839.243164,2336.262695 855.793091,2336.470459 
	C872.626892,2336.682129 886.273682,2325.176025 888.333923,2308.778076 
	C888.913208,2304.167236 888.996155,2299.471924 889.004333,2294.814941 
	C889.056580,2265.151123 889.017395,2235.487061 889.033203,2205.823242 
	C889.034363,2203.584229 889.228210,2201.345215 889.349670,2198.737793 
	C895.651123,2198.737793 901.461182,2198.737793 908.154358,2198.737793 
	C908.154358,2212.538818 908.153381,2225.797607 908.154541,2239.056396 
	C908.156372,2260.720947 907.910461,2282.389404 908.238831,2304.049072 
	C908.515869,2322.322266 921.973816,2335.877930 939.585876,2336.422852 
	C959.138794,2337.027832 973.517639,2322.999756 973.630859,2302.707764 
	C973.803894,2271.711670 973.678528,2240.713867 973.679810,2209.716797 
	C973.679932,2206.154785 973.679810,2202.593018 973.679810,2197.848145 
	C985.787109,2197.848145 996.815979,2197.848145 1008.475037,2197.848145 
	C1007.699707,2194.634766 1007.283813,2192.711182 1006.770630,2190.813477 
	C996.257141,2151.942871 985.100037,2113.230469 975.501526,2074.135254 
	C971.279175,2056.937256 971.622437,2039.437134 981.295898,2022.920288 
	C995.428406,1998.789917 1008.530334,1974.055054 1022.020447,1949.549683 
	C1029.788452,1935.438599 1037.455688,1921.271851 1045.361572,1906.775879 
	C1046.880859,1908.515747 1048.100342,1910.085815 1049.494385,1911.481445 
	C1065.674438,1927.679810 1089.536987,1925.263794 1101.516602,1905.763672 
	C1105.117310,1899.902222 1107.591431,1893.164185 1109.582153,1886.527954 
	C1123.350464,1840.628174 1136.840210,1794.645020 1150.452881,1748.698608 
	C1154.233887,1735.936646 1157.918091,1723.139771 1162.053101,1710.491699 
	C1164.317017,1703.567139 1168.621094,1700.913574 1173.746094,1702.119751 
	C1178.573975,1703.255981 1181.831543,1708.315918 1181.250244,1714.709595 
	C1180.921753,1718.321655 1179.868286,1721.894287 1178.898193,1725.417725 
	C1149.568604,1831.937256 1120.204712,1938.447266 1090.872681,2044.966064 
	C1090.016602,2048.074951 1089.446289,2051.262451 1088.508057,2055.464600 
	C1117.252441,2055.464600 1145.111816,2055.464600 1173.985352,2055.464600 
	C1173.985352,2059.938232 1173.985229,2063.509766 1173.985352,2067.081055 
	C1173.985352,2140.074219 1173.982788,2213.067383 1173.992920,2286.060547 
	C1173.993530,2290.059082 1173.901245,2294.071777 1174.187256,2298.053711 
	C1175.727295,2319.489990 1192.896240,2335.896484 1214.237305,2336.447754 
	C1236.474487,2337.021729 1254.116089,2321.739258 1256.533691,2299.638184 
	C1257.003174,2295.347412 1257.011597,2290.992432 1257.013184,2286.666992 
	C1257.041016,2213.673828 1257.033936,2140.680664 1257.034546,2067.687500 
	C1257.034668,2063.823486 1257.034668,2059.959473 1257.034668,2056.181885 
	C1265.498047,2056.181885 1272.583130,2056.181885 1280.154297,2056.181885 
	C1280.154297,2060.566406 1280.154297,2064.198486 1280.154297,2067.830811 
	C1280.154297,2141.490479 1280.153931,2215.150391 1280.155273,2288.810059 
	C1280.155273,2291.809814 1280.032349,2294.817139 1280.201660,2297.807861 
	C1281.292969,2317.077881 1296.389771,2333.647949 1315.002075,2336.087402 
	C1336.118652,2338.854980 1355.282593,2327.343506 1360.968262,2307.715088 
	C1362.693848,2301.757812 1362.941528,2295.217285 1362.952515,2288.942139 
	C1363.080688,2215.282715 1363.034668,2141.622803 1363.034668,2067.963135 
	C1363.034668,2064.068359 1363.034668,2060.173828 1363.034668,2055.331787 
	C1391.978760,2055.331787 1419.793701,2055.331787 1448.474487,2055.331787 
	C1447.692505,2051.675293 1447.277832,2049.127197 1446.598633,2046.651733 
	C1434.711426,2003.326782 1422.794189,1960.010254 1410.878784,1916.692993 
	C1393.226318,1852.519775 1375.532715,1788.357788 1357.997803,1724.152344 
	C1356.793213,1719.741943 1356.232666,1714.997559 1356.342529,1710.431885 
	C1356.445801,1706.134644 1359.196289,1703.013428 1363.663452,1702.074219 
	C1368.240234,1701.111938 1371.645752,1703.228149 1373.520874,1707.132690 
	C1375.378174,1710.999878 1376.666138,1715.174072 1377.891968,1719.306030 
	C1394.739990,1776.093018 1411.432495,1832.926392 1428.478271,1889.653687 
	C1430.457397,1896.239990 1433.574585,1902.772705 1437.465088,1908.436523 
	C1445.814697,1920.592651 1457.727661,1924.411255 1471.573364,1920.562744 
	C1486.048584,1916.539307 1494.392334,1906.926758 1495.887939,1892.304443 
	C1496.781250,1883.571533 1495.481323,1875.124756 1492.878784,1866.705566 
	C1472.044434,1799.304077 1451.272949,1731.882812 1430.688721,1664.404419 
	C1424.698975,1644.769165 1414.078857,1628.173096 1399.363770,1614.126465 
	C1385.492432,1600.885254 1368.865601,1594.294067 1349.604858,1594.311523 
	C1295.609985,1594.360229 1241.614990,1594.367310 1187.620117,1594.309814 
	C1168.354370,1594.289307 1151.757935,1600.903198 1137.842407,1614.090698 
	C1122.806152,1628.340088 1112.112427,1645.298218 1106.033325,1665.229980 
	C1084.128784,1737.047974 1062.067505,1808.818237 1039.989746,1880.853027 
	C1039.224365,1880.571289 1038.211792,1880.443726 1037.515869,1879.906128 
	C1026.054199,1871.052490 1009.456421,1873.004761 999.872864,1888.620972 
	C996.040222,1894.866089 992.350525,1901.199951 988.451538,1907.402832 
	C980.122498,1920.653442 971.957275,1934.018188 963.232971,1947.005615 
	C956.312378,1957.307983 946.757080,1962.632324 933.688843,1962.317627 
	C910.371216,1961.755981 887.020813,1961.759155 863.702942,1962.315430 
	C850.675354,1962.626221 841.174011,1957.388306 834.057678,1947.161133 
	C827.973206,1938.417114 822.170715,1929.465454 816.529358,1920.427368 
	C809.828918,1909.692505 803.819641,1898.510254 796.814026,1887.985718 
	C786.942688,1873.155884 773.920471,1870.836060 759.032166,1880.456299 
	C758.304932,1880.926147 757.390869,1881.106934 755.679871,1881.759277 
	C755.679871,1877.552002 755.679810,1873.984985 755.679810,1870.418091 
	C755.679626,1801.091309 755.711609,1731.764404 755.670105,1662.437622 
	C755.631470,1597.863647 706.266235,1548.418823 641.723816,1548.342041 
	C584.729248,1548.274292 527.734070,1548.223877 470.740265,1548.442505 
	C462.469604,1548.474243 454.055176,1549.334595 445.961426,1551.027100 
	C390.364410,1562.653687 356.489960,1612.102295 357.273376,1660.738647 
	C357.842346,1696.059570 357.383545,1731.396851 357.384216,1766.726929 
	C357.385010,1807.723022 357.458740,1848.719482 357.328735,1889.715088 
	C357.302521,1897.986084 358.243164,1906.113770 364.121338,1912.058472 
	C368.890259,1916.881226 368.539581,1921.646729 367.451660,1927.327148 
	C360.188629,1965.249390 353.052246,2003.195923 345.879639,2041.135498 
	C331.533936,2117.016846 317.187134,2192.897949 302.850952,2268.781006 
	C299.884979,2284.480225 296.662201,2300.139648 294.123413,2315.908447 
	C292.317047,2327.128418 298.378632,2335.669189 308.412079,2337.517090 
	C317.804169,2339.246826 326.010803,2333.310303 328.810028,2322.760254 
	C329.066193,2321.794922 329.371490,2320.838135 329.555511,2319.858643 
	C335.702698,2287.143311 341.812683,2254.420898 347.980103,2221.709473 
	C361.671509,2149.091797 375.402618,2076.481689 389.092773,2003.863770 
	C394.208099,1976.729980 399.254242,1949.583130 404.467499,1921.717896 
	C418.296387,1914.010376 422.525665,1901.324951 422.391663,1885.220337 
	C421.873077,1822.897095 422.135590,1760.567017 422.269562,1698.239868 
	C422.280121,1693.330322 422.861694,1688.199341 424.392090,1683.572876 
	C426.246094,1677.968506 431.736816,1675.442993 438.155151,1675.854980 
	C443.740753,1676.213501 446.757721,1678.450195 448.318146,1685.040161 
	C449.451599,1689.826904 449.760010,1694.902954 449.761719,1699.850220 
	C449.829132,1893.498657 449.818939,2087.147217 449.819244,2280.795654 
	C449.819275,2283.795410 449.766663,2286.796387 449.834473,2289.794678 
	C450.395477,2314.592285 469.342621,2334.480225 493.649933,2335.812012 
	C518.173401,2337.155762 539.164429,2319.844727 542.546814,2295.274902 
	C543.225159,2290.347168 543.385620,2285.315674 543.387695,2280.332031 
	C543.433105,2171.342285 543.421021,2062.352539 543.428223,1953.362793 
	C543.428406,1950.031250 543.278809,1946.675781 543.611267,1943.372925 
	C544.389465,1935.641602 548.446533,1931.892212 555.847412,1931.692749 
	C563.276550,1931.492554 567.944153,1934.941650 569.335938,1942.235596 
	C569.952637,1945.467407 569.798340,1948.868042 569.801025,1952.192139 
	C569.829468,1987.188843 569.818359,2022.185669 569.819153,2057.182373 
	C569.820923,2134.508545 569.749390,2211.834473 569.869568,2289.160645 
	C569.906616,2312.985352 586.552002,2331.904053 610.003723,2335.495361 
	C631.753723,2338.826172 653.934875,2325.194336 660.574890,2303.646484 
	C662.492737,2297.422607 662.931824,2290.540771 662.937439,2283.959717 
	C663.063782,2136.973389 663.034363,1989.987183 663.034607,1841.000854 
M2390.566650,1942.650635 
	C2390.871094,1941.698364 2391.057373,1940.687256 2391.498291,1939.803101 
	C2395.006592,1932.768188 2399.281250,1930.561890 2406.773438,1931.845703 
	C2412.668701,1932.856079 2415.751465,1936.442749 2416.595459,1943.869019 
	C2417.007568,1947.495117 2416.950684,1951.184937 2416.951172,1954.845947 
	C2416.967773,2064.163086 2416.960205,2173.480469 2416.982422,2282.797607 
	C2416.983154,2286.789551 2416.977295,2290.811523 2417.427979,2294.768066 
	C2419.574951,2313.604980 2432.973633,2329.150635 2451.076172,2334.044189 
	C2469.979004,2339.154541 2489.413574,2332.619873 2500.966309,2317.285156 
	C2507.865723,2308.127197 2510.441162,2297.786133 2510.411377,2286.387207 
	C2510.264893,2230.062744 2510.345947,2173.737305 2510.346191,2117.412354 
	C2510.346436,1977.766357 2510.329590,1838.120239 2510.416992,1698.474243 
	C2510.419922,1693.540405 2510.873779,1688.447876 2512.162842,1683.713867 
	C2513.782959,1677.764038 2517.342773,1675.753662 2523.326904,1675.860840 
	C2531.346191,1676.004517 2536.645508,1680.820923 2537.545166,1689.642578 
	C2538.117432,1695.253906 2537.810059,1700.959961 2537.811523,1706.623535 
	C2537.825684,1768.281128 2537.733643,1829.938965 2537.879150,1891.596191 
	C2537.922852,1910.208374 2550.878418,1923.855591 2568.426025,1924.584106 
	C2587.110352,1925.359741 2600.879883,1913.227905 2602.642822,1894.342896 
	C2602.951904,1891.032349 2603.019043,1887.689453 2603.019775,1884.361450 
	C2603.040283,1812.038818 2603.098389,1739.716064 2602.955078,1667.393677 
	C2602.937500,1658.426147 2602.705566,1649.295776 2601.068848,1640.521362 
	C2590.943115,1586.231201 2545.343750,1548.478271 2490.010986,1548.355347 
	C2432.353027,1548.227417 2374.694092,1548.227173 2317.036865,1548.444946 
	C2309.104980,1548.474976 2301.027100,1549.385254 2293.274414,1551.071411 
	C2240.016602,1562.654785 2204.480957,1607.260376 2204.360107,1662.787476 
	C2204.197021,1737.776001 2204.296875,1812.765259 2204.379639,1887.754028 
	C2204.384277,1892.041748 2204.769531,1896.447510 2205.800049,1900.593750 
	C2209.385498,1915.018188 2221.486816,1924.351929 2236.348633,1924.604004 
	C2251.379150,1924.859131 2263.959961,1916.194092 2267.996826,1902.028564 
	C2269.428467,1897.006226 2269.761963,1891.533203 2269.771729,1886.264404 
	C2269.886719,1823.273926 2269.836914,1760.283081 2269.871338,1697.292358 
	C2269.873291,1693.639404 2269.752686,1689.882812 2270.521973,1686.356201 
	C2272.000977,1679.575928 2277.304688,1675.848389 2284.419922,1675.862305 
	C2291.061768,1675.875244 2294.863770,1679.166626 2296.091797,1686.958618 
	C2296.864502,1691.860962 2296.931885,1696.909912 2296.932861,1701.893188 
	C2296.971191,1894.864624 2296.961426,2087.836182 2296.984619,2280.807617 
	C2296.985107,2285.465576 2296.975342,2290.159424 2297.501465,2294.775635 
	C2299.978027,2316.508545 2317.065186,2333.270264 2338.938477,2335.658936 
	C2360.370605,2337.999512 2381.391602,2324.785889 2387.745850,2303.994629 
	C2389.837891,2297.149658 2390.233154,2289.577148 2390.243652,2282.335693 
	C2390.406982,2169.686035 2390.379883,2057.036133 2390.566650,1942.650635 
M1848.157593,1706.980957 
	C1849.491455,1710.728271 1851.000977,1714.423340 1852.132812,1718.230591 
	C1868.915649,1774.681641 1885.505493,1831.190674 1902.558716,1887.559570 
	C1904.924072,1895.378052 1908.566284,1903.202393 1913.294800,1909.826660 
	C1921.514404,1921.341675 1933.351440,1924.399292 1947.003784,1920.342285 
	C1961.075562,1916.160645 1969.680908,1906.707397 1970.144287,1892.478271 
	C1970.431641,1883.652222 1969.690796,1874.353027 1967.158691,1865.944458 
	C1946.915039,1798.720825 1926.091919,1731.672119 1905.543945,1664.539795 
	C1900.066772,1646.645386 1890.567993,1631.175415 1877.759155,1617.736206 
	C1863.308350,1602.574463 1845.718384,1594.288330 1824.466675,1594.310791 
	C1770.146729,1594.367920 1715.826782,1594.316040 1661.506836,1594.337280 
	C1643.781860,1594.344238 1628.162964,1600.157349 1614.916260,1611.928833 
	C1599.151123,1625.938110 1587.724609,1642.852173 1581.475952,1663.119019 
	C1577.946899,1674.565063 1574.349121,1685.990112 1570.832397,1697.439819 
	C1553.540649,1753.738281 1536.322021,1810.059082 1518.927002,1866.325439 
	C1516.221680,1875.076538 1515.028076,1883.869263 1516.008911,1892.925537 
	C1517.536987,1907.035889 1525.764038,1916.455078 1539.828369,1920.476562 
	C1553.457153,1924.373413 1565.185913,1921.117310 1573.407104,1909.486328 
	C1577.920776,1903.100342 1581.401978,1895.589111 1583.674927,1888.078857 
	C1598.805908,1838.081299 1613.470093,1787.942627 1628.324097,1737.861084 
	C1631.160889,1728.296509 1633.868042,1718.675903 1637.205322,1709.283691 
	C1639.310303,1703.359009 1643.082520,1701.278320 1647.706421,1702.005859 
	C1652.562866,1702.769775 1656.064575,1706.834961 1655.777832,1712.970703 
	C1655.548462,1717.877808 1654.288696,1722.805176 1652.975098,1727.583130 
	C1623.777344,1833.777100 1594.504639,1939.950195 1565.275024,2046.135254 
	C1564.520264,2048.877197 1564.090332,2051.708496 1563.253540,2055.724121 
	C1592.329224,2055.724121 1620.151978,2055.724121 1648.578735,2055.724121 
	C1648.578735,2060.360352 1648.578735,2063.975098 1648.578735,2067.589844 
	C1648.578979,2141.238525 1648.557861,2214.886963 1648.626953,2288.535645 
	C1648.631592,2293.506592 1648.857910,2298.562256 1649.762573,2303.433350 
	C1654.200195,2327.326904 1678.913574,2342.037842 1702.177979,2334.850830 
	C1720.489990,2329.193359 1731.636963,2313.651611 1731.653687,2293.205566 
	C1731.715698,2217.557617 1731.678833,2141.909424 1731.679077,2066.261475 
	C1731.679077,2062.749268 1731.679077,2059.237061 1731.679077,2055.991943 
	C1740.043579,2055.991943 1746.918091,2055.991943 1754.578735,2055.991943 
	C1754.578735,2060.143799 1754.578613,2063.738281 1754.578735,2067.332764 
	C1754.578857,2140.981445 1754.553711,2214.629883 1754.632324,2288.278564 
	C1754.637939,2293.579346 1754.894531,2298.977295 1755.901855,2304.161621 
	C1759.446167,2322.404541 1775.399780,2335.692871 1794.085815,2336.416992 
	C1813.626953,2337.174561 1830.822510,2325.465820 1835.724487,2307.290771 
	C1837.344482,2301.283936 1837.747559,2294.799072 1837.758789,2288.531006 
	C1837.891724,2214.549561 1837.844604,2140.567627 1837.844849,2066.585938 
	C1837.844849,2063.046631 1837.844971,2059.507568 1837.844971,2054.989258 
	C1866.921997,2054.989258 1894.708252,2054.989258 1923.387451,2054.989258 
	C1922.265625,2050.698242 1921.474243,2047.523193 1920.605591,2044.369385 
	C1891.274902,1937.867676 1861.927002,1831.370483 1832.639893,1724.856812 
	C1831.588013,1721.031616 1830.639038,1717.059570 1830.516602,1713.128662 
	C1830.376099,1708.620483 1832.112305,1704.498657 1836.682983,1702.588257 
	C1840.907959,1700.822144 1844.485962,1702.172852 1848.157593,1706.980957 
M1967.040039,2149.706055 
	C1972.656250,2132.659668 1978.393921,2115.652344 1983.856567,2098.556885 
	C1990.135254,2078.907227 1996.099609,2059.157227 2002.379639,2039.508179 
	C2003.461670,2036.122681 2003.645996,2031.504883 2010.156738,2030.871216 
	C2010.156738,2035.367676 2010.156616,2039.251465 2010.156616,2043.135254 
	C2010.156006,2126.447754 2010.152832,2209.760254 2010.163696,2293.072754 
	C2010.164307,2297.070557 2009.960449,2301.106201 2010.416626,2305.059082 
	C2012.090576,2319.569580 2019.486084,2329.904297 2033.470581,2334.852539 
	C2046.397461,2339.426025 2060.785645,2335.495361 2069.886963,2325.156982 
	C2075.885498,2318.343506 2078.287354,2310.347412 2078.244385,2301.256592 
	C2078.083008,2267.265869 2078.170654,2233.273682 2078.195801,2199.282227 
	C2078.197998,2196.291260 2078.052490,2193.226562 2078.625732,2190.324463 
	C2079.802002,2184.368896 2083.685547,2181.437500 2089.135010,2181.822754 
	C2094.115967,2182.174805 2097.263184,2185.220703 2098.058594,2190.888428 
	C2098.426270,2193.510010 2098.309326,2196.207764 2098.311035,2198.871094 
	C2098.326660,2223.531738 2098.319336,2248.192139 2098.320557,2272.852783 
	C2098.321045,2282.850342 2098.068848,2292.855713 2098.384766,2302.843506 
	C2099.008301,2322.558838 2113.904053,2336.858643 2133.120117,2336.548828 
	C2152.010986,2336.243896 2165.918701,2322.012939 2166.329590,2302.538818 
	C2166.392822,2299.541016 2166.345215,2296.540527 2166.345215,2293.541260 
	C2166.345459,2209.562256 2166.326416,2125.583252 2166.409424,2041.604370 
	C2166.413086,2037.882812 2165.163574,2033.779907 2168.828369,2029.064087 
	C2170.420166,2032.644165 2171.729004,2035.160645 2172.685303,2037.804565 
	C2180.493652,2059.395508 2188.133057,2081.048340 2196.039062,2102.603027 
	C2200.620850,2115.095459 2205.633301,2127.429199 2210.385742,2139.859619 
	C2212.575439,2145.586670 2216.794189,2147.785156 2222.739746,2148.138428 
	C2241.225830,2149.235596 2254.634033,2130.124756 2247.242432,2112.376221 
	C2231.508057,2074.593750 2216.534912,2036.494629 2201.231689,1998.532471 
	C2198.248535,1991.131836 2195.611816,1983.552002 2192.075439,1976.421875 
	C2183.375488,1958.881592 2169.028809,1948.397949 2149.455566,1947.936890 
	C2111.177979,1947.035156 2072.872070,1947.186890 2034.577759,1947.187988 
	C2018.234253,1947.188354 2005.764893,1955.072021 1997.275513,1968.635254 
	C1990.936646,1978.762817 1984.679077,1989.154297 1980.128174,2000.149536 
	C1963.586182,2040.115601 1947.720581,2080.362549 1931.771240,2120.571533 
	C1929.951294,2125.159912 1928.612549,2130.113770 1928.090942,2135.009277 
	C1926.683472,2148.217529 1934.618164,2157.818848 1947.707397,2159.086182 
	C1955.257080,2159.817383 1961.237549,2156.471191 1967.040039,2149.706055 
M197.090988,316.176910 
	C192.224091,318.322449 187.357178,320.467987 182.385254,322.659821 
	C182.385254,349.538147 182.385254,376.318481 182.385254,403.996185 
	C209.961807,394.064880 236.757538,384.414795 264.723297,374.343353 
	C264.723297,527.679565 264.723297,680.369873 264.723297,833.219055 
	C301.681335,833.219055 337.540833,833.219055 374.004639,833.219055 
	C374.004639,642.090881 374.004639,451.411560 374.004639,260.572327 
	C372.937683,260.258667 372.026367,259.758331 371.113892,259.756256 
	C345.130432,259.697021 319.145966,259.590729 293.164551,259.819855 
	C290.546143,259.842926 287.630249,261.513916 285.395142,263.158020 
	C277.897949,268.672852 271.180786,275.444824 263.198151,280.064941 
	C241.906586,292.387817 220.111313,303.840363 197.090988,316.176910 
M627.250122,1478.145386 
	C628.241272,1476.411255 629.289062,1474.706787 630.215454,1472.938721 
	C661.098755,1414.000977 616.546082,1348.425415 555.678162,1349.554932 
	C518.659546,1350.241821 486.359833,1373.986694 476.009430,1409.433228 
	C465.539917,1445.287476 479.809845,1483.681641 510.960449,1503.791504 
	C547.449036,1527.347656 599.734070,1519.586426 627.250122,1478.145386 
M2435.199463,1355.549561 
	C2420.005127,1349.069946 2404.085205,1347.836914 2388.153076,1350.899536 
	C2345.533936,1359.092896 2317.290283,1396.468018 2320.122314,1440.024780 
	C2322.781738,1480.926270 2356.415771,1513.835938 2398.645020,1516.855835 
	C2450.824463,1520.587280 2494.289307,1473.901489 2486.668457,1422.284424 
	C2482.065674,1391.109741 2465.103760,1369.243530 2435.199463,1355.549561 
M1785.122437,1409.714844 
	C1772.043945,1401.620239 1757.860596,1397.667236 1742.434814,1397.800659 
	C1705.828247,1398.117432 1673.781250,1423.754761 1665.881226,1459.244873 
	C1657.650146,1496.222290 1675.526123,1533.150269 1709.358765,1549.060303 
	C1742.846191,1564.808105 1782.978271,1555.213989 1805.750854,1526.193604 
	C1833.112549,1491.325073 1827.093384,1437.077026 1785.122437,1409.714844 
M1258.014160,1398.303101 
	C1255.407349,1398.840454 1252.789185,1399.328247 1250.195435,1399.922363 
	C1208.963745,1409.365723 1181.687012,1451.264893 1190.764771,1492.683716 
	C1197.882202,1525.157837 1217.898315,1546.697632 1250.510864,1554.191528 
	C1282.960571,1561.647949 1310.933105,1552.034302 1331.278809,1525.536255 
	C1351.563721,1499.117554 1354.187988,1469.575317 1338.500000,1440.154175 
	C1321.974365,1409.162231 1294.779419,1395.789795 1258.014160,1398.303101 
M695.955688,285.032288 
	C695.891602,315.354553 695.828613,345.676819 695.742798,375.999023 
	C695.742188,376.216309 695.471619,376.517334 695.251160,376.628326 
	C694.966370,376.771698 694.604980,376.762787 693.636230,376.929932 
	C676.684143,337.830902 659.668274,298.584747 642.865967,259.831177 
	C633.092529,259.831177 624.531921,259.831177 615.453674,259.831177 
	C615.453674,332.756561 615.453674,405.201416 615.453674,478.043762 
	C626.729980,478.043762 637.524841,478.043762 649.654358,478.043762 
	C649.654358,437.202972 649.653625,396.961395 649.683105,356.719788 
	C649.683228,356.568512 650.101074,356.353302 650.355591,356.282928 
	C650.669434,356.196167 651.016602,356.230072 651.930359,356.180054 
	C660.282104,376.222168 668.716003,396.444336 677.136108,416.672211 
	C685.686523,437.213226 694.223450,457.759918 702.678833,478.093750 
	C711.975891,478.093750 720.538940,478.093750 729.107056,478.093750 
	C729.107056,405.076263 729.107056,332.614166 729.107056,259.804688 
	C717.935486,259.804688 707.367493,259.804688 695.955688,259.804688 
	C695.955688,267.847168 695.955688,275.447540 695.955688,285.032288 
M867.830261,641.356812 
	C860.364685,627.422668 848.354675,619.756897 833.187927,616.885498 
	C819.992920,614.387451 806.698730,614.416565 793.486145,617.039368 
	C772.307068,621.243591 759.379333,634.410950 754.198425,654.906006 
	C751.934021,663.863525 750.617615,673.280701 750.474609,682.513916 
	C750.015625,712.154785 750.120789,741.808838 750.392578,771.454285 
	C750.508850,784.141174 752.460938,796.611328 757.455750,808.491089 
	C764.355103,824.900696 776.683228,834.591675 793.916504,837.799194 
	C801.391968,839.190552 809.129883,839.823181 816.737366,839.742676 
	C850.331543,839.387207 869.510864,823.056335 875.462891,790.236816 
	C875.818604,788.275574 876.104980,786.269775 876.116333,784.282898 
	C876.322266,748.323975 876.631287,712.364502 876.563599,676.405823 
	C876.541443,664.648132 873.821228,653.303955 867.830261,641.356812 
M843.979065,260.704071 
	C836.125488,259.349945 828.294800,256.993713 820.414368,256.813354 
	C784.207397,255.984467 761.805664,267.477478 754.679871,304.746338 
	C754.181335,307.353699 753.820068,310.031616 753.801086,312.679688 
	C753.552490,347.307098 752.919312,381.942230 753.461243,416.558502 
	C753.624817,427.003723 756.080750,437.723541 759.285522,447.742126 
	C764.921387,465.360413 777.876465,476.175201 795.947449,479.318756 
	C806.301208,481.119873 817.241333,481.686127 827.666687,480.535828 
	C857.631531,477.229645 874.529907,461.191284 877.760193,431.417175 
	C882.041260,391.958344 880.243774,352.287872 878.758179,312.694885 
	C878.671082,310.373505 878.353943,308.038910 877.909302,305.756165 
	C874.035828,285.871033 866.089478,268.941528 843.979065,260.704071 
M1157.641968,822.783752 
	C1157.641968,827.303650 1157.641968,831.823486 1157.641968,836.256958 
	C1171.800415,836.256958 1184.587769,836.256958 1198.135132,836.256958 
	C1198.135132,802.935486 1198.135132,770.385620 1198.135132,737.840454 
	C1204.406250,737.840454 1209.854126,737.840454 1215.279663,737.840454 
	C1224.079102,771.286011 1232.681152,803.981079 1241.362793,836.978394 
	C1255.135376,836.947571 1267.907471,837.337952 1281.573242,836.722107 
	C1271.278931,799.961670 1261.373535,764.589661 1251.418579,729.041382 
	C1264.947266,722.988953 1272.047852,712.956726 1275.089722,699.954651 
	C1277.917725,687.866638 1278.845825,675.627197 1276.877808,663.267334 
	C1272.788330,637.583435 1260.023560,624.209839 1234.424805,619.885742 
	C1209.629517,615.697266 1184.578491,618.136658 1159.634399,617.905884 
	C1159.127686,617.901184 1158.614014,618.639587 1158.099365,619.039673 
	C1157.969116,619.673523 1157.725342,620.307373 1157.724976,620.941284 
	C1157.685547,687.574280 1157.664185,754.207275 1157.641968,822.783752 
M733.668213,665.893433 
	C733.419983,664.586304 733.184937,663.276489 732.921753,661.972351 
	C726.859375,631.932678 711.045837,618.454285 680.536255,617.778564 
	C665.561890,617.446899 650.575439,617.654114 635.594482,617.626526 
	C629.001343,617.614380 622.408203,617.624512 615.982849,617.624512 
	C613.894470,631.811646 614.536072,829.631348 616.563721,836.461853 
	C629.068359,836.461853 641.572998,836.461853 655.062317,836.461853 
	C655.062317,804.082703 655.062317,772.293579 655.062317,739.459595 
	C659.588074,739.459595 663.172363,739.596130 666.742798,739.431519 
	C674.383789,739.079285 682.067932,738.981567 689.644958,738.050842 
	C712.949829,735.188354 728.120300,721.591492 732.317810,698.484985 
	C734.137390,688.468445 733.401794,677.987793 733.668213,665.893433 
M977.482422,666.093079 
	C971.613892,698.463074 965.745300,730.833069 959.876770,763.203064 
	C959.188049,763.180542 958.499329,763.157959 957.810608,763.135437 
	C948.603577,714.681458 939.396484,666.227478 930.273438,618.215576 
	C917.571167,618.215576 906.352722,618.215576 894.568115,618.215576 
	C909.412659,691.424988 924.122803,763.971558 938.827942,836.493530 
	C952.388794,836.493530 964.891785,836.493530 977.977844,836.493530 
	C992.828857,763.619507 1007.595825,691.157959 1022.493164,618.057007 
	C1009.687683,618.057007 998.145508,618.057007 985.980774,618.057007 
	C983.202087,633.681580 980.472656,649.029541 977.482422,666.093079 
M2028.395264,1882.362427 
	C2040.058960,1907.459839 2067.082275,1926.594360 2102.835693,1919.255249 
	C2139.302979,1911.769653 2161.758789,1874.630371 2152.556641,1838.616333 
	C2143.148193,1801.793335 2105.988770,1780.779541 2069.667480,1791.381836 
	C2033.073120,1802.063843 2011.653931,1843.390137 2028.395264,1882.362427 
M931.491699,1797.388916 
	C917.948975,1789.896851 903.638367,1787.058960 888.212524,1789.554443 
	C857.669250,1794.495117 835.029175,1818.474731 832.621155,1850.058472 
	C830.381592,1879.432251 847.694458,1907.125854 877.171509,1917.341553 
	C905.953003,1927.316284 937.705872,1916.018555 954.174194,1890.552002 
	C972.502014,1862.209717 967.207275,1819.110107 931.491699,1797.388916 
M1083.696045,653.315063 
	C1083.881348,651.101990 1084.066772,648.888916 1084.343262,645.587524 
	C1101.692505,645.587524 1118.454468,645.587524 1135.261719,645.587524 
	C1135.261719,635.887146 1135.261719,627.344238 1135.261719,618.228516 
	C1104.751709,618.228516 1074.671387,618.228516 1044.636230,618.228516 
	C1042.724976,631.732239 1043.262451,829.239990 1045.363525,837.077332 
	C1075.287354,836.822205 1105.395142,837.479858 1135.421509,836.660522 
	C1135.421509,827.047302 1135.421509,818.562073 1135.421509,809.103638 
	C1118.031006,809.103638 1101.227539,809.103638 1084.417603,809.103638 
	C1084.417603,784.675476 1084.417603,761.243103 1084.417603,736.994934 
	C1098.000488,736.994934 1110.873779,736.994934 1123.845093,736.994934 
	C1123.845093,727.294800 1123.845093,718.431580 1123.845093,708.329224 
	C1110.283936,708.329224 1097.208740,708.329224 1083.695068,708.329224 
	C1083.695068,689.810120 1083.695068,672.532104 1083.696045,653.315063 
M1481.480591,666.220642 
	C1477.959473,677.696838 1474.438232,689.173035 1470.917114,700.649292 
	C1470.244751,700.581055 1469.572388,700.512817 1468.900146,700.444580 
	C1460.326782,673.022156 1451.753418,645.599670 1443.009033,617.630310 
	C1430.492554,617.796631 1418.450928,617.377686 1405.586548,617.897461 
	C1406.555664,620.865295 1407.058105,622.413696 1407.566895,623.959900 
	C1420.761963,664.064392 1434.071289,704.132019 1447.027832,744.313416 
	C1448.925903,750.199585 1449.906250,756.614685 1450.005249,762.805969 
	C1450.356812,784.776123 1450.123047,806.755432 1450.169556,828.731079 
	C1450.174927,831.251587 1450.548828,833.771362 1450.751099,836.282288 
	C1463.614868,836.282288 1475.708984,836.282288 1488.358032,836.282288 
	C1488.358032,832.228516 1488.358032,828.926453 1488.358032,825.624390 
	C1488.358032,804.647522 1488.176636,783.667969 1488.479858,762.695496 
	C1488.560059,757.154785 1489.439575,751.412659 1491.132324,746.142090 
	C1504.042725,705.944885 1517.255127,665.844666 1530.334229,625.701477 
	C1531.098999,623.354065 1531.524414,620.896118 1532.231567,617.978577 
	C1519.727661,617.978577 1508.136597,617.978577 1495.768066,617.978577 
	C1491.147095,633.516663 1486.517212,649.085327 1481.480591,666.220642 
M1352.778931,837.038391 
	C1357.668579,837.038391 1362.558105,837.038391 1368.290894,837.038391 
	C1368.290894,773.236450 1368.290894,710.754883 1368.290894,647.311279 
	C1380.305176,647.311279 1391.488159,647.311279 1402.992920,647.311279 
	C1402.992920,636.937317 1402.992920,627.542358 1402.992920,618.224976 
	C1365.458740,618.224976 1328.628906,618.224976 1291.352905,618.224976 
	C1290.857788,628.234924 1290.510254,637.647278 1291.529175,647.960571 
	C1304.251709,647.960571 1315.730469,647.960571 1328.110840,647.960571 
	C1328.110840,711.370422 1328.110840,773.795471 1328.110840,837.038330 
	C1336.311401,837.038330 1343.590332,837.038330 1352.778931,837.038391 
z"/>
<path fill="#FFFDFD" opacity="1.000000" stroke="none" 
	d="
M663.034546,1842.000977 
	C663.034363,1989.987183 663.063782,2136.973389 662.937439,2283.959717 
	C662.931824,2290.540771 662.492737,2297.422607 660.574890,2303.646484 
	C653.934875,2325.194336 631.753723,2338.826172 610.003723,2335.495361 
	C586.552002,2331.904053 569.906616,2312.985352 569.869568,2289.160645 
	C569.749390,2211.834473 569.820923,2134.508545 569.819153,2057.182373 
	C569.818359,2022.185669 569.829468,1987.188843 569.801025,1952.192139 
	C569.798340,1948.868042 569.952637,1945.467407 569.335938,1942.235596 
	C567.944153,1934.941650 563.276550,1931.492554 555.847412,1931.692749 
	C548.446533,1931.892212 544.389465,1935.641602 543.611267,1943.372925 
	C543.278809,1946.675781 543.428406,1950.031250 543.428223,1953.362793 
	C543.421021,2062.352539 543.433105,2171.342285 543.387695,2280.332031 
	C543.385620,2285.315674 543.225159,2290.347168 542.546814,2295.274902 
	C539.164429,2319.844727 518.173401,2337.155762 493.649933,2335.812012 
	C469.342621,2334.480225 450.395477,2314.592285 449.834473,2289.794678 
	C449.766663,2286.796387 449.819275,2283.795410 449.819244,2280.795654 
	C449.818939,2087.147217 449.829132,1893.498657 449.761719,1699.850220 
	C449.760010,1694.902954 449.451599,1689.826904 448.318146,1685.040161 
	C446.757721,1678.450195 443.740753,1676.213501 438.155151,1675.854980 
	C431.736816,1675.442993 426.246094,1677.968506 424.392090,1683.572876 
	C422.861694,1688.199341 422.280121,1693.330322 422.269562,1698.239868 
	C422.135590,1760.567017 421.873077,1822.897095 422.391663,1885.220337 
	C422.525665,1901.324951 418.296387,1914.010376 404.467499,1921.717896 
	C399.254242,1949.583130 394.208099,1976.729980 389.092773,2003.863770 
	C375.402618,2076.481689 361.671509,2149.091797 347.980103,2221.709473 
	C341.812683,2254.420898 335.702698,2287.143311 329.555511,2319.858643 
	C329.371490,2320.838135 329.066193,2321.794922 328.810028,2322.760254 
	C326.010803,2333.310303 317.804169,2339.246826 308.412079,2337.517090 
	C298.378632,2335.669189 292.317047,2327.128418 294.123413,2315.908447 
	C296.662201,2300.139648 299.884979,2284.480225 302.850952,2268.781006 
	C317.187134,2192.897949 331.533936,2117.016846 345.879639,2041.135498 
	C353.052246,2003.195923 360.188629,1965.249390 367.451660,1927.327148 
	C368.539581,1921.646729 368.890259,1916.881226 364.121338,1912.058472 
	C358.243164,1906.113770 357.302521,1897.986084 357.328735,1889.715088 
	C357.458740,1848.719482 357.385010,1807.723022 357.384216,1766.726929 
	C357.383545,1731.396851 357.842346,1696.059570 357.273376,1660.738647 
	C356.489960,1612.102295 390.364410,1562.653687 445.961426,1551.027100 
	C454.055176,1549.334595 462.469604,1548.474243 470.740265,1548.442505 
	C527.734070,1548.223877 584.729248,1548.274292 641.723816,1548.342041 
	C706.266235,1548.418823 755.631470,1597.863647 755.670105,1662.437622 
	C755.711609,1731.764404 755.679626,1801.091309 755.679810,1870.418091 
	C755.679810,1873.984985 755.679871,1877.552002 755.679871,1881.759277 
	C757.390869,1881.106934 758.304932,1880.926147 759.032166,1880.456299 
	C773.920471,1870.836060 786.942688,1873.155884 796.814026,1887.985718 
	C803.819641,1898.510254 809.828918,1909.692505 816.529358,1920.427368 
	C822.170715,1929.465454 827.973206,1938.417114 834.057678,1947.161133 
	C841.174011,1957.388306 850.675354,1962.626221 863.702942,1962.315430 
	C887.020813,1961.759155 910.371216,1961.755981 933.688843,1962.317627 
	C946.757080,1962.632324 956.312378,1957.307983 963.232971,1947.005615 
	C971.957275,1934.018188 980.122498,1920.653442 988.451538,1907.402832 
	C992.350525,1901.199951 996.040222,1894.866089 999.872864,1888.620972 
	C1009.456421,1873.004761 1026.054199,1871.052490 1037.515869,1879.906128 
	C1038.211792,1880.443726 1039.224365,1880.571289 1039.989746,1880.853027 
	C1062.067505,1808.818237 1084.128784,1737.047974 1106.033325,1665.229980 
	C1112.112427,1645.298218 1122.806152,1628.340088 1137.842407,1614.090698 
	C1151.757935,1600.903198 1168.354370,1594.289307 1187.620117,1594.309814 
	C1241.614990,1594.367310 1295.609985,1594.360229 1349.604858,1594.311523 
	C1368.865601,1594.294067 1385.492432,1600.885254 1399.363770,1614.126465 
	C1414.078857,1628.173096 1424.698975,1644.769165 1430.688721,1664.404419 
	C1451.272949,1731.882812 1472.044434,1799.304077 1492.878784,1866.705566 
	C1495.481323,1875.124756 1496.781250,1883.571533 1495.887939,1892.304443 
	C1494.392334,1906.926758 1486.048584,1916.539307 1471.573364,1920.562744 
	C1457.727661,1924.411255 1445.814697,1920.592651 1437.465088,1908.436523 
	C1433.574585,1902.772705 1430.457397,1896.239990 1428.478271,1889.653687 
	C1411.432495,1832.926392 1394.739990,1776.093018 1377.891968,1719.306030 
	C1376.666138,1715.174072 1375.378174,1710.999878 1373.520874,1707.132690 
	C1371.645752,1703.228149 1368.240234,1701.111938 1363.663452,1702.074219 
	C1359.196289,1703.013428 1356.445801,1706.134644 1356.342529,1710.431885 
	C1356.232666,1714.997559 1356.793213,1719.741943 1357.997803,1724.152344 
	C1375.532715,1788.357788 1393.226318,1852.519775 1410.878784,1916.692993 
	C1422.794189,1960.010254 1434.711426,2003.326782 1446.598633,2046.651733 
	C1447.277832,2049.127197 1447.692505,2051.675293 1448.474487,2055.331787 
	C1419.793701,2055.331787 1391.978760,2055.331787 1363.034668,2055.331787 
	C1363.034668,2060.173828 1363.034668,2064.068359 1363.034668,2067.963135 
	C1363.034668,2141.622803 1363.080688,2215.282715 1362.952515,2288.942139 
	C1362.941528,2295.217285 1362.693848,2301.757812 1360.968262,2307.715088 
	C1355.282593,2327.343506 1336.118652,2338.854980 1315.002075,2336.087402 
	C1296.389771,2333.647949 1281.292969,2317.077881 1280.201660,2297.807861 
	C1280.032349,2294.817139 1280.155273,2291.809814 1280.155273,2288.810059 
	C1280.153931,2215.150391 1280.154297,2141.490479 1280.154297,2067.830811 
	C1280.154297,2064.198486 1280.154297,2060.566406 1280.154297,2056.181885 
	C1272.583130,2056.181885 1265.498047,2056.181885 1257.034668,2056.181885 
	C1257.034668,2059.959473 1257.034668,2063.823486 1257.034546,2067.687500 
	C1257.033936,2140.680664 1257.041016,2213.673828 1257.013184,2286.666992 
	C1257.011597,2290.992432 1257.003174,2295.347412 1256.533691,2299.638184 
	C1254.116089,2321.739258 1236.474487,2337.021729 1214.237305,2336.447754 
	C1192.896240,2335.896484 1175.727295,2319.489990 1174.187256,2298.053711 
	C1173.901245,2294.071777 1173.993530,2290.059082 1173.992920,2286.060547 
	C1173.982788,2213.067383 1173.985352,2140.074219 1173.985352,2067.081055 
	C1173.985229,2063.509766 1173.985352,2059.938232 1173.985352,2055.464600 
	C1145.111816,2055.464600 1117.252441,2055.464600 1088.508057,2055.464600 
	C1089.446289,2051.262451 1090.016602,2048.074951 1090.872681,2044.966064 
	C1120.204712,1938.447266 1149.568604,1831.937256 1178.898193,1725.417725 
	C1179.868286,1721.894287 1180.921753,1718.321655 1181.250244,1714.709595 
	C1181.831543,1708.315918 1178.573975,1703.255981 1173.746094,1702.119751 
	C1168.621094,1700.913574 1164.317017,1703.567139 1162.053101,1710.491699 
	C1157.918091,1723.139771 1154.233887,1735.936646 1150.452881,1748.698608 
	C1136.840210,1794.645020 1123.350464,1840.628174 1109.582153,1886.527954 
	C1107.591431,1893.164185 1105.117310,1899.902222 1101.516602,1905.763672 
	C1089.536987,1925.263794 1065.674438,1927.679810 1049.494385,1911.481445 
	C1048.100342,1910.085815 1046.880859,1908.515747 1045.361572,1906.775879 
	C1037.455688,1921.271851 1029.788452,1935.438599 1022.020447,1949.549683 
	C1008.530334,1974.055054 995.428406,1998.789917 981.295898,2022.920288 
	C971.622437,2039.437134 971.279175,2056.937256 975.501526,2074.135254 
	C985.100037,2113.230469 996.257141,2151.942871 1006.770630,2190.813477 
	C1007.283813,2192.711182 1007.699707,2194.634766 1008.475037,2197.848145 
	C996.815979,2197.848145 985.787109,2197.848145 973.679810,2197.848145 
	C973.679810,2202.593018 973.679932,2206.154785 973.679810,2209.716797 
	C973.678528,2240.713867 973.803894,2271.711670 973.630859,2302.707764 
	C973.517639,2322.999756 959.138794,2337.027832 939.585876,2336.422852 
	C921.973816,2335.877930 908.515869,2322.322266 908.238831,2304.049072 
	C907.910461,2282.389404 908.156372,2260.720947 908.154541,2239.056396 
	C908.153381,2225.797607 908.154358,2212.538818 908.154358,2198.737793 
	C901.461182,2198.737793 895.651123,2198.737793 889.349670,2198.737793 
	C889.228210,2201.345215 889.034363,2203.584229 889.033203,2205.823242 
	C889.017395,2235.487061 889.056580,2265.151123 889.004333,2294.814941 
	C888.996155,2299.471924 888.913208,2304.167236 888.333923,2308.778076 
	C886.273682,2325.176025 872.626892,2336.682129 855.793091,2336.470459 
	C839.243164,2336.262695 825.614502,2324.062256 823.975586,2307.792725 
	C823.575989,2303.826416 823.669800,2299.802490 823.666565,2295.805176 
	C823.643494,2267.141113 823.653931,2238.477295 823.653809,2209.813232 
	C823.653809,2206.502197 823.653870,2203.191162 823.653870,2198.656738 
	C812.151306,2198.656738 801.022461,2198.656738 788.705200,2198.656738 
	C789.804138,2194.084229 790.480469,2190.918701 791.327637,2187.799072 
	C801.269836,2151.188477 811.579346,2114.673096 821.061951,2077.944092 
	C826.181885,2058.113037 825.294250,2038.931030 814.398865,2020.206909 
	C794.807861,1986.539551 776.525208,1952.111084 757.680725,1918.009033 
	C756.095093,1915.139648 754.394775,1912.333618 752.291626,1908.712524 
	C750.141235,1910.987183 748.452026,1912.820190 746.713928,1914.605347 
	C736.829956,1924.757202 724.830261,1927.196655 711.845947,1922.729004 
	C698.568787,1918.160645 691.823730,1907.885254 690.388672,1894.086304 
	C690.114258,1891.447388 690.321899,1888.757568 690.321838,1886.091187 
	C690.320679,1824.097046 690.327942,1762.102783 690.306519,1700.108643 
	C690.305115,1696.113403 690.441528,1692.068115 689.889648,1688.133545 
	C688.768433,1680.139160 683.396118,1675.757935 675.496460,1675.855835 
	C668.631714,1675.940796 664.971619,1679.548828 663.764893,1688.091675 
	C663.162231,1692.358643 663.066223,1696.723511 663.062012,1701.044556 
	C663.016052,1747.696655 663.034119,1794.348755 663.034546,1842.000977 
z"/>
<path fill="#FFFDFD" opacity="1.000000" stroke="none" 
	d="
M2390.481689,1943.518555 
	C2390.379883,2057.036133 2390.406982,2169.686035 2390.243652,2282.335693 
	C2390.233154,2289.577148 2389.837891,2297.149658 2387.745850,2303.994629 
	C2381.391602,2324.785889 2360.370605,2337.999512 2338.938477,2335.658936 
	C2317.065186,2333.270264 2299.978027,2316.508545 2297.501465,2294.775635 
	C2296.975342,2290.159424 2296.985107,2285.465576 2296.984619,2280.807617 
	C2296.961426,2087.836182 2296.971191,1894.864624 2296.932861,1701.893188 
	C2296.931885,1696.909912 2296.864502,1691.860962 2296.091797,1686.958618 
	C2294.863770,1679.166626 2291.061768,1675.875244 2284.419922,1675.862305 
	C2277.304688,1675.848389 2272.000977,1679.575928 2270.521973,1686.356201 
	C2269.752686,1689.882812 2269.873291,1693.639404 2269.871338,1697.292358 
	C2269.836914,1760.283081 2269.886719,1823.273926 2269.771729,1886.264404 
	C2269.761963,1891.533203 2269.428467,1897.006226 2267.996826,1902.028564 
	C2263.959961,1916.194092 2251.379150,1924.859131 2236.348633,1924.604004 
	C2221.486816,1924.351929 2209.385498,1915.018188 2205.800049,1900.593750 
	C2204.769531,1896.447510 2204.384277,1892.041748 2204.379639,1887.754028 
	C2204.296875,1812.765259 2204.197021,1737.776001 2204.360107,1662.787476 
	C2204.480957,1607.260376 2240.016602,1562.654785 2293.274414,1551.071411 
	C2301.027100,1549.385254 2309.104980,1548.474976 2317.036865,1548.444946 
	C2374.694092,1548.227173 2432.353027,1548.227417 2490.010986,1548.355347 
	C2545.343750,1548.478271 2590.943115,1586.231201 2601.068848,1640.521362 
	C2602.705566,1649.295776 2602.937500,1658.426147 2602.955078,1667.393677 
	C2603.098389,1739.716064 2603.040283,1812.038818 2603.019775,1884.361450 
	C2603.019043,1887.689453 2602.951904,1891.032349 2602.642822,1894.342896 
	C2600.879883,1913.227905 2587.110352,1925.359741 2568.426025,1924.584106 
	C2550.878418,1923.855591 2537.922852,1910.208374 2537.879150,1891.596191 
	C2537.733643,1829.938965 2537.825684,1768.281128 2537.811523,1706.623535 
	C2537.810059,1700.959961 2538.117432,1695.253906 2537.545166,1689.642578 
	C2536.645508,1680.820923 2531.346191,1676.004517 2523.326904,1675.860840 
	C2517.342773,1675.753662 2513.782959,1677.764038 2512.162842,1683.713867 
	C2510.873779,1688.447876 2510.419922,1693.540405 2510.416992,1698.474243 
	C2510.329590,1838.120239 2510.346436,1977.766357 2510.346191,2117.412354 
	C2510.345947,2173.737305 2510.264893,2230.062744 2510.411377,2286.387207 
	C2510.441162,2297.786133 2507.865723,2308.127197 2500.966309,2317.285156 
	C2489.413574,2332.619873 2469.979004,2339.154541 2451.076172,2334.044189 
	C2432.973633,2329.150635 2419.574951,2313.604980 2417.427979,2294.768066 
	C2416.977295,2290.811523 2416.983154,2286.789551 2416.982422,2282.797607 
	C2416.960205,2173.480469 2416.967773,2064.163086 2416.951172,1954.845947 
	C2416.950684,1951.184937 2417.007568,1947.495117 2416.595459,1943.869019 
	C2415.751465,1936.442749 2412.668701,1932.856079 2406.773438,1931.845703 
	C2399.281250,1930.561890 2395.006592,1932.768188 2391.498291,1939.803101 
	C2391.057373,1940.687256 2390.871094,1941.698364 2390.481689,1943.518555 
z"/>
<path fill="#FFFDFD" opacity="1.000000" stroke="none" 
	d="
M1847.733887,1706.329346 
	C1844.485962,1702.172852 1840.907959,1700.822144 1836.682983,1702.588257 
	C1832.112305,1704.498657 1830.376099,1708.620483 1830.516602,1713.128662 
	C1830.639038,1717.059570 1831.588013,1721.031616 1832.639893,1724.856812 
	C1861.927002,1831.370483 1891.274902,1937.867676 1920.605591,2044.369385 
	C1921.474243,2047.523193 1922.265625,2050.698242 1923.387451,2054.989258 
	C1894.708252,2054.989258 1866.921997,2054.989258 1837.844971,2054.989258 
	C1837.844971,2059.507568 1837.844849,2063.046631 1837.844849,2066.585938 
	C1837.844604,2140.567627 1837.891724,2214.549561 1837.758789,2288.531006 
	C1837.747559,2294.799072 1837.344482,2301.283936 1835.724487,2307.290771 
	C1830.822510,2325.465820 1813.626953,2337.174561 1794.085815,2336.416992 
	C1775.399780,2335.692871 1759.446167,2322.404541 1755.901855,2304.161621 
	C1754.894531,2298.977295 1754.637939,2293.579346 1754.632324,2288.278564 
	C1754.553711,2214.629883 1754.578857,2140.981445 1754.578735,2067.332764 
	C1754.578613,2063.738281 1754.578735,2060.143799 1754.578735,2055.991943 
	C1746.918091,2055.991943 1740.043579,2055.991943 1731.679077,2055.991943 
	C1731.679077,2059.237061 1731.679077,2062.749268 1731.679077,2066.261475 
	C1731.678833,2141.909424 1731.715698,2217.557617 1731.653687,2293.205566 
	C1731.636963,2313.651611 1720.489990,2329.193359 1702.177979,2334.850830 
	C1678.913574,2342.037842 1654.200195,2327.326904 1649.762573,2303.433350 
	C1648.857910,2298.562256 1648.631592,2293.506592 1648.626953,2288.535645 
	C1648.557861,2214.886963 1648.578979,2141.238525 1648.578735,2067.589844 
	C1648.578735,2063.975098 1648.578735,2060.360352 1648.578735,2055.724121 
	C1620.151978,2055.724121 1592.329224,2055.724121 1563.253540,2055.724121 
	C1564.090332,2051.708496 1564.520264,2048.877197 1565.275024,2046.135254 
	C1594.504639,1939.950195 1623.777344,1833.777100 1652.975098,1727.583130 
	C1654.288696,1722.805176 1655.548462,1717.877808 1655.777832,1712.970703 
	C1656.064575,1706.834961 1652.562866,1702.769775 1647.706421,1702.005859 
	C1643.082520,1701.278320 1639.310303,1703.359009 1637.205322,1709.283691 
	C1633.868042,1718.675903 1631.160889,1728.296509 1628.324097,1737.861084 
	C1613.470093,1787.942627 1598.805908,1838.081299 1583.674927,1888.078857 
	C1581.401978,1895.589111 1577.920776,1903.100342 1573.407104,1909.486328 
	C1565.185913,1921.117310 1553.457153,1924.373413 1539.828369,1920.476562 
	C1525.764038,1916.455078 1517.536987,1907.035889 1516.008911,1892.925537 
	C1515.028076,1883.869263 1516.221680,1875.076538 1518.927002,1866.325439 
	C1536.322021,1810.059082 1553.540649,1753.738281 1570.832397,1697.439819 
	C1574.349121,1685.990112 1577.946899,1674.565063 1581.475952,1663.119019 
	C1587.724609,1642.852173 1599.151123,1625.938110 1614.916260,1611.928833 
	C1628.162964,1600.157349 1643.781860,1594.344238 1661.506836,1594.337280 
	C1715.826782,1594.316040 1770.146729,1594.367920 1824.466675,1594.310791 
	C1845.718384,1594.288330 1863.308350,1602.574463 1877.759155,1617.736206 
	C1890.567993,1631.175415 1900.066772,1646.645386 1905.543945,1664.539795 
	C1926.091919,1731.672119 1946.915039,1798.720825 1967.158691,1865.944458 
	C1969.690796,1874.353027 1970.431641,1883.652222 1970.144287,1892.478271 
	C1969.680908,1906.707397 1961.075562,1916.160645 1947.003784,1920.342285 
	C1933.351440,1924.399292 1921.514404,1921.341675 1913.294800,1909.826660 
	C1908.566284,1903.202393 1904.924072,1895.378052 1902.558716,1887.559570 
	C1885.505493,1831.190674 1868.915649,1774.681641 1852.132812,1718.230591 
	C1851.000977,1714.423340 1849.491455,1710.728271 1847.733887,1706.329346 
z"/>
<path fill="#FFFDFD" opacity="1.000000" stroke="none" 
	d="
M1966.559082,2150.283203 
	C1961.237549,2156.471191 1955.257080,2159.817383 1947.707397,2159.086182 
	C1934.618164,2157.818848 1926.683472,2148.217529 1928.090942,2135.009277 
	C1928.612549,2130.113770 1929.951294,2125.159912 1931.771240,2120.571533 
	C1947.720581,2080.362549 1963.586182,2040.115601 1980.128174,2000.149536 
	C1984.679077,1989.154297 1990.936646,1978.762817 1997.275513,1968.635254 
	C2005.764893,1955.072021 2018.234253,1947.188354 2034.577759,1947.187988 
	C2072.872070,1947.186890 2111.177979,1947.035156 2149.455566,1947.936890 
	C2169.028809,1948.397949 2183.375488,1958.881592 2192.075439,1976.421875 
	C2195.611816,1983.552002 2198.248535,1991.131836 2201.231689,1998.532471 
	C2216.534912,2036.494629 2231.508057,2074.593750 2247.242432,2112.376221 
	C2254.634033,2130.124756 2241.225830,2149.235596 2222.739746,2148.138428 
	C2216.794189,2147.785156 2212.575439,2145.586670 2210.385742,2139.859619 
	C2205.633301,2127.429199 2200.620850,2115.095459 2196.039062,2102.603027 
	C2188.133057,2081.048340 2180.493652,2059.395508 2172.685303,2037.804565 
	C2171.729004,2035.160645 2170.420166,2032.644165 2168.828369,2029.064087 
	C2165.163574,2033.779907 2166.413086,2037.882812 2166.409424,2041.604370 
	C2166.326416,2125.583252 2166.345459,2209.562256 2166.345215,2293.541260 
	C2166.345215,2296.540527 2166.392822,2299.541016 2166.329590,2302.538818 
	C2165.918701,2322.012939 2152.010986,2336.243896 2133.120117,2336.548828 
	C2113.904053,2336.858643 2099.008301,2322.558838 2098.384766,2302.843506 
	C2098.068848,2292.855713 2098.321045,2282.850342 2098.320557,2272.852783 
	C2098.319336,2248.192139 2098.326660,2223.531738 2098.311035,2198.871094 
	C2098.309326,2196.207764 2098.426270,2193.510010 2098.058594,2190.888428 
	C2097.263184,2185.220703 2094.115967,2182.174805 2089.135010,2181.822754 
	C2083.685547,2181.437500 2079.802002,2184.368896 2078.625732,2190.324463 
	C2078.052490,2193.226562 2078.197998,2196.291260 2078.195801,2199.282227 
	C2078.170654,2233.273682 2078.083008,2267.265869 2078.244385,2301.256592 
	C2078.287354,2310.347412 2075.885498,2318.343506 2069.886963,2325.156982 
	C2060.785645,2335.495361 2046.397461,2339.426025 2033.470581,2334.852539 
	C2019.486084,2329.904297 2012.090576,2319.569580 2010.416626,2305.059082 
	C2009.960449,2301.106201 2010.164307,2297.070557 2010.163696,2293.072754 
	C2010.152832,2209.760254 2010.156006,2126.447754 2010.156616,2043.135254 
	C2010.156616,2039.251465 2010.156738,2035.367676 2010.156738,2030.871216 
	C2003.645996,2031.504883 2003.461670,2036.122681 2002.379639,2039.508179 
	C1996.099609,2059.157227 1990.135254,2078.907227 1983.856567,2098.556885 
	C1978.393921,2115.652344 1972.656250,2132.659668 1966.559082,2150.283203 
z"/>
<path fill="#FFFEFE" opacity="1.000000" stroke="none" 
	d="
M197.803619,315.907898 
	C220.111313,303.840363 241.906586,292.387817 263.198151,280.064941 
	C271.180786,275.444824 277.897949,268.672852 285.395142,263.158020 
	C287.630249,261.513916 290.546143,259.842926 293.164551,259.819855 
	C319.145966,259.590729 345.130432,259.697021 371.113892,259.756256 
	C372.026367,259.758331 372.937683,260.258667 374.004639,260.572327 
	C374.004639,451.411560 374.004639,642.090881 374.004639,833.219055 
	C337.540833,833.219055 301.681335,833.219055 264.723297,833.219055 
	C264.723297,680.369873 264.723297,527.679565 264.723297,374.343353 
	C236.757538,384.414795 209.961807,394.064880 182.385254,403.996185 
	C182.385254,376.318481 182.385254,349.538147 182.385254,322.659821 
	C187.357178,320.467987 192.224091,318.322449 197.803619,315.907898 
z"/>
<path fill="#FFFDFD" opacity="1.000000" stroke="none" 
	d="
M626.827515,1478.739502 
	C599.734070,1519.586426 547.449036,1527.347656 510.960449,1503.791504 
	C479.809845,1483.681641 465.539917,1445.287476 476.009430,1409.433228 
	C486.359833,1373.986694 518.659546,1350.241821 555.678162,1349.554932 
	C616.546082,1348.425415 661.098755,1414.000977 630.215454,1472.938721 
	C629.289062,1474.706787 628.241272,1476.411255 626.827515,1478.739502 
z"/>
<path fill="#FFFDFD" opacity="1.000000" stroke="none" 
	d="
M2435.928711,1355.805908 
	C2465.103760,1369.243530 2482.065674,1391.109741 2486.668457,1422.284424 
	C2494.289307,1473.901489 2450.824463,1520.587280 2398.645020,1516.855835 
	C2356.415771,1513.835938 2322.781738,1480.926270 2320.122314,1440.024780 
	C2317.290283,1396.468018 2345.533936,1359.092896 2388.153076,1350.899536 
	C2404.085205,1347.836914 2420.005127,1349.069946 2435.928711,1355.805908 
z"/>
<path fill="#FFFDFD" opacity="1.000000" stroke="none" 
	d="
M1785.759521,1410.069458 
	C1827.093384,1437.077026 1833.112549,1491.325073 1805.750854,1526.193604 
	C1782.978271,1555.213989 1742.846191,1564.808105 1709.358765,1549.060303 
	C1675.526123,1533.150269 1657.650146,1496.222290 1665.881226,1459.244873 
	C1673.781250,1423.754761 1705.828247,1398.117432 1742.434814,1397.800659 
	C1757.860596,1397.667236 1772.043945,1401.620239 1785.759521,1410.069458 
z"/>
<path fill="#FFFDFD" opacity="1.000000" stroke="none" 
	d="
M1258.914551,1398.219238 
	C1294.779419,1395.789795 1321.974365,1409.162231 1338.500000,1440.154175 
	C1354.187988,1469.575317 1351.563721,1499.117554 1331.278809,1525.536255 
	C1310.933105,1552.034302 1282.960571,1561.647949 1250.510864,1554.191528 
	C1217.898315,1546.697632 1197.882202,1525.157837 1190.764771,1492.683716 
	C1181.687012,1451.264893 1208.963745,1409.365723 1250.195435,1399.922363 
	C1252.789185,1399.328247 1255.407349,1398.840454 1258.914551,1398.219238 
z"/>
<path fill="#FFF7F8" opacity="1.000000" stroke="none" 
	d="
M695.955688,284.040100 
	C695.955688,275.447540 695.955688,267.847168 695.955688,259.804688 
	C707.367493,259.804688 717.935486,259.804688 729.107056,259.804688 
	C729.107056,332.614166 729.107056,405.076263 729.107056,478.093750 
	C720.538940,478.093750 711.975891,478.093750 702.678833,478.093750 
	C694.223450,457.759918 685.686523,437.213226 677.136108,416.672211 
	C668.716003,396.444336 660.282104,376.222168 651.930359,356.180054 
	C651.016602,356.230072 650.669434,356.196167 650.355591,356.282928 
	C650.101074,356.353302 649.683228,356.568512 649.683105,356.719788 
	C649.653625,396.961395 649.654358,437.202972 649.654358,478.043762 
	C637.524841,478.043762 626.729980,478.043762 615.453674,478.043762 
	C615.453674,405.201416 615.453674,332.756561 615.453674,259.831177 
	C624.531921,259.831177 633.092529,259.831177 642.865967,259.831177 
	C659.668274,298.584747 676.684143,337.830902 693.636230,376.929932 
	C694.604980,376.762787 694.966370,376.771698 695.251160,376.628326 
	C695.471619,376.517334 695.742188,376.216309 695.742798,375.999023 
	C695.828613,345.676819 695.891602,315.354553 695.955688,284.040100 
z"/>
<path fill="#FFF9FA" opacity="1.000000" stroke="none" 
	d="
M868.140930,642.036194 
	C873.821228,653.303955 876.541443,664.648132 876.563599,676.405823 
	C876.631287,712.364502 876.322266,748.323975 876.116333,784.282898 
	C876.104980,786.269775 875.818604,788.275574 875.462891,790.236816 
	C869.510864,823.056335 850.331543,839.387207 816.737366,839.742676 
	C809.129883,839.823181 801.391968,839.190552 793.916504,837.799194 
	C776.683228,834.591675 764.355103,824.900696 757.455750,808.491089 
	C752.460938,796.611328 750.508850,784.141174 750.392578,771.454285 
	C750.120789,741.808838 750.015625,712.154785 750.474609,682.513916 
	C750.617615,673.280701 751.934021,663.863525 754.198425,654.906006 
	C759.379333,634.410950 772.307068,621.243591 793.486145,617.039368 
	C806.698730,614.416565 819.992920,614.387451 833.187927,616.885498 
	C848.354675,619.756897 860.364685,627.422668 868.140930,642.036194 
M791.434204,697.001892 
	C791.433838,723.294250 791.348999,749.587036 791.497253,775.878540 
	C791.530823,781.835938 791.719788,787.931580 792.982910,793.713379 
	C795.455994,805.032959 802.095642,809.843262 813.682800,809.881714 
	C825.167236,809.919800 831.635925,805.046753 834.425598,793.786499 
	C835.375549,789.952087 835.981506,785.924438 835.994141,781.982666 
	C836.111389,745.374573 836.152771,708.765503 835.960815,672.158081 
	C835.935059,667.252502 834.944153,662.225220 833.594116,657.483887 
	C831.724670,650.918274 827.190186,646.833740 820.213257,645.618835 
	C802.275085,642.495056 793.162842,649.956482 792.005005,666.070190 
	C791.314575,675.678711 791.591919,685.356750 791.434204,697.001892 
z"/>
<path fill="#FFF9FA" opacity="1.000000" stroke="none" 
	d="
M844.689819,261.031067 
	C866.089478,268.941528 874.035828,285.871033 877.909302,305.756165 
	C878.353943,308.038910 878.671082,310.373505 878.758179,312.694885 
	C880.243774,352.287872 882.041260,391.958344 877.760193,431.417175 
	C874.529907,461.191284 857.631531,477.229645 827.666687,480.535828 
	C817.241333,481.686127 806.301208,481.119873 795.947449,479.318756 
	C777.876465,476.175201 764.921387,465.360413 759.285522,447.742126 
	C756.080750,437.723541 753.624817,427.003723 753.461243,416.558502 
	C752.919312,381.942230 753.552490,347.307098 753.801086,312.679688 
	C753.820068,310.031616 754.181335,307.353699 754.679871,304.746338 
	C761.805664,267.477478 784.207397,255.984467 820.414368,256.813354 
	C828.294800,256.993713 836.125488,259.349945 844.689819,261.031067 
M830.266174,290.384888 
	C828.481689,289.520020 826.775452,288.395325 824.900513,287.830933 
	C807.924500,282.720703 796.572449,290.043640 794.343018,307.506042 
	C794.048462,309.812744 793.960388,312.159637 793.959717,314.487946 
	C793.948486,350.805847 793.883728,387.124207 794.078247,423.441132 
	C794.104553,428.363007 794.943237,433.429840 796.321289,438.163025 
	C798.913696,447.067505 806.050720,451.600677 816.190247,451.636566 
	C826.373474,451.672607 833.621216,447.369385 836.069092,438.315094 
	C837.779114,431.990051 838.393982,425.213531 838.463257,418.627777 
	C838.726074,393.640350 838.598083,368.648407 838.552856,343.658295 
	C838.532349,332.332123 838.474304,321.003784 838.220520,309.681183 
	C838.068054,302.880524 836.415161,296.493835 830.266174,290.384888 
z"/>
<path fill="#FFFBFB" opacity="1.000000" stroke="none" 
	d="
M1157.641846,821.812012 
	C1157.664185,754.207275 1157.685547,687.574280 1157.724976,620.941284 
	C1157.725342,620.307373 1157.969116,619.673523 1158.101440,619.035522 
	C1158.614014,618.639587 1159.127686,617.901184 1159.634399,617.905884 
	C1184.578491,618.136658 1209.629517,615.697266 1234.424805,619.885742 
	C1260.023560,624.209839 1272.788330,637.583435 1276.877808,663.267334 
	C1278.845825,675.627197 1277.917725,687.866638 1275.089722,699.954651 
	C1272.047852,712.956726 1264.947266,722.988953 1251.418579,729.041382 
	C1261.373535,764.589661 1271.278931,799.961670 1281.573242,836.722107 
	C1267.907471,837.337952 1255.135376,836.947571 1241.362793,836.978394 
	C1232.681152,803.981079 1224.079102,771.286011 1215.279663,737.840454 
	C1209.854126,737.840454 1204.406250,737.840454 1198.135132,737.840454 
	C1198.135132,770.385620 1198.135132,802.935486 1198.135132,836.256958 
	C1184.587769,836.256958 1171.800415,836.256958 1157.641968,836.256958 
	C1157.641968,831.823486 1157.641968,827.303650 1157.641846,821.812012 
M1227.639526,648.674744 
	C1218.165161,644.733765 1208.398682,645.078003 1197.947266,645.992554 
	C1197.826416,668.119019 1197.682373,689.537598 1198.004761,711.983032 
	C1206.460205,711.187988 1213.458008,711.020752 1220.256958,709.771301 
	C1229.576416,708.058716 1235.588379,702.252563 1237.988525,692.917969 
	C1240.618408,682.689270 1240.543213,672.459961 1237.862427,662.284668 
	C1236.473145,657.011108 1233.955688,652.371399 1227.639526,648.674744 
z"/>
<path fill="#FFF6F7" opacity="1.000000" stroke="none" 
	d="
M733.747559,666.805664 
	C733.401794,677.987793 734.137390,688.468445 732.317810,698.484985 
	C728.120300,721.591492 712.949829,735.188354 689.644958,738.050842 
	C682.067932,738.981567 674.383789,739.079285 666.742798,739.431519 
	C663.172363,739.596130 659.588074,739.459595 655.062317,739.459595 
	C655.062317,772.293579 655.062317,804.082703 655.062317,836.461853 
	C641.572998,836.461853 629.068359,836.461853 616.558838,836.466492 
	C614.536072,829.631348 613.894470,631.811646 615.982849,617.624512 
	C622.408203,617.624512 629.001343,617.614380 635.594482,617.626526 
	C650.575439,617.654114 665.561890,617.446899 680.536255,617.778564 
	C711.045837,618.454285 726.859375,631.932678 732.921753,661.972351 
	C733.184937,663.276489 733.419983,664.586304 733.747559,666.805664 
M655.067383,661.074768 
	C655.067383,677.277710 655.067383,693.480652 655.067383,710.192017 
	C662.814270,710.192017 669.436890,710.642456 675.975708,710.093811 
	C687.878357,709.095032 693.977661,703.983093 695.315674,692.346802 
	C696.410156,682.829651 696.307434,673.024109 695.411377,663.470581 
	C694.493774,653.686829 689.140625,648.281372 679.427795,647.059692 
	C671.685242,646.085815 663.722351,646.863281 655.067261,646.863281 
	C655.067261,651.198730 655.067261,655.145996 655.067383,661.074768 
z"/>
<path fill="#FFFAFA" opacity="1.000000" stroke="none" 
	d="
M977.612793,665.235229 
	C980.472656,649.029541 983.202087,633.681580 985.980774,618.057007 
	C998.145508,618.057007 1009.687683,618.057007 1022.493164,618.057007 
	C1007.595825,691.157959 992.828857,763.619507 977.977844,836.493530 
	C964.891785,836.493530 952.388794,836.493530 938.827942,836.493530 
	C924.122803,763.971558 909.412659,691.424988 894.568115,618.215576 
	C906.352722,618.215576 917.571167,618.215576 930.273438,618.215576 
	C939.396484,666.227478 948.603577,714.681458 957.810608,763.135437 
	C958.499329,763.157959 959.188049,763.180542 959.876770,763.203064 
	C965.745300,730.833069 971.613892,698.463074 977.612793,665.235229 
z"/>
<path fill="#FFFDFD" opacity="1.000000" stroke="none" 
	d="
M2028.123047,1881.647217 
	C2011.653931,1843.390137 2033.073120,1802.063843 2069.667480,1791.381836 
	C2105.988770,1780.779541 2143.148193,1801.793335 2152.556641,1838.616333 
	C2161.758789,1874.630371 2139.302979,1911.769653 2102.835693,1919.255249 
	C2067.082275,1926.594360 2040.058960,1907.459839 2028.123047,1881.647217 
z"/>
<path fill="#FFFDFD" opacity="1.000000" stroke="none" 
	d="
M932.134033,1797.738037 
	C967.207275,1819.110107 972.502014,1862.209717 954.174194,1890.552002 
	C937.705872,1916.018555 905.953003,1927.316284 877.171509,1917.341553 
	C847.694458,1907.125854 830.381592,1879.432251 832.621155,1850.058472 
	C835.029175,1818.474731 857.669250,1794.495117 888.212524,1789.554443 
	C903.638367,1787.058960 917.948975,1789.896851 932.134033,1797.738037 
z"/>
<path fill="#FFFAFA" opacity="1.000000" stroke="none" 
	d="
M1083.695557,654.284607 
	C1083.695068,672.532104 1083.695068,689.810120 1083.695068,708.329224 
	C1097.208740,708.329224 1110.283936,708.329224 1123.845093,708.329224 
	C1123.845093,718.431580 1123.845093,727.294800 1123.845093,736.994934 
	C1110.873779,736.994934 1098.000488,736.994934 1084.417603,736.994934 
	C1084.417603,761.243103 1084.417603,784.675476 1084.417603,809.103638 
	C1101.227539,809.103638 1118.031006,809.103638 1135.421509,809.103638 
	C1135.421509,818.562073 1135.421509,827.047302 1135.421509,836.660522 
	C1105.395142,837.479858 1075.287354,836.822205 1045.363525,837.077332 
	C1043.262451,829.239990 1042.724976,631.732239 1044.636230,618.228516 
	C1074.671387,618.228516 1104.751709,618.228516 1135.261719,618.228516 
	C1135.261719,627.344238 1135.261719,635.887146 1135.261719,645.587524 
	C1118.454468,645.587524 1101.692505,645.587524 1084.343262,645.587524 
	C1084.066772,648.888916 1083.881348,651.101990 1083.695557,654.284607 
z"/>
<path fill="#FFFBFB" opacity="1.000000" stroke="none" 
	d="
M1481.683838,665.437256 
	C1486.517212,649.085327 1491.147095,633.516663 1495.768066,617.978577 
	C1508.136597,617.978577 1519.727661,617.978577 1532.231567,617.978577 
	C1531.524414,620.896118 1531.098999,623.354065 1530.334229,625.701477 
	C1517.255127,665.844666 1504.042725,705.944885 1491.132324,746.142090 
	C1489.439575,751.412659 1488.560059,757.154785 1488.479858,762.695496 
	C1488.176636,783.667969 1488.358032,804.647522 1488.358032,825.624390 
	C1488.358032,828.926453 1488.358032,832.228516 1488.358032,836.282288 
	C1475.708984,836.282288 1463.614868,836.282288 1450.751099,836.282288 
	C1450.548828,833.771362 1450.174927,831.251587 1450.169556,828.731079 
	C1450.123047,806.755432 1450.356812,784.776123 1450.005249,762.805969 
	C1449.906250,756.614685 1448.925903,750.199585 1447.027832,744.313416 
	C1434.071289,704.132019 1420.761963,664.064392 1407.566895,623.959900 
	C1407.058105,622.413696 1406.555664,620.865295 1405.586548,617.897461 
	C1418.450928,617.377686 1430.492554,617.796631 1443.009033,617.630310 
	C1451.753418,645.599670 1460.326782,673.022156 1468.900146,700.444580 
	C1469.572388,700.512817 1470.244751,700.581055 1470.917114,700.649292 
	C1474.438232,689.173035 1477.959473,677.696838 1481.683838,665.437256 
z"/>
<path fill="#FFFAFB" opacity="1.000000" stroke="none" 
	d="
M1351.824219,837.038330 
	C1343.590332,837.038330 1336.311401,837.038330 1328.110840,837.038330 
	C1328.110840,773.795471 1328.110840,711.370422 1328.110840,647.960571 
	C1315.730469,647.960571 1304.251709,647.960571 1291.529175,647.960571 
	C1290.510254,637.647278 1290.857788,628.234924 1291.352905,618.224976 
	C1328.628906,618.224976 1365.458740,618.224976 1402.992920,618.224976 
	C1402.992920,627.542358 1402.992920,636.937317 1402.992920,647.311279 
	C1391.488159,647.311279 1380.305176,647.311279 1368.290894,647.311279 
	C1368.290894,710.754883 1368.290894,773.236450 1368.290894,837.038391 
	C1362.558105,837.038391 1357.668579,837.038391 1351.824219,837.038330 
z"/>
<path fill="#FD0317" opacity="1.000000" stroke="none" 
	d="
M791.434204,696.002686 
	C791.591919,685.356750 791.314575,675.678711 792.005005,666.070190 
	C793.162842,649.956482 802.275085,642.495056 820.213257,645.618835 
	C827.190186,646.833740 831.724670,650.918274 833.594116,657.483887 
	C834.944153,662.225220 835.935059,667.252502 835.960815,672.158081 
	C836.152771,708.765503 836.111389,745.374573 835.994141,781.982666 
	C835.981506,785.924438 835.375549,789.952087 834.425598,793.786499 
	C831.635925,805.046753 825.167236,809.919800 813.682800,809.881714 
	C802.095642,809.843262 795.455994,805.032959 792.982910,793.713379 
	C791.719788,787.931580 791.530823,781.835938 791.497253,775.878540 
	C791.348999,749.587036 791.433838,723.294250 791.434204,696.002686 
z"/>
<path fill="#FD0317" opacity="1.000000" stroke="none" 
	d="
M830.869080,290.889038 
	C836.415161,296.493835 838.068054,302.880524 838.220520,309.681183 
	C838.474304,321.003784 838.532349,332.332123 838.552856,343.658295 
	C838.598083,368.648407 838.726074,393.640350 838.463257,418.627777 
	C838.393982,425.213531 837.779114,431.990051 836.069092,438.315094 
	C833.621216,447.369385 826.373474,451.672607 816.190247,451.636566 
	C806.050720,451.600677 798.913696,447.067505 796.321289,438.163025 
	C794.943237,433.429840 794.104553,428.363007 794.078247,423.441132 
	C793.883728,387.124207 793.948486,350.805847 793.959717,314.487946 
	C793.960388,312.159637 794.048462,309.812744 794.343018,307.506042 
	C796.572449,290.043640 807.924500,282.720703 824.900513,287.830933 
	C826.775452,288.395325 828.481689,289.520020 830.869080,290.889038 
z"/>
<path fill="#FD061A" opacity="1.000000" stroke="none" 
	d="
M1228.302979,649.105103 
	C1233.955688,652.371399 1236.473145,657.011108 1237.862427,662.284668 
	C1240.543213,672.459961 1240.618408,682.689270 1237.988525,692.917969 
	C1235.588379,702.252563 1229.576416,708.058716 1220.256958,709.771301 
	C1213.458008,711.020752 1206.460205,711.187988 1198.004761,711.983032 
	C1197.682373,689.537598 1197.826416,668.119019 1197.947266,645.992554 
	C1208.398682,645.078003 1218.165161,644.733765 1228.302979,649.105103 
z"/>
<path fill="#FD0418" opacity="1.000000" stroke="none" 
	d="
M655.067322,660.083984 
	C655.067261,655.145996 655.067261,651.198730 655.067261,646.863281 
	C663.722351,646.863281 671.685242,646.085815 679.427795,647.059692 
	C689.140625,648.281372 694.493774,653.686829 695.411377,663.470581 
	C696.307434,673.024109 696.410156,682.829651 695.315674,692.346802 
	C693.977661,703.983093 687.878357,709.095032 675.975708,710.093811 
	C669.436890,710.642456 662.814270,710.192017 655.067383,710.192017 
	C655.067383,693.480652 655.067383,677.277710 655.067322,660.083984 
z"/>
</svg>