<svg version="1.1" id="Layer_1" xmlns="http://www.w3.org/2000/svg" xmlns:xlink="http://www.w3.org/1999/xlink" x="0px" y="0px"
	 width="100%" viewBox="0 0 3000 3000" enable-background="new 0 0 3000 3000" xml:space="preserve">
<path fill="#F106E9" opacity="1.000000" stroke="none" 
	d="
M2.000000,1114.000000 
	C2.000000,742.666748 2.000000,372.333466 2.000000,2.000149 
	C1001.999756,2.000099 2001.999512,2.000099 3001.999512,2.000050 
	C3001.999512,1001.999573 3001.999512,2001.999146 3001.999756,3001.999023 
	C2002.000610,3001.999512 1002.001221,3001.999512 2.000905,3001.999756 
	C2.000000,2373.000000 2.000000,1744.000000 2.000000,1114.000000 
M732.437439,709.524902 
	C733.067200,700.563660 734.230652,691.603271 734.244263,682.641113 
	C734.379822,593.343994 734.364868,504.046600 734.299561,414.749359 
	C734.281372,389.922516 730.803772,365.598022 722.195312,342.205261 
	C704.689148,294.633820 671.814819,264.869171 621.393005,255.407013 
	C596.571777,250.749084 571.681763,250.522308 546.821289,254.314072 
	C496.593689,261.974854 461.281677,289.027344 442.048676,336.359680 
	C431.091675,363.324799 427.603180,391.586761 427.633759,420.488525 
	C427.721558,503.454987 427.654297,586.421570 427.679382,669.388123 
	C427.681915,677.716064 427.659546,686.055603 428.064423,694.369507 
	C428.976196,713.092957 432.145691,731.466553 438.480042,749.129944 
	C454.607788,794.102356 484.286621,825.159241 531.351135,837.560059 
	C558.106873,844.609802 585.361084,845.484741 612.660767,841.311035 
	C646.071167,836.203003 674.871277,822.206909 696.858887,795.823059 
	C717.308777,771.284485 728.117798,742.684021 732.437439,709.524902 
M1610.999878,2152.585938 
	C1619.995605,2152.585938 1628.991455,2152.586182 1637.987183,2152.585938 
	C1684.298218,2152.584717 1730.609375,2152.610352 1776.920410,2152.562500 
	C1787.758911,2152.551270 1788.803101,2151.398926 1789.062012,2140.501221 
	C1789.085815,2139.502197 1789.071045,2138.502197 1789.071045,2137.502686 
	C1789.071167,2087.526611 1789.073853,2037.550659 1789.062866,1987.574707 
	C1789.062256,1984.911499 1789.073853,1982.237671 1788.854492,1979.587402 
	C1788.467529,1974.909668 1785.947632,1972.302856 1781.117676,1972.222290 
	C1778.785889,1972.183472 1776.453491,1972.167725 1774.121460,1972.167603 
	C1595.207520,1972.165161 1416.293579,1972.165039 1237.379639,1972.166870 
	C1235.047485,1972.166992 1232.698730,1972.021973 1230.386597,1972.244507 
	C1224.799805,1972.782471 1222.883545,1974.727295 1222.392334,1980.419067 
	C1222.164062,1983.065674 1222.323730,1985.746582 1222.323730,1988.411865 
	C1222.321899,2037.721436 1222.320068,2087.031006 1222.323730,2136.340576 
	C1222.325073,2152.569580 1222.332275,2152.582764 1238.178101,2152.583252 
	C1361.785278,2152.587402 1485.392578,2152.585938 1610.999878,2152.585938 
M1788.826660,1791.440552 
	C1788.907593,1738.464844 1789.011108,1685.489136 1789.054199,1632.513428 
	C1789.065430,1618.605957 1788.384521,1617.999512 1774.331055,1617.999146 
	C1595.070068,1617.994385 1415.808960,1617.995728 1236.547974,1617.998901 
	C1234.216064,1617.998901 1231.882812,1617.996704 1229.552734,1618.074829 
	C1225.152954,1618.222290 1222.874268,1620.707275 1222.467407,1624.923218 
	C1222.244141,1627.236694 1222.327515,1629.582886 1222.327271,1631.914307 
	C1222.321045,1682.560547 1222.314819,1733.206665 1222.327148,1783.852905 
	C1222.330688,1798.110229 1222.399414,1798.166260 1237.067383,1798.166504 
	C1415.995239,1798.170044 1594.922974,1798.168945 1773.850830,1798.166992 
	C1776.516357,1798.166870 1779.181763,1798.140503 1781.847290,1798.123169 
	C1785.272827,1798.100708 1787.481689,1796.453003 1788.826660,1791.440552 
M2258.183594,1921.183472 
	C2268.309326,1911.051636 2278.515625,1900.998657 2288.524414,1890.752686 
	C2293.120605,1886.047485 2292.983398,1884.716431 2288.750732,1879.892212 
	C2287.654053,1878.642700 2286.412598,1877.520386 2285.234863,1876.342529 
	C2200.191406,1791.299683 2115.160156,1706.244751 2030.051147,1621.267334 
	C2027.205688,1618.426392 2024.792358,1613.128662 2019.655884,1615.419556 
	C2014.646362,1617.653564 2016.640869,1623.053955 2016.638916,1627.131470 
	C2016.558716,1799.372925 2016.569458,1971.614502 2016.575317,2143.855957 
	C2016.575439,2146.186768 2016.379639,2148.563721 2016.758911,2150.838623 
	C2017.615601,2155.978027 2021.113159,2157.246094 2025.296387,2153.899170 
	C2027.624634,2152.036377 2029.614624,2149.747314 2031.734131,2147.627930 
	C2106.885498,2072.481201 2182.034424,1997.332153 2258.183594,1921.183472 
M1533.182617,2646.182617 
	C1611.616211,2567.748047 1690.073608,2489.337646 1768.398560,2410.794922 
	C1771.619385,2407.565186 1778.247559,2404.976318 1775.296631,2398.962646 
	C1772.838013,2393.952637 1766.858154,2396.243896 1762.437012,2396.241455 
	C1591.226318,2396.147705 1420.015625,2396.146484 1248.804932,2396.249268 
	C1244.427612,2396.251953 1238.435547,2393.887207 1236.075439,2399.090332 
	C1233.391479,2405.007080 1239.717651,2407.744385 1243.000366,2411.033691 
	C1327.237183,2495.438721 1411.575195,2579.742676 1495.895874,2664.063965 
	C1497.309204,2665.477295 1498.664795,2666.955078 1500.150391,2668.287598 
	C1505.152222,2672.773926 1506.165894,2672.915527 1510.937256,2668.331543 
	C1518.141968,2661.409912 1525.112549,2654.244629 1533.182617,2646.182617 
M994.596008,1669.000122 
	C994.595703,1655.005615 994.731812,1641.009033 994.509644,1627.018066 
	C994.445251,1622.961548 996.626099,1617.444092 991.488708,1615.372803 
	C986.416687,1613.327881 984.039917,1618.708618 981.175903,1621.568359 
	C896.302063,1706.306030 811.506958,1791.122559 726.701416,1875.928711 
	C725.053040,1877.577148 723.434326,1879.255371 721.795227,1880.913208 
	C718.946472,1883.795166 718.926636,1886.744873 721.638062,1889.701660 
	C722.988220,1891.173950 724.418579,1892.573608 725.831604,1893.986938 
	C811.106995,1979.265381 896.384155,2064.542236 981.664307,2149.815918 
	C983.077209,2151.229004 984.403687,2152.769775 985.988525,2153.961182 
	C990.342468,2157.234619 993.687256,2156.004639 994.381287,2150.719971 
	C994.811951,2147.440430 994.589600,2144.069824 994.589783,2140.739990 
	C994.596741,1984.160034 994.596069,1827.580200 994.596008,1669.000122 
M1378.818359,1223.818115 
	C1333.116211,1269.528687 1287.394531,1315.219727 1241.758667,1360.996460 
	C1238.895996,1363.867920 1233.680542,1366.310669 1236.056519,1371.486572 
	C1238.140991,1376.027588 1243.163574,1374.088989 1246.895264,1374.090820 
	C1419.484863,1374.177734 1592.074463,1374.166992 1764.664062,1374.161377 
	C1766.995361,1374.161255 1769.370972,1374.353638 1771.648315,1373.981934 
	C1775.638184,1373.330566 1777.332153,1369.950806 1775.134155,1366.677979 
	C1773.487671,1364.226318 1771.123657,1362.242310 1769.005371,1360.123901 
	C1684.430908,1275.539917 1599.848145,1190.964233 1515.264282,1106.389648 
	C1513.615723,1104.741333 1511.970215,1103.088013 1510.272827,1101.490601 
	C1507.401733,1098.788818 1504.419556,1098.547119 1501.450073,1101.319458 
	C1499.502808,1103.137207 1497.615845,1105.020630 1495.731689,1106.904419 
	C1457.091309,1145.539795 1418.455322,1184.179565 1378.818359,1223.818115 
M371.441376,453.000183 
	C371.441376,388.800873 371.441376,324.601593 371.441376,260.879486 
	C369.358124,260.206146 368.725861,259.824402 368.092499,259.822601 
	C342.097198,259.747925 316.101166,259.617035 290.107391,259.798584 
	C287.428345,259.817291 284.143921,261.056427 282.189209,262.863678 
	C267.611542,276.341370 250.911087,286.678375 233.510788,295.879028 
	C215.570969,305.364899 197.302902,314.230011 178.132690,323.893921 
	C178.315811,349.648285 177.735992,376.340698 178.540161,404.084167 
	C206.430298,394.096588 232.929016,384.607300 260.907623,374.588043 
	C260.907623,401.069580 260.907593,426.302094 260.907593,451.534607 
	C260.907593,477.197968 260.907593,502.861359 260.907593,528.524719 
	C260.907593,553.854797 260.907593,579.184875 260.907593,604.514954 
	C260.907593,629.845032 260.907593,655.175049 260.907593,680.505127 
	C260.907593,706.168518 260.803833,731.832397 260.937073,757.495056 
	C261.067871,782.688660 260.335388,807.904480 261.411469,833.149414 
	C298.394348,833.149414 334.270447,833.149414 371.441101,833.149414 
	C371.441101,706.746826 371.441101,580.873535 371.441376,453.000183 
M1313.852539,837.454224 
	C1320.447388,838.252747 1327.031616,839.544983 1333.640503,839.685730 
	C1338.489624,839.788940 1341.285767,841.648376 1344.370728,845.237976 
	C1352.586426,854.798035 1361.276978,863.976135 1370.181885,872.903870 
	C1373.311768,876.041748 1377.614014,878.010254 1382.579834,881.309143 
	C1385.319336,871.394409 1387.664307,862.907166 1389.993164,854.478516 
	C1383.007202,847.358582 1374.736938,842.079102 1370.194092,832.805237 
	C1387.102051,823.382690 1394.370850,808.055359 1397.467896,790.351318 
	C1398.724121,783.170654 1399.307739,775.791504 1399.364014,768.496216 
	C1399.577026,740.868286 1399.948486,713.224365 1399.208740,685.614563 
	C1398.900513,674.111877 1397.062622,662.368958 1393.956177,651.285767 
	C1388.785522,632.837524 1376.079346,621.380432 1357.073120,617.309021 
	C1343.207031,614.338745 1329.322266,614.372498 1315.463379,617.105774 
	C1295.164551,621.108948 1282.638672,633.681946 1276.724365,653.140686 
	C1275.377930,657.570862 1274.041748,662.221924 1273.976685,666.789429 
	C1273.446533,704.037109 1273.181763,741.288879 1272.959351,778.540161 
	C1272.937622,782.174438 1273.551636,785.848450 1274.198364,789.445007 
	C1278.283813,812.166016 1287.948486,830.467041 1313.852539,837.454224 
M1081.096680,465.775482 
	C1072.223389,434.197510 1063.350098,402.619537 1054.396606,370.756012 
	C1070.388794,363.431793 1077.500488,350.842163 1079.194336,335.546631 
	C1080.429688,324.390320 1080.664062,312.839905 1079.240723,301.734802 
	C1076.718506,282.057617 1065.101929,269.036316 1045.830811,263.677124 
	C1038.831909,261.730774 1031.503662,260.222504 1024.277222,259.983795 
	C1004.978027,259.346375 985.652710,259.475220 966.337402,259.398376 
	C964.484070,259.391022 962.627991,260.075409 960.754639,260.442322 
	C960.754639,333.156952 960.754639,405.342834 960.754639,478.098602 
	C974.014404,478.098602 986.830872,478.098602 1000.682312,478.098602 
	C1000.682312,466.733856 1000.682373,455.826599 1000.682373,444.919373 
	C1000.682373,433.927704 1000.564087,422.934448 1000.715759,411.944855 
	C1000.865173,401.120636 1000.004211,390.224426 1001.357727,379.214539 
	C1007.472168,379.214539 1012.348389,379.214539 1018.111206,379.214539 
	C1026.888184,412.463623 1035.595825,445.449921 1044.359863,478.649841 
	C1058.131836,478.497681 1070.910767,479.033722 1084.297852,478.319336 
	C1083.161621,473.700653 1082.375854,470.506622 1081.096680,465.775482 
M1308.196655,469.432526 
	C1320.447998,461.557373 1327.332031,449.957428 1329.848755,436.016388 
	C1331.554688,426.566772 1332.351440,416.851013 1332.484985,407.239380 
	C1332.836670,381.911896 1332.646118,356.576172 1332.577026,331.244019 
	C1332.558838,324.582855 1332.479614,317.899841 1331.944214,311.265930 
	C1329.588135,282.073425 1315.503906,266.450012 1286.807495,261.052551 
	C1283.220947,260.377960 1279.541992,259.908813 1275.899536,259.864380 
	C1256.571533,259.628632 1237.241699,259.524353 1217.912109,259.487762 
	C1216.081543,259.484314 1214.249268,260.266357 1212.702637,260.618835 
	C1212.702637,333.444305 1212.702637,405.608124 1212.702637,477.566193 
	C1237.021729,477.566193 1260.646606,478.160095 1284.210938,477.225189 
	C1291.853516,476.921967 1299.337402,472.615387 1308.196655,469.432526 
M1831.441772,474.755432 
	C1849.370728,469.378845 1860.028076,457.078735 1864.478638,439.292023 
	C1866.165283,432.552063 1867.675293,425.555054 1867.745972,418.659637 
	C1868.094482,384.689850 1868.636475,350.696716 1867.761230,316.746582 
	C1866.807983,279.766113 1848.017334,261.380615 1810.914673,259.913849 
	C1791.623413,259.151245 1772.285889,259.541901 1752.968872,259.481354 
	C1751.426758,259.476501 1749.882812,260.016754 1748.528198,260.268646 
	C1746.491943,277.038879 1747.266235,471.146545 1749.472778,478.580322 
	C1767.617188,478.580322 1785.930176,478.913177 1804.222046,478.433838 
	C1812.809082,478.208801 1821.355225,476.419189 1831.441772,474.755432 
M1063.733032,713.518433 
	C1070.184692,728.468689 1076.755737,743.368835 1083.060425,758.380859 
	C1092.985352,782.013489 1102.657471,805.752686 1112.650513,829.356140 
	C1113.839233,832.164001 1116.199097,836.377380 1118.303589,836.556030 
	C1126.027222,837.211792 1134.004883,838.303162 1141.638428,835.813171 
	C1141.638428,763.084473 1141.638428,690.922546 1141.638428,618.337402 
	C1130.667480,618.337402 1120.255859,618.337402 1108.904907,618.337402 
	C1108.904907,628.611938 1108.904907,638.218323 1108.904907,647.824707 
	C1108.904907,657.485718 1108.904907,667.146667 1108.904907,676.807678 
	C1108.904907,686.801819 1109.132935,696.802673 1108.838013,706.788147 
	C1108.565063,716.026672 1110.146606,725.426331 1107.233154,737.026917 
	C1089.353271,695.781921 1072.465332,656.824951 1055.846436,618.488770 
	C1045.937866,618.488770 1037.146484,618.488770 1028.290771,618.488770 
	C1028.290771,691.512512 1028.290771,763.700134 1028.290771,836.352051 
	C1039.575684,836.352051 1050.372437,836.352051 1061.861328,836.352051 
	C1061.861328,824.002258 1061.821899,812.369202 1061.869019,800.736511 
	C1061.986328,771.768066 1062.142944,742.799744 1063.733032,713.518433 
M1461.431030,837.877869 
	C1470.377563,838.492493 1479.366821,839.991089 1488.262817,839.560852 
	C1518.665527,838.090515 1534.737915,824.159973 1540.305420,794.250305 
	C1542.242432,783.844116 1542.907959,773.077820 1542.975098,762.468567 
	C1543.257935,717.824219 1543.094727,673.177063 1543.094727,628.530945 
	C1543.094727,625.270691 1543.094727,622.010376 1543.094727,618.398438 
	C1529.577271,618.398438 1517.166870,618.398438 1503.979980,618.398438 
	C1503.979980,622.742981 1503.980225,626.349731 1503.979980,629.956421 
	C1503.978149,676.601624 1504.135010,723.247864 1503.829712,769.891113 
	C1503.773682,778.447693 1502.680542,787.207581 1500.557251,795.486694 
	C1497.976318,805.550415 1489.284424,810.710388 1479.219727,809.528748 
	C1470.521118,808.507507 1463.745483,804.143066 1461.881836,795.344910 
	C1459.964722,786.293762 1458.566406,776.948364 1458.500244,767.720520 
	C1458.168457,721.410889 1458.356323,675.097595 1458.329346,628.785583 
	C1458.327271,625.264282 1458.075439,621.743042 1457.945435,618.373779 
	C1444.649292,618.373779 1432.507080,618.373779 1420.069702,618.373779 
	C1419.903442,621.022461 1419.674561,622.975098 1419.673950,624.927795 
	C1419.658936,673.238831 1419.547852,721.550537 1419.784302,769.860413 
	C1419.826416,778.469788 1420.687866,787.192200 1422.279175,795.653992 
	C1426.295532,817.012756 1437.561157,832.303772 1461.431030,837.877869 
M1467.421631,456.167206 
	C1473.870972,443.023438 1476.250488,428.987518 1476.294067,414.504150 
	C1476.441284,365.516541 1476.515991,316.528717 1476.557495,267.540924 
	C1476.559692,265.020264 1475.996460,262.499146 1475.647095,259.562622 
	C1462.775879,259.446411 1450.638672,259.073334 1437.822021,259.791901 
	C1437.822021,264.951508 1437.825684,268.899811 1437.821533,272.848114 
	C1437.771973,320.171173 1437.812500,367.494690 1437.565552,414.816711 
	C1437.531128,421.420258 1436.657837,428.150330 1435.160278,434.586212 
	C1432.568726,445.724457 1424.932251,451.548828 1414.594971,451.336487 
	C1404.322998,451.125427 1396.671265,444.956909 1394.455200,433.910034 
	C1393.024536,426.778015 1392.304199,419.387634 1392.275146,412.109039 
	C1392.087769,365.119354 1392.178589,318.128540 1392.178101,271.138123 
	C1392.177979,267.577576 1392.177979,264.017029 1392.177979,259.992798 
	C1378.840942,259.992798 1366.708496,259.992798 1353.978027,259.992798 
	C1353.761475,262.396545 1353.436890,264.324036 1353.436035,266.251648 
	C1353.415649,315.574829 1353.375854,364.898132 1353.473999,414.221161 
	C1353.498657,426.615265 1355.257324,438.752075 1359.787109,450.434357 
	C1365.227295,464.464478 1375.055176,473.706573 1389.393799,477.939758 
	C1405.739624,482.765472 1422.233887,482.896454 1438.709229,478.433411 
	C1450.799072,475.158386 1460.511230,468.660706 1467.421631,456.167206 
M1508.344116,458.554565 
	C1515.424438,469.473450 1525.644775,475.865631 1538.065308,478.961060 
	C1553.594238,482.831085 1569.094360,482.613251 1584.405640,477.886719 
	C1596.820312,474.054352 1605.991089,466.253601 1611.469238,454.386292 
	C1620.012329,435.879089 1618.995117,416.369843 1618.263794,396.854370 
	C1605.145020,396.854370 1592.986572,396.854370 1579.972290,396.854370 
	C1579.972290,405.147644 1580.130615,412.754272 1579.918213,420.350525 
	C1579.769897,425.653137 1579.659302,431.056702 1578.570923,436.212311 
	C1576.304199,446.949310 1570.325073,451.497101 1559.587769,451.611328 
	C1549.162964,451.722198 1542.707886,446.980896 1539.950195,436.748657 
	C1538.918579,432.921173 1538.044434,428.905182 1538.031128,424.972015 
	C1537.901978,387.006104 1537.878540,349.038971 1538.107788,311.073883 
	C1538.135132,306.525604 1539.224976,301.742126 1540.906250,297.496857 
	C1544.180298,289.229065 1552.384155,285.352051 1562.321411,286.507050 
	C1571.812134,287.610168 1577.298706,291.871063 1578.638306,301.206177 
	C1579.859985,309.718964 1579.594482,318.445862 1579.970459,327.078979 
	C1580.138550,330.937622 1580.272827,334.797729 1580.424438,338.708801 
	C1593.626953,338.708801 1605.723999,338.708801 1618.603638,338.708801 
	C1618.559937,323.387268 1619.665894,308.782227 1615.905640,294.412903 
	C1611.024170,275.759125 1599.770020,263.365082 1580.570679,259.003998 
	C1566.387695,255.782364 1552.181274,255.764328 1538.010132,259.138702 
	C1519.596802,263.523285 1507.375122,274.683441 1501.995483,292.861053 
	C1500.117920,299.205383 1498.125610,305.811859 1498.007690,312.331543 
	C1497.375977,347.274384 1497.064087,382.228577 1497.189453,417.176849 
	C1497.240112,431.267334 1500.057617,444.991669 1508.344116,458.554565 
M1682.436768,818.163879 
	C1670.552002,759.448730 1658.672852,700.732422 1646.775757,642.019775 
	C1645.149292,633.993347 1643.433594,625.984924 1641.774658,618.042175 
	C1627.311890,618.042175 1614.055176,618.042175 1599.853516,618.042175 
	C1585.074097,690.773865 1570.333008,763.317383 1555.508057,836.273132 
	C1568.970093,836.273132 1581.070923,836.273132 1593.362915,836.273132 
	C1596.484741,819.288208 1599.470947,803.041565 1602.483398,786.651489 
	C1615.355957,786.651489 1627.238159,786.651489 1639.884277,786.651489 
	C1642.890747,803.244812 1645.842041,819.534424 1648.969727,836.797485 
	C1661.268677,837.141602 1673.292725,837.522583 1686.144653,836.459167 
	C1684.883179,830.150208 1683.850098,824.983154 1682.436768,818.163879 
M2223.338379,766.202087 
	C2227.966309,774.913452 2230.985596,783.992920 2228.895508,793.997253 
	C2226.581299,805.074036 2219.906738,809.667908 2208.667969,808.391357 
	C2201.712891,807.601257 2196.543457,803.786560 2194.001953,797.736206 
	C2191.206299,791.080627 2189.679199,783.864502 2187.923584,776.811829 
	C2187.077881,773.414246 2186.976074,769.831543 2186.419189,765.389771 
	C2174.429443,767.925293 2163.518799,770.232544 2151.891602,772.691406 
	C2152.884033,791.445801 2155.989746,808.548096 2168.247803,822.581421 
	C2171.473877,826.274414 2175.476807,829.723389 2179.810791,831.939209 
	C2199.276367,841.891235 2219.457275,843.243408 2239.481201,834.005615 
	C2260.766113,824.186279 2271.124756,801.087646 2267.311035,775.128540 
	C2264.399170,755.307312 2254.048096,739.777527 2239.901123,726.487549 
	C2229.707520,716.911499 2218.891113,708.001953 2208.507812,698.623047 
	C2204.319824,694.840149 2200.306396,690.804260 2196.638184,686.519775 
	C2190.376465,679.206543 2188.978027,670.388367 2190.154785,661.145935 
	C2191.273438,652.358215 2197.203857,646.810059 2205.977539,645.771606 
	C2215.383301,644.658264 2221.958984,648.029846 2225.330078,656.306580 
	C2226.818115,659.960632 2227.501221,663.971924 2228.289795,667.873535 
	C2229.128174,672.021790 2229.658447,676.232300 2230.453369,681.235840 
	C2242.035156,678.881042 2252.882080,676.675598 2263.874023,674.440674 
	C2263.198730,662.325500 2260.951660,652.054688 2256.592529,642.190552 
	C2250.293213,627.935364 2239.218750,619.601990 2224.294678,616.528687 
	C2213.106934,614.224854 2201.733154,614.389954 2190.595459,617.231445 
	C2169.878662,622.516663 2156.897705,635.361084 2153.246338,656.751404 
	C2149.082031,681.147339 2155.073730,702.381897 2173.776123,719.258179 
	C2184.164062,728.631653 2195.025879,737.484375 2205.317139,746.959106 
	C2211.408203,752.566650 2216.804443,758.929077 2223.338379,766.202087 
M2112.876465,737.466125 
	C2118.417480,737.466125 2123.958740,737.466125 2129.513184,737.466125 
	C2129.513184,727.148987 2129.513184,718.330322 2129.513184,708.358521 
	C2116.040039,708.358521 2103.230469,708.358521 2090.203613,708.358521 
	C2090.203613,687.098572 2090.203613,667.012573 2090.203613,645.747437 
	C2107.352295,645.747437 2123.793213,645.747437 2140.351074,645.747437 
	C2140.351074,635.792786 2140.351074,627.035461 2140.351074,618.094055 
	C2109.720947,618.094055 2079.865723,618.094055 2048.876465,618.094055 
	C2048.876465,642.785034 2048.876465,666.997009 2048.876465,691.208984 
	C2048.876465,715.524902 2048.739990,739.841736 2048.914795,764.156372 
	C2049.088379,788.277832 2048.129883,812.434692 2049.516357,836.373413 
	C2067.961914,838.177307 2134.084473,837.476318 2141.184326,835.541504 
	C2141.184326,827.052795 2141.184326,818.584595 2141.184326,809.224609 
	C2123.954346,809.224609 2107.405762,809.224609 2089.904053,809.224609 
	C2089.246338,784.932434 2089.144043,761.563904 2089.940918,737.465820 
	C2097.678711,737.465820 2104.298584,737.465820 2112.876465,737.466125 
M1706.978027,287.868622 
	C1714.841064,287.868622 1722.704102,287.868622 1730.864502,287.868622 
	C1731.577148,277.612366 1732.112183,268.845154 1730.679321,260.243225 
	C1716.409058,258.388397 1646.515869,258.947205 1639.408081,260.894775 
	C1639.408081,333.076935 1639.408081,405.288116 1639.408081,477.980896 
	C1670.367432,477.980896 1700.791748,477.980896 1731.156006,477.980896 
	C1731.156006,468.773132 1731.156006,460.299469 1731.156006,450.480896 
	C1713.688599,450.480896 1696.915283,450.480896 1680.200195,450.480896 
	C1680.200195,425.934845 1680.200195,402.768341 1680.200195,378.529572 
	C1693.767090,378.529572 1706.615234,378.529572 1719.882080,378.529572 
	C1720.056030,368.628723 1721.065796,359.802917 1719.102905,350.296234 
	C1712.360229,350.296234 1706.078247,350.296234 1699.796265,350.296234 
	C1693.262573,350.296234 1686.728882,350.296234 1680.407959,350.296234 
	C1678.521851,334.586731 1679.105347,295.534210 1681.333130,287.868591 
	C1689.079590,287.868591 1697.036987,287.868591 1706.978027,287.868622 
M1171.438721,617.755737 
	C1165.049194,619.135803 1167.975586,624.318604 1167.965454,627.613281 
	C1167.762085,694.219971 1167.806396,760.827454 1167.836670,827.434814 
	C1167.837891,830.324158 1168.181152,833.213318 1168.387207,836.449524 
	C1199.204834,836.449524 1229.353394,836.449524 1259.816406,836.449524 
	C1259.816406,827.287415 1259.816406,818.758850 1259.816406,808.975342 
	C1242.516479,808.975342 1225.724487,808.975342 1208.695312,808.975342 
	C1208.695312,784.593018 1208.695312,761.473938 1208.695312,737.297119 
	C1222.182251,737.297119 1235.010376,737.297119 1247.587891,737.297119 
	C1249.857178,726.377258 1249.621338,716.188599 1246.969604,708.558472 
	C1240.882935,708.558472 1234.578369,708.577881 1228.274048,708.553162 
	C1221.760254,708.527588 1215.246704,708.459290 1208.979980,708.411499 
	C1207.104858,692.784180 1207.646973,653.670044 1209.950562,645.610229 
	C1226.106323,645.610229 1242.585327,645.610229 1259.043945,645.610229 
	C1259.043945,635.747131 1259.043945,626.980896 1259.043945,617.677673 
	C1229.943848,617.677673 1201.655640,617.677673 1171.438721,617.755737 
M1193.861084,451.308899 
	C1177.402710,451.050262 1160.944214,450.791595 1144.513184,450.533386 
	C1144.513184,425.948334 1144.513184,402.804840 1144.513184,378.496155 
	C1157.950562,378.496155 1170.769287,378.496155 1184.032593,378.496155 
	C1184.661377,368.564636 1185.385376,359.818481 1183.421875,350.003235 
	C1170.179443,350.003235 1157.379761,350.003235 1144.755615,350.003235 
	C1143.011963,335.200012 1143.508545,295.640900 1145.645386,287.544861 
	C1161.864868,287.544861 1178.366577,287.544861 1195.124268,287.544861 
	C1195.124268,277.748260 1195.124268,268.971313 1195.124268,260.001160 
	C1164.562988,260.001160 1134.734741,260.001160 1104.520752,260.001160 
	C1104.520752,332.987732 1104.520752,405.377472 1104.520752,477.673401 
	C1118.910522,479.554047 1188.432617,478.943573 1195.414185,476.988464 
	C1195.414185,468.730469 1195.414185,460.489044 1193.861084,451.308899 
M1944.979980,617.653687 
	C1916.703735,617.653687 1888.427368,617.653687 1859.760742,617.653687 
	C1859.760742,627.927734 1859.760742,637.346619 1859.760742,647.899170 
	C1872.081421,647.899170 1883.558472,647.899170 1895.811035,647.899170 
	C1895.811035,664.640076 1895.811035,680.239746 1895.811035,695.839417 
	C1895.811035,711.497498 1895.811035,727.155579 1895.811035,742.813660 
	C1895.811035,758.471741 1895.806885,774.129761 1895.812134,789.787842 
	C1895.817261,805.283203 1895.832275,820.778564 1895.843018,836.502930 
	C1909.874390,836.502930 1922.404297,836.502930 1936.040527,836.502930 
	C1936.040527,773.497437 1936.040527,711.055908 1936.040527,647.432617 
	C1948.258057,647.432617 1959.412231,647.432617 1971.106201,647.432617 
	C1971.106201,637.114319 1971.106201,627.989075 1971.106201,617.653625 
	C1962.762939,617.653625 1954.867188,617.653625 1944.979980,617.653687 
M1740.681885,713.000732 
	C1740.681885,681.473877 1740.681885,649.946960 1740.681885,617.655457 
	C1733.125610,617.655457 1726.835083,617.639404 1720.544678,617.659912 
	C1714.031250,617.681152 1707.517822,617.737915 1700.738281,617.780823 
	C1700.738281,691.399109 1700.738281,763.557739 1700.738281,836.364380 
	C1731.588257,836.364380 1762.008179,836.364380 1792.783447,836.364380 
	C1792.783447,827.199768 1792.783447,818.757141 1792.783447,808.992981 
	C1775.368652,808.992981 1758.576050,808.992981 1740.681030,808.992981 
	C1740.681030,776.784973 1740.681030,745.892883 1740.681885,713.000732 
M2022.403076,767.001099 
	C2022.403076,717.472900 2022.403076,667.944702 2022.403076,617.604309 
	C2010.687012,617.604309 2000.091187,617.572021 1989.495972,617.633972 
	C1987.572144,617.645203 1985.650635,618.042175 1983.569580,618.279175 
	C1983.569580,691.184021 1983.569580,763.611206 1983.569580,836.442627 
	C1996.699463,836.442627 2009.130615,836.442627 2022.402344,836.442627 
	C2022.402344,813.525146 2022.402344,791.263123 2022.403076,767.001099 
M1813.478516,617.678162 
	C1811.753418,618.775330 1809.230469,619.502136 1808.505493,621.063660 
	C1807.605591,623.001892 1808.145874,625.630981 1808.145630,627.961609 
	C1808.137085,694.293884 1808.138672,760.626221 1808.138672,826.958496 
	C1808.138672,829.895020 1808.138794,832.831543 1808.138794,836.316711 
	C1821.800049,836.316711 1834.565552,836.316711 1847.239624,836.316711 
	C1849.285156,817.890076 1848.420654,625.064331 1846.189453,617.658264 
	C1836.036499,617.658264 1825.718384,617.658264 1813.478516,617.678162 
M1001.451355,713.000122 
	C1001.451355,681.483826 1001.451355,649.967468 1001.451355,618.329712 
	C987.589417,618.329712 975.120056,618.329712 962.466309,618.329712 
	C962.466309,691.379456 962.466309,763.745117 962.466309,836.364868 
	C975.604492,836.364868 988.069580,836.364868 1001.451111,836.364868 
	C1001.451111,795.431152 1001.451111,755.215698 1001.451355,713.000122 
z"/>
<path fill="#FFFDFF" opacity="1.000000" stroke="none" 
	d="
M732.346008,710.413208 
	C728.117798,742.684021 717.308777,771.284485 696.858887,795.823059 
	C674.871277,822.206909 646.071167,836.203003 612.660767,841.311035 
	C585.361084,845.484741 558.106873,844.609802 531.351135,837.560059 
	C484.286621,825.159241 454.607788,794.102356 438.480042,749.129944 
	C432.145691,731.466553 428.976196,713.092957 428.064423,694.369507 
	C427.659546,686.055603 427.681915,677.716064 427.679382,669.388123 
	C427.654297,586.421570 427.721558,503.454987 427.633759,420.488525 
	C427.603180,391.586761 431.091675,363.324799 442.048676,336.359680 
	C461.281677,289.027344 496.593689,261.974854 546.821289,254.314072 
	C571.681763,250.522308 596.571777,250.749084 621.393005,255.407013 
	C671.814819,264.869171 704.689148,294.633820 722.195312,342.205261 
	C730.803772,365.598022 734.281372,389.922516 734.299561,414.749359 
	C734.364868,504.046600 734.379822,593.343994 734.244263,682.641113 
	C734.230652,691.603271 733.067200,700.563660 732.346008,710.413208 
M539.073242,440.999573 
	C539.073364,517.928955 539.045715,594.858337 539.115234,671.787659 
	C539.122498,679.770813 539.399475,687.780396 540.097839,695.729736 
	C541.093933,707.067383 543.544678,718.104370 549.174683,728.178711 
	C556.362915,741.041199 567.527100,746.992737 582.103333,746.811829 
	C596.448120,746.633728 606.881897,739.933594 613.435303,727.349365 
	C615.569092,723.251953 617.645996,718.834534 618.358032,714.343018 
	C620.278870,702.227295 622.671570,689.998108 622.723999,677.804688 
	C623.093567,591.885132 622.964417,505.963226 622.881775,420.042145 
	C622.866394,404.008240 621.311523,388.121002 616.013550,372.825256 
	C610.106018,355.769257 598.864990,348.075714 580.348328,348.341614 
	C561.633972,348.610352 550.872864,356.340271 545.386169,373.698242 
	C543.986328,378.126587 542.419312,382.665344 542.084473,387.237976 
	C540.822388,404.472900 540.036682,421.742706 539.073242,440.999573 
z"/>
<path fill="#FFFEFF" opacity="1.000000" stroke="none" 
	d="
M1609.999756,2152.585938 
	C1485.392578,2152.585938 1361.785278,2152.587402 1238.178101,2152.583252 
	C1222.332275,2152.582764 1222.325073,2152.569580 1222.323730,2136.340576 
	C1222.320068,2087.031006 1222.321899,2037.721436 1222.323730,1988.411865 
	C1222.323730,1985.746582 1222.164062,1983.065674 1222.392334,1980.419067 
	C1222.883545,1974.727295 1224.799805,1972.782471 1230.386597,1972.244507 
	C1232.698730,1972.021973 1235.047485,1972.166992 1237.379639,1972.166870 
	C1416.293579,1972.165039 1595.207520,1972.165161 1774.121460,1972.167603 
	C1776.453491,1972.167725 1778.785889,1972.183472 1781.117676,1972.222290 
	C1785.947632,1972.302856 1788.467529,1974.909668 1788.854492,1979.587402 
	C1789.073853,1982.237671 1789.062256,1984.911499 1789.062866,1987.574707 
	C1789.073853,2037.550659 1789.071167,2087.526611 1789.071045,2137.502686 
	C1789.071045,2138.502197 1789.085815,2139.502197 1789.062012,2140.501221 
	C1788.803101,2151.398926 1787.758911,2152.551270 1776.920410,2152.562500 
	C1730.609375,2152.610352 1684.298218,2152.584717 1637.987183,2152.585938 
	C1628.991455,2152.586182 1619.995605,2152.585938 1609.999756,2152.585938 
z"/>
<path fill="#FFFEFF" opacity="1.000000" stroke="none" 
	d="
M1788.642334,1792.302246 
	C1787.481689,1796.453003 1785.272827,1798.100708 1781.847290,1798.123169 
	C1779.181763,1798.140503 1776.516357,1798.166870 1773.850830,1798.166992 
	C1594.922974,1798.168945 1415.995239,1798.170044 1237.067383,1798.166504 
	C1222.399414,1798.166260 1222.330688,1798.110229 1222.327148,1783.852905 
	C1222.314819,1733.206665 1222.321045,1682.560547 1222.327271,1631.914307 
	C1222.327515,1629.582886 1222.244141,1627.236694 1222.467407,1624.923218 
	C1222.874268,1620.707275 1225.152954,1618.222290 1229.552734,1618.074829 
	C1231.882812,1617.996704 1234.216064,1617.998901 1236.547974,1617.998901 
	C1415.808960,1617.995728 1595.070068,1617.994385 1774.331055,1617.999146 
	C1788.384521,1617.999512 1789.065430,1618.605957 1789.054199,1632.513428 
	C1789.011108,1685.489136 1788.907593,1738.464844 1788.642334,1792.302246 
z"/>
<path fill="#FFFDFF" opacity="1.000000" stroke="none" 
	d="
M2257.683594,1921.683350 
	C2182.034424,1997.332153 2106.885498,2072.481201 2031.734131,2147.627930 
	C2029.614624,2149.747314 2027.624634,2152.036377 2025.296387,2153.899170 
	C2021.113159,2157.246094 2017.615601,2155.978027 2016.758911,2150.838623 
	C2016.379639,2148.563721 2016.575439,2146.186768 2016.575317,2143.855957 
	C2016.569458,1971.614502 2016.558716,1799.372925 2016.638916,1627.131470 
	C2016.640869,1623.053955 2014.646362,1617.653564 2019.655884,1615.419556 
	C2024.792358,1613.128662 2027.205688,1618.426392 2030.051147,1621.267334 
	C2115.160156,1706.244751 2200.191406,1791.299683 2285.234863,1876.342529 
	C2286.412598,1877.520386 2287.654053,1878.642700 2288.750732,1879.892212 
	C2292.983398,1884.716431 2293.120605,1886.047485 2288.524414,1890.752686 
	C2278.515625,1900.998657 2268.309326,1911.051636 2257.683594,1921.683350 
z"/>
<path fill="#FFFDFF" opacity="1.000000" stroke="none" 
	d="
M1532.682617,2646.682617 
	C1525.112549,2654.244629 1518.141968,2661.409912 1510.937256,2668.331543 
	C1506.165894,2672.915527 1505.152222,2672.773926 1500.150391,2668.287598 
	C1498.664795,2666.955078 1497.309204,2665.477295 1495.895874,2664.063965 
	C1411.575195,2579.742676 1327.237183,2495.438721 1243.000366,2411.033691 
	C1239.717651,2407.744385 1233.391479,2405.007080 1236.075439,2399.090332 
	C1238.435547,2393.887207 1244.427612,2396.251953 1248.804932,2396.249268 
	C1420.015625,2396.146484 1591.226318,2396.147705 1762.437012,2396.241455 
	C1766.858154,2396.243896 1772.838013,2393.952637 1775.296631,2398.962646 
	C1778.247559,2404.976318 1771.619385,2407.565186 1768.398560,2410.794922 
	C1690.073608,2489.337646 1611.616211,2567.748047 1532.682617,2646.682617 
z"/>
<path fill="#FFFEFF" opacity="1.000000" stroke="none" 
	d="
M994.596130,1670.000244 
	C994.596069,1827.580200 994.596741,1984.160034 994.589783,2140.739990 
	C994.589600,2144.069824 994.811951,2147.440430 994.381287,2150.719971 
	C993.687256,2156.004639 990.342468,2157.234619 985.988525,2153.961182 
	C984.403687,2152.769775 983.077209,2151.229004 981.664307,2149.815918 
	C896.384155,2064.542236 811.106995,1979.265381 725.831604,1893.986938 
	C724.418579,1892.573608 722.988220,1891.173950 721.638062,1889.701660 
	C718.926636,1886.744873 718.946472,1883.795166 721.795227,1880.913208 
	C723.434326,1879.255371 725.053040,1877.577148 726.701416,1875.928711 
	C811.506958,1791.122559 896.302063,1706.306030 981.175903,1621.568359 
	C984.039917,1618.708618 986.416687,1613.327881 991.488708,1615.372803 
	C996.626099,1617.444092 994.445251,1622.961548 994.509644,1627.018066 
	C994.731812,1641.009033 994.595703,1655.005615 994.596130,1670.000244 
z"/>
<path fill="#FFFEFF" opacity="1.000000" stroke="none" 
	d="
M1379.318359,1223.318237 
	C1418.455322,1184.179565 1457.091309,1145.539795 1495.731689,1106.904419 
	C1497.615845,1105.020630 1499.502808,1103.137207 1501.450073,1101.319458 
	C1504.419556,1098.547119 1507.401733,1098.788818 1510.272827,1101.490601 
	C1511.970215,1103.088013 1513.615723,1104.741333 1515.264282,1106.389648 
	C1599.848145,1190.964233 1684.430908,1275.539917 1769.005371,1360.123901 
	C1771.123657,1362.242310 1773.487671,1364.226318 1775.134155,1366.677979 
	C1777.332153,1369.950806 1775.638184,1373.330566 1771.648315,1373.981934 
	C1769.370972,1374.353638 1766.995361,1374.161255 1764.664062,1374.161377 
	C1592.074463,1374.166992 1419.484863,1374.177734 1246.895264,1374.090820 
	C1243.163574,1374.088989 1238.140991,1376.027588 1236.056519,1371.486572 
	C1233.680542,1366.310669 1238.895996,1363.867920 1241.758667,1360.996460 
	C1287.394531,1315.219727 1333.116211,1269.528687 1379.318359,1223.318237 
z"/>
<path fill="#FFFBFF" opacity="1.000000" stroke="none" 
	d="
M371.441223,454.000183 
	C371.441101,580.873535 371.441101,706.746826 371.441101,833.149414 
	C334.270447,833.149414 298.394348,833.149414 261.411469,833.149414 
	C260.335388,807.904480 261.067871,782.688660 260.937073,757.495056 
	C260.803833,731.832397 260.907593,706.168518 260.907593,680.505127 
	C260.907593,655.175049 260.907593,629.845032 260.907593,604.514954 
	C260.907593,579.184875 260.907593,553.854797 260.907593,528.524719 
	C260.907593,502.861359 260.907593,477.197968 260.907593,451.534607 
	C260.907593,426.302094 260.907623,401.069580 260.907623,374.588043 
	C232.929016,384.607300 206.430298,394.096588 178.540161,404.084167 
	C177.735992,376.340698 178.315811,349.648285 178.132690,323.893921 
	C197.302902,314.230011 215.570969,305.364899 233.510788,295.879028 
	C250.911087,286.678375 267.611542,276.341370 282.189209,262.863678 
	C284.143921,261.056427 287.428345,259.817291 290.107391,259.798584 
	C316.101166,259.617035 342.097198,259.747925 368.092499,259.822601 
	C368.725861,259.824402 369.358124,260.206146 371.441376,260.879486 
	C371.441376,324.601593 371.441376,388.800873 371.441223,454.000183 
z"/>
<path fill="#FFFAFF" opacity="1.000000" stroke="none" 
	d="
M1313.075195,837.209106 
	C1287.948486,830.467041 1278.283813,812.166016 1274.198364,789.445007 
	C1273.551636,785.848450 1272.937622,782.174438 1272.959351,778.540161 
	C1273.181763,741.288879 1273.446533,704.037109 1273.976685,666.789429 
	C1274.041748,662.221924 1275.377930,657.570862 1276.724365,653.140686 
	C1282.638672,633.681946 1295.164551,621.108948 1315.463379,617.105774 
	C1329.322266,614.372498 1343.207031,614.338745 1357.073120,617.309021 
	C1376.079346,621.380432 1388.785522,632.837524 1393.956177,651.285767 
	C1397.062622,662.368958 1398.900513,674.111877 1399.208740,685.614563 
	C1399.948486,713.224365 1399.577026,740.868286 1399.364014,768.496216 
	C1399.307739,775.791504 1398.724121,783.170654 1397.467896,790.351318 
	C1394.370850,808.055359 1387.102051,823.382690 1370.194092,832.805237 
	C1374.736938,842.079102 1383.007202,847.358582 1389.993164,854.478516 
	C1387.664307,862.907166 1385.319336,871.394409 1382.579834,881.309143 
	C1377.614014,878.010254 1373.311768,876.041748 1370.181885,872.903870 
	C1361.276978,863.976135 1352.586426,854.798035 1344.370728,845.237976 
	C1341.285767,841.648376 1338.489624,839.788940 1333.640503,839.685730 
	C1327.031616,839.544983 1320.447388,838.252747 1313.075195,837.209106 
M1358.277832,675.326111 
	C1357.868286,670.700562 1357.964111,665.960938 1356.951050,661.471558 
	C1354.286499,649.664368 1347.621338,644.695374 1335.596558,644.837646 
	C1323.526978,644.980408 1317.198730,650.058655 1314.697388,662.046814 
	C1313.956909,665.596008 1313.758545,669.311890 1313.751709,672.952209 
	C1313.684082,708.878418 1313.620972,744.805176 1313.805664,780.730591 
	C1313.832642,785.976318 1314.581543,791.383606 1316.026245,796.420776 
	C1318.648560,805.562561 1325.402100,809.809631 1335.759521,809.861877 
	C1346.089844,809.914001 1353.352661,805.733521 1355.679932,796.692749 
	C1357.476074,789.715027 1358.134399,782.284119 1358.190186,775.046204 
	C1358.441650,742.448364 1358.297974,709.847412 1358.277832,675.326111 
z"/>
<path fill="#FFFBFF" opacity="1.000000" stroke="none" 
	d="
M1081.343506,466.544037 
	C1082.375854,470.506622 1083.161621,473.700653 1084.297852,478.319336 
	C1070.910767,479.033722 1058.131836,478.497681 1044.359863,478.649841 
	C1035.595825,445.449921 1026.888184,412.463623 1018.111206,379.214539 
	C1012.348389,379.214539 1007.472168,379.214539 1001.357727,379.214539 
	C1000.004211,390.224426 1000.865173,401.120636 1000.715759,411.944855 
	C1000.564087,422.934448 1000.682373,433.927704 1000.682373,444.919373 
	C1000.682373,455.826599 1000.682312,466.733856 1000.682312,478.098602 
	C986.830872,478.098602 974.014404,478.098602 960.754639,478.098602 
	C960.754639,405.342834 960.754639,333.156952 960.754639,260.442322 
	C962.627991,260.075409 964.484070,259.391022 966.337402,259.398376 
	C985.652710,259.475220 1004.978027,259.346375 1024.277222,259.983795 
	C1031.503662,260.222504 1038.831909,261.730774 1045.830811,263.677124 
	C1065.101929,269.036316 1076.718506,282.057617 1079.240723,301.734802 
	C1080.664062,312.839905 1080.429688,324.390320 1079.194336,335.546631 
	C1077.500488,350.842163 1070.388794,363.431793 1054.396606,370.756012 
	C1063.350098,402.619537 1072.223389,434.197510 1081.343506,466.544037 
M1028.755127,289.628937 
	C1019.783508,286.738373 1010.714050,286.024475 1001.133118,287.877533 
	C1001.133118,309.538971 1001.133118,330.671600 1001.133118,352.224731 
	C1010.663513,353.863037 1019.466736,353.045654 1027.980225,349.923248 
	C1030.696899,348.926819 1033.357666,347.113098 1035.393311,345.035675 
	C1045.871826,334.341248 1045.177856,303.243713 1034.352661,292.939880 
	C1033.170532,291.814819 1031.601074,291.096863 1028.755127,289.628937 
z"/>
<path fill="#FFFCFF" opacity="1.000000" stroke="none" 
	d="
M1307.545166,469.786255 
	C1299.337402,472.615387 1291.853516,476.921967 1284.210938,477.225189 
	C1260.646606,478.160095 1237.021729,477.566193 1212.702637,477.566193 
	C1212.702637,405.608124 1212.702637,333.444305 1212.702637,260.618835 
	C1214.249268,260.266357 1216.081543,259.484314 1217.912109,259.487762 
	C1237.241699,259.524353 1256.571533,259.628632 1275.899536,259.864380 
	C1279.541992,259.908813 1283.220947,260.377960 1286.807495,261.052551 
	C1315.503906,266.450012 1329.588135,282.073425 1331.944214,311.265930 
	C1332.479614,317.899841 1332.558838,324.582855 1332.577026,331.244019 
	C1332.646118,356.576172 1332.836670,381.911896 1332.484985,407.239380 
	C1332.351440,416.851013 1331.554688,426.566772 1329.848755,436.016388 
	C1327.332031,449.957428 1320.447998,461.557373 1307.545166,469.786255 
M1292.010986,369.000000 
	C1291.957642,351.683441 1292.043457,334.364624 1291.763306,317.051758 
	C1291.683350,312.105774 1290.829102,307.116821 1289.811279,302.256104 
	C1288.638306,296.654205 1284.829590,292.711273 1279.705078,290.628387 
	C1270.895142,287.047638 1261.773682,287.560638 1252.747070,288.647003 
	C1252.747070,342.983704 1252.747070,396.140900 1252.747070,449.652863 
	C1254.875854,449.922607 1256.466187,450.249939 1258.066406,450.308105 
	C1283.831787,451.244751 1291.186279,444.552826 1291.774902,418.952271 
	C1292.142212,402.974823 1291.951294,386.984528 1292.010986,369.000000 
z"/>
<path fill="#FFFCFF" opacity="1.000000" stroke="none" 
	d="
M1830.680908,475.047028 
	C1821.355225,476.419189 1812.809082,478.208801 1804.222046,478.433838 
	C1785.930176,478.913177 1767.617188,478.580322 1749.472778,478.580322 
	C1747.266235,471.146545 1746.491943,277.038879 1748.528198,260.268646 
	C1749.882812,260.016754 1751.426758,259.476501 1752.968872,259.481354 
	C1772.285889,259.541901 1791.623413,259.151245 1810.914673,259.913849 
	C1848.017334,261.380615 1866.807983,279.766113 1867.761230,316.746582 
	C1868.636475,350.696716 1868.094482,384.689850 1867.745972,418.659637 
	C1867.675293,425.555054 1866.165283,432.552063 1864.478638,439.292023 
	C1860.028076,457.078735 1849.370728,469.378845 1830.680908,475.047028 
M1787.829956,323.002838 
	C1787.829956,365.145660 1787.829956,407.288483 1787.829956,449.595123 
	C1795.646118,449.595123 1802.326416,450.370758 1808.750732,449.418762 
	C1819.173096,447.874298 1824.436401,442.020752 1825.978027,431.576996 
	C1826.801636,425.997528 1827.330933,420.323792 1827.371460,414.688141 
	C1827.581299,385.409515 1827.704102,356.129028 1827.590454,326.850220 
	C1827.562134,319.560944 1826.882568,312.229309 1825.894043,305.000305 
	C1824.737793,296.546021 1819.563477,291.370392 1811.237183,289.340271 
	C1803.747925,287.514221 1796.273682,287.812531 1787.829834,288.469604 
	C1787.829834,299.852325 1787.829834,310.428284 1787.829956,323.002838 
z"/>
<path fill="#FFFBFF" opacity="1.000000" stroke="none" 
	d="
M1063.008423,713.674927 
	C1062.142944,742.799744 1061.986328,771.768066 1061.869019,800.736511 
	C1061.821899,812.369202 1061.861328,824.002258 1061.861328,836.352051 
	C1050.372437,836.352051 1039.575684,836.352051 1028.290771,836.352051 
	C1028.290771,763.700134 1028.290771,691.512512 1028.290771,618.488770 
	C1037.146484,618.488770 1045.937866,618.488770 1055.846436,618.488770 
	C1072.465332,656.824951 1089.353271,695.781921 1107.233154,737.026917 
	C1110.146606,725.426331 1108.565063,716.026672 1108.838013,706.788147 
	C1109.132935,696.802673 1108.904907,686.801819 1108.904907,676.807678 
	C1108.904907,667.146667 1108.904907,657.485718 1108.904907,647.824707 
	C1108.904907,638.218323 1108.904907,628.611938 1108.904907,618.337402 
	C1120.255859,618.337402 1130.667480,618.337402 1141.638428,618.337402 
	C1141.638428,690.922546 1141.638428,763.084473 1141.638428,835.813171 
	C1134.004883,838.303162 1126.027222,837.211792 1118.303589,836.556030 
	C1116.199097,836.377380 1113.839233,832.164001 1112.650513,829.356140 
	C1102.657471,805.752686 1092.985352,782.013489 1083.060425,758.380859 
	C1076.755737,743.368835 1070.184692,728.468689 1063.008423,713.674927 
z"/>
<path fill="#FFFBFF" opacity="1.000000" stroke="none" 
	d="
M1460.614258,837.715393 
	C1437.561157,832.303772 1426.295532,817.012756 1422.279175,795.653992 
	C1420.687866,787.192200 1419.826416,778.469788 1419.784302,769.860413 
	C1419.547852,721.550537 1419.658936,673.238831 1419.673950,624.927795 
	C1419.674561,622.975098 1419.903442,621.022461 1420.069702,618.373779 
	C1432.507080,618.373779 1444.649292,618.373779 1457.945435,618.373779 
	C1458.075439,621.743042 1458.327271,625.264282 1458.329346,628.785583 
	C1458.356323,675.097595 1458.168457,721.410889 1458.500244,767.720520 
	C1458.566406,776.948364 1459.964722,786.293762 1461.881836,795.344910 
	C1463.745483,804.143066 1470.521118,808.507507 1479.219727,809.528748 
	C1489.284424,810.710388 1497.976318,805.550415 1500.557251,795.486694 
	C1502.680542,787.207581 1503.773682,778.447693 1503.829712,769.891113 
	C1504.135010,723.247864 1503.978149,676.601624 1503.979980,629.956421 
	C1503.980225,626.349731 1503.979980,622.742981 1503.979980,618.398438 
	C1517.166870,618.398438 1529.577271,618.398438 1543.094727,618.398438 
	C1543.094727,622.010376 1543.094727,625.270691 1543.094727,628.530945 
	C1543.094727,673.177063 1543.257935,717.824219 1542.975098,762.468567 
	C1542.907959,773.077820 1542.242432,783.844116 1540.305420,794.250305 
	C1534.737915,824.159973 1518.665527,838.090515 1488.262817,839.560852 
	C1479.366821,839.991089 1470.377563,838.492493 1460.614258,837.715393 
z"/>
<path fill="#FFFDFF" opacity="1.000000" stroke="none" 
	d="
M1467.037109,456.803314 
	C1460.511230,468.660706 1450.799072,475.158386 1438.709229,478.433411 
	C1422.233887,482.896454 1405.739624,482.765472 1389.393799,477.939758 
	C1375.055176,473.706573 1365.227295,464.464478 1359.787109,450.434357 
	C1355.257324,438.752075 1353.498657,426.615265 1353.473999,414.221161 
	C1353.375854,364.898132 1353.415649,315.574829 1353.436035,266.251648 
	C1353.436890,264.324036 1353.761475,262.396545 1353.978027,259.992798 
	C1366.708496,259.992798 1378.840942,259.992798 1392.177979,259.992798 
	C1392.177979,264.017029 1392.177979,267.577576 1392.178101,271.138123 
	C1392.178589,318.128540 1392.087769,365.119354 1392.275146,412.109039 
	C1392.304199,419.387634 1393.024536,426.778015 1394.455200,433.910034 
	C1396.671265,444.956909 1404.322998,451.125427 1414.594971,451.336487 
	C1424.932251,451.548828 1432.568726,445.724457 1435.160278,434.586212 
	C1436.657837,428.150330 1437.531128,421.420258 1437.565552,414.816711 
	C1437.812500,367.494690 1437.771973,320.171173 1437.821533,272.848114 
	C1437.825684,268.899811 1437.822021,264.951508 1437.822021,259.791901 
	C1450.638672,259.073334 1462.775879,259.446411 1475.647095,259.562622 
	C1475.996460,262.499146 1476.559692,265.020264 1476.557495,267.540924 
	C1476.515991,316.528717 1476.441284,365.516541 1476.294067,414.504150 
	C1476.250488,428.987518 1473.870972,443.023438 1467.037109,456.803314 
z"/>
<path fill="#FFFAFF" opacity="1.000000" stroke="none" 
	d="
M1507.978271,457.930511 
	C1500.057617,444.991669 1497.240112,431.267334 1497.189453,417.176849 
	C1497.064087,382.228577 1497.375977,347.274384 1498.007690,312.331543 
	C1498.125610,305.811859 1500.117920,299.205383 1501.995483,292.861053 
	C1507.375122,274.683441 1519.596802,263.523285 1538.010132,259.138702 
	C1552.181274,255.764328 1566.387695,255.782364 1580.570679,259.003998 
	C1599.770020,263.365082 1611.024170,275.759125 1615.905640,294.412903 
	C1619.665894,308.782227 1618.559937,323.387268 1618.603638,338.708801 
	C1605.723999,338.708801 1593.626953,338.708801 1580.424438,338.708801 
	C1580.272827,334.797729 1580.138550,330.937622 1579.970459,327.078979 
	C1579.594482,318.445862 1579.859985,309.718964 1578.638306,301.206177 
	C1577.298706,291.871063 1571.812134,287.610168 1562.321411,286.507050 
	C1552.384155,285.352051 1544.180298,289.229065 1540.906250,297.496857 
	C1539.224976,301.742126 1538.135132,306.525604 1538.107788,311.073883 
	C1537.878540,349.038971 1537.901978,387.006104 1538.031128,424.972015 
	C1538.044434,428.905182 1538.918579,432.921173 1539.950195,436.748657 
	C1542.707886,446.980896 1549.162964,451.722198 1559.587769,451.611328 
	C1570.325073,451.497101 1576.304199,446.949310 1578.570923,436.212311 
	C1579.659302,431.056702 1579.769897,425.653137 1579.918213,420.350525 
	C1580.130615,412.754272 1579.972290,405.147644 1579.972290,396.854370 
	C1592.986572,396.854370 1605.145020,396.854370 1618.263794,396.854370 
	C1618.995117,416.369843 1620.012329,435.879089 1611.469238,454.386292 
	C1605.991089,466.253601 1596.820312,474.054352 1584.405640,477.886719 
	C1569.094360,482.613251 1553.594238,482.831085 1538.065308,478.961060 
	C1525.644775,475.865631 1515.424438,469.473450 1507.978271,457.930511 
z"/>
<path fill="#FFFBFF" opacity="1.000000" stroke="none" 
	d="
M1682.626953,818.989990 
	C1683.850098,824.983154 1684.883179,830.150208 1686.144653,836.459167 
	C1673.292725,837.522583 1661.268677,837.141602 1648.969727,836.797485 
	C1645.842041,819.534424 1642.890747,803.244812 1639.884277,786.651489 
	C1627.238159,786.651489 1615.355957,786.651489 1602.483398,786.651489 
	C1599.470947,803.041565 1596.484741,819.288208 1593.362915,836.273132 
	C1581.070923,836.273132 1568.970093,836.273132 1555.508057,836.273132 
	C1570.333008,763.317383 1585.074097,690.773865 1599.853516,618.042175 
	C1614.055176,618.042175 1627.311890,618.042175 1641.774658,618.042175 
	C1643.433594,625.984924 1645.149292,633.993347 1646.775757,642.019775 
	C1658.672852,700.732422 1670.552002,759.448730 1682.626953,818.989990 
M1612.156860,725.135132 
	C1610.418945,736.445129 1608.681030,747.755066 1606.888306,759.420959 
	C1617.045288,759.420959 1625.845703,759.420959 1635.577026,759.420959 
	C1630.950806,731.211975 1626.446777,703.748474 1621.942871,676.284912 
	C1621.392822,676.320862 1620.842773,676.356812 1620.292725,676.392761 
	C1617.659912,692.062500 1615.027222,707.732178 1612.156860,725.135132 
z"/>
<path fill="#FFFAFF" opacity="1.000000" stroke="none" 
	d="
M2222.925781,765.577087 
	C2216.804443,758.929077 2211.408203,752.566650 2205.317139,746.959106 
	C2195.025879,737.484375 2184.164062,728.631653 2173.776123,719.258179 
	C2155.073730,702.381897 2149.082031,681.147339 2153.246338,656.751404 
	C2156.897705,635.361084 2169.878662,622.516663 2190.595459,617.231445 
	C2201.733154,614.389954 2213.106934,614.224854 2224.294678,616.528687 
	C2239.218750,619.601990 2250.293213,627.935364 2256.592529,642.190552 
	C2260.951660,652.054688 2263.198730,662.325500 2263.874023,674.440674 
	C2252.882080,676.675598 2242.035156,678.881042 2230.453369,681.235840 
	C2229.658447,676.232300 2229.128174,672.021790 2228.289795,667.873535 
	C2227.501221,663.971924 2226.818115,659.960632 2225.330078,656.306580 
	C2221.958984,648.029846 2215.383301,644.658264 2205.977539,645.771606 
	C2197.203857,646.810059 2191.273438,652.358215 2190.154785,661.145935 
	C2188.978027,670.388367 2190.376465,679.206543 2196.638184,686.519775 
	C2200.306396,690.804260 2204.319824,694.840149 2208.507812,698.623047 
	C2218.891113,708.001953 2229.707520,716.911499 2239.901123,726.487549 
	C2254.048096,739.777527 2264.399170,755.307312 2267.311035,775.128540 
	C2271.124756,801.087646 2260.766113,824.186279 2239.481201,834.005615 
	C2219.457275,843.243408 2199.276367,841.891235 2179.810791,831.939209 
	C2175.476807,829.723389 2171.473877,826.274414 2168.247803,822.581421 
	C2155.989746,808.548096 2152.884033,791.445801 2151.891602,772.691406 
	C2163.518799,770.232544 2174.429443,767.925293 2186.419189,765.389771 
	C2186.976074,769.831543 2187.077881,773.414246 2187.923584,776.811829 
	C2189.679199,783.864502 2191.206299,791.080627 2194.001953,797.736206 
	C2196.543457,803.786560 2201.712891,807.601257 2208.667969,808.391357 
	C2219.906738,809.667908 2226.581299,805.074036 2228.895508,793.997253 
	C2230.985596,783.992920 2227.966309,774.913452 2222.925781,765.577087 
z"/>
<path fill="#FFF8FE" opacity="1.000000" stroke="none" 
	d="
M2111.897461,737.465942 
	C2104.298584,737.465820 2097.678711,737.465820 2089.940918,737.465820 
	C2089.144043,761.563904 2089.246338,784.932434 2089.904053,809.224609 
	C2107.405762,809.224609 2123.954346,809.224609 2141.184326,809.224609 
	C2141.184326,818.584595 2141.184326,827.052795 2141.184326,835.541504 
	C2134.084473,837.476318 2067.961914,838.177307 2049.516357,836.373413 
	C2048.129883,812.434692 2049.088379,788.277832 2048.914795,764.156372 
	C2048.739990,739.841736 2048.876465,715.524902 2048.876465,691.208984 
	C2048.876465,666.997009 2048.876465,642.785034 2048.876465,618.094055 
	C2079.865723,618.094055 2109.720947,618.094055 2140.351074,618.094055 
	C2140.351074,627.035461 2140.351074,635.792786 2140.351074,645.747437 
	C2123.793213,645.747437 2107.352295,645.747437 2090.203613,645.747437 
	C2090.203613,667.012573 2090.203613,687.098572 2090.203613,708.358521 
	C2103.230469,708.358521 2116.040039,708.358521 2129.513184,708.358521 
	C2129.513184,718.330322 2129.513184,727.148987 2129.513184,737.466125 
	C2123.958740,737.466125 2118.417480,737.466125 2111.897461,737.465942 
z"/>
<path fill="#FFF8FE" opacity="1.000000" stroke="none" 
	d="
M1705.986206,287.868591 
	C1697.036987,287.868591 1689.079590,287.868591 1681.333130,287.868591 
	C1679.105347,295.534210 1678.521851,334.586731 1680.407959,350.296234 
	C1686.728882,350.296234 1693.262573,350.296234 1699.796265,350.296234 
	C1706.078247,350.296234 1712.360229,350.296234 1719.102905,350.296234 
	C1721.065796,359.802917 1720.056030,368.628723 1719.882080,378.529572 
	C1706.615234,378.529572 1693.767090,378.529572 1680.200195,378.529572 
	C1680.200195,402.768341 1680.200195,425.934845 1680.200195,450.480896 
	C1696.915283,450.480896 1713.688599,450.480896 1731.156006,450.480896 
	C1731.156006,460.299469 1731.156006,468.773132 1731.156006,477.980896 
	C1700.791748,477.980896 1670.367432,477.980896 1639.408081,477.980896 
	C1639.408081,405.288116 1639.408081,333.076935 1639.408081,260.894775 
	C1646.515869,258.947205 1716.409058,258.388397 1730.679321,260.243225 
	C1732.112183,268.845154 1731.577148,277.612366 1730.864502,287.868622 
	C1722.704102,287.868622 1714.841064,287.868622 1705.986206,287.868591 
z"/>
<path fill="#FFFBFF" opacity="1.000000" stroke="none" 
	d="
M1172.403076,617.716675 
	C1201.655640,617.677673 1229.943848,617.677673 1259.043945,617.677673 
	C1259.043945,626.980896 1259.043945,635.747131 1259.043945,645.610229 
	C1242.585327,645.610229 1226.106323,645.610229 1209.950562,645.610229 
	C1207.646973,653.670044 1207.104858,692.784180 1208.979980,708.411499 
	C1215.246704,708.459290 1221.760254,708.527588 1228.274048,708.553162 
	C1234.578369,708.577881 1240.882935,708.558472 1246.969604,708.558472 
	C1249.621338,716.188599 1249.857178,726.377258 1247.587891,737.297119 
	C1235.010376,737.297119 1222.182251,737.297119 1208.695312,737.297119 
	C1208.695312,761.473938 1208.695312,784.593018 1208.695312,808.975342 
	C1225.724487,808.975342 1242.516479,808.975342 1259.816406,808.975342 
	C1259.816406,818.758850 1259.816406,827.287415 1259.816406,836.449524 
	C1229.353394,836.449524 1199.204834,836.449524 1168.387207,836.449524 
	C1168.181152,833.213318 1167.837891,830.324158 1167.836670,827.434814 
	C1167.806396,760.827454 1167.762085,694.219971 1167.965454,627.613281 
	C1167.975586,624.318604 1165.049194,619.135803 1172.403076,617.716675 
z"/>
<path fill="#FFFCFF" opacity="1.000000" stroke="none" 
	d="
M1194.637695,451.778259 
	C1195.414185,460.489044 1195.414185,468.730469 1195.414185,476.988464 
	C1188.432617,478.943573 1118.910522,479.554047 1104.520752,477.673401 
	C1104.520752,405.377472 1104.520752,332.987732 1104.520752,260.001160 
	C1134.734741,260.001160 1164.562988,260.001160 1195.124268,260.001160 
	C1195.124268,268.971313 1195.124268,277.748260 1195.124268,287.544861 
	C1178.366577,287.544861 1161.864868,287.544861 1145.645386,287.544861 
	C1143.508545,295.640900 1143.011963,335.200012 1144.755615,350.003235 
	C1157.379761,350.003235 1170.179443,350.003235 1183.421875,350.003235 
	C1185.385376,359.818481 1184.661377,368.564636 1184.032593,378.496155 
	C1170.769287,378.496155 1157.950562,378.496155 1144.513184,378.496155 
	C1144.513184,402.804840 1144.513184,425.948334 1144.513184,450.533386 
	C1160.944214,450.791595 1177.402710,451.050262 1194.637695,451.778259 
z"/>
<path fill="#FFFBFF" opacity="1.000000" stroke="none" 
	d="
M1945.975586,617.653687 
	C1954.867188,617.653625 1962.762939,617.653625 1971.106201,617.653625 
	C1971.106201,627.989075 1971.106201,637.114319 1971.106201,647.432617 
	C1959.412231,647.432617 1948.258057,647.432617 1936.040527,647.432617 
	C1936.040527,711.055908 1936.040527,773.497437 1936.040527,836.502930 
	C1922.404297,836.502930 1909.874390,836.502930 1895.843018,836.502930 
	C1895.832275,820.778564 1895.817261,805.283203 1895.812134,789.787842 
	C1895.806885,774.129761 1895.811035,758.471741 1895.811035,742.813660 
	C1895.811035,727.155579 1895.811035,711.497498 1895.811035,695.839417 
	C1895.811035,680.239746 1895.811035,664.640076 1895.811035,647.899170 
	C1883.558472,647.899170 1872.081421,647.899170 1859.760742,647.899170 
	C1859.760742,637.346619 1859.760742,627.927734 1859.760742,617.653687 
	C1888.427368,617.653687 1916.703735,617.653687 1945.975586,617.653687 
z"/>
<path fill="#FFFBFF" opacity="1.000000" stroke="none" 
	d="
M1740.681396,714.000732 
	C1740.681030,745.892883 1740.681030,776.784973 1740.681030,808.992981 
	C1758.576050,808.992981 1775.368652,808.992981 1792.783447,808.992981 
	C1792.783447,818.757141 1792.783447,827.199768 1792.783447,836.364380 
	C1762.008179,836.364380 1731.588257,836.364380 1700.738281,836.364380 
	C1700.738281,763.557739 1700.738281,691.399109 1700.738281,617.780823 
	C1707.517822,617.737915 1714.031250,617.681152 1720.544678,617.659912 
	C1726.835083,617.639404 1733.125610,617.655457 1740.681885,617.655457 
	C1740.681885,649.946960 1740.681885,681.473877 1740.681396,714.000732 
z"/>
<path fill="#FFF8FE" opacity="1.000000" stroke="none" 
	d="
M2022.402710,768.001099 
	C2022.402344,791.263123 2022.402344,813.525146 2022.402344,836.442627 
	C2009.130615,836.442627 1996.699463,836.442627 1983.569580,836.442627 
	C1983.569580,763.611206 1983.569580,691.184021 1983.569580,618.279175 
	C1985.650635,618.042175 1987.572144,617.645203 1989.495972,617.633972 
	C2000.091187,617.572021 2010.687012,617.604309 2022.403076,617.604309 
	C2022.403076,667.944702 2022.403076,717.472900 2022.402710,768.001099 
z"/>
<path fill="#FFFBFF" opacity="1.000000" stroke="none" 
	d="
M1814.439331,617.668213 
	C1825.718384,617.658264 1836.036499,617.658264 1846.189453,617.658264 
	C1848.420654,625.064331 1849.285156,817.890076 1847.239624,836.316711 
	C1834.565552,836.316711 1821.800049,836.316711 1808.138794,836.316711 
	C1808.138794,832.831543 1808.138672,829.895020 1808.138672,826.958496 
	C1808.138672,760.626221 1808.137085,694.293884 1808.145630,627.961609 
	C1808.145874,625.630981 1807.605591,623.001892 1808.505493,621.063660 
	C1809.230469,619.502136 1811.753418,618.775330 1814.439331,617.668213 
z"/>
<path fill="#FFFAFF" opacity="1.000000" stroke="none" 
	d="
M1001.451233,714.000122 
	C1001.451111,755.215698 1001.451111,795.431152 1001.451111,836.364868 
	C988.069580,836.364868 975.604492,836.364868 962.466309,836.364868 
	C962.466309,763.745117 962.466309,691.379456 962.466309,618.329712 
	C975.120056,618.329712 987.589417,618.329712 1001.451355,618.329712 
	C1001.451355,649.967468 1001.451355,681.483826 1001.451233,714.000122 
z"/>
<path fill="#F107E9" opacity="1.000000" stroke="none" 
	d="
M539.072876,439.999512 
	C540.036682,421.742706 540.822388,404.472900 542.084473,387.237976 
	C542.419312,382.665344 543.986328,378.126587 545.386169,373.698242 
	C550.872864,356.340271 561.633972,348.610352 580.348328,348.341614 
	C598.864990,348.075714 610.106018,355.769257 616.013550,372.825256 
	C621.311523,388.121002 622.866394,404.008240 622.881775,420.042145 
	C622.964417,505.963226 623.093567,591.885132 622.723999,677.804688 
	C622.671570,689.998108 620.278870,702.227295 618.358032,714.343018 
	C617.645996,718.834534 615.569092,723.251953 613.435303,727.349365 
	C606.881897,739.933594 596.448120,746.633728 582.103333,746.811829 
	C567.527100,746.992737 556.362915,741.041199 549.174683,728.178711 
	C543.544678,718.104370 541.093933,707.067383 540.097839,695.729736 
	C539.399475,687.780396 539.122498,679.770813 539.115234,671.787659 
	C539.045715,594.858337 539.073364,517.928955 539.072876,439.999512 
z"/>
<path fill="#F107E9" opacity="1.000000" stroke="none" 
	d="
M1358.287354,676.286865 
	C1358.297974,709.847412 1358.441650,742.448364 1358.190186,775.046204 
	C1358.134399,782.284119 1357.476074,789.715027 1355.679932,796.692749 
	C1353.352661,805.733521 1346.089844,809.914001 1335.759521,809.861877 
	C1325.402100,809.809631 1318.648560,805.562561 1316.026245,796.420776 
	C1314.581543,791.383606 1313.832642,785.976318 1313.805664,780.730591 
	C1313.620972,744.805176 1313.684082,708.878418 1313.751709,672.952209 
	C1313.758545,669.311890 1313.956909,665.596008 1314.697388,662.046814 
	C1317.198730,650.058655 1323.526978,644.980408 1335.596558,644.837646 
	C1347.621338,644.695374 1354.286499,649.664368 1356.951050,661.471558 
	C1357.964111,665.960938 1357.868286,670.700562 1358.287354,676.286865 
z"/>
<path fill="#F210EA" opacity="1.000000" stroke="none" 
	d="
M1029.483154,289.909485 
	C1031.601074,291.096863 1033.170532,291.814819 1034.352661,292.939880 
	C1045.177856,303.243713 1045.871826,334.341248 1035.393311,345.035675 
	C1033.357666,347.113098 1030.696899,348.926819 1027.980225,349.923248 
	C1019.466736,353.045654 1010.663513,353.863037 1001.133118,352.224731 
	C1001.133118,330.671600 1001.133118,309.538971 1001.133118,287.877533 
	C1010.714050,286.024475 1019.783508,286.738373 1029.483154,289.909485 
z"/>
<path fill="#F10BE9" opacity="1.000000" stroke="none" 
	d="
M1292.010986,370.000000 
	C1291.951294,386.984528 1292.142212,402.974823 1291.774902,418.952271 
	C1291.186279,444.552826 1283.831787,451.244751 1258.066406,450.308105 
	C1256.466187,450.249939 1254.875854,449.922607 1252.747070,449.652863 
	C1252.747070,396.140900 1252.747070,342.983704 1252.747070,288.647003 
	C1261.773682,287.560638 1270.895142,287.047638 1279.705078,290.628387 
	C1284.829590,292.711273 1288.638306,296.654205 1289.811279,302.256104 
	C1290.829102,307.116821 1291.683350,312.105774 1291.763306,317.051758 
	C1292.043457,334.364624 1291.957642,351.683441 1292.010986,370.000000 
z"/>
<path fill="#F10BE9" opacity="1.000000" stroke="none" 
	d="
M1787.829834,322.003540 
	C1787.829834,310.428284 1787.829834,299.852325 1787.829834,288.469604 
	C1796.273682,287.812531 1803.747925,287.514221 1811.237183,289.340271 
	C1819.563477,291.370392 1824.737793,296.546021 1825.894043,305.000305 
	C1826.882568,312.229309 1827.562134,319.560944 1827.590454,326.850220 
	C1827.704102,356.129028 1827.581299,385.409515 1827.371460,414.688141 
	C1827.330933,420.323792 1826.801636,425.997528 1825.978027,431.576996 
	C1824.436401,442.020752 1819.173096,447.874298 1808.750732,449.418762 
	C1802.326416,450.370758 1795.646118,449.595123 1787.829956,449.595123 
	C1787.829956,407.288483 1787.829956,365.145660 1787.829834,322.003540 
z"/>
<path fill="#F210EA" opacity="1.000000" stroke="none" 
	d="
M1612.275635,724.268555 
	C1615.027222,707.732178 1617.659912,692.062500 1620.292725,676.392761 
	C1620.842773,676.356812 1621.392822,676.320862 1621.942871,676.284912 
	C1626.446777,703.748474 1630.950806,731.211975 1635.577026,759.420959 
	C1625.845703,759.420959 1617.045288,759.420959 1606.888306,759.420959 
	C1608.681030,747.755066 1610.418945,736.445129 1612.275635,724.268555 
z"/>
</svg>