<svg version="1.1" id="Layer_1" xmlns="http://www.w3.org/2000/svg" xmlns:xlink="http://www.w3.org/1999/xlink" x="0px" y="0px"
	 width="100%" viewBox="0 0 3000 3000" enable-background="new 0 0 3000 3000" xml:space="preserve">
<path fill="#378D0C" opacity="1.000000" stroke="none" 
	d="
M2.000000,1052.000000 
	C2.000000,701.333374 2.000000,351.666779 2.000000,2.000141 
	C1001.999756,2.000094 2001.999512,2.000094 3001.999512,2.000047 
	C3001.999512,1001.999573 3001.999512,2001.999146 3001.999756,3001.999023 
	C2002.000610,3001.999512 1002.001221,3001.999512 2.000899,3001.999756 
	C2.000000,2352.333252 2.000000,1702.666626 2.000000,1052.000000 
M1395.878418,348.131866 
	C1396.456543,348.160675 1397.034546,348.189484 1397.947510,349.834473 
	C1398.749023,392.424805 1399.550659,435.015137 1400.361328,478.087799 
	C1410.436768,478.087799 1419.999268,478.087799 1430.584229,478.087799 
	C1429.399658,405.327789 1428.219849,332.867279 1427.034790,260.080200 
	C1412.910156,260.080200 1399.817749,260.080200 1386.605469,260.080200 
	C1375.709351,309.276947 1366.136719,358.140045 1355.125122,406.676514 
	C1354.377197,406.626434 1353.629395,406.576324 1352.881592,406.526215 
	C1342.745117,357.544037 1332.608765,308.561859 1322.584229,260.120056 
	C1308.088623,260.120056 1294.942993,260.120056 1281.215942,260.120056 
	C1280.120117,333.203369 1278.696045,405.586884 1277.803589,477.956970 
	C1288.772217,477.956970 1298.255615,477.956970 1308.363281,477.956970 
	C1308.363281,475.403625 1308.335571,473.434784 1308.367432,471.466919 
	C1309.025513,430.832367 1309.652954,390.197205 1310.430908,349.564911 
	C1310.487549,346.605713 1308.695435,342.872620 1313.308960,340.298767 
	C1323.103149,386.484222 1332.816406,432.288574 1342.526123,478.075562 
	C1350.746460,478.075562 1358.280640,478.075562 1365.949829,478.075562 
	C1366.582764,476.098633 1367.227539,474.565063 1367.562134,472.966553 
	C1371.721191,453.097900 1375.757812,433.203339 1379.981812,413.348602 
	C1384.618774,391.552490 1389.417969,369.790802 1395.878418,348.131866 
M2556.422852,2007.425293 
	C2587.718018,1972.447754 2617.372559,1936.183960 2643.761963,1897.775635 
	C2429.546875,1594.905762 2005.489624,1284.399414 1410.868896,1330.142822 
	C1172.735229,1348.462036 954.171387,1424.117798 756.013916,1557.594238 
	C619.944275,1649.249146 502.634979,1760.526978 406.799591,1894.199341 
	C411.932037,1901.479614 416.187988,1907.841431 420.765717,1913.962646 
	C550.777283,2087.815674 713.286865,2223.131104 906.554749,2321.359375 
	C1085.743652,2412.432129 1276.613770,2458.685547 1477.150391,2465.529297 
	C1573.953979,2468.833008 1670.243042,2462.736572 1765.847534,2446.447510 
	C1860.709229,2430.284668 1952.894531,2404.738770 2042.104248,2368.695557 
	C2241.048828,2288.315674 2411.420654,2167.124268 2556.422852,2007.425293 
M531.833191,837.414185 
	C563.396912,844.738892 595.166748,845.799255 627.032349,839.897156 
	C657.098267,834.328369 683.233948,821.505493 702.672974,797.057190 
	C712.918884,784.171021 720.522339,769.816467 726.256653,754.408630 
	C733.753845,734.264587 737.518188,713.339539 739.121948,692.023132 
	C741.205261,664.331116 740.637573,636.717224 733.762634,609.623840 
	C725.052673,575.298889 706.967102,548.218323 673.422913,533.465027 
	C672.246643,532.947693 671.241943,532.040344 669.541504,530.902771 
	C681.578979,526.180725 692.309021,520.487427 701.265808,511.844543 
	C715.734131,497.883453 725.809326,481.164520 731.762695,462.113831 
	C742.979492,426.219910 742.956116,389.820831 733.953247,353.616852 
	C721.948608,305.341522 691.678833,273.834656 643.873169,259.660126 
	C614.675110,251.002823 584.892456,250.256027 554.803345,253.782349 
	C492.073669,261.134094 447.763306,302.477417 435.791016,364.414795 
	C431.448334,386.881287 431.873077,409.473328 431.872284,432.109314 
	C431.872192,434.655945 432.260468,437.202576 432.487579,439.981110 
	C468.678314,439.981110 504.244202,439.981110 540.937561,439.981110 
	C540.937561,436.388184 540.862549,433.142761 540.951233,429.901825 
	C541.251892,418.916473 541.330750,407.915070 542.021240,396.952972 
	C542.797974,384.622345 544.995544,372.521820 549.765869,360.999390 
	C552.651917,354.028259 556.897888,348.223877 563.462952,344.325256 
	C576.300720,336.701538 600.333008,337.622925 611.974915,346.813721 
	C616.031860,350.016510 619.576294,354.400085 622.033752,358.956848 
	C624.831665,364.145050 626.729187,370.002563 628.006836,375.792328 
	C631.764282,392.819366 632.872925,410.146149 630.818909,427.447876 
	C629.453125,438.951752 627.544067,450.526367 624.406250,461.654205 
	C619.215576,480.061829 606.135315,490.729034 587.496521,493.966614 
	C578.699219,495.494751 569.641846,495.581757 560.691284,496.145844 
	C556.830750,496.389130 552.942078,496.186615 549.055176,496.186615 
	C549.055176,523.625916 549.055176,549.719543 549.055176,575.769897 
	C558.068970,576.426880 566.356750,577.017639 574.642395,577.637329 
	C603.842163,579.821289 618.797424,592.111755 626.152039,620.481873 
	C631.983215,642.975464 632.974548,665.945679 630.697327,688.926880 
	C629.392578,702.094910 627.031799,715.263428 623.841492,728.107605 
	C621.088562,739.191101 613.055054,746.755493 601.902588,749.311890 
	C577.987488,754.793945 553.848145,749.950378 546.277222,717.669556 
	C546.125183,717.021362 546.056030,716.353333 545.896118,715.707458 
	C541.534729,698.093323 541.350525,680.092163 540.948792,662.114075 
	C540.862671,658.259705 540.936279,654.401733 540.936279,650.526733 
	C503.928192,650.526733 468.395721,650.526733 432.187439,650.526733 
	C432.187439,663.912964 431.645599,676.837036 432.301727,689.699951 
	C433.614563,715.436951 438.070435,740.611267 448.088348,764.562317 
	C463.751526,802.010376 490.525909,826.823547 531.833191,837.414185 
M375.376678,389.000366 
	C375.376678,346.120789 375.376678,303.241211 375.376678,259.660370 
	C370.839447,259.660370 367.545319,259.660370 364.251160,259.660370 
	C343.259155,259.660370 322.260193,259.969818 301.278717,259.499603 
	C293.492340,259.325104 287.616241,261.192566 281.725739,266.600586 
	C274.422791,273.305267 266.232300,279.396088 257.560974,284.188385 
	C235.442795,296.412231 212.850800,307.779480 190.429718,319.453674 
	C187.847763,320.798065 185.147736,321.915710 182.897369,322.955933 
	C182.897369,350.108032 182.897369,376.570007 182.897369,403.780426 
	C192.688705,400.349792 201.747925,397.196472 210.792221,394.000946 
	C219.890045,390.786499 228.993027,387.584839 238.056808,384.276306 
	C246.884003,381.054138 255.664413,377.703796 265.880859,373.879913 
	C265.880859,528.103943 265.880859,680.518005 265.880859,833.118896 
	C302.676880,833.118896 338.488525,833.118896 375.376648,833.118896 
	C375.376648,685.377014 375.376648,538.188721 375.376678,389.000366 
M1600.240479,732.862915 
	C1614.673462,767.487305 1629.106567,802.111755 1643.407715,836.419800 
	C1652.659790,836.419800 1660.873779,836.419800 1669.482178,836.419800 
	C1669.482178,763.464478 1669.482178,691.034180 1669.482178,618.202881 
	C1658.505615,618.202881 1648.043945,618.202881 1636.611694,618.202881 
	C1636.611694,626.647217 1636.611694,634.571533 1636.611694,642.495850 
	C1636.611694,650.157227 1636.611694,657.818604 1636.611694,665.479980 
	C1636.611694,673.474487 1636.611694,681.468933 1636.611694,689.463440 
	C1636.611694,697.124817 1636.812744,704.792969 1636.555054,712.445679 
	C1636.300293,720.006897 1637.733643,727.740417 1635.020630,737.179077 
	C1617.297241,696.247498 1600.403198,657.231323 1583.473267,618.132446 
	C1574.274902,618.132446 1565.416504,618.132446 1556.105469,618.132446 
	C1556.105469,691.068481 1556.105469,763.523254 1556.105469,836.360962 
	C1567.386841,836.360962 1578.231323,836.360962 1589.834839,836.360962 
	C1589.834839,822.186218 1589.834839,808.581543 1589.834839,794.976929 
	C1589.834839,780.986572 1589.774902,766.995972 1589.852173,753.006042 
	C1589.925415,739.754089 1589.505005,726.474548 1591.967773,713.151733 
	C1594.563354,719.237915 1597.158936,725.324097 1600.240479,732.862915 
M1426.240112,629.190430 
	C1418.682495,636.646851 1413.759399,645.651917 1411.569824,655.946838 
	C1409.984741,663.399719 1408.385742,671.025024 1408.299561,678.590637 
	C1407.936035,710.550964 1408.005615,742.518677 1408.239746,774.481262 
	C1408.288208,781.088379 1409.210938,787.793640 1410.596924,794.268311 
	C1416.471558,821.713989 1430.491089,835.131531 1458.500366,838.745483 
	C1468.241943,840.002441 1478.448608,839.366272 1488.249634,838.099915 
	C1509.492798,835.355225 1523.337280,822.857422 1529.700073,802.653015 
	C1532.170166,794.809875 1533.906006,786.393799 1534.022827,778.210815 
	C1534.507446,744.259766 1534.696167,710.288452 1533.974487,676.346313 
	C1533.767090,666.592407 1531.081665,656.587524 1527.872192,647.269531 
	C1522.522095,631.736511 1511.151367,621.325256 1494.997925,618.232666 
	C1483.706787,616.071106 1471.916870,615.806030 1460.362183,615.923462 
	C1448.120605,616.047913 1436.890015,620.265442 1426.240112,629.190430 
M1138.601807,778.795898 
	C1138.597046,745.464722 1138.503418,712.133118 1138.665894,678.802734 
	C1138.696655,672.506104 1139.185547,666.099121 1140.451050,659.946228 
	C1142.593384,649.531372 1150.739746,644.091064 1161.936768,644.687927 
	C1173.066040,645.281189 1179.168579,650.695007 1180.141968,661.933899 
	C1180.916626,670.876587 1180.737427,679.899963 1181.067871,688.884399 
	C1181.171753,691.711731 1181.554932,694.528748 1181.838013,697.655823 
	C1194.989990,697.513550 1207.173096,698.117493 1219.612183,697.265198 
	C1219.899658,680.855652 1220.810425,665.566956 1216.331665,650.585144 
	C1211.006226,632.771118 1199.729126,621.384949 1181.322510,617.394958 
	C1167.778931,614.459106 1154.231567,614.431580 1140.683350,617.189270 
	C1120.368774,621.324158 1107.422729,633.737793 1102.418335,653.552307 
	C1099.833618,663.786194 1098.412354,674.545776 1098.201904,685.102539 
	C1097.636963,713.422791 1097.858765,741.763000 1098.106445,770.092346 
	C1098.172974,777.716003 1098.810303,785.455566 1100.290283,792.923096 
	C1104.521606,814.273499 1115.041382,830.644653 1137.449829,836.744629 
	C1153.601929,841.141541 1169.711548,841.076050 1185.716919,836.071899 
	C1196.298706,832.763489 1204.740845,826.587036 1210.281738,816.830139 
	C1221.366333,797.311768 1220.275635,776.186279 1219.387817,754.949646 
	C1206.184082,754.949646 1194.048950,754.949646 1181.041870,754.949646 
	C1181.041870,760.513794 1181.170166,765.466675 1181.012573,770.410522 
	C1180.758179,778.394226 1180.877075,786.448120 1179.808838,794.332886 
	C1178.495850,804.024231 1172.575317,808.946228 1163.006714,809.809692 
	C1152.227539,810.782410 1144.772949,806.746033 1141.766357,797.348450 
	C1140.061035,792.018005 1139.644287,786.275269 1138.601807,778.795898 
M1082.016479,339.377838 
	C1086.673706,339.747223 1087.604004,336.979156 1087.396484,333.112671 
	C1086.826172,322.482635 1087.178589,311.718628 1085.595337,301.245056 
	C1082.342285,279.727142 1071.390503,264.119751 1048.914062,259.060120 
	C1034.419067,255.797134 1019.910645,255.836411 1005.415955,259.474884 
	C988.196594,263.797272 976.483582,274.210754 971.075012,291.049530 
	C968.654114,298.586761 966.316711,306.557098 966.209900,314.361969 
	C965.708618,350.974823 965.602051,387.605896 966.289734,424.212860 
	C966.453674,432.941895 969.377563,441.917175 972.506348,450.223907 
	C977.433289,463.304749 987.023926,472.449097 1000.392029,477.025391 
	C1018.284485,483.150482 1036.370361,483.233704 1054.314941,477.318329 
	C1066.300293,473.367371 1074.875854,465.358856 1080.053467,453.776276 
	C1088.198853,435.555115 1087.485352,416.381409 1087.126953,396.905060 
	C1073.792969,396.905060 1061.386597,396.905060 1048.175293,396.905060 
	C1048.175293,406.903290 1048.294800,416.183960 1048.119019,425.459076 
	C1048.043823,429.425018 1047.824829,433.499634 1046.850464,437.315369 
	C1044.319946,447.225159 1038.300049,451.575409 1027.958862,451.634644 
	C1017.791931,451.692871 1010.932617,447.239014 1008.528015,437.816345 
	C1006.980835,431.753815 1006.147522,425.348358 1006.105835,419.089203 
	C1005.879700,385.124908 1005.934753,351.158081 1006.072754,317.192871 
	C1006.092896,312.241699 1006.642212,307.198303 1007.705872,302.364655 
	C1010.228455,290.900940 1017.522156,285.745056 1029.459106,286.381592 
	C1040.677002,286.979767 1046.843872,292.858032 1047.750732,304.766510 
	C1048.381714,313.051514 1048.125244,321.402588 1048.326660,329.722656 
	C1048.396851,332.619354 1048.651489,335.511566 1048.879761,339.387848 
	C1059.689697,339.387848 1069.936768,339.387848 1082.016479,339.377838 
M1078.381958,788.402893 
	C1066.940674,731.697693 1055.499512,674.992493 1044.013184,618.063782 
	C1029.699829,618.063782 1016.133301,618.063782 1001.915894,618.063782 
	C987.118591,690.895691 972.376282,763.457214 957.595703,836.206787 
	C971.004822,836.206787 983.146179,836.206787 995.396606,836.206787 
	C998.487549,819.260681 1001.453491,802.999878 1004.408203,786.800781 
	C1017.448120,786.800781 1029.590576,786.800781 1042.047119,786.800781 
	C1045.070801,803.640137 1047.994995,819.925659 1050.960083,836.439331 
	C1063.490845,836.439331 1075.330933,836.439331 1088.200562,836.439331 
	C1084.953125,820.532654 1081.843262,805.300049 1078.381958,788.402893 
M1531.554932,267.302490 
	C1530.858154,264.825623 1530.161499,262.348755 1529.505371,260.016449 
	C1515.212280,260.016449 1501.707764,260.016449 1487.747559,260.016449 
	C1472.964600,332.769470 1458.279175,405.042938 1443.452148,478.012939 
	C1456.612427,478.012939 1468.756836,478.012939 1481.281494,478.012939 
	C1484.316895,461.263519 1487.266479,444.987610 1490.288086,428.313782 
	C1502.886597,428.313782 1515.088745,428.313782 1527.871094,428.313782 
	C1530.901489,445.072968 1533.889893,461.599884 1536.850464,477.972351 
	C1549.684082,477.972351 1561.549927,477.972351 1574.053589,477.972351 
	C1559.885742,407.848846 1545.860596,338.432098 1531.554932,267.302490 
M1686.017456,472.678864 
	C1685.049927,479.109436 1689.464111,478.583221 1693.568970,478.579498 
	C1720.220947,478.555450 1746.872803,478.573181 1773.524658,478.516174 
	C1775.064209,478.512878 1776.602661,477.974915 1777.844238,477.741608 
	C1777.844238,468.665405 1777.844238,460.210144 1777.844238,451.285065 
	C1760.374390,450.592072 1743.531128,451.679413 1726.607544,450.617981 
	C1726.607544,426.201355 1726.607544,403.009247 1726.607544,378.627258 
	C1740.139282,378.627258 1753.278931,378.627258 1766.692139,378.627258 
	C1766.692139,368.638367 1766.692139,359.854340 1766.692139,349.939972 
	C1752.906128,349.939972 1739.787476,349.939972 1726.862671,349.939972 
	C1726.862671,328.659912 1726.862671,308.524475 1726.862671,287.528442 
	C1744.071289,287.528442 1760.589722,287.528442 1777.401367,287.528442 
	C1777.401367,277.845306 1777.401367,269.046875 1777.401367,260.330750 
	C1763.497314,258.514893 1693.656738,259.075287 1686.012451,261.137665 
	C1686.012451,330.892090 1686.012451,400.808044 1686.017456,472.678864 
M1641.387573,345.000305 
	C1641.391724,326.474396 1641.395874,307.948517 1641.400269,288.448975 
	C1654.051636,288.448975 1665.217651,288.448975 1676.252808,288.448975 
	C1676.252808,278.289581 1676.252808,269.155670 1676.252808,259.949341 
	C1638.673462,259.949341 1601.799316,259.949341 1564.884521,259.949341 
	C1564.884521,269.661560 1564.884521,278.833801 1564.884521,289.296997 
	C1577.232056,289.296997 1589.051880,289.296997 1601.735840,289.296997 
	C1601.735840,353.080414 1601.735840,415.562561 1601.735840,478.579773 
	C1608.961792,478.579773 1615.255493,478.635895 1621.547729,478.564270 
	C1628.029053,478.490509 1634.509033,478.292236 1641.387451,478.139618 
	C1641.387451,433.605865 1641.387451,390.303101 1641.387573,345.000305 
M1296.152832,836.909912 
	C1297.590820,835.885437 1299.975708,835.079834 1300.273560,833.791809 
	C1300.933228,830.938110 1300.578613,827.842102 1300.578979,824.844910 
	C1300.585815,769.544312 1300.583984,714.243774 1300.583984,658.943176 
	C1300.583984,655.375244 1300.583862,651.807312 1300.583862,647.228882 
	C1312.946167,647.228882 1324.132324,647.228882 1335.375977,647.228882 
	C1335.375977,636.774475 1335.375977,627.362061 1335.375977,618.026855 
	C1302.683594,616.295715 1231.787598,617.092102 1224.564209,619.128540 
	C1224.564209,628.381836 1224.564209,637.525269 1224.564209,647.665283 
	C1236.744507,647.665283 1248.217896,647.665283 1260.571289,647.665283 
	C1260.571289,711.134155 1260.571289,773.574585 1260.571289,836.937439 
	C1272.418457,836.937439 1283.352539,836.937439 1296.152832,836.909912 
M1106.318848,275.152344 
	C1106.318848,342.659149 1106.318848,410.165955 1106.318848,478.095215 
	C1137.629395,478.095215 1167.797852,478.095215 1198.420044,478.095215 
	C1198.420044,469.120911 1198.420044,460.624359 1198.420044,451.071289 
	C1181.094604,451.071289 1164.259033,451.071289 1146.202271,451.071289 
	C1146.202271,386.645203 1146.202271,323.263123 1146.202271,259.955658 
	C1132.401123,259.955658 1119.866211,259.955658 1106.318848,259.955658 
	C1106.318848,264.698792 1106.318848,268.946686 1106.318848,275.152344 
M1386.168823,745.000000 
	C1386.168823,702.820984 1386.168823,660.642029 1386.168823,617.775696 
	C1372.316895,617.678162 1359.579834,617.396423 1346.675903,617.932007 
	C1346.675903,691.383545 1346.675903,763.548950 1346.675903,836.329102 
	C1359.850830,836.329102 1372.665894,836.329102 1386.168823,836.329102 
	C1386.168823,806.213501 1386.168823,776.606750 1386.168823,745.000000 
M1213.082520,360.999420 
	C1213.082520,399.854950 1213.082520,438.710480 1213.082520,478.054993 
	C1226.605469,478.054993 1239.071167,478.054993 1252.048950,478.054993 
	C1252.048950,405.202911 1252.048950,332.812988 1252.048950,259.778015 
	C1238.833008,259.290100 1226.135254,259.287720 1213.082520,259.689941 
	C1213.082520,293.745483 1213.082520,326.372437 1213.082520,360.999420 
z"/>
<path fill="#FEFFFE" opacity="1.000000" stroke="none" 
	d="
M2555.960938,2007.962036 
	C2411.420654,2167.124268 2241.048828,2288.315674 2042.104248,2368.695557 
	C1952.894531,2404.738770 1860.709229,2430.284668 1765.847534,2446.447510 
	C1670.243042,2462.736572 1573.953979,2468.833008 1477.150391,2465.529297 
	C1276.613770,2458.685547 1085.743652,2412.432129 906.554749,2321.359375 
	C713.286865,2223.131104 550.777283,2087.815674 420.765717,1913.962646 
	C416.187988,1907.841431 411.932037,1901.479614 406.799591,1894.199341 
	C502.634979,1760.526978 619.944275,1649.249146 756.013916,1557.594238 
	C954.171387,1424.117798 1172.735229,1348.462036 1410.868896,1330.142822 
	C2005.489624,1284.399414 2429.546875,1594.905762 2643.761963,1897.775635 
	C2617.372559,1936.183960 2587.718018,1972.447754 2555.960938,2007.962036 
M1532.053589,1864.614380 
	C1536.246338,1880.738403 1546.761841,1891.346802 1561.883057,1897.198242 
	C1574.279785,1901.995728 1587.061279,1905.806030 1599.699341,1909.971680 
	C1620.316406,1916.767090 1638.673096,1927.090576 1653.046509,1943.745972 
	C1654.344971,1945.250488 1655.787598,1946.683960 1657.365845,1947.884155 
	C1663.724121,1952.718872 1668.939453,1952.694092 1673.955078,1946.483398 
	C1683.240723,1934.986206 1689.907104,1921.856445 1693.621948,1907.587158 
	C1694.893799,1902.701294 1693.417480,1897.059448 1692.972656,1891.781982 
	C1692.694336,1888.480591 1691.342651,1885.146240 1691.676270,1881.952393 
	C1691.999023,1878.863892 1693.045654,1875.041626 1695.185425,1873.084961 
	C1708.360840,1861.037842 1728.143311,1861.135620 1738.515625,1877.031006 
	C1740.315918,1879.790161 1741.661499,1882.894653 1742.890503,1885.969971 
	C1751.041260,1906.367432 1759.424805,1926.680908 1767.060547,1947.271118 
	C1770.981567,1957.844238 1776.721436,1966.944214 1784.507812,1974.886841 
	C1799.047852,1989.718140 1815.334351,2002.359741 1833.095215,2013.088257 
	C1835.913818,2014.790894 1839.003418,2016.414062 1842.177002,2017.085938 
	C1849.853638,2018.711426 1854.683228,2013.863281 1852.785767,2006.205688 
	C1851.519653,2001.096069 1849.417480,1996.090454 1847.002686,1991.391357 
	C1842.592407,1982.808594 1837.931396,1974.329590 1832.899292,1966.098145 
	C1826.741943,1956.025879 1825.994751,1945.324585 1828.630493,1934.298462 
	C1830.091797,1928.185303 1832.299438,1922.184937 1834.779175,1916.394409 
	C1840.249634,1903.619507 1849.109985,1895.658936 1863.789795,1893.683594 
	C1880.361206,1891.453857 1894.287354,1882.416748 1907.162964,1872.203369 
	C1914.881592,1866.080688 1915.136963,1862.001831 1910.135376,1853.158081 
	C1908.332764,1849.970703 1906.277588,1846.923218 1904.538574,1843.703369 
	C1899.444702,1834.271606 1898.107788,1824.151733 1899.637451,1813.660767 
	C1901.106934,1803.580444 1906.529785,1801.289185 1914.805298,1807.392822 
	C1917.974121,1809.730103 1920.536621,1812.905273 1923.301880,1815.769531 
	C1926.068848,1818.635742 1928.425415,1821.993042 1931.513794,1824.437866 
	C1946.385498,1836.210693 1970.986206,1830.321289 1976.988403,1813.203979 
	C1980.179321,1804.103882 1981.160889,1794.567017 1978.631714,1784.726318 
	C1953.177490,1685.690430 1901.515747,1602.871094 1822.298706,1538.484009 
	C1714.993408,1451.266602 1591.985229,1418.039673 1455.018311,1437.717407 
	C1395.279907,1446.299805 1339.715576,1466.958984 1287.894287,1497.787720 
	C1285.291748,1499.336060 1282.864258,1501.178589 1280.355225,1502.884033 
	C1287.127563,1503.964355 1293.063232,1503.335083 1299.015015,1502.968262 
	C1324.933472,1501.370728 1350.843506,1499.098511 1376.783936,1498.646484 
	C1388.203857,1498.447510 1400.023804,1500.876465 1411.061279,1504.142700 
	C1425.228638,1508.334961 1429.187866,1516.392334 1426.489868,1530.902832 
	C1424.578979,1541.180298 1426.858398,1550.306152 1434.019531,1557.680054 
	C1439.318848,1563.136597 1445.542480,1567.702515 1451.411499,1572.596680 
	C1455.495605,1576.002686 1459.834473,1579.119141 1463.763916,1582.690063 
	C1466.778198,1585.429321 1467.652222,1589.186401 1465.137451,1592.593872 
	C1463.421021,1594.919434 1460.907837,1596.853516 1458.389893,1598.358765 
	C1443.242798,1607.414185 1428.108154,1616.503052 1412.724609,1625.144897 
	C1405.206177,1629.368408 1397.250977,1632.866699 1389.304321,1636.248291 
	C1386.349609,1637.505493 1382.653809,1638.429077 1379.662842,1637.789551 
	C1376.791138,1637.175415 1373.091797,1634.826050 1372.166992,1632.341675 
	C1371.299316,1630.010864 1372.795044,1625.807495 1374.671021,1623.681274 
	C1377.456787,1620.524170 1381.298706,1618.123535 1385.039551,1616.020630 
	C1393.161743,1611.454712 1401.564575,1607.390625 1409.731323,1602.900757 
	C1413.799683,1600.664062 1417.886475,1598.287598 1421.449585,1595.349365 
	C1425.789429,1591.770752 1425.479492,1588.455933 1420.187378,1586.307983 
	C1415.057617,1584.225830 1409.256226,1582.286621 1403.891968,1582.614136 
	C1393.328613,1583.259033 1382.757324,1585.016357 1372.382446,1587.222168 
	C1355.806152,1590.746582 1339.675781,1596.329712 1322.561646,1597.330444 
	C1310.592773,1598.030396 1298.654175,1599.236572 1286.691284,1600.060059 
	C1264.524658,1601.585938 1244.369873,1608.600952 1226.592896,1622.022339 
	C1208.691040,1635.538086 1209.520386,1648.756958 1229.134888,1659.630493 
	C1244.107300,1667.930664 1260.421143,1672.527344 1277.055176,1676.283325 
	C1288.149536,1678.788574 1297.611450,1676.013794 1305.726562,1668.715332 
	C1311.647827,1663.390259 1317.031494,1657.432617 1322.355713,1651.489014 
	C1326.919434,1646.394165 1331.936035,1642.226929 1338.779541,1640.784668 
	C1347.825195,1638.878296 1355.740845,1643.086548 1359.430420,1652.109253 
	C1344.931519,1660.384399 1333.161743,1672.005615 1321.518433,1683.977539 
	C1310.489258,1695.317871 1296.279785,1697.924316 1281.873047,1691.819946 
	C1266.583618,1685.341431 1251.036255,1684.594116 1234.911499,1685.326172 
	C1219.490356,1686.026245 1205.657593,1690.153564 1193.067383,1699.432861 
	C1186.179565,1704.509277 1178.298706,1708.438477 1170.452271,1711.965820 
	C1159.709106,1716.795410 1158.735962,1717.821289 1161.722412,1729.744873 
	C1163.677856,1737.552368 1160.929199,1743.256348 1154.924316,1748.106323 
	C1149.053955,1752.847778 1142.925415,1755.577759 1135.714966,1751.514404 
	C1122.097534,1743.840454 1108.075439,1745.573486 1094.070435,1749.707031 
	C1082.661865,1753.073975 1078.312256,1759.024658 1078.721680,1771.030273 
	C1078.899902,1776.254028 1080.052734,1781.661133 1081.882080,1786.567749 
	C1085.953247,1797.487183 1094.295776,1801.359863 1104.018433,1795.328979 
	C1115.505127,1788.203979 1128.053223,1786.152344 1140.727173,1783.474976 
	C1160.454956,1779.307617 1179.220337,1772.970093 1194.472046,1758.747314 
	C1199.974487,1753.615845 1206.669312,1754.112183 1213.028320,1757.792603 
	C1219.330566,1761.440186 1222.998413,1767.227051 1226.402954,1773.515381 
	C1232.730957,1785.203857 1239.474731,1796.681641 1246.459595,1807.991333 
	C1248.568604,1811.406372 1251.334229,1815.342529 1258.075073,1813.360840 
	C1256.920288,1808.853149 1255.962036,1804.473511 1254.664551,1800.196655 
	C1252.733643,1793.832764 1250.291382,1787.609863 1248.672974,1781.174438 
	C1248.232300,1779.422607 1249.464600,1776.577393 1250.884521,1775.277954 
	C1251.760742,1774.476074 1255.015869,1774.997437 1256.210693,1776.050537 
	C1260.422119,1779.761963 1264.324585,1783.850098 1268.117920,1788.002197 
	C1272.317505,1792.598877 1276.268433,1797.422852 1280.102783,1801.886230 
	C1285.757935,1799.321777 1290.135864,1796.854614 1294.818237,1795.310425 
	C1305.589233,1791.758423 1313.109253,1795.893555 1316.533447,1806.511230 
	C1319.817627,1816.695312 1316.695435,1825.023315 1308.902710,1831.553223 
	C1294.673462,1843.476562 1278.390747,1849.837280 1259.829712,1845.041992 
	C1245.704468,1841.392822 1231.571167,1837.050537 1218.240356,1831.197266 
	C1187.853760,1817.855225 1156.317261,1808.907104 1123.781982,1802.913086 
	C1111.273193,1800.608521 1101.488647,1808.066406 1090.463135,1811.060425 
	C1089.713135,1811.264160 1089.249390,1812.576050 1088.682617,1813.393311 
	C1081.116211,1824.304077 1073.429810,1835.135254 1066.077515,1846.188477 
	C1064.142944,1849.096924 1062.321777,1852.609375 1062.007812,1855.989258 
	C1055.109253,1930.266479 1065.491577,2002.100464 1093.019531,2071.440430 
	C1094.578125,2075.366211 1095.366821,2079.831055 1100.674927,2080.979248 
	C1107.701294,2082.499023 1114.498657,2086.587402 1121.900146,2082.567139 
	C1131.256470,2077.484863 1140.557983,2072.301758 1149.926270,2067.242188 
	C1153.725220,2065.190430 1157.540894,2063.116211 1161.519897,2061.463379 
	C1169.064697,2058.329590 1175.743042,2059.456787 1181.385132,2065.845459 
	C1184.234131,2069.071533 1187.174316,2072.585693 1190.816162,2074.674805 
	C1202.486206,2081.368408 1209.232544,2090.736572 1209.226440,2104.476318 
	C1209.226196,2105.131592 1209.405029,2105.801025 1209.586548,2106.439697 
	C1211.119141,2111.830078 1212.727051,2112.695068 1218.379395,2111.104980 
	C1219.657837,2110.745361 1220.877563,2110.182129 1222.139404,2109.757812 
	C1232.586914,2106.245361 1236.844727,2108.539795 1239.411743,2119.207764 
	C1239.954224,2121.462402 1239.950195,2123.844238 1240.411255,2126.124268 
	C1242.256104,2135.245850 1243.857666,2144.434814 1246.185181,2153.434326 
	C1248.082642,2160.770508 1252.092285,2166.243164 1261.368408,2164.002197 
	C1261.605957,2166.143066 1261.860840,2167.758057 1261.953491,2169.382812 
	C1262.655396,2181.683838 1262.582520,2194.086426 1264.224121,2206.259033 
	C1265.724854,2217.385742 1268.134399,2228.591797 1271.842041,2239.167236 
	C1276.326294,2251.958252 1282.554077,2254.713623 1295.869629,2252.956299 
	C1308.211548,2251.327637 1319.813965,2247.447266 1330.996216,2242.060547 
	C1340.807983,2237.333740 1348.845093,2230.729980 1355.234253,2221.810303 
	C1363.673218,2210.029297 1369.850708,2197.229248 1374.106323,2183.453369 
	C1376.365234,2176.141357 1378.241455,2168.708740 1380.593750,2161.428467 
	C1382.901001,2154.288330 1386.478516,2147.979492 1393.790161,2144.697021 
	C1398.899902,2142.403076 1400.745605,2137.854980 1401.971924,2132.854004 
	C1403.397705,2127.039795 1404.251465,2120.983398 1406.475220,2115.486084 
	C1412.622803,2100.289062 1414.218140,2084.729492 1412.917725,2068.473389 
	C1411.727905,2053.600098 1415.840576,2040.094727 1426.734985,2029.227905 
	C1432.867310,2023.111450 1438.535522,2016.417725 1445.251099,2011.028564 
	C1452.473145,2005.232544 1455.997925,1998.007690 1458.288330,1989.363159 
	C1460.574219,1980.735107 1458.183960,1974.149414 1451.417358,1969.153564 
	C1446.352173,1965.413940 1440.917236,1962.045654 1435.292480,1959.216309 
	C1410.990479,1946.992432 1396.180298,1926.683105 1386.307373,1902.190308 
	C1382.664062,1893.151855 1380.757690,1883.660156 1381.970215,1873.834595 
	C1382.226196,1871.760864 1383.420288,1869.802856 1384.824829,1866.094360 
	C1389.244873,1869.912842 1392.937622,1872.566650 1395.980103,1875.827148 
	C1407.345947,1888.008423 1418.433838,1900.448853 1429.765991,1912.662109 
	C1433.836060,1917.048706 1438.065918,1921.348877 1442.640015,1925.192017 
	C1450.577026,1931.859985 1459.826294,1934.310425 1469.703125,1930.580322 
	C1478.052734,1927.427124 1486.658203,1924.200928 1493.961304,1919.252197 
	C1500.372437,1914.907959 1506.003296,1908.722168 1510.404663,1902.275269 
	C1516.014893,1894.057251 1515.036133,1885.170776 1508.415405,1877.365479 
	C1505.400269,1873.811035 1502.397461,1870.217896 1499.091675,1866.942627 
	C1482.996948,1850.997314 1466.728027,1835.227295 1450.691528,1819.224243 
	C1446.462524,1815.004150 1442.670654,1810.307129 1439.001343,1805.578369 
	C1436.524170,1802.385986 1434.377808,1798.708862 1437.623535,1794.704712 
	C1441.218506,1790.269653 1445.554810,1791.854004 1449.321167,1794.102173 
	C1455.309448,1797.676392 1461.281128,1801.412964 1466.701904,1805.774536 
	C1477.427490,1814.403442 1488.833984,1821.755859 1501.710815,1826.694214 
	C1518.592773,1833.168823 1529.623291,1844.428711 1532.053589,1864.614380 
M1816.759888,2223.571533 
	C1823.014893,2218.100342 1829.705811,2219.687744 1836.434326,2222.400879 
	C1842.500244,2224.846680 1848.538086,2227.362305 1854.241455,2229.704590 
	C1856.127930,2228.055176 1857.182129,2227.246826 1858.105469,2226.309814 
	C1902.588867,2181.154785 1936.561157,2129.125977 1959.944214,2070.216553 
	C1961.129639,2067.229980 1961.898560,2063.758301 1961.686157,2060.591553 
	C1960.751465,2046.655273 1955.311646,2034.165649 1948.125366,2022.429199 
	C1945.119019,2017.519775 1942.378174,2016.784790 1937.175903,2019.349121 
	C1932.725342,2021.543213 1928.544800,2024.342407 1924.423340,2027.137207 
	C1906.031494,2039.608765 1886.026733,2047.973022 1864.280640,2052.856689 
	C1841.278809,2058.022705 1818.422607,2063.947266 1795.725586,2070.332764 
	C1766.787354,2078.473877 1749.274536,2099.060791 1738.681396,2126.056152 
	C1732.520508,2141.755859 1732.454468,2157.792969 1738.538086,2173.838623 
	C1741.592041,2181.893799 1743.726929,2190.307129 1746.091309,2198.611572 
	C1747.729248,2204.364502 1748.746460,2210.305420 1750.574829,2215.990723 
	C1754.235840,2227.375732 1759.397339,2229.769287 1770.094360,2224.635254 
	C1776.664673,2221.481689 1782.683838,2217.199707 1789.094971,2213.687988 
	C1792.999756,2211.549316 1797.179199,2209.911865 1802.674927,2207.387939 
	C1802.334229,2213.133545 1801.869019,2217.009766 1801.932495,2220.877441 
	C1802.018555,2226.132568 1805.399048,2228.808838 1810.460449,2227.578613 
	C1812.289185,2227.134033 1813.849365,2225.584961 1816.759888,2223.571533 
M1406.563110,2297.538818 
	C1399.259033,2304.541992 1393.428589,2312.567383 1389.706543,2322.028320 
	C1384.434448,2335.429443 1389.008789,2344.489258 1402.963135,2348.319580 
	C1464.795532,2365.290527 1527.451782,2369.244873 1590.963135,2360.438965 
	C1666.963745,2349.901367 1735.930298,2321.881104 1798.318115,2277.403564 
	C1801.188599,2275.357178 1803.891724,2273.075928 1807.229614,2270.469482 
	C1805.381470,2269.176270 1804.400513,2268.350098 1803.299683,2267.740479 
	C1785.415405,2257.838379 1766.176636,2257.962158 1746.924561,2261.195312 
	C1730.149658,2264.012695 1715.838867,2272.786621 1702.577515,2283.096680 
	C1694.431274,2289.430420 1686.419434,2295.978271 1678.769043,2302.896484 
	C1672.476562,2308.586670 1665.732910,2310.467285 1657.646729,2308.010254 
	C1651.604736,2306.174561 1645.445801,2304.708252 1639.447876,2302.744873 
	C1617.321045,2295.501465 1595.379150,2287.658936 1573.106201,2280.903076 
	C1543.366943,2271.882568 1513.104492,2265.245605 1481.708008,2267.938232 
	C1454.317139,2270.287354 1428.765747,2277.885986 1406.563110,2297.538818 
M1961.042480,1864.990356 
	C1959.611084,1868.214478 1958.676514,1871.794678 1956.664429,1874.602783 
	C1946.497314,1888.791870 1942.401611,1904.595093 1944.423218,1921.740601 
	C1947.347778,1946.544922 1957.680176,1968.209595 1973.999756,1987.014893 
	C1976.235352,1989.591064 1979.183716,1991.548584 1982.508789,1994.397949 
	C1983.283447,1991.598389 1983.701904,1990.389648 1983.949829,1989.146973 
	C1991.204102,1952.784912 1993.652954,1916.078369 1992.327637,1879.040894 
	C1991.923584,1867.753052 1987.651001,1858.342285 1980.418579,1850.245117 
	C1972.855469,1841.777832 1963.167236,1838.351562 1950.814819,1840.381836 
	C1954.215576,1848.358154 1957.419434,1855.872803 1961.042480,1864.990356 
M1126.657837,1711.670288 
	C1131.895142,1706.564331 1137.333008,1701.646484 1142.329468,1696.314819 
	C1154.209717,1683.637817 1166.871094,1672.050903 1182.557739,1664.092651 
	C1186.353760,1662.166626 1189.824341,1659.362305 1192.971436,1656.450317 
	C1197.576538,1652.189209 1197.482788,1648.694214 1192.432251,1644.974365 
	C1189.307617,1642.672974 1185.516357,1641.051270 1181.792969,1639.830078 
	C1170.400391,1636.093140 1159.410522,1639.950562 1148.486572,1642.455444 
	C1138.348389,1644.780273 1130.308594,1650.378784 1125.473267,1659.988037 
	C1115.776123,1679.259155 1105.989502,1698.485352 1096.325317,1717.772949 
	C1095.368774,1719.682007 1095.004761,1721.887817 1094.345459,1724.021362 
	C1101.091675,1727.575928 1106.780151,1725.823975 1111.963379,1722.636597 
	C1116.750000,1719.692993 1121.060669,1715.975586 1126.657837,1711.670288 
M1433.593384,2048.882812 
	C1430.443848,2065.865967 1426.652466,2082.763916 1424.378296,2099.863525 
	C1422.945923,2110.634033 1423.618164,2121.707764 1423.700195,2132.642822 
	C1423.727295,2136.242432 1424.633789,2139.986816 1430.415894,2141.375000 
	C1432.604492,2138.316162 1435.616821,2135.189453 1437.340088,2131.466309 
	C1440.683228,2124.244141 1443.489868,2116.754395 1446.184448,2109.255127 
	C1453.694458,2088.354492 1458.315308,2066.397461 1469.793945,2046.936035 
	C1472.223877,2042.815918 1473.293213,2037.523193 1473.703613,2032.662109 
	C1474.472778,2023.549927 1468.538452,2018.944336 1459.840332,2021.549805 
	C1456.408325,2022.577881 1452.998535,2024.259399 1450.094849,2026.357666 
	C1442.682129,2031.714233 1436.939941,2038.526855 1433.593384,2048.882812 
M1163.589844,1592.554688 
	C1160.771973,1596.271606 1158.220703,1600.233643 1155.076904,1603.650757 
	C1149.706543,1609.487793 1152.607056,1614.217529 1157.857544,1617.651123 
	C1164.580078,1622.047363 1172.160645,1621.700684 1179.031250,1618.954956 
	C1188.238892,1615.275513 1197.012207,1610.453491 1205.802490,1605.802002 
	C1214.432983,1601.234863 1218.576050,1593.516357 1219.891113,1584.069092 
	C1220.258545,1581.430054 1220.837036,1578.818848 1221.159180,1576.175415 
	C1222.242920,1567.282959 1219.428467,1562.310791 1210.530151,1561.401123 
	C1199.092163,1560.231689 1187.829956,1561.810425 1179.826050,1571.717285 
	C1174.591675,1578.196167 1169.547241,1584.828735 1163.589844,1592.554688 
M1608.925049,1964.390015 
	C1611.190308,1965.760742 1613.339233,1967.394775 1615.741211,1968.456177 
	C1625.356201,1972.705322 1635.306274,1974.888672 1645.769897,1972.116333 
	C1655.781738,1969.463501 1657.836914,1963.671265 1651.618042,1955.268799 
	C1646.758911,1948.703613 1640.291504,1944.113037 1632.588989,1941.355957 
	C1622.615479,1937.786011 1610.078491,1943.423706 1606.255127,1953.284180 
	C1604.863525,1956.872681 1604.838989,1960.462402 1608.925049,1964.390015 
M1872.404053,1986.817383 
	C1869.135132,1990.055298 1865.390137,1992.948486 1862.727905,1996.625610 
	C1859.938721,2000.477905 1860.494873,2004.681030 1864.153564,2008.278320 
	C1872.225952,2016.215454 1894.169800,2020.198975 1904.569946,2015.486328 
	C1911.061279,2012.544922 1912.628052,2008.099854 1908.809082,2001.854126 
	C1903.963379,1993.929321 1896.723633,1988.839844 1888.090210,1985.584595 
	C1883.203735,1983.742188 1878.445190,1983.291992 1872.404053,1986.817383 
M1880.104126,1956.821533 
	C1874.353760,1950.984619 1868.920654,1944.780396 1862.738770,1939.443237 
	C1858.781860,1936.027100 1853.543457,1935.463623 1848.971191,1938.968140 
	C1844.201782,1942.623657 1844.978394,1947.719727 1846.394287,1952.610962 
	C1850.539795,1966.931030 1859.523804,1972.760498 1873.849854,1970.636475 
	C1883.088135,1969.266846 1883.923950,1967.749512 1880.104126,1956.821533 
z"/>
<path fill="#FEFEFD" opacity="1.000000" stroke="none" 
	d="
M531.060730,837.144653 
	C490.525909,826.823547 463.751526,802.010376 448.088348,764.562317 
	C438.070435,740.611267 433.614563,715.436951 432.301727,689.699951 
	C431.645599,676.837036 432.187439,663.912964 432.187439,650.526733 
	C468.395721,650.526733 503.928192,650.526733 540.936279,650.526733 
	C540.936279,654.401733 540.862671,658.259705 540.948792,662.114075 
	C541.350525,680.092163 541.534729,698.093323 545.896118,715.707458 
	C546.056030,716.353333 546.125183,717.021362 546.277222,717.669556 
	C553.848145,749.950378 577.987488,754.793945 601.902588,749.311890 
	C613.055054,746.755493 621.088562,739.191101 623.841492,728.107605 
	C627.031799,715.263428 629.392578,702.094910 630.697327,688.926880 
	C632.974548,665.945679 631.983215,642.975464 626.152039,620.481873 
	C618.797424,592.111755 603.842163,579.821289 574.642395,577.637329 
	C566.356750,577.017639 558.068970,576.426880 549.055176,575.769897 
	C549.055176,549.719543 549.055176,523.625916 549.055176,496.186615 
	C552.942078,496.186615 556.830750,496.389130 560.691284,496.145844 
	C569.641846,495.581757 578.699219,495.494751 587.496521,493.966614 
	C606.135315,490.729034 619.215576,480.061829 624.406250,461.654205 
	C627.544067,450.526367 629.453125,438.951752 630.818909,427.447876 
	C632.872925,410.146149 631.764282,392.819366 628.006836,375.792328 
	C626.729187,370.002563 624.831665,364.145050 622.033752,358.956848 
	C619.576294,354.400085 616.031860,350.016510 611.974915,346.813721 
	C600.333008,337.622925 576.300720,336.701538 563.462952,344.325256 
	C556.897888,348.223877 552.651917,354.028259 549.765869,360.999390 
	C544.995544,372.521820 542.797974,384.622345 542.021240,396.952972 
	C541.330750,407.915070 541.251892,418.916473 540.951233,429.901825 
	C540.862549,433.142761 540.937561,436.388184 540.937561,439.981110 
	C504.244202,439.981110 468.678314,439.981110 432.487579,439.981110 
	C432.260468,437.202576 431.872192,434.655945 431.872284,432.109314 
	C431.873077,409.473328 431.448334,386.881287 435.791016,364.414795 
	C447.763306,302.477417 492.073669,261.134094 554.803345,253.782349 
	C584.892456,250.256027 614.675110,251.002823 643.873169,259.660126 
	C691.678833,273.834656 721.948608,305.341522 733.953247,353.616852 
	C742.956116,389.820831 742.979492,426.219910 731.762695,462.113831 
	C725.809326,481.164520 715.734131,497.883453 701.265808,511.844543 
	C692.309021,520.487427 681.578979,526.180725 669.541504,530.902771 
	C671.241943,532.040344 672.246643,532.947693 673.422913,533.465027 
	C706.967102,548.218323 725.052673,575.298889 733.762634,609.623840 
	C740.637573,636.717224 741.205261,664.331116 739.121948,692.023132 
	C737.518188,713.339539 733.753845,734.264587 726.256653,754.408630 
	C720.522339,769.816467 712.918884,784.171021 702.672974,797.057190 
	C683.233948,821.505493 657.098267,834.328369 627.032349,839.897156 
	C595.166748,845.799255 563.396912,844.738892 531.060730,837.144653 
z"/>
<path fill="#FDFEFD" opacity="1.000000" stroke="none" 
	d="
M375.376648,390.000366 
	C375.376648,538.188721 375.376648,685.377014 375.376648,833.118896 
	C338.488525,833.118896 302.676880,833.118896 265.880859,833.118896 
	C265.880859,680.518005 265.880859,528.103943 265.880859,373.879913 
	C255.664413,377.703796 246.884003,381.054138 238.056808,384.276306 
	C228.993027,387.584839 219.890045,390.786499 210.792221,394.000946 
	C201.747925,397.196472 192.688705,400.349792 182.897369,403.780426 
	C182.897369,376.570007 182.897369,350.108032 182.897369,322.955933 
	C185.147736,321.915710 187.847763,320.798065 190.429718,319.453674 
	C212.850800,307.779480 235.442795,296.412231 257.560974,284.188385 
	C266.232300,279.396088 274.422791,273.305267 281.725739,266.600586 
	C287.616241,261.192566 293.492340,259.325104 301.278717,259.499603 
	C322.260193,259.969818 343.259155,259.660370 364.251160,259.660370 
	C367.545319,259.660370 370.839447,259.660370 375.376678,259.660370 
	C375.376678,303.241211 375.376678,346.120789 375.376648,390.000366 
z"/>
<path fill="#FCFDFB" opacity="1.000000" stroke="none" 
	d="
M1394.146362,348.014130 
	C1389.417969,369.790802 1384.618774,391.552490 1379.981812,413.348602 
	C1375.757812,433.203339 1371.721191,453.097900 1367.562134,472.966553 
	C1367.227539,474.565063 1366.582764,476.098633 1365.949829,478.075562 
	C1358.280640,478.075562 1350.746460,478.075562 1342.526123,478.075562 
	C1332.816406,432.288574 1323.103149,386.484222 1313.308960,340.298767 
	C1308.695435,342.872620 1310.487549,346.605713 1310.430908,349.564911 
	C1309.652954,390.197205 1309.025513,430.832367 1308.367432,471.466919 
	C1308.335571,473.434784 1308.363281,475.403625 1308.363281,477.956970 
	C1298.255615,477.956970 1288.772217,477.956970 1277.803589,477.956970 
	C1278.696045,405.586884 1280.120117,333.203369 1281.215942,260.120056 
	C1294.942993,260.120056 1308.088623,260.120056 1322.584229,260.120056 
	C1332.608765,308.561859 1342.745117,357.544037 1352.881592,406.526215 
	C1353.629395,406.576324 1354.377197,406.626434 1355.125122,406.676514 
	C1366.136719,358.140045 1375.709351,309.276947 1386.605469,260.080200 
	C1399.817749,260.080200 1412.910156,260.080200 1427.034790,260.080200 
	C1428.219849,332.867279 1429.399658,405.327789 1430.584229,478.087799 
	C1419.999268,478.087799 1410.436768,478.087799 1400.361328,478.087799 
	C1399.550659,435.015137 1398.749023,392.424805 1397.973633,348.328033 
	C1397.999634,342.971954 1397.999634,339.122314 1397.999634,335.272675 
	C1397.486694,335.217499 1396.973877,335.162292 1396.460938,335.107117 
	C1395.689453,339.409454 1394.917847,343.711792 1394.146362,348.014130 
z"/>
<path fill="#FCFDFB" opacity="1.000000" stroke="none" 
	d="
M1599.997437,732.136597 
	C1597.158936,725.324097 1594.563354,719.237915 1591.967773,713.151733 
	C1589.505005,726.474548 1589.925415,739.754089 1589.852173,753.006042 
	C1589.774902,766.995972 1589.834839,780.986572 1589.834839,794.976929 
	C1589.834839,808.581543 1589.834839,822.186218 1589.834839,836.360962 
	C1578.231323,836.360962 1567.386841,836.360962 1556.105469,836.360962 
	C1556.105469,763.523254 1556.105469,691.068481 1556.105469,618.132446 
	C1565.416504,618.132446 1574.274902,618.132446 1583.473267,618.132446 
	C1600.403198,657.231323 1617.297241,696.247498 1635.020630,737.179077 
	C1637.733643,727.740417 1636.300293,720.006897 1636.555054,712.445679 
	C1636.812744,704.792969 1636.611694,697.124817 1636.611694,689.463440 
	C1636.611694,681.468933 1636.611694,673.474487 1636.611694,665.479980 
	C1636.611694,657.818604 1636.611694,650.157227 1636.611694,642.495850 
	C1636.611694,634.571533 1636.611694,626.647217 1636.611694,618.202881 
	C1648.043945,618.202881 1658.505615,618.202881 1669.482178,618.202881 
	C1669.482178,691.034180 1669.482178,763.464478 1669.482178,836.419800 
	C1660.873779,836.419800 1652.659790,836.419800 1643.407715,836.419800 
	C1629.106567,802.111755 1614.673462,767.487305 1599.997437,732.136597 
z"/>
<path fill="#FDFEFC" opacity="1.000000" stroke="none" 
	d="
M1426.771973,628.705261 
	C1436.890015,620.265442 1448.120605,616.047913 1460.362183,615.923462 
	C1471.916870,615.806030 1483.706787,616.071106 1494.997925,618.232666 
	C1511.151367,621.325256 1522.522095,631.736511 1527.872192,647.269531 
	C1531.081665,656.587524 1533.767090,666.592407 1533.974487,676.346313 
	C1534.696167,710.288452 1534.507446,744.259766 1534.022827,778.210815 
	C1533.906006,786.393799 1532.170166,794.809875 1529.700073,802.653015 
	C1523.337280,822.857422 1509.492798,835.355225 1488.249634,838.099915 
	C1478.448608,839.366272 1468.241943,840.002441 1458.500366,838.745483 
	C1430.491089,835.131531 1416.471558,821.713989 1410.596924,794.268311 
	C1409.210938,787.793640 1408.288208,781.088379 1408.239746,774.481262 
	C1408.005615,742.518677 1407.936035,710.550964 1408.299561,678.590637 
	C1408.385742,671.025024 1409.984741,663.399719 1411.569824,655.946838 
	C1413.759399,645.651917 1418.682495,636.646851 1426.771973,628.705261 
M1452.010986,655.620056 
	C1450.856079,663.472107 1448.798218,671.313416 1448.704590,679.178101 
	C1448.324341,711.118408 1448.432739,743.066650 1448.641113,775.010132 
	C1448.684204,781.620972 1449.288208,788.370117 1450.760742,794.797302 
	C1453.132812,805.151184 1460.165894,809.918335 1471.274170,809.950867 
	C1482.358398,809.983398 1489.370605,805.173645 1491.854980,794.878540 
	C1493.166016,789.445801 1493.755127,783.716370 1493.783203,778.116455 
	C1493.953491,744.175903 1493.901123,710.234070 1493.825928,676.292847 
	C1493.816406,671.989807 1493.581177,667.629517 1492.855225,663.398010 
	C1491.368774,654.735046 1487.984253,647.360413 1478.074585,645.608337 
	C1468.051880,643.836182 1458.729980,644.257324 1452.010986,655.620056 
z"/>
<path fill="#FCFDFB" opacity="1.000000" stroke="none" 
	d="
M1138.624512,779.757080 
	C1139.644287,786.275269 1140.061035,792.018005 1141.766357,797.348450 
	C1144.772949,806.746033 1152.227539,810.782410 1163.006714,809.809692 
	C1172.575317,808.946228 1178.495850,804.024231 1179.808838,794.332886 
	C1180.877075,786.448120 1180.758179,778.394226 1181.012573,770.410522 
	C1181.170166,765.466675 1181.041870,760.513794 1181.041870,754.949646 
	C1194.048950,754.949646 1206.184082,754.949646 1219.387817,754.949646 
	C1220.275635,776.186279 1221.366333,797.311768 1210.281738,816.830139 
	C1204.740845,826.587036 1196.298706,832.763489 1185.716919,836.071899 
	C1169.711548,841.076050 1153.601929,841.141541 1137.449829,836.744629 
	C1115.041382,830.644653 1104.521606,814.273499 1100.290283,792.923096 
	C1098.810303,785.455566 1098.172974,777.716003 1098.106445,770.092346 
	C1097.858765,741.763000 1097.636963,713.422791 1098.201904,685.102539 
	C1098.412354,674.545776 1099.833618,663.786194 1102.418335,653.552307 
	C1107.422729,633.737793 1120.368774,621.324158 1140.683350,617.189270 
	C1154.231567,614.431580 1167.778931,614.459106 1181.322510,617.394958 
	C1199.729126,621.384949 1211.006226,632.771118 1216.331665,650.585144 
	C1220.810425,665.566956 1219.899658,680.855652 1219.612183,697.265198 
	C1207.173096,698.117493 1194.989990,697.513550 1181.838013,697.655823 
	C1181.554932,694.528748 1181.171753,691.711731 1181.067871,688.884399 
	C1180.737427,679.899963 1180.916626,670.876587 1180.141968,661.933899 
	C1179.168579,650.695007 1173.066040,645.281189 1161.936768,644.687927 
	C1150.739746,644.091064 1142.593384,649.531372 1140.451050,659.946228 
	C1139.185547,666.099121 1138.696655,672.506104 1138.665894,678.802734 
	C1138.503418,712.133118 1138.597046,745.464722 1138.624512,779.757080 
z"/>
<path fill="#FBFDFB" opacity="1.000000" stroke="none" 
	d="
M1081.100098,339.382843 
	C1069.936768,339.387848 1059.689697,339.387848 1048.879761,339.387848 
	C1048.651489,335.511566 1048.396851,332.619354 1048.326660,329.722656 
	C1048.125244,321.402588 1048.381714,313.051514 1047.750732,304.766510 
	C1046.843872,292.858032 1040.677002,286.979767 1029.459106,286.381592 
	C1017.522156,285.745056 1010.228455,290.900940 1007.705872,302.364655 
	C1006.642212,307.198303 1006.092896,312.241699 1006.072754,317.192871 
	C1005.934753,351.158081 1005.879700,385.124908 1006.105835,419.089203 
	C1006.147522,425.348358 1006.980835,431.753815 1008.528015,437.816345 
	C1010.932617,447.239014 1017.791931,451.692871 1027.958862,451.634644 
	C1038.300049,451.575409 1044.319946,447.225159 1046.850464,437.315369 
	C1047.824829,433.499634 1048.043823,429.425018 1048.119019,425.459076 
	C1048.294800,416.183960 1048.175293,406.903290 1048.175293,396.905060 
	C1061.386597,396.905060 1073.792969,396.905060 1087.126953,396.905060 
	C1087.485352,416.381409 1088.198853,435.555115 1080.053467,453.776276 
	C1074.875854,465.358856 1066.300293,473.367371 1054.314941,477.318329 
	C1036.370361,483.233704 1018.284485,483.150482 1000.392029,477.025391 
	C987.023926,472.449097 977.433289,463.304749 972.506348,450.223907 
	C969.377563,441.917175 966.453674,432.941895 966.289734,424.212860 
	C965.602051,387.605896 965.708618,350.974823 966.209900,314.361969 
	C966.316711,306.557098 968.654114,298.586761 971.075012,291.049530 
	C976.483582,274.210754 988.196594,263.797272 1005.415955,259.474884 
	C1019.910645,255.836411 1034.419067,255.797134 1048.914062,259.060120 
	C1071.390503,264.119751 1082.342285,279.727142 1085.595337,301.245056 
	C1087.178589,311.718628 1086.826172,322.482635 1087.396484,333.112671 
	C1087.604004,336.979156 1086.673706,339.747223 1081.100098,339.382843 
z"/>
<path fill="#FCFDFB" opacity="1.000000" stroke="none" 
	d="
M1078.557617,789.235168 
	C1081.843262,805.300049 1084.953125,820.532654 1088.200562,836.439331 
	C1075.330933,836.439331 1063.490845,836.439331 1050.960083,836.439331 
	C1047.994995,819.925659 1045.070801,803.640137 1042.047119,786.800781 
	C1029.590576,786.800781 1017.448120,786.800781 1004.408203,786.800781 
	C1001.453491,802.999878 998.487549,819.260681 995.396606,836.206787 
	C983.146179,836.206787 971.004822,836.206787 957.595703,836.206787 
	C972.376282,763.457214 987.118591,690.895691 1001.915894,618.063782 
	C1016.133301,618.063782 1029.699829,618.063782 1044.013184,618.063782 
	C1055.499512,674.992493 1066.940674,731.697693 1078.557617,789.235168 
M1011.234192,743.919983 
	C1010.455566,749.029358 1009.676941,754.138794 1008.893616,759.279297 
	C1019.085022,759.279297 1028.140259,759.279297 1037.694580,759.279297 
	C1033.015259,730.966553 1028.480469,703.528076 1023.945679,676.089600 
	C1023.344666,676.146362 1022.743713,676.203186 1022.142761,676.260010 
	C1018.613586,698.252625 1015.084412,720.245239 1011.234192,743.919983 
z"/>
<path fill="#FCFDFB" opacity="1.000000" stroke="none" 
	d="
M1531.695312,268.158936 
	C1545.860596,338.432098 1559.885742,407.848846 1574.053589,477.972351 
	C1561.549927,477.972351 1549.684082,477.972351 1536.850464,477.972351 
	C1533.889893,461.599884 1530.901489,445.072968 1527.871094,428.313782 
	C1515.088745,428.313782 1502.886597,428.313782 1490.288086,428.313782 
	C1487.266479,444.987610 1484.316895,461.263519 1481.281494,478.012939 
	C1468.756836,478.012939 1456.612427,478.012939 1443.452148,478.012939 
	C1458.279175,405.042938 1472.964600,332.769470 1487.747559,260.016449 
	C1501.707764,260.016449 1515.212280,260.016449 1529.505371,260.016449 
	C1530.161499,262.348755 1530.858154,264.825623 1531.695312,268.158936 
M1504.424805,339.468048 
	C1501.199097,359.941101 1497.973267,380.414154 1494.699463,401.192749 
	C1504.971558,401.192749 1513.817383,401.192749 1523.554810,401.192749 
	C1518.895752,372.713562 1514.344971,344.896881 1509.794189,317.080200 
	C1509.324707,317.124084 1508.855225,317.167938 1508.385742,317.211823 
	C1507.170044,324.065521 1505.954224,330.919250 1504.424805,339.468048 
z"/>
<path fill="#FDFEFC" opacity="1.000000" stroke="none" 
	d="
M1686.014893,471.701447 
	C1686.012451,400.808044 1686.012451,330.892090 1686.012451,261.137665 
	C1693.656738,259.075287 1763.497314,258.514893 1777.401367,260.330750 
	C1777.401367,269.046875 1777.401367,277.845306 1777.401367,287.528442 
	C1760.589722,287.528442 1744.071289,287.528442 1726.862671,287.528442 
	C1726.862671,308.524475 1726.862671,328.659912 1726.862671,349.939972 
	C1739.787476,349.939972 1752.906128,349.939972 1766.692139,349.939972 
	C1766.692139,359.854340 1766.692139,368.638367 1766.692139,378.627258 
	C1753.278931,378.627258 1740.139282,378.627258 1726.607544,378.627258 
	C1726.607544,403.009247 1726.607544,426.201355 1726.607544,450.617981 
	C1743.531128,451.679413 1760.374390,450.592072 1777.844238,451.285065 
	C1777.844238,460.210144 1777.844238,468.665405 1777.844238,477.741608 
	C1776.602661,477.974915 1775.064209,478.512878 1773.524658,478.516174 
	C1746.872803,478.573181 1720.220947,478.555450 1693.568970,478.579498 
	C1689.464111,478.583221 1685.049927,479.109436 1686.014893,471.701447 
z"/>
<path fill="#FCFDFB" opacity="1.000000" stroke="none" 
	d="
M1641.387451,346.000305 
	C1641.387451,390.303101 1641.387451,433.605865 1641.387451,478.139618 
	C1634.509033,478.292236 1628.029053,478.490509 1621.547729,478.564270 
	C1615.255493,478.635895 1608.961792,478.579773 1601.735840,478.579773 
	C1601.735840,415.562561 1601.735840,353.080414 1601.735840,289.296997 
	C1589.051880,289.296997 1577.232056,289.296997 1564.884521,289.296997 
	C1564.884521,278.833801 1564.884521,269.661560 1564.884521,259.949341 
	C1601.799316,259.949341 1638.673462,259.949341 1676.252808,259.949341 
	C1676.252808,269.155670 1676.252808,278.289581 1676.252808,288.448975 
	C1665.217651,288.448975 1654.051636,288.448975 1641.400269,288.448975 
	C1641.395874,307.948517 1641.391724,326.474396 1641.387451,346.000305 
z"/>
<path fill="#FCFDFB" opacity="1.000000" stroke="none" 
	d="
M1295.219727,836.923706 
	C1283.352539,836.937439 1272.418457,836.937439 1260.571289,836.937439 
	C1260.571289,773.574585 1260.571289,711.134155 1260.571289,647.665283 
	C1248.217896,647.665283 1236.744507,647.665283 1224.564209,647.665283 
	C1224.564209,637.525269 1224.564209,628.381836 1224.564209,619.128540 
	C1231.787598,617.092102 1302.683594,616.295715 1335.375977,618.026855 
	C1335.375977,627.362061 1335.375977,636.774475 1335.375977,647.228882 
	C1324.132324,647.228882 1312.946167,647.228882 1300.583862,647.228882 
	C1300.583862,651.807312 1300.583984,655.375244 1300.583984,658.943176 
	C1300.583984,714.243774 1300.585815,769.544312 1300.578979,824.844910 
	C1300.578613,827.842102 1300.933228,830.938110 1300.273560,833.791809 
	C1299.975708,835.079834 1297.590820,835.885437 1295.219727,836.923706 
z"/>
<path fill="#FDFEFC" opacity="1.000000" stroke="none" 
	d="
M1106.318848,274.173462 
	C1106.318848,268.946686 1106.318848,264.698792 1106.318848,259.955658 
	C1119.866211,259.955658 1132.401123,259.955658 1146.202271,259.955658 
	C1146.202271,323.263123 1146.202271,386.645203 1146.202271,451.071289 
	C1164.259033,451.071289 1181.094604,451.071289 1198.420044,451.071289 
	C1198.420044,460.624359 1198.420044,469.120911 1198.420044,478.095215 
	C1167.797852,478.095215 1137.629395,478.095215 1106.318848,478.095215 
	C1106.318848,410.165955 1106.318848,342.659149 1106.318848,274.173462 
z"/>
<path fill="#FCFDFB" opacity="1.000000" stroke="none" 
	d="
M1386.168823,746.000000 
	C1386.168823,776.606750 1386.168823,806.213501 1386.168823,836.329102 
	C1372.665894,836.329102 1359.850830,836.329102 1346.675903,836.329102 
	C1346.675903,763.548950 1346.675903,691.383545 1346.675903,617.932007 
	C1359.579834,617.396423 1372.316895,617.678162 1386.168823,617.775696 
	C1386.168823,660.642029 1386.168823,702.820984 1386.168823,746.000000 
z"/>
<path fill="#FFFFFF" opacity="1.000000" stroke="none" 
	d="
M1213.082520,359.999390 
	C1213.082520,326.372437 1213.082520,293.745483 1213.082520,259.689941 
	C1226.135254,259.287720 1238.833008,259.290100 1252.048950,259.778015 
	C1252.048950,332.812988 1252.048950,405.202911 1252.048950,478.054993 
	C1239.071167,478.054993 1226.605469,478.054993 1213.082520,478.054993 
	C1213.082520,438.710480 1213.082520,399.854950 1213.082520,359.999390 
z"/>
<path fill="#429319" opacity="1.000000" stroke="none" 
	d="
M1395.012451,348.072998 
	C1394.917847,343.711792 1395.689453,339.409454 1396.460938,335.107117 
	C1396.973877,335.162292 1397.486694,335.217499 1397.999634,335.272675 
	C1397.999634,339.122314 1397.999634,342.971954 1397.806030,347.519958 
	C1397.034546,348.189484 1396.456543,348.160675 1395.012451,348.072998 
z"/>
<path fill="#388D0D" opacity="1.000000" stroke="none" 
	d="
M1531.910889,1863.836670 
	C1529.623291,1844.428711 1518.592773,1833.168823 1501.710815,1826.694214 
	C1488.833984,1821.755859 1477.427490,1814.403442 1466.701904,1805.774536 
	C1461.281128,1801.412964 1455.309448,1797.676392 1449.321167,1794.102173 
	C1445.554810,1791.854004 1441.218506,1790.269653 1437.623535,1794.704712 
	C1434.377808,1798.708862 1436.524170,1802.385986 1439.001343,1805.578369 
	C1442.670654,1810.307129 1446.462524,1815.004150 1450.691528,1819.224243 
	C1466.728027,1835.227295 1482.996948,1850.997314 1499.091675,1866.942627 
	C1502.397461,1870.217896 1505.400269,1873.811035 1508.415405,1877.365479 
	C1515.036133,1885.170776 1516.014893,1894.057251 1510.404663,1902.275269 
	C1506.003296,1908.722168 1500.372437,1914.907959 1493.961304,1919.252197 
	C1486.658203,1924.200928 1478.052734,1927.427124 1469.703125,1930.580322 
	C1459.826294,1934.310425 1450.577026,1931.859985 1442.640015,1925.192017 
	C1438.065918,1921.348877 1433.836060,1917.048706 1429.765991,1912.662109 
	C1418.433838,1900.448853 1407.345947,1888.008423 1395.980103,1875.827148 
	C1392.937622,1872.566650 1389.244873,1869.912842 1384.824829,1866.094360 
	C1383.420288,1869.802856 1382.226196,1871.760864 1381.970215,1873.834595 
	C1380.757690,1883.660156 1382.664062,1893.151855 1386.307373,1902.190308 
	C1396.180298,1926.683105 1410.990479,1946.992432 1435.292480,1959.216309 
	C1440.917236,1962.045654 1446.352173,1965.413940 1451.417358,1969.153564 
	C1458.183960,1974.149414 1460.574219,1980.735107 1458.288330,1989.363159 
	C1455.997925,1998.007690 1452.473145,2005.232544 1445.251099,2011.028564 
	C1438.535522,2016.417725 1432.867310,2023.111450 1426.734985,2029.227905 
	C1415.840576,2040.094727 1411.727905,2053.600098 1412.917725,2068.473389 
	C1414.218140,2084.729492 1412.622803,2100.289062 1406.475220,2115.486084 
	C1404.251465,2120.983398 1403.397705,2127.039795 1401.971924,2132.854004 
	C1400.745605,2137.854980 1398.899902,2142.403076 1393.790161,2144.697021 
	C1386.478516,2147.979492 1382.901001,2154.288330 1380.593750,2161.428467 
	C1378.241455,2168.708740 1376.365234,2176.141357 1374.106323,2183.453369 
	C1369.850708,2197.229248 1363.673218,2210.029297 1355.234253,2221.810303 
	C1348.845093,2230.729980 1340.807983,2237.333740 1330.996216,2242.060547 
	C1319.813965,2247.447266 1308.211548,2251.327637 1295.869629,2252.956299 
	C1282.554077,2254.713623 1276.326294,2251.958252 1271.842041,2239.167236 
	C1268.134399,2228.591797 1265.724854,2217.385742 1264.224121,2206.259033 
	C1262.582520,2194.086426 1262.655396,2181.683838 1261.953491,2169.382812 
	C1261.860840,2167.758057 1261.605957,2166.143066 1261.368408,2164.002197 
	C1252.092285,2166.243164 1248.082642,2160.770508 1246.185181,2153.434326 
	C1243.857666,2144.434814 1242.256104,2135.245850 1240.411255,2126.124268 
	C1239.950195,2123.844238 1239.954224,2121.462402 1239.411743,2119.207764 
	C1236.844727,2108.539795 1232.586914,2106.245361 1222.139404,2109.757812 
	C1220.877563,2110.182129 1219.657837,2110.745361 1218.379395,2111.104980 
	C1212.727051,2112.695068 1211.119141,2111.830078 1209.586548,2106.439697 
	C1209.405029,2105.801025 1209.226196,2105.131592 1209.226440,2104.476318 
	C1209.232544,2090.736572 1202.486206,2081.368408 1190.816162,2074.674805 
	C1187.174316,2072.585693 1184.234131,2069.071533 1181.385132,2065.845459 
	C1175.743042,2059.456787 1169.064697,2058.329590 1161.519897,2061.463379 
	C1157.540894,2063.116211 1153.725220,2065.190430 1149.926270,2067.242188 
	C1140.557983,2072.301758 1131.256470,2077.484863 1121.900146,2082.567139 
	C1114.498657,2086.587402 1107.701294,2082.499023 1100.674927,2080.979248 
	C1095.366821,2079.831055 1094.578125,2075.366211 1093.019531,2071.440430 
	C1065.491577,2002.100464 1055.109253,1930.266479 1062.007812,1855.989258 
	C1062.321777,1852.609375 1064.142944,1849.096924 1066.077515,1846.188477 
	C1073.429810,1835.135254 1081.116211,1824.304077 1088.682617,1813.393311 
	C1089.249390,1812.576050 1089.713135,1811.264160 1090.463135,1811.060425 
	C1101.488647,1808.066406 1111.273193,1800.608521 1123.781982,1802.913086 
	C1156.317261,1808.907104 1187.853760,1817.855225 1218.240356,1831.197266 
	C1231.571167,1837.050537 1245.704468,1841.392822 1259.829712,1845.041992 
	C1278.390747,1849.837280 1294.673462,1843.476562 1308.902710,1831.553223 
	C1316.695435,1825.023315 1319.817627,1816.695312 1316.533447,1806.511230 
	C1313.109253,1795.893555 1305.589233,1791.758423 1294.818237,1795.310425 
	C1290.135864,1796.854614 1285.757935,1799.321777 1280.102783,1801.886230 
	C1276.268433,1797.422852 1272.317505,1792.598877 1268.117920,1788.002197 
	C1264.324585,1783.850098 1260.422119,1779.761963 1256.210693,1776.050537 
	C1255.015869,1774.997437 1251.760742,1774.476074 1250.884521,1775.277954 
	C1249.464600,1776.577393 1248.232300,1779.422607 1248.672974,1781.174438 
	C1250.291382,1787.609863 1252.733643,1793.832764 1254.664551,1800.196655 
	C1255.962036,1804.473511 1256.920288,1808.853149 1258.075073,1813.360840 
	C1251.334229,1815.342529 1248.568604,1811.406372 1246.459595,1807.991333 
	C1239.474731,1796.681641 1232.730957,1785.203857 1226.402954,1773.515381 
	C1222.998413,1767.227051 1219.330566,1761.440186 1213.028320,1757.792603 
	C1206.669312,1754.112183 1199.974487,1753.615845 1194.472046,1758.747314 
	C1179.220337,1772.970093 1160.454956,1779.307617 1140.727173,1783.474976 
	C1128.053223,1786.152344 1115.505127,1788.203979 1104.018433,1795.328979 
	C1094.295776,1801.359863 1085.953247,1797.487183 1081.882080,1786.567749 
	C1080.052734,1781.661133 1078.899902,1776.254028 1078.721680,1771.030273 
	C1078.312256,1759.024658 1082.661865,1753.073975 1094.070435,1749.707031 
	C1108.075439,1745.573486 1122.097534,1743.840454 1135.714966,1751.514404 
	C1142.925415,1755.577759 1149.053955,1752.847778 1154.924316,1748.106323 
	C1160.929199,1743.256348 1163.677856,1737.552368 1161.722412,1729.744873 
	C1158.735962,1717.821289 1159.709106,1716.795410 1170.452271,1711.965820 
	C1178.298706,1708.438477 1186.179565,1704.509277 1193.067383,1699.432861 
	C1205.657593,1690.153564 1219.490356,1686.026245 1234.911499,1685.326172 
	C1251.036255,1684.594116 1266.583618,1685.341431 1281.873047,1691.819946 
	C1296.279785,1697.924316 1310.489258,1695.317871 1321.518433,1683.977539 
	C1333.161743,1672.005615 1344.931519,1660.384399 1359.430420,1652.109253 
	C1355.740845,1643.086548 1347.825195,1638.878296 1338.779541,1640.784668 
	C1331.936035,1642.226929 1326.919434,1646.394165 1322.355713,1651.489014 
	C1317.031494,1657.432617 1311.647827,1663.390259 1305.726562,1668.715332 
	C1297.611450,1676.013794 1288.149536,1678.788574 1277.055176,1676.283325 
	C1260.421143,1672.527344 1244.107300,1667.930664 1229.134888,1659.630493 
	C1209.520386,1648.756958 1208.691040,1635.538086 1226.592896,1622.022339 
	C1244.369873,1608.600952 1264.524658,1601.585938 1286.691284,1600.060059 
	C1298.654175,1599.236572 1310.592773,1598.030396 1322.561646,1597.330444 
	C1339.675781,1596.329712 1355.806152,1590.746582 1372.382446,1587.222168 
	C1382.757324,1585.016357 1393.328613,1583.259033 1403.891968,1582.614136 
	C1409.256226,1582.286621 1415.057617,1584.225830 1420.187378,1586.307983 
	C1425.479492,1588.455933 1425.789429,1591.770752 1421.449585,1595.349365 
	C1417.886475,1598.287598 1413.799683,1600.664062 1409.731323,1602.900757 
	C1401.564575,1607.390625 1393.161743,1611.454712 1385.039551,1616.020630 
	C1381.298706,1618.123535 1377.456787,1620.524170 1374.671021,1623.681274 
	C1372.795044,1625.807495 1371.299316,1630.010864 1372.166992,1632.341675 
	C1373.091797,1634.826050 1376.791138,1637.175415 1379.662842,1637.789551 
	C1382.653809,1638.429077 1386.349609,1637.505493 1389.304321,1636.248291 
	C1397.250977,1632.866699 1405.206177,1629.368408 1412.724609,1625.144897 
	C1428.108154,1616.503052 1443.242798,1607.414185 1458.389893,1598.358765 
	C1460.907837,1596.853516 1463.421021,1594.919434 1465.137451,1592.593872 
	C1467.652222,1589.186401 1466.778198,1585.429321 1463.763916,1582.690063 
	C1459.834473,1579.119141 1455.495605,1576.002686 1451.411499,1572.596680 
	C1445.542480,1567.702515 1439.318848,1563.136597 1434.019531,1557.680054 
	C1426.858398,1550.306152 1424.578979,1541.180298 1426.489868,1530.902832 
	C1429.187866,1516.392334 1425.228638,1508.334961 1411.061279,1504.142700 
	C1400.023804,1500.876465 1388.203857,1498.447510 1376.783936,1498.646484 
	C1350.843506,1499.098511 1324.933472,1501.370728 1299.015015,1502.968262 
	C1293.063232,1503.335083 1287.127563,1503.964355 1280.355225,1502.884033 
	C1282.864258,1501.178589 1285.291748,1499.336060 1287.894287,1497.787720 
	C1339.715576,1466.958984 1395.279907,1446.299805 1455.018311,1437.717407 
	C1591.985229,1418.039673 1714.993408,1451.266602 1822.298706,1538.484009 
	C1901.515747,1602.871094 1953.177490,1685.690430 1978.631714,1784.726318 
	C1981.160889,1794.567017 1980.179321,1804.103882 1976.988403,1813.203979 
	C1970.986206,1830.321289 1946.385498,1836.210693 1931.513794,1824.437866 
	C1928.425415,1821.993042 1926.068848,1818.635742 1923.301880,1815.769531 
	C1920.536621,1812.905273 1917.974121,1809.730103 1914.805298,1807.392822 
	C1906.529785,1801.289185 1901.106934,1803.580444 1899.637451,1813.660767 
	C1898.107788,1824.151733 1899.444702,1834.271606 1904.538574,1843.703369 
	C1906.277588,1846.923218 1908.332764,1849.970703 1910.135376,1853.158081 
	C1915.136963,1862.001831 1914.881592,1866.080688 1907.162964,1872.203369 
	C1894.287354,1882.416748 1880.361206,1891.453857 1863.789795,1893.683594 
	C1849.109985,1895.658936 1840.249634,1903.619507 1834.779175,1916.394409 
	C1832.299438,1922.184937 1830.091797,1928.185303 1828.630493,1934.298462 
	C1825.994751,1945.324585 1826.741943,1956.025879 1832.899292,1966.098145 
	C1837.931396,1974.329590 1842.592407,1982.808594 1847.002686,1991.391357 
	C1849.417480,1996.090454 1851.519653,2001.096069 1852.785767,2006.205688 
	C1854.683228,2013.863281 1849.853638,2018.711426 1842.177002,2017.085938 
	C1839.003418,2016.414062 1835.913818,2014.790894 1833.095215,2013.088257 
	C1815.334351,2002.359741 1799.047852,1989.718140 1784.507812,1974.886841 
	C1776.721436,1966.944214 1770.981567,1957.844238 1767.060547,1947.271118 
	C1759.424805,1926.680908 1751.041260,1906.367432 1742.890503,1885.969971 
	C1741.661499,1882.894653 1740.315918,1879.790161 1738.515625,1877.031006 
	C1728.143311,1861.135620 1708.360840,1861.037842 1695.185425,1873.084961 
	C1693.045654,1875.041626 1691.999023,1878.863892 1691.676270,1881.952393 
	C1691.342651,1885.146240 1692.694336,1888.480591 1692.972656,1891.781982 
	C1693.417480,1897.059448 1694.893799,1902.701294 1693.621948,1907.587158 
	C1689.907104,1921.856445 1683.240723,1934.986206 1673.955078,1946.483398 
	C1668.939453,1952.694092 1663.724121,1952.718872 1657.365845,1947.884155 
	C1655.787598,1946.683960 1654.344971,1945.250488 1653.046509,1943.745972 
	C1638.673096,1927.090576 1620.316406,1916.767090 1599.699341,1909.971680 
	C1587.061279,1905.806030 1574.279785,1901.995728 1561.883057,1897.198242 
	C1546.761841,1891.346802 1536.246338,1880.738403 1531.910889,1863.836670 
z"/>
<path fill="#398E0E" opacity="1.000000" stroke="none" 
	d="
M1816.145996,2224.055664 
	C1813.849365,2225.584961 1812.289185,2227.134033 1810.460449,2227.578613 
	C1805.399048,2228.808838 1802.018555,2226.132568 1801.932495,2220.877441 
	C1801.869019,2217.009766 1802.334229,2213.133545 1802.674927,2207.387939 
	C1797.179199,2209.911865 1792.999756,2211.549316 1789.094971,2213.687988 
	C1782.683838,2217.199707 1776.664673,2221.481689 1770.094360,2224.635254 
	C1759.397339,2229.769287 1754.235840,2227.375732 1750.574829,2215.990723 
	C1748.746460,2210.305420 1747.729248,2204.364502 1746.091309,2198.611572 
	C1743.726929,2190.307129 1741.592041,2181.893799 1738.538086,2173.838623 
	C1732.454468,2157.792969 1732.520508,2141.755859 1738.681396,2126.056152 
	C1749.274536,2099.060791 1766.787354,2078.473877 1795.725586,2070.332764 
	C1818.422607,2063.947266 1841.278809,2058.022705 1864.280640,2052.856689 
	C1886.026733,2047.973022 1906.031494,2039.608765 1924.423340,2027.137207 
	C1928.544800,2024.342407 1932.725342,2021.543213 1937.175903,2019.349121 
	C1942.378174,2016.784790 1945.119019,2017.519775 1948.125366,2022.429199 
	C1955.311646,2034.165649 1960.751465,2046.655273 1961.686157,2060.591553 
	C1961.898560,2063.758301 1961.129639,2067.229980 1959.944214,2070.216553 
	C1936.561157,2129.125977 1902.588867,2181.154785 1858.105469,2226.309814 
	C1857.182129,2227.246826 1856.127930,2228.055176 1854.241455,2229.704590 
	C1848.538086,2227.362305 1842.500244,2224.846680 1836.434326,2222.400879 
	C1829.705811,2219.687744 1823.014893,2218.100342 1816.145996,2224.055664 
z"/>
<path fill="#398E0E" opacity="1.000000" stroke="none" 
	d="
M1407.073975,2297.046875 
	C1428.765747,2277.885986 1454.317139,2270.287354 1481.708008,2267.938232 
	C1513.104492,2265.245605 1543.366943,2271.882568 1573.106201,2280.903076 
	C1595.379150,2287.658936 1617.321045,2295.501465 1639.447876,2302.744873 
	C1645.445801,2304.708252 1651.604736,2306.174561 1657.646729,2308.010254 
	C1665.732910,2310.467285 1672.476562,2308.586670 1678.769043,2302.896484 
	C1686.419434,2295.978271 1694.431274,2289.430420 1702.577515,2283.096680 
	C1715.838867,2272.786621 1730.149658,2264.012695 1746.924561,2261.195312 
	C1766.176636,2257.962158 1785.415405,2257.838379 1803.299683,2267.740479 
	C1804.400513,2268.350098 1805.381470,2269.176270 1807.229614,2270.469482 
	C1803.891724,2273.075928 1801.188599,2275.357178 1798.318115,2277.403564 
	C1735.930298,2321.881104 1666.963745,2349.901367 1590.963135,2360.438965 
	C1527.451782,2369.244873 1464.795532,2365.290527 1402.963135,2348.319580 
	C1389.008789,2344.489258 1384.434448,2335.429443 1389.706543,2322.028320 
	C1393.428589,2312.567383 1399.259033,2304.541992 1407.073975,2297.046875 
z"/>
<path fill="#3B8F10" opacity="1.000000" stroke="none" 
	d="
M1960.832886,1864.188965 
	C1957.419434,1855.872803 1954.215576,1848.358154 1950.814819,1840.381836 
	C1963.167236,1838.351562 1972.855469,1841.777832 1980.418579,1850.245117 
	C1987.651001,1858.342285 1991.923584,1867.753052 1992.327637,1879.040894 
	C1993.652954,1916.078369 1991.204102,1952.784912 1983.949829,1989.146973 
	C1983.701904,1990.389648 1983.283447,1991.598389 1982.508789,1994.397949 
	C1979.183716,1991.548584 1976.235352,1989.591064 1973.999756,1987.014893 
	C1957.680176,1968.209595 1947.347778,1946.544922 1944.423218,1921.740601 
	C1942.401611,1904.595093 1946.497314,1888.791870 1956.664429,1874.602783 
	C1958.676514,1871.794678 1959.611084,1868.214478 1960.832886,1864.188965 
z"/>
<path fill="#3C9012" opacity="1.000000" stroke="none" 
	d="
M1126.119385,1712.134521 
	C1121.060669,1715.975586 1116.750000,1719.692993 1111.963379,1722.636597 
	C1106.780151,1725.823975 1101.091675,1727.575928 1094.345459,1724.021362 
	C1095.004761,1721.887817 1095.368774,1719.682007 1096.325317,1717.772949 
	C1105.989502,1698.485352 1115.776123,1679.259155 1125.473267,1659.988037 
	C1130.308594,1650.378784 1138.348389,1644.780273 1148.486572,1642.455444 
	C1159.410522,1639.950562 1170.400391,1636.093140 1181.792969,1639.830078 
	C1185.516357,1641.051270 1189.307617,1642.672974 1192.432251,1644.974365 
	C1197.482788,1648.694214 1197.576538,1652.189209 1192.971436,1656.450317 
	C1189.824341,1659.362305 1186.353760,1662.166626 1182.557739,1664.092651 
	C1166.871094,1672.050903 1154.209717,1683.637817 1142.329468,1696.314819 
	C1137.333008,1701.646484 1131.895142,1706.564331 1126.119385,1712.134521 
z"/>
<path fill="#3D9013" opacity="1.000000" stroke="none" 
	d="
M1433.763062,2048.119873 
	C1436.939941,2038.526855 1442.682129,2031.714233 1450.094849,2026.357666 
	C1452.998535,2024.259399 1456.408325,2022.577881 1459.840332,2021.549805 
	C1468.538452,2018.944336 1474.472778,2023.549927 1473.703613,2032.662109 
	C1473.293213,2037.523193 1472.223877,2042.815918 1469.793945,2046.936035 
	C1458.315308,2066.397461 1453.694458,2088.354492 1446.184448,2109.255127 
	C1443.489868,2116.754395 1440.683228,2124.244141 1437.340088,2131.466309 
	C1435.616821,2135.189453 1432.604492,2138.316162 1430.415894,2141.375000 
	C1424.633789,2139.986816 1423.727295,2136.242432 1423.700195,2132.642822 
	C1423.618164,2121.707764 1422.945923,2110.634033 1424.378296,2099.863525 
	C1426.652466,2082.763916 1430.443848,2065.865967 1433.763062,2048.119873 
z"/>
<path fill="#3C9012" opacity="1.000000" stroke="none" 
	d="
M1164.003784,1591.973511 
	C1169.547241,1584.828735 1174.591675,1578.196167 1179.826050,1571.717285 
	C1187.829956,1561.810425 1199.092163,1560.231689 1210.530151,1561.401123 
	C1219.428467,1562.310791 1222.242920,1567.282959 1221.159180,1576.175415 
	C1220.837036,1578.818848 1220.258545,1581.430054 1219.891113,1584.069092 
	C1218.576050,1593.516357 1214.432983,1601.234863 1205.802490,1605.802002 
	C1197.012207,1610.453491 1188.238892,1615.275513 1179.031250,1618.954956 
	C1172.160645,1621.700684 1164.580078,1622.047363 1157.857544,1617.651123 
	C1152.607056,1614.217529 1149.706543,1609.487793 1155.076904,1603.650757 
	C1158.220703,1600.233643 1160.771973,1596.271606 1164.003784,1591.973511 
z"/>
<path fill="#3D9013" opacity="1.000000" stroke="none" 
	d="
M1608.392334,1963.925537 
	C1604.838989,1960.462402 1604.863525,1956.872681 1606.255127,1953.284180 
	C1610.078491,1943.423706 1622.615479,1937.786011 1632.588989,1941.355957 
	C1640.291504,1944.113037 1646.758911,1948.703613 1651.618042,1955.268799 
	C1657.836914,1963.671265 1655.781738,1969.463501 1645.769897,1972.116333 
	C1635.306274,1974.888672 1625.356201,1972.705322 1615.741211,1968.456177 
	C1613.339233,1967.394775 1611.190308,1965.760742 1608.392334,1963.925537 
z"/>
<path fill="#3D9013" opacity="1.000000" stroke="none" 
	d="
M1873.080078,1986.446655 
	C1878.445190,1983.291992 1883.203735,1983.742188 1888.090210,1985.584595 
	C1896.723633,1988.839844 1903.963379,1993.929321 1908.809082,2001.854126 
	C1912.628052,2008.099854 1911.061279,2012.544922 1904.569946,2015.486328 
	C1894.169800,2020.198975 1872.225952,2016.215454 1864.153564,2008.278320 
	C1860.494873,2004.681030 1859.938721,2000.477905 1862.727905,1996.625610 
	C1865.390137,1992.948486 1869.135132,1990.055298 1873.080078,1986.446655 
z"/>
<path fill="#3D9013" opacity="1.000000" stroke="none" 
	d="
M1880.440674,1957.440918 
	C1883.923950,1967.749512 1883.088135,1969.266846 1873.849854,1970.636475 
	C1859.523804,1972.760498 1850.539795,1966.931030 1846.394287,1952.610962 
	C1844.978394,1947.719727 1844.201782,1942.623657 1848.971191,1938.968140 
	C1853.543457,1935.463623 1858.781860,1936.027100 1862.738770,1939.443237 
	C1868.920654,1944.780396 1874.353760,1950.984619 1880.440674,1957.440918 
z"/>
<path fill="#3C9012" opacity="1.000000" stroke="none" 
	d="
M1452.316895,654.896484 
	C1458.729980,644.257324 1468.051880,643.836182 1478.074585,645.608337 
	C1487.984253,647.360413 1491.368774,654.735046 1492.855225,663.398010 
	C1493.581177,667.629517 1493.816406,671.989807 1493.825928,676.292847 
	C1493.901123,710.234070 1493.953491,744.175903 1493.783203,778.116455 
	C1493.755127,783.716370 1493.166016,789.445801 1491.854980,794.878540 
	C1489.370605,805.173645 1482.358398,809.983398 1471.274170,809.950867 
	C1460.165894,809.918335 1453.132812,805.151184 1450.760742,794.797302 
	C1449.288208,788.370117 1448.684204,781.620972 1448.641113,775.010132 
	C1448.432739,743.066650 1448.324341,711.118408 1448.704590,679.178101 
	C1448.798218,671.313416 1450.856079,663.472107 1452.316895,654.896484 
z"/>
<path fill="#429319" opacity="1.000000" stroke="none" 
	d="
M1011.394714,743.078918 
	C1015.084412,720.245239 1018.613586,698.252625 1022.142761,676.260010 
	C1022.743713,676.203186 1023.344666,676.146362 1023.945679,676.089600 
	C1028.480469,703.528076 1033.015259,730.966553 1037.694580,759.279297 
	C1028.140259,759.279297 1019.085022,759.279297 1008.893616,759.279297 
	C1009.676941,754.138794 1010.455566,749.029358 1011.394714,743.078918 
z"/>
<path fill="#429319" opacity="1.000000" stroke="none" 
	d="
M1504.581665,338.620483 
	C1505.954224,330.919250 1507.170044,324.065521 1508.385742,317.211823 
	C1508.855225,317.167938 1509.324707,317.124084 1509.794189,317.080200 
	C1514.344971,344.896881 1518.895752,372.713562 1523.554810,401.192749 
	C1513.817383,401.192749 1504.971558,401.192749 1494.699463,401.192749 
	C1497.973267,380.414154 1501.199097,359.941101 1504.581665,338.620483 
z"/>
</svg>