<svg version="1.1" id="Layer_1" xmlns="http://www.w3.org/2000/svg" xmlns:xlink="http://www.w3.org/1999/xlink" x="0px" y="0px"
	 width="100%" viewBox="0 0 3000 3000" enable-background="new 0 0 3000 3000" xml:space="preserve">
<path fill="#0B97F1" opacity="1.000000" stroke="none" 
	d="
M3002.000000,1144.000000 
	C3002.000000,1763.948608 3002.000000,2382.897217 3002.000000,3001.922852 
	C2002.134644,3001.922852 1002.269226,3001.922852 2.201926,3001.922852 
	C2.201926,2002.217773 2.201926,1002.435547 2.201926,2.326649 
	C1001.999939,2.326649 2002.000000,2.326649 3002.000000,2.326649 
	C3002.000000,382.398102 3002.000000,762.699036 3002.000000,1144.000000 
M687.132080,1851.484497 
	C721.932190,1909.758545 750.343323,1970.961426 771.179321,2035.597778 
	C786.569946,2083.341309 796.996033,2132.116699 799.611267,2182.311279 
	C802.091553,2229.916260 796.234375,2276.763916 784.970032,2322.965576 
	C765.004395,2404.856445 731.460144,2481.121338 688.925842,2553.628906 
	C687.577148,2555.927979 685.903503,2558.082520 684.872620,2560.512939 
	C681.792847,2567.774170 685.786072,2574.197266 693.693665,2574.411865 
	C698.334106,2574.537842 703.022156,2574.033691 707.646362,2573.467041 
	C770.947510,2565.713135 829.065247,2543.805420 882.141907,2508.664795 
	C957.560669,2458.731445 1015.438232,2392.584961 1060.283691,2314.535156 
	C1062.016357,2311.519531 1063.827026,2308.548828 1065.763306,2305.283936 
	C1068.395630,2307.292969 1070.001221,2308.467773 1071.552734,2309.709961 
	C1143.010620,2366.927979 1219.042358,2417.262939 1299.573486,2460.762451 
	C1376.031738,2502.062256 1455.486450,2535.947754 1540.014526,2557.204834 
	C1630.065674,2579.851318 1720.415527,2582.350098 1811.218994,2561.964844 
	C1885.365234,2545.319336 1954.489624,2516.260986 2019.505249,2477.312988 
	C2129.443115,2411.453369 2222.122803,2326.084717 2301.793701,2226.154541 
	C2305.739502,2221.205078 2309.632568,2216.201904 2313.301758,2211.046875 
	C2317.528809,2205.108398 2317.442871,2202.647705 2313.230469,2196.637207 
	C2311.128418,2193.637939 2308.843994,2190.764160 2306.590820,2187.873291 
	C2238.907227,2101.039062 2160.455078,2025.483398 2069.901123,1962.733398 
	C2005.160400,1917.871094 1935.837280,1882.018799 1860.344604,1858.827148 
	C1768.951416,1830.750854 1676.233521,1823.890381 1581.909424,1841.604492 
	C1520.066406,1853.218750 1460.625000,1872.389038 1402.922729,1897.115723 
	C1284.559937,1947.836914 1176.328735,2015.406982 1075.352661,2094.954834 
	C1072.289307,2097.368164 1069.170166,2099.710449 1066.218018,2101.977783 
	C1065.115601,2100.991455 1064.513306,2100.643555 1064.186157,2100.123047 
	C1063.301636,2098.714355 1062.529907,2097.234619 1061.720215,2095.779297 
	C1034.315308,2046.524048 1000.452271,2002.164917 960.380066,1962.562378 
	C914.099731,1916.824463 861.637451,1880.374878 800.518372,1857.137695 
	C767.342590,1844.524536 733.147339,1836.090210 697.667236,1833.598633 
	C684.882019,1832.700928 681.558899,1837.973755 687.132080,1851.484497 
M1083.972778,1457.145264 
	C1078.577881,1453.237549 1073.057129,1449.490723 1067.816528,1445.385986 
	C1059.112427,1438.568481 1057.955200,1438.803833 1049.225708,1446.131958 
	C1035.711426,1457.476807 1022.464661,1469.288818 1008.028809,1479.360962 
	C950.557922,1519.459473 886.495850,1535.805176 816.855896,1529.529541 
	C774.632263,1525.724243 734.573059,1513.696411 696.545654,1494.900024 
	C685.681213,1489.530029 679.946350,1493.016724 679.864929,1505.032593 
	C679.724915,1525.698120 680.033203,1546.368652 679.698608,1567.029663 
	C679.595886,1573.373169 681.878906,1577.621826 686.637146,1581.522949 
	C702.401794,1594.447876 718.890503,1606.271484 736.882935,1615.905029 
	C791.919739,1645.372803 849.397583,1651.074707 909.071045,1632.921753 
	C959.518066,1617.575439 1002.439148,1589.521118 1040.520020,1553.589111 
	C1050.026855,1544.618896 1051.837280,1544.896118 1062.017822,1553.440186 
	C1076.550049,1565.636475 1090.903564,1578.244629 1106.562378,1588.864746 
	C1169.322876,1631.430664 1238.166992,1646.697998 1313.026367,1632.333252 
	C1376.981445,1620.060669 1432.845947,1590.831665 1483.270508,1550.400024 
	C1491.320190,1543.945679 1492.217163,1543.888062 1500.185791,1550.342041 
	C1538.344482,1581.246948 1580.341797,1605.350342 1626.967529,1621.007935 
	C1681.976074,1639.480591 1737.678223,1643.616211 1794.119629,1627.899048 
	C1839.988525,1615.125854 1879.470947,1590.971924 1914.905029,1559.688354 
	C1917.403198,1557.482666 1919.836060,1555.202515 1922.287598,1552.944336 
	C1931.227905,1544.708496 1933.689331,1544.690430 1942.184937,1552.810791 
	C1943.148682,1553.731934 1944.119141,1554.645996 1945.090454,1555.559082 
	C1969.519531,1578.520996 1996.484619,1597.941162 2026.271851,1613.357178 
	C2062.628662,1632.173584 2101.099854,1643.543335 2142.229980,1643.270874 
	C2202.782471,1642.869629 2253.861328,1618.220215 2298.909912,1579.440552 
	C2301.569824,1577.150879 2303.699463,1572.692871 2303.768066,1569.198486 
	C2304.200439,1547.207520 2303.789062,1525.201050 2304.077637,1503.205200 
	C2304.178711,1495.489502 2295.795410,1488.857300 2288.987793,1493.855957 
	C2287.667236,1494.825684 2286.018799,1495.348633 2284.520996,1496.076538 
	C2262.577148,1506.737915 2239.802246,1515.135742 2216.103027,1520.945923 
	C2146.382324,1538.039062 2078.627197,1533.711060 2013.513062,1501.930542 
	C1983.617065,1487.338989 1957.106567,1467.873779 1932.926636,1445.114136 
	C1926.259888,1438.838867 1923.868408,1439.025757 1916.659668,1444.507935 
	C1871.565430,1478.802612 1821.895386,1503.987549 1766.839844,1517.659668 
	C1688.248047,1537.176636 1613.962769,1527.257690 1545.843750,1482.010986 
	C1530.093262,1471.549072 1515.852417,1458.783081 1501.134888,1446.809570 
	C1493.277588,1440.417236 1489.877930,1440.212646 1482.189819,1447.010376 
	C1475.948853,1452.528687 1469.822021,1458.194702 1463.346436,1463.426147 
	C1393.920410,1519.511230 1315.505981,1538.625610 1228.098999,1520.251221 
	C1176.180420,1509.337036 1129.121704,1487.190796 1083.972778,1457.145264 
M813.414062,1391.831299 
	C841.511230,1395.719360 869.273438,1393.741821 896.689087,1386.769287 
	C952.725037,1372.517578 999.922668,1342.759521 1041.172607,1303.102661 
	C1047.775146,1296.755127 1054.184082,1296.583130 1060.797119,1302.587769 
	C1073.355347,1313.990356 1086.325439,1325.114136 1100.132935,1334.935913 
	C1165.644897,1381.536377 1237.922974,1398.297241 1317.126099,1382.110107 
	C1379.161987,1369.431519 1433.469116,1340.659424 1482.602783,1301.424805 
	C1491.923462,1293.982056 1491.755249,1293.955933 1500.996216,1301.412964 
	C1541.878540,1334.403687 1586.994873,1359.639404 1637.406128,1374.862061 
	C1698.648926,1393.355591 1759.516113,1393.325317 1819.634399,1369.871826 
	C1858.355591,1354.765747 1891.940918,1331.655029 1922.186646,1303.415649 
	C1930.929199,1295.252930 1933.900024,1295.300659 1942.207886,1303.294189 
	C1963.684326,1323.957397 1987.301270,1341.778687 2013.141113,1356.635986 
	C2050.073730,1377.871338 2089.421143,1391.797729 2132.248779,1393.527954 
	C2196.716309,1396.132690 2250.962891,1371.038696 2299.060303,1330.128418 
	C2302.662842,1327.064331 2303.921143,1323.342896 2303.891113,1318.678711 
	C2303.755371,1297.681152 2303.928955,1276.681519 2303.797852,1255.683960 
	C2303.723145,1243.722290 2297.855469,1240.061401 2287.262939,1245.276611 
	C2267.487549,1255.012817 2247.044434,1262.979004 2225.815674,1268.915039 
	C2161.334717,1286.945190 2097.508789,1286.492432 2034.636353,1261.831177 
	C1996.583740,1246.905151 1963.504395,1224.224976 1933.772339,1196.412109 
	C1926.500732,1189.610107 1923.797119,1189.586426 1916.680542,1194.971558 
	C1870.420166,1229.976318 1819.548340,1255.626221 1762.970093,1269.050171 
	C1677.022949,1289.442505 1598.406616,1273.520630 1527.867188,1219.890869 
	C1518.862549,1213.044922 1510.429321,1205.430664 1501.909058,1197.969360 
	C1493.195801,1190.339233 1490.366943,1190.274902 1481.530884,1198.069092 
	C1475.034058,1203.799927 1468.622314,1209.646729 1461.872559,1215.068237 
	C1410.722534,1256.153809 1352.669189,1278.285278 1286.693848,1277.559692 
	C1247.999634,1277.134155 1210.688721,1268.852051 1174.635742,1254.971191 
	C1135.542114,1239.919556 1099.084595,1220.090698 1065.979614,1194.279541 
	C1060.437378,1189.958374 1057.109009,1189.974121 1051.857666,1194.434814 
	C1047.541382,1198.101074 1043.487183,1202.073730 1039.222656,1205.803101 
	C985.392395,1252.879028 923.291626,1279.842163 851.319885,1281.399780 
	C798.072937,1282.552246 747.662903,1269.893433 699.727417,1246.985840 
	C697.323914,1245.837158 695.004639,1244.468384 692.518860,1243.544556 
	C686.986755,1241.488647 681.570557,1244.241089 680.237305,1249.958008 
	C679.643494,1252.503784 679.841553,1255.255615 679.837769,1257.914185 
	C679.810364,1277.246094 680.117126,1296.584595 679.673828,1315.906372 
	C679.503784,1323.318481 681.999695,1328.257690 687.669617,1332.943848 
	C724.066284,1363.024780 764.490295,1384.392212 813.414062,1391.831299 
M738.440186,697.667358 
	C744.773193,698.442993 744.351929,694.078369 744.348877,689.962341 
	C744.332092,666.975586 744.352905,643.988770 744.308594,621.002075 
	C744.304932,619.096069 743.914368,617.190857 743.576416,614.135132 
	C724.698975,614.135132 706.232483,614.135132 686.834167,614.135132 
	C686.834167,495.446136 686.834167,377.969208 686.834167,260.221741 
	C645.352600,260.221741 604.855347,260.221741 564.640015,260.221741 
	C563.778564,261.598053 563.125366,262.388245 562.740479,263.292603 
	C514.122620,377.535980 465.504852,491.779358 417.017914,606.078247 
	C415.507324,609.639160 414.718353,613.773315 414.684570,617.649780 
	C414.475616,641.634155 414.552094,665.621338 414.620239,689.607361 
	C414.627441,692.138367 415.197021,694.667847 415.602509,697.991577 
	C473.135956,697.991577 529.972656,697.991577 587.816833,697.991577 
	C587.816833,710.104553 587.816833,721.348206 587.816833,732.591858 
	C587.816833,743.585510 587.816833,754.579224 587.816833,765.572876 
	C587.816833,776.899719 587.780151,788.226624 587.827209,799.553284 
	C587.873657,810.720093 587.612305,821.905762 588.007751,833.097046 
	C621.613525,833.097046 653.761292,833.097046 687.048035,833.097046 
	C687.048035,821.280640 687.048096,810.024841 687.048096,798.769104 
	C687.048096,787.775391 687.048096,776.781738 687.048096,765.788025 
	C687.048096,754.461182 686.921570,743.132568 687.083984,731.808044 
	C687.243896,720.656738 686.352295,709.442932 687.736694,697.676697 
	C704.639648,697.676697 720.583496,697.676697 738.440186,697.667358 
M367.060242,507.000488 
	C367.060242,424.798462 367.060242,342.596466 367.060242,259.669586 
	C338.686340,259.669586 311.723328,259.591919 284.762634,259.806915 
	C282.431641,259.825500 279.629333,261.261169 277.870728,262.915405 
	C264.390320,275.595764 248.900253,285.383545 232.715454,294.017944 
	C213.643158,304.192780 194.218201,313.706543 174.336487,323.816986 
	C174.336487,349.628906 174.336487,376.230316 174.336487,404.073425 
	C201.805038,394.234680 228.587402,384.641693 256.897217,374.501617 
	C256.897217,527.955322 256.897217,680.372681 256.897217,833.200134 
	C294.106262,833.200134 329.945892,833.200134 367.059998,833.200134 
	C367.059998,724.812256 367.059998,616.906372 367.060242,507.000488 
M1489.774780,667.039734 
	C1487.657593,650.927124 1485.540405,634.814575 1483.371094,618.305359 
	C1471.995239,618.305359 1461.208130,618.305359 1449.562744,618.305359 
	C1460.027588,691.450439 1470.381714,763.822266 1480.778320,836.491394 
	C1492.271484,836.491394 1502.779297,836.491394 1513.978027,836.491394 
	C1521.791382,790.348816 1529.533691,744.625977 1537.276123,698.903137 
	C1538.041870,698.943970 1538.807617,698.984802 1539.573242,699.025635 
	C1547.337891,744.726379 1555.102417,790.427185 1562.877563,836.190430 
	C1574.154907,836.190430 1584.574219,836.190430 1594.801636,836.190430 
	C1602.728027,795.906677 1626.009644,626.139038 1624.698364,618.130005 
	C1614.511597,618.130005 1604.296265,618.130005 1593.258789,618.130005 
	C1587.552979,662.587158 1581.894043,706.679810 1576.234985,750.772461 
	C1575.572144,750.766479 1574.909302,750.760437 1574.246460,750.754456 
	C1566.722290,706.597717 1559.198242,662.440979 1551.651489,618.151367 
	C1542.160034,618.151367 1533.615723,618.151367 1524.387939,618.151367 
	C1520.736328,640.485168 1517.431396,662.489990 1513.477539,684.377563 
	C1509.515503,706.309509 1507.028809,728.542236 1500.273804,750.051270 
	C1496.830688,722.971497 1493.387695,695.891785 1489.774780,667.039734 
M1856.971924,714.194458 
	C1861.499023,682.379944 1866.026001,650.565369 1870.644287,618.109619 
	C1859.019531,618.109619 1848.808960,618.109619 1837.528198,618.109619 
	C1834.692871,640.299377 1832.016602,662.362305 1829.020386,684.381653 
	C1826.030151,706.354675 1824.094727,728.500305 1818.383057,750.165222 
	C1810.919189,706.260315 1803.455444,662.355408 1795.980225,618.383179 
	C1786.422607,618.383179 1777.611938,618.383179 1768.778198,618.383179 
	C1760.884399,662.731140 1754.519043,706.621887 1746.491699,750.210327 
	C1745.850098,750.141541 1745.208618,750.072754 1744.567017,750.003967 
	C1738.959106,706.220520 1733.351318,662.437012 1727.614136,617.643555 
	C1718.799805,617.643555 1710.544434,617.588867 1702.290527,617.675964 
	C1699.716431,617.703064 1697.146240,618.113159 1693.870972,618.412170 
	C1704.305908,691.407593 1714.648560,763.756653 1725.048218,836.504272 
	C1736.493774,836.504272 1746.975220,836.504272 1758.244141,836.504272 
	C1766.115601,789.996399 1773.922485,743.870422 1781.729248,697.744446 
	C1791.855225,744.082581 1798.956909,790.539490 1807.466675,836.984314 
	C1818.921753,836.835388 1829.101929,837.681763 1839.571899,836.356689 
	C1845.333374,795.656067 1850.976318,755.792358 1856.971924,714.194458 
M1026.436035,618.033386 
	C1004.627136,617.554321 982.820740,617.213135 960.682983,618.151489 
	C960.682983,691.348694 960.682983,763.480347 960.682983,836.486694 
	C964.219727,836.684021 967.458191,837.008789 970.697815,837.020874 
	C985.675842,837.076843 1000.655334,837.158020 1015.631958,836.999451 
	C1023.273987,836.918640 1031.008423,837.004211 1038.531494,835.879578 
	C1059.289917,832.776306 1074.362061,821.894470 1081.075073,801.487671 
	C1086.724121,784.315125 1086.777588,766.760254 1081.899170,749.358948 
	C1078.376953,736.795288 1070.441040,727.783752 1058.435059,722.453735 
	C1056.262939,721.489380 1054.161377,720.365662 1050.739014,718.681641 
	C1066.688110,713.638489 1075.394409,703.354553 1077.099976,688.718445 
	C1078.390747,677.642944 1078.138428,666.099548 1076.573486,655.047424 
	C1074.279419,638.846252 1063.911011,628.185852 1048.637329,622.826904 
	C1042.109619,620.536682 1035.084473,619.664673 1026.436035,618.033386 
M2295.115234,806.137573 
	C2297.730713,816.081909 2300.346191,826.026245 2302.891602,835.703674 
	C2313.948730,837.951416 2335.992188,837.522095 2342.926270,834.872253 
	C2333.106201,799.803589 2323.270996,764.680359 2313.339355,729.213562 
	C2326.397705,723.051147 2333.729004,713.282776 2336.872314,700.226135 
	C2340.440186,685.406555 2340.846924,670.512878 2337.430176,655.673889 
	C2333.896729,640.329224 2324.928955,628.876953 2309.870850,623.978394 
	C2299.877441,620.727295 2289.190186,618.677612 2278.701416,618.090332 
	C2261.098633,617.104614 2243.406250,617.689697 2225.751709,617.684875 
	C2223.862793,617.684387 2221.973633,618.155273 2220.044434,618.412842 
	C2220.044434,691.365723 2220.044434,763.820862 2220.044434,836.218506 
	C2233.536133,836.218506 2246.330566,836.218506 2260.037598,836.218506 
	C2260.037598,802.878723 2260.037598,770.353088 2260.037598,737.999878 
	C2266.457764,737.999878 2271.888428,737.999878 2277.280029,737.999878 
	C2283.205078,760.794128 2288.897461,782.692688 2295.115234,806.137573 
M1318.420898,641.622742 
	C1311.474976,654.994934 1309.673706,669.427307 1309.667847,684.222595 
	C1309.656860,712.527039 1309.469360,740.833618 1309.778931,769.134644 
	C1309.872925,777.738220 1310.590210,786.488037 1312.356445,794.890320 
	C1316.864380,816.335510 1328.299316,832.116333 1350.816040,837.386780 
	C1362.907837,840.216980 1375.119385,840.473877 1387.506836,838.748352 
	C1412.771484,835.229126 1427.567017,820.509521 1433.092773,796.317017 
	C1435.148193,787.317200 1435.918213,777.870911 1436.042969,768.611694 
	C1436.415039,740.978271 1436.350342,713.334778 1436.071411,685.699219 
	C1435.987793,677.422058 1435.333984,669.021545 1433.740967,660.913330 
	C1429.171509,637.655151 1416.563232,621.393616 1392.128052,616.867859 
	C1378.612671,614.364624 1364.989014,614.385925 1351.468506,617.368042 
	C1337.449585,620.460022 1326.295776,627.564270 1318.420898,641.622742 
M1960.872437,826.143494 
	C1961.551270,829.375671 1962.229980,832.607849 1962.987549,836.214783 
	C1975.246094,836.214783 1987.271240,836.214783 2000.168457,836.214783 
	C1985.310913,762.937073 1970.651001,690.634521 1955.942383,618.092041 
	C1941.581177,618.092041 1928.024536,618.092041 1913.865723,618.092041 
	C1899.010742,690.921753 1884.099731,763.409363 1869.550781,836.529114 
	C1882.997803,836.529114 1894.896118,836.529114 1907.230347,836.529114 
	C1910.383423,819.594666 1913.459351,803.074036 1916.501831,786.732971 
	C1929.647461,786.732971 1941.537109,786.732971 1954.009521,786.732971 
	C1956.225220,799.596802 1958.369141,812.043335 1960.872437,826.143494 
M1195.688354,814.035461 
	C1195.904419,808.789978 1192.017578,809.407410 1188.810059,809.382385 
	C1178.155273,809.299133 1167.499512,809.344727 1156.844116,809.341858 
	C1152.635498,809.340698 1148.426880,809.341675 1143.715576,809.341675 
	C1143.715576,784.815063 1143.715576,761.713074 1143.715576,737.162231 
	C1157.355225,737.162231 1170.435669,737.162231 1184.116455,737.162231 
	C1183.501831,726.914124 1185.174194,718.055359 1182.854370,708.246155 
	C1169.633667,708.246155 1156.813110,708.246155 1143.214966,708.246155 
	C1143.210205,687.043335 1142.607910,666.960144 1143.650757,645.728149 
	C1161.100586,645.728149 1177.522217,645.728149 1193.933105,645.728149 
	C1193.933105,635.750671 1193.933105,626.972778 1193.933105,618.111572 
	C1163.330322,618.111572 1133.464844,618.111572 1103.102417,618.111572 
	C1103.102417,690.992981 1103.102417,763.380005 1103.102417,836.373901 
	C1134.098389,836.373901 1164.524780,836.373901 1195.709106,836.373901 
	C1195.709106,829.062866 1195.709106,822.443970 1195.688354,814.035461 
M1318.070190,259.346497 
	C1290.548828,259.360809 1263.026367,259.310211 1235.678467,259.378052 
	C1233.455444,281.942963 1234.438354,471.071472 1236.627197,477.979858 
	C1266.848389,477.979858 1297.029907,477.979858 1327.170532,477.979858 
	C1327.170532,468.819611 1327.170532,460.343628 1327.170532,451.318298 
	C1309.757690,450.219879 1292.883911,451.705719 1276.090210,450.436340 
	C1276.090210,426.051880 1276.090210,402.876556 1276.090210,378.697266 
	C1289.566040,378.697266 1302.434814,378.697266 1315.555176,378.697266 
	C1315.555176,368.872955 1315.555176,360.070190 1315.555176,350.203430 
	C1302.103394,350.203430 1289.272095,350.203430 1276.111450,350.203430 
	C1276.111450,329.023651 1276.111450,308.921021 1276.111450,287.679688 
	C1293.188843,287.679688 1309.643921,287.679688 1326.380737,287.679688 
	C1326.380737,277.745667 1326.380737,268.962219 1326.380737,259.763672 
	C1323.752808,259.596985 1321.806396,259.473541 1318.070190,259.346497 
M2204.642090,828.248047 
	C2204.523193,822.078003 2204.404297,815.907898 2204.270508,808.976318 
	C2186.471191,808.976318 2169.908936,808.976318 2152.785156,808.976318 
	C2152.785156,785.018494 2152.785156,761.876465 2152.785156,737.355957 
	C2166.270752,737.355957 2179.367188,737.355957 2192.734375,737.355957 
	C2192.734375,727.186829 2192.734375,718.406311 2192.734375,708.236938 
	C2178.983154,708.236938 2165.904541,708.236938 2153.035400,708.236938 
	C2151.174316,690.461304 2151.795654,653.416260 2154.221924,645.513611 
	C2170.385254,645.513611 2186.877686,645.513611 2203.203613,645.513611 
	C2203.203613,635.671387 2203.203613,626.891663 2203.203613,618.294189 
	C2172.538086,618.294189 2142.704346,618.294189 2112.658691,618.294189 
	C2112.658691,691.331604 2112.658691,763.713684 2112.658691,836.405029 
	C2143.474854,836.405029 2173.598145,836.405029 2204.193848,836.405029 
	C2204.370117,833.860535 2204.504150,831.922546 2204.642090,828.248047 
M1222.356689,269.336792 
	C1222.356689,266.383057 1222.356689,263.429352 1222.356689,259.923950 
	C1192.015503,259.923950 1162.503418,259.923950 1132.808350,259.923950 
	C1132.808350,332.900146 1132.808350,405.351410 1132.808350,478.166077 
	C1146.046997,478.166077 1158.618408,478.166077 1172.286987,478.166077 
	C1172.286987,445.223358 1172.286987,412.722321 1172.286987,378.887268 
	C1186.135376,378.887268 1198.911377,378.887268 1211.891602,378.887268 
	C1211.891602,368.958771 1211.891602,360.393341 1211.891602,350.504944 
	C1198.677368,350.504944 1185.894043,350.504944 1172.724609,350.504944 
	C1172.724609,329.014954 1172.724609,308.852661 1172.724609,287.383972 
	C1189.344604,287.383972 1205.478149,287.383972 1222.356934,287.383972 
	C1222.356934,281.120483 1222.356934,276.159515 1222.356689,269.336792 
M2067.693848,719.000061 
	C2067.693848,695.451233 2067.693848,671.902405 2067.693848,647.099365 
	C2079.991455,647.099365 2091.084473,647.099365 2102.362061,647.099365 
	C2102.362061,636.669556 2102.362061,627.524658 2102.362061,618.324585 
	C2064.837158,618.324585 2028.023560,618.324585 1990.970947,618.324585 
	C1990.970947,628.138489 1990.970947,637.258423 1990.970947,646.756653 
	C2003.233276,648.653625 2015.232788,646.073975 2027.577148,648.447388 
	C2027.577148,711.474487 2027.577148,773.686646 2027.577148,836.395996 
	C2041.194214,836.395996 2053.986572,836.395996 2067.693848,836.395996 
	C2067.693848,797.499451 2067.693848,759.249756 2067.693848,719.000061 
M1000.637756,349.001068 
	C1000.637756,319.441193 1000.637756,289.881317 1000.637756,259.953156 
	C986.720764,259.953156 973.888123,259.953156 961.010010,259.953156 
	C961.010010,332.966309 961.010010,405.395844 961.010010,478.092163 
	C991.910217,478.092163 1022.108887,478.092163 1052.847412,478.092163 
	C1052.847412,469.105560 1052.847412,460.655914 1052.847412,451.743317 
	C1035.354370,449.615540 1018.100220,452.438202 1000.637573,449.989014 
	C1000.637573,416.275146 1000.637573,383.638153 1000.637756,349.001068 
M1250.191284,661.000244 
	C1250.191284,646.805603 1250.191284,632.610962 1250.191284,617.889282 
	C1236.083008,617.579041 1223.327393,617.461853 1210.385498,617.885803 
	C1210.385498,691.421814 1210.385498,763.587402 1210.385498,835.663818 
	C1219.920288,837.718262 1294.317505,837.517700 1301.973511,835.494080 
	C1301.973511,827.021362 1301.973511,818.544800 1301.973511,809.374023 
	C1293.048340,809.374023 1284.764282,809.598755 1276.498047,809.311646 
	C1268.014648,809.016968 1259.386597,810.641541 1250.191284,807.989563 
	C1250.191284,759.451233 1250.191284,711.225647 1250.191284,661.000244 
M1067.395142,285.012146 
	C1067.395142,349.152863 1067.395142,413.293610 1067.395142,477.912170 
	C1080.904175,477.912170 1093.304932,477.912170 1105.875977,477.912170 
	C1105.875977,404.891327 1105.875977,332.553772 1105.875977,260.264465 
	C1092.725830,260.264465 1080.318848,260.264465 1067.395142,260.264465 
	C1067.395142,268.416504 1067.395142,275.718079 1067.395142,285.012146 
z"/>
<path fill="#FEFFFF" opacity="1.000000" stroke="none" 
	d="
M686.745361,1850.821899 
	C681.558899,1837.973755 684.882019,1832.700928 697.667236,1833.598633 
	C733.147339,1836.090210 767.342590,1844.524536 800.518372,1857.137695 
	C861.637451,1880.374878 914.099731,1916.824463 960.380066,1962.562378 
	C1000.452271,2002.164917 1034.315308,2046.524048 1061.720215,2095.779297 
	C1062.529907,2097.234619 1063.301636,2098.714355 1064.186157,2100.123047 
	C1064.513306,2100.643555 1065.115601,2100.991455 1066.218018,2101.977783 
	C1069.170166,2099.710449 1072.289307,2097.368164 1075.352661,2094.954834 
	C1176.328735,2015.406982 1284.559937,1947.836914 1402.922729,1897.115723 
	C1460.625000,1872.389038 1520.066406,1853.218750 1581.909424,1841.604492 
	C1676.233521,1823.890381 1768.951416,1830.750854 1860.344604,1858.827148 
	C1935.837280,1882.018799 2005.160400,1917.871094 2069.901123,1962.733398 
	C2160.455078,2025.483398 2238.907227,2101.039062 2306.590820,2187.873291 
	C2308.843994,2190.764160 2311.128418,2193.637939 2313.230469,2196.637207 
	C2317.442871,2202.647705 2317.528809,2205.108398 2313.301758,2211.046875 
	C2309.632568,2216.201904 2305.739502,2221.205078 2301.793701,2226.154541 
	C2222.122803,2326.084717 2129.443115,2411.453369 2019.505249,2477.312988 
	C1954.489624,2516.260986 1885.365234,2545.319336 1811.218994,2561.964844 
	C1720.415527,2582.350098 1630.065674,2579.851318 1540.014526,2557.204834 
	C1455.486450,2535.947754 1376.031738,2502.062256 1299.573486,2460.762451 
	C1219.042358,2417.262939 1143.010620,2366.927979 1071.552734,2309.709961 
	C1070.001221,2308.467773 1068.395630,2307.292969 1065.763306,2305.283936 
	C1063.827026,2308.548828 1062.016357,2311.519531 1060.283691,2314.535156 
	C1015.438232,2392.584961 957.560669,2458.731445 882.141907,2508.664795 
	C829.065247,2543.805420 770.947510,2565.713135 707.646362,2573.467041 
	C703.022156,2574.033691 698.334106,2574.537842 693.693665,2574.411865 
	C685.786072,2574.197266 681.792847,2567.774170 684.872620,2560.512939 
	C685.903503,2558.082520 687.577148,2555.927979 688.925842,2553.628906 
	C731.460144,2481.121338 765.004395,2404.856445 784.970032,2322.965576 
	C796.234375,2276.763916 802.091553,2229.916260 799.611267,2182.311279 
	C796.996033,2132.116699 786.569946,2083.341309 771.179321,2035.597778 
	C750.343323,1970.961426 721.932190,1909.758545 686.745361,1850.821899 
M1967.145508,2185.910889 
	C1968.062500,2183.767822 1969.070435,2181.658691 1969.883301,2179.476807 
	C1997.991821,2104.019531 1935.161011,2033.363892 1862.669189,2043.547974 
	C1810.076172,2050.936523 1772.707275,2096.820557 1776.088745,2150.756104 
	C1779.279785,2201.652588 1823.456177,2243.479248 1875.238403,2243.241943 
	C1916.529175,2243.052979 1946.917480,2223.632568 1967.145508,2185.910889 
z"/>
<path fill="#FDFEFF" opacity="1.000000" stroke="none" 
	d="
M1084.573975,1457.545898 
	C1129.121704,1487.190796 1176.180420,1509.337036 1228.098999,1520.251221 
	C1315.505981,1538.625610 1393.920410,1519.511230 1463.346436,1463.426147 
	C1469.822021,1458.194702 1475.948853,1452.528687 1482.189819,1447.010376 
	C1489.877930,1440.212646 1493.277588,1440.417236 1501.134888,1446.809570 
	C1515.852417,1458.783081 1530.093262,1471.549072 1545.843750,1482.010986 
	C1613.962769,1527.257690 1688.248047,1537.176636 1766.839844,1517.659668 
	C1821.895386,1503.987549 1871.565430,1478.802612 1916.659668,1444.507935 
	C1923.868408,1439.025757 1926.259888,1438.838867 1932.926636,1445.114136 
	C1957.106567,1467.873779 1983.617065,1487.338989 2013.513062,1501.930542 
	C2078.627197,1533.711060 2146.382324,1538.039062 2216.103027,1520.945923 
	C2239.802246,1515.135742 2262.577148,1506.737915 2284.520996,1496.076538 
	C2286.018799,1495.348633 2287.667236,1494.825684 2288.987793,1493.855957 
	C2295.795410,1488.857300 2304.178711,1495.489502 2304.077637,1503.205200 
	C2303.789062,1525.201050 2304.200439,1547.207520 2303.768066,1569.198486 
	C2303.699463,1572.692871 2301.569824,1577.150879 2298.909912,1579.440552 
	C2253.861328,1618.220215 2202.782471,1642.869629 2142.229980,1643.270874 
	C2101.099854,1643.543335 2062.628662,1632.173584 2026.271851,1613.357178 
	C1996.484619,1597.941162 1969.519531,1578.520996 1945.090454,1555.559082 
	C1944.119141,1554.645996 1943.148682,1553.731934 1942.184937,1552.810791 
	C1933.689331,1544.690430 1931.227905,1544.708496 1922.287598,1552.944336 
	C1919.836060,1555.202515 1917.403198,1557.482666 1914.905029,1559.688354 
	C1879.470947,1590.971924 1839.988525,1615.125854 1794.119629,1627.899048 
	C1737.678223,1643.616211 1681.976074,1639.480591 1626.967529,1621.007935 
	C1580.341797,1605.350342 1538.344482,1581.246948 1500.185791,1550.342041 
	C1492.217163,1543.888062 1491.320190,1543.945679 1483.270508,1550.400024 
	C1432.845947,1590.831665 1376.981445,1620.060669 1313.026367,1632.333252 
	C1238.166992,1646.697998 1169.322876,1631.430664 1106.562378,1588.864746 
	C1090.903564,1578.244629 1076.550049,1565.636475 1062.017822,1553.440186 
	C1051.837280,1544.896118 1050.026855,1544.618896 1040.520020,1553.589111 
	C1002.439148,1589.521118 959.518066,1617.575439 909.071045,1632.921753 
	C849.397583,1651.074707 791.919739,1645.372803 736.882935,1615.905029 
	C718.890503,1606.271484 702.401794,1594.447876 686.637146,1581.522949 
	C681.878906,1577.621826 679.595886,1573.373169 679.698608,1567.029663 
	C680.033203,1546.368652 679.724915,1525.698120 679.864929,1505.032593 
	C679.946350,1493.016724 685.681213,1489.530029 696.545654,1494.900024 
	C734.573059,1513.696411 774.632263,1525.724243 816.855896,1529.529541 
	C886.495850,1535.805176 950.557922,1519.459473 1008.028809,1479.360962 
	C1022.464661,1469.288818 1035.711426,1457.476807 1049.225708,1446.131958 
	C1057.955200,1438.803833 1059.112427,1438.568481 1067.816528,1445.385986 
	C1073.057129,1449.490723 1078.577881,1453.237549 1084.573975,1457.545898 
z"/>
<path fill="#FDFEFF" opacity="1.000000" stroke="none" 
	d="
M812.532776,1391.735107 
	C764.490295,1384.392212 724.066284,1363.024780 687.669617,1332.943848 
	C681.999695,1328.257690 679.503784,1323.318481 679.673828,1315.906372 
	C680.117126,1296.584595 679.810364,1277.246094 679.837769,1257.914185 
	C679.841553,1255.255615 679.643494,1252.503784 680.237305,1249.958008 
	C681.570557,1244.241089 686.986755,1241.488647 692.518860,1243.544556 
	C695.004639,1244.468384 697.323914,1245.837158 699.727417,1246.985840 
	C747.662903,1269.893433 798.072937,1282.552246 851.319885,1281.399780 
	C923.291626,1279.842163 985.392395,1252.879028 1039.222656,1205.803101 
	C1043.487183,1202.073730 1047.541382,1198.101074 1051.857666,1194.434814 
	C1057.109009,1189.974121 1060.437378,1189.958374 1065.979614,1194.279541 
	C1099.084595,1220.090698 1135.542114,1239.919556 1174.635742,1254.971191 
	C1210.688721,1268.852051 1247.999634,1277.134155 1286.693848,1277.559692 
	C1352.669189,1278.285278 1410.722534,1256.153809 1461.872559,1215.068237 
	C1468.622314,1209.646729 1475.034058,1203.799927 1481.530884,1198.069092 
	C1490.366943,1190.274902 1493.195801,1190.339233 1501.909058,1197.969360 
	C1510.429321,1205.430664 1518.862549,1213.044922 1527.867188,1219.890869 
	C1598.406616,1273.520630 1677.022949,1289.442505 1762.970093,1269.050171 
	C1819.548340,1255.626221 1870.420166,1229.976318 1916.680542,1194.971558 
	C1923.797119,1189.586426 1926.500732,1189.610107 1933.772339,1196.412109 
	C1963.504395,1224.224976 1996.583740,1246.905151 2034.636353,1261.831177 
	C2097.508789,1286.492432 2161.334717,1286.945190 2225.815674,1268.915039 
	C2247.044434,1262.979004 2267.487549,1255.012817 2287.262939,1245.276611 
	C2297.855469,1240.061401 2303.723145,1243.722290 2303.797852,1255.683960 
	C2303.928955,1276.681519 2303.755371,1297.681152 2303.891113,1318.678711 
	C2303.921143,1323.342896 2302.662842,1327.064331 2299.060303,1330.128418 
	C2250.962891,1371.038696 2196.716309,1396.132690 2132.248779,1393.527954 
	C2089.421143,1391.797729 2050.073730,1377.871338 2013.141113,1356.635986 
	C1987.301270,1341.778687 1963.684326,1323.957397 1942.207886,1303.294189 
	C1933.900024,1295.300659 1930.929199,1295.252930 1922.186646,1303.415649 
	C1891.940918,1331.655029 1858.355591,1354.765747 1819.634399,1369.871826 
	C1759.516113,1393.325317 1698.648926,1393.355591 1637.406128,1374.862061 
	C1586.994873,1359.639404 1541.878540,1334.403687 1500.996216,1301.412964 
	C1491.755249,1293.955933 1491.923462,1293.982056 1482.602783,1301.424805 
	C1433.469116,1340.659424 1379.161987,1369.431519 1317.126099,1382.110107 
	C1237.922974,1398.297241 1165.644897,1381.536377 1100.132935,1334.935913 
	C1086.325439,1325.114136 1073.355347,1313.990356 1060.797119,1302.587769 
	C1054.184082,1296.583130 1047.775146,1296.755127 1041.172607,1303.102661 
	C999.922668,1342.759521 952.725037,1372.517578 896.689087,1386.769287 
	C869.273438,1393.741821 841.511230,1395.719360 812.532776,1391.735107 
z"/>
<path fill="#FDFEFF" opacity="1.000000" stroke="none" 
	d="
M737.483765,697.671997 
	C720.583496,697.676697 704.639648,697.676697 687.736694,697.676697 
	C686.352295,709.442932 687.243896,720.656738 687.083984,731.808044 
	C686.921570,743.132568 687.048096,754.461182 687.048096,765.788025 
	C687.048096,776.781738 687.048096,787.775391 687.048096,798.769104 
	C687.048096,810.024841 687.048035,821.280640 687.048035,833.097046 
	C653.761292,833.097046 621.613525,833.097046 588.007751,833.097046 
	C587.612305,821.905762 587.873657,810.720093 587.827209,799.553284 
	C587.780151,788.226624 587.816833,776.899719 587.816833,765.572876 
	C587.816833,754.579224 587.816833,743.585510 587.816833,732.591858 
	C587.816833,721.348206 587.816833,710.104553 587.816833,697.991577 
	C529.972656,697.991577 473.135956,697.991577 415.602509,697.991577 
	C415.197021,694.667847 414.627441,692.138367 414.620239,689.607361 
	C414.552094,665.621338 414.475616,641.634155 414.684570,617.649780 
	C414.718353,613.773315 415.507324,609.639160 417.017914,606.078247 
	C465.504852,491.779358 514.122620,377.535980 562.740479,263.292603 
	C563.125366,262.388245 563.778564,261.598053 564.640015,260.221741 
	C604.855347,260.221741 645.352600,260.221741 686.834167,260.221741 
	C686.834167,377.969208 686.834167,495.446136 686.834167,614.135132 
	C706.232483,614.135132 724.698975,614.135132 743.576416,614.135132 
	C743.914368,617.190857 744.304932,619.096069 744.308594,621.002075 
	C744.352905,643.988770 744.332092,666.975586 744.348877,689.962341 
	C744.351929,694.078369 744.773193,698.442993 737.483765,697.671997 
M551.129028,474.095154 
	C534.583557,520.372375 518.038086,566.649597 501.192780,613.765381 
	C530.582581,613.765381 558.672241,613.765381 587.299072,613.765381 
	C587.299072,534.616760 587.299072,456.043671 587.299072,377.470612 
	C586.802185,377.353516 586.305359,377.236450 585.808472,377.119354 
	C574.430054,408.955048 563.051636,440.790741 551.129028,474.095154 
z"/>
<path fill="#FBFDFF" opacity="1.000000" stroke="none" 
	d="
M367.060120,508.000519 
	C367.059998,616.906372 367.059998,724.812256 367.059998,833.200134 
	C329.945892,833.200134 294.106262,833.200134 256.897217,833.200134 
	C256.897217,680.372681 256.897217,527.955322 256.897217,374.501617 
	C228.587402,384.641693 201.805038,394.234680 174.336487,404.073425 
	C174.336487,376.230316 174.336487,349.628906 174.336487,323.816986 
	C194.218201,313.706543 213.643158,304.192780 232.715454,294.017944 
	C248.900253,285.383545 264.390320,275.595764 277.870728,262.915405 
	C279.629333,261.261169 282.431641,259.825500 284.762634,259.806915 
	C311.723328,259.591919 338.686340,259.669586 367.060242,259.669586 
	C367.060242,342.596466 367.060242,424.798462 367.060120,508.000519 
z"/>
<path fill="#FAFDFF" opacity="1.000000" stroke="none" 
	d="
M1489.859619,667.925903 
	C1493.387695,695.891785 1496.830688,722.971497 1500.273804,750.051270 
	C1507.028809,728.542236 1509.515503,706.309509 1513.477539,684.377563 
	C1517.431396,662.489990 1520.736328,640.485168 1524.387939,618.151367 
	C1533.615723,618.151367 1542.160034,618.151367 1551.651489,618.151367 
	C1559.198242,662.440979 1566.722290,706.597717 1574.246460,750.754456 
	C1574.909302,750.760437 1575.572144,750.766479 1576.234985,750.772461 
	C1581.894043,706.679810 1587.552979,662.587158 1593.258789,618.130005 
	C1604.296265,618.130005 1614.511597,618.130005 1624.698364,618.130005 
	C1626.009644,626.139038 1602.728027,795.906677 1594.801636,836.190430 
	C1584.574219,836.190430 1574.154907,836.190430 1562.877563,836.190430 
	C1555.102417,790.427185 1547.337891,744.726379 1539.573242,699.025635 
	C1538.807617,698.984802 1538.041870,698.943970 1537.276123,698.903137 
	C1529.533691,744.625977 1521.791382,790.348816 1513.978027,836.491394 
	C1502.779297,836.491394 1492.271484,836.491394 1480.778320,836.491394 
	C1470.381714,763.822266 1460.027588,691.450439 1449.562744,618.305359 
	C1461.208130,618.305359 1471.995239,618.305359 1483.371094,618.305359 
	C1485.540405,634.814575 1487.657593,650.927124 1489.859619,667.925903 
z"/>
<path fill="#FAFDFF" opacity="1.000000" stroke="none" 
	d="
M1856.795654,715.061584 
	C1850.976318,755.792358 1845.333374,795.656067 1839.571899,836.356689 
	C1829.101929,837.681763 1818.921753,836.835388 1807.466675,836.984314 
	C1798.956909,790.539490 1791.855225,744.082581 1781.729248,697.744446 
	C1773.922485,743.870422 1766.115601,789.996399 1758.244141,836.504272 
	C1746.975220,836.504272 1736.493774,836.504272 1725.048218,836.504272 
	C1714.648560,763.756653 1704.305908,691.407593 1693.870972,618.412170 
	C1697.146240,618.113159 1699.716431,617.703064 1702.290527,617.675964 
	C1710.544434,617.588867 1718.799805,617.643555 1727.614136,617.643555 
	C1733.351318,662.437012 1738.959106,706.220520 1744.567017,750.003967 
	C1745.208618,750.072754 1745.850098,750.141541 1746.491699,750.210327 
	C1754.519043,706.621887 1760.884399,662.731140 1768.778198,618.383179 
	C1777.611938,618.383179 1786.422607,618.383179 1795.980225,618.383179 
	C1803.455444,662.355408 1810.919189,706.260315 1818.383057,750.165222 
	C1824.094727,728.500305 1826.030151,706.354675 1829.020386,684.381653 
	C1832.016602,662.362305 1834.692871,640.299377 1837.528198,618.109619 
	C1848.808960,618.109619 1859.019531,618.109619 1870.644287,618.109619 
	C1866.026001,650.565369 1861.499023,682.379944 1856.795654,715.061584 
z"/>
<path fill="#FAFDFF" opacity="1.000000" stroke="none" 
	d="
M1027.360596,618.090820 
	C1035.084473,619.664673 1042.109619,620.536682 1048.637329,622.826904 
	C1063.911011,628.185852 1074.279419,638.846252 1076.573486,655.047424 
	C1078.138428,666.099548 1078.390747,677.642944 1077.099976,688.718445 
	C1075.394409,703.354553 1066.688110,713.638489 1050.739014,718.681641 
	C1054.161377,720.365662 1056.262939,721.489380 1058.435059,722.453735 
	C1070.441040,727.783752 1078.376953,736.795288 1081.899170,749.358948 
	C1086.777588,766.760254 1086.724121,784.315125 1081.075073,801.487671 
	C1074.362061,821.894470 1059.289917,832.776306 1038.531494,835.879578 
	C1031.008423,837.004211 1023.273987,836.918640 1015.631958,836.999451 
	C1000.655334,837.158020 985.675842,837.076843 970.697815,837.020874 
	C967.458191,837.008789 964.219727,836.684021 960.682983,836.486694 
	C960.682983,763.480347 960.682983,691.348694 960.682983,618.151489 
	C982.820740,617.213135 1004.627136,617.554321 1027.360596,618.090820 
M1011.093628,735.656555 
	C1007.889160,735.830139 1004.684631,736.003723 1001.180542,736.193604 
	C1001.180542,760.512268 1001.180542,783.983521 1001.180542,808.858765 
	C1010.329895,808.378784 1018.972778,808.627136 1027.364136,807.293335 
	C1036.266968,805.878296 1042.046509,800.022583 1044.405518,791.068115 
	C1047.346802,779.903381 1047.451904,768.611450 1045.011475,757.464905 
	C1042.005127,743.734192 1034.020752,737.216858 1019.909607,735.888367 
	C1017.595459,735.670532 1015.255432,735.727600 1011.093628,735.656555 
M1010.958618,707.046570 
	C1015.599121,706.654114 1020.293945,706.580139 1024.868286,705.799500 
	C1033.094360,704.395691 1038.923096,699.672913 1041.305298,691.581360 
	C1044.066162,682.203430 1044.697754,672.682312 1042.508179,662.970642 
	C1040.783081,655.319580 1036.197144,650.633728 1028.998901,648.392883 
	C1020.022705,645.598572 1010.870117,645.227051 1001.112305,646.771667 
	C1001.112305,666.716980 1001.112305,686.194519 1001.112305,706.238159 
	C1004.119568,706.537048 1006.687439,706.792297 1010.958618,707.046570 
z"/>
<path fill="#FBFDFF" opacity="1.000000" stroke="none" 
	d="
M2294.852539,805.364380 
	C2288.897461,782.692688 2283.205078,760.794128 2277.280029,737.999878 
	C2271.888428,737.999878 2266.457764,737.999878 2260.037598,737.999878 
	C2260.037598,770.353088 2260.037598,802.878723 2260.037598,836.218506 
	C2246.330566,836.218506 2233.536133,836.218506 2220.044434,836.218506 
	C2220.044434,763.820862 2220.044434,691.365723 2220.044434,618.412842 
	C2221.973633,618.155273 2223.862793,617.684387 2225.751709,617.684875 
	C2243.406250,617.689697 2261.098633,617.104614 2278.701416,618.090332 
	C2289.190186,618.677612 2299.877441,620.727295 2309.870850,623.978394 
	C2324.928955,628.876953 2333.896729,640.329224 2337.430176,655.673889 
	C2340.846924,670.512878 2340.440186,685.406555 2336.872314,700.226135 
	C2333.729004,713.282776 2326.397705,723.051147 2313.339355,729.213562 
	C2323.270996,764.680359 2333.106201,799.803589 2342.926270,834.872253 
	C2335.992188,837.522095 2313.948730,837.951416 2302.891602,835.703674 
	C2300.346191,826.026245 2297.730713,816.081909 2294.852539,805.364380 
M2296.264648,700.932129 
	C2303.396240,687.819702 2302.981445,674.113342 2299.075195,660.302979 
	C2296.876953,652.530640 2291.068115,647.867126 2283.353027,646.673767 
	C2275.946045,645.528198 2268.339355,645.677063 2260.396484,645.233459 
	C2260.396484,667.842346 2260.396484,689.210327 2260.396484,711.239502 
	C2273.393555,711.233582 2285.766846,712.316284 2296.264648,700.932129 
z"/>
<path fill="#FDFEFF" opacity="1.000000" stroke="none" 
	d="
M1318.799805,640.985107 
	C1326.295776,627.564270 1337.449585,620.460022 1351.468506,617.368042 
	C1364.989014,614.385925 1378.612671,614.364624 1392.128052,616.867859 
	C1416.563232,621.393616 1429.171509,637.655151 1433.740967,660.913330 
	C1435.333984,669.021545 1435.987793,677.422058 1436.071411,685.699219 
	C1436.350342,713.334778 1436.415039,740.978271 1436.042969,768.611694 
	C1435.918213,777.870911 1435.148193,787.317200 1433.092773,796.317017 
	C1427.567017,820.509521 1412.771484,835.229126 1387.506836,838.748352 
	C1375.119385,840.473877 1362.907837,840.216980 1350.816040,837.386780 
	C1328.299316,832.116333 1316.864380,816.335510 1312.356445,794.890320 
	C1310.590210,786.488037 1309.872925,777.738220 1309.778931,769.134644 
	C1309.469360,740.833618 1309.656860,712.527039 1309.667847,684.222595 
	C1309.673706,669.427307 1311.474976,654.994934 1318.799805,640.985107 
M1355.938354,802.849854 
	C1363.180542,810.699768 1372.104126,811.349060 1381.576538,808.416748 
	C1390.973755,805.507751 1393.533691,797.653564 1394.555298,788.999207 
	C1394.983032,785.376709 1395.380127,781.723022 1395.386841,778.082764 
	C1395.449707,744.166748 1395.471191,710.250366 1395.370239,676.334534 
	C1395.356445,671.705872 1394.957520,667.014587 1394.123779,662.464600 
	C1391.865356,650.141296 1385.001587,644.601685 1372.692505,644.686523 
	C1360.581665,644.769958 1354.297485,649.778992 1351.792358,661.813477 
	C1350.917847,666.014221 1350.388794,670.367920 1350.375122,674.653931 
	C1350.264038,709.567261 1350.045776,744.484802 1350.526733,779.391907 
	C1350.628906,786.811523 1353.456421,794.193665 1355.938354,802.849854 
z"/>
<path fill="#FAFDFF" opacity="1.000000" stroke="none" 
	d="
M1960.692749,825.316650 
	C1958.369141,812.043335 1956.225220,799.596802 1954.009521,786.732971 
	C1941.537109,786.732971 1929.647461,786.732971 1916.501831,786.732971 
	C1913.459351,803.074036 1910.383423,819.594666 1907.230347,836.529114 
	C1894.896118,836.529114 1882.997803,836.529114 1869.550781,836.529114 
	C1884.099731,763.409363 1899.010742,690.921753 1913.865723,618.092041 
	C1928.024536,618.092041 1941.581177,618.092041 1955.942383,618.092041 
	C1970.651001,690.634521 1985.310913,762.937073 2000.168457,836.214783 
	C1987.271240,836.214783 1975.246094,836.214783 1962.987549,836.214783 
	C1962.229980,832.607849 1961.551270,829.375671 1960.692749,825.316650 
M1922.228882,748.897644 
	C1921.943115,752.385437 1921.657471,755.873291 1921.375488,759.316650 
	C1931.204102,759.316650 1940.000732,759.316650 1949.513062,759.316650 
	C1944.893921,731.122131 1940.407959,703.740540 1935.921997,676.358887 
	C1935.371948,676.382446 1934.821777,676.405945 1934.271606,676.429504 
	C1930.340576,700.030212 1926.409424,723.630981 1922.228882,748.897644 
z"/>
<path fill="#F6FBFF" opacity="1.000000" stroke="none" 
	d="
M1195.698730,814.930298 
	C1195.709106,822.443970 1195.709106,829.062866 1195.709106,836.373901 
	C1164.524780,836.373901 1134.098389,836.373901 1103.102417,836.373901 
	C1103.102417,763.380005 1103.102417,690.992981 1103.102417,618.111572 
	C1133.464844,618.111572 1163.330322,618.111572 1193.933105,618.111572 
	C1193.933105,626.972778 1193.933105,635.750671 1193.933105,645.728149 
	C1177.522217,645.728149 1161.100586,645.728149 1143.650757,645.728149 
	C1142.607910,666.960144 1143.210205,687.043335 1143.214966,708.246155 
	C1156.813110,708.246155 1169.633667,708.246155 1182.854370,708.246155 
	C1185.174194,718.055359 1183.501831,726.914124 1184.116455,737.162231 
	C1170.435669,737.162231 1157.355225,737.162231 1143.715576,737.162231 
	C1143.715576,761.713074 1143.715576,784.815063 1143.715576,809.341675 
	C1148.426880,809.341675 1152.635498,809.340698 1156.844116,809.341858 
	C1167.499512,809.344727 1178.155273,809.299133 1188.810059,809.382385 
	C1192.017578,809.407410 1195.904419,808.789978 1195.698730,814.930298 
z"/>
<path fill="#F7FCFF" opacity="1.000000" stroke="none" 
	d="
M1318.965088,259.348267 
	C1321.806396,259.473541 1323.752808,259.596985 1326.380737,259.763672 
	C1326.380737,268.962219 1326.380737,277.745667 1326.380737,287.679688 
	C1309.643921,287.679688 1293.188843,287.679688 1276.111450,287.679688 
	C1276.111450,308.921021 1276.111450,329.023651 1276.111450,350.203430 
	C1289.272095,350.203430 1302.103394,350.203430 1315.555176,350.203430 
	C1315.555176,360.070190 1315.555176,368.872955 1315.555176,378.697266 
	C1302.434814,378.697266 1289.566040,378.697266 1276.090210,378.697266 
	C1276.090210,402.876556 1276.090210,426.051880 1276.090210,450.436340 
	C1292.883911,451.705719 1309.757690,450.219879 1327.170532,451.318298 
	C1327.170532,460.343628 1327.170532,468.819611 1327.170532,477.979858 
	C1297.029907,477.979858 1266.848389,477.979858 1236.627197,477.979858 
	C1234.438354,471.071472 1233.455444,281.942963 1235.678467,259.378052 
	C1263.026367,259.310211 1290.548828,259.360809 1318.965088,259.348267 
z"/>
<path fill="#FAFDFF" opacity="1.000000" stroke="none" 
	d="
M2204.640137,829.116272 
	C2204.504150,831.922546 2204.370117,833.860535 2204.193848,836.405029 
	C2173.598145,836.405029 2143.474854,836.405029 2112.658691,836.405029 
	C2112.658691,763.713684 2112.658691,691.331604 2112.658691,618.294189 
	C2142.704346,618.294189 2172.538086,618.294189 2203.203613,618.294189 
	C2203.203613,626.891663 2203.203613,635.671387 2203.203613,645.513611 
	C2186.877686,645.513611 2170.385254,645.513611 2154.221924,645.513611 
	C2151.795654,653.416260 2151.174316,690.461304 2153.035400,708.236938 
	C2165.904541,708.236938 2178.983154,708.236938 2192.734375,708.236938 
	C2192.734375,718.406311 2192.734375,727.186829 2192.734375,737.355957 
	C2179.367188,737.355957 2166.270752,737.355957 2152.785156,737.355957 
	C2152.785156,761.876465 2152.785156,785.018494 2152.785156,808.976318 
	C2169.908936,808.976318 2186.471191,808.976318 2204.270508,808.976318 
	C2204.404297,815.907898 2204.523193,822.078003 2204.640137,829.116272 
z"/>
<path fill="#FAFDFF" opacity="1.000000" stroke="none" 
	d="
M1222.356812,270.267700 
	C1222.356934,276.159515 1222.356934,281.120483 1222.356934,287.383972 
	C1205.478149,287.383972 1189.344604,287.383972 1172.724609,287.383972 
	C1172.724609,308.852661 1172.724609,329.014954 1172.724609,350.504944 
	C1185.894043,350.504944 1198.677368,350.504944 1211.891602,350.504944 
	C1211.891602,360.393341 1211.891602,368.958771 1211.891602,378.887268 
	C1198.911377,378.887268 1186.135376,378.887268 1172.286987,378.887268 
	C1172.286987,412.722321 1172.286987,445.223358 1172.286987,478.166077 
	C1158.618408,478.166077 1146.046997,478.166077 1132.808350,478.166077 
	C1132.808350,405.351410 1132.808350,332.900146 1132.808350,259.923950 
	C1162.503418,259.923950 1192.015503,259.923950 1222.356689,259.923950 
	C1222.356689,263.429352 1222.356689,266.383057 1222.356812,270.267700 
z"/>
<path fill="#FAFDFF" opacity="1.000000" stroke="none" 
	d="
M2067.693848,720.000122 
	C2067.693848,759.249756 2067.693848,797.499451 2067.693848,836.395996 
	C2053.986572,836.395996 2041.194214,836.395996 2027.577148,836.395996 
	C2027.577148,773.686646 2027.577148,711.474487 2027.577148,648.447388 
	C2015.232788,646.073975 2003.233276,648.653625 1990.970947,646.756653 
	C1990.970947,637.258423 1990.970947,628.138489 1990.970947,618.324585 
	C2028.023560,618.324585 2064.837158,618.324585 2102.362061,618.324585 
	C2102.362061,627.524658 2102.362061,636.669556 2102.362061,647.099365 
	C2091.084473,647.099365 2079.991455,647.099365 2067.693848,647.099365 
	C2067.693848,671.902405 2067.693848,695.451233 2067.693848,720.000122 
z"/>
<path fill="#FBFDFF" opacity="1.000000" stroke="none" 
	d="
M1000.637695,350.001099 
	C1000.637573,383.638153 1000.637573,416.275146 1000.637573,449.989014 
	C1018.100220,452.438202 1035.354370,449.615540 1052.847412,451.743317 
	C1052.847412,460.655914 1052.847412,469.105560 1052.847412,478.092163 
	C1022.108887,478.092163 991.910217,478.092163 961.010010,478.092163 
	C961.010010,405.395844 961.010010,332.966309 961.010010,259.953156 
	C973.888123,259.953156 986.720764,259.953156 1000.637756,259.953156 
	C1000.637756,289.881317 1000.637756,319.441193 1000.637695,350.001099 
z"/>
<path fill="#FBFDFF" opacity="1.000000" stroke="none" 
	d="
M1250.191284,662.000122 
	C1250.191284,711.225647 1250.191284,759.451233 1250.191284,807.989563 
	C1259.386597,810.641541 1268.014648,809.016968 1276.498047,809.311646 
	C1284.764282,809.598755 1293.048340,809.374023 1301.973511,809.374023 
	C1301.973511,818.544800 1301.973511,827.021362 1301.973511,835.494080 
	C1294.317505,837.517700 1219.920288,837.718262 1210.385498,835.663818 
	C1210.385498,763.587402 1210.385498,691.421814 1210.385498,617.885803 
	C1223.327393,617.461853 1236.083008,617.579041 1250.191284,617.889282 
	C1250.191284,632.610962 1250.191284,646.805603 1250.191284,662.000122 
z"/>
<path fill="#FEFFFF" opacity="1.000000" stroke="none" 
	d="
M1067.395142,284.015900 
	C1067.395142,275.718079 1067.395142,268.416504 1067.395142,260.264465 
	C1080.318848,260.264465 1092.725830,260.264465 1105.875977,260.264465 
	C1105.875977,332.553772 1105.875977,404.891327 1105.875977,477.912170 
	C1093.304932,477.912170 1080.904175,477.912170 1067.395142,477.912170 
	C1067.395142,413.293610 1067.395142,349.152863 1067.395142,284.015900 
z"/>
<path fill="#0C98F1" opacity="1.000000" stroke="none" 
	d="
M1966.792603,2186.579102 
	C1946.917480,2223.632568 1916.529175,2243.052979 1875.238403,2243.241943 
	C1823.456177,2243.479248 1779.279785,2201.652588 1776.088745,2150.756104 
	C1772.707275,2096.820557 1810.076172,2050.936523 1862.669189,2043.547974 
	C1935.161011,2033.363892 1997.991821,2104.019531 1969.883301,2179.476807 
	C1969.070435,2181.658691 1968.062500,2183.767822 1966.792603,2186.579102 
z"/>
<path fill="#0F99F1" opacity="1.000000" stroke="none" 
	d="
M551.401123,473.360779 
	C563.051636,440.790741 574.430054,408.955048 585.808472,377.119354 
	C586.305359,377.236450 586.802185,377.353516 587.299072,377.470612 
	C587.299072,456.043671 587.299072,534.616760 587.299072,613.765381 
	C558.672241,613.765381 530.582581,613.765381 501.192780,613.765381 
	C518.038086,566.649597 534.583557,520.372375 551.401123,473.360779 
z"/>
<path fill="#129AF1" opacity="1.000000" stroke="none" 
	d="
M1012.010498,735.657104 
	C1015.255432,735.727600 1017.595459,735.670532 1019.909607,735.888367 
	C1034.020752,737.216858 1042.005127,743.734192 1045.011475,757.464905 
	C1047.451904,768.611450 1047.346802,779.903381 1044.405518,791.068115 
	C1042.046509,800.022583 1036.266968,805.878296 1027.364136,807.293335 
	C1018.972778,808.627136 1010.329895,808.378784 1001.180542,808.858765 
	C1001.180542,783.983521 1001.180542,760.512268 1001.180542,736.193604 
	C1004.684631,736.003723 1007.889160,735.830139 1012.010498,735.657104 
z"/>
<path fill="#149BF2" opacity="1.000000" stroke="none" 
	d="
M1010.106934,707.046997 
	C1006.687439,706.792297 1004.119568,706.537048 1001.112305,706.238159 
	C1001.112305,686.194519 1001.112305,666.716980 1001.112305,646.771667 
	C1010.870117,645.227051 1020.022705,645.598572 1028.998901,648.392883 
	C1036.197144,650.633728 1040.783081,655.319580 1042.508179,662.970642 
	C1044.697754,672.682312 1044.066162,682.203430 1041.305298,691.581360 
	C1038.923096,699.672913 1033.094360,704.395691 1024.868286,705.799500 
	C1020.293945,706.580139 1015.599121,706.654114 1010.106934,707.046997 
z"/>
<path fill="#0F99F1" opacity="1.000000" stroke="none" 
	d="
M2295.829590,701.557190 
	C2285.766846,712.316284 2273.393555,711.233582 2260.396484,711.239502 
	C2260.396484,689.210327 2260.396484,667.842346 2260.396484,645.233459 
	C2268.339355,645.677063 2275.946045,645.528198 2283.353027,646.673767 
	C2291.068115,647.867126 2296.876953,652.530640 2299.075195,660.302979 
	C2302.981445,674.113342 2303.396240,687.819702 2295.829590,701.557190 
z"/>
<path fill="#129AF1" opacity="1.000000" stroke="none" 
	d="
M1355.483276,802.221497 
	C1353.456421,794.193665 1350.628906,786.811523 1350.526733,779.391907 
	C1350.045776,744.484802 1350.264038,709.567261 1350.375122,674.653931 
	C1350.388794,670.367920 1350.917847,666.014221 1351.792358,661.813477 
	C1354.297485,649.778992 1360.581665,644.769958 1372.692505,644.686523 
	C1385.001587,644.601685 1391.865356,650.141296 1394.123779,662.464600 
	C1394.957520,667.014587 1395.356445,671.705872 1395.370239,676.334534 
	C1395.471191,710.250366 1395.449707,744.166748 1395.386841,778.082764 
	C1395.380127,781.723022 1394.983032,785.376709 1394.555298,788.999207 
	C1393.533691,797.653564 1390.973755,805.507751 1381.576538,808.416748 
	C1372.104126,811.349060 1363.180542,810.699768 1355.483276,802.221497 
z"/>
<path fill="#149BF2" opacity="1.000000" stroke="none" 
	d="
M1922.353638,748.064697 
	C1926.409424,723.630981 1930.340576,700.030212 1934.271606,676.429504 
	C1934.821777,676.405945 1935.371948,676.382446 1935.921997,676.358887 
	C1940.407959,703.740540 1944.893921,731.122131 1949.513062,759.316650 
	C1940.000732,759.316650 1931.204102,759.316650 1921.375488,759.316650 
	C1921.657471,755.873291 1921.943115,752.385437 1922.353638,748.064697 
z"/>
</svg>