<svg version="1.1" id="Layer_1" xmlns="http://www.w3.org/2000/svg" xmlns:xlink="http://www.w3.org/1999/xlink" x="0px" y="0px"
	 width="100%" viewBox="0 0 3000 3000" enable-background="new 0 0 3000 3000" xml:space="preserve">
<path fill="#41F601" opacity="1.000000" stroke="none" 
	d="
M2.000000,1478.000000 
	C2.000000,985.333435 2.000000,493.666840 2.000000,2.000198 
	C1001.999756,2.000132 2001.999512,2.000132 3001.999512,2.000066 
	C3001.999512,1001.999573 3001.999512,2001.999146 3001.999756,3001.999023 
	C2002.000610,3001.999512 1002.001221,3001.999512 2.000937,3001.999756 
	C2.000000,2494.333252 2.000000,1986.666626 2.000000,1478.000000 
M1102.537109,1207.508789 
	C1021.909424,1242.209839 978.322144,1304.472778 967.099976,1390.369019 
	C878.204834,1388.618774 825.598816,1443.735474 808.864197,1493.986206 
	C781.660645,1575.672729 808.442749,1639.759033 877.359375,1688.721313 
	C876.126831,1690.261230 874.945374,1691.800415 873.699097,1693.285156 
	C841.376831,1731.789429 827.730774,1775.921143 833.654053,1825.972656 
	C841.503784,1892.301514 889.650757,1948.983032 953.727844,1968.039795 
	C976.792297,1974.899292 1000.364014,1975.215454 1023.997253,1975.357178 
	C1089.301392,1975.748657 1154.606689,1975.906982 1219.911621,1976.174072 
	C1249.897827,1976.296875 1279.888672,1976.840576 1309.868042,1976.460205 
	C1328.135620,1976.228638 1346.686035,1976.365479 1364.595093,1973.316162 
	C1490.947144,1951.802612 1583.988892,1833.232544 1561.068237,1697.086304 
	C1545.681763,1605.693481 1491.692749,1543.476074 1405.216919,1509.849976 
	C1396.257935,1506.366211 1386.872437,1503.979248 1376.924438,1500.843872 
	C1378.312012,1497.461548 1379.641602,1494.127563 1381.041504,1490.823486 
	C1390.480469,1468.542603 1396.364746,1445.297607 1397.531128,1421.186279 
	C1400.774048,1354.155396 1379.279419,1295.944336 1329.614624,1250.681274 
	C1263.884644,1190.777100 1187.699097,1177.496338 1102.537109,1207.508789 
M2218.339844,2644.339600 
	C2228.093262,2643.483887 2228.959717,2642.753174 2229.000488,2632.924561 
	C2229.105957,2607.596191 2229.049805,2582.267090 2229.030273,2556.938232 
	C2229.018311,2541.281982 2228.698242,2540.979004 2212.561768,2540.979004 
	C1729.648315,2540.976318 1246.734985,2540.976807 763.821594,2540.979248 
	C761.155823,2540.979492 758.473267,2540.835938 755.827637,2541.078125 
	C749.271851,2541.678711 747.510315,2543.182617 747.473999,2549.775635 
	C747.316101,2578.436035 747.299622,2607.098633 747.475525,2635.758789 
	C747.519592,2642.937744 749.104248,2644.044922 756.729614,2644.316406 
	C759.725342,2644.423096 762.727905,2644.340820 765.727356,2644.340820 
	C1249.307373,2644.340820 1732.887329,2644.341064 2218.339844,2644.339600 
M1223.000366,2362.583496 
	C1069.364746,2362.583496 915.729065,2362.580566 762.093384,2362.588379 
	C748.141296,2362.589111 747.393372,2363.341064 747.381897,2377.222900 
	C747.362122,2401.218018 747.374084,2425.213379 747.376587,2449.208496 
	C747.378296,2466.176025 747.381042,2466.178467 764.434326,2466.178467 
	C1096.034912,2466.178955 1427.635498,2466.178955 1759.236084,2466.178955 
	C1910.539185,2466.178955 2061.842285,2466.179688 2213.145508,2466.177490 
	C2229.022461,2466.177246 2229.030518,2466.168701 2229.036133,2449.869629 
	C2229.043701,2426.541016 2229.042480,2403.212158 2229.036621,2379.883545 
	C2229.032471,2362.728027 2228.887939,2362.583984 2211.803711,2362.583984 
	C1882.869263,2362.583252 1553.934937,2362.583496 1223.000366,2362.583496 
M440.320648,315.019562 
	C439.602112,344.997986 438.871124,374.976135 438.168488,404.954956 
	C437.458008,435.268158 436.462921,465.578949 436.169525,495.896393 
	C435.881165,525.695129 433.660126,555.486755 434.399689,585.564575 
	C466.208527,585.564575 496.811401,585.564575 527.976196,585.564575 
	C528.931396,582.315918 529.837463,579.163391 530.785400,576.023499 
	C533.790283,566.069885 537.634460,556.506470 544.560242,548.546631 
	C555.971924,535.431091 570.693237,532.018127 587.158142,534.833252 
	C602.871460,537.519897 612.893311,547.264404 617.069946,562.262695 
	C620.181030,573.434692 622.623840,584.943481 623.844360,596.463318 
	C627.719727,633.039551 626.301819,669.690918 623.663574,706.282837 
	C622.774597,718.612854 620.193970,730.663147 614.213501,741.747498 
	C610.636536,748.377258 605.921326,753.818542 599.082092,757.178223 
	C575.672668,768.677917 549.353394,757.918518 542.232544,732.945190 
	C538.793884,720.885620 537.523376,708.147583 535.974182,695.629761 
	C534.839478,686.461426 534.850403,677.151367 534.331421,667.547485 
	C498.742554,667.547485 463.906525,667.547485 429.062683,667.547485 
	C428.690369,669.006592 428.235352,669.940063 428.246948,670.867615 
	C428.601959,699.252319 430.794250,727.427673 438.073029,755.004272 
	C449.927887,799.917908 478.901031,827.437500 523.878540,837.497253 
	C557.435974,845.002747 591.394958,844.958130 625.069702,837.775757 
	C664.261902,829.416565 692.079224,806.355957 708.839050,770.144287 
	C712.728882,761.739685 715.587463,752.761292 718.038818,743.805542 
	C725.558838,716.332458 727.887207,688.098633 729.193359,659.785522 
	C730.655457,628.089478 729.768860,596.477356 723.911316,565.188538 
	C719.277039,540.433960 711.574219,516.770569 697.244446,495.748474 
	C680.993225,471.907532 658.676147,457.670868 629.916199,453.636505 
	C603.923462,449.990295 578.701233,453.153259 554.315857,462.375000 
	C546.622192,465.284485 539.611023,470.016327 532.335815,474.002258 
	C530.466125,475.026703 528.779846,476.385803 525.703369,478.480164 
	C527.884399,436.118286 529.980774,395.400696 532.131042,353.635468 
	C590.752441,353.635468 648.206482,353.635468 705.437622,353.635468 
	C705.437622,321.709320 705.437622,290.903656 705.437622,260.165527 
	C677.914124,258.228241 449.930054,259.145844 441.991272,261.248016 
	C441.438141,278.448090 440.882111,295.738464 440.320648,315.019562 
M365.678070,455.000183 
	C365.678070,390.141113 365.678070,325.282043 365.678070,259.663330 
	C361.164642,259.663330 357.884796,259.663330 354.604950,259.663330 
	C333.612457,259.663300 312.612701,259.981598 291.631104,259.503540 
	C283.463135,259.317413 277.186005,261.146240 271.296356,267.198029 
	C266.026031,272.613464 259.394562,276.827057 252.986343,280.990173 
	C230.323364,295.713226 206.409515,308.136536 181.660538,318.968903 
	C178.658722,320.282776 175.684555,321.659821 172.737427,322.989594 
	C172.737427,349.959595 172.737427,376.486511 172.737427,404.175690 
	C200.544907,394.169037 227.622665,384.425018 255.967606,374.224945 
	C255.967606,527.668701 255.967606,680.333740 255.967606,833.119690 
	C292.961578,833.119690 328.789673,833.119690 365.678070,833.119690 
	C365.678070,707.381531 365.678070,582.190857 365.678070,455.000183 
M2169.126709,1819.970703 
	C2171.861816,1821.144043 2174.496582,1822.796753 2177.352295,1823.392822 
	C2183.640869,1824.705688 2190.505371,1821.243286 2191.734131,1815.477783 
	C2193.560791,1806.907227 2194.401367,1798.102051 2185.926514,1791.860352 
	C2173.348145,1782.595825 2161.431396,1772.206665 2148.044922,1764.309814 
	C2115.259277,1744.969604 2079.581055,1739.507935 2042.072998,1745.593994 
	C2011.965210,1750.479248 1984.770752,1762.557617 1959.391724,1779.084473 
	C1953.832520,1782.704712 1948.457031,1786.606934 1942.691650,1790.590210 
	C1939.871582,1788.615356 1937.165283,1786.731201 1934.470215,1784.830933 
	C1916.138672,1771.906006 1896.620605,1761.210938 1875.358521,1753.935669 
	C1809.651733,1731.453247 1751.485229,1744.864014 1700.315063,1791.025146 
	C1693.828247,1796.876953 1691.514771,1808.931274 1695.062622,1816.653076 
	C1697.397217,1821.734131 1702.600464,1824.612305 1708.202759,1823.329712 
	C1711.054565,1822.676880 1713.688843,1821.054443 1716.405273,1819.833984 
	C1723.336426,1816.719971 1730.002686,1812.683838 1737.233398,1810.632690 
	C1757.029663,1805.017090 1777.402466,1804.477661 1797.706421,1806.815186 
	C1846.287109,1812.408447 1888.087646,1833.000366 1924.384033,1865.343872 
	C1926.622681,1867.338623 1928.715088,1869.519287 1931.084595,1871.341431 
	C1938.899780,1877.351074 1947.231445,1877.155029 1954.765015,1870.781128 
	C1959.086792,1867.124512 1963.119263,1863.121216 1967.494141,1859.532593 
	C2011.904297,1823.105591 2062.150146,1803.072632 2120.281006,1806.204712 
	C2136.914795,1807.100830 2153.468506,1809.483765 2169.126709,1819.970703 
M1870.439331,1416.835327 
	C1892.737549,1414.887573 1914.870239,1413.092529 1935.659668,1424.869873 
	C1943.762695,1429.460449 1953.166016,1425.318237 1955.057739,1417.192627 
	C1956.781494,1409.788940 1956.315186,1402.234741 1949.384644,1397.314087 
	C1939.361206,1390.197388 1929.484253,1382.638306 1918.674805,1376.909546 
	C1888.631348,1360.986572 1856.791748,1357.577515 1823.719727,1365.626099 
	C1798.011353,1371.882690 1775.421387,1384.276978 1754.677368,1400.370239 
	C1752.092041,1402.376099 1749.487549,1404.357178 1746.842041,1406.388184 
	C1742.432983,1403.765259 1738.476685,1401.328735 1734.443970,1399.026001 
	C1709.501831,1384.784424 1682.920166,1375.473877 1654.063599,1374.435425 
	C1612.261108,1372.931152 1577.787231,1389.547363 1548.454102,1418.474243 
	C1542.952148,1423.899780 1541.472900,1429.717773 1541.546021,1437.233276 
	C1541.646484,1447.535034 1553.318726,1455.115601 1563.195068,1447.385376 
	C1571.099854,1441.198486 1579.998169,1438.063721 1589.419678,1435.861938 
	C1622.697632,1428.084595 1654.911987,1432.495850 1686.287476,1444.905151 
	C1705.326294,1452.435181 1722.429932,1463.274658 1738.290405,1476.192383 
	C1747.448730,1483.651245 1755.637085,1483.107544 1763.993286,1474.975098 
	C1766.857422,1472.187500 1769.561768,1469.233643 1772.458740,1466.481812 
	C1799.699219,1440.606567 1831.274902,1423.186890 1870.439331,1416.835327 
M1250.615356,2053.193359 
	C1250.614868,2051.195801 1250.640015,2049.197754 1250.609619,2047.200928 
	C1250.435791,2035.810791 1249.346436,2034.636963 1237.897339,2034.609253 
	C1211.930176,2034.546387 1185.962524,2034.536255 1159.995483,2034.616211 
	C1149.641357,2034.648071 1148.023193,2036.146973 1148.016724,2045.830444 
	C1147.969116,2116.408203 1147.967285,2186.986084 1148.020508,2257.563721 
	C1148.027710,2267.124756 1149.287720,2268.285889 1159.170288,2268.311279 
	C1185.470337,2268.379150 1211.770752,2268.356201 1238.070923,2268.323730 
	C1249.779663,2268.309082 1250.477173,2267.570068 1250.609375,2255.895020 
	C1250.631958,2253.897705 1250.615234,2251.900146 1250.615234,2249.902588 
	C1250.615479,2184.984375 1250.615479,2120.066162 1250.615356,2053.193359 
M1797.865601,681.242859 
	C1797.209717,674.622498 1796.916626,667.942078 1795.832153,661.392700 
	C1792.137939,639.082886 1778.592773,624.857849 1756.546753,620.275513 
	C1750.062622,618.927795 1743.375488,618.061218 1736.761963,617.925537 
	C1718.785645,617.556458 1700.798828,617.668030 1682.816162,617.678223 
	C1680.965454,617.679260 1679.114990,618.280945 1677.400391,618.580200 
	C1675.330688,648.337524 1676.336304,828.872375 1678.919678,837.572388 
	C1702.173218,837.010864 1725.861450,837.623413 1749.314087,835.559143 
	C1775.936401,833.215881 1791.889526,816.548401 1795.866699,789.956360 
	C1797.093140,781.756470 1797.723389,773.399170 1797.793945,765.106934 
	C1798.026367,737.800720 1797.877441,710.491272 1797.865601,681.242859 
M1203.222168,837.071167 
	C1207.793457,837.071167 1212.364624,837.071167 1217.172607,837.071167 
	C1217.172607,763.311768 1217.172607,690.840637 1217.172607,618.050293 
	C1206.050293,618.050293 1195.471558,618.050293 1184.117432,618.050293 
	C1184.117432,628.080627 1184.117432,637.696594 1184.117432,647.312622 
	C1184.117432,657.311646 1184.117432,667.310608 1184.117432,677.309631 
	C1184.117432,686.975342 1184.204712,696.642029 1184.092651,706.306396 
	C1183.981201,715.910706 1184.598267,725.571350 1183.724609,735.133301 
	C1183.064331,735.185852 1182.404053,735.238403 1181.743652,735.290955 
	C1164.839233,696.263916 1147.934692,657.236877 1130.975464,618.083252 
	C1121.665527,618.083252 1112.792725,618.083252 1103.491943,618.083252 
	C1103.491943,690.993958 1103.491943,763.446167 1103.491943,836.305542 
	C1114.822998,836.305542 1125.561646,836.305542 1137.404419,836.305542 
	C1137.404419,795.179565 1137.404419,754.805603 1137.404419,714.431641 
	C1138.187988,714.261719 1138.971558,714.091797 1139.755127,713.921814 
	C1156.802124,754.829529 1173.849243,795.737183 1191.073853,837.071228 
	C1194.865234,837.071228 1198.166260,837.071228 1203.222168,837.071167 
M1582.641235,732.485291 
	C1597.194458,767.390869 1611.747681,802.296387 1626.228394,837.027710 
	C1631.457153,837.027710 1635.448608,837.072571 1639.438843,837.015198 
	C1643.589478,836.955505 1647.738892,836.797119 1651.605225,836.689697 
	C1651.605225,762.930786 1651.605225,690.508057 1651.605225,617.672607 
	C1641.892456,617.672607 1632.923218,617.647339 1623.954224,617.701233 
	C1622.679810,617.708923 1621.407593,618.101379 1619.370483,618.444458 
	C1619.370483,628.208313 1619.370483,637.828613 1619.370483,647.448975 
	C1619.370483,657.109192 1619.370483,666.769470 1619.370483,676.429688 
	C1619.370483,686.423035 1619.544067,696.420288 1619.319458,706.408569 
	C1619.112427,715.614136 1620.305908,724.958313 1618.606323,734.056946 
	C1617.872070,734.127747 1617.137817,734.198486 1616.403564,734.269287 
	C1599.538940,695.379700 1582.674316,656.490112 1566.181641,618.458252 
	C1556.022339,618.458252 1547.223877,618.458252 1538.378906,618.458252 
	C1538.378906,691.458923 1538.378906,763.656128 1538.378906,836.439941 
	C1549.610840,836.439941 1560.445923,836.439941 1572.188599,836.439941 
	C1572.188599,822.382996 1572.188599,808.792786 1572.188599,795.202637 
	C1572.188599,781.211975 1572.173340,767.221252 1572.192993,753.230591 
	C1572.211548,739.893433 1572.108276,726.550232 1572.251465,713.217102 
	C1573.005005,713.118408 1573.758545,713.019775 1574.512207,712.921143 
	C1577.036011,718.968872 1579.559692,725.016602 1582.641235,732.485291 
M955.650452,724.999878 
	C955.707275,742.330444 955.611938,759.663269 955.874817,776.990723 
	C956.048096,788.421692 958.492859,799.452637 963.196594,809.927429 
	C969.296692,823.511902 979.421631,832.464783 993.812195,836.498779 
	C1006.841187,840.151062 1019.988525,840.614258 1033.391602,838.738037 
	C1058.127075,835.275330 1073.040771,821.155334 1078.747314,797.258972 
	C1080.589600,789.544617 1081.784546,781.490356 1081.874634,773.575623 
	C1082.227295,742.584961 1082.162231,711.586792 1081.911133,680.594177 
	C1081.854858,673.648499 1081.000000,666.586609 1079.511230,659.797791 
	C1074.614990,637.471375 1062.421997,621.656677 1038.857788,617.049988 
	C1024.994873,614.339844 1011.072266,614.405396 997.200500,617.412292 
	C977.731506,621.632385 965.393860,633.675720 960.028931,652.487610 
	C957.679138,660.727173 956.349243,669.448547 955.962219,678.014648 
	C955.285767,692.983826 955.695740,708.002075 955.650452,724.999878 
M1852.532471,1234.451416 
	C1855.811523,1234.261597 1859.094238,1234.121582 1862.368652,1233.870605 
	C1867.954834,1233.442505 1873.685547,1231.918091 1879.085449,1232.705811 
	C1888.244263,1234.041748 1897.477173,1236.022827 1906.178711,1239.132446 
	C1936.601074,1250.003906 1958.834351,1270.859741 1975.669556,1297.952759 
	C1983.891357,1311.184570 1989.292969,1312.692139 2003.725586,1306.066284 
	C2008.257080,1303.985718 2012.779297,1301.738892 2017.527466,1300.300293 
	C2060.122070,1287.395874 2101.200928,1284.579468 2137.262939,1317.728149 
	C2144.469238,1324.352295 2154.633789,1320.805054 2158.225586,1311.662109 
	C2160.595703,1305.628906 2159.924316,1300.350464 2156.570801,1294.630249 
	C2131.726807,1252.250977 2087.232422,1231.096191 2038.793823,1239.297729 
	C2027.709473,1241.174561 2016.792236,1244.038330 2005.399658,1246.535156 
	C2003.166016,1243.943481 2000.789917,1241.192383 1998.420288,1238.435669 
	C1986.805664,1224.924316 1973.453491,1213.502808 1957.642944,1205.178345 
	C1922.828369,1186.847900 1887.904175,1188.311157 1853.205933,1205.368530 
	C1840.767700,1211.483154 1839.934814,1226.085205 1852.532471,1234.451416 
M1479.675171,791.622742 
	C1482.275513,806.612488 1484.875732,821.602295 1487.542114,836.972900 
	C1500.389771,836.894531 1512.144775,837.509460 1524.886963,836.513977 
	C1509.973511,762.928589 1495.322021,690.635376 1480.675415,618.366211 
	C1466.037720,618.366211 1452.251953,618.366211 1438.412842,618.366211 
	C1423.585693,691.313110 1408.896484,763.580994 1394.083496,836.458313 
	C1407.200806,836.458313 1419.335327,836.458313 1431.987427,836.458313 
	C1435.032837,819.716675 1437.993896,803.438416 1441.118652,786.260681 
	C1452.793823,786.260681 1464.037476,786.135376 1475.270630,786.420715 
	C1476.660278,786.455933 1477.994263,788.676880 1479.675171,791.622742 
M1233.808838,468.537598 
	C1233.978882,471.708740 1234.149048,474.879913 1234.312500,477.928986 
	C1265.358887,477.928986 1295.488525,477.928986 1325.528320,477.928986 
	C1325.528320,468.739197 1325.528320,460.257416 1325.528320,450.633331 
	C1308.103271,450.633331 1291.313843,450.633331 1274.611328,450.633331 
	C1274.611328,426.032654 1274.611328,402.605194 1274.611328,378.329742 
	C1288.220581,378.329742 1301.083496,378.329742 1314.052979,378.329742 
	C1314.052979,368.600494 1314.052979,359.743225 1314.052979,350.121094 
	C1300.597534,350.121094 1287.713501,350.121094 1274.971313,350.121094 
	C1273.002930,337.171143 1273.442749,295.128754 1275.744873,287.386261 
	C1292.010864,287.386261 1308.540527,287.386261 1325.263794,287.386261 
	C1325.263794,277.742645 1325.263794,268.953522 1325.263794,260.102753 
	C1294.563599,260.102753 1264.461792,260.102753 1233.808716,260.102753 
	C1233.808716,329.430206 1233.808716,398.035400 1233.808838,468.537598 
M1171.101562,299.038544 
	C1171.101562,295.482269 1171.101562,291.925995 1171.101562,287.463013 
	C1188.129761,287.463013 1203.975220,287.463013 1220.447754,287.463013 
	C1220.447754,277.743958 1220.447754,268.982697 1220.447754,259.934387 
	C1190.354980,259.934387 1160.848022,259.934387 1131.201660,259.934387 
	C1131.201660,332.950836 1131.201660,405.367462 1131.201660,478.022034 
	C1144.713257,478.022034 1157.538818,478.022034 1171.422852,478.022034 
	C1171.422852,444.916779 1171.422852,412.437134 1171.422852,378.948547 
	C1184.968994,378.948547 1197.476440,378.948547 1210.467773,378.948547 
	C1210.467773,369.116852 1210.467773,360.325867 1210.467773,350.252625 
	C1197.092651,350.252625 1184.304321,350.252625 1171.101318,350.252625 
	C1171.101318,332.990906 1171.101318,317.009064 1171.101562,299.038544 
M997.401855,259.803558 
	C984.857910,259.803558 972.313965,259.803558 959.515625,259.803558 
	C959.515625,332.933685 959.515625,405.358582 959.515625,477.698578 
	C972.991455,479.509430 1044.218628,479.015259 1051.172974,477.197327 
	C1051.172974,468.661835 1051.172974,460.193542 1051.172974,450.572540 
	C1033.694458,450.572540 1016.901306,450.572540 999.477844,450.572540 
	C999.477844,445.778473 999.477966,442.163086 999.477905,438.547668 
	C999.477661,382.910065 999.487976,327.272491 999.452698,271.634918 
	C999.450439,267.991608 999.098877,264.348480 997.401855,259.803558 
M1340.030640,796.901428 
	C1340.030640,737.393982 1340.030640,677.886475 1340.030640,617.830444 
	C1325.998047,617.606262 1313.231201,617.472961 1300.339355,617.855774 
	C1300.339355,691.399658 1300.339355,763.611389 1300.339355,835.746704 
	C1310.415527,837.810120 1384.642822,837.482727 1391.687134,835.454285 
	C1391.687134,826.937317 1391.687134,818.464661 1391.687134,809.544373 
	C1374.260742,809.051575 1357.435059,809.738831 1340.030762,809.120300 
	C1340.030762,804.797058 1340.030762,801.842896 1340.030640,796.901428 
M1105.444580,375.000305 
	C1105.444580,336.780426 1105.444580,298.560547 1105.444580,259.860718 
	C1091.811035,259.860718 1079.264648,259.860718 1066.258789,259.860718 
	C1066.258789,332.742554 1066.258789,405.254883 1066.258789,477.704773 
	C1078.695923,479.430695 1098.220947,479.004761 1105.444580,476.782776 
	C1105.444580,443.623596 1105.444580,410.311951 1105.444580,375.000305 
z"/>
<path fill="#FFFFFF" opacity="1.000000" stroke="none" 
	d="
M1103.233154,1207.180420 
	C1187.699097,1177.496338 1263.884644,1190.777100 1329.614624,1250.681274 
	C1379.279419,1295.944336 1400.774048,1354.155396 1397.531128,1421.186279 
	C1396.364746,1445.297607 1390.480469,1468.542603 1381.041504,1490.823486 
	C1379.641602,1494.127563 1378.312012,1497.461548 1376.924438,1500.843872 
	C1386.872437,1503.979248 1396.257935,1506.366211 1405.216919,1509.849976 
	C1491.692749,1543.476074 1545.681763,1605.693481 1561.068237,1697.086304 
	C1583.988892,1833.232544 1490.947144,1951.802612 1364.595093,1973.316162 
	C1346.686035,1976.365479 1328.135620,1976.228638 1309.868042,1976.460205 
	C1279.888672,1976.840576 1249.897827,1976.296875 1219.911621,1976.174072 
	C1154.606689,1975.906982 1089.301392,1975.748657 1023.997253,1975.357178 
	C1000.364014,1975.215454 976.792297,1974.899292 953.727844,1968.039795 
	C889.650757,1948.983032 841.503784,1892.301514 833.654053,1825.972656 
	C827.730774,1775.921143 841.376831,1731.789429 873.699097,1693.285156 
	C874.945374,1691.800415 876.126831,1690.261230 877.359375,1688.721313 
	C808.442749,1639.759033 781.660645,1575.672729 808.864197,1493.986206 
	C825.598816,1443.735474 878.204834,1388.618774 967.099976,1390.369019 
	C978.322144,1304.472778 1021.909424,1242.209839 1103.233154,1207.180420 
z"/>
<path fill="#FDFFFC" opacity="1.000000" stroke="none" 
	d="
M2217.403564,2644.340332 
	C1732.887329,2644.341064 1249.307373,2644.340820 765.727356,2644.340820 
	C762.727905,2644.340820 759.725342,2644.423096 756.729614,2644.316406 
	C749.104248,2644.044922 747.519592,2642.937744 747.475525,2635.758789 
	C747.299622,2607.098633 747.316101,2578.436035 747.473999,2549.775635 
	C747.510315,2543.182617 749.271851,2541.678711 755.827637,2541.078125 
	C758.473267,2540.835938 761.155823,2540.979492 763.821594,2540.979248 
	C1246.734985,2540.976807 1729.648315,2540.976318 2212.561768,2540.979004 
	C2228.698242,2540.979004 2229.018311,2541.281982 2229.030273,2556.938232 
	C2229.049805,2582.267090 2229.105957,2607.596191 2229.000488,2632.924561 
	C2228.959717,2642.753174 2228.093262,2643.483887 2217.403564,2644.340332 
z"/>
<path fill="#FDFFFD" opacity="1.000000" stroke="none" 
	d="
M1224.000488,2362.583496 
	C1553.934937,2362.583496 1882.869263,2362.583252 2211.803711,2362.583984 
	C2228.887939,2362.583984 2229.032471,2362.728027 2229.036621,2379.883545 
	C2229.042480,2403.212158 2229.043701,2426.541016 2229.036133,2449.869629 
	C2229.030518,2466.168701 2229.022461,2466.177246 2213.145508,2466.177490 
	C2061.842285,2466.179688 1910.539185,2466.178955 1759.236084,2466.178955 
	C1427.635498,2466.178955 1096.034912,2466.178955 764.434326,2466.178467 
	C747.381042,2466.178467 747.378296,2466.176025 747.376587,2449.208496 
	C747.374084,2425.213379 747.362122,2401.218018 747.381897,2377.222900 
	C747.393372,2363.341064 748.141296,2362.589111 762.093384,2362.588379 
	C915.729065,2362.580566 1069.364746,2362.583496 1224.000488,2362.583496 
z"/>
<path fill="#FEFFFD" opacity="1.000000" stroke="none" 
	d="
M440.323364,314.024231 
	C440.882111,295.738464 441.438141,278.448090 441.991272,261.248016 
	C449.930054,259.145844 677.914124,258.228241 705.437622,260.165527 
	C705.437622,290.903656 705.437622,321.709320 705.437622,353.635468 
	C648.206482,353.635468 590.752441,353.635468 532.131042,353.635468 
	C529.980774,395.400696 527.884399,436.118286 525.703369,478.480164 
	C528.779846,476.385803 530.466125,475.026703 532.335815,474.002258 
	C539.611023,470.016327 546.622192,465.284485 554.315857,462.375000 
	C578.701233,453.153259 603.923462,449.990295 629.916199,453.636505 
	C658.676147,457.670868 680.993225,471.907532 697.244446,495.748474 
	C711.574219,516.770569 719.277039,540.433960 723.911316,565.188538 
	C729.768860,596.477356 730.655457,628.089478 729.193359,659.785522 
	C727.887207,688.098633 725.558838,716.332458 718.038818,743.805542 
	C715.587463,752.761292 712.728882,761.739685 708.839050,770.144287 
	C692.079224,806.355957 664.261902,829.416565 625.069702,837.775757 
	C591.394958,844.958130 557.435974,845.002747 523.878540,837.497253 
	C478.901031,827.437500 449.927887,799.917908 438.073029,755.004272 
	C430.794250,727.427673 428.601959,699.252319 428.246948,670.867615 
	C428.235352,669.940063 428.690369,669.006592 429.062683,667.547485 
	C463.906525,667.547485 498.742554,667.547485 534.331421,667.547485 
	C534.850403,677.151367 534.839478,686.461426 535.974182,695.629761 
	C537.523376,708.147583 538.793884,720.885620 542.232544,732.945190 
	C549.353394,757.918518 575.672668,768.677917 599.082092,757.178223 
	C605.921326,753.818542 610.636536,748.377258 614.213501,741.747498 
	C620.193970,730.663147 622.774597,718.612854 623.663574,706.282837 
	C626.301819,669.690918 627.719727,633.039551 623.844360,596.463318 
	C622.623840,584.943481 620.181030,573.434692 617.069946,562.262695 
	C612.893311,547.264404 602.871460,537.519897 587.158142,534.833252 
	C570.693237,532.018127 555.971924,535.431091 544.560242,548.546631 
	C537.634460,556.506470 533.790283,566.069885 530.785400,576.023499 
	C529.837463,579.163391 528.931396,582.315918 527.976196,585.564575 
	C496.811401,585.564575 466.208527,585.564575 434.399689,585.564575 
	C433.660126,555.486755 435.881165,525.695129 436.169525,495.896393 
	C436.462921,465.578949 437.458008,435.268158 438.168488,404.954956 
	C438.871124,374.976135 439.602112,344.997986 440.323364,314.024231 
z"/>
<path fill="#FEFFFD" opacity="1.000000" stroke="none" 
	d="
M365.678070,456.000183 
	C365.678070,582.190857 365.678070,707.381531 365.678070,833.119690 
	C328.789673,833.119690 292.961578,833.119690 255.967606,833.119690 
	C255.967606,680.333740 255.967606,527.668701 255.967606,374.224945 
	C227.622665,384.425018 200.544907,394.169037 172.737427,404.175690 
	C172.737427,376.486511 172.737427,349.959595 172.737427,322.989594 
	C175.684555,321.659821 178.658722,320.282776 181.660538,318.968903 
	C206.409515,308.136536 230.323364,295.713226 252.986343,280.990173 
	C259.394562,276.827057 266.026031,272.613464 271.296356,267.198029 
	C277.186005,261.146240 283.463135,259.317413 291.631104,259.503540 
	C312.612701,259.981598 333.612457,259.663300 354.604950,259.663330 
	C357.884796,259.663330 361.164642,259.663330 365.678070,259.663330 
	C365.678070,325.282043 365.678070,390.141113 365.678070,456.000183 
z"/>
<path fill="#FDFFFC" opacity="1.000000" stroke="none" 
	d="
M2168.520996,1819.512939 
	C2153.468506,1809.483765 2136.914795,1807.100830 2120.281006,1806.204712 
	C2062.150146,1803.072632 2011.904297,1823.105591 1967.494141,1859.532593 
	C1963.119263,1863.121216 1959.086792,1867.124512 1954.765015,1870.781128 
	C1947.231445,1877.155029 1938.899780,1877.351074 1931.084595,1871.341431 
	C1928.715088,1869.519287 1926.622681,1867.338623 1924.384033,1865.343872 
	C1888.087646,1833.000366 1846.287109,1812.408447 1797.706421,1806.815186 
	C1777.402466,1804.477661 1757.029663,1805.017090 1737.233398,1810.632690 
	C1730.002686,1812.683838 1723.336426,1816.719971 1716.405273,1819.833984 
	C1713.688843,1821.054443 1711.054565,1822.676880 1708.202759,1823.329712 
	C1702.600464,1824.612305 1697.397217,1821.734131 1695.062622,1816.653076 
	C1691.514771,1808.931274 1693.828247,1796.876953 1700.315063,1791.025146 
	C1751.485229,1744.864014 1809.651733,1731.453247 1875.358521,1753.935669 
	C1896.620605,1761.210938 1916.138672,1771.906006 1934.470215,1784.830933 
	C1937.165283,1786.731201 1939.871582,1788.615356 1942.691650,1790.590210 
	C1948.457031,1786.606934 1953.832520,1782.704712 1959.391724,1779.084473 
	C1984.770752,1762.557617 2011.965210,1750.479248 2042.072998,1745.593994 
	C2079.581055,1739.507935 2115.259277,1744.969604 2148.044922,1764.309814 
	C2161.431396,1772.206665 2173.348145,1782.595825 2185.926514,1791.860352 
	C2194.401367,1798.102051 2193.560791,1806.907227 2191.734131,1815.477783 
	C2190.505371,1821.243286 2183.640869,1824.705688 2177.352295,1823.392822 
	C2174.496582,1822.796753 2171.861816,1821.144043 2168.520996,1819.512939 
z"/>
<path fill="#FDFFFC" opacity="1.000000" stroke="none" 
	d="
M1869.578125,1417.041260 
	C1831.274902,1423.186890 1799.699219,1440.606567 1772.458740,1466.481812 
	C1769.561768,1469.233643 1766.857422,1472.187500 1763.993286,1474.975098 
	C1755.637085,1483.107544 1747.448730,1483.651245 1738.290405,1476.192383 
	C1722.429932,1463.274658 1705.326294,1452.435181 1686.287476,1444.905151 
	C1654.911987,1432.495850 1622.697632,1428.084595 1589.419678,1435.861938 
	C1579.998169,1438.063721 1571.099854,1441.198486 1563.195068,1447.385376 
	C1553.318726,1455.115601 1541.646484,1447.535034 1541.546021,1437.233276 
	C1541.472900,1429.717773 1542.952148,1423.899780 1548.454102,1418.474243 
	C1577.787231,1389.547363 1612.261108,1372.931152 1654.063599,1374.435425 
	C1682.920166,1375.473877 1709.501831,1384.784424 1734.443970,1399.026001 
	C1738.476685,1401.328735 1742.432983,1403.765259 1746.842041,1406.388184 
	C1749.487549,1404.357178 1752.092041,1402.376099 1754.677368,1400.370239 
	C1775.421387,1384.276978 1798.011353,1371.882690 1823.719727,1365.626099 
	C1856.791748,1357.577515 1888.631348,1360.986572 1918.674805,1376.909546 
	C1929.484253,1382.638306 1939.361206,1390.197388 1949.384644,1397.314087 
	C1956.315186,1402.234741 1956.781494,1409.788940 1955.057739,1417.192627 
	C1953.166016,1425.318237 1943.762695,1429.460449 1935.659668,1424.869873 
	C1914.870239,1413.092529 1892.737549,1414.887573 1869.578125,1417.041260 
z"/>
<path fill="#FEFFFE" opacity="1.000000" stroke="none" 
	d="
M1250.615479,2054.170654 
	C1250.615479,2120.066162 1250.615479,2184.984375 1250.615234,2249.902588 
	C1250.615234,2251.900146 1250.631958,2253.897705 1250.609375,2255.895020 
	C1250.477173,2267.570068 1249.779663,2268.309082 1238.070923,2268.323730 
	C1211.770752,2268.356201 1185.470337,2268.379150 1159.170288,2268.311279 
	C1149.287720,2268.285889 1148.027710,2267.124756 1148.020508,2257.563721 
	C1147.967285,2186.986084 1147.969116,2116.408203 1148.016724,2045.830444 
	C1148.023193,2036.146973 1149.641357,2034.648071 1159.995483,2034.616211 
	C1185.962524,2034.536255 1211.930176,2034.546387 1237.897339,2034.609253 
	C1249.346436,2034.636963 1250.435791,2035.810791 1250.609619,2047.200928 
	C1250.640015,2049.197754 1250.614868,2051.195801 1250.615479,2054.170654 
z"/>
<path fill="#F9FFF6" opacity="1.000000" stroke="none" 
	d="
M1797.870239,682.213013 
	C1797.877441,710.491272 1798.026367,737.800720 1797.793945,765.106934 
	C1797.723389,773.399170 1797.093140,781.756470 1795.866699,789.956360 
	C1791.889526,816.548401 1775.936401,833.215881 1749.314087,835.559143 
	C1725.861450,837.623413 1702.173218,837.010864 1678.919678,837.572388 
	C1676.336304,828.872375 1675.330688,648.337524 1677.400391,618.580200 
	C1679.114990,618.280945 1680.965454,617.679260 1682.816162,617.678223 
	C1700.798828,617.668030 1718.785645,617.556458 1736.761963,617.925537 
	C1743.375488,618.061218 1750.062622,618.927795 1756.546753,620.275513 
	C1778.592773,624.857849 1792.137939,639.082886 1795.832153,661.392700 
	C1796.916626,667.942078 1797.209717,674.622498 1797.870239,682.213013 
M1717.467163,732.999634 
	C1717.467163,757.890137 1717.467163,782.780579 1717.467163,808.174011 
	C1720.834717,808.330933 1723.093750,808.506470 1725.354248,808.530701 
	C1749.183472,808.785645 1755.880981,802.877869 1756.344482,778.816162 
	C1756.973511,746.166321 1756.776733,713.499695 1756.805908,680.840088 
	C1756.810669,675.521484 1756.486206,670.154602 1755.731689,664.893555 
	C1754.261475,654.643250 1749.413086,649.298584 1739.253784,647.587830 
	C1732.504639,646.451294 1725.545410,646.561646 1717.467163,646.034729 
	C1717.467163,675.213745 1717.467163,703.106689 1717.467163,732.999634 
z"/>
<path fill="#F9FFF6" opacity="1.000000" stroke="none" 
	d="
M1202.344727,837.071167 
	C1198.166260,837.071228 1194.865234,837.071228 1191.073853,837.071228 
	C1173.849243,795.737183 1156.802124,754.829529 1139.755127,713.921814 
	C1138.971558,714.091797 1138.187988,714.261719 1137.404419,714.431641 
	C1137.404419,754.805603 1137.404419,795.179565 1137.404419,836.305542 
	C1125.561646,836.305542 1114.822998,836.305542 1103.491943,836.305542 
	C1103.491943,763.446167 1103.491943,690.993958 1103.491943,618.083252 
	C1112.792725,618.083252 1121.665527,618.083252 1130.975464,618.083252 
	C1147.934692,657.236877 1164.839233,696.263916 1181.743652,735.290955 
	C1182.404053,735.238403 1183.064331,735.185852 1183.724609,735.133301 
	C1184.598267,725.571350 1183.981201,715.910706 1184.092651,706.306396 
	C1184.204712,696.642029 1184.117432,686.975342 1184.117432,677.309631 
	C1184.117432,667.310608 1184.117432,657.311646 1184.117432,647.312622 
	C1184.117432,637.696594 1184.117432,628.080627 1184.117432,618.050293 
	C1195.471558,618.050293 1206.050293,618.050293 1217.172607,618.050293 
	C1217.172607,690.840637 1217.172607,763.311768 1217.172607,837.071167 
	C1212.364624,837.071167 1207.793457,837.071167 1202.344727,837.071167 
z"/>
<path fill="#FDFFFC" opacity="1.000000" stroke="none" 
	d="
M1582.362305,731.774841 
	C1579.559692,725.016602 1577.036011,718.968872 1574.512207,712.921143 
	C1573.758545,713.019775 1573.005005,713.118408 1572.251465,713.217102 
	C1572.108276,726.550232 1572.211548,739.893433 1572.192993,753.230591 
	C1572.173340,767.221252 1572.188599,781.211975 1572.188599,795.202637 
	C1572.188599,808.792786 1572.188599,822.382996 1572.188599,836.439941 
	C1560.445923,836.439941 1549.610840,836.439941 1538.378906,836.439941 
	C1538.378906,763.656128 1538.378906,691.458923 1538.378906,618.458252 
	C1547.223877,618.458252 1556.022339,618.458252 1566.181641,618.458252 
	C1582.674316,656.490112 1599.538940,695.379700 1616.403564,734.269287 
	C1617.137817,734.198486 1617.872070,734.127747 1618.606323,734.056946 
	C1620.305908,724.958313 1619.112427,715.614136 1619.319458,706.408569 
	C1619.544067,696.420288 1619.370483,686.423035 1619.370483,676.429688 
	C1619.370483,666.769470 1619.370483,657.109192 1619.370483,647.448975 
	C1619.370483,637.828613 1619.370483,628.208313 1619.370483,618.444458 
	C1621.407593,618.101379 1622.679810,617.708923 1623.954224,617.701233 
	C1632.923218,617.647339 1641.892456,617.672607 1651.605225,617.672607 
	C1651.605225,690.508057 1651.605225,762.930786 1651.605225,836.689697 
	C1647.738892,836.797119 1643.589478,836.955505 1639.438843,837.015198 
	C1635.448608,837.072571 1631.457153,837.027710 1626.228394,837.027710 
	C1611.747681,802.296387 1597.194458,767.390869 1582.362305,731.774841 
z"/>
<path fill="#FDFFFC" opacity="1.000000" stroke="none" 
	d="
M955.650452,723.999817 
	C955.695740,708.002075 955.285767,692.983826 955.962219,678.014648 
	C956.349243,669.448547 957.679138,660.727173 960.028931,652.487610 
	C965.393860,633.675720 977.731506,621.632385 997.200500,617.412292 
	C1011.072266,614.405396 1024.994873,614.339844 1038.857788,617.049988 
	C1062.421997,621.656677 1074.614990,637.471375 1079.511230,659.797791 
	C1081.000000,666.586609 1081.854858,673.648499 1081.911133,680.594177 
	C1082.162231,711.586792 1082.227295,742.584961 1081.874634,773.575623 
	C1081.784546,781.490356 1080.589600,789.544617 1078.747314,797.258972 
	C1073.040771,821.155334 1058.127075,835.275330 1033.391602,838.738037 
	C1019.988525,840.614258 1006.841187,840.151062 993.812195,836.498779 
	C979.421631,832.464783 969.296692,823.511902 963.196594,809.927429 
	C958.492859,799.452637 956.048096,788.421692 955.874817,776.990723 
	C955.611938,759.663269 955.707275,742.330444 955.650452,723.999817 
M1035.690063,651.487610 
	C1034.999756,650.768188 1034.406738,649.909058 1033.604614,649.349915 
	C1018.266296,638.655884 1000.727661,645.559753 997.353149,663.725647 
	C996.568970,667.946899 996.222168,672.307312 996.210571,676.605103 
	C996.120056,710.195984 996.060059,743.787842 996.254456,777.377808 
	C996.288879,783.308411 996.994812,789.365906 998.375854,795.128723 
	C1000.749390,805.032654 1007.460571,809.687134 1018.141235,809.899536 
	C1029.346069,810.122375 1036.605957,805.473450 1039.200806,795.443787 
	C1040.601440,790.029846 1041.289795,784.286804 1041.320435,778.686951 
	C1041.507812,744.431641 1041.480591,710.174561 1041.365967,675.918701 
	C1041.339233,667.938293 1040.805420,659.937439 1035.690063,651.487610 
z"/>
<path fill="#FCFFFB" opacity="1.000000" stroke="none" 
	d="
M1851.805054,1234.264893 
	C1839.934814,1226.085205 1840.767700,1211.483154 1853.205933,1205.368530 
	C1887.904175,1188.311157 1922.828369,1186.847900 1957.642944,1205.178345 
	C1973.453491,1213.502808 1986.805664,1224.924316 1998.420288,1238.435669 
	C2000.789917,1241.192383 2003.166016,1243.943481 2005.399658,1246.535156 
	C2016.792236,1244.038330 2027.709473,1241.174561 2038.793823,1239.297729 
	C2087.232422,1231.096191 2131.726807,1252.250977 2156.570801,1294.630249 
	C2159.924316,1300.350464 2160.595703,1305.628906 2158.225586,1311.662109 
	C2154.633789,1320.805054 2144.469238,1324.352295 2137.262939,1317.728149 
	C2101.200928,1284.579468 2060.122070,1287.395874 2017.527466,1300.300293 
	C2012.779297,1301.738892 2008.257080,1303.985718 2003.725586,1306.066284 
	C1989.292969,1312.692139 1983.891357,1311.184570 1975.669556,1297.952759 
	C1958.834351,1270.859741 1936.601074,1250.003906 1906.178711,1239.132446 
	C1897.477173,1236.022827 1888.244263,1234.041748 1879.085449,1232.705811 
	C1873.685547,1231.918091 1867.954834,1233.442505 1862.368652,1233.870605 
	C1859.094238,1234.121582 1855.811523,1234.261597 1851.805054,1234.264893 
z"/>
<path fill="#FBFFFA" opacity="1.000000" stroke="none" 
	d="
M1479.514648,790.753906 
	C1477.994263,788.676880 1476.660278,786.455933 1475.270630,786.420715 
	C1464.037476,786.135376 1452.793823,786.260681 1441.118652,786.260681 
	C1437.993896,803.438416 1435.032837,819.716675 1431.987427,836.458313 
	C1419.335327,836.458313 1407.200806,836.458313 1394.083496,836.458313 
	C1408.896484,763.580994 1423.585693,691.313110 1438.412842,618.366211 
	C1452.251953,618.366211 1466.037720,618.366211 1480.675415,618.366211 
	C1495.322021,690.635376 1509.973511,762.928589 1524.886963,836.513977 
	C1512.144775,837.509460 1500.389771,836.894531 1487.542114,836.972900 
	C1484.875732,821.602295 1482.275513,806.612488 1479.514648,790.753906 
M1470.093384,759.972412 
	C1475.976196,759.529114 1473.500732,755.505432 1473.048584,752.652527 
	C1469.363892,729.400452 1465.593140,706.161804 1461.759155,682.933838 
	C1461.410400,680.821228 1460.436890,678.811768 1459.077271,674.718323 
	C1454.304810,704.270691 1449.892944,731.590271 1445.304688,760.001770 
	C1453.793457,760.001770 1461.032349,760.001770 1470.093384,759.972412 
z"/>
<path fill="#FCFFFB" opacity="1.000000" stroke="none" 
	d="
M1233.808838,467.589111 
	C1233.808716,398.035400 1233.808716,329.430206 1233.808716,260.102753 
	C1264.461792,260.102753 1294.563599,260.102753 1325.263794,260.102753 
	C1325.263794,268.953522 1325.263794,277.742645 1325.263794,287.386261 
	C1308.540527,287.386261 1292.010864,287.386261 1275.744873,287.386261 
	C1273.442749,295.128754 1273.002930,337.171143 1274.971313,350.121094 
	C1287.713501,350.121094 1300.597534,350.121094 1314.052979,350.121094 
	C1314.052979,359.743225 1314.052979,368.600494 1314.052979,378.329742 
	C1301.083496,378.329742 1288.220581,378.329742 1274.611328,378.329742 
	C1274.611328,402.605194 1274.611328,426.032654 1274.611328,450.633331 
	C1291.313843,450.633331 1308.103271,450.633331 1325.528320,450.633331 
	C1325.528320,460.257416 1325.528320,468.739197 1325.528320,477.928986 
	C1295.488525,477.928986 1265.358887,477.928986 1234.312500,477.928986 
	C1234.149048,474.879913 1233.978882,471.708740 1233.808838,467.589111 
z"/>
<path fill="#F7FFF5" opacity="1.000000" stroke="none" 
	d="
M1171.101440,300.032867 
	C1171.101318,317.009064 1171.101318,332.990906 1171.101318,350.252625 
	C1184.304321,350.252625 1197.092651,350.252625 1210.467773,350.252625 
	C1210.467773,360.325867 1210.467773,369.116852 1210.467773,378.948547 
	C1197.476440,378.948547 1184.968994,378.948547 1171.422852,378.948547 
	C1171.422852,412.437134 1171.422852,444.916779 1171.422852,478.022034 
	C1157.538818,478.022034 1144.713257,478.022034 1131.201660,478.022034 
	C1131.201660,405.367462 1131.201660,332.950836 1131.201660,259.934387 
	C1160.848022,259.934387 1190.354980,259.934387 1220.447754,259.934387 
	C1220.447754,268.982697 1220.447754,277.743958 1220.447754,287.463013 
	C1203.975220,287.463013 1188.129761,287.463013 1171.101562,287.463013 
	C1171.101562,291.925995 1171.101562,295.482269 1171.101440,300.032867 
z"/>
<path fill="#F7FFF5" opacity="1.000000" stroke="none" 
	d="
M998.155762,260.254425 
	C999.098877,264.348480 999.450439,267.991608 999.452698,271.634918 
	C999.487976,327.272491 999.477661,382.910065 999.477905,438.547668 
	C999.477966,442.163086 999.477844,445.778473 999.477844,450.572540 
	C1016.901306,450.572540 1033.694458,450.572540 1051.172974,450.572540 
	C1051.172974,460.193542 1051.172974,468.661835 1051.172974,477.197327 
	C1044.218628,479.015259 972.991455,479.509430 959.515625,477.698578 
	C959.515625,405.358582 959.515625,332.933685 959.515625,259.803558 
	C972.313965,259.803558 984.857910,259.803558 998.155762,260.254425 
z"/>
<path fill="#FBFFFA" opacity="1.000000" stroke="none" 
	d="
M1340.030762,797.895081 
	C1340.030762,801.842896 1340.030762,804.797058 1340.030762,809.120300 
	C1357.435059,809.738831 1374.260742,809.051575 1391.687134,809.544373 
	C1391.687134,818.464661 1391.687134,826.937317 1391.687134,835.454285 
	C1384.642822,837.482727 1310.415527,837.810120 1300.339355,835.746704 
	C1300.339355,763.611389 1300.339355,691.399658 1300.339355,617.855774 
	C1313.231201,617.472961 1325.998047,617.606262 1340.030640,617.830444 
	C1340.030640,677.886475 1340.030640,737.393982 1340.030762,797.895081 
z"/>
<path fill="#FBFFFA" opacity="1.000000" stroke="none" 
	d="
M1105.444580,376.000305 
	C1105.444580,410.311951 1105.444580,443.623596 1105.444580,476.782776 
	C1098.220947,479.004761 1078.695923,479.430695 1066.258789,477.704773 
	C1066.258789,405.254883 1066.258789,332.742554 1066.258789,259.860718 
	C1079.264648,259.860718 1091.811035,259.860718 1105.444580,259.860718 
	C1105.444580,298.560547 1105.444580,336.780426 1105.444580,376.000305 
z"/>
<path fill="#41F601" opacity="1.000000" stroke="none" 
	d="
M1717.467163,731.999634 
	C1717.467163,703.106689 1717.467163,675.213745 1717.467163,646.034729 
	C1725.545410,646.561646 1732.504639,646.451294 1739.253784,647.587830 
	C1749.413086,649.298584 1754.261475,654.643250 1755.731689,664.893555 
	C1756.486206,670.154602 1756.810669,675.521484 1756.805908,680.840088 
	C1756.776733,713.499695 1756.973511,746.166321 1756.344482,778.816162 
	C1755.880981,802.877869 1749.183472,808.785645 1725.354248,808.530701 
	C1723.093750,808.506470 1720.834717,808.330933 1717.467163,808.174011 
	C1717.467163,782.780579 1717.467163,757.890137 1717.467163,731.999634 
z"/>
<path fill="#46F607" opacity="1.000000" stroke="none" 
	d="
M1036.118896,652.132996 
	C1040.805420,659.937439 1041.339233,667.938293 1041.365967,675.918701 
	C1041.480591,710.174561 1041.507812,744.431641 1041.320435,778.686951 
	C1041.289795,784.286804 1040.601440,790.029846 1039.200806,795.443787 
	C1036.605957,805.473450 1029.346069,810.122375 1018.141235,809.899536 
	C1007.460571,809.687134 1000.749390,805.032654 998.375854,795.128723 
	C996.994812,789.365906 996.288879,783.308411 996.254456,777.377808 
	C996.060059,743.787842 996.120056,710.195984 996.210571,676.605103 
	C996.222168,672.307312 996.568970,667.946899 997.353149,663.725647 
	C1000.727661,645.559753 1018.266296,638.655884 1033.604614,649.349915 
	C1034.406738,649.909058 1034.999756,650.768188 1036.118896,652.132996 
z"/>
<path fill="#46F607" opacity="1.000000" stroke="none" 
	d="
M1469.182251,759.987061 
	C1461.032349,760.001770 1453.793457,760.001770 1445.304688,760.001770 
	C1449.892944,731.590271 1454.304810,704.270691 1459.077271,674.718323 
	C1460.436890,678.811768 1461.410400,680.821228 1461.759155,682.933838 
	C1465.593140,706.161804 1469.363892,729.400452 1473.048584,752.652527 
	C1473.500732,755.505432 1475.976196,759.529114 1469.182251,759.987061 
z"/>
</svg>