<svg version="1.1" id="Layer_1" xmlns="http://www.w3.org/2000/svg" xmlns:xlink="http://www.w3.org/1999/xlink" x="0px" y="0px"
	 width="100%" viewBox="0 0 3000 3000" enable-background="new 0 0 3000 3000" xml:space="preserve">
<path fill="#011D8C" opacity="1.000000" stroke="none" 
	d="
M2.000000,1098.000000 
	C2.000000,732.000061 2.000000,367.000122 2.000000,2.000147 
	C1001.999756,2.000098 2001.999512,2.000098 3001.999512,2.000049 
	C3001.999512,1001.999573 3001.999512,2001.999146 3001.999756,3001.999023 
	C2002.000610,3001.999512 1002.001221,3001.999512 2.000903,3001.999756 
	C2.000000,2367.666748 2.000000,1733.333374 2.000000,1098.000000 
M1479.508789,1170.311279 
	C1450.336182,1173.800903 1421.628052,1179.487793 1393.939453,1189.475952 
	C1279.278076,1230.838867 1199.272339,1308.212402 1153.630737,1421.193604 
	C1152.291626,1424.508301 1150.824707,1427.771484 1149.587646,1430.660889 
	C980.283447,1437.645020 844.095520,1549.659912 793.723572,1692.009033 
	C768.291931,1763.877686 763.672729,1837.168335 780.590820,1911.361084 
	C801.335510,2002.334961 849.633850,2076.376221 922.451172,2134.902344 
	C900.518188,2214.756592 901.639404,2293.931641 928.622192,2372.052002 
	C955.736816,2450.553955 1003.404724,2514.298828 1070.590698,2563.097900 
	C1132.829834,2608.304443 1202.700439,2633.050049 1279.454102,2637.162842 
	C1368.155518,2641.915771 1449.411743,2618.597168 1522.894653,2569.357422 
	C1669.290283,2665.593750 1844.254395,2648.334717 1961.534912,2567.977783 
	C2022.042358,2526.520508 2068.501221,2473.030762 2099.129639,2406.405518 
	C2139.493164,2318.603760 2145.824463,2227.677490 2120.874268,2134.357422 
	C2184.238525,2083.460449 2229.156494,2020.167603 2253.526855,1943.068970 
	C2277.998291,1865.649292 2278.408203,1787.704102 2254.854736,1709.951416 
	C2233.482422,1639.399048 2194.992432,1579.465454 2139.887207,1530.561157 
	C2069.552734,1468.141479 1986.930176,1435.321533 1892.905518,1430.716797 
	C1891.159302,1426.358398 1889.611572,1422.356934 1887.962036,1418.398071 
	C1838.695312,1300.148071 1753.237793,1221.411133 1630.601807,1183.864502 
	C1581.935303,1168.964722 1531.960571,1165.159546 1479.508789,1170.311279 
M651.000122,259.664673 
	C579.511292,259.664673 508.022461,259.664673 436.561554,259.664673 
	C436.561554,288.320557 436.561554,315.504059 436.561554,343.590668 
	C488.265106,343.590668 539.445618,343.590668 591.778809,343.590668 
	C551.555786,507.382721 511.608826,670.050537 471.545258,833.193298 
	C507.729126,833.193298 542.598755,833.193298 577.647888,833.193298 
	C578.489685,830.257568 579.314392,827.735901 579.935486,825.164978 
	C615.173828,679.285034 649.935730,533.287415 685.934204,387.595276 
	C695.198975,350.098999 701.334106,312.742371 698.940186,274.144867 
	C698.754822,271.156464 698.983337,268.144409 698.875244,265.148529 
	C698.817017,263.535858 698.452271,261.934296 698.132446,259.664673 
	C682.930115,259.664673 667.965088,259.664673 651.000122,259.664673 
M371.366241,810.928467 
	C371.366241,627.393860 371.366241,443.859283 371.366241,259.661713 
	C366.841583,259.661713 363.539124,259.661713 360.236664,259.661713 
	C341.905731,259.661713 323.537689,260.374146 305.256470,259.420837 
	C292.236206,258.741852 282.243561,261.953339 272.187958,270.886078 
	C255.205246,285.972351 234.563431,295.943695 214.332230,306.149658 
	C202.515625,312.110718 190.437103,317.552521 178.684845,323.129059 
	C178.684845,350.041382 178.684845,376.535400 178.684845,404.012787 
	C206.231689,394.103882 233.025238,384.465942 261.079407,374.374512 
	C261.079407,389.027893 261.079407,402.911011 261.079407,416.794159 
	C261.079407,430.459015 261.079407,444.123901 261.079407,457.788757 
	C261.079407,471.786926 261.079407,485.785065 261.079407,499.783234 
	C261.079407,513.781372 261.079407,527.779541 261.079407,541.777710 
	C261.079407,555.775879 261.079407,569.773987 261.079407,583.772156 
	C261.079407,597.437012 261.079407,611.101929 261.079407,624.766785 
	C261.079407,638.764954 261.079407,652.763062 261.079407,666.761230 
	C261.079407,680.759399 261.079407,694.757568 261.079407,708.755737 
	C261.079407,722.753906 261.079407,736.752014 261.079407,750.750183 
	C261.079407,764.415039 261.052094,778.080017 261.087067,791.744812 
	C261.122498,805.588440 261.219482,819.432007 261.288879,833.145020 
	C298.540497,833.145020 334.414459,833.145020 371.366211,833.145020 
	C371.366211,826.068909 371.366211,819.483643 371.366241,810.928467 
M2111.966797,259.421539 
	C2101.392822,259.421539 2090.819092,259.421539 2079.351562,259.421539 
	C2079.351562,290.139221 2079.351562,319.955719 2079.351562,350.896698 
	C2064.021240,351.153198 2049.618896,351.139191 2034.323975,350.914673 
	C2034.323975,319.665283 2034.323975,289.836975 2034.323975,260.171173 
	C2020.625854,260.171173 2007.844116,260.171173 1995.039551,260.171173 
	C1995.039551,333.122314 1995.039551,405.322327 1995.039551,478.050018 
	C2008.260132,478.050018 2021.057007,478.050018 2034.908203,478.050018 
	C2034.908203,445.141785 2034.908203,412.736176 2034.908203,380.174500 
	C2050.182129,380.174500 2064.397217,380.174500 2079.602539,380.174500 
	C2079.602539,413.101349 2079.602539,445.557281 2079.602539,478.577393 
	C2093.389160,478.463470 2106.176758,478.815033 2118.948486,478.374115 
	C2118.948486,404.852142 2118.948486,332.652344 2118.948486,260.068787 
	C2116.962158,259.823212 2115.358643,259.624969 2111.966797,259.421539 
M1340.390381,468.630585 
	C1331.288330,436.065155 1322.186401,403.499725 1313.032104,370.747314 
	C1326.820557,364.345581 1333.942505,354.031342 1336.922119,340.575012 
	C1340.064575,326.383972 1340.361816,312.113068 1337.276855,297.940094 
	C1333.751709,281.745453 1324.081909,270.307068 1308.322266,265.030060 
	C1300.521118,262.417877 1292.175049,260.441223 1284.000977,260.129486 
	C1263.371826,259.342804 1242.700439,259.649048 1222.045776,259.588287 
	C1221.164551,259.585693 1220.281250,260.292084 1219.484009,260.631989 
	C1217.513916,291.550629 1218.484375,470.541351 1220.770752,478.576752 
	C1233.436646,478.407440 1246.231201,478.883423 1259.769531,478.273468 
	C1259.769531,444.364319 1259.769531,411.810913 1259.769531,379.089539 
	C1265.807007,379.089539 1271.016479,379.089539 1276.817017,379.089539 
	C1285.584351,412.387024 1294.265747,445.358032 1303.009766,478.566895 
	C1316.715698,478.396301 1329.505493,478.984863 1342.819946,478.187439 
	C1341.965454,474.683838 1341.421387,472.453461 1340.390381,468.630585 
M2083.615723,816.441345 
	C2090.319336,805.746582 2093.980957,793.918823 2094.117188,781.473511 
	C2094.510986,745.528198 2094.653320,709.569458 2094.026855,673.631226 
	C2093.874268,664.876953 2091.206055,655.894287 2088.263184,647.519592 
	C2082.678955,631.629150 2071.051025,621.826172 2054.627930,617.802307 
	C2040.488525,614.338013 2026.226074,614.338074 2012.033813,616.959229 
	C1990.458740,620.943909 1977.089722,634.232117 1972.088379,655.262146 
	C1969.723511,665.206238 1968.531128,675.622925 1968.343262,685.853699 
	C1967.841553,713.149963 1968.017456,740.462952 1968.267944,767.766174 
	C1968.341064,775.721375 1969.026001,783.759277 1970.368164,791.598755 
	C1975.296265,820.381348 1990.079346,835.113342 2019.051514,838.784546 
	C2029.114258,840.059631 2039.656494,839.233887 2049.785156,837.894897 
	C2063.485840,836.083496 2074.919189,829.501282 2083.615723,816.441345 
M1514.174438,699.000000 
	C1514.174438,744.594116 1514.174438,790.188232 1514.174438,836.353760 
	C1527.734009,836.353760 1540.573853,836.353760 1554.508057,836.353760 
	C1554.508057,803.430420 1554.508057,770.965698 1554.508057,738.645142 
	C1569.772339,738.645142 1583.935181,738.645142 1598.892090,738.645142 
	C1598.892090,771.495544 1598.892090,803.686401 1598.892090,836.202881 
	C1612.455322,836.202881 1625.192993,836.202881 1637.882812,836.202881 
	C1637.882812,763.046875 1637.882812,690.619080 1637.882812,618.158081 
	C1624.663330,618.158081 1612.137207,618.158081 1598.623779,618.158081 
	C1598.623779,628.561218 1598.623901,638.477234 1598.623901,648.393250 
	C1598.623901,658.721680 1598.813354,669.054504 1598.569214,679.377197 
	C1598.337280,689.187073 1599.658569,699.098022 1597.585327,709.431030 
	C1590.049561,709.431030 1583.095337,709.474854 1576.141968,709.418945 
	C1568.958252,709.361084 1561.775391,709.206360 1553.807495,709.081726 
	C1553.807495,678.012085 1553.807495,648.161804 1553.807495,618.409790 
	C1540.204712,618.409790 1527.445190,618.409790 1514.174438,618.409790 
	C1514.174438,645.108154 1514.174438,671.054077 1514.174438,699.000000 
M1280.522461,796.534546 
	C1284.112305,809.905701 1287.702026,823.276855 1291.366333,836.925781 
	C1298.614136,836.925781 1304.910767,836.986145 1311.205811,836.909119 
	C1317.650757,836.830200 1324.094116,836.616760 1331.340820,836.442993 
	C1321.080688,799.839600 1311.235840,764.717896 1301.259033,729.125244 
	C1314.680054,723.098999 1321.955200,712.887939 1325.050049,699.495361 
	C1328.398560,685.004517 1328.787720,670.422791 1325.473877,655.924683 
	C1321.974243,640.613586 1312.959106,629.632568 1298.146118,623.926575 
	C1293.523193,622.145874 1288.667603,620.297485 1283.808350,619.927673 
	C1268.902344,618.793335 1253.948486,618.184753 1239.002441,617.717041 
	C1228.797363,617.397644 1218.574097,617.655945 1208.141602,617.655945 
	C1208.141602,691.179810 1208.141602,763.617371 1208.141602,836.280640 
	C1221.477417,836.280640 1234.311646,836.280640 1248.170166,836.280640 
	C1248.170166,802.873535 1248.170166,770.100281 1248.170166,737.590881 
	C1254.425415,737.590881 1259.633423,737.590881 1265.195923,737.590881 
	C1270.268677,757.058716 1275.204956,776.002502 1280.522461,796.534546 
M1788.836060,412.287872 
	C1794.660522,434.347137 1800.485107,456.406403 1806.214111,478.104126 
	C1820.148560,478.104126 1832.728760,478.104126 1846.345215,478.104126 
	C1836.244385,442.030731 1826.336914,406.647949 1816.292725,370.776672 
	C1832.187500,363.797058 1839.333496,350.888855 1841.140503,335.253784 
	C1842.392334,324.421631 1842.632446,313.197205 1841.293213,302.400024 
	C1838.740845,281.823822 1826.556885,268.633026 1806.469238,263.250885 
	C1800.396973,261.623962 1794.072998,260.242981 1787.829224,260.078400 
	C1767.512085,259.542969 1747.178711,259.609131 1726.851318,259.497833 
	C1725.611084,259.491028 1724.368408,259.953003 1722.979004,260.225922 
	C1722.979004,333.057831 1722.979004,405.506744 1722.979004,478.159302 
	C1736.203247,478.159302 1748.759399,478.159302 1762.441650,478.159302 
	C1762.441650,444.992310 1762.441650,412.210114 1762.441650,379.011902 
	C1768.793213,379.011902 1774.021240,379.011902 1780.087402,379.011902 
	C1782.838867,389.566589 1785.596191,400.143219 1788.836060,412.287872 
M1061.276733,666.468140 
	C1060.858521,670.764404 1060.093262,675.059509 1060.077881,679.357178 
	C1059.967041,710.304565 1059.880615,741.253479 1060.099609,772.199646 
	C1060.148804,779.141724 1060.891235,786.183960 1062.253418,792.992310 
	C1066.596436,814.703003 1077.255981,831.316528 1100.193359,837.097900 
	C1115.310059,840.908020 1130.542358,840.915100 1145.651367,837.177368 
	C1161.919434,833.152710 1173.883667,823.403931 1179.558350,807.626343 
	C1182.887939,798.369141 1185.580078,788.342468 1185.791870,778.601746 
	C1186.536743,744.343872 1186.580688,710.048279 1185.777832,675.793091 
	C1185.542236,665.740967 1182.665894,655.385376 1179.135254,645.859924 
	C1173.578491,630.868164 1162.024170,621.653992 1146.389526,617.871460 
	C1131.604370,614.294495 1116.750488,614.325378 1101.890259,617.390381 
	C1082.415649,621.407227 1070.345459,633.546082 1064.366821,652.102539 
	C1063.049561,656.190979 1062.476318,660.519165 1061.276733,666.468140 
M1586.154175,329.000031 
	C1586.154175,306.112549 1586.154175,283.225067 1586.154175,260.064056 
	C1574.708984,260.064056 1564.274170,260.064056 1552.854492,260.064056 
	C1552.854492,299.426178 1552.854492,338.174805 1552.854492,376.923401 
	C1552.139160,377.088043 1551.423828,377.252686 1550.708496,377.417328 
	C1533.741699,338.280243 1516.774902,299.143158 1499.768921,259.915955 
	C1490.514282,259.915955 1481.658813,259.915955 1472.343628,259.915955 
	C1472.343628,332.812622 1472.343628,405.230530 1472.343628,477.965698 
	C1483.617065,477.965698 1494.387939,477.965698 1506.013672,477.965698 
	C1506.013672,436.329529 1506.013672,395.278931 1506.013672,354.228333 
	C1506.646851,354.083099 1507.280029,353.937836 1507.913208,353.792603 
	C1525.215820,395.320221 1542.518555,436.847809 1559.699707,478.083923 
	C1568.784790,478.083923 1576.996948,478.083923 1586.154175,478.083923 
	C1586.154175,428.740936 1586.154175,379.870514 1586.154175,329.000031 
M1890.175049,733.243774 
	C1890.175049,739.129089 1890.175049,745.014404 1890.175049,751.768188 
	C1898.578003,751.768188 1905.761597,751.768188 1913.503662,751.768188 
	C1913.891968,765.245239 1914.790527,777.809021 1911.957153,790.262329 
	C1911.442993,792.521912 1910.723511,794.768494 1909.811401,796.897888 
	C1905.716797,806.455750 1898.455322,810.603638 1887.374512,809.859619 
	C1876.983276,809.161926 1870.850830,804.270874 1868.415649,793.832581 
	C1867.138062,788.356201 1866.286865,782.645508 1866.255981,777.035095 
	C1866.067017,742.706848 1866.071411,708.376465 1866.275513,674.048279 
	C1866.306763,668.780884 1867.217163,663.390198 1868.592407,658.291626 
	C1870.342163,651.804199 1874.630371,647.509155 1881.513062,645.743896 
	C1897.585205,641.621643 1908.521729,649.053345 1909.921753,665.571167 
	C1910.343262,670.542297 1910.166870,675.562439 1910.326172,680.558167 
	C1910.419067,683.467041 1910.634399,686.371948 1910.817627,689.696960 
	C1923.575928,689.696960 1935.740845,689.696960 1948.949585,689.696960 
	C1948.719360,677.682434 1948.886841,666.170593 1946.251343,654.713013 
	C1941.410889,633.669678 1928.736694,620.750793 1907.407959,616.828491 
	C1894.857178,614.520447 1882.156982,614.440857 1869.613525,616.714539 
	C1850.642578,620.153259 1837.900269,631.143494 1831.415039,649.426392 
	C1827.121216,661.530884 1825.679565,674.025269 1825.661865,686.749817 
	C1825.623779,714.081848 1825.268066,741.421875 1825.839600,768.742004 
	C1826.060303,779.296143 1827.390015,790.079041 1830.045166,800.281372 
	C1836.980835,826.930969 1854.083740,839.481812 1881.588867,840.018433 
	C1897.479126,840.328369 1910.323608,835.308472 1918.461304,820.889832 
	C1918.879395,820.148743 1919.813232,819.698730 1921.175415,818.549072 
	C1922.239014,824.891174 1923.197144,830.604187 1924.160400,836.347412 
	C1932.951294,836.347412 1941.150269,836.347412 1949.351685,836.347412 
	C1949.351685,799.266724 1949.351685,762.771179 1949.351685,725.674622 
	C1930.769897,725.674622 1912.813354,725.743225 1894.858154,725.624634 
	C1890.560425,725.596252 1889.899902,727.941101 1890.175049,733.243774 
M1115.923096,266.976685 
	C1101.641724,337.192535 1087.360229,407.408386 1072.971924,478.149719 
	C1086.347534,478.149719 1098.217773,478.149719 1110.747192,478.149719 
	C1113.821655,461.352112 1116.845703,444.830231 1119.853882,428.394775 
	C1132.903687,428.394775 1145.086426,428.394775 1157.494263,428.394775 
	C1160.498901,445.205994 1163.411865,461.503906 1166.331299,477.837677 
	C1178.927002,477.837677 1190.986206,477.837677 1203.620728,477.837677 
	C1188.757446,404.558899 1174.061157,332.103668 1159.321411,259.433960 
	C1146.232178,259.433960 1134.261841,259.596191 1122.299927,259.350922 
	C1117.771362,259.258026 1116.526123,261.625366 1115.923096,266.976685 
M2120.915527,755.734924 
	C2115.537598,782.380859 2110.159668,809.026733 2104.653076,836.311035 
	C2117.757812,836.311035 2129.839844,836.311035 2142.349854,836.311035 
	C2145.481445,819.302734 2148.519043,802.804443 2151.490479,786.666138 
	C2164.743652,786.666138 2176.631836,786.666138 2189.005371,786.666138 
	C2192.083496,803.603210 2195.090576,820.149658 2198.140137,836.929993 
	C2205.055664,836.929993 2211.040283,836.994202 2217.022705,836.911682 
	C2222.810059,836.831848 2228.595215,836.600830 2235.231201,836.412048 
	C2220.303955,762.749695 2205.665527,690.513367 2191.054932,618.414001 
	C2176.394043,618.414001 2162.599121,618.414001 2148.819824,618.414001 
	C2139.575195,664.128052 2130.478027,709.112671 2120.915527,755.734924 
M2314.884766,270.017273 
	C2304.653564,262.094727 2292.765381,259.521210 2280.172363,259.465332 
	C2260.508545,259.378113 2240.844482,259.414551 2221.180420,259.452545 
	C2219.249268,259.456268 2217.318604,259.835968 2215.257568,260.054993 
	C2215.257568,332.935242 2215.257568,405.369293 2215.257568,477.947571 
	C2228.725342,477.947571 2241.545166,477.947571 2254.939941,477.947571 
	C2254.939941,466.697357 2254.939697,456.069153 2254.939697,445.440918 
	C2254.939697,434.442413 2254.798096,423.441528 2254.980469,412.446045 
	C2255.154297,401.965790 2254.126953,391.400513 2255.834229,380.091034 
	C2266.762207,380.091034 2276.795166,380.744751 2286.714844,379.963104 
	C2311.988525,377.971588 2327.795410,363.490601 2332.536133,338.838623 
	C2335.219482,324.885284 2334.659180,310.946014 2331.398926,297.201050 
	C2328.973389,286.975555 2324.252441,277.851501 2314.884766,270.017273 
M1936.010376,442.269409 
	C1926.337524,453.885681 1911.468750,453.286682 1903.806274,440.468079 
	C1900.974854,435.731384 1899.429932,430.078308 1898.072388,424.649567 
	C1896.724976,419.261078 1896.351440,413.629028 1895.410645,407.136566 
	C1883.769531,409.625305 1872.636719,412.005371 1861.595703,414.365814 
	C1861.529907,428.560333 1864.036255,440.814819 1869.630249,452.419830 
	C1876.788330,467.269348 1888.698853,476.157928 1904.575195,479.651428 
	C1915.064331,481.959503 1925.660034,482.195465 1936.328735,480.053986 
	C1957.552002,475.794037 1973.677734,458.486267 1976.350342,436.882751 
	C1979.282227,413.183868 1972.489624,392.501495 1956.033569,375.518097 
	C1945.161743,364.297882 1932.983276,354.349945 1921.505249,343.707794 
	C1916.140381,338.733368 1910.679321,333.781982 1905.921753,328.252441 
	C1899.172852,320.408752 1897.740601,310.931702 1899.792847,300.988220 
	C1901.274658,293.808685 1905.716553,289.323517 1913.040771,287.737885 
	C1924.151855,285.332458 1932.356323,289.552582 1935.533203,300.460602 
	C1937.548340,307.379944 1938.245728,314.683044 1939.707397,322.772919 
	C1950.882080,320.556946 1961.801758,318.391571 1972.786743,316.213226 
	C1972.581421,304.386780 1970.309937,294.107574 1965.963623,284.255768 
	C1960.218018,271.231720 1950.574341,262.657837 1936.769409,259.110779 
	C1921.158203,255.099579 1905.697754,255.798965 1890.731079,261.963531 
	C1878.046265,267.188293 1868.630859,276.265991 1864.863647,289.437103 
	C1857.856567,313.935150 1860.170532,337.070251 1878.733032,356.409698 
	C1884.487793,362.405396 1890.930176,367.746857 1897.125122,373.312836 
	C1906.543579,381.775055 1916.457275,389.738495 1925.364624,398.704437 
	C1936.931885,410.347900 1941.642334,424.384949 1936.010376,442.269409 
M2449.653076,460.509308 
	C2464.424072,437.201599 2462.270264,413.736877 2449.731689,390.528320 
	C2443.656494,379.283264 2434.573975,370.348114 2425.002197,361.957825 
	C2414.234863,352.519348 2403.441895,343.104950 2392.878906,333.440674 
	C2384.214600,325.513519 2380.493408,315.542084 2381.784912,303.755890 
	C2382.809570,294.404846 2388.240479,288.731018 2397.677002,287.379395 
	C2407.121094,286.026672 2414.112061,289.844482 2417.450928,298.707153 
	C2418.842773,302.402344 2419.456543,306.411713 2420.213867,310.318970 
	C2420.956543,314.152618 2421.432617,318.037964 2422.168457,322.829315 
	C2433.683350,320.520782 2444.573486,318.337463 2455.804932,316.085754 
	C2454.687256,304.458374 2452.916016,294.115875 2448.482910,284.251251 
	C2442.637207,271.243988 2433.101318,262.696259 2419.312256,259.124817 
	C2404.059326,255.174179 2388.914307,255.732239 2374.234619,261.591003 
	C2358.933594,267.697723 2349.137451,278.894531 2345.762451,295.107788 
	C2340.676514,319.540649 2345.110596,341.544830 2363.929443,359.165100 
	C2373.891357,368.492340 2384.425293,377.205872 2394.601318,386.307892 
	C2399.809814,390.966797 2405.228027,395.497131 2409.796875,400.743073 
	C2418.977295,411.284576 2423.560059,423.484222 2420.186768,437.628174 
	C2418.184082,446.025360 2413.020264,449.871155 2404.550781,450.316345 
	C2396.411377,450.744110 2389.814941,447.600494 2386.336914,440.485443 
	C2383.324951,434.324738 2381.715332,427.422485 2379.961182,420.723480 
	C2378.894287,416.648163 2378.729736,412.336639 2378.030762,407.182098 
	C2366.364258,409.611542 2355.440674,411.886292 2344.711182,414.120575 
	C2342.229004,441.402374 2355.521484,467.212433 2376.636475,476.161530 
	C2399.051758,485.661804 2431.894287,483.894165 2449.653076,460.509308 
M2400.165527,646.022278 
	C2415.190186,644.812256 2420.949707,648.902283 2424.095947,663.441101 
	C2425.277832,668.902222 2425.894775,674.485657 2426.937256,681.078064 
	C2438.062988,678.910522 2448.967773,676.786072 2459.986328,674.639465 
	C2460.297607,663.235229 2457.704590,653.339172 2453.804199,643.728394 
	C2447.668213,628.610229 2436.268066,619.536804 2420.488281,616.515015 
	C2407.943848,614.112854 2395.231201,614.419312 2382.930664,618.406006 
	C2368.132812,623.201843 2356.827148,632.457031 2352.280518,647.532471 
	C2344.770752,672.433167 2347.729736,695.687866 2366.507324,715.285828 
	C2370.187744,719.127014 2374.210693,722.650940 2378.192383,726.190186 
	C2389.149658,735.929932 2400.350830,745.402893 2411.109619,755.355652 
	C2421.103027,764.600525 2426.552490,776.089294 2425.984375,789.997131 
	C2425.595703,799.513123 2421.400635,805.935303 2414.371094,807.931213 
	C2405.307129,810.504883 2396.579102,807.670105 2391.675049,799.690796 
	C2389.111816,795.520569 2387.242432,790.715698 2386.072510,785.948792 
	C2384.505615,779.563171 2383.920166,772.936707 2382.772705,765.502747 
	C2371.300781,767.911865 2360.076904,770.268860 2348.543945,772.690735 
	C2349.208252,786.888428 2351.248779,799.885742 2357.535889,811.933228 
	C2363.843018,824.018921 2373.340088,832.369690 2386.458496,836.406006 
	C2398.449951,840.095398 2410.576660,840.963989 2422.945801,838.411011 
	C2444.202637,834.023804 2459.712646,819.094055 2463.313232,797.895874 
	C2466.298340,780.318726 2464.205078,763.030884 2453.899658,748.058411 
	C2447.537109,738.814087 2439.855713,730.319519 2431.868652,722.393250 
	C2422.899170,713.492065 2412.753906,705.788208 2403.446533,697.209473 
	C2398.826660,692.951355 2394.214844,688.362610 2390.862549,683.116272 
	C2382.855713,670.585815 2384.475098,650.235657 2400.165527,646.022278 
M979.074341,259.432220 
	C973.157349,259.432220 967.240356,259.432220 960.856323,259.432220 
	C960.856323,332.828644 960.856323,405.238617 960.856323,478.002838 
	C974.193909,478.002838 986.984131,478.002838 1000.936157,478.002838 
	C1000.936157,445.372864 1000.936157,413.290833 1000.936157,380.044983 
	C1012.368408,380.044983 1022.702393,380.737915 1032.911865,379.904755 
	C1056.162598,378.007385 1072.472778,364.494873 1077.455688,343.340027 
	C1081.258179,327.197235 1081.007324,310.950134 1076.396606,294.947296 
	C1070.346680,273.949463 1055.751221,261.963470 1033.987549,259.950378 
	C1029.685059,259.552429 1025.342163,259.475403 1021.017090,259.455566 
	C1007.695374,259.394379 994.373169,259.432587 979.074341,259.432220 
M1652.913818,427.003265 
	C1652.913818,411.138885 1652.913818,395.274506 1652.913818,378.182251 
	C1667.399536,378.182251 1680.500366,378.182251 1693.444946,378.182251 
	C1693.444946,368.373322 1693.444946,359.843536 1693.444946,350.241486 
	C1679.796997,350.241486 1666.641968,350.241486 1653.475708,350.241486 
	C1653.475708,328.985107 1653.475708,308.823303 1653.475708,287.925476 
	C1670.583862,287.925476 1687.146484,287.925476 1704.606079,287.925476 
	C1704.837524,278.117188 1705.623291,269.058716 1704.161011,260.058960 
	C1673.521362,260.058960 1643.692505,260.058960 1613.823975,260.058960 
	C1613.823975,333.090790 1613.823975,405.506897 1613.823975,477.855286 
	C1644.699341,477.855286 1674.831909,477.855286 1704.996826,477.855286 
	C1704.996826,468.709717 1704.996826,460.278687 1704.996826,450.810211 
	C1687.510986,450.810211 1670.679321,450.810211 1652.913818,450.810211 
	C1652.913818,442.853424 1652.913818,435.931396 1652.913818,427.003265 
M1703.824463,692.924805 
	C1703.824463,677.422058 1703.824463,661.919312 1703.824463,645.667969 
	C1721.840332,645.667969 1738.368530,645.667969 1755.274780,645.667969 
	C1755.274780,636.077698 1755.274780,627.282837 1755.274780,618.313110 
	C1724.621216,618.313110 1694.521729,618.313110 1664.530029,618.313110 
	C1664.530029,691.391296 1664.530029,763.808899 1664.530029,836.220703 
	C1695.351807,836.220703 1725.479492,836.220703 1755.513306,836.220703 
	C1755.513306,826.997009 1755.513306,818.496887 1755.513306,809.432190 
	C1746.583008,809.432190 1738.289185,809.432190 1729.995483,809.432190 
	C1721.438354,809.432190 1712.881348,809.432190 1704.616699,809.432190 
	C1704.616699,784.618958 1704.616699,761.175354 1704.616699,736.825378 
	C1718.248047,736.825378 1731.091309,736.825378 1743.901489,736.825378 
	C1743.901489,727.088806 1743.901489,718.268860 1743.901489,708.549683 
	C1730.415527,708.549683 1717.568726,708.549683 1703.824463,708.549683 
	C1703.824463,703.420593 1703.824463,699.164307 1703.824463,692.924805 
M1460.254883,261.953491 
	C1458.385742,257.582581 1454.510498,259.532806 1451.569214,259.519318 
	C1419.917725,259.373962 1388.265381,259.417969 1356.613281,259.448120 
	C1353.990112,259.450623 1351.367188,259.729736 1348.454712,259.896973 
	C1348.454712,269.515381 1348.454712,278.715668 1348.454712,289.242279 
	C1360.611206,289.242279 1372.378418,289.242279 1385.029663,289.242279 
	C1385.029663,353.000946 1385.029663,415.437225 1385.029663,477.907959 
	C1398.818970,477.907959 1411.635010,477.907959 1425.381958,477.907959 
	C1425.381958,414.775085 1425.381958,352.300537 1425.381958,288.759094 
	C1437.454468,288.759094 1448.601685,288.759094 1460.339355,288.759094 
	C1460.339355,279.724945 1460.339355,271.756897 1460.254883,261.953491 
M1020.995056,617.654724 
	C1001.097717,617.654724 981.200439,617.654724 960.816040,617.654724 
	C960.816040,691.028015 960.816040,763.441650 960.816040,836.391602 
	C974.056091,836.391602 986.893372,836.391602 1000.728394,836.391602 
	C1000.728394,803.433228 1000.728394,770.937134 1000.728394,737.324829 
	C1014.488098,737.324829 1027.277832,737.324829 1039.867676,737.324829 
	C1039.867676,727.366455 1039.867676,718.561340 1039.867676,708.835693 
	C1026.651245,708.835693 1014.111084,708.835693 1001.134583,708.835693 
	C1001.134583,687.429932 1001.134583,666.964600 1001.134583,645.368164 
	C1017.793762,645.368164 1033.918091,645.368164 1050.123047,645.368164 
	C1050.123047,635.689636 1050.123047,627.149841 1050.123047,617.654724 
	C1040.800903,617.654724 1031.896118,617.654724 1020.995056,617.654724 
M1467.220581,836.537415 
	C1467.785767,833.062073 1468.837036,829.587585 1468.843506,826.111206 
	C1468.946411,770.458557 1468.916382,714.805725 1468.916382,659.152893 
	C1468.916382,655.577637 1468.916260,652.002380 1468.916260,647.440002 
	C1481.043701,647.440002 1492.228149,647.440002 1503.904297,647.440002 
	C1503.904297,637.038269 1503.904297,627.649109 1503.904297,618.324219 
	C1466.452393,618.324219 1429.658569,618.324219 1392.782837,618.324219 
	C1392.782837,628.137634 1392.782837,637.280701 1392.782837,647.671631 
	C1405.131226,647.671631 1416.928345,647.671631 1429.049683,647.671631 
	C1429.159668,711.412659 1428.986938,773.896606 1429.151489,836.853027 
	C1442.219482,836.853027 1453.852783,836.853027 1467.220581,836.537415 
M2328.777832,809.433594 
	C2315.588867,809.419373 2302.400146,809.405090 2288.382324,809.389954 
	C2288.382324,744.771973 2288.382324,681.615479 2288.382324,617.655945 
	C2281.260742,617.655945 2274.998047,617.655945 2268.735352,617.655945 
	C2262.183105,617.655945 2255.631104,617.655945 2248.967285,617.655945 
	C2248.967285,691.276428 2248.967285,763.691650 2248.967285,836.967285 
	C2280.050781,836.684326 2310.482666,837.426758 2340.882812,836.501282 
	C2340.882812,827.008423 2340.882812,818.774841 2340.882812,809.433594 
	C2337.170166,809.433594 2333.939453,809.433594 2328.777832,809.433594 
M2187.384277,399.000305 
	C2187.384277,352.812622 2187.384277,306.624969 2187.384277,260.061737 
	C2173.719482,260.061737 2160.969727,260.061737 2148.213867,260.061737 
	C2148.213867,333.114563 2148.213867,405.524994 2148.213867,478.091370 
	C2161.336426,478.091370 2173.878906,478.091370 2187.384277,478.091370 
	C2187.384277,452.077362 2187.384277,426.538879 2187.384277,399.000305 
z"/>
<path fill="#FDFDFE" opacity="1.000000" stroke="none" 
	d="
M1480.415039,1170.249023 
	C1531.960571,1165.159546 1581.935303,1168.964722 1630.601807,1183.864502 
	C1753.237793,1221.411133 1838.695312,1300.148071 1887.962036,1418.398071 
	C1889.611572,1422.356934 1891.159302,1426.358398 1892.905518,1430.716797 
	C1986.930176,1435.321533 2069.552734,1468.141479 2139.887207,1530.561157 
	C2194.992432,1579.465454 2233.482422,1639.399048 2254.854736,1709.951416 
	C2278.408203,1787.704102 2277.998291,1865.649292 2253.526855,1943.068970 
	C2229.156494,2020.167603 2184.238525,2083.460449 2120.874268,2134.357422 
	C2145.824463,2227.677490 2139.493164,2318.603760 2099.129639,2406.405518 
	C2068.501221,2473.030762 2022.042358,2526.520508 1961.534912,2567.977783 
	C1844.254395,2648.334717 1669.290283,2665.593750 1522.894653,2569.357422 
	C1449.411743,2618.597168 1368.155518,2641.915771 1279.454102,2637.162842 
	C1202.700439,2633.050049 1132.829834,2608.304443 1070.590698,2563.097900 
	C1003.404724,2514.298828 955.736816,2450.553955 928.622192,2372.052002 
	C901.639404,2293.931641 900.518188,2214.756592 922.451172,2134.902344 
	C849.633850,2076.376221 801.335510,2002.334961 780.590820,1911.361084 
	C763.672729,1837.168335 768.291931,1763.877686 793.723572,1692.009033 
	C844.095520,1549.659912 980.283447,1437.645020 1149.587646,1430.660889 
	C1150.824707,1427.771484 1152.291626,1424.508301 1153.630737,1421.193604 
	C1199.272339,1308.212402 1279.278076,1230.838867 1393.939453,1189.475952 
	C1421.628052,1179.487793 1450.336182,1173.800903 1480.415039,1170.249023 
M1445.914795,1549.084717 
	C1476.767456,1580.478882 1501.469360,1616.202515 1521.296753,1657.383545 
	C1549.501343,1598.891235 1588.356201,1550.563721 1638.855469,1511.792236 
	C1689.296997,1473.065186 1746.080322,1448.373169 1808.622437,1436.544800 
	C1766.971069,1335.787964 1652.896851,1237.921509 1498.780640,1248.562500 
	C1428.039795,1253.446655 1365.916138,1280.256714 1312.785889,1327.313721 
	C1278.528198,1357.655396 1252.203979,1393.805176 1233.460693,1436.454224 
	C1316.222778,1452.322144 1386.445679,1489.160645 1445.914795,1549.084717 
M1050.623779,1531.566162 
	C934.932800,1576.968018 857.004211,1684.671021 850.627686,1809.123047 
	C847.535339,1869.477173 861.354980,1926.145264 891.253540,1978.746460 
	C907.920410,2008.068604 928.602722,2034.133179 954.379700,2056.962891 
	C985.948303,2000.027466 1027.536743,1953.924194 1080.297119,1918.058105 
	C1132.836426,1882.342407 1190.900879,1860.963501 1255.077637,1852.760620 
	C1158.152222,1758.481689 1116.791138,1645.441895 1130.119019,1512.649292 
	C1111.843384,1512.941406 1081.548218,1520.105591 1050.623779,1531.566162 
M1004.759277,2184.194092 
	C1001.217224,2182.754639 997.675110,2181.315186 994.051086,2179.842529 
	C970.318848,2280.059570 1002.204102,2414.533447 1116.028931,2497.874268 
	C1224.478027,2577.279297 1362.879150,2573.484131 1458.092407,2515.023682 
	C1368.215942,2417.041748 1333.153564,2302.309082 1353.801514,2170.399414 
	C1239.626221,2228.410889 1124.012085,2234.610352 1004.759277,2184.194092 
M2083.902832,1587.058716 
	C2034.579590,1544.722046 1977.777588,1519.643799 1912.376099,1511.921021 
	C1925.881958,1644.455444 1884.976807,1756.594238 1790.489990,1850.054321 
	C1923.821167,1870.808594 2022.669800,1939.469482 2089.803223,2056.253906 
	C2097.410156,2048.439453 2105.166748,2041.196289 2112.100098,2033.236084 
	C2178.580322,1956.912598 2204.252441,1868.493164 2187.294678,1768.829102 
	C2175.020752,1696.692627 2139.669678,1636.626465 2083.902832,1587.058716 
M2020.743286,2385.739502 
	C2054.152832,2320.443604 2063.748779,2251.929443 2049.778320,2179.398682 
	C1927.113159,2234.218262 1807.195312,2231.080078 1688.284546,2169.998291 
	C1709.659912,2301.050293 1676.255493,2415.659668 1587.517090,2514.540771 
	C1589.631714,2515.848145 1591.193359,2516.941895 1592.864746,2517.828857 
	C1660.426636,2553.678223 1731.835205,2565.097900 1806.622192,2548.671143 
	C1902.274414,2527.660645 1973.074097,2472.829346 2020.743286,2385.739502 
M1906.182739,2137.572998 
	C1947.172974,2133.314453 1986.151978,2122.494629 2022.627808,2102.970215 
	C1944.842651,1940.919800 1745.132935,1882.044556 1596.884033,1963.507446 
	C1598.325073,1966.437866 1599.677612,1969.446899 1601.245972,1972.338989 
	C1629.708740,2024.825195 1669.564697,2066.361328 1721.184204,2096.412598 
	C1777.851929,2129.402588 1839.112305,2142.390381 1906.182739,2137.572998 
M1465.854980,2090.882568 
	C1393.644653,2222.768555 1428.757935,2378.328125 1522.812012,2465.462891 
	C1650.781006,2341.652344 1642.336914,2132.490234 1519.183350,2019.738281 
	C1498.231934,2040.463013 1480.932739,2063.916016 1465.854980,2090.882568 
M1435.743408,1982.659058 
	C1438.778198,1976.913818 1441.812988,1971.168579 1444.830078,1965.456787 
	C1291.699341,1883.845215 1097.054077,1947.406494 1021.153564,2103.155029 
	C1022.808167,2104.164307 1024.418335,2105.333252 1026.179199,2106.193604 
	C1089.322266,2137.037598 1155.627197,2146.583252 1224.452759,2132.742432 
	C1316.292358,2114.273193 1386.087891,2063.631836 1435.743408,1982.659058 
M1247.311890,1715.654785 
	C1298.538086,1803.127441 1374.398315,1854.732300 1473.946655,1872.816528 
	C1505.276123,1706.423706 1380.533325,1535.003784 1211.555420,1514.994873 
	C1200.510864,1569.404175 1208.482178,1646.681885 1247.311890,1715.654785 
M1568.393433,1769.597290 
	C1562.873291,1803.605957 1561.673218,1837.598999 1567.911743,1871.652832 
	C1634.762207,1864.519165 1726.245728,1821.736206 1784.288940,1734.115234 
	C1834.367554,1658.517212 1843.728516,1563.936157 1830.162598,1514.432739 
	C1829.502075,1514.396118 1828.820190,1514.232910 1828.184204,1514.340942 
	C1758.955688,1526.095581 1699.720825,1556.962769 1651.041748,1607.621338 
	C1607.640137,1652.788086 1580.505249,1706.440430 1568.393433,1769.597290 
z"/>
<path fill="#FDFEFE" opacity="1.000000" stroke="none" 
	d="
M652.000122,259.664673 
	C667.965088,259.664673 682.930115,259.664673 698.132446,259.664673 
	C698.452271,261.934296 698.817017,263.535858 698.875244,265.148529 
	C698.983337,268.144409 698.754822,271.156464 698.940186,274.144867 
	C701.334106,312.742371 695.198975,350.098999 685.934204,387.595276 
	C649.935730,533.287415 615.173828,679.285034 579.935486,825.164978 
	C579.314392,827.735901 578.489685,830.257568 577.647888,833.193298 
	C542.598755,833.193298 507.729126,833.193298 471.545258,833.193298 
	C511.608826,670.050537 551.555786,507.382721 591.778809,343.590668 
	C539.445618,343.590668 488.265106,343.590668 436.561554,343.590668 
	C436.561554,315.504059 436.561554,288.320557 436.561554,259.664673 
	C508.022461,259.664673 579.511292,259.664673 652.000122,259.664673 
z"/>
<path fill="#FDFDFE" opacity="1.000000" stroke="none" 
	d="
M371.366211,811.913452 
	C371.366211,819.483643 371.366211,826.068909 371.366211,833.145020 
	C334.414459,833.145020 298.540497,833.145020 261.288879,833.145020 
	C261.219482,819.432007 261.122498,805.588440 261.087067,791.744812 
	C261.052094,778.080017 261.079407,764.415039 261.079407,750.750183 
	C261.079407,736.752014 261.079407,722.753906 261.079407,708.755737 
	C261.079407,694.757568 261.079407,680.759399 261.079407,666.761230 
	C261.079407,652.763062 261.079407,638.764954 261.079407,624.766785 
	C261.079407,611.101929 261.079407,597.437012 261.079407,583.772156 
	C261.079407,569.773987 261.079407,555.775879 261.079407,541.777710 
	C261.079407,527.779541 261.079407,513.781372 261.079407,499.783234 
	C261.079407,485.785065 261.079407,471.786926 261.079407,457.788757 
	C261.079407,444.123901 261.079407,430.459015 261.079407,416.794159 
	C261.079407,402.911011 261.079407,389.027893 261.079407,374.374512 
	C233.025238,384.465942 206.231689,394.103882 178.684845,404.012787 
	C178.684845,376.535400 178.684845,350.041382 178.684845,323.129059 
	C190.437103,317.552521 202.515625,312.110718 214.332230,306.149658 
	C234.563431,295.943695 255.205246,285.972351 272.187958,270.886078 
	C282.243561,261.953339 292.236206,258.741852 305.256470,259.420837 
	C323.537689,260.374146 341.905731,259.661713 360.236664,259.661713 
	C363.539124,259.661713 366.841583,259.661713 371.366241,259.661713 
	C371.366241,443.859283 371.366241,627.393860 371.366211,811.913452 
z"/>
<path fill="#FAFBFD" opacity="1.000000" stroke="none" 
	d="
M2112.861084,259.424133 
	C2115.358643,259.624969 2116.962158,259.823212 2118.948486,260.068787 
	C2118.948486,332.652344 2118.948486,404.852142 2118.948486,478.374115 
	C2106.176758,478.815033 2093.389160,478.463470 2079.602539,478.577393 
	C2079.602539,445.557281 2079.602539,413.101349 2079.602539,380.174500 
	C2064.397217,380.174500 2050.182129,380.174500 2034.908203,380.174500 
	C2034.908203,412.736176 2034.908203,445.141785 2034.908203,478.050018 
	C2021.057007,478.050018 2008.260132,478.050018 1995.039551,478.050018 
	C1995.039551,405.322327 1995.039551,333.122314 1995.039551,260.171173 
	C2007.844116,260.171173 2020.625854,260.171173 2034.323975,260.171173 
	C2034.323975,289.836975 2034.323975,319.665283 2034.323975,350.914673 
	C2049.618896,351.139191 2064.021240,351.153198 2079.351562,350.896698 
	C2079.351562,319.955719 2079.351562,290.139221 2079.351562,259.421539 
	C2090.819092,259.421539 2101.392822,259.421539 2112.861084,259.424133 
z"/>
<path fill="#FBFCFD" opacity="1.000000" stroke="none" 
	d="
M1340.633911,469.426819 
	C1341.421387,472.453461 1341.965454,474.683838 1342.819946,478.187439 
	C1329.505493,478.984863 1316.715698,478.396301 1303.009766,478.566895 
	C1294.265747,445.358032 1285.584351,412.387024 1276.817017,379.089539 
	C1271.016479,379.089539 1265.807007,379.089539 1259.769531,379.089539 
	C1259.769531,411.810913 1259.769531,444.364319 1259.769531,478.273468 
	C1246.231201,478.883423 1233.436646,478.407440 1220.770752,478.576752 
	C1218.484375,470.541351 1217.513916,291.550629 1219.484009,260.631989 
	C1220.281250,260.292084 1221.164551,259.585693 1222.045776,259.588287 
	C1242.700439,259.649048 1263.371826,259.342804 1284.000977,260.129486 
	C1292.175049,260.441223 1300.521118,262.417877 1308.322266,265.030060 
	C1324.081909,270.307068 1333.751709,281.745453 1337.276855,297.940094 
	C1340.361816,312.113068 1340.064575,326.383972 1336.922119,340.575012 
	C1333.942505,354.031342 1326.820557,364.345581 1313.032104,370.747314 
	C1322.186401,403.499725 1331.288330,436.065155 1340.633911,469.426819 
M1259.338623,340.711365 
	C1259.338623,344.591461 1259.338623,348.471558 1259.338623,353.682892 
	C1268.265991,352.778442 1275.901245,352.593292 1283.274170,351.107086 
	C1292.245850,349.298737 1297.649780,343.068024 1299.791748,334.230347 
	C1302.186768,324.347961 1302.120361,314.392944 1299.742065,304.517731 
	C1297.802734,296.465607 1293.087280,290.578613 1284.826782,288.669495 
	C1276.756348,286.804199 1268.504883,286.001221 1259.338501,287.740631 
	C1259.338501,304.908661 1259.338501,321.842407 1259.338623,340.711365 
z"/>
<path fill="#FBFBFD" opacity="1.000000" stroke="none" 
	d="
M2083.197998,817.040955 
	C2074.919189,829.501282 2063.485840,836.083496 2049.785156,837.894897 
	C2039.656494,839.233887 2029.114258,840.059631 2019.051514,838.784546 
	C1990.079346,835.113342 1975.296265,820.381348 1970.368164,791.598755 
	C1969.026001,783.759277 1968.341064,775.721375 1968.267944,767.766174 
	C1968.017456,740.462952 1967.841553,713.149963 1968.343262,685.853699 
	C1968.531128,675.622925 1969.723511,665.206238 1972.088379,655.262146 
	C1977.089722,634.232117 1990.458740,620.943909 2012.033813,616.959229 
	C2026.226074,614.338074 2040.488525,614.338013 2054.627930,617.802307 
	C2071.051025,621.826172 2082.678955,631.629150 2088.263184,647.519592 
	C2091.206055,655.894287 2093.874268,664.876953 2094.026855,673.631226 
	C2094.653320,709.569458 2094.510986,745.528198 2094.117188,781.473511 
	C2093.980957,793.918823 2090.319336,805.746582 2083.197998,817.040955 
M2054.024414,713.000000 
	C2054.024902,700.009583 2054.138428,687.017639 2053.961914,674.029602 
	C2053.903564,669.740662 2053.540527,665.355591 2052.546875,661.198547 
	C2049.718994,649.366211 2043.022705,644.382690 2031.103271,644.651672 
	C2018.867798,644.927795 2012.122437,650.763916 2010.145996,663.102783 
	C2009.569336,666.702637 2009.401978,670.400818 2009.396484,674.054443 
	C2009.343384,709.361572 2009.283936,744.669250 2009.452026,779.975708 
	C2009.477173,785.241455 2010.075806,790.663818 2011.453125,795.729919 
	C2014.143555,805.627197 2020.721680,809.915710 2031.638184,809.920166 
	C2042.355347,809.924561 2049.371338,805.351379 2051.866455,795.698730 
	C2053.263916,790.291931 2053.872803,784.551575 2053.933105,778.951782 
	C2054.163086,757.636658 2054.024902,736.317566 2054.024414,713.000000 
z"/>
<path fill="#FBFCFD" opacity="1.000000" stroke="none" 
	d="
M1514.174438,698.000000 
	C1514.174438,671.054077 1514.174438,645.108154 1514.174438,618.409790 
	C1527.445190,618.409790 1540.204712,618.409790 1553.807495,618.409790 
	C1553.807495,648.161804 1553.807495,678.012085 1553.807495,709.081726 
	C1561.775391,709.206360 1568.958252,709.361084 1576.141968,709.418945 
	C1583.095337,709.474854 1590.049561,709.431030 1597.585327,709.431030 
	C1599.658569,699.098022 1598.337280,689.187073 1598.569214,679.377197 
	C1598.813354,669.054504 1598.623901,658.721680 1598.623901,648.393250 
	C1598.623901,638.477234 1598.623779,628.561218 1598.623779,618.158081 
	C1612.137207,618.158081 1624.663330,618.158081 1637.882812,618.158081 
	C1637.882812,690.619080 1637.882812,763.046875 1637.882812,836.202881 
	C1625.192993,836.202881 1612.455322,836.202881 1598.892090,836.202881 
	C1598.892090,803.686401 1598.892090,771.495544 1598.892090,738.645142 
	C1583.935181,738.645142 1569.772339,738.645142 1554.508057,738.645142 
	C1554.508057,770.965698 1554.508057,803.430420 1554.508057,836.353760 
	C1540.573853,836.353760 1527.734009,836.353760 1514.174438,836.353760 
	C1514.174438,790.188232 1514.174438,744.594116 1514.174438,698.000000 
z"/>
<path fill="#FCFCFE" opacity="1.000000" stroke="none" 
	d="
M1280.331787,795.740417 
	C1275.204956,776.002502 1270.268677,757.058716 1265.195923,737.590881 
	C1259.633423,737.590881 1254.425415,737.590881 1248.170166,737.590881 
	C1248.170166,770.100281 1248.170166,802.873535 1248.170166,836.280640 
	C1234.311646,836.280640 1221.477417,836.280640 1208.141602,836.280640 
	C1208.141602,763.617371 1208.141602,691.179810 1208.141602,617.655945 
	C1218.574097,617.655945 1228.797363,617.397644 1239.002441,617.717041 
	C1253.948486,618.184753 1268.902344,618.793335 1283.808350,619.927673 
	C1288.667603,620.297485 1293.523193,622.145874 1298.146118,623.926575 
	C1312.959106,629.632568 1321.974243,640.613586 1325.473877,655.924683 
	C1328.787720,670.422791 1328.398560,685.004517 1325.050049,699.495361 
	C1321.955200,712.887939 1314.680054,723.098999 1301.259033,729.125244 
	C1311.235840,764.717896 1321.080688,799.839600 1331.340820,836.442993 
	C1324.094116,836.616760 1317.650757,836.830200 1311.205811,836.909119 
	C1304.910767,836.986145 1298.614136,836.925781 1291.366333,836.925781 
	C1287.702026,823.276855 1284.112305,809.905701 1280.331787,795.740417 
M1258.479980,711.433167 
	C1262.425659,710.917175 1266.431519,710.676331 1270.304810,709.829712 
	C1279.106812,707.905762 1285.253540,702.707520 1287.674072,693.892883 
	C1290.633545,683.115784 1290.579102,672.232483 1287.572266,661.445618 
	C1285.314941,653.347290 1279.884033,648.012451 1271.720581,646.715942 
	C1264.058350,645.499023 1256.181641,645.633118 1248.315430,645.167725 
	C1248.315430,667.954529 1248.315430,689.330933 1248.315430,711.446106 
	C1251.518311,711.446106 1254.117310,711.446106 1258.479980,711.433167 
z"/>
<path fill="#FBFCFD" opacity="1.000000" stroke="none" 
	d="
M1788.594727,411.503845 
	C1785.596191,400.143219 1782.838867,389.566589 1780.087402,379.011902 
	C1774.021240,379.011902 1768.793213,379.011902 1762.441650,379.011902 
	C1762.441650,412.210114 1762.441650,444.992310 1762.441650,478.159302 
	C1748.759399,478.159302 1736.203247,478.159302 1722.979004,478.159302 
	C1722.979004,405.506744 1722.979004,333.057831 1722.979004,260.225922 
	C1724.368408,259.953003 1725.611084,259.491028 1726.851318,259.497833 
	C1747.178711,259.609131 1767.512085,259.542969 1787.829224,260.078400 
	C1794.072998,260.242981 1800.396973,261.623962 1806.469238,263.250885 
	C1826.556885,268.633026 1838.740845,281.823822 1841.293213,302.400024 
	C1842.632446,313.197205 1842.392334,324.421631 1841.140503,335.253784 
	C1839.333496,350.888855 1832.187500,363.797058 1816.292725,370.776672 
	C1826.336914,406.647949 1836.244385,442.030731 1846.345215,478.104126 
	C1832.728760,478.104126 1820.148560,478.104126 1806.214111,478.104126 
	C1800.485107,456.406403 1794.660522,434.347137 1788.594727,411.503845 
M1762.312866,313.040283 
	C1762.312866,326.174683 1762.312866,339.309082 1762.312866,353.582916 
	C1771.092407,352.824097 1778.411743,352.766296 1785.491211,351.433838 
	C1794.302368,349.775482 1800.448730,344.373505 1802.664307,335.353210 
	C1805.407349,324.184875 1805.519165,312.996246 1802.158203,301.912262 
	C1800.179443,295.386322 1795.828613,290.907867 1789.312256,289.089142 
	C1780.656738,286.673370 1771.829834,285.995422 1762.312866,287.776825 
	C1762.312866,295.853821 1762.312866,303.458344 1762.312866,313.040283 
z"/>
<path fill="#FCFDFE" opacity="1.000000" stroke="none" 
	d="
M1061.418701,665.602539 
	C1062.476318,660.519165 1063.049561,656.190979 1064.366821,652.102539 
	C1070.345459,633.546082 1082.415649,621.407227 1101.890259,617.390381 
	C1116.750488,614.325378 1131.604370,614.294495 1146.389526,617.871460 
	C1162.024170,621.653992 1173.578491,630.868164 1179.135254,645.859924 
	C1182.665894,655.385376 1185.542236,665.740967 1185.777832,675.793091 
	C1186.580688,710.048279 1186.536743,744.343872 1185.791870,778.601746 
	C1185.580078,788.342468 1182.887939,798.369141 1179.558350,807.626343 
	C1173.883667,823.403931 1161.919434,833.152710 1145.651367,837.177368 
	C1130.542358,840.915100 1115.310059,840.908020 1100.193359,837.097900 
	C1077.255981,831.316528 1066.596436,814.703003 1062.253418,792.992310 
	C1060.891235,786.183960 1060.148804,779.141724 1060.099609,772.199646 
	C1059.880615,741.253479 1059.967041,710.304565 1060.077881,679.357178 
	C1060.093262,675.059509 1060.858521,670.764404 1061.418701,665.602539 
M1145.877075,742.999939 
	C1145.876953,721.721680 1146.032104,700.441589 1145.784546,679.166260 
	C1145.707642,672.568054 1145.208130,665.825867 1143.714111,659.427002 
	C1141.337402,649.247253 1134.034912,644.473267 1122.955811,644.583130 
	C1111.744141,644.694275 1104.768188,649.548096 1102.433716,659.780884 
	C1101.187866,665.241150 1100.636719,670.969177 1100.609619,676.580383 
	C1100.447754,710.159424 1100.472900,743.739685 1100.591553,777.319031 
	C1100.609131,782.276123 1101.109253,787.292419 1101.986450,792.173401 
	C1104.135498,804.131470 1110.671021,809.656006 1122.382446,809.947937 
	C1134.686035,810.254639 1141.697266,804.927368 1144.188110,792.725708 
	C1145.243408,787.556946 1145.681885,782.200439 1145.802246,776.915588 
	C1146.044556,766.281982 1145.876099,755.638977 1145.877075,742.999939 
z"/>
<path fill="#FCFDFE" opacity="1.000000" stroke="none" 
	d="
M1586.154175,330.000061 
	C1586.154175,379.870514 1586.154175,428.740936 1586.154175,478.083923 
	C1576.996948,478.083923 1568.784790,478.083923 1559.699707,478.083923 
	C1542.518555,436.847809 1525.215820,395.320221 1507.913208,353.792603 
	C1507.280029,353.937836 1506.646851,354.083099 1506.013672,354.228333 
	C1506.013672,395.278931 1506.013672,436.329529 1506.013672,477.965698 
	C1494.387939,477.965698 1483.617065,477.965698 1472.343628,477.965698 
	C1472.343628,405.230530 1472.343628,332.812622 1472.343628,259.915955 
	C1481.658813,259.915955 1490.514282,259.915955 1499.768921,259.915955 
	C1516.774902,299.143158 1533.741699,338.280243 1550.708496,377.417328 
	C1551.423828,377.252686 1552.139160,377.088043 1552.854492,376.923401 
	C1552.854492,338.174805 1552.854492,299.426178 1552.854492,260.064056 
	C1564.274170,260.064056 1574.708984,260.064056 1586.154175,260.064056 
	C1586.154175,283.225067 1586.154175,306.112549 1586.154175,330.000061 
z"/>
<path fill="#FBFCFD" opacity="1.000000" stroke="none" 
	d="
M1890.176514,732.296021 
	C1889.899902,727.941101 1890.560425,725.596252 1894.858154,725.624634 
	C1912.813354,725.743225 1930.769897,725.674622 1949.351685,725.674622 
	C1949.351685,762.771179 1949.351685,799.266724 1949.351685,836.347412 
	C1941.150269,836.347412 1932.951294,836.347412 1924.160400,836.347412 
	C1923.197144,830.604187 1922.239014,824.891174 1921.175415,818.549072 
	C1919.813232,819.698730 1918.879395,820.148743 1918.461304,820.889832 
	C1910.323608,835.308472 1897.479126,840.328369 1881.588867,840.018433 
	C1854.083740,839.481812 1836.980835,826.930969 1830.045166,800.281372 
	C1827.390015,790.079041 1826.060303,779.296143 1825.839600,768.742004 
	C1825.268066,741.421875 1825.623779,714.081848 1825.661865,686.749817 
	C1825.679565,674.025269 1827.121216,661.530884 1831.415039,649.426392 
	C1837.900269,631.143494 1850.642578,620.153259 1869.613525,616.714539 
	C1882.156982,614.440857 1894.857178,614.520447 1907.407959,616.828491 
	C1928.736694,620.750793 1941.410889,633.669678 1946.251343,654.713013 
	C1948.886841,666.170593 1948.719360,677.682434 1948.949585,689.696960 
	C1935.740845,689.696960 1923.575928,689.696960 1910.817627,689.696960 
	C1910.634399,686.371948 1910.419067,683.467041 1910.326172,680.558167 
	C1910.166870,675.562439 1910.343262,670.542297 1909.921753,665.571167 
	C1908.521729,649.053345 1897.585205,641.621643 1881.513062,645.743896 
	C1874.630371,647.509155 1870.342163,651.804199 1868.592407,658.291626 
	C1867.217163,663.390198 1866.306763,668.780884 1866.275513,674.048279 
	C1866.071411,708.376465 1866.067017,742.706848 1866.255981,777.035095 
	C1866.286865,782.645508 1867.138062,788.356201 1868.415649,793.832581 
	C1870.850830,804.270874 1876.983276,809.161926 1887.374512,809.859619 
	C1898.455322,810.603638 1905.716797,806.455750 1909.811401,796.897888 
	C1910.723511,794.768494 1911.442993,792.521912 1911.957153,790.262329 
	C1914.790527,777.809021 1913.891968,765.245239 1913.503662,751.768188 
	C1905.761597,751.768188 1898.578003,751.768188 1890.175049,751.768188 
	C1890.175049,745.014404 1890.175049,739.129089 1890.176514,732.296021 
z"/>
<path fill="#FBFCFD" opacity="1.000000" stroke="none" 
	d="
M1116.036499,266.156219 
	C1116.526123,261.625366 1117.771362,259.258026 1122.299927,259.350922 
	C1134.261841,259.596191 1146.232178,259.433960 1159.321411,259.433960 
	C1174.061157,332.103668 1188.757446,404.558899 1203.620728,477.837677 
	C1190.986206,477.837677 1178.927002,477.837677 1166.331299,477.837677 
	C1163.411865,461.503906 1160.498901,445.205994 1157.494263,428.394775 
	C1145.086426,428.394775 1132.903687,428.394775 1119.853882,428.394775 
	C1116.845703,444.830231 1113.821655,461.352112 1110.747192,478.149719 
	C1098.217773,478.149719 1086.347534,478.149719 1072.971924,478.149719 
	C1087.360229,407.408386 1101.641724,337.192535 1116.036499,266.156219 
M1137.216064,401.720917 
	C1142.131470,401.720917 1147.046753,401.720917 1153.137329,401.720917 
	C1148.484985,373.056305 1144.028687,345.599365 1139.572388,318.142426 
	C1138.918457,318.140198 1138.264404,318.138000 1137.610474,318.135773 
	C1133.122559,345.705719 1128.634766,373.275635 1124.004395,401.720856 
	C1128.785400,401.720856 1132.078491,401.720856 1137.216064,401.720917 
z"/>
<path fill="#FBFCFD" opacity="1.000000" stroke="none" 
	d="
M2121.148438,754.916138 
	C2130.478027,709.112671 2139.575195,664.128052 2148.819824,618.414001 
	C2162.599121,618.414001 2176.394043,618.414001 2191.054932,618.414001 
	C2205.665527,690.513367 2220.303955,762.749695 2235.231201,836.412048 
	C2228.595215,836.600830 2222.810059,836.831848 2217.022705,836.911682 
	C2211.040283,836.994202 2205.055664,836.929993 2198.140137,836.929993 
	C2195.090576,820.149658 2192.083496,803.603210 2189.005371,786.666138 
	C2176.631836,786.666138 2164.743652,786.666138 2151.490479,786.666138 
	C2148.519043,802.804443 2145.481445,819.302734 2142.349854,836.311035 
	C2129.839844,836.311035 2117.757812,836.311035 2104.653076,836.311035 
	C2110.159668,809.026733 2115.537598,782.380859 2121.148438,754.916138 
M2176.072510,706.677490 
	C2174.437988,696.648010 2172.803467,686.618591 2171.169189,676.589111 
	C2170.521484,676.535706 2169.873779,676.482361 2169.226318,676.428955 
	C2164.722900,703.963745 2160.219482,731.498535 2155.662842,759.358765 
	C2165.818359,759.358765 2174.884521,759.358765 2184.674316,759.358765 
	C2181.785400,741.825439 2179.032715,725.118896 2176.072510,706.677490 
z"/>
<path fill="#FAFBFD" opacity="1.000000" stroke="none" 
	d="
M2315.443848,270.467651 
	C2324.252441,277.851501 2328.973389,286.975555 2331.398926,297.201050 
	C2334.659180,310.946014 2335.219482,324.885284 2332.536133,338.838623 
	C2327.795410,363.490601 2311.988525,377.971588 2286.714844,379.963104 
	C2276.795166,380.744751 2266.762207,380.091034 2255.834229,380.091034 
	C2254.126953,391.400513 2255.154297,401.965790 2254.980469,412.446045 
	C2254.798096,423.441528 2254.939697,434.442413 2254.939697,445.440918 
	C2254.939697,456.069153 2254.939941,466.697357 2254.939941,477.947571 
	C2241.545166,477.947571 2228.725342,477.947571 2215.257568,477.947571 
	C2215.257568,405.369293 2215.257568,332.935242 2215.257568,260.054993 
	C2217.318604,259.835968 2219.249268,259.456268 2221.180420,259.452545 
	C2240.844482,259.414551 2260.508545,259.378113 2280.172363,259.465332 
	C2292.765381,259.521210 2304.653564,262.094727 2315.443848,270.467651 
M2254.873291,301.310547 
	C2254.873291,318.125397 2254.873291,334.940216 2254.873291,352.021057 
	C2262.829346,352.021057 2269.482666,352.501404 2276.040527,351.914825 
	C2287.503662,350.889435 2293.588867,346.089569 2294.976562,334.978119 
	C2296.238525,324.872986 2296.198242,314.394196 2295.078857,304.262756 
	C2293.987549,294.384338 2288.354248,289.475861 2278.586426,288.462494 
	C2271.103760,287.686157 2263.476074,288.308044 2254.873535,288.308044 
	C2254.873535,292.241943 2254.873535,295.822968 2254.873291,301.310547 
z"/>
<path fill="#FAFBFD" opacity="1.000000" stroke="none" 
	d="
M1936.354248,441.509033 
	C1941.642334,424.384949 1936.931885,410.347900 1925.364624,398.704437 
	C1916.457275,389.738495 1906.543579,381.775055 1897.125122,373.312836 
	C1890.930176,367.746857 1884.487793,362.405396 1878.733032,356.409698 
	C1860.170532,337.070251 1857.856567,313.935150 1864.863647,289.437103 
	C1868.630859,276.265991 1878.046265,267.188293 1890.731079,261.963531 
	C1905.697754,255.798965 1921.158203,255.099579 1936.769409,259.110779 
	C1950.574341,262.657837 1960.218018,271.231720 1965.963623,284.255768 
	C1970.309937,294.107574 1972.581421,304.386780 1972.786743,316.213226 
	C1961.801758,318.391571 1950.882080,320.556946 1939.707397,322.772919 
	C1938.245728,314.683044 1937.548340,307.379944 1935.533203,300.460602 
	C1932.356323,289.552582 1924.151855,285.332458 1913.040771,287.737885 
	C1905.716553,289.323517 1901.274658,293.808685 1899.792847,300.988220 
	C1897.740601,310.931702 1899.172852,320.408752 1905.921753,328.252441 
	C1910.679321,333.781982 1916.140381,338.733368 1921.505249,343.707794 
	C1932.983276,354.349945 1945.161743,364.297882 1956.033569,375.518097 
	C1972.489624,392.501495 1979.282227,413.183868 1976.350342,436.882751 
	C1973.677734,458.486267 1957.552002,475.794037 1936.328735,480.053986 
	C1925.660034,482.195465 1915.064331,481.959503 1904.575195,479.651428 
	C1888.698853,476.157928 1876.788330,467.269348 1869.630249,452.419830 
	C1864.036255,440.814819 1861.529907,428.560333 1861.595703,414.365814 
	C1872.636719,412.005371 1883.769531,409.625305 1895.410645,407.136566 
	C1896.351440,413.629028 1896.724976,419.261078 1898.072388,424.649567 
	C1899.429932,430.078308 1900.974854,435.731384 1903.806274,440.468079 
	C1911.468750,453.286682 1926.337524,453.885681 1936.354248,441.509033 
z"/>
<path fill="#FAFBFD" opacity="1.000000" stroke="none" 
	d="
M2449.205078,461.075378 
	C2431.894287,483.894165 2399.051758,485.661804 2376.636475,476.161530 
	C2355.521484,467.212433 2342.229004,441.402374 2344.711182,414.120575 
	C2355.440674,411.886292 2366.364258,409.611542 2378.030762,407.182098 
	C2378.729736,412.336639 2378.894287,416.648163 2379.961182,420.723480 
	C2381.715332,427.422485 2383.324951,434.324738 2386.336914,440.485443 
	C2389.814941,447.600494 2396.411377,450.744110 2404.550781,450.316345 
	C2413.020264,449.871155 2418.184082,446.025360 2420.186768,437.628174 
	C2423.560059,423.484222 2418.977295,411.284576 2409.796875,400.743073 
	C2405.228027,395.497131 2399.809814,390.966797 2394.601318,386.307892 
	C2384.425293,377.205872 2373.891357,368.492340 2363.929443,359.165100 
	C2345.110596,341.544830 2340.676514,319.540649 2345.762451,295.107788 
	C2349.137451,278.894531 2358.933594,267.697723 2374.234619,261.591003 
	C2388.914307,255.732239 2404.059326,255.174179 2419.312256,259.124817 
	C2433.101318,262.696259 2442.637207,271.243988 2448.482910,284.251251 
	C2452.916016,294.115875 2454.687256,304.458374 2455.804932,316.085754 
	C2444.573486,318.337463 2433.683350,320.520782 2422.168457,322.829315 
	C2421.432617,318.037964 2420.956543,314.152618 2420.213867,310.318970 
	C2419.456543,306.411713 2418.842773,302.402344 2417.450928,298.707153 
	C2414.112061,289.844482 2407.121094,286.026672 2397.677002,287.379395 
	C2388.240479,288.731018 2382.809570,294.404846 2381.784912,303.755890 
	C2380.493408,315.542084 2384.214600,325.513519 2392.878906,333.440674 
	C2403.441895,343.104950 2414.234863,352.519348 2425.002197,361.957825 
	C2434.573975,370.348114 2443.656494,379.283264 2449.731689,390.528320 
	C2462.270264,413.736877 2464.424072,437.201599 2449.205078,461.075378 
z"/>
<path fill="#FAFBFD" opacity="1.000000" stroke="none" 
	d="
M2399.365234,646.201660 
	C2384.475098,650.235657 2382.855713,670.585815 2390.862549,683.116272 
	C2394.214844,688.362610 2398.826660,692.951355 2403.446533,697.209473 
	C2412.753906,705.788208 2422.899170,713.492065 2431.868652,722.393250 
	C2439.855713,730.319519 2447.537109,738.814087 2453.899658,748.058411 
	C2464.205078,763.030884 2466.298340,780.318726 2463.313232,797.895874 
	C2459.712646,819.094055 2444.202637,834.023804 2422.945801,838.411011 
	C2410.576660,840.963989 2398.449951,840.095398 2386.458496,836.406006 
	C2373.340088,832.369690 2363.843018,824.018921 2357.535889,811.933228 
	C2351.248779,799.885742 2349.208252,786.888428 2348.543945,772.690735 
	C2360.076904,770.268860 2371.300781,767.911865 2382.772705,765.502747 
	C2383.920166,772.936707 2384.505615,779.563171 2386.072510,785.948792 
	C2387.242432,790.715698 2389.111816,795.520569 2391.675049,799.690796 
	C2396.579102,807.670105 2405.307129,810.504883 2414.371094,807.931213 
	C2421.400635,805.935303 2425.595703,799.513123 2425.984375,789.997131 
	C2426.552490,776.089294 2421.103027,764.600525 2411.109619,755.355652 
	C2400.350830,745.402893 2389.149658,735.929932 2378.192383,726.190186 
	C2374.210693,722.650940 2370.187744,719.127014 2366.507324,715.285828 
	C2347.729736,695.687866 2344.770752,672.433167 2352.280518,647.532471 
	C2356.827148,632.457031 2368.132812,623.201843 2382.930664,618.406006 
	C2395.231201,614.419312 2407.943848,614.112854 2420.488281,616.515015 
	C2436.268066,619.536804 2447.668213,628.610229 2453.804199,643.728394 
	C2457.704590,653.339172 2460.297607,663.235229 2459.986328,674.639465 
	C2448.967773,676.786072 2438.062988,678.910522 2426.937256,681.078064 
	C2425.894775,674.485657 2425.277832,668.902222 2424.095947,663.441101 
	C2420.949707,648.902283 2415.190186,644.812256 2399.365234,646.201660 
z"/>
<path fill="#FBFCFD" opacity="1.000000" stroke="none" 
	d="
M980.062744,259.432220 
	C994.373169,259.432587 1007.695374,259.394379 1021.017090,259.455566 
	C1025.342163,259.475403 1029.685059,259.552429 1033.987549,259.950378 
	C1055.751221,261.963470 1070.346680,273.949463 1076.396606,294.947296 
	C1081.007324,310.950134 1081.258179,327.197235 1077.455688,343.340027 
	C1072.472778,364.494873 1056.162598,378.007385 1032.911865,379.904755 
	C1022.702393,380.737915 1012.368408,380.044983 1000.936157,380.044983 
	C1000.936157,413.290833 1000.936157,445.372864 1000.936157,478.002838 
	C986.984131,478.002838 974.193909,478.002838 960.856323,478.002838 
	C960.856323,405.238617 960.856323,332.828644 960.856323,259.432220 
	C967.240356,259.432220 973.157349,259.432220 980.062744,259.432220 
M1040.663208,303.165771 
	C1038.898804,294.665588 1033.639893,289.365051 1025.134521,288.570740 
	C1017.321960,287.841156 1009.387573,288.415741 1001.020203,288.415741 
	C1001.020203,309.658325 1001.020203,330.469238 1001.020203,351.716766 
	C1009.012512,351.716766 1016.630554,352.363647 1024.089844,351.552124 
	C1033.295410,350.550629 1039.734375,345.073364 1040.545654,335.544708 
	C1041.414185,325.342316 1041.019287,315.032349 1040.663208,303.165771 
z"/>
<path fill="#FEFEFE" opacity="1.000000" stroke="none" 
	d="
M1652.913818,428.006317 
	C1652.913818,435.931396 1652.913818,442.853424 1652.913818,450.810211 
	C1670.679321,450.810211 1687.510986,450.810211 1704.996826,450.810211 
	C1704.996826,460.278687 1704.996826,468.709717 1704.996826,477.855286 
	C1674.831909,477.855286 1644.699341,477.855286 1613.823975,477.855286 
	C1613.823975,405.506897 1613.823975,333.090790 1613.823975,260.058960 
	C1643.692505,260.058960 1673.521362,260.058960 1704.161011,260.058960 
	C1705.623291,269.058716 1704.837524,278.117188 1704.606079,287.925476 
	C1687.146484,287.925476 1670.583862,287.925476 1653.475708,287.925476 
	C1653.475708,308.823303 1653.475708,328.985107 1653.475708,350.241486 
	C1666.641968,350.241486 1679.796997,350.241486 1693.444946,350.241486 
	C1693.444946,359.843536 1693.444946,368.373322 1693.444946,378.182251 
	C1680.500366,378.182251 1667.399536,378.182251 1652.913818,378.182251 
	C1652.913818,395.274506 1652.913818,411.138885 1652.913818,428.006317 
z"/>
<path fill="#FBFCFD" opacity="1.000000" stroke="none" 
	d="
M1703.824463,693.916382 
	C1703.824463,699.164307 1703.824463,703.420593 1703.824463,708.549683 
	C1717.568726,708.549683 1730.415527,708.549683 1743.901489,708.549683 
	C1743.901489,718.268860 1743.901489,727.088806 1743.901489,736.825378 
	C1731.091309,736.825378 1718.248047,736.825378 1704.616699,736.825378 
	C1704.616699,761.175354 1704.616699,784.618958 1704.616699,809.432190 
	C1712.881348,809.432190 1721.438354,809.432190 1729.995483,809.432190 
	C1738.289185,809.432190 1746.583008,809.432190 1755.513306,809.432190 
	C1755.513306,818.496887 1755.513306,826.997009 1755.513306,836.220703 
	C1725.479492,836.220703 1695.351807,836.220703 1664.530029,836.220703 
	C1664.530029,763.808899 1664.530029,691.391296 1664.530029,618.313110 
	C1694.521729,618.313110 1724.621216,618.313110 1755.274780,618.313110 
	C1755.274780,627.282837 1755.274780,636.077698 1755.274780,645.667969 
	C1738.368530,645.667969 1721.840332,645.667969 1703.824463,645.667969 
	C1703.824463,661.919312 1703.824463,677.422058 1703.824463,693.916382 
z"/>
<path fill="#FBFCFD" opacity="1.000000" stroke="none" 
	d="
M1460.297119,262.871155 
	C1460.339355,271.756897 1460.339355,279.724945 1460.339355,288.759094 
	C1448.601685,288.759094 1437.454468,288.759094 1425.381958,288.759094 
	C1425.381958,352.300537 1425.381958,414.775085 1425.381958,477.907959 
	C1411.635010,477.907959 1398.818970,477.907959 1385.029663,477.907959 
	C1385.029663,415.437225 1385.029663,353.000946 1385.029663,289.242279 
	C1372.378418,289.242279 1360.611206,289.242279 1348.454712,289.242279 
	C1348.454712,278.715668 1348.454712,269.515381 1348.454712,259.896973 
	C1351.367188,259.729736 1353.990112,259.450623 1356.613281,259.448120 
	C1388.265381,259.417969 1419.917725,259.373962 1451.569214,259.519318 
	C1454.510498,259.532806 1458.385742,257.582581 1460.297119,262.871155 
z"/>
<path fill="#FBFCFD" opacity="1.000000" stroke="none" 
	d="
M1021.993164,617.654724 
	C1031.896118,617.654724 1040.800903,617.654724 1050.123047,617.654724 
	C1050.123047,627.149841 1050.123047,635.689636 1050.123047,645.368164 
	C1033.918091,645.368164 1017.793762,645.368164 1001.134583,645.368164 
	C1001.134583,666.964600 1001.134583,687.429932 1001.134583,708.835693 
	C1014.111084,708.835693 1026.651245,708.835693 1039.867676,708.835693 
	C1039.867676,718.561340 1039.867676,727.366455 1039.867676,737.324829 
	C1027.277832,737.324829 1014.488098,737.324829 1000.728394,737.324829 
	C1000.728394,770.937134 1000.728394,803.433228 1000.728394,836.391602 
	C986.893372,836.391602 974.056091,836.391602 960.816040,836.391602 
	C960.816040,763.441650 960.816040,691.028015 960.816040,617.654724 
	C981.200439,617.654724 1001.097717,617.654724 1021.993164,617.654724 
z"/>
<path fill="#FDFEFE" opacity="1.000000" stroke="none" 
	d="
M1466.353271,836.695190 
	C1453.852783,836.853027 1442.219482,836.853027 1429.151489,836.853027 
	C1428.986938,773.896606 1429.159668,711.412659 1429.049683,647.671631 
	C1416.928345,647.671631 1405.131226,647.671631 1392.782837,647.671631 
	C1392.782837,637.280701 1392.782837,628.137634 1392.782837,618.324219 
	C1429.658569,618.324219 1466.452393,618.324219 1503.904297,618.324219 
	C1503.904297,627.649109 1503.904297,637.038269 1503.904297,647.440002 
	C1492.228149,647.440002 1481.043701,647.440002 1468.916260,647.440002 
	C1468.916260,652.002380 1468.916382,655.577637 1468.916382,659.152893 
	C1468.916382,714.805725 1468.946411,770.458557 1468.843506,826.111206 
	C1468.837036,829.587585 1467.785767,833.062073 1466.353271,836.695190 
z"/>
<path fill="#FCFCFE" opacity="1.000000" stroke="none" 
	d="
M2329.743164,809.433594 
	C2333.939453,809.433594 2337.170166,809.433594 2340.882812,809.433594 
	C2340.882812,818.774841 2340.882812,827.008423 2340.882812,836.501282 
	C2310.482666,837.426758 2280.050781,836.684326 2248.967285,836.967285 
	C2248.967285,763.691650 2248.967285,691.276428 2248.967285,617.655945 
	C2255.631104,617.655945 2262.183105,617.655945 2268.735352,617.655945 
	C2274.998047,617.655945 2281.260742,617.655945 2288.382324,617.655945 
	C2288.382324,681.615479 2288.382324,744.771973 2288.382324,809.389954 
	C2302.400146,809.405090 2315.588867,809.419373 2329.743164,809.433594 
z"/>
<path fill="#FAFBFD" opacity="1.000000" stroke="none" 
	d="
M2187.384277,400.000336 
	C2187.384277,426.538879 2187.384277,452.077362 2187.384277,478.091370 
	C2173.878906,478.091370 2161.336426,478.091370 2148.213867,478.091370 
	C2148.213867,405.524994 2148.213867,333.114563 2148.213867,260.061737 
	C2160.969727,260.061737 2173.719482,260.061737 2187.384277,260.061737 
	C2187.384277,306.624969 2187.384277,352.812622 2187.384277,400.000336 
z"/>
<path fill="#021E8C" opacity="1.000000" stroke="none" 
	d="
M1445.415283,1548.584961 
	C1386.445679,1489.160645 1316.222778,1452.322144 1233.460693,1436.454224 
	C1252.203979,1393.805176 1278.528198,1357.655396 1312.785889,1327.313721 
	C1365.916138,1280.256714 1428.039795,1253.446655 1498.780640,1248.562500 
	C1652.896851,1237.921509 1766.971069,1335.787964 1808.622437,1436.544800 
	C1746.080322,1448.373169 1689.296997,1473.065186 1638.855469,1511.792236 
	C1588.356201,1550.563721 1549.501343,1598.891235 1521.296753,1657.383545 
	C1501.469360,1616.202515 1476.767456,1580.478882 1445.415283,1548.584961 
z"/>
<path fill="#021E8C" opacity="1.000000" stroke="none" 
	d="
M1051.329102,1531.245239 
	C1081.548218,1520.105591 1111.843384,1512.941406 1130.119019,1512.649292 
	C1116.791138,1645.441895 1158.152222,1758.481689 1255.077637,1852.760620 
	C1190.900879,1860.963501 1132.836426,1882.342407 1080.297119,1918.058105 
	C1027.536743,1953.924194 985.948303,2000.027466 954.379700,2056.962891 
	C928.602722,2034.133179 907.920410,2008.068604 891.253540,1978.746460 
	C861.354980,1926.145264 847.535339,1869.477173 850.627686,1809.123047 
	C857.004211,1684.671021 934.932800,1576.968018 1051.329102,1531.245239 
z"/>
<path fill="#021E8C" opacity="1.000000" stroke="none" 
	d="
M1005.451477,2184.508057 
	C1124.012085,2234.610352 1239.626221,2228.410889 1353.801514,2170.399414 
	C1333.153564,2302.309082 1368.215942,2417.041748 1458.092407,2515.023682 
	C1362.879150,2573.484131 1224.478027,2577.279297 1116.028931,2497.874268 
	C1002.204102,2414.533447 970.318848,2280.059570 994.051086,2179.842529 
	C997.675110,2181.315186 1001.217224,2182.754639 1005.451477,2184.508057 
z"/>
<path fill="#021E8C" opacity="1.000000" stroke="none" 
	d="
M2084.438965,1587.527344 
	C2139.669678,1636.626465 2175.020752,1696.692627 2187.294678,1768.829102 
	C2204.252441,1868.493164 2178.580322,1956.912598 2112.100098,2033.236084 
	C2105.166748,2041.196289 2097.410156,2048.439453 2089.803223,2056.253906 
	C2022.669800,1939.469482 1923.821167,1870.808594 1790.489990,1850.054321 
	C1884.976807,1756.594238 1925.881958,1644.455444 1912.376099,1511.921021 
	C1977.777588,1519.643799 2034.579590,1544.722046 2084.438965,1587.527344 
z"/>
<path fill="#021E8C" opacity="1.000000" stroke="none" 
	d="
M2020.416260,2386.406250 
	C1973.074097,2472.829346 1902.274414,2527.660645 1806.622192,2548.671143 
	C1731.835205,2565.097900 1660.426636,2553.678223 1592.864746,2517.828857 
	C1591.193359,2516.941895 1589.631714,2515.848145 1587.517090,2514.540771 
	C1676.255493,2415.659668 1709.659912,2301.050293 1688.284546,2169.998291 
	C1807.195312,2231.080078 1927.113159,2234.218262 2049.778320,2179.398682 
	C2063.748779,2251.929443 2054.152832,2320.443604 2020.416260,2386.406250 
z"/>
<path fill="#021E8D" opacity="1.000000" stroke="none" 
	d="
M1905.249268,2137.644287 
	C1839.112305,2142.390381 1777.851929,2129.402588 1721.184204,2096.412598 
	C1669.564697,2066.361328 1629.708740,2024.825195 1601.245972,1972.338989 
	C1599.677612,1969.446899 1598.325073,1966.437866 1596.884033,1963.507446 
	C1745.132935,1882.044556 1944.842651,1940.919800 2022.627808,2102.970215 
	C1986.151978,2122.494629 1947.172974,2133.314453 1905.249268,2137.644287 
z"/>
<path fill="#021E8D" opacity="1.000000" stroke="none" 
	d="
M1466.177368,2090.222656 
	C1480.932739,2063.916016 1498.231934,2040.463013 1519.183350,2019.738281 
	C1642.336914,2132.490234 1650.781006,2341.652344 1522.812012,2465.462891 
	C1428.757935,2378.328125 1393.644653,2222.768555 1466.177368,2090.222656 
z"/>
<path fill="#021E8D" opacity="1.000000" stroke="none" 
	d="
M1435.353760,1983.279053 
	C1386.087891,2063.631836 1316.292358,2114.273193 1224.452759,2132.742432 
	C1155.627197,2146.583252 1089.322266,2137.037598 1026.179199,2106.193604 
	C1024.418335,2105.333252 1022.808167,2104.164307 1021.153564,2103.155029 
	C1097.054077,1947.406494 1291.699341,1883.845215 1444.830078,1965.456787 
	C1441.812988,1971.168579 1438.778198,1976.913818 1435.353760,1983.279053 
z"/>
<path fill="#021E8D" opacity="1.000000" stroke="none" 
	d="
M1246.916748,1715.033447 
	C1208.482178,1646.681885 1200.510864,1569.404175 1211.555420,1514.994873 
	C1380.533325,1535.003784 1505.276123,1706.423706 1473.946655,1872.816528 
	C1374.398315,1854.732300 1298.538086,1803.127441 1246.916748,1715.033447 
z"/>
<path fill="#021E8D" opacity="1.000000" stroke="none" 
	d="
M1568.559082,1768.754761 
	C1580.505249,1706.440430 1607.640137,1652.788086 1651.041748,1607.621338 
	C1699.720825,1556.962769 1758.955688,1526.095581 1828.184204,1514.340942 
	C1828.820190,1514.232910 1829.502075,1514.396118 1830.162354,1514.438232 
	C1843.728516,1563.936157 1834.367554,1658.517212 1784.288940,1734.115234 
	C1726.245728,1821.736206 1634.762207,1864.519165 1567.911743,1871.652832 
	C1561.673218,1837.598999 1562.873291,1803.605957 1568.559082,1768.754761 
z"/>
<path fill="#07238F" opacity="1.000000" stroke="none" 
	d="
M1259.338623,339.743774 
	C1259.338501,321.842407 1259.338501,304.908661 1259.338501,287.740631 
	C1268.504883,286.001221 1276.756348,286.804199 1284.826782,288.669495 
	C1293.087280,290.578613 1297.802734,296.465607 1299.742065,304.517731 
	C1302.120361,314.392944 1302.186768,324.347961 1299.791748,334.230347 
	C1297.649780,343.068024 1292.245850,349.298737 1283.274170,351.107086 
	C1275.901245,352.593292 1268.265991,352.778442 1259.338623,353.682892 
	C1259.338623,348.471558 1259.338623,344.591461 1259.338623,339.743774 
z"/>
<path fill="#041F8D" opacity="1.000000" stroke="none" 
	d="
M2054.024414,714.000000 
	C2054.024902,736.317566 2054.163086,757.636658 2053.933105,778.951782 
	C2053.872803,784.551575 2053.263916,790.291931 2051.866455,795.698730 
	C2049.371338,805.351379 2042.355347,809.924561 2031.638184,809.920166 
	C2020.721680,809.915710 2014.143555,805.627197 2011.453125,795.729919 
	C2010.075806,790.663818 2009.477173,785.241455 2009.452026,779.975708 
	C2009.283936,744.669250 2009.343384,709.361572 2009.396484,674.054443 
	C2009.401978,670.400818 2009.569336,666.702637 2010.145996,663.102783 
	C2012.122437,650.763916 2018.867798,644.927795 2031.103271,644.651672 
	C2043.022705,644.382690 2049.718994,649.366211 2052.546875,661.198547 
	C2053.540527,665.355591 2053.903564,669.740662 2053.961914,674.029602 
	C2054.138428,687.017639 2054.024902,700.009583 2054.024414,714.000000 
z"/>
<path fill="#041F8D" opacity="1.000000" stroke="none" 
	d="
M1257.598145,711.439636 
	C1254.117310,711.446106 1251.518311,711.446106 1248.315430,711.446106 
	C1248.315430,689.330933 1248.315430,667.954529 1248.315430,645.167725 
	C1256.181641,645.633118 1264.058350,645.499023 1271.720581,646.715942 
	C1279.884033,648.012451 1285.314941,653.347290 1287.572266,661.445618 
	C1290.579102,672.232483 1290.633545,683.115784 1287.674072,693.892883 
	C1285.253540,702.707520 1279.106812,707.905762 1270.304810,709.829712 
	C1266.431519,710.676331 1262.425659,710.917175 1257.598145,711.439636 
z"/>
<path fill="#092490" opacity="1.000000" stroke="none" 
	d="
M1762.312866,312.051575 
	C1762.312866,303.458344 1762.312866,295.853821 1762.312866,287.776825 
	C1771.829834,285.995422 1780.656738,286.673370 1789.312256,289.089142 
	C1795.828613,290.907867 1800.179443,295.386322 1802.158203,301.912262 
	C1805.519165,312.996246 1805.407349,324.184875 1802.664307,335.353210 
	C1800.448730,344.373505 1794.302368,349.775482 1785.491211,351.433838 
	C1778.411743,352.766296 1771.092407,352.824097 1762.312866,353.582916 
	C1762.312866,339.309082 1762.312866,326.174683 1762.312866,312.051575 
z"/>
<path fill="#07238F" opacity="1.000000" stroke="none" 
	d="
M1145.877075,743.999878 
	C1145.876099,755.638977 1146.044556,766.281982 1145.802246,776.915588 
	C1145.681885,782.200439 1145.243408,787.556946 1144.188110,792.725708 
	C1141.697266,804.927368 1134.686035,810.254639 1122.382446,809.947937 
	C1110.671021,809.656006 1104.135498,804.131470 1101.986450,792.173401 
	C1101.109253,787.292419 1100.609131,782.276123 1100.591553,777.319031 
	C1100.472900,743.739685 1100.447754,710.159424 1100.609619,676.580383 
	C1100.636719,670.969177 1101.187866,665.241150 1102.433716,659.780884 
	C1104.768188,649.548096 1111.744141,644.694275 1122.955811,644.583130 
	C1134.034912,644.473267 1141.337402,649.247253 1143.714111,659.427002 
	C1145.208130,665.825867 1145.707642,672.568054 1145.784546,679.166260 
	C1146.032104,700.441589 1145.876953,721.721680 1145.877075,743.999878 
z"/>
<path fill="#0E2992" opacity="1.000000" stroke="none" 
	d="
M1136.293823,401.720886 
	C1132.078491,401.720856 1128.785400,401.720856 1124.004395,401.720856 
	C1128.634766,373.275635 1133.122559,345.705719 1137.610474,318.135773 
	C1138.264404,318.138000 1138.918457,318.140198 1139.572388,318.142426 
	C1144.028687,345.599365 1148.484985,373.056305 1153.137329,401.720917 
	C1147.046753,401.720917 1142.131470,401.720917 1136.293823,401.720886 
z"/>
<path fill="#0E2992" opacity="1.000000" stroke="none" 
	d="
M2176.176270,707.544922 
	C2179.032715,725.118896 2181.785400,741.825439 2184.674316,759.358765 
	C2174.884521,759.358765 2165.818359,759.358765 2155.662842,759.358765 
	C2160.219482,731.498535 2164.722900,703.963745 2169.226318,676.428955 
	C2169.873779,676.482361 2170.521484,676.535706 2171.169189,676.589111 
	C2172.803467,686.618591 2174.437988,696.648010 2176.176270,707.544922 
z"/>
<path fill="#092490" opacity="1.000000" stroke="none" 
	d="
M2254.873535,300.357269 
	C2254.873535,295.822968 2254.873535,292.241943 2254.873535,288.308044 
	C2263.476074,288.308044 2271.103760,287.686157 2278.586426,288.462494 
	C2288.354248,289.475861 2293.987549,294.384338 2295.078857,304.262756 
	C2296.198242,314.394196 2296.238525,324.872986 2294.976562,334.978119 
	C2293.588867,346.089569 2287.503662,350.889435 2276.040527,351.914825 
	C2269.482666,352.501404 2262.829346,352.021057 2254.873291,352.021057 
	C2254.873291,334.940216 2254.873291,318.125397 2254.873535,300.357269 
z"/>
<path fill="#092490" opacity="1.000000" stroke="none" 
	d="
M1040.919556,303.967529 
	C1041.019287,315.032349 1041.414185,325.342316 1040.545654,335.544708 
	C1039.734375,345.073364 1033.295410,350.550629 1024.089844,351.552124 
	C1016.630554,352.363647 1009.012512,351.716766 1001.020203,351.716766 
	C1001.020203,330.469238 1001.020203,309.658325 1001.020203,288.415741 
	C1009.387573,288.415741 1017.321960,287.841156 1025.134521,288.570740 
	C1033.639893,289.365051 1038.898804,294.665588 1040.919556,303.967529 
z"/>
</svg>