<svg version="1.1" id="Layer_1" xmlns="http://www.w3.org/2000/svg" xmlns:xlink="http://www.w3.org/1999/xlink" x="0px" y="0px"
	 width="100%" viewBox="0 0 3000 3000" enable-background="new 0 0 3000 3000" xml:space="preserve">
<path fill="#CFA001" opacity="1.000000" stroke="none" 
	d="
M3002.000000,1140.000000 
	C3002.000000,1761.281738 3002.000000,2381.563477 3002.000000,3001.922607 
	C2002.134766,3001.922607 1002.269470,3001.922607 2.202093,3001.922607 
	C2.202093,2002.217896 2.202093,1002.435791 2.202093,2.326816 
	C1001.999939,2.326816 2002.000000,2.326816 3002.000000,2.326816 
	C3002.000000,381.064575 3002.000000,760.032288 3002.000000,1140.000000 
M1275.000366,1933.404175 
	C1075.705811,1933.404175 876.411194,1933.402710 677.116577,1933.414429 
	C672.786438,1933.414673 668.430298,1933.292480 664.131104,1933.699829 
	C652.617493,1934.790527 645.540466,1942.894897 645.823059,1954.547485 
	C645.903564,1957.864502 646.151184,1961.244507 646.883667,1964.468018 
	C652.265686,1988.152222 656.764221,2012.097656 663.440430,2035.417114 
	C700.362244,2164.383545 769.294739,2274.034424 865.901794,2366.476562 
	C957.713989,2454.330811 1064.967285,2516.459229 1185.534790,2555.973145 
	C1189.579834,2557.298584 1193.599121,2558.702393 1197.795898,2560.125977 
	C1197.795898,2574.511963 1197.691772,2588.162598 1197.825684,2601.810791 
	C1197.956299,2615.117432 1205.543945,2622.824219 1218.802856,2623.418457 
	C1220.465576,2623.492920 1222.135010,2623.407715 1223.801392,2623.407715 
	C1385.437012,2623.405273 1547.072632,2623.403564 1708.708252,2623.403320 
	C1711.041138,2623.403320 1713.375854,2623.485596 1715.706421,2623.417480 
	C1729.498169,2623.015137 1737.361694,2615.305420 1737.626465,2601.568359 
	C1737.831909,2590.907715 1737.669067,2580.239746 1737.669800,2569.575195 
	C1737.670044,2564.657471 1737.669800,2559.739746 1737.669800,2555.113770 
	C1741.676514,2553.732422 1744.506592,2552.758057 1747.335815,2551.781006 
	C1872.551758,2508.538818 1982.664673,2441.121826 2075.262207,2346.006104 
	C2161.189697,2257.741211 2222.862061,2155.000244 2256.908936,2036.338989 
	C2264.328369,2010.480347 2269.299561,1983.889648 2274.698486,1957.493042 
	C2277.383545,1944.365356 2269.086182,1934.604614 2255.804932,1933.616211 
	C2251.493652,1933.295410 2247.146240,1933.411621 2242.815186,1933.411499 
	C1920.876953,1933.403809 1598.938721,1933.404297 1275.000366,1933.404175 
M434.167084,446.816223 
	C430.582855,455.050415 427.657288,463.654846 423.279602,471.443024 
	C413.655426,488.565094 403.794098,505.594940 393.153595,522.097656 
	C344.223785,597.984558 295.013580,673.690735 245.816177,749.404785 
	C242.993088,753.749451 241.492416,758.048889 241.554703,763.334106 
	C241.798172,783.996643 241.629028,804.663879 241.686691,825.329163 
	C241.693771,827.865906 242.143860,830.401428 242.419235,833.254517 
	C339.968323,833.254517 436.833374,833.254517 533.604980,833.254517 
	C535.799438,823.395874 535.517517,754.936157 533.148254,746.981384 
	C505.721222,746.981384 478.089569,746.981384 450.457916,746.981384 
	C422.584351,746.981384 394.710785,746.981384 364.973450,746.981384 
	C367.855316,742.318115 369.623993,739.258301 371.578979,736.322510 
	C398.728210,695.553284 425.986542,654.856323 453.044556,614.026672 
	C473.841736,582.644409 495.136932,551.557861 514.883484,519.521729 
	C544.997620,470.665436 557.554565,417.840027 545.943848,360.673828 
	C535.132629,307.444366 504.326263,272.155945 451.060822,258.602295 
	C416.268158,249.749146 381.036621,249.939545 346.125458,258.465393 
	C310.242126,267.228607 283.210297,287.880463 265.414032,320.467346 
	C257.531128,334.901794 251.980896,350.157104 248.073273,366.080902 
	C241.493271,392.894867 241.332581,420.204559 241.678375,447.554596 
	C241.710663,450.108704 242.073380,452.658600 242.286636,455.258545 
	C277.739471,455.258545 312.507477,455.258545 348.184509,455.258545 
	C348.184509,442.905121 347.855438,431.274567 348.262909,419.669891 
	C348.849762,402.956055 351.123535,386.503448 357.815277,370.929535 
	C362.214233,360.691650 368.884857,352.461823 379.493683,348.642273 
	C402.957855,340.194275 431.116302,343.355103 439.071350,379.178833 
	C439.575287,381.448273 439.887482,383.765259 440.195251,386.072601 
	C442.884369,406.234192 440.614563,425.933624 434.167084,446.816223 
M1202.186523,1628.806152 
	C1196.938965,1622.771606 1191.754272,1616.681030 1186.431030,1610.714111 
	C1174.394653,1597.222168 1163.941406,1582.641357 1155.779053,1566.476074 
	C1133.211670,1521.781616 1129.668213,1474.770264 1139.056519,1426.298218 
	C1147.840454,1380.946533 1165.098389,1338.891602 1190.459106,1300.385254 
	C1205.005493,1278.298950 1196.724609,1253.789185 1176.367065,1242.089600 
	C1164.739136,1235.406982 1152.228149,1232.919556 1138.838379,1235.107788 
	C1122.813965,1237.726562 1110.414673,1245.560059 1101.547852,1259.338379 
	C1072.417480,1304.604492 1051.427612,1353.279785 1040.169189,1405.968628 
	C1031.084961,1448.481812 1029.731567,1491.183960 1038.891724,1533.910889 
	C1049.566162,1583.700195 1073.389771,1626.604248 1107.489990,1664.058716 
	C1124.393311,1682.624512 1139.255005,1702.594360 1150.437378,1725.189331 
	C1172.257446,1769.278809 1175.657593,1814.343628 1157.949585,1860.614990 
	C1157.154663,1862.692139 1156.786987,1864.932739 1156.130249,1867.441162 
	C1191.032349,1867.441162 1225.275635,1867.441162 1259.791016,1867.441162 
	C1260.638306,1864.999878 1261.537964,1862.869507 1262.122192,1860.655762 
	C1272.363403,1821.853027 1272.674683,1782.983032 1262.854492,1744.047363 
	C1252.052612,1701.219849 1230.693115,1663.925903 1202.186523,1628.806152 
M1741.077026,1250.081055 
	C1737.564087,1254.929321 1733.742554,1259.585449 1730.585938,1264.655762 
	C1699.244141,1314.999268 1677.430786,1369.073730 1668.707397,1427.902954 
	C1662.126953,1472.280273 1664.256592,1516.276001 1678.105591,1559.313843 
	C1690.765991,1598.658325 1711.789307,1633.087891 1739.493774,1663.558594 
	C1755.247314,1680.885010 1769.360962,1699.368286 1780.301392,1720.152588 
	C1804.239380,1765.629639 1808.957153,1812.439941 1790.131958,1860.913574 
	C1789.360352,1862.900269 1789.099609,1865.085205 1788.566284,1867.322998 
	C1823.517578,1867.322998 1857.735718,1867.322998 1892.253174,1867.322998 
	C1893.085693,1864.776123 1893.911865,1862.636597 1894.487305,1860.431641 
	C1907.628296,1810.079712 1904.131226,1760.764404 1885.035034,1712.487915 
	C1870.002319,1674.484009 1847.025269,1641.592285 1819.679199,1611.535767 
	C1775.988037,1563.513916 1760.669678,1506.721191 1768.821167,1443.206299 
	C1775.416504,1391.817871 1793.973511,1344.477661 1822.363770,1301.407959 
	C1837.157227,1278.965210 1830.143311,1250.765503 1803.554810,1239.484741 
	C1781.352783,1230.064819 1760.590820,1233.123047 1741.077026,1250.081055 
M1456.440186,1419.770020 
	C1457.392334,1415.891968 1458.311279,1412.005371 1459.301758,1408.137207 
	C1469.216309,1369.413452 1485.264404,1333.383545 1506.785034,1299.733643 
	C1517.841919,1282.445068 1516.410889,1264.387939 1503.081909,1250.293945 
	C1482.883179,1228.935913 1443.548706,1229.218506 1424.066406,1251.142822 
	C1419.675903,1256.083496 1416.062500,1261.801758 1412.617065,1267.481079 
	C1380.813599,1319.904907 1358.713623,1375.865967 1351.348999,1437.120239 
	C1345.179810,1488.432495 1350.929932,1538.105835 1371.929199,1585.671265 
	C1385.117554,1615.544067 1403.474365,1641.937744 1425.441528,1665.969727 
	C1441.928833,1684.006836 1456.169067,1703.660278 1466.945190,1725.674805 
	C1488.376831,1769.457520 1491.915527,1814.236816 1474.246704,1860.161743 
	C1473.437622,1862.265015 1472.873169,1864.462402 1471.991333,1867.262451 
	C1507.150391,1867.262451 1541.556763,1867.262451 1576.298828,1867.262451 
	C1582.023071,1849.635742 1584.799438,1831.936035 1585.812988,1813.979370 
	C1588.194214,1771.799072 1579.129150,1731.947144 1560.761963,1694.062988 
	C1545.955566,1663.523315 1526.199585,1636.430298 1503.393555,1611.448120 
	C1478.823730,1584.533936 1462.320801,1553.421875 1454.839722,1517.672729 
	C1448.109253,1485.510620 1449.653442,1453.436035 1456.440186,1419.770020 
M875.626038,700.692810 
	C875.388306,703.251587 875.150635,705.810303 874.869873,708.832153 
	C860.397583,708.832153 846.556274,708.832153 831.448914,708.832153 
	C831.448914,698.506775 831.448914,688.605774 831.448914,678.704834 
	C831.448914,668.379883 831.515503,658.054321 831.429688,647.730103 
	C831.347961,637.896301 831.818665,628.024414 831.108032,618.078857 
	C817.236267,618.078857 804.663818,618.078857 792.180481,618.078857 
	C789.882263,630.063293 790.517639,829.798096 792.746887,836.383484 
	C805.336121,836.383484 817.872620,836.383484 831.298584,836.383484 
	C831.756714,803.370300 831.093445,770.971436 831.669067,738.671997 
	C846.993713,738.671997 860.812683,738.671997 875.533630,738.671997 
	C875.533630,771.483032 875.533630,803.671936 875.533630,836.443115 
	C889.266479,836.443115 902.083496,836.443115 915.267456,836.443115 
	C915.267456,763.418884 915.267456,691.008606 915.267456,618.311768 
	C901.886597,618.311768 889.119568,618.311768 875.627319,618.311768 
	C875.627319,645.569702 875.627319,672.158447 875.626038,700.692810 
M1131.095825,836.515015 
	C1131.614624,833.002197 1132.572632,829.490784 1132.584229,825.976257 
	C1132.696167,792.332031 1132.635254,758.687256 1132.665649,725.042603 
	C1132.668701,721.628967 1132.945679,718.215637 1133.095581,714.802124 
	C1133.900879,714.675476 1134.706177,714.548828 1135.511475,714.422180 
	C1144.012939,734.813538 1152.514893,755.204712 1161.015747,775.596252 
	C1169.555298,796.080750 1178.093750,816.565735 1186.313354,836.284180 
	C1195.925781,836.284180 1204.086426,836.284180 1212.122437,836.284180 
	C1214.051147,821.649780 1213.403442,625.344543 1211.346313,617.728455 
	C1201.048218,617.740173 1190.593262,617.273987 1179.461914,618.055664 
	C1179.461914,657.811462 1179.461914,696.254089 1179.461914,734.696716 
	C1178.801392,734.876831 1178.140869,735.056946 1177.480469,735.237061 
	C1159.898926,696.434448 1143.787964,656.962524 1126.163086,617.656738 
	C1118.482300,617.656738 1111.194580,617.618286 1103.907837,617.687195 
	C1102.335083,617.702087 1100.766113,618.103760 1098.958862,618.360962 
	C1098.958862,691.266541 1098.958862,763.651917 1098.958862,836.922058 
	C1109.537964,836.922058 1119.468384,836.922058 1131.095825,836.515015 
M1058.354370,411.007782 
	C1058.440308,400.497406 1058.158325,389.968323 1058.558350,379.237579 
	C1065.129028,379.237579 1070.295532,379.237579 1076.068726,379.237579 
	C1084.879761,412.620911 1093.582275,445.593262 1102.298950,478.619354 
	C1109.847778,478.619354 1116.167847,478.678680 1122.486328,478.602814 
	C1128.921997,478.525543 1135.355835,478.315216 1142.415283,478.148376 
	C1132.158691,441.548889 1122.312866,406.414948 1112.399902,371.041077 
	C1132.520874,361.118103 1137.548462,343.746277 1138.294067,324.156647 
	C1138.471313,319.501221 1138.438965,314.823853 1138.221924,310.169678 
	C1136.960693,283.116547 1123.216064,266.678955 1096.525269,261.870667 
	C1071.145874,257.298645 1045.461548,259.329224 1019.876526,260.089935 
	C1019.579163,260.098785 1019.290100,260.388580 1018.989746,260.549316 
	C1018.989746,332.972015 1018.989746,405.394714 1018.989746,478.181335 
	C1032.234253,478.181335 1044.801147,478.181335 1058.354370,478.181335 
	C1058.354370,456.172943 1058.354370,434.588715 1058.354370,411.007782 
M1542.162354,837.013245 
	C1548.223389,837.702942 1548.230713,833.745117 1548.220459,829.426575 
	C1548.156372,802.444275 1548.189575,775.461731 1548.190430,748.479309 
	C1548.190552,744.951599 1548.190430,741.423950 1548.190430,737.670166 
	C1554.835449,737.670166 1560.026123,737.670166 1565.691040,737.670166 
	C1574.518433,771.100464 1583.224365,804.071106 1591.928711,837.035522 
	C1599.606812,837.035522 1605.942627,837.303772 1612.245239,836.960571 
	C1618.646851,836.611938 1625.332886,838.553650 1631.710815,835.371033 
	C1621.729980,799.763794 1611.884644,764.640259 1602.141235,729.880188 
	C1620.793579,717.125732 1626.943848,706.134705 1627.954346,684.400757 
	C1628.186157,679.416687 1628.208496,674.403625 1627.974854,669.420410 
	C1626.636353,640.871216 1612.552002,623.318298 1584.082031,620.145691 
	C1559.726196,617.431519 1534.942505,618.551941 1510.346802,618.032654 
	C1509.827026,618.021606 1509.292969,618.694885 1508.726807,619.074951 
	C1508.726807,691.429138 1508.726807,763.805176 1508.726807,837.029480 
	C1519.740479,837.029480 1530.020874,837.029480 1542.162354,837.013245 
M1219.761597,481.343689 
	C1228.045166,480.880676 1236.437988,481.107147 1244.590576,479.816650 
	C1263.871216,476.764679 1277.895630,466.207428 1284.106812,447.473236 
	C1287.308228,437.816895 1289.635010,427.424927 1289.860229,417.309784 
	C1290.578735,385.040497 1290.210815,352.744781 1290.084229,320.460022 
	C1290.039429,309.041748 1287.740967,297.967773 1283.207031,287.457184 
	C1277.021606,273.117767 1266.436157,263.776154 1251.231812,259.758087 
	C1236.130249,255.767212 1220.936646,255.698380 1205.756958,258.920349 
	C1186.409790,263.026855 1173.664062,274.954376 1168.380737,293.752014 
	C1165.625854,303.553619 1164.220337,314.008453 1164.023804,324.203247 
	C1163.459351,353.482666 1163.745239,382.780334 1163.884277,412.069916 
	C1163.912598,418.031769 1164.364136,424.052002 1165.292603,429.939362 
	C1171.442749,468.940613 1192.286865,478.975525 1219.761597,481.343689 
M1361.474976,653.862061 
	C1353.364380,628.069580 1340.059326,617.450562 1312.967041,615.701599 
	C1305.686523,615.231628 1298.300903,615.280273 1291.034180,615.908020 
	C1268.059937,617.892517 1252.146606,629.639954 1245.992676,652.066833 
	C1242.854126,663.504333 1241.127686,675.616333 1240.799194,687.479919 
	C1240.052124,714.454956 1240.351807,741.467285 1240.656982,768.459595 
	C1240.800293,781.131897 1242.501587,793.679993 1246.726440,805.783875 
	C1253.843262,826.172424 1268.306396,837.212830 1289.523438,839.649109 
	C1308.023926,841.773499 1324.074829,837.934387 1334.364380,820.585266 
	C1334.518311,820.325439 1335.494019,820.552856 1336.711304,820.552856 
	C1337.612305,825.772583 1338.542847,831.163147 1339.494873,836.677673 
	C1348.679077,836.867432 1356.861938,838.102478 1364.830078,835.958801 
	C1364.830078,799.009277 1364.830078,762.805603 1364.830078,726.705566 
	C1352.584961,724.773438 1312.716553,725.264832 1306.341309,727.224609 
	C1306.341309,735.186035 1306.341309,743.036377 1306.341309,751.888428 
	C1314.209839,751.888428 1321.392822,751.888428 1329.992432,751.888428 
	C1329.082153,765.223999 1328.527710,777.470459 1327.249634,789.640930 
	C1326.848999,793.456848 1324.971069,797.350525 1322.950562,800.717346 
	C1318.021606,808.930420 1309.946411,810.537537 1301.189941,809.678650 
	C1292.767212,808.852539 1286.538452,804.522827 1284.540771,796.147278 
	C1282.933472,789.408752 1281.883057,782.371887 1281.825928,775.457153 
	C1281.553345,742.464600 1281.653687,709.468384 1281.757812,676.473938 
	C1281.773438,671.502380 1281.975342,666.417847 1283.017944,661.585632 
	C1285.527832,649.953552 1292.714966,644.563538 1304.390869,644.794128 
	C1316.580811,645.034851 1322.441528,649.955261 1324.578003,662.470032 
	C1325.468750,667.687927 1325.512939,673.061768 1325.766479,678.373108 
	C1325.936768,681.941956 1325.798706,685.525574 1325.798706,689.614868 
	C1338.955444,689.614868 1351.071289,689.614868 1363.741943,689.614868 
	C1364.697632,677.776978 1364.244507,666.596741 1361.474976,653.862061 
M984.358215,766.457031 
	C984.243713,717.480042 984.130188,668.502991 983.989380,619.526062 
	C983.988708,619.274536 983.613831,619.015320 983.396423,618.775330 
	C983.172913,618.528687 982.928040,618.301453 983.019714,618.393250 
	C970.521301,618.393250 958.361328,618.393250 945.642395,618.393250 
	C945.642395,624.092041 945.637024,629.052551 945.643188,634.013062 
	C945.700623,680.330505 945.385010,726.653687 946.084839,772.961426 
	C946.257935,784.418396 948.772644,796.096375 951.913818,807.190491 
	C956.324707,822.769165 967.505188,832.362732 983.132996,836.654480 
	C995.842834,840.144958 1008.710083,840.906799 1021.720703,838.740295 
	C1047.735474,834.408691 1060.692993,822.526367 1065.907227,796.751526 
	C1067.939819,786.704407 1068.835815,776.274109 1068.904175,766.009277 
	C1069.212769,719.692871 1069.049316,673.373230 1069.015259,627.054749 
	C1069.013184,624.155029 1068.664185,621.255554 1068.430908,617.650696 
	C1061.413208,617.650696 1055.117188,617.588440 1048.822876,617.668396 
	C1042.671265,617.746521 1036.521484,617.969604 1029.979370,618.139221 
	C1029.979370,623.060608 1029.979370,626.704102 1029.979248,630.347534 
	C1029.978271,677.332458 1030.132080,724.318359 1029.830566,771.301392 
	C1029.777710,779.518982 1028.755737,787.993530 1026.507202,795.871643 
	C1023.197571,807.467957 1011.451416,812.430603 1000.070068,808.334534 
	C993.630798,806.017212 989.022705,801.665405 987.797791,794.993103 
	C986.182434,786.193970 985.464050,777.230164 984.358215,766.457031 
M997.008301,456.196014 
	C997.302185,451.429626 994.273438,450.930115 990.551453,450.950897 
	C978.228821,451.019714 965.905151,451.019043 953.582825,450.923187 
	C950.739990,450.901093 947.900879,450.393799 944.986389,450.102417 
	C944.986389,426.044281 944.986389,402.887970 944.986389,378.548096 
	C958.751404,378.548096 971.929932,378.548096 984.877014,378.548096 
	C984.877014,368.540222 984.877014,359.748260 984.877014,350.120605 
	C971.204163,350.120605 958.334473,350.120605 944.929565,350.120605 
	C944.929565,329.151672 944.929565,309.039978 944.929565,287.569580 
	C962.216309,287.569580 978.959351,287.569580 995.789307,287.569580 
	C995.789307,277.608795 995.789307,269.010284 995.789307,259.932709 
	C965.214172,259.932709 935.041016,259.932709 904.762817,259.932709 
	C904.762817,332.920807 904.762817,405.349976 904.762817,478.115723 
	C935.559326,478.115723 965.732727,478.115723 997.033569,478.115723 
	C997.033569,471.078247 997.033569,464.513184 997.008301,456.196014 
M1475.044800,730.145081 
	C1475.044800,723.260010 1475.044800,716.375000 1475.044800,708.501099 
	C1460.817627,708.501099 1447.984131,708.501099 1434.601807,708.501099 
	C1434.601807,687.380066 1434.601807,667.274719 1434.601807,645.857605 
	C1451.822876,645.857605 1468.579590,645.857605 1485.259277,645.857605 
	C1485.259277,635.752258 1485.259277,626.967896 1485.259277,618.212769 
	C1454.655762,618.212769 1424.824463,618.212769 1394.517090,618.212769 
	C1394.517090,691.167236 1394.517090,763.551941 1394.517090,836.469116 
	C1425.209106,836.469116 1455.355469,836.469116 1485.892334,836.469116 
	C1485.892334,827.346924 1485.892334,818.803101 1485.892334,809.122437 
	C1468.622925,809.122437 1451.800415,809.122437 1434.576416,809.122437 
	C1434.576416,784.846924 1434.576416,761.710754 1434.576416,737.920044 
	C1438.325195,737.742615 1441.563721,737.484375 1444.803955,737.456787 
	C1452.794189,737.388916 1460.787598,737.309143 1468.774902,737.471680 
	C1472.803955,737.553650 1475.225830,736.341858 1475.044800,730.145081 
M875.945557,478.630096 
	C878.194946,478.367310 880.444336,478.104523 882.726074,477.837921 
	C882.726074,468.896820 882.726074,460.440979 882.726074,451.427368 
	C862.698914,450.060455 843.208313,451.933624 822.735901,450.292023 
	C824.353149,445.304077 825.476135,441.545532 826.783813,437.852417 
	C844.654358,387.382172 862.460327,336.888672 880.525696,286.488190 
	C883.671753,277.711029 883.282959,269.098114 882.409302,259.987854 
	C850.315613,259.987854 818.858398,259.987854 786.669739,259.987854 
	C786.865479,269.378448 785.788269,278.167755 787.377136,287.712219 
	C805.578552,287.712219 822.770142,287.712219 841.254822,287.712219 
	C839.683899,292.619812 838.585693,296.367218 837.291504,300.045654 
	C820.294312,348.355255 803.309937,396.669434 786.220825,444.946533 
	C782.339417,455.911530 784.019836,466.905426 784.175903,478.633026 
	C814.925171,478.633026 844.524231,478.633026 875.945557,478.630096 
z"/>
<path fill="#FFFFFF" opacity="1.000000" stroke="none" 
	d="
M1276.000488,1933.404175 
	C1598.938721,1933.404297 1920.876953,1933.403809 2242.815186,1933.411499 
	C2247.146240,1933.411621 2251.493652,1933.295410 2255.804932,1933.616211 
	C2269.086182,1934.604614 2277.383545,1944.365356 2274.698486,1957.493042 
	C2269.299561,1983.889648 2264.328369,2010.480347 2256.908936,2036.338989 
	C2222.862061,2155.000244 2161.189697,2257.741211 2075.262207,2346.006104 
	C1982.664673,2441.121826 1872.551758,2508.538818 1747.335815,2551.781006 
	C1744.506592,2552.758057 1741.676514,2553.732422 1737.669800,2555.113770 
	C1737.669800,2559.739746 1737.670044,2564.657471 1737.669800,2569.575195 
	C1737.669067,2580.239746 1737.831909,2590.907715 1737.626465,2601.568359 
	C1737.361694,2615.305420 1729.498169,2623.015137 1715.706421,2623.417480 
	C1713.375854,2623.485596 1711.041138,2623.403320 1708.708252,2623.403320 
	C1547.072632,2623.403564 1385.437012,2623.405273 1223.801392,2623.407715 
	C1222.135010,2623.407715 1220.465576,2623.492920 1218.802856,2623.418457 
	C1205.543945,2622.824219 1197.956299,2615.117432 1197.825684,2601.810791 
	C1197.691772,2588.162598 1197.795898,2574.511963 1197.795898,2560.125977 
	C1193.599121,2558.702393 1189.579834,2557.298584 1185.534790,2555.973145 
	C1064.967285,2516.459229 957.713989,2454.330811 865.901794,2366.476562 
	C769.294739,2274.034424 700.362244,2164.383545 663.440430,2035.417114 
	C656.764221,2012.097656 652.265686,1988.152222 646.883667,1964.468018 
	C646.151184,1961.244507 645.903564,1957.864502 645.823059,1954.547485 
	C645.540466,1942.894897 652.617493,1934.790527 664.131104,1933.699829 
	C668.430298,1933.292480 672.786438,1933.414673 677.116577,1933.414429 
	C876.411194,1933.402710 1075.705811,1933.404175 1276.000488,1933.404175 
z"/>
<path fill="#FFFEFD" opacity="1.000000" stroke="none" 
	d="
M434.397278,446.048889 
	C440.614563,425.933624 442.884369,406.234192 440.195251,386.072601 
	C439.887482,383.765259 439.575287,381.448273 439.071350,379.178833 
	C431.116302,343.355103 402.957855,340.194275 379.493683,348.642273 
	C368.884857,352.461823 362.214233,360.691650 357.815277,370.929535 
	C351.123535,386.503448 348.849762,402.956055 348.262909,419.669891 
	C347.855438,431.274567 348.184509,442.905121 348.184509,455.258545 
	C312.507477,455.258545 277.739471,455.258545 242.286636,455.258545 
	C242.073380,452.658600 241.710663,450.108704 241.678375,447.554596 
	C241.332581,420.204559 241.493271,392.894867 248.073273,366.080902 
	C251.980896,350.157104 257.531128,334.901794 265.414032,320.467346 
	C283.210297,287.880463 310.242126,267.228607 346.125458,258.465393 
	C381.036621,249.939545 416.268158,249.749146 451.060822,258.602295 
	C504.326263,272.155945 535.132629,307.444366 545.943848,360.673828 
	C557.554565,417.840027 544.997620,470.665436 514.883484,519.521729 
	C495.136932,551.557861 473.841736,582.644409 453.044556,614.026672 
	C425.986542,654.856323 398.728210,695.553284 371.578979,736.322510 
	C369.623993,739.258301 367.855316,742.318115 364.973450,746.981384 
	C394.710785,746.981384 422.584351,746.981384 450.457916,746.981384 
	C478.089569,746.981384 505.721222,746.981384 533.148254,746.981384 
	C535.517517,754.936157 535.799438,823.395874 533.604980,833.254517 
	C436.833374,833.254517 339.968323,833.254517 242.419235,833.254517 
	C242.143860,830.401428 241.693771,827.865906 241.686691,825.329163 
	C241.629028,804.663879 241.798172,783.996643 241.554703,763.334106 
	C241.492416,758.048889 242.993088,753.749451 245.816177,749.404785 
	C295.013580,673.690735 344.223785,597.984558 393.153595,522.097656 
	C403.794098,505.594940 413.655426,488.565094 423.279602,471.443024 
	C427.657288,463.654846 430.582855,455.050415 434.397278,446.048889 
z"/>
<path fill="#FFFEFD" opacity="1.000000" stroke="none" 
	d="
M1202.637695,1629.352417 
	C1230.693115,1663.925903 1252.052612,1701.219849 1262.854492,1744.047363 
	C1272.674683,1782.983032 1272.363403,1821.853027 1262.122192,1860.655762 
	C1261.537964,1862.869507 1260.638306,1864.999878 1259.791016,1867.441162 
	C1225.275635,1867.441162 1191.032349,1867.441162 1156.130249,1867.441162 
	C1156.786987,1864.932739 1157.154663,1862.692139 1157.949585,1860.614990 
	C1175.657593,1814.343628 1172.257446,1769.278809 1150.437378,1725.189331 
	C1139.255005,1702.594360 1124.393311,1682.624512 1107.489990,1664.058716 
	C1073.389771,1626.604248 1049.566162,1583.700195 1038.891724,1533.910889 
	C1029.731567,1491.183960 1031.084961,1448.481812 1040.169189,1405.968628 
	C1051.427612,1353.279785 1072.417480,1304.604492 1101.547852,1259.338379 
	C1110.414673,1245.560059 1122.813965,1237.726562 1138.838379,1235.107788 
	C1152.228149,1232.919556 1164.739136,1235.406982 1176.367065,1242.089600 
	C1196.724609,1253.789185 1205.005493,1278.298950 1190.459106,1300.385254 
	C1165.098389,1338.891602 1147.840454,1380.946533 1139.056519,1426.298218 
	C1129.668213,1474.770264 1133.211670,1521.781616 1155.779053,1566.476074 
	C1163.941406,1582.641357 1174.394653,1597.222168 1186.431030,1610.714111 
	C1191.754272,1616.681030 1196.938965,1622.771606 1202.637695,1629.352417 
z"/>
<path fill="#FFFEFD" opacity="1.000000" stroke="none" 
	d="
M1741.583496,1249.573730 
	C1760.590820,1233.123047 1781.352783,1230.064819 1803.554810,1239.484741 
	C1830.143311,1250.765503 1837.157227,1278.965210 1822.363770,1301.407959 
	C1793.973511,1344.477661 1775.416504,1391.817871 1768.821167,1443.206299 
	C1760.669678,1506.721191 1775.988037,1563.513916 1819.679199,1611.535767 
	C1847.025269,1641.592285 1870.002319,1674.484009 1885.035034,1712.487915 
	C1904.131226,1760.764404 1907.628296,1810.079712 1894.487305,1860.431641 
	C1893.911865,1862.636597 1893.085693,1864.776123 1892.253174,1867.322998 
	C1857.735718,1867.322998 1823.517578,1867.322998 1788.566284,1867.322998 
	C1789.099609,1865.085205 1789.360352,1862.900269 1790.131958,1860.913574 
	C1808.957153,1812.439941 1804.239380,1765.629639 1780.301392,1720.152588 
	C1769.360962,1699.368286 1755.247314,1680.885010 1739.493774,1663.558594 
	C1711.789307,1633.087891 1690.765991,1598.658325 1678.105591,1559.313843 
	C1664.256592,1516.276001 1662.126953,1472.280273 1668.707397,1427.902954 
	C1677.430786,1369.073730 1699.244141,1314.999268 1730.585938,1264.655762 
	C1733.742554,1259.585449 1737.564087,1254.929321 1741.583496,1249.573730 
z"/>
<path fill="#FFFEFD" opacity="1.000000" stroke="none" 
	d="
M1456.292847,1420.605347 
	C1449.653442,1453.436035 1448.109253,1485.510620 1454.839722,1517.672729 
	C1462.320801,1553.421875 1478.823730,1584.533936 1503.393555,1611.448120 
	C1526.199585,1636.430298 1545.955566,1663.523315 1560.761963,1694.062988 
	C1579.129150,1731.947144 1588.194214,1771.799072 1585.812988,1813.979370 
	C1584.799438,1831.936035 1582.023071,1849.635742 1576.298828,1867.262451 
	C1541.556763,1867.262451 1507.150391,1867.262451 1471.991333,1867.262451 
	C1472.873169,1864.462402 1473.437622,1862.265015 1474.246704,1860.161743 
	C1491.915527,1814.236816 1488.376831,1769.457520 1466.945190,1725.674805 
	C1456.169067,1703.660278 1441.928833,1684.006836 1425.441528,1665.969727 
	C1403.474365,1641.937744 1385.117554,1615.544067 1371.929199,1585.671265 
	C1350.929932,1538.105835 1345.179810,1488.432495 1351.348999,1437.120239 
	C1358.713623,1375.865967 1380.813599,1319.904907 1412.617065,1267.481079 
	C1416.062500,1261.801758 1419.675903,1256.083496 1424.066406,1251.142822 
	C1443.548706,1229.218506 1482.883179,1228.935913 1503.081909,1250.293945 
	C1516.410889,1264.387939 1517.841919,1282.445068 1506.785034,1299.733643 
	C1485.264404,1333.383545 1469.216309,1369.413452 1459.301758,1408.137207 
	C1458.311279,1412.005371 1457.392334,1415.891968 1456.292847,1420.605347 
z"/>
<path fill="#FEFCF8" opacity="1.000000" stroke="none" 
	d="
M875.626709,699.720032 
	C875.627319,672.158447 875.627319,645.569702 875.627319,618.311768 
	C889.119568,618.311768 901.886597,618.311768 915.267456,618.311768 
	C915.267456,691.008606 915.267456,763.418884 915.267456,836.443115 
	C902.083496,836.443115 889.266479,836.443115 875.533630,836.443115 
	C875.533630,803.671936 875.533630,771.483032 875.533630,738.671997 
	C860.812683,738.671997 846.993713,738.671997 831.669067,738.671997 
	C831.093445,770.971436 831.756714,803.370300 831.298584,836.383484 
	C817.872620,836.383484 805.336121,836.383484 792.746887,836.383484 
	C790.517639,829.798096 789.882263,630.063293 792.180481,618.078857 
	C804.663818,618.078857 817.236267,618.078857 831.108032,618.078857 
	C831.818665,628.024414 831.347961,637.896301 831.429688,647.730103 
	C831.515503,658.054321 831.448914,668.379883 831.448914,678.704834 
	C831.448914,688.605774 831.448914,698.506775 831.448914,708.832153 
	C846.556274,708.832153 860.397583,708.832153 874.869873,708.832153 
	C875.150635,705.810303 875.388306,703.251587 875.626709,699.720032 
z"/>
<path fill="#FEFDF8" opacity="1.000000" stroke="none" 
	d="
M1130.247314,836.718506 
	C1119.468384,836.922058 1109.537964,836.922058 1098.958862,836.922058 
	C1098.958862,763.651917 1098.958862,691.266541 1098.958862,618.360962 
	C1100.766113,618.103760 1102.335083,617.702087 1103.907837,617.687195 
	C1111.194580,617.618286 1118.482300,617.656738 1126.163086,617.656738 
	C1143.787964,656.962524 1159.898926,696.434448 1177.480469,735.237061 
	C1178.140869,735.056946 1178.801392,734.876831 1179.461914,734.696716 
	C1179.461914,696.254089 1179.461914,657.811462 1179.461914,618.055664 
	C1190.593262,617.273987 1201.048218,617.740173 1211.346313,617.728455 
	C1213.403442,625.344543 1214.051147,821.649780 1212.122437,836.284180 
	C1204.086426,836.284180 1195.925781,836.284180 1186.313354,836.284180 
	C1178.093750,816.565735 1169.555298,796.080750 1161.015747,775.596252 
	C1152.514893,755.204712 1144.012939,734.813538 1135.511475,714.422180 
	C1134.706177,714.548828 1133.900879,714.675476 1133.095581,714.802124 
	C1132.945679,718.215637 1132.668701,721.628967 1132.665649,725.042603 
	C1132.635254,758.687256 1132.696167,792.332031 1132.584229,825.976257 
	C1132.572632,829.490784 1131.614624,833.002197 1130.247314,836.718506 
z"/>
<path fill="#FEFEFB" opacity="1.000000" stroke="none" 
	d="
M1058.354370,412.006134 
	C1058.354370,434.588715 1058.354370,456.172943 1058.354370,478.181335 
	C1044.801147,478.181335 1032.234253,478.181335 1018.989746,478.181335 
	C1018.989746,405.394714 1018.989746,332.972015 1018.993469,260.548279 
	C1019.290100,260.388580 1019.579163,260.098785 1019.876526,260.089935 
	C1045.461548,259.329224 1071.145874,257.298645 1096.525269,261.870667 
	C1123.216064,266.678955 1136.960693,283.116547 1138.221924,310.169678 
	C1138.438965,314.823853 1138.471313,319.501221 1138.294067,324.156647 
	C1137.548462,343.746277 1132.520874,361.118103 1112.399902,371.041077 
	C1122.312866,406.414948 1132.158691,441.548889 1142.415283,478.148376 
	C1135.355835,478.315216 1128.921997,478.525543 1122.486328,478.602814 
	C1116.167847,478.678680 1109.847778,478.619354 1102.298950,478.619354 
	C1093.582275,445.593262 1084.879761,412.620911 1076.068726,379.237579 
	C1070.295532,379.237579 1065.129028,379.237579 1058.558350,379.237579 
	C1058.158325,389.968323 1058.440308,400.497406 1058.354370,412.006134 
M1096.835571,298.801147 
	C1088.883545,287.770569 1073.778320,283.806488 1058.323853,288.973541 
	C1058.323853,299.422302 1058.323853,310.030457 1058.323853,320.638611 
	C1058.323853,331.119415 1058.323853,341.600220 1058.323853,353.144318 
	C1065.921997,352.736572 1072.191406,352.813446 1078.338501,351.983795 
	C1090.984741,350.276978 1098.024902,343.385315 1099.725220,330.692993 
	C1101.094727,320.470337 1101.344238,310.155243 1096.835571,298.801147 
z"/>
<path fill="#FEFDFB" opacity="1.000000" stroke="none" 
	d="
M1541.231689,837.021362 
	C1530.020874,837.029480 1519.740479,837.029480 1508.726807,837.029480 
	C1508.726807,763.805176 1508.726807,691.429138 1508.726807,619.074951 
	C1509.292969,618.694885 1509.827026,618.021606 1510.346802,618.032654 
	C1534.942505,618.551941 1559.726196,617.431519 1584.082031,620.145691 
	C1612.552002,623.318298 1626.636353,640.871216 1627.974854,669.420410 
	C1628.208496,674.403625 1628.186157,679.416687 1627.954346,684.400757 
	C1626.943848,706.134705 1620.793579,717.125732 1602.141235,729.880188 
	C1611.884644,764.640259 1621.729980,799.763794 1631.710815,835.371033 
	C1625.332886,838.553650 1618.646851,836.611938 1612.245239,836.960571 
	C1605.942627,837.303772 1599.606812,837.035522 1591.928711,837.035522 
	C1583.224365,804.071106 1574.518433,771.100464 1565.691040,737.670166 
	C1560.026123,737.670166 1554.835449,737.670166 1548.190430,737.670166 
	C1548.190430,741.423950 1548.190552,744.951599 1548.190430,748.479309 
	C1548.189575,775.461731 1548.156372,802.444275 1548.220459,829.426575 
	C1548.230713,833.745117 1548.223389,837.702942 1541.231689,837.021362 
M1590.063843,673.464722 
	C1588.061157,649.479675 1574.748901,640.817444 1549.078369,646.795532 
	C1547.176147,660.431702 1547.749390,704.059814 1550.256958,711.852661 
	C1557.231812,711.151245 1564.556030,710.977661 1571.629883,709.557495 
	C1580.039551,707.869080 1586.136108,702.597046 1588.006226,693.979675 
	C1589.330444,687.877319 1589.477417,681.519592 1590.063843,673.464722 
z"/>
<path fill="#FEFEFC" opacity="1.000000" stroke="none" 
	d="
M1218.871338,481.247986 
	C1192.286865,478.975525 1171.442749,468.940613 1165.292603,429.939362 
	C1164.364136,424.052002 1163.912598,418.031769 1163.884277,412.069916 
	C1163.745239,382.780334 1163.459351,353.482666 1164.023804,324.203247 
	C1164.220337,314.008453 1165.625854,303.553619 1168.380737,293.752014 
	C1173.664062,274.954376 1186.409790,263.026855 1205.756958,258.920349 
	C1220.936646,255.698380 1236.130249,255.767212 1251.231812,259.758087 
	C1266.436157,263.776154 1277.021606,273.117767 1283.207031,287.457184 
	C1287.740967,297.967773 1290.039429,309.041748 1290.084229,320.460022 
	C1290.210815,352.744781 1290.578735,385.040497 1289.860229,417.309784 
	C1289.635010,427.424927 1287.308228,437.816895 1284.106812,447.473236 
	C1277.895630,466.207428 1263.871216,476.764679 1244.590576,479.816650 
	C1236.437988,481.107147 1228.045166,480.880676 1218.871338,481.247986 
M1204.320801,337.017700 
	C1204.321045,363.659821 1204.185181,390.303101 1204.418213,416.943176 
	C1204.475952,423.553314 1205.111328,430.293640 1206.575806,436.724792 
	C1208.805908,446.516296 1215.843872,451.391724 1226.334595,451.664825 
	C1237.118286,451.945587 1244.948120,446.886108 1247.398438,437.062836 
	C1248.833740,431.308533 1249.545654,425.231598 1249.580811,419.293823 
	C1249.780640,385.659363 1249.762451,352.022705 1249.593994,318.387909 
	C1249.565918,312.771820 1248.831787,307.080780 1247.708374,301.570282 
	C1246.543701,295.857727 1243.526123,291.068665 1237.894531,288.474762 
	C1223.017090,281.622192 1208.030640,289.043762 1205.771240,305.164398 
	C1204.393555,314.993591 1204.745605,325.065247 1204.320801,337.017700 
z"/>
<path fill="#FEFDF9" opacity="1.000000" stroke="none" 
	d="
M1361.649902,654.679199 
	C1364.244507,666.596741 1364.697632,677.776978 1363.741943,689.614868 
	C1351.071289,689.614868 1338.955444,689.614868 1325.798706,689.614868 
	C1325.798706,685.525574 1325.936768,681.941956 1325.766479,678.373108 
	C1325.512939,673.061768 1325.468750,667.687927 1324.578003,662.470032 
	C1322.441528,649.955261 1316.580811,645.034851 1304.390869,644.794128 
	C1292.714966,644.563538 1285.527832,649.953552 1283.017944,661.585632 
	C1281.975342,666.417847 1281.773438,671.502380 1281.757812,676.473938 
	C1281.653687,709.468384 1281.553345,742.464600 1281.825928,775.457153 
	C1281.883057,782.371887 1282.933472,789.408752 1284.540771,796.147278 
	C1286.538452,804.522827 1292.767212,808.852539 1301.189941,809.678650 
	C1309.946411,810.537537 1318.021606,808.930420 1322.950562,800.717346 
	C1324.971069,797.350525 1326.848999,793.456848 1327.249634,789.640930 
	C1328.527710,777.470459 1329.082153,765.223999 1329.992432,751.888428 
	C1321.392822,751.888428 1314.209839,751.888428 1306.341309,751.888428 
	C1306.341309,743.036377 1306.341309,735.186035 1306.341309,727.224609 
	C1312.716553,725.264832 1352.584961,724.773438 1364.830078,726.705566 
	C1364.830078,762.805603 1364.830078,799.009277 1364.830078,835.958801 
	C1356.861938,838.102478 1348.679077,836.867432 1339.494873,836.677673 
	C1338.542847,831.163147 1337.612305,825.772583 1336.711304,820.552856 
	C1335.494019,820.552856 1334.518311,820.325439 1334.364380,820.585266 
	C1324.074829,837.934387 1308.023926,841.773499 1289.523438,839.649109 
	C1268.306396,837.212830 1253.843262,826.172424 1246.726440,805.783875 
	C1242.501587,793.679993 1240.800293,781.131897 1240.656982,768.459595 
	C1240.351807,741.467285 1240.052124,714.454956 1240.799194,687.479919 
	C1241.127686,675.616333 1242.854126,663.504333 1245.992676,652.066833 
	C1252.146606,629.639954 1268.059937,617.892517 1291.034180,615.908020 
	C1298.300903,615.280273 1305.686523,615.231628 1312.967041,615.701599 
	C1340.059326,617.450562 1353.364380,628.069580 1361.649902,654.679199 
z"/>
<path fill="#FEFDFB" opacity="1.000000" stroke="none" 
	d="
M984.359131,767.397095 
	C985.464050,777.230164 986.182434,786.193970 987.797791,794.993103 
	C989.022705,801.665405 993.630798,806.017212 1000.070068,808.334534 
	C1011.451416,812.430603 1023.197571,807.467957 1026.507202,795.871643 
	C1028.755737,787.993530 1029.777710,779.518982 1029.830566,771.301392 
	C1030.132080,724.318359 1029.978271,677.332458 1029.979248,630.347534 
	C1029.979370,626.704102 1029.979370,623.060608 1029.979370,618.139221 
	C1036.521484,617.969604 1042.671265,617.746521 1048.822876,617.668396 
	C1055.117188,617.588440 1061.413208,617.650696 1068.430908,617.650696 
	C1068.664185,621.255554 1069.013184,624.155029 1069.015259,627.054749 
	C1069.049316,673.373230 1069.212769,719.692871 1068.904175,766.009277 
	C1068.835815,776.274109 1067.939819,786.704407 1065.907227,796.751526 
	C1060.692993,822.526367 1047.735474,834.408691 1021.720703,838.740295 
	C1008.710083,840.906799 995.842834,840.144958 983.132996,836.654480 
	C967.505188,832.362732 956.324707,822.769165 951.913818,807.190491 
	C948.772644,796.096375 946.257935,784.418396 946.084839,772.961426 
	C945.385010,726.653687 945.700623,680.330505 945.643188,634.013062 
	C945.637024,629.052551 945.642395,624.092041 945.642395,618.393250 
	C958.361328,618.393250 970.521301,618.393250 983.019714,618.393250 
	C982.928040,618.301453 983.172913,618.528687 983.396423,618.775330 
	C983.613831,619.015320 983.988708,619.274536 983.989380,619.526062 
	C984.130188,668.502991 984.243713,717.480042 984.359131,767.397095 
z"/>
<path fill="#FEFDFB" opacity="1.000000" stroke="none" 
	d="
M997.020935,457.072052 
	C997.033569,464.513184 997.033569,471.078247 997.033569,478.115723 
	C965.732727,478.115723 935.559326,478.115723 904.762817,478.115723 
	C904.762817,405.349976 904.762817,332.920807 904.762817,259.932709 
	C935.041016,259.932709 965.214172,259.932709 995.789307,259.932709 
	C995.789307,269.010284 995.789307,277.608795 995.789307,287.569580 
	C978.959351,287.569580 962.216309,287.569580 944.929565,287.569580 
	C944.929565,309.039978 944.929565,329.151672 944.929565,350.120605 
	C958.334473,350.120605 971.204163,350.120605 984.877014,350.120605 
	C984.877014,359.748260 984.877014,368.540222 984.877014,378.548096 
	C971.929932,378.548096 958.751404,378.548096 944.986389,378.548096 
	C944.986389,402.887970 944.986389,426.044281 944.986389,450.102417 
	C947.900879,450.393799 950.739990,450.901093 953.582825,450.923187 
	C965.905151,451.019043 978.228821,451.019714 990.551453,450.950897 
	C994.273438,450.930115 997.302185,451.429626 997.020935,457.072052 
z"/>
<path fill="#FEFDF9" opacity="1.000000" stroke="none" 
	d="
M1475.032593,731.029175 
	C1475.225830,736.341858 1472.803955,737.553650 1468.774902,737.471680 
	C1460.787598,737.309143 1452.794189,737.388916 1444.803955,737.456787 
	C1441.563721,737.484375 1438.325195,737.742615 1434.576416,737.920044 
	C1434.576416,761.710754 1434.576416,784.846924 1434.576416,809.122437 
	C1451.800415,809.122437 1468.622925,809.122437 1485.892334,809.122437 
	C1485.892334,818.803101 1485.892334,827.346924 1485.892334,836.469116 
	C1455.355469,836.469116 1425.209106,836.469116 1394.517090,836.469116 
	C1394.517090,763.551941 1394.517090,691.167236 1394.517090,618.212769 
	C1424.824463,618.212769 1454.655762,618.212769 1485.259277,618.212769 
	C1485.259277,626.967896 1485.259277,635.752258 1485.259277,645.857605 
	C1468.579590,645.857605 1451.822876,645.857605 1434.601807,645.857605 
	C1434.601807,667.274719 1434.601807,687.380066 1434.601807,708.501099 
	C1447.984131,708.501099 1460.817627,708.501099 1475.044800,708.501099 
	C1475.044800,716.375000 1475.044800,723.260010 1475.032593,731.029175 
z"/>
<path fill="#FEFDF9" opacity="1.000000" stroke="none" 
	d="
M875.034424,478.631561 
	C844.524231,478.633026 814.925171,478.633026 784.175903,478.633026 
	C784.019836,466.905426 782.339417,455.911530 786.220825,444.946533 
	C803.309937,396.669434 820.294312,348.355255 837.291504,300.045654 
	C838.585693,296.367218 839.683899,292.619812 841.254822,287.712219 
	C822.770142,287.712219 805.578552,287.712219 787.377136,287.712219 
	C785.788269,278.167755 786.865479,269.378448 786.669739,259.987854 
	C818.858398,259.987854 850.315613,259.987854 882.409302,259.987854 
	C883.282959,269.098114 883.671753,277.711029 880.525696,286.488190 
	C862.460327,336.888672 844.654358,387.382172 826.783813,437.852417 
	C825.476135,441.545532 824.353149,445.304077 822.735901,450.292023 
	C843.208313,451.933624 862.698914,450.060455 882.726074,451.427368 
	C882.726074,460.440979 882.726074,468.896820 882.726074,477.837921 
	C880.444336,478.104523 878.194946,478.367310 875.034424,478.631561 
z"/>
<path fill="#D0A207" opacity="1.000000" stroke="none" 
	d="
M1097.196167,299.509460 
	C1101.344238,310.155243 1101.094727,320.470337 1099.725220,330.692993 
	C1098.024902,343.385315 1090.984741,350.276978 1078.338501,351.983795 
	C1072.191406,352.813446 1065.921997,352.736572 1058.323853,353.144318 
	C1058.323853,341.600220 1058.323853,331.119415 1058.323853,320.638611 
	C1058.323853,310.030457 1058.323853,299.422302 1058.323853,288.973541 
	C1073.778320,283.806488 1088.883545,287.770569 1097.196167,299.509460 
z"/>
<path fill="#D0A207" opacity="1.000000" stroke="none" 
	d="
M1590.106934,674.370300 
	C1589.477417,681.519592 1589.330444,687.877319 1588.006226,693.979675 
	C1586.136108,702.597046 1580.039551,707.869080 1571.629883,709.557495 
	C1564.556030,710.977661 1557.231812,711.151245 1550.256958,711.852661 
	C1547.749390,704.059814 1547.176147,660.431702 1549.078369,646.795532 
	C1574.748901,640.817444 1588.061157,649.479675 1590.106934,674.370300 
z"/>
<path fill="#D0A207" opacity="1.000000" stroke="none" 
	d="
M1204.320801,336.022827 
	C1204.745605,325.065247 1204.393555,314.993591 1205.771240,305.164398 
	C1208.030640,289.043762 1223.017090,281.622192 1237.894531,288.474762 
	C1243.526123,291.068665 1246.543701,295.857727 1247.708374,301.570282 
	C1248.831787,307.080780 1249.565918,312.771820 1249.593994,318.387909 
	C1249.762451,352.022705 1249.780640,385.659363 1249.580811,419.293823 
	C1249.545654,425.231598 1248.833740,431.308533 1247.398438,437.062836 
	C1244.948120,446.886108 1237.118286,451.945587 1226.334595,451.664825 
	C1215.843872,451.391724 1208.805908,446.516296 1206.575806,436.724792 
	C1205.111328,430.293640 1204.475952,423.553314 1204.418213,416.943176 
	C1204.185181,390.303101 1204.321045,363.659821 1204.320801,336.022827 
z"/>
</svg>