<svg version="1.1" id="Layer_1" xmlns="http://www.w3.org/2000/svg" xmlns:xlink="http://www.w3.org/1999/xlink" x="0px" y="0px"
	 width="100%" viewBox="0 0 3000 3000" enable-background="new 0 0 3000 3000" xml:space="preserve">
<path fill="#30D501" opacity="1.000000" stroke="none" 
	d="
M2.000000,1108.000000 
	C2.000000,738.666748 2.000000,370.333466 2.000000,2.000148 
	C1001.999756,2.000099 2001.999512,2.000099 3001.999512,2.000049 
	C3001.999512,1001.999573 3001.999512,2001.999146 3001.999756,3001.999023 
	C2002.000610,3001.999512 1002.001221,3001.999512 2.000904,3001.999756 
	C2.000000,2371.000000 2.000000,1740.000000 2.000000,1108.000000 
M959.000000,2004.174194 
	C978.005554,2004.174194 997.016174,2003.899414 1016.015076,2004.254883 
	C1033.404907,2004.580078 1045.191162,1996.913452 1052.072144,1981.122559 
	C1057.392212,1968.913818 1062.873779,1956.775513 1068.291382,1944.609375 
	C1102.826294,1867.054077 1137.349731,1789.493896 1171.951538,1711.968506 
	C1173.279297,1708.993896 1173.641724,1705.125854 1177.699829,1703.288940 
	C1179.095215,1712.460327 1180.468506,1721.003174 1181.686646,1729.568115 
	C1191.954712,1801.774292 1202.145996,1873.991333 1212.455811,1946.191528 
	C1223.612915,2024.325073 1234.889404,2102.441650 1246.075073,2180.571289 
	C1248.458862,2197.220703 1258.957275,2209.271240 1273.770264,2212.084229 
	C1289.981812,2215.163330 1303.864746,2208.602295 1312.292725,2193.611084 
	C1317.678345,2184.032227 1322.787476,2174.297607 1328.004272,2164.624023 
	C1374.951172,2077.564941 1421.886841,1990.500000 1468.877075,1903.464355 
	C1470.308716,1900.812988 1471.036377,1897.363037 1474.288696,1896.080200 
	C1474.977173,1896.846191 1475.313110,1897.044067 1475.355957,1897.292236 
	C1486.220947,1960.285278 1497.071167,2023.280884 1507.909058,2086.278564 
	C1517.674194,2143.041504 1527.439697,2199.804443 1537.178223,2256.571777 
	C1547.480103,2316.622314 1557.750000,2376.678223 1568.034790,2436.731934 
	C1572.755737,2464.298340 1577.304688,2491.895752 1582.269409,2519.418213 
	C1585.086060,2535.032715 1597.977173,2546.625488 1612.994507,2547.933838 
	C1629.564087,2549.377197 1644.024414,2540.175537 1649.707642,2524.522461 
	C1650.501953,2522.334717 1651.106934,2520.077393 1651.777954,2517.845947 
	C1670.561768,2455.374023 1689.325684,2392.895996 1708.127441,2330.429443 
	C1814.222412,1977.942749 1920.324707,1625.458374 2026.446899,1272.979858 
	C2027.371948,1269.906982 2028.604370,1266.926636 2030.213135,1262.459839 
	C2032.478516,1266.685181 2034.093262,1269.445679 2035.478149,1272.317017 
	C2079.742676,1364.084961 2123.980957,1455.865479 2168.235352,1547.638306 
	C2173.152100,1557.834717 2177.782959,1568.191162 2183.181641,1578.128174 
	C2190.920166,1592.372192 2207.167969,1599.141479 2222.326416,1595.106567 
	C2238.373779,1590.834961 2249.136719,1577.122314 2248.081543,1560.399658 
	C2247.657227,1553.678101 2245.276123,1546.718384 2242.320557,1540.571533 
	C2180.424072,1411.839844 2118.317871,1283.208984 2056.248047,1154.560791 
	C2055.091309,1152.163208 2054.055176,1149.682861 2052.657959,1147.430054 
	C2044.914673,1134.944214 2033.545288,1128.866943 2019.002563,1130.321289 
	C2004.909790,1131.730591 1995.050171,1139.570068 1989.805054,1152.872803 
	C1988.953003,1155.033569 1988.371826,1157.303223 1987.700317,1159.532959 
	C1868.499023,1555.347534 1749.301392,1951.163086 1630.092285,2346.975342 
	C1629.175537,2350.019043 1628.097412,2353.014404 1626.511353,2357.787598 
	C1625.337769,2354.580566 1624.565552,2353.166016 1624.307373,2351.663330 
	C1614.836060,2296.537109 1605.420410,2241.401367 1595.979736,2186.270020 
	C1586.369995,2130.152100 1576.752441,2074.035889 1567.118652,2017.922119 
	C1556.752563,1957.544189 1546.372437,1897.168579 1535.979858,1836.795288 
	C1532.760376,1818.092407 1529.694336,1799.359375 1526.158447,1780.716064 
	C1523.269165,1765.483276 1512.157349,1754.812744 1497.561157,1752.376099 
	C1483.522217,1750.032349 1469.572144,1756.614868 1461.863159,1769.280151 
	C1460.479370,1771.553589 1459.270752,1773.934814 1458.006104,1776.279541 
	C1407.889526,1869.200439 1357.777832,1962.123901 1307.652710,2055.040039 
	C1305.819214,2058.438721 1303.858521,2061.768799 1301.957153,2065.130859 
	C1298.974609,2056.012939 1297.544556,2047.316650 1296.303345,2038.593506 
	C1285.371948,1961.770996 1274.503540,1884.939575 1263.557495,1808.119019 
	C1253.645630,1738.556030 1243.684448,1668.999878 1233.682373,1599.449829 
	C1232.024414,1587.921875 1230.846802,1576.238159 1228.012817,1564.987793 
	C1224.415771,1550.708008 1214.197998,1542.278198 1199.743042,1540.219482 
	C1184.858643,1538.099731 1172.962402,1543.884155 1164.851929,1556.666992 
	C1162.729492,1560.012207 1161.312134,1563.817871 1159.688477,1567.464355 
	C1107.009277,1685.779053 1054.347656,1804.101685 1001.663574,1922.414307 
	C999.922241,1926.324829 997.976624,1930.144409 995.973022,1934.326172 
	C991.668274,1934.326172 987.697815,1934.326172 983.727356,1934.326172 
	C834.065186,1934.326172 684.403076,1934.325684 534.740906,1934.329590 
	C531.408203,1934.329712 528.055847,1934.154053 524.746155,1934.443604 
	C507.345886,1935.965454 493.614532,1949.109619 492.085907,1965.556152 
	C490.470032,1982.941406 500.605316,1998.366333 517.184387,2002.836670 
	C521.904175,2004.109375 527.057861,2004.121094 532.012817,2004.123291 
	C673.675232,2004.186279 815.337585,2004.174194 959.000000,2004.174194 
M2435.937256,2028.937134 
	C2447.447510,2017.350952 2459.256836,2006.042725 2470.368896,1994.086304 
	C2478.508301,1985.327881 2486.588379,1976.290527 2493.208496,1966.384399 
	C2516.113525,1932.109009 2522.584473,1894.002075 2517.051514,1853.653442 
	C2512.552490,1820.843872 2500.196777,1791.391235 2477.375488,1766.928223 
	C2455.052979,1742.999878 2427.206787,1730.270386 2394.853516,1726.524536 
	C2367.603027,1723.369385 2344.688477,1733.893433 2322.808594,1748.204712 
	C2321.972412,1748.751831 2321.108643,1749.274292 2320.345703,1749.913696 
	C2304.023682,1763.596680 2287.690186,1777.266724 2271.425293,1791.017578 
	C2268.671631,1793.345581 2266.223145,1796.034302 2262.422363,1799.735840 
	C2259.200439,1795.882568 2256.681641,1792.318604 2253.623047,1789.301758 
	C2234.129150,1770.073730 2213.937988,1751.666992 2189.729248,1738.373779 
	C2177.065430,1731.420044 2163.751221,1726.055908 2149.031006,1726.067139 
	C2108.919922,1726.097534 2074.949707,1740.582153 2047.771362,1770.238037 
	C1997.419922,1825.179443 1988.942261,1927.427368 2053.820068,1991.813110 
	C2121.718750,2059.196777 2189.072510,2127.129395 2256.679199,2194.807373 
	C2258.747070,2196.877441 2260.977539,2198.784912 2263.208008,2200.837891 
	C2320.678223,2143.645996 2377.808105,2086.792236 2435.937256,2028.937134 
M420.698181,841.875427 
	C423.324860,841.443665 425.947662,840.986572 428.578766,840.583801 
	C480.294006,832.667786 513.929443,803.055054 531.868958,754.570801 
	C540.746826,730.576965 544.351013,705.582275 545.519714,680.216370 
	C546.689758,654.820068 545.051636,629.606323 538.089050,604.983826 
	C528.924194,572.572876 510.784149,547.511414 479.220032,533.514893 
	C478.046875,532.994629 477.045685,532.086487 475.095123,530.774353 
	C490.480286,525.361389 503.074524,517.089905 513.228516,505.323242 
	C524.705994,492.022827 533.033569,476.944458 538.025269,460.124451 
	C548.214233,425.791962 548.287292,391.116425 540.251892,356.444733 
	C528.427307,305.423004 496.903992,272.557312 446.549347,258.784882 
	C410.926361,249.041702 374.678864,248.724258 338.841034,258.062469 
	C292.788177,270.062347 262.078827,299.118134 246.733566,344.162079 
	C239.682434,364.859680 237.369949,386.340515 237.392578,408.118866 
	C237.403519,418.643372 237.394455,429.167877 237.394455,439.587738 
	C274.451569,439.587738 310.207031,439.587738 345.668243,439.587738 
	C346.458954,423.544556 346.442688,408.173584 348.220947,393.013092 
	C349.524567,381.899017 352.617767,370.884552 355.970612,360.156067 
	C358.655457,351.564911 365.067474,345.567596 373.551453,342.121948 
	C398.937805,331.811646 424.508331,343.966522 432.166016,370.057739 
	C437.014893,386.578857 437.284698,403.552338 436.760620,420.573059 
	C436.318359,434.937408 434.737244,449.118103 429.877197,462.780151 
	C423.762024,479.970367 411.697510,490.559723 393.909027,493.782410 
	C384.479553,495.490692 374.731537,495.461212 365.122314,496.145691 
	C361.621063,496.395081 358.105255,496.439911 354.664703,496.575378 
	C354.664703,523.661499 354.664703,549.537292 354.664703,575.732788 
	C364.365845,576.450562 373.600464,577.078918 382.825409,577.826965 
	C407.794189,579.851685 422.373749,591.440186 430.250122,615.355530 
	C434.777557,629.102417 436.243225,643.306335 436.688568,657.662903 
	C437.350861,679.012878 437.166107,700.340271 431.820526,721.191956 
	C426.595184,741.574707 415.619293,750.792053 394.963501,751.155457 
	C375.893158,751.490967 360.469208,745.722351 353.505707,722.622559 
	C352.834351,720.395508 352.170135,718.162476 351.617340,715.904175 
	C347.227295,697.970398 346.764648,679.652832 346.355286,661.334167 
	C346.276001,657.786987 346.343933,654.236450 346.343933,650.890564 
	C328.984528,648.951843 244.781189,649.592041 238.180511,651.479797 
	C238.180511,666.537781 237.389267,681.560059 238.356277,696.468262 
	C240.024963,722.194275 245.356339,747.220154 256.400116,770.759949 
	C272.177551,804.389526 297.609558,826.610901 333.707123,836.300964 
	C361.740784,843.826294 390.167053,845.224243 420.698181,841.875427 
M1380.171387,617.686829 
	C1372.269043,617.686829 1364.366699,617.686829 1356.600342,617.686829 
	C1348.519043,662.783508 1342.224365,706.969238 1332.335083,750.612671 
	C1326.684204,706.502197 1321.033325,662.391785 1315.393188,618.364624 
	C1303.654785,618.364624 1292.859741,618.364624 1281.535767,618.364624 
	C1291.995361,691.517517 1302.343018,763.887207 1312.737671,836.586365 
	C1324.093140,836.586365 1334.634155,836.586365 1345.834229,836.586365 
	C1354.131836,790.443604 1361.047485,744.290894 1369.493042,698.424072 
	C1370.151978,698.473938 1370.811035,698.523865 1371.469971,698.573730 
	C1379.277710,744.550598 1387.085327,790.527405 1394.888184,836.475952 
	C1406.224976,836.475952 1416.427490,836.475952 1427.176758,836.475952 
	C1437.539062,763.469299 1448.185303,690.989868 1458.296875,618.014709 
	C1446.589966,618.014709 1436.347412,618.014709 1425.242798,618.014709 
	C1419.534668,662.440979 1413.857300,706.626892 1408.179932,750.812744 
	C1406.179565,749.434387 1405.838013,748.182861 1405.620850,746.910095 
	C1399.742310,712.473877 1393.981812,678.017090 1387.934692,643.610596 
	C1386.416016,634.969421 1383.983154,626.488831 1380.171387,617.686829 
M1914.930298,668.999512 
	C1915.068237,724.275146 1915.205322,779.550842 1915.363525,834.826416 
	C1915.364258,835.106140 1915.633911,835.406189 1915.827637,835.658752 
	C1916.028687,835.920776 1916.290283,836.136414 1917.211182,837.061157 
	C1930.134766,837.061157 1943.755005,837.185242 1957.371826,837.023254 
	C1969.016113,836.884766 1980.737183,837.172485 1992.281494,835.936951 
	C2015.140991,833.490295 2030.782104,819.581482 2036.771484,797.390686 
	C2040.842041,782.309875 2040.864990,767.069885 2037.129639,751.937256 
	C2033.646973,737.828552 2025.462402,727.484863 2011.684937,721.973450 
	C2009.812134,721.224182 2008.086914,720.105835 2004.973389,718.461121 
	C2020.447754,714.203064 2028.357666,704.446411 2031.322266,690.781250 
	C2034.031860,678.290283 2033.900635,665.657471 2030.840454,653.151550 
	C2027.338257,638.839172 2018.861450,628.429688 2004.972778,623.737976 
	C1995.957275,620.692444 1986.296875,618.531616 1976.824585,618.078430 
	C1957.881104,617.172241 1938.868408,617.689453 1919.884277,617.694397 
	C1918.348511,617.694824 1916.812866,618.273743 1914.930298,618.653870 
	C1914.930298,635.050171 1914.930298,651.024841 1914.930298,668.999512 
M1564.695557,259.383667 
	C1556.546753,259.420715 1548.397827,259.457764 1539.816406,259.496796 
	C1539.816406,275.898468 1539.828979,290.864471 1539.812866,305.830475 
	C1539.796997,320.662018 1539.887817,335.498230 1539.748291,350.496948 
	C1524.416748,350.496948 1510.554810,350.496948 1495.867920,350.496948 
	C1495.867920,320.175110 1495.867920,290.313507 1495.867920,260.109894 
	C1481.940430,260.109894 1468.852295,260.109894 1456.071289,260.109894 
	C1456.071289,333.277710 1456.071289,405.717438 1456.071289,477.906464 
	C1469.591919,477.906464 1482.410034,477.906464 1495.914185,477.906464 
	C1495.914185,445.005524 1495.914185,412.807373 1495.914185,380.263275 
	C1510.740967,380.263275 1524.845703,380.263275 1540.073975,380.263275 
	C1540.073975,413.224304 1540.073975,445.620911 1540.073975,477.855865 
	C1553.992432,477.855865 1566.770264,477.855865 1579.680908,477.855865 
	C1579.680908,404.869873 1579.680908,332.645691 1579.680908,259.383728 
	C1575.095215,259.383728 1570.836182,259.383728 1564.695557,259.383667 
M2169.816650,395.151642 
	C2169.816650,422.708435 2169.816650,450.265198 2169.816650,478.068024 
	C2183.655762,478.068024 2196.515625,478.068024 2209.458496,478.068024 
	C2209.458496,405.066925 2209.458496,332.615875 2209.458496,259.995361 
	C2196.072021,259.995361 2183.249512,259.995361 2169.513672,259.995361 
	C2169.513672,290.444305 2169.513672,320.294128 2169.513672,350.238098 
	C2154.487793,350.238098 2140.397217,350.238098 2125.399170,350.238098 
	C2125.399170,319.722717 2125.399170,289.935791 2125.399170,259.980530 
	C2111.655518,259.980530 2098.841797,259.980530 2085.935059,259.980530 
	C2085.935059,333.013092 2085.935059,405.447388 2085.935059,478.074493 
	C2099.349609,478.074493 2112.201172,478.074493 2126.051758,478.074493 
	C2126.051758,445.086121 2126.051758,412.626617 2126.051758,379.678894 
	C2134.009277,379.678894 2140.968018,379.634430 2147.926025,379.691223 
	C2155.079590,379.749573 2162.232910,379.906708 2169.816650,380.027466 
	C2169.816650,385.267639 2169.816650,389.230896 2169.816650,395.151642 
M2250.924072,633.333618 
	C2250.924072,700.854065 2250.924072,768.374451 2250.924072,836.340088 
	C2262.779297,836.340088 2273.518311,836.340088 2283.875488,836.340088 
	C2284.392822,835.326355 2284.665771,835.040527 2284.666992,834.753418 
	C2284.850342,795.463318 2285.011475,756.173218 2285.197266,716.883179 
	C2285.200439,716.241882 2285.454590,715.588196 2285.672852,714.968872 
	C2285.752441,714.742737 2286.042969,714.512573 2286.283936,714.441101 
	C2286.590088,714.350342 2286.943604,714.419128 2287.979492,714.419128 
	C2304.830811,754.904114 2321.791992,795.652954 2339.029297,837.065247 
	C2345.544189,837.065247 2351.826660,837.127075 2358.106689,837.032349 
	C2360.367676,836.998352 2362.622803,836.587952 2365.270996,836.308044 
	C2365.270996,763.408508 2365.270996,690.944336 2365.270996,618.334839 
	C2354.127930,618.334839 2343.361328,618.334839 2331.729004,618.334839 
	C2331.729004,657.721375 2331.729004,696.407349 2331.729004,735.093323 
	C2331.099121,735.237122 2330.469238,735.380981 2329.839355,735.524841 
	C2312.857666,696.352295 2295.876221,657.179810 2278.954834,618.146118 
	C2269.464600,618.146118 2260.590576,618.146118 2250.924072,618.146118 
	C2250.924072,622.918762 2250.924072,627.180542 2250.924072,633.333618 
M975.041504,478.184052 
	C988.737610,482.011475 1002.550781,482.466644 1016.577820,480.140991 
	C1036.736938,476.798615 1050.615967,465.900818 1057.754517,446.690033 
	C1061.861938,435.636505 1063.307007,424.058746 1063.377197,412.372345 
	C1063.551270,383.397064 1063.577026,354.419098 1063.375122,325.444214 
	C1063.284180,312.406189 1061.517700,299.575836 1056.215576,287.443695 
	C1049.945312,273.096069 1039.423706,263.746277 1024.220947,259.748993 
	C1011.484070,256.400116 998.645569,256.039825 985.596802,257.703583 
	C961.493225,260.777008 945.664734,273.994537 940.207397,297.609375 
	C937.904907,307.572540 936.902832,318.008667 936.718323,328.255157 
	C936.244629,354.558472 936.445984,380.876740 936.630310,407.187286 
	C936.683838,414.825684 937.009827,422.551422 938.217529,430.075592 
	C941.727905,451.945770 950.472534,470.232605 975.041504,478.184052 
M1075.817383,750.999939 
	C1075.817383,779.444214 1075.817383,807.888489 1075.817383,837.558167 
	C1100.884399,836.962891 1124.551025,837.569153 1147.987915,835.532776 
	C1174.120850,833.262146 1189.506958,817.706238 1194.091187,791.947510 
	C1195.482178,784.131775 1196.179443,776.099792 1196.250244,768.158508 
	C1196.502319,739.870056 1196.507324,711.576660 1196.244995,683.288452 
	C1196.171387,675.350037 1195.442261,667.315430 1194.001709,659.511658 
	C1190.092163,638.329956 1177.200439,625.268188 1156.279175,620.518616 
	C1149.511719,618.982239 1142.470947,618.123962 1135.532471,617.968811 
	C1117.568481,617.566833 1099.591797,617.699280 1081.620239,617.710815 
	C1079.776123,617.712036 1077.932495,618.336914 1075.817383,618.721680 
	C1075.817383,662.503235 1075.817383,705.751587 1075.817383,750.999939 
M1362.346436,333.024475 
	C1362.260986,327.694366 1362.304932,322.358582 1362.069458,317.035095 
	C1360.425903,279.864990 1342.498779,261.474274 1305.393188,259.929413 
	C1285.764771,259.112213 1266.083740,259.545197 1246.426392,259.456177 
	C1245.181152,259.450531 1243.934204,259.812836 1242.390869,260.049530 
	C1242.390869,332.899292 1242.390869,405.344482 1242.390869,477.607178 
	C1266.535889,477.607178 1290.248169,479.213318 1313.646484,477.188843 
	C1341.112305,474.812408 1355.532104,459.294922 1360.336426,431.836853 
	C1361.364746,425.959381 1362.055420,419.946045 1362.109131,413.988129 
	C1362.346191,387.665466 1362.293945,361.340149 1362.346436,333.024475 
M1214.009644,323.234283 
	C1213.255859,316.299927 1213.060181,309.249481 1211.645996,302.452545 
	C1207.018799,280.212830 1195.392212,264.020111 1171.900391,258.910614 
	C1157.724731,255.827408 1143.486450,255.871063 1129.318726,258.954834 
	C1109.983521,263.163300 1097.497559,275.099823 1092.040283,293.884155 
	C1089.744385,301.786926 1088.095947,310.172333 1087.984009,318.363373 
	C1087.528931,351.635712 1087.250977,384.931152 1088.084839,418.188568 
	C1088.353882,428.921387 1091.105103,439.965637 1094.729980,450.152557 
	C1100.069946,465.159515 1111.468872,474.560577 1127.113159,478.567780 
	C1142.239868,482.442444 1157.385620,482.610077 1172.543945,479.019684 
	C1190.096924,474.862061 1201.875732,464.103943 1208.167114,447.262024 
	C1212.409668,435.904236 1214.038086,424.117157 1214.023071,412.038452 
	C1213.987061,383.084412 1214.012207,354.130310 1214.009644,323.234283 
M929.985229,687.000000 
	C929.985229,736.601135 929.985229,786.202271 929.985229,836.411377 
	C941.500305,836.411377 952.337708,836.411377 964.349609,836.411377 
	C964.349609,795.112793 964.349609,754.174316 964.349609,713.235901 
	C965.052307,713.109497 965.755005,712.983093 966.457642,712.856689 
	C983.648743,754.131714 1000.839905,795.406799 1017.964050,836.521057 
	C1027.005249,836.521057 1035.217041,836.521057 1043.347534,836.521057 
	C1045.329346,823.453674 1044.710693,624.618835 1042.818970,618.196655 
	C1032.522217,618.196655 1022.309265,618.196655 1010.749695,618.196655 
	C1010.749695,656.969971 1010.750671,695.209412 1010.724915,733.448853 
	C1010.724731,733.651184 1010.380920,733.948914 1010.139343,734.031189 
	C1009.840881,734.132812 1009.481445,734.055542 1008.279907,734.055542 
	C991.555054,695.491516 974.683289,656.588867 958.125305,618.409607 
	C948.116455,618.409607 939.306335,618.409607 929.985229,618.409607 
	C929.985229,641.105042 929.985229,663.052490 929.985229,687.000000 
M865.361450,367.370605 
	C861.088196,367.370605 856.814880,367.370605 852.529053,367.370605 
	C852.529053,376.443756 852.529053,384.571472 852.529053,393.648804 
	C860.400757,393.648804 867.587036,393.648804 875.166016,393.648804 
	C876.121338,407.209167 876.012695,419.757721 873.526367,432.203308 
	C873.010803,434.783936 872.019470,437.325684 870.891785,439.717743 
	C866.931396,448.118225 859.653015,452.134521 849.703369,451.625183 
	C839.538330,451.104828 833.088989,446.686066 830.652039,437.041595 
	C828.957703,430.336090 828.045166,423.262360 827.987488,416.343079 
	C827.718262,384.038635 827.772156,351.730133 827.953430,319.424469 
	C827.986816,313.482117 828.528809,307.398376 829.913940,301.639130 
	C832.474854,290.990875 840.138550,285.911957 851.397888,286.396179 
	C862.612915,286.878510 868.656372,291.674805 870.716919,302.718018 
	C871.745117,308.228577 871.688416,313.955231 871.940186,319.592316 
	C872.113342,323.470337 871.973389,327.362366 871.973389,331.424255 
	C885.349731,331.424255 897.478149,331.424255 909.961609,331.424255 
	C910.797546,318.540344 910.737061,306.303680 907.512512,294.295715 
	C902.399719,275.256378 890.621704,262.898346 870.974609,258.874512 
	C856.111694,255.830490 841.248352,255.688492 826.447388,259.548157 
	C811.996338,263.316528 801.669556,271.891998 795.381958,285.464081 
	C790.694092,295.583160 788.022461,306.230164 787.852966,317.296692 
	C787.378967,348.258240 786.928223,379.228821 787.224670,410.188599 
	C787.322449,420.405273 788.741882,430.851044 791.265808,440.756683 
	C798.396362,468.742340 816.064880,481.881470 844.853760,481.844910 
	C859.480835,481.826355 871.513123,476.809387 879.433838,463.852203 
	C880.023254,462.888123 881.002563,462.162415 882.793396,460.285187 
	C883.931641,467.230133 884.860962,472.900421 885.669434,477.833191 
	C895.159790,477.833191 903.295166,477.833191 911.467651,477.833191 
	C911.467651,440.810150 911.467651,404.584595 911.467651,367.370728 
	C896.493042,367.370728 881.888794,367.370728 865.361450,367.370605 
M2395.257080,664.392334 
	C2394.786133,668.018921 2393.946533,671.640930 2393.902100,675.272766 
	C2393.535156,705.249878 2393.101074,735.229187 2393.140137,765.207153 
	C2393.160156,780.564636 2394.764160,795.769043 2400.925293,810.179565 
	C2408.644043,828.233276 2422.706055,837.411316 2441.682861,839.591003 
	C2460.050781,841.700684 2476.349609,838.441772 2486.468262,820.710632 
	C2486.712891,820.282227 2487.551514,820.192871 2488.884277,819.605286 
	C2489.930420,825.402710 2490.952148,831.063171 2491.891113,836.265259 
	C2501.036621,836.265259 2509.195068,836.265259 2517.269775,836.265259 
	C2519.039551,814.795959 2518.287109,733.176880 2516.361816,726.247437 
	C2497.132812,726.247437 2477.945801,726.247437 2458.751221,726.247437 
	C2458.751221,734.949341 2458.751221,743.028076 2458.751221,752.080444 
	C2466.676025,752.080444 2473.834717,752.080444 2482.332031,752.080444 
	C2481.498535,765.017090 2480.946777,776.914551 2479.836426,788.759705 
	C2479.505615,792.289612 2477.960938,795.846802 2476.361328,799.089905 
	C2471.900391,808.132690 2463.856445,810.415405 2454.572998,809.766113 
	C2445.708984,809.146240 2439.266846,804.912231 2436.961426,796.108948 
	C2435.455566,790.359131 2434.195068,784.348083 2434.152100,778.444519 
	C2433.898193,743.462097 2433.975830,708.476501 2434.109375,673.492737 
	C2434.125977,669.208130 2434.752197,664.833252 2435.765869,660.663086 
	C2438.448486,649.629150 2445.363525,644.565796 2456.750732,644.779663 
	C2468.603516,645.002258 2474.884521,649.760315 2476.863525,661.359558 
	C2478.029541,668.195557 2477.732666,675.277954 2478.155762,682.245667 
	C2478.309570,684.775635 2478.644043,687.294556 2478.885742,689.716187 
	C2491.599854,689.716187 2503.488525,689.716187 2515.960205,689.716187 
	C2516.818115,675.987488 2516.708252,662.872620 2512.709717,649.950745 
	C2507.318359,632.526733 2496.043945,621.568665 2478.145508,617.547974 
	C2463.964111,614.362366 2449.732666,614.277893 2435.534912,617.131470 
	C2417.728760,620.710327 2405.767334,631.313110 2399.600586,648.320801 
	C2397.908691,652.987244 2396.911377,657.905457 2395.257080,664.392334 
M1734.107178,380.996216 
	C1727.612427,413.175262 1721.117554,445.354309 1714.525391,478.014923 
	C1727.714600,478.014923 1739.836670,478.014923 1752.348633,478.014923 
	C1755.397217,461.213684 1758.353760,444.920044 1761.350952,428.402039 
	C1774.164673,428.402039 1786.318970,428.402039 1798.918091,428.402039 
	C1801.996338,445.410797 1804.993652,461.972534 1808.006470,478.619934 
	C1815.008667,478.619934 1821.002197,478.677216 1826.994019,478.603485 
	C1832.791992,478.532135 1838.588257,478.325928 1845.205078,478.158173 
	C1830.270142,404.479889 1815.620850,332.210632 1800.944824,259.808960 
	C1786.454102,259.808960 1772.894531,259.808960 1759.000488,259.808960 
	C1757.943604,264.657562 1756.910034,269.165192 1755.981567,273.694397 
	C1748.764893,308.902649 1741.568481,344.115021 1734.107178,380.996216 
M892.174438,748.452820 
	C883.416321,705.101318 874.658142,661.749817 865.837585,618.089111 
	C851.683289,618.089111 838.106323,618.089111 823.677185,618.089111 
	C808.917480,690.731323 794.169739,763.314514 779.331421,836.343689 
	C792.761353,836.343689 804.897827,836.343689 817.199951,836.343689 
	C820.292908,819.425842 823.269775,803.142822 826.256348,786.806519 
	C839.204407,786.806519 851.371155,786.806519 863.806763,786.806519 
	C866.835632,803.664001 869.766663,819.977295 872.657227,836.065063 
	C885.509888,837.877258 902.807434,837.425476 909.848816,835.079346 
	C904.058594,806.799133 898.257263,778.464478 892.174438,748.452820 
M1611.814575,334.999969 
	C1611.814575,382.590668 1611.814575,430.181335 1611.814575,478.184540 
	C1642.914185,478.184540 1673.147217,478.184540 1703.782715,478.184540 
	C1703.782715,469.190308 1703.782715,460.630981 1703.782715,451.027771 
	C1686.568604,451.027771 1669.722534,451.027771 1652.374146,451.027771 
	C1652.374146,426.487030 1652.374146,402.989410 1652.374146,378.360046 
	C1665.963257,378.360046 1679.088501,378.360046 1691.891235,378.360046 
	C1691.891235,368.400208 1691.891235,359.583252 1691.891235,349.959045 
	C1678.305908,349.959045 1665.438232,349.959045 1652.411865,349.959045 
	C1652.411865,328.983521 1652.411865,308.842499 1652.411865,287.526886 
	C1669.727051,287.526886 1686.515015,287.526886 1703.139526,287.526886 
	C1703.139526,277.560669 1703.139526,268.785583 1703.139526,259.804047 
	C1672.517090,259.804047 1642.605957,259.804047 1611.814575,259.804047 
	C1611.814575,284.477478 1611.814575,308.738708 1611.814575,334.999969 
M1481.975098,701.000000 
	C1481.975098,745.927917 1481.975098,790.855896 1481.975098,836.407532 
	C1513.026733,836.407532 1543.432739,836.407532 1574.156006,836.407532 
	C1574.156006,827.273010 1574.156006,818.772583 1574.156006,809.298340 
	C1556.871094,809.298340 1540.034668,809.298340 1522.889893,809.298340 
	C1522.889893,784.884705 1522.889893,761.454712 1522.889893,737.880859 
	C1536.657593,736.618591 1549.919189,738.392517 1562.636719,736.852417 
	C1562.636719,726.850403 1562.636719,718.043091 1562.636719,708.416382 
	C1548.982300,708.416382 1536.114868,708.416382 1523.412964,708.416382 
	C1521.384399,696.739075 1521.769775,653.423279 1524.070435,645.567993 
	C1540.312988,645.567993 1556.821167,645.567993 1573.371582,645.567993 
	C1573.371582,635.875122 1573.371582,627.080139 1573.371582,617.653076 
	C1542.630005,617.664795 1512.547241,617.597046 1481.975098,617.695312 
	C1481.975098,645.790405 1481.975098,672.395203 1481.975098,701.000000 
M2063.972168,653.002563 
	C2063.972168,713.942200 2063.972168,774.881897 2063.972168,837.015259 
	C2095.045654,837.002380 2125.421631,837.208130 2155.719238,836.870544 
	C2155.719238,826.965088 2155.719238,818.481323 2155.719238,808.922852 
	C2138.294434,808.922852 2121.490723,808.922852 2104.591309,808.922852 
	C2104.591309,784.659912 2104.591309,761.491272 2104.591309,737.460449 
	C2117.998291,737.460449 2130.860840,737.460449 2144.339844,737.460449 
	C2144.339844,727.496277 2144.339844,718.403625 2144.339844,708.565613 
	C2137.361084,708.565613 2131.077393,708.565613 2124.793701,708.565613 
	C2118.210693,708.565613 2111.627686,708.565613 2105.243164,708.565613 
	C2103.205811,696.370056 2103.623291,653.318054 2105.920166,645.605835 
	C2122.190186,645.605835 2138.718018,645.605835 2155.410889,645.605835 
	C2155.410889,635.958008 2155.410889,627.162170 2155.410889,618.392944 
	C2124.694336,618.392944 2094.601074,618.392944 2063.972168,618.392944 
	C2063.972168,629.757263 2063.972168,640.380493 2063.972168,653.002563 
M2033.693115,458.859497 
	C2033.693115,402.400513 2033.693115,345.941528 2033.693115,288.434723 
	C2046.255615,288.434723 2057.403320,288.434723 2068.308105,288.434723 
	C2068.308105,278.231262 2068.308105,269.103241 2068.308105,259.887878 
	C2030.724976,259.887878 1993.882690,259.887878 1956.789917,259.887878 
	C1956.789917,269.579437 1956.789917,278.752075 1956.789917,289.228668 
	C1969.035889,289.228668 1980.830688,289.228668 1993.494385,289.228668 
	C1993.494385,352.958618 1993.494385,415.388397 1993.494385,478.115509 
	C2007.252563,478.115509 2020.092529,478.115509 2033.693115,478.115509 
	C2033.693115,472.014160 2033.693115,466.411011 2033.693115,458.859497 
M1905.686768,331.000153 
	C1905.686768,307.440002 1905.686768,283.879852 1905.686768,259.855530 
	C1891.958984,259.855530 1879.126465,259.855530 1866.357422,259.855530 
	C1864.429932,273.817230 1864.994629,471.353180 1866.827271,477.981873 
	C1897.093384,477.981873 1927.266724,477.981873 1957.406982,477.981873 
	C1957.406982,468.842285 1957.406982,460.348236 1957.406982,450.782898 
	C1940.022339,450.782898 1923.230225,450.782898 1905.686768,450.782898 
	C1905.686768,410.800385 1905.686768,371.900269 1905.686768,331.000153 
M1792.161621,837.043213 
	C1794.992188,836.811218 1797.822876,836.579285 1800.267334,836.378906 
	C1800.267334,826.812378 1800.267334,818.352966 1800.267334,809.439331 
	C1782.708618,809.229126 1765.892090,809.541321 1748.235107,809.240051 
	C1748.235107,744.697998 1748.235107,681.589966 1748.235107,618.322571 
	C1734.546143,618.322571 1721.792114,618.322571 1708.947021,618.322571 
	C1708.947021,691.380859 1708.947021,763.758179 1708.947021,837.042969 
	C1736.494995,837.042969 1763.409912,837.042969 1792.161621,837.043213 
M1636.192871,792.911804 
	C1636.192871,734.778076 1636.192871,676.644287 1636.192871,618.315552 
	C1622.364014,618.315552 1609.612671,618.315552 1596.725830,618.315552 
	C1596.725830,691.347229 1596.725830,763.708618 1596.725830,836.514648 
	C1627.425049,836.514648 1657.540771,836.514648 1687.905884,836.514648 
	C1687.905884,827.242798 1687.905884,818.507812 1687.905884,809.466248 
	C1670.420776,809.144592 1653.614136,809.679749 1636.192871,809.137390 
	C1636.192871,803.456177 1636.192871,799.174805 1636.192871,792.911804 
M2218.603027,645.009338 
	C2218.603027,636.143188 2218.603027,627.277039 2218.603027,618.284058 
	C2204.961670,618.284058 2192.509521,618.284058 2179.970703,618.284058 
	C2179.970703,691.297913 2179.970703,763.694702 2179.970703,836.300659 
	C2192.996094,836.300659 2205.438232,836.300659 2218.603027,836.300659 
	C2218.603027,772.734497 2218.603027,709.869812 2218.603027,645.009338 
M1885.075806,749.117798 
	C1885.075806,745.562500 1885.075806,742.007202 1885.075806,738.206177 
	C1862.676270,738.206177 1841.528320,738.206177 1820.155884,738.206177 
	C1820.155884,746.803589 1820.155884,754.979187 1820.155884,763.174072 
	C1841.801270,763.174072 1862.904785,763.174072 1885.075806,763.174072 
	C1885.075806,758.744507 1885.075806,754.837891 1885.075806,749.117798 
z"/>
<path fill="#FDFFFD" opacity="1.000000" stroke="none" 
	d="
M958.000000,2004.174194 
	C815.337585,2004.174194 673.675232,2004.186279 532.012817,2004.123291 
	C527.057861,2004.121094 521.904175,2004.109375 517.184387,2002.836670 
	C500.605316,1998.366333 490.470032,1982.941406 492.085907,1965.556152 
	C493.614532,1949.109619 507.345886,1935.965454 524.746155,1934.443604 
	C528.055847,1934.154053 531.408203,1934.329712 534.740906,1934.329590 
	C684.403076,1934.325684 834.065186,1934.326172 983.727356,1934.326172 
	C987.697815,1934.326172 991.668274,1934.326172 995.973022,1934.326172 
	C997.976624,1930.144409 999.922241,1926.324829 1001.663574,1922.414307 
	C1054.347656,1804.101685 1107.009277,1685.779053 1159.688477,1567.464355 
	C1161.312134,1563.817871 1162.729492,1560.012207 1164.851929,1556.666992 
	C1172.962402,1543.884155 1184.858643,1538.099731 1199.743042,1540.219482 
	C1214.197998,1542.278198 1224.415771,1550.708008 1228.012817,1564.987793 
	C1230.846802,1576.238159 1232.024414,1587.921875 1233.682373,1599.449829 
	C1243.684448,1668.999878 1253.645630,1738.556030 1263.557495,1808.119019 
	C1274.503540,1884.939575 1285.371948,1961.770996 1296.303345,2038.593506 
	C1297.544556,2047.316650 1298.974609,2056.012939 1301.957153,2065.130859 
	C1303.858521,2061.768799 1305.819214,2058.438721 1307.652710,2055.040039 
	C1357.777832,1962.123901 1407.889526,1869.200439 1458.006104,1776.279541 
	C1459.270752,1773.934814 1460.479370,1771.553589 1461.863159,1769.280151 
	C1469.572144,1756.614868 1483.522217,1750.032349 1497.561157,1752.376099 
	C1512.157349,1754.812744 1523.269165,1765.483276 1526.158447,1780.716064 
	C1529.694336,1799.359375 1532.760376,1818.092407 1535.979858,1836.795288 
	C1546.372437,1897.168579 1556.752563,1957.544189 1567.118652,2017.922119 
	C1576.752441,2074.035889 1586.369995,2130.152100 1595.979736,2186.270020 
	C1605.420410,2241.401367 1614.836060,2296.537109 1624.307373,2351.663330 
	C1624.565552,2353.166016 1625.337769,2354.580566 1626.511353,2357.787598 
	C1628.097412,2353.014404 1629.175537,2350.019043 1630.092285,2346.975342 
	C1749.301392,1951.163086 1868.499023,1555.347534 1987.700317,1159.532959 
	C1988.371826,1157.303223 1988.953003,1155.033569 1989.805054,1152.872803 
	C1995.050171,1139.570068 2004.909790,1131.730591 2019.002563,1130.321289 
	C2033.545288,1128.866943 2044.914673,1134.944214 2052.657959,1147.430054 
	C2054.055176,1149.682861 2055.091309,1152.163208 2056.248047,1154.560791 
	C2118.317871,1283.208984 2180.424072,1411.839844 2242.320557,1540.571533 
	C2245.276123,1546.718384 2247.657227,1553.678101 2248.081543,1560.399658 
	C2249.136719,1577.122314 2238.373779,1590.834961 2222.326416,1595.106567 
	C2207.167969,1599.141479 2190.920166,1592.372192 2183.181641,1578.128174 
	C2177.782959,1568.191162 2173.152100,1557.834717 2168.235352,1547.638306 
	C2123.980957,1455.865479 2079.742676,1364.084961 2035.478149,1272.317017 
	C2034.093262,1269.445679 2032.478516,1266.685181 2030.213135,1262.459839 
	C2028.604370,1266.926636 2027.371948,1269.906982 2026.446899,1272.979858 
	C1920.324707,1625.458374 1814.222412,1977.942749 1708.127441,2330.429443 
	C1689.325684,2392.895996 1670.561768,2455.374023 1651.777954,2517.845947 
	C1651.106934,2520.077393 1650.501953,2522.334717 1649.707642,2524.522461 
	C1644.024414,2540.175537 1629.564087,2549.377197 1612.994507,2547.933838 
	C1597.977173,2546.625488 1585.086060,2535.032715 1582.269409,2519.418213 
	C1577.304688,2491.895752 1572.755737,2464.298340 1568.034790,2436.731934 
	C1557.750000,2376.678223 1547.480103,2316.622314 1537.178223,2256.571777 
	C1527.439697,2199.804443 1517.674194,2143.041504 1507.909058,2086.278564 
	C1497.071167,2023.280884 1486.220947,1960.285278 1475.355957,1897.292236 
	C1475.313110,1897.044067 1474.977173,1896.846191 1474.288696,1896.080200 
	C1471.036377,1897.363037 1470.308716,1900.812988 1468.877075,1903.464355 
	C1421.886841,1990.500000 1374.951172,2077.564941 1328.004272,2164.624023 
	C1322.787476,2174.297607 1317.678345,2184.032227 1312.292725,2193.611084 
	C1303.864746,2208.602295 1289.981812,2215.163330 1273.770264,2212.084229 
	C1258.957275,2209.271240 1248.458862,2197.220703 1246.075073,2180.571289 
	C1234.889404,2102.441650 1223.612915,2024.325073 1212.455811,1946.191528 
	C1202.145996,1873.991333 1191.954712,1801.774292 1181.686646,1729.568115 
	C1180.468506,1721.003174 1179.095215,1712.460327 1177.699829,1703.288940 
	C1173.641724,1705.125854 1173.279297,1708.993896 1171.951538,1711.968506 
	C1137.349731,1789.493896 1102.826294,1867.054077 1068.291382,1944.609375 
	C1062.873779,1956.775513 1057.392212,1968.913818 1052.072144,1981.122559 
	C1045.191162,1996.913452 1033.404907,2004.580078 1016.015076,2004.254883 
	C997.016174,2003.899414 978.005554,2004.174194 958.000000,2004.174194 
z"/>
<path fill="#FEFFFE" opacity="1.000000" stroke="none" 
	d="
M2435.437744,2029.437744 
	C2377.808105,2086.792236 2320.678223,2143.645996 2263.208008,2200.837891 
	C2260.977539,2198.784912 2258.747070,2196.877441 2256.679199,2194.807373 
	C2189.072510,2127.129395 2121.718750,2059.196777 2053.820068,1991.813110 
	C1988.942261,1927.427368 1997.419922,1825.179443 2047.771362,1770.238037 
	C2074.949707,1740.582153 2108.919922,1726.097534 2149.031006,1726.067139 
	C2163.751221,1726.055908 2177.065430,1731.420044 2189.729248,1738.373779 
	C2213.937988,1751.666992 2234.129150,1770.073730 2253.623047,1789.301758 
	C2256.681641,1792.318604 2259.200439,1795.882568 2262.422363,1799.735840 
	C2266.223145,1796.034302 2268.671631,1793.345581 2271.425293,1791.017578 
	C2287.690186,1777.266724 2304.023682,1763.596680 2320.345703,1749.913696 
	C2321.108643,1749.274292 2321.972412,1748.751831 2322.808594,1748.204712 
	C2344.688477,1733.893433 2367.603027,1723.369385 2394.853516,1726.524536 
	C2427.206787,1730.270386 2455.052979,1742.999878 2477.375488,1766.928223 
	C2500.196777,1791.391235 2512.552490,1820.843872 2517.051514,1853.653442 
	C2522.584473,1894.002075 2516.113525,1932.109009 2493.208496,1966.384399 
	C2486.588379,1976.290527 2478.508301,1985.327881 2470.368896,1994.086304 
	C2459.256836,2006.042725 2447.447510,2017.350952 2435.437744,2029.437744 
z"/>
<path fill="#FEFFFD" opacity="1.000000" stroke="none" 
	d="
M419.804871,841.950500 
	C390.167053,845.224243 361.740784,843.826294 333.707123,836.300964 
	C297.609558,826.610901 272.177551,804.389526 256.400116,770.759949 
	C245.356339,747.220154 240.024963,722.194275 238.356277,696.468262 
	C237.389267,681.560059 238.180511,666.537781 238.180511,651.479797 
	C244.781189,649.592041 328.984528,648.951843 346.343933,650.890564 
	C346.343933,654.236450 346.276001,657.786987 346.355286,661.334167 
	C346.764648,679.652832 347.227295,697.970398 351.617340,715.904175 
	C352.170135,718.162476 352.834351,720.395508 353.505707,722.622559 
	C360.469208,745.722351 375.893158,751.490967 394.963501,751.155457 
	C415.619293,750.792053 426.595184,741.574707 431.820526,721.191956 
	C437.166107,700.340271 437.350861,679.012878 436.688568,657.662903 
	C436.243225,643.306335 434.777557,629.102417 430.250122,615.355530 
	C422.373749,591.440186 407.794189,579.851685 382.825409,577.826965 
	C373.600464,577.078918 364.365845,576.450562 354.664703,575.732788 
	C354.664703,549.537292 354.664703,523.661499 354.664703,496.575378 
	C358.105255,496.439911 361.621063,496.395081 365.122314,496.145691 
	C374.731537,495.461212 384.479553,495.490692 393.909027,493.782410 
	C411.697510,490.559723 423.762024,479.970367 429.877197,462.780151 
	C434.737244,449.118103 436.318359,434.937408 436.760620,420.573059 
	C437.284698,403.552338 437.014893,386.578857 432.166016,370.057739 
	C424.508331,343.966522 398.937805,331.811646 373.551453,342.121948 
	C365.067474,345.567596 358.655457,351.564911 355.970612,360.156067 
	C352.617767,370.884552 349.524567,381.899017 348.220947,393.013092 
	C346.442688,408.173584 346.458954,423.544556 345.668243,439.587738 
	C310.207031,439.587738 274.451569,439.587738 237.394455,439.587738 
	C237.394455,429.167877 237.403519,418.643372 237.392578,408.118866 
	C237.369949,386.340515 239.682434,364.859680 246.733566,344.162079 
	C262.078827,299.118134 292.788177,270.062347 338.841034,258.062469 
	C374.678864,248.724258 410.926361,249.041702 446.549347,258.784882 
	C496.903992,272.557312 528.427307,305.423004 540.251892,356.444733 
	C548.287292,391.116425 548.214233,425.791962 538.025269,460.124451 
	C533.033569,476.944458 524.705994,492.022827 513.228516,505.323242 
	C503.074524,517.089905 490.480286,525.361389 475.095123,530.774353 
	C477.045685,532.086487 478.046875,532.994629 479.220032,533.514893 
	C510.784149,547.511414 528.924194,572.572876 538.089050,604.983826 
	C545.051636,629.606323 546.689758,654.820068 545.519714,680.216370 
	C544.351013,705.582275 540.746826,730.576965 531.868958,754.570801 
	C513.929443,803.055054 480.294006,832.667786 428.578766,840.583801 
	C425.947662,840.986572 423.324860,841.443665 419.804871,841.950500 
z"/>
<path fill="#FBFEFA" opacity="1.000000" stroke="none" 
	d="
M1381.070923,617.810669 
	C1383.983154,626.488831 1386.416016,634.969421 1387.934692,643.610596 
	C1393.981812,678.017090 1399.742310,712.473877 1405.620850,746.910095 
	C1405.838013,748.182861 1406.179565,749.434387 1408.179932,750.812744 
	C1413.857300,706.626892 1419.534668,662.440979 1425.242798,618.014709 
	C1436.347412,618.014709 1446.589966,618.014709 1458.296875,618.014709 
	C1448.185303,690.989868 1437.539062,763.469299 1427.176758,836.475952 
	C1416.427490,836.475952 1406.224976,836.475952 1394.888184,836.475952 
	C1387.085327,790.527405 1379.277710,744.550598 1371.469971,698.573730 
	C1370.811035,698.523865 1370.151978,698.473938 1369.493042,698.424072 
	C1361.047485,744.290894 1354.131836,790.443604 1345.834229,836.586365 
	C1334.634155,836.586365 1324.093140,836.586365 1312.737671,836.586365 
	C1302.343018,763.887207 1291.995361,691.517517 1281.535767,618.364624 
	C1292.859741,618.364624 1303.654785,618.364624 1315.393188,618.364624 
	C1321.033325,662.391785 1326.684204,706.502197 1332.335083,750.612671 
	C1342.224365,706.969238 1348.519043,662.783508 1356.600342,617.686829 
	C1364.366699,617.686829 1372.269043,617.686829 1381.070923,617.810669 
z"/>
<path fill="#F9FEF7" opacity="1.000000" stroke="none" 
	d="
M1914.930298,667.999512 
	C1914.930298,651.024841 1914.930298,635.050171 1914.930298,618.653870 
	C1916.812866,618.273743 1918.348511,617.694824 1919.884277,617.694397 
	C1938.868408,617.689453 1957.881104,617.172241 1976.824585,618.078430 
	C1986.296875,618.531616 1995.957275,620.692444 2004.972778,623.737976 
	C2018.861450,628.429688 2027.338257,638.839172 2030.840454,653.151550 
	C2033.900635,665.657471 2034.031860,678.290283 2031.322266,690.781250 
	C2028.357666,704.446411 2020.447754,714.203064 2004.973389,718.461121 
	C2008.086914,720.105835 2009.812134,721.224182 2011.684937,721.973450 
	C2025.462402,727.484863 2033.646973,737.828552 2037.129639,751.937256 
	C2040.864990,767.069885 2040.842041,782.309875 2036.771484,797.390686 
	C2030.782104,819.581482 2015.140991,833.490295 1992.281494,835.936951 
	C1980.737183,837.172485 1969.016113,836.884766 1957.371826,837.023254 
	C1943.755005,837.185242 1930.134766,837.061157 1917.211182,837.061157 
	C1916.290283,836.136414 1916.028687,835.920776 1915.827637,835.658752 
	C1915.633911,835.406189 1915.364258,835.106140 1915.363525,834.826416 
	C1915.205322,779.550842 1915.068237,724.275146 1914.930298,667.999512 
M1955.074097,741.075684 
	C1955.074097,763.276917 1955.074097,785.478210 1955.074097,808.052429 
	C1963.515991,808.052429 1970.812744,808.578613 1978.004639,807.934021 
	C1989.982422,806.860291 1996.907837,800.668152 1999.458984,788.974670 
	C2001.826904,778.120483 2001.792969,767.108215 1999.217896,756.261292 
	C1996.562134,745.075012 1989.369385,738.116516 1978.020142,736.458862 
	C1971.483032,735.504028 1964.733154,735.849060 1958.085815,735.973389 
	C1957.085693,735.992065 1956.122925,738.004395 1955.074097,741.075684 
M1955.032227,689.007324 
	C1955.137817,694.825500 1955.243408,700.643677 1955.364990,707.335571 
	C1964.056030,706.818604 1971.371582,706.812561 1978.558472,705.847717 
	C1987.598389,704.633972 1994.345337,699.537903 1995.863281,690.337463 
	C1997.252075,681.920654 1997.772339,673.175903 1997.208862,664.672852 
	C1996.626831,655.889343 1990.837891,650.336365 1982.258789,648.036438 
	C1973.530273,645.696533 1964.728149,645.289734 1955.031982,646.906372 
	C1955.031982,660.492981 1955.031982,673.745728 1955.032227,689.007324 
z"/>
<path fill="#FCFEFC" opacity="1.000000" stroke="none" 
	d="
M1565.636353,259.383698 
	C1570.836182,259.383728 1575.095215,259.383728 1579.680908,259.383728 
	C1579.680908,332.645691 1579.680908,404.869873 1579.680908,477.855865 
	C1566.770264,477.855865 1553.992432,477.855865 1540.073975,477.855865 
	C1540.073975,445.620911 1540.073975,413.224304 1540.073975,380.263275 
	C1524.845703,380.263275 1510.740967,380.263275 1495.914185,380.263275 
	C1495.914185,412.807373 1495.914185,445.005524 1495.914185,477.906464 
	C1482.410034,477.906464 1469.591919,477.906464 1456.071289,477.906464 
	C1456.071289,405.717438 1456.071289,333.277710 1456.071289,260.109894 
	C1468.852295,260.109894 1481.940430,260.109894 1495.867920,260.109894 
	C1495.867920,290.313507 1495.867920,320.175110 1495.867920,350.496948 
	C1510.554810,350.496948 1524.416748,350.496948 1539.748291,350.496948 
	C1539.887817,335.498230 1539.796997,320.662018 1539.812866,305.830475 
	C1539.828979,290.864471 1539.816406,275.898468 1539.816406,259.496796 
	C1548.397827,259.457764 1556.546753,259.420715 1565.636353,259.383698 
z"/>
<path fill="#FCFEFC" opacity="1.000000" stroke="none" 
	d="
M2169.816650,394.172913 
	C2169.816650,389.230896 2169.816650,385.267639 2169.816650,380.027466 
	C2162.232910,379.906708 2155.079590,379.749573 2147.926025,379.691223 
	C2140.968018,379.634430 2134.009277,379.678894 2126.051758,379.678894 
	C2126.051758,412.626617 2126.051758,445.086121 2126.051758,478.074493 
	C2112.201172,478.074493 2099.349609,478.074493 2085.935059,478.074493 
	C2085.935059,405.447388 2085.935059,333.013092 2085.935059,259.980530 
	C2098.841797,259.980530 2111.655518,259.980530 2125.399170,259.980530 
	C2125.399170,289.935791 2125.399170,319.722717 2125.399170,350.238098 
	C2140.397217,350.238098 2154.487793,350.238098 2169.513672,350.238098 
	C2169.513672,320.294128 2169.513672,290.444305 2169.513672,259.995361 
	C2183.249512,259.995361 2196.072021,259.995361 2209.458496,259.995361 
	C2209.458496,332.615875 2209.458496,405.066925 2209.458496,478.068024 
	C2196.515625,478.068024 2183.655762,478.068024 2169.816650,478.068024 
	C2169.816650,450.265198 2169.816650,422.708435 2169.816650,394.172913 
z"/>
<path fill="#F8FEF6" opacity="1.000000" stroke="none" 
	d="
M2250.924072,632.388000 
	C2250.924072,627.180542 2250.924072,622.918762 2250.924072,618.146118 
	C2260.590576,618.146118 2269.464600,618.146118 2278.954834,618.146118 
	C2295.876221,657.179810 2312.857666,696.352295 2329.839355,735.524841 
	C2330.469238,735.380981 2331.099121,735.237122 2331.729004,735.093323 
	C2331.729004,696.407349 2331.729004,657.721375 2331.729004,618.334839 
	C2343.361328,618.334839 2354.127930,618.334839 2365.270996,618.334839 
	C2365.270996,690.944336 2365.270996,763.408508 2365.270996,836.308044 
	C2362.622803,836.587952 2360.367676,836.998352 2358.106689,837.032349 
	C2351.826660,837.127075 2345.544189,837.065247 2339.029297,837.065247 
	C2321.791992,795.652954 2304.830811,754.904114 2287.979492,714.419128 
	C2286.943604,714.419128 2286.590088,714.350342 2286.283936,714.441101 
	C2286.042969,714.512573 2285.752441,714.742737 2285.672852,714.968872 
	C2285.454590,715.588196 2285.200439,716.241882 2285.197266,716.883179 
	C2285.011475,756.173218 2284.850342,795.463318 2284.666992,834.753418 
	C2284.665771,835.040527 2284.392822,835.326355 2283.875488,836.340088 
	C2273.518311,836.340088 2262.779297,836.340088 2250.924072,836.340088 
	C2250.924072,768.374451 2250.924072,700.854065 2250.924072,632.388000 
z"/>
<path fill="#FAFEF9" opacity="1.000000" stroke="none" 
	d="
M974.264282,478.005341 
	C950.472534,470.232605 941.727905,451.945770 938.217529,430.075592 
	C937.009827,422.551422 936.683838,414.825684 936.630310,407.187286 
	C936.445984,380.876740 936.244629,354.558472 936.718323,328.255157 
	C936.902832,318.008667 937.904907,307.572540 940.207397,297.609375 
	C945.664734,273.994537 961.493225,260.777008 985.596802,257.703583 
	C998.645569,256.039825 1011.484070,256.400116 1024.220947,259.748993 
	C1039.423706,263.746277 1049.945312,273.096069 1056.215576,287.443695 
	C1061.517700,299.575836 1063.284180,312.406189 1063.375122,325.444214 
	C1063.577026,354.419098 1063.551270,383.397064 1063.377197,412.372345 
	C1063.307007,424.058746 1061.861938,435.636505 1057.754517,446.690033 
	C1050.615967,465.900818 1036.736938,476.798615 1016.577820,480.140991 
	C1002.550781,482.466644 988.737610,482.011475 974.264282,478.005341 
M1015.221130,446.302460 
	C1020.559448,440.963715 1022.039062,434.089478 1022.064453,427.022217 
	C1022.204712,388.043243 1022.186584,349.063202 1022.006897,310.084503 
	C1021.988892,306.185516 1020.975952,302.126770 1019.629944,298.431702 
	C1016.615662,290.156738 1009.852234,286.274658 999.780640,286.369110 
	C989.620422,286.464386 983.080017,290.349304 980.286133,298.851318 
	C978.854187,303.208771 977.961853,307.954590 977.938721,312.530518 
	C977.749756,349.843750 977.786194,387.158417 977.877441,424.472321 
	C977.886292,428.094604 978.368347,431.804871 979.248108,435.319763 
	C982.325378,447.613953 991.451904,453.596497 1003.913696,451.299133 
	C1007.416016,450.653503 1010.676514,448.696320 1015.221130,446.302460 
z"/>
<path fill="#FDFFFC" opacity="1.000000" stroke="none" 
	d="
M1075.817383,749.999878 
	C1075.817383,705.751587 1075.817383,662.503235 1075.817383,618.721680 
	C1077.932495,618.336914 1079.776123,617.712036 1081.620239,617.710815 
	C1099.591797,617.699280 1117.568481,617.566833 1135.532471,617.968811 
	C1142.470947,618.123962 1149.511719,618.982239 1156.279175,620.518616 
	C1177.200439,625.268188 1190.092163,638.329956 1194.001709,659.511658 
	C1195.442261,667.315430 1196.171387,675.350037 1196.244995,683.288452 
	C1196.507324,711.576660 1196.502319,739.870056 1196.250244,768.158508 
	C1196.179443,776.099792 1195.482178,784.131775 1194.091187,791.947510 
	C1189.506958,817.706238 1174.120850,833.262146 1147.987915,835.532776 
	C1124.551025,837.569153 1100.884399,836.962891 1075.817383,837.558167 
	C1075.817383,807.888489 1075.817383,779.444214 1075.817383,749.999878 
M1148.978516,802.033386 
	C1155.290771,794.204895 1155.520874,784.721191 1155.586060,775.462280 
	C1155.818359,742.533691 1155.752197,709.602234 1155.605347,676.672729 
	C1155.583252,671.725037 1154.779175,666.736450 1153.890869,661.847839 
	C1152.655029,655.046692 1148.360840,650.346436 1141.918091,648.359192 
	C1133.656982,645.811035 1125.134155,645.368103 1116.622681,647.202332 
	C1116.622681,701.141174 1116.622681,754.534180 1116.622681,808.480835 
	C1127.787476,808.375732 1138.532959,810.213013 1148.978516,802.033386 
z"/>
<path fill="#FDFFFD" opacity="1.000000" stroke="none" 
	d="
M1362.346436,334.020142 
	C1362.293945,361.340149 1362.346191,387.665466 1362.109131,413.988129 
	C1362.055420,419.946045 1361.364746,425.959381 1360.336426,431.836853 
	C1355.532104,459.294922 1341.112305,474.812408 1313.646484,477.188843 
	C1290.248169,479.213318 1266.535889,477.607178 1242.390869,477.607178 
	C1242.390869,405.344482 1242.390869,332.899292 1242.390869,260.049530 
	C1243.934204,259.812836 1245.181152,259.450531 1246.426392,259.456177 
	C1266.083740,259.545197 1285.764771,259.112213 1305.393188,259.929413 
	C1342.498779,261.474274 1360.425903,279.864990 1362.069458,317.035095 
	C1362.304932,322.358582 1362.260986,327.694366 1362.346436,334.020142 
M1308.243652,448.033722 
	C1315.816528,445.421600 1318.901245,439.254120 1320.051636,432.095673 
	C1321.050171,425.882782 1321.576904,419.530701 1321.608521,413.236603 
	C1321.762207,382.629395 1321.771606,352.020447 1321.600830,321.413452 
	C1321.567627,315.464447 1320.871582,309.456085 1319.825806,303.592010 
	C1318.550537,296.441132 1313.986206,291.771545 1306.979492,289.773010 
	C1298.937744,287.479248 1290.809937,287.375977 1282.561523,288.757751 
	C1282.561523,342.772308 1282.561523,396.169373 1282.561523,451.022766 
	C1291.061035,450.123810 1298.866211,449.298248 1308.243652,448.033722 
z"/>
<path fill="#FDFFFC" opacity="1.000000" stroke="none" 
	d="
M1214.011230,324.205261 
	C1214.012207,354.130310 1213.987061,383.084412 1214.023071,412.038452 
	C1214.038086,424.117157 1212.409668,435.904236 1208.167114,447.262024 
	C1201.875732,464.103943 1190.096924,474.862061 1172.543945,479.019684 
	C1157.385620,482.610077 1142.239868,482.442444 1127.113159,478.567780 
	C1111.468872,474.560577 1100.069946,465.159515 1094.729980,450.152557 
	C1091.105103,439.965637 1088.353882,428.921387 1088.084839,418.188568 
	C1087.250977,384.931152 1087.528931,351.635712 1087.984009,318.363373 
	C1088.095947,310.172333 1089.744385,301.786926 1092.040283,293.884155 
	C1097.497559,275.099823 1109.983521,263.163300 1129.318726,258.954834 
	C1143.486450,255.871063 1157.724731,255.827408 1171.900391,258.910614 
	C1195.392212,264.020111 1207.018799,280.212830 1211.645996,302.452545 
	C1213.060181,309.249481 1213.255859,316.299927 1214.011230,324.205261 
M1173.422485,406.909637 
	C1173.422363,378.258850 1173.541260,349.607239 1173.333008,320.957947 
	C1173.284790,314.340088 1172.812744,307.566589 1171.304565,301.154297 
	C1168.886963,290.875031 1161.679199,286.206787 1150.479492,286.338196 
	C1139.148071,286.471161 1132.514893,291.146393 1130.097412,301.647034 
	C1128.839844,307.109894 1128.261963,312.842072 1128.234497,318.456757 
	C1128.069946,352.103943 1128.092529,385.752594 1128.223633,419.400055 
	C1128.242920,424.356171 1128.770874,429.390747 1129.760864,434.246796 
	C1132.252441,446.468048 1139.411011,452.020508 1151.497437,451.672058 
	C1163.054443,451.338867 1170.153564,445.569946 1171.886230,433.752991 
	C1173.087524,425.560181 1172.957642,417.172180 1173.422485,406.909637 
z"/>
<path fill="#FDFFFC" opacity="1.000000" stroke="none" 
	d="
M929.985229,686.000000 
	C929.985229,663.052490 929.985229,641.105042 929.985229,618.409607 
	C939.306335,618.409607 948.116455,618.409607 958.125305,618.409607 
	C974.683289,656.588867 991.555054,695.491516 1008.279907,734.055542 
	C1009.481445,734.055542 1009.840881,734.132812 1010.139343,734.031189 
	C1010.380920,733.948914 1010.724731,733.651184 1010.724915,733.448853 
	C1010.750671,695.209412 1010.749695,656.969971 1010.749695,618.196655 
	C1022.309265,618.196655 1032.522217,618.196655 1042.818970,618.196655 
	C1044.710693,624.618835 1045.329346,823.453674 1043.347534,836.521057 
	C1035.217041,836.521057 1027.005249,836.521057 1017.964050,836.521057 
	C1000.839905,795.406799 983.648743,754.131714 966.457642,712.856689 
	C965.755005,712.983093 965.052307,713.109497 964.349609,713.235901 
	C964.349609,754.174316 964.349609,795.112793 964.349609,836.411377 
	C952.337708,836.411377 941.500305,836.411377 929.985229,836.411377 
	C929.985229,786.202271 929.985229,736.601135 929.985229,686.000000 
z"/>
<path fill="#FBFEFA" opacity="1.000000" stroke="none" 
	d="
M866.322998,367.370667 
	C881.888794,367.370728 896.493042,367.370728 911.467651,367.370728 
	C911.467651,404.584595 911.467651,440.810150 911.467651,477.833191 
	C903.295166,477.833191 895.159790,477.833191 885.669434,477.833191 
	C884.860962,472.900421 883.931641,467.230133 882.793396,460.285187 
	C881.002563,462.162415 880.023254,462.888123 879.433838,463.852203 
	C871.513123,476.809387 859.480835,481.826355 844.853760,481.844910 
	C816.064880,481.881470 798.396362,468.742340 791.265808,440.756683 
	C788.741882,430.851044 787.322449,420.405273 787.224670,410.188599 
	C786.928223,379.228821 787.378967,348.258240 787.852966,317.296692 
	C788.022461,306.230164 790.694092,295.583160 795.381958,285.464081 
	C801.669556,271.891998 811.996338,263.316528 826.447388,259.548157 
	C841.248352,255.688492 856.111694,255.830490 870.974609,258.874512 
	C890.621704,262.898346 902.399719,275.256378 907.512512,294.295715 
	C910.737061,306.303680 910.797546,318.540344 909.961609,331.424255 
	C897.478149,331.424255 885.349731,331.424255 871.973389,331.424255 
	C871.973389,327.362366 872.113342,323.470337 871.940186,319.592316 
	C871.688416,313.955231 871.745117,308.228577 870.716919,302.718018 
	C868.656372,291.674805 862.612915,286.878510 851.397888,286.396179 
	C840.138550,285.911957 832.474854,290.990875 829.913940,301.639130 
	C828.528809,307.398376 827.986816,313.482117 827.953430,319.424469 
	C827.772156,351.730133 827.718262,384.038635 827.987488,416.343079 
	C828.045166,423.262360 828.957703,430.336090 830.652039,437.041595 
	C833.088989,446.686066 839.538330,451.104828 849.703369,451.625183 
	C859.653015,452.134521 866.931396,448.118225 870.891785,439.717743 
	C872.019470,437.325684 873.010803,434.783936 873.526367,432.203308 
	C876.012695,419.757721 876.121338,407.209167 875.166016,393.648804 
	C867.587036,393.648804 860.400757,393.648804 852.529053,393.648804 
	C852.529053,384.571472 852.529053,376.443756 852.529053,367.370605 
	C856.814880,367.370605 861.088196,367.370605 866.322998,367.370667 
z"/>
<path fill="#FBFEFA" opacity="1.000000" stroke="none" 
	d="
M2395.426025,663.550171 
	C2396.911377,657.905457 2397.908691,652.987244 2399.600586,648.320801 
	C2405.767334,631.313110 2417.728760,620.710327 2435.534912,617.131470 
	C2449.732666,614.277893 2463.964111,614.362366 2478.145508,617.547974 
	C2496.043945,621.568665 2507.318359,632.526733 2512.709717,649.950745 
	C2516.708252,662.872620 2516.818115,675.987488 2515.960205,689.716187 
	C2503.488525,689.716187 2491.599854,689.716187 2478.885742,689.716187 
	C2478.644043,687.294556 2478.309570,684.775635 2478.155762,682.245667 
	C2477.732666,675.277954 2478.029541,668.195557 2476.863525,661.359558 
	C2474.884521,649.760315 2468.603516,645.002258 2456.750732,644.779663 
	C2445.363525,644.565796 2438.448486,649.629150 2435.765869,660.663086 
	C2434.752197,664.833252 2434.125977,669.208130 2434.109375,673.492737 
	C2433.975830,708.476501 2433.898193,743.462097 2434.152100,778.444519 
	C2434.195068,784.348083 2435.455566,790.359131 2436.961426,796.108948 
	C2439.266846,804.912231 2445.708984,809.146240 2454.572998,809.766113 
	C2463.856445,810.415405 2471.900391,808.132690 2476.361328,799.089905 
	C2477.960938,795.846802 2479.505615,792.289612 2479.836426,788.759705 
	C2480.946777,776.914551 2481.498535,765.017090 2482.332031,752.080444 
	C2473.834717,752.080444 2466.676025,752.080444 2458.751221,752.080444 
	C2458.751221,743.028076 2458.751221,734.949341 2458.751221,726.247437 
	C2477.945801,726.247437 2497.132812,726.247437 2516.361816,726.247437 
	C2518.287109,733.176880 2519.039551,814.795959 2517.269775,836.265259 
	C2509.195068,836.265259 2501.036621,836.265259 2491.891113,836.265259 
	C2490.952148,831.063171 2489.930420,825.402710 2488.884277,819.605286 
	C2487.551514,820.192871 2486.712891,820.282227 2486.468262,820.710632 
	C2476.349609,838.441772 2460.050781,841.700684 2441.682861,839.591003 
	C2422.706055,837.411316 2408.644043,828.233276 2400.925293,810.179565 
	C2394.764160,795.769043 2393.160156,780.564636 2393.140137,765.207153 
	C2393.101074,735.229187 2393.535156,705.249878 2393.902100,675.272766 
	C2393.946533,671.640930 2394.786133,668.018921 2395.426025,663.550171 
z"/>
<path fill="#FCFEFB" opacity="1.000000" stroke="none" 
	d="
M1734.236572,380.161163 
	C1741.568481,344.115021 1748.764893,308.902649 1755.981567,273.694397 
	C1756.910034,269.165192 1757.943604,264.657562 1759.000488,259.808960 
	C1772.894531,259.808960 1786.454102,259.808960 1800.944824,259.808960 
	C1815.620850,332.210632 1830.270142,404.479889 1845.205078,478.158173 
	C1838.588257,478.325928 1832.791992,478.532135 1826.994019,478.603485 
	C1821.002197,478.677216 1815.008667,478.619934 1808.006470,478.619934 
	C1804.993652,461.972534 1801.996338,445.410797 1798.918091,428.402039 
	C1786.318970,428.402039 1774.164673,428.402039 1761.350952,428.402039 
	C1758.353760,444.920044 1755.397217,461.213684 1752.348633,478.014923 
	C1739.836670,478.014923 1727.714600,478.014923 1714.525391,478.014923 
	C1721.117554,445.354309 1727.612427,413.175262 1734.236572,380.161163 
M1771.880371,362.677979 
	C1769.844849,375.332306 1767.809326,387.986603 1765.675537,401.251221 
	C1775.602173,401.251221 1784.427734,401.251221 1794.553711,401.251221 
	C1790.002319,373.359650 1785.552368,346.089783 1781.102417,318.819916 
	C1780.419922,318.866669 1779.737305,318.913422 1779.054810,318.960175 
	C1776.729248,332.953461 1774.403687,346.946747 1771.880371,362.677979 
z"/>
<path fill="#FBFEFA" opacity="1.000000" stroke="none" 
	d="
M892.315186,749.291321 
	C898.257263,778.464478 904.058594,806.799133 909.848816,835.079346 
	C902.807434,837.425476 885.509888,837.877258 872.657227,836.065063 
	C869.766663,819.977295 866.835632,803.664001 863.806763,786.806519 
	C851.371155,786.806519 839.204407,786.806519 826.256348,786.806519 
	C823.269775,803.142822 820.292908,819.425842 817.199951,836.343689 
	C804.897827,836.343689 792.761353,836.343689 779.331421,836.343689 
	C794.169739,763.314514 808.917480,690.731323 823.677185,618.089111 
	C838.106323,618.089111 851.683289,618.089111 865.837585,618.089111 
	C874.658142,661.749817 883.416321,705.101318 892.315186,749.291321 
M849.944092,700.937439 
	C848.493347,692.593445 847.042542,684.249512 845.591797,675.905518 
	C845.099365,675.910034 844.606934,675.914490 844.114441,675.918945 
	C839.600647,703.627319 835.086853,731.335632 830.518188,759.380798 
	C840.535828,759.380798 849.642212,759.380798 859.375488,759.380798 
	C856.213013,739.982788 853.171692,721.327942 849.944092,700.937439 
z"/>
<path fill="#FCFEFB" opacity="1.000000" stroke="none" 
	d="
M1611.814575,333.999939 
	C1611.814575,308.738708 1611.814575,284.477478 1611.814575,259.804047 
	C1642.605957,259.804047 1672.517090,259.804047 1703.139526,259.804047 
	C1703.139526,268.785583 1703.139526,277.560669 1703.139526,287.526886 
	C1686.515015,287.526886 1669.727051,287.526886 1652.411865,287.526886 
	C1652.411865,308.842499 1652.411865,328.983521 1652.411865,349.959045 
	C1665.438232,349.959045 1678.305908,349.959045 1691.891235,349.959045 
	C1691.891235,359.583252 1691.891235,368.400208 1691.891235,378.360046 
	C1679.088501,378.360046 1665.963257,378.360046 1652.374146,378.360046 
	C1652.374146,402.989410 1652.374146,426.487030 1652.374146,451.027771 
	C1669.722534,451.027771 1686.568604,451.027771 1703.782715,451.027771 
	C1703.782715,460.630981 1703.782715,469.190308 1703.782715,478.184540 
	C1673.147217,478.184540 1642.914185,478.184540 1611.814575,478.184540 
	C1611.814575,430.181335 1611.814575,382.590668 1611.814575,333.999939 
z"/>
<path fill="#FBFEFA" opacity="1.000000" stroke="none" 
	d="
M1481.975098,700.000000 
	C1481.975098,672.395203 1481.975098,645.790405 1481.975098,617.695312 
	C1512.547241,617.597046 1542.630005,617.664795 1573.371582,617.653076 
	C1573.371582,627.080139 1573.371582,635.875122 1573.371582,645.567993 
	C1556.821167,645.567993 1540.312988,645.567993 1524.070435,645.567993 
	C1521.769775,653.423279 1521.384399,696.739075 1523.412964,708.416382 
	C1536.114868,708.416382 1548.982300,708.416382 1562.636719,708.416382 
	C1562.636719,718.043091 1562.636719,726.850403 1562.636719,736.852417 
	C1549.919189,738.392517 1536.657593,736.618591 1522.889893,737.880859 
	C1522.889893,761.454712 1522.889893,784.884705 1522.889893,809.298340 
	C1540.034668,809.298340 1556.871094,809.298340 1574.156006,809.298340 
	C1574.156006,818.772583 1574.156006,827.273010 1574.156006,836.407532 
	C1543.432739,836.407532 1513.026733,836.407532 1481.975098,836.407532 
	C1481.975098,790.855896 1481.975098,745.927917 1481.975098,700.000000 
z"/>
<path fill="#FAFEF9" opacity="1.000000" stroke="none" 
	d="
M2063.972168,652.003174 
	C2063.972168,640.380493 2063.972168,629.757263 2063.972168,618.392944 
	C2094.601074,618.392944 2124.694336,618.392944 2155.410889,618.392944 
	C2155.410889,627.162170 2155.410889,635.958008 2155.410889,645.605835 
	C2138.718018,645.605835 2122.190186,645.605835 2105.920166,645.605835 
	C2103.623291,653.318054 2103.205811,696.370056 2105.243164,708.565613 
	C2111.627686,708.565613 2118.210693,708.565613 2124.793701,708.565613 
	C2131.077393,708.565613 2137.361084,708.565613 2144.339844,708.565613 
	C2144.339844,718.403625 2144.339844,727.496277 2144.339844,737.460449 
	C2130.860840,737.460449 2117.998291,737.460449 2104.591309,737.460449 
	C2104.591309,761.491272 2104.591309,784.659912 2104.591309,808.922852 
	C2121.490723,808.922852 2138.294434,808.922852 2155.719238,808.922852 
	C2155.719238,818.481323 2155.719238,826.965088 2155.719238,836.870544 
	C2125.421631,837.208130 2095.045654,837.002380 2063.972168,837.015259 
	C2063.972168,774.881897 2063.972168,713.942200 2063.972168,652.003174 
z"/>
<path fill="#FBFEFA" opacity="1.000000" stroke="none" 
	d="
M2033.693115,459.833679 
	C2033.693115,466.411011 2033.693115,472.014160 2033.693115,478.115509 
	C2020.092529,478.115509 2007.252563,478.115509 1993.494385,478.115509 
	C1993.494385,415.388397 1993.494385,352.958618 1993.494385,289.228668 
	C1980.830688,289.228668 1969.035889,289.228668 1956.789917,289.228668 
	C1956.789917,278.752075 1956.789917,269.579437 1956.789917,259.887878 
	C1993.882690,259.887878 2030.724976,259.887878 2068.308105,259.887878 
	C2068.308105,269.103241 2068.308105,278.231262 2068.308105,288.434723 
	C2057.403320,288.434723 2046.255615,288.434723 2033.693115,288.434723 
	C2033.693115,345.941528 2033.693115,402.400513 2033.693115,459.833679 
z"/>
<path fill="#FCFEFB" opacity="1.000000" stroke="none" 
	d="
M1905.686768,332.000183 
	C1905.686768,371.900269 1905.686768,410.800385 1905.686768,450.782898 
	C1923.230225,450.782898 1940.022339,450.782898 1957.406982,450.782898 
	C1957.406982,460.348236 1957.406982,468.842285 1957.406982,477.981873 
	C1927.266724,477.981873 1897.093384,477.981873 1866.827271,477.981873 
	C1864.994629,471.353180 1864.429932,273.817230 1866.357422,259.855530 
	C1879.126465,259.855530 1891.958984,259.855530 1905.686768,259.855530 
	C1905.686768,283.879852 1905.686768,307.440002 1905.686768,332.000183 
z"/>
<path fill="#FAFEF9" opacity="1.000000" stroke="none" 
	d="
M1791.243286,837.043091 
	C1763.409912,837.042969 1736.494995,837.042969 1708.947021,837.042969 
	C1708.947021,763.758179 1708.947021,691.380859 1708.947021,618.322571 
	C1721.792114,618.322571 1734.546143,618.322571 1748.235107,618.322571 
	C1748.235107,681.589966 1748.235107,744.697998 1748.235107,809.240051 
	C1765.892090,809.541321 1782.708618,809.229126 1800.267334,809.439331 
	C1800.267334,818.352966 1800.267334,826.812378 1800.267334,836.378906 
	C1797.822876,836.579285 1794.992188,836.811218 1791.243286,837.043091 
z"/>
<path fill="#FBFEFA" opacity="1.000000" stroke="none" 
	d="
M1636.192871,793.902588 
	C1636.192871,799.174805 1636.192871,803.456177 1636.192871,809.137390 
	C1653.614136,809.679749 1670.420776,809.144592 1687.905884,809.466248 
	C1687.905884,818.507812 1687.905884,827.242798 1687.905884,836.514648 
	C1657.540771,836.514648 1627.425049,836.514648 1596.725830,836.514648 
	C1596.725830,763.708618 1596.725830,691.347229 1596.725830,618.315552 
	C1609.612671,618.315552 1622.364014,618.315552 1636.192871,618.315552 
	C1636.192871,676.644287 1636.192871,734.778076 1636.192871,793.902588 
z"/>
<path fill="#FEFFFE" opacity="1.000000" stroke="none" 
	d="
M2218.603027,646.007202 
	C2218.603027,709.869812 2218.603027,772.734497 2218.603027,836.300659 
	C2205.438232,836.300659 2192.996094,836.300659 2179.970703,836.300659 
	C2179.970703,763.694702 2179.970703,691.297913 2179.970703,618.284058 
	C2192.509521,618.284058 2204.961670,618.284058 2218.603027,618.284058 
	C2218.603027,627.277039 2218.603027,636.143188 2218.603027,646.007202 
z"/>
<path fill="#F8FEF6" opacity="1.000000" stroke="none" 
	d="
M1885.075806,750.024536 
	C1885.075806,754.837891 1885.075806,758.744507 1885.075806,763.174072 
	C1862.904785,763.174072 1841.801270,763.174072 1820.155884,763.174072 
	C1820.155884,754.979187 1820.155884,746.803589 1820.155884,738.206177 
	C1841.528320,738.206177 1862.676270,738.206177 1885.075806,738.206177 
	C1885.075806,742.007202 1885.075806,745.562500 1885.075806,750.024536 
z"/>
<path fill="#32D503" opacity="1.000000" stroke="none" 
	d="
M1955.108398,740.085083 
	C1956.122925,738.004395 1957.085693,735.992065 1958.085815,735.973389 
	C1964.733154,735.849060 1971.483032,735.504028 1978.020142,736.458862 
	C1989.369385,738.116516 1996.562134,745.075012 1999.217896,756.261292 
	C2001.792969,767.108215 2001.826904,778.120483 1999.458984,788.974670 
	C1996.907837,800.668152 1989.982422,806.860291 1978.004639,807.934021 
	C1970.812744,808.578613 1963.515991,808.052429 1955.074097,808.052429 
	C1955.074097,785.478210 1955.074097,763.276917 1955.108398,740.085083 
z"/>
<path fill="#34D606" opacity="1.000000" stroke="none" 
	d="
M1955.032104,688.002930 
	C1955.031982,673.745728 1955.031982,660.492981 1955.031982,646.906372 
	C1964.728149,645.289734 1973.530273,645.696533 1982.258789,648.036438 
	C1990.837891,650.336365 1996.626831,655.889343 1997.208862,664.672852 
	C1997.772339,673.175903 1997.252075,681.920654 1995.863281,690.337463 
	C1994.345337,699.537903 1987.598389,704.633972 1978.558472,705.847717 
	C1971.371582,706.812561 1964.056030,706.818604 1955.364990,707.335571 
	C1955.243408,700.643677 1955.137817,694.825500 1955.032104,688.002930 
z"/>
<path fill="#32D503" opacity="1.000000" stroke="none" 
	d="
M1014.634521,446.821594 
	C1010.676514,448.696320 1007.416016,450.653503 1003.913696,451.299133 
	C991.451904,453.596497 982.325378,447.613953 979.248108,435.319763 
	C978.368347,431.804871 977.886292,428.094604 977.877441,424.472321 
	C977.786194,387.158417 977.749756,349.843750 977.938721,312.530518 
	C977.961853,307.954590 978.854187,303.208771 980.286133,298.851318 
	C983.080017,290.349304 989.620422,286.464386 999.780640,286.369110 
	C1009.852234,286.274658 1016.615662,290.156738 1019.629944,298.431702 
	C1020.975952,302.126770 1021.988892,306.185516 1022.006897,310.084503 
	C1022.186584,349.063202 1022.204712,388.043243 1022.064453,427.022217 
	C1022.039062,434.089478 1020.559448,440.963715 1014.634521,446.821594 
z"/>
<path fill="#34D606" opacity="1.000000" stroke="none" 
	d="
M1148.442749,802.607666 
	C1138.532959,810.213013 1127.787476,808.375732 1116.622681,808.480835 
	C1116.622681,754.534180 1116.622681,701.141174 1116.622681,647.202332 
	C1125.134155,645.368103 1133.656982,645.811035 1141.918091,648.359192 
	C1148.360840,650.346436 1152.655029,655.046692 1153.890869,661.847839 
	C1154.779175,666.736450 1155.583252,671.725037 1155.605347,676.672729 
	C1155.752197,709.602234 1155.818359,742.533691 1155.586060,775.462280 
	C1155.520874,784.721191 1155.290771,794.204895 1148.442749,802.607666 
z"/>
<path fill="#34D606" opacity="1.000000" stroke="none" 
	d="
M1307.457520,448.253235 
	C1298.866211,449.298248 1291.061035,450.123810 1282.561523,451.022766 
	C1282.561523,396.169373 1282.561523,342.772308 1282.561523,288.757751 
	C1290.809937,287.375977 1298.937744,287.479248 1306.979492,289.773010 
	C1313.986206,291.771545 1318.550537,296.441132 1319.825806,303.592010 
	C1320.871582,309.456085 1321.567627,315.464447 1321.600830,321.413452 
	C1321.771606,352.020447 1321.762207,382.629395 1321.608521,413.236603 
	C1321.576904,419.530701 1321.050171,425.882782 1320.051636,432.095673 
	C1318.901245,439.254120 1315.816528,445.421600 1307.457520,448.253235 
z"/>
<path fill="#35D608" opacity="1.000000" stroke="none" 
	d="
M1173.422607,407.890503 
	C1172.957642,417.172180 1173.087524,425.560181 1171.886230,433.752991 
	C1170.153564,445.569946 1163.054443,451.338867 1151.497437,451.672058 
	C1139.411011,452.020508 1132.252441,446.468048 1129.760864,434.246796 
	C1128.770874,429.390747 1128.242920,424.356171 1128.223633,419.400055 
	C1128.092529,385.752594 1128.069946,352.103943 1128.234497,318.456757 
	C1128.261963,312.842072 1128.839844,307.109894 1130.097412,301.647034 
	C1132.514893,291.146393 1139.148071,286.471161 1150.479492,286.338196 
	C1161.679199,286.206787 1168.886963,290.875031 1171.304565,301.154297 
	C1172.812744,307.566589 1173.284790,314.340088 1173.333008,320.957947 
	C1173.541260,349.607239 1173.422363,378.258850 1173.422607,407.890503 
z"/>
<path fill="#3AD70E" opacity="1.000000" stroke="none" 
	d="
M1771.979248,361.809021 
	C1774.403687,346.946747 1776.729248,332.953461 1779.054810,318.960175 
	C1779.737305,318.913422 1780.419922,318.866669 1781.102417,318.819916 
	C1785.552368,346.089783 1790.002319,373.359650 1794.553711,401.251221 
	C1784.427734,401.251221 1775.602173,401.251221 1765.675537,401.251221 
	C1767.809326,387.986603 1769.844849,375.332306 1771.979248,361.809021 
z"/>
<path fill="#3AD70E" opacity="1.000000" stroke="none" 
	d="
M850.037231,701.805298 
	C853.171692,721.327942 856.213013,739.982788 859.375488,759.380798 
	C849.642212,759.380798 840.535828,759.380798 830.518188,759.380798 
	C835.086853,731.335632 839.600647,703.627319 844.114441,675.918945 
	C844.606934,675.914490 845.099365,675.910034 845.591797,675.905518 
	C847.042542,684.249512 848.493347,692.593445 850.037231,701.805298 
z"/>
</svg>