<svg version="1.1" id="Layer_1" xmlns="http://www.w3.org/2000/svg" xmlns:xlink="http://www.w3.org/1999/xlink" x="0px" y="0px"
	 width="100%" viewBox="0 0 3000 3000" enable-background="new 0 0 3000 3000" xml:space="preserve">
<path fill="#C80123" opacity="1.000000" stroke="none" 
	d="
M2.000000,1062.000000 
	C2.000000,708.000061 2.000000,355.000122 2.000000,2.000142 
	C1001.999756,2.000095 2001.999512,2.000095 3001.999512,2.000047 
	C3001.999512,1001.999573 3001.999512,2001.999146 3001.999756,3001.999023 
	C2002.000610,3001.999512 1002.001221,3001.999512 2.000900,3001.999756 
	C2.000000,2355.666748 2.000000,1709.333374 2.000000,1062.000000 
M1835.032959,1358.019287 
	C1690.539307,1441.449341 1546.068237,1524.918335 1401.481201,1608.186279 
	C1394.767822,1612.052490 1391.779907,1616.047241 1391.787842,1624.327393 
	C1392.053223,1904.291382 1392.008179,2184.255615 1392.008057,2464.219727 
	C1392.008057,2467.500244 1392.008057,2470.781006 1392.008057,2475.627197 
	C1574.615234,2420.731445 1756.105835,2366.171143 1937.440552,2311.657715 
	C1937.440552,1974.036011 1937.440552,1637.284302 1937.440552,1298.923096 
	C1902.999268,1318.815308 1869.660400,1338.070801 1835.032959,1358.019287 
M790.173828,1621.000000 
	C790.173828,1851.159424 790.173828,2081.318848 790.173828,2311.044678 
	C816.181702,2321.134766 1324.260254,2473.316162 1332.584106,2473.395508 
	C1332.584106,2470.772949 1332.584106,2468.153809 1332.584106,2465.534424 
	C1332.583984,2183.945801 1332.552612,1902.357056 1332.763306,1620.768555 
	C1332.768555,1613.681885 1330.210083,1610.238037 1324.412354,1606.895874 
	C1149.588989,1506.122803 974.861511,1405.183105 800.106201,1304.291870 
	C797.331665,1302.689819 794.396667,1301.365845 790.173828,1299.219482 
	C790.173828,1406.717163 790.173828,1512.858521 790.173828,1621.000000 
M2054.173340,1415.000000 
	C2054.173096,1393.338989 2054.030518,1371.676514 2054.272705,1350.018188 
	C2054.333252,1344.590454 2052.985352,1340.829224 2048.430176,1337.370605 
	C2032.776367,1325.484985 2017.509033,1313.090454 2002.066772,1300.925171 
	C2000.625610,1299.789917 1998.987549,1298.904663 1995.971069,1296.951782 
	C1995.971069,1645.303467 1995.971069,1992.023438 1995.971069,2338.619385 
	C1992.543823,2339.861816 1990.090698,2340.837402 1987.584229,2341.647217 
	C1791.893188,2404.889893 1596.199585,2468.125000 1400.489014,2531.306885 
	C1397.043213,2532.419189 1393.396240,2533.503174 1389.830078,2533.547607 
	C1371.835327,2533.772949 1353.835205,2533.741699 1335.839355,2533.562256 
	C1332.580688,2533.530029 1329.270264,2532.610352 1326.089600,2531.721680 
	C1130.899048,2477.197998 935.718689,2422.637939 740.546448,2368.048584 
	C738.086975,2367.360840 735.743225,2366.259521 732.675049,2365.097656 
	C732.675049,2009.267578 732.675049,1653.816772 732.675049,1296.940918 
	C729.053223,1299.512939 726.617188,1301.093262 724.344421,1302.881348 
	C709.939880,1314.212646 695.744202,1325.819702 681.096558,1336.826050 
	C676.022034,1340.639160 674.172607,1344.612183 674.175659,1350.983398 
	C674.340393,1699.937622 674.320679,2048.892090 674.340332,2397.846436 
	C674.340454,2400.780273 674.620544,2403.714111 674.778015,2406.806641 
	C678.370789,2407.917236 681.496887,2408.973389 684.671936,2409.853027 
	C893.771606,2467.766113 1102.883789,2525.634033 1311.954468,2583.651367 
	C1323.296265,2586.798828 1334.574707,2588.619873 1346.367554,2588.267822 
	C1360.353271,2587.850342 1374.368164,2588.430664 1388.355713,2588.045654 
	C1394.246338,2587.883545 1400.338257,2587.113037 1405.934448,2585.342041 
	C1520.152466,2549.195068 1634.266968,2512.720703 1748.496582,2476.610596 
	C1848.444214,2445.015381 1948.508545,2413.789062 2048.515381,2382.381104 
	C2050.335449,2381.809570 2052.083008,2381.006104 2054.173340,2380.190186 
	C2054.173340,2058.867432 2054.173340,1737.933716 2054.173340,1415.000000 
M2353.943359,2326.974365 
	C2355.158936,2322.822510 2356.195557,2318.608154 2357.622559,2314.530273 
	C2362.634521,2300.208008 2363.837646,2285.527344 2363.822998,2270.371582 
	C2363.606201,2047.737549 2363.673584,1825.102905 2363.673584,1602.468506 
	C2363.673584,1536.144775 2363.673584,1469.820923 2363.673584,1403.497192 
	C2363.673584,1399.983521 2363.673584,1396.469849 2363.673584,1393.009399 
	C2320.077148,1393.009399 2277.961914,1393.009399 2235.014160,1393.009399 
	C2235.014160,1396.629272 2235.013916,1399.575806 2235.013916,1402.522339 
	C2235.014404,1697.146362 2235.004883,1991.770508 2235.105225,2286.394531 
	C2235.106934,2291.305664 2235.906250,2296.369873 2237.247070,2301.103760 
	C2251.122314,2350.093262 2265.188721,2399.028076 2279.194580,2447.980469 
	C2285.597412,2470.359131 2291.985107,2492.742432 2298.379395,2515.123535 
	C2298.930664,2515.187500 2299.481934,2515.251465 2300.033203,2515.315430 
	C2317.881592,2453.061523 2335.730225,2390.807861 2353.943359,2326.974365 
M500.986908,283.063782 
	C500.986908,275.490723 500.986908,267.917633 500.986908,260.183167 
	C459.322571,260.183167 418.812622,260.183167 378.007263,260.183167 
	C368.378357,282.856415 358.905762,305.206329 349.398102,327.541290 
	C310.433350,419.075500 271.424591,510.591003 232.580933,602.176575 
	C230.552200,606.959900 228.859070,612.308350 228.776199,617.422302 
	C228.382217,641.735352 228.578629,666.058411 228.637726,690.377747 
	C228.643127,692.600220 229.164932,694.821411 229.576340,698.062622 
	C287.091919,698.062622 344.181366,698.062622 402.054413,698.062622 
	C402.054413,743.650391 402.054413,788.152954 402.054413,833.051270 
	C435.262604,833.051270 467.666077,833.051270 501.274414,833.051270 
	C501.274414,787.713745 501.274414,742.980530 501.274414,697.235107 
	C520.932678,697.235107 539.404297,697.235107 558.345459,697.235107 
	C558.111328,669.079712 558.842285,641.955017 557.876892,613.846069 
	C538.294495,613.846069 519.824463,613.846069 500.986786,613.846069 
	C500.986786,503.564270 500.986786,394.303589 500.986908,283.063782 
M897.452881,489.781189 
	C892.953125,485.039581 888.453430,480.298004 883.501831,475.080292 
	C900.712097,465.594788 908.428955,450.873871 911.587341,433.484833 
	C913.007385,425.666870 913.671753,417.618622 913.746277,409.666138 
	C914.001892,382.368744 913.987732,355.066315 913.753235,327.768555 
	C913.687805,320.146973 912.965759,312.461273 911.754944,304.932007 
	C907.645386,279.378601 894.091553,263.972290 871.018433,258.850494 
	C856.547058,255.638153 841.981506,255.906708 827.478638,259.369110 
	C809.756042,263.600159 798.102722,274.578827 792.388672,291.544617 
	C789.974304,298.713074 788.041016,306.430817 787.941956,313.926025 
	C787.466858,349.859619 787.434509,385.805695 787.876404,421.739563 
	C787.972778,429.573090 789.925171,437.604553 792.291199,445.146912 
	C798.692017,465.550568 813.025452,477.102112 834.132568,480.116974 
	C841.026184,481.101624 847.994263,481.564667 854.892761,482.262695 
	C876.698853,509.617096 885.951416,518.164673 897.477661,521.399536 
	C899.223267,515.000671 900.427856,508.385895 902.872070,502.266266 
	C905.147888,496.568268 902.980957,493.486938 897.452881,489.781189 
M999.348755,828.571411 
	C1011.669006,821.479370 1019.115356,810.536011 1021.794067,796.981018 
	C1024.038696,785.622864 1025.264282,773.922974 1025.525635,762.342468 
	C1026.074097,738.035767 1025.834473,713.706726 1025.612671,689.389648 
	C1025.536743,681.085388 1024.926636,672.742188 1023.903198,664.498413 
	C1020.773560,639.289978 1006.406189,624.265503 981.304321,619.839966 
	C975.101868,618.746521 968.761841,617.990234 962.474182,617.907410 
	C943.553284,617.658203 924.627075,617.817566 905.144104,617.817566 
	C905.144104,690.944397 905.144104,763.375671 905.144104,836.249268 
	C907.086731,836.532288 908.675232,836.961121 910.264832,836.965027 
	C927.921021,837.008484 945.580750,837.195923 963.232483,836.908936 
	C975.281189,836.713135 987.126892,834.951904 999.348755,828.571411 
M1666.337402,655.793030 
	C1665.342407,663.701538 1663.542603,671.604919 1663.492188,679.519470 
	C1663.277954,713.133484 1663.168457,746.760803 1663.970825,780.360535 
	C1664.187866,789.447632 1666.918823,798.739868 1669.938232,807.437195 
	C1675.473267,823.380737 1687.279663,833.139587 1703.591187,837.186768 
	C1715.323730,840.097717 1727.258911,840.822327 1739.261230,838.968201 
	C1767.524536,834.602112 1782.608887,820.210266 1787.587158,792.235840 
	C1788.979980,784.409607 1789.663696,776.365845 1789.738647,768.413086 
	C1789.996216,741.113220 1789.992065,713.808167 1789.745361,686.508179 
	C1789.673340,678.554382 1789.003662,670.518005 1787.668335,662.679688 
	C1783.200684,636.457581 1768.788574,621.146301 1744.496582,616.629150 
	C1738.638184,615.539734 1732.579834,615.166077 1726.607300,615.110168 
	C1693.804810,614.802856 1676.553955,626.172607 1666.337402,655.793030 
M1851.687744,765.000122 
	C1851.687744,756.337952 1851.651611,747.675598 1851.697998,739.013672 
	C1851.744141,730.424316 1851.873535,721.835449 1851.966553,713.246338 
	C1852.602173,713.213440 1853.237671,713.180542 1853.873291,713.147705 
	C1870.965454,754.226074 1888.057739,795.304443 1905.135620,836.348511 
	C1914.248657,836.348511 1922.753906,836.348511 1931.198120,836.348511 
	C1931.198120,763.226624 1931.198120,690.758606 1931.198120,618.286743 
	C1920.055420,618.286743 1909.572144,618.286743 1898.006714,618.286743 
	C1898.006714,657.850281 1898.006714,696.792053 1898.006714,735.733826 
	C1897.447266,735.811035 1896.887695,735.888184 1896.328247,735.965393 
	C1879.325928,696.706055 1862.323608,657.446777 1845.307129,618.154663 
	C1836.003418,618.154663 1827.145630,618.154663 1817.897949,618.154663 
	C1817.897949,691.117004 1817.897949,763.574585 1817.897949,836.387207 
	C1829.247437,836.387207 1840.084961,836.387207 1851.687744,836.387207 
	C1851.687744,812.855164 1851.687744,789.927734 1851.687744,765.000122 
M1064.421387,820.442688 
	C1071.256470,829.831177 1080.920898,834.896851 1091.849976,837.461304 
	C1103.603516,840.219238 1115.546143,840.755737 1127.569580,838.741577 
	C1153.741577,834.357239 1167.102905,822.015625 1171.951538,795.793457 
	C1173.996948,784.731689 1174.776855,773.304199 1174.856323,762.033936 
	C1175.173706,717.046753 1174.997803,672.056030 1174.971191,627.066650 
	C1174.969482,624.150757 1174.688965,621.234924 1174.506104,617.700439 
	C1161.362793,617.710693 1148.903320,617.511963 1136.000244,617.814331 
	C1136.000244,622.825928 1136.000244,626.456909 1136.000244,630.087952 
	C1136.000244,676.077148 1136.175415,722.067505 1135.852661,768.054443 
	C1135.787964,777.276184 1134.762329,786.721558 1132.500122,795.637756 
	C1129.800659,806.277466 1119.717285,811.521912 1109.119629,809.292175 
	C1101.342651,807.655945 1095.396484,803.277283 1093.801270,795.318542 
	C1092.046387,786.563477 1090.553467,777.583130 1090.492554,768.690308 
	C1090.172852,722.036865 1090.343018,675.380005 1090.343140,628.724365 
	C1090.343140,625.201904 1090.343140,621.679443 1090.343140,618.185791 
	C1076.817871,618.185791 1064.641357,618.185791 1051.656860,618.185791 
	C1051.656860,621.948425 1051.656860,625.204712 1051.656860,628.461060 
	C1051.656860,661.453308 1051.618286,694.445557 1051.672729,727.437744 
	C1051.701294,744.764465 1051.531128,762.103394 1052.123779,779.413757 
	C1052.607056,793.526428 1055.662476,807.145752 1064.421387,820.442688 
M978.343933,386.993774 
	C978.343933,344.770844 978.343933,302.547943 978.343933,260.126587 
	C964.953308,260.126587 952.561707,260.126587 939.908691,260.126587 
	C939.804688,262.463623 939.669128,264.093933 939.668823,265.724213 
	C939.659790,312.374237 939.520996,359.025055 939.778381,405.673676 
	C939.835144,415.954498 940.516296,426.365509 942.285889,436.475708 
	C946.088806,458.203278 957.318115,474.005066 980.099365,479.175629 
	C994.282227,482.394653 1008.524475,482.455841 1022.706055,479.174591 
	C1040.402832,475.080017 1052.029053,464.341827 1057.761475,447.048828 
	C1061.802856,434.856964 1062.902466,422.277954 1062.935669,409.602875 
	C1063.059570,362.286713 1062.999268,314.970093 1062.958130,267.653656 
	C1062.955933,265.118866 1062.498657,262.584503 1062.240356,259.917175 
	C1049.375000,259.917175 1037.185669,259.917175 1024.000000,259.917175 
	C1024.000000,263.990570 1024.000000,267.565308 1024.000000,271.140045 
	C1023.999939,318.789734 1024.146484,366.440277 1023.854553,414.088196 
	C1023.806274,421.967682 1022.704346,430.081421 1020.551270,437.649323 
	C1017.538513,448.238861 1007.709778,453.042908 996.924316,450.797516 
	C986.048584,448.533295 981.259033,440.744965 980.335083,430.855835 
	C979.036804,416.959686 978.949219,402.950439 978.343933,386.993774 
M1241.710693,776.694031 
	C1241.753418,742.364929 1241.708618,708.035217 1241.931274,673.707275 
	C1241.965454,668.441833 1242.593628,662.997559 1244.066650,657.963623 
	C1246.831665,648.514343 1254.358276,644.113708 1264.998291,644.729492 
	C1275.302979,645.325928 1281.209473,650.045166 1282.909302,660.149719 
	C1283.895996,666.016052 1283.794800,672.083679 1283.947876,678.066772 
	C1284.107300,684.295532 1283.983521,690.531555 1283.983521,697.205322 
	C1297.287109,697.205322 1309.457153,697.205322 1322.396851,697.205322 
	C1322.573608,682.294861 1323.610596,667.701538 1320.040039,653.293457 
	C1314.607422,631.371582 1299.888672,618.276123 1277.231445,616.118896 
	C1268.334595,615.271851 1259.203857,615.128784 1250.334106,616.090393 
	C1227.695679,618.544739 1211.832397,630.045105 1205.574951,652.721008 
	C1203.901123,658.786072 1202.029785,665.066101 1201.972046,671.263489 
	C1201.624268,708.559692 1201.446167,745.865723 1202.025391,783.155823 
	C1202.151001,791.243103 1204.888672,799.532471 1207.663574,807.284668 
	C1213.215210,822.793640 1224.600586,832.449890 1240.461548,836.786011 
	C1256.957275,841.295654 1273.407715,841.098816 1289.677612,835.778687 
	C1301.721191,831.840576 1310.359619,823.873230 1315.645386,812.400635 
	C1324.182129,793.872131 1322.772461,774.330017 1322.295776,754.973816 
	C1309.060669,754.973816 1296.875122,754.973816 1283.981689,754.973816 
	C1283.981689,763.907898 1284.185913,772.197693 1283.908081,780.471313 
	C1283.730347,785.762756 1283.434692,791.181091 1282.141235,796.275940 
	C1279.713257,805.841248 1273.980103,809.754211 1263.849976,809.888367 
	C1253.910400,810.020020 1247.071045,806.025635 1244.584351,797.274658 
	C1242.877930,791.269409 1242.679443,784.835693 1241.710693,776.694031 
M1203.483643,435.388458 
	C1191.553223,376.822571 1179.622681,318.256683 1167.740356,259.927429 
	C1153.240234,259.927429 1139.711060,259.927429 1125.632568,259.927429 
	C1110.826050,332.823059 1096.102539,405.310028 1081.361816,477.881775 
	C1094.869507,477.881775 1107.010132,477.881775 1119.207275,477.881775 
	C1122.288574,460.942963 1125.245117,444.689453 1128.211060,428.384857 
	C1141.202759,428.384857 1153.395630,428.384857 1165.808350,428.384857 
	C1168.815308,445.197571 1171.735718,461.525726 1174.781860,478.557465 
	C1187.209595,478.489594 1199.291626,478.993896 1211.971191,478.211334 
	C1209.090454,463.703491 1206.445312,450.382324 1203.483643,435.388458 
M2247.294434,1342.335693 
	C2285.787109,1342.335693 2324.279785,1342.335693 2362.265137,1342.335693 
	C2363.024414,1340.638428 2363.511719,1340.056274 2363.513428,1339.472656 
	C2363.572266,1316.513550 2364.204102,1293.533203 2363.423096,1270.601196 
	C2362.729248,1250.234619 2353.850098,1233.277222 2337.070801,1221.345825 
	C2316.329590,1206.597168 2293.767090,1204.613525 2271.007568,1215.660645 
	C2247.726807,1226.960449 2235.771973,1246.547485 2235.141602,1272.382080 
	C2234.614014,1293.999268 2235.016113,1315.639771 2235.075439,1337.269775 
	C2235.079590,1338.800659 2235.652100,1340.329834 2236.056152,1342.335693 
	C2239.449463,1342.335693 2242.416748,1342.335693 2247.294434,1342.335693 
M1436.490234,680.237305 
	C1432.312256,659.494324 1428.134277,638.751404 1423.994751,618.199890 
	C1409.333740,618.199890 1395.815308,618.199890 1381.864014,618.199890 
	C1367.054810,691.119141 1352.335571,763.595642 1337.580566,836.248169 
	C1351.077271,836.248169 1363.199219,836.248169 1375.418945,836.248169 
	C1378.507080,819.294373 1381.467163,803.043396 1384.428711,786.784912 
	C1397.413940,786.784912 1409.553101,786.784912 1422.026855,786.784912 
	C1425.039795,803.590637 1427.959351,819.875671 1431.024048,836.970032 
	C1443.538208,836.765442 1455.568726,837.548645 1468.256714,836.443237 
	C1457.643311,784.084290 1447.283813,732.978699 1436.490234,680.237305 
M830.612671,762.997009 
	C830.612671,754.786865 830.612671,746.576660 830.612671,737.229492 
	C844.869141,737.229492 858.023071,737.229492 871.269287,737.229492 
	C871.269287,727.228333 871.269287,718.404419 871.269287,708.444214 
	C857.570129,708.444214 844.407410,708.444214 831.213989,708.444214 
	C831.213989,687.144470 831.213989,666.997864 831.213989,645.711182 
	C848.541931,645.711182 865.287048,645.711182 881.915344,645.711182 
	C881.915344,635.761719 881.915344,626.974731 881.915344,618.399414 
	C851.110046,618.399414 821.007996,618.399414 790.616211,618.399414 
	C790.616211,691.329590 790.616211,763.507446 790.616211,835.616577 
	C800.578674,837.855713 875.972595,837.487671 883.022888,835.205200 
	C883.022888,826.989075 883.022888,818.744812 883.022888,809.141235 
	C865.571899,809.141235 848.473328,809.141235 830.612610,809.141235 
	C830.612610,793.526489 830.612610,779.263733 830.612671,762.997009 
M1599.686646,405.295898 
	C1600.764282,398.464203 1600.984985,391.359467 1603.060303,384.845642 
	C1615.378174,346.182678 1628.130371,307.658142 1640.718506,269.081207 
	C1641.634766,266.273651 1642.408936,263.419739 1643.445312,259.926147 
	C1630.947266,259.926147 1619.085449,259.926147 1606.652588,259.926147 
	C1598.321777,287.711639 1590.030518,315.364807 1581.739380,343.017944 
	C1581.171753,342.961884 1580.604126,342.905823 1580.036499,342.849792 
	C1571.329956,315.068451 1562.623413,287.287140 1554.119873,260.153564 
	C1541.030518,260.153564 1529.275391,260.153564 1516.962402,260.153564 
	C1517.842407,263.224396 1518.402710,265.460297 1519.121216,267.644135 
	C1531.909790,306.507874 1544.873291,345.315277 1557.374512,384.271118 
	C1559.566772,391.102509 1560.676758,398.532593 1560.834229,405.717957 
	C1561.286377,426.361572 1560.993652,447.021454 1560.993774,467.674957 
	C1560.993774,470.948273 1560.993774,474.221588 1560.993774,478.568176 
	C1574.300781,478.441406 1586.687012,479.116272 1599.686646,478.027740 
	C1599.686646,453.766052 1599.686646,430.496643 1599.686646,405.295898 
M1438.585327,436.999023 
	C1438.585327,450.554535 1438.585327,464.110077 1438.585327,478.083496 
	C1452.445923,478.083496 1465.266602,478.083496 1479.004150,478.083496 
	C1479.004150,446.345734 1478.919922,415.122131 1479.027954,383.899200 
	C1479.136719,352.442352 1478.543091,320.969666 1479.425415,288.788452 
	C1491.645630,288.788452 1502.552734,288.788452 1513.897705,288.788452 
	C1513.897705,278.817627 1513.897705,269.604675 1513.897705,260.124603 
	C1476.585083,260.124603 1439.544556,260.124603 1402.696533,260.124603 
	C1402.696533,269.999268 1402.696533,279.132416 1402.696533,289.277954 
	C1414.858643,289.277954 1426.346558,289.277954 1438.585327,289.277954 
	C1438.585327,338.545898 1438.585327,386.772614 1438.585327,436.999023 
M1479.210205,647.411377 
	C1486.463745,647.411377 1493.717163,647.411377 1501.853394,647.411377 
	C1501.853394,710.858154 1501.853394,773.361572 1501.853394,836.425781 
	C1515.607788,836.425781 1528.453491,836.425781 1542.230957,836.425781 
	C1542.230957,773.476074 1542.230957,710.978027 1542.230957,647.141357 
	C1554.541260,647.141357 1565.981323,647.141357 1577.179688,647.141357 
	C1577.179688,636.603516 1577.179688,627.427368 1577.179688,618.271851 
	C1539.686768,618.271851 1502.858887,618.271851 1465.968018,618.271851 
	C1465.968018,628.069458 1465.968018,637.243042 1465.968018,647.411377 
	C1470.097778,647.411377 1473.694336,647.411377 1479.210205,647.411377 
M1324.591675,457.528320 
	C1324.350342,455.626129 1324.109131,453.723907 1323.731934,450.750641 
	C1306.604492,450.750641 1289.787842,450.750641 1272.022827,450.750641 
	C1272.022827,386.480286 1272.022827,323.332062 1272.022827,259.405396 
	C1264.782593,259.405396 1258.513794,259.405396 1252.244995,259.405396 
	C1245.715088,259.405396 1239.185059,259.405396 1232.731934,259.405396 
	C1232.731934,333.225403 1232.731934,405.662506 1232.731934,477.926208 
	C1263.636230,477.926208 1293.804077,477.926208 1324.594238,477.926208 
	C1324.594238,471.320984 1324.594238,465.368439 1324.591675,457.528320 
M1372.501953,478.614838 
	C1376.668213,478.538239 1380.834351,478.461609 1385.009521,478.384827 
	C1385.009521,404.847626 1385.009521,332.670837 1385.009521,259.988770 
	C1371.824219,259.988770 1359.054565,259.988770 1346.205078,259.988770 
	C1346.205078,333.034973 1346.205078,405.477539 1346.205078,478.614777 
	C1354.716064,478.614777 1362.675659,478.614777 1372.501953,478.614838 
M1634.358398,794.999756 
	C1634.358398,736.172729 1634.358398,677.345703 1634.358398,617.922852 
	C1620.631470,617.654358 1607.909912,617.203064 1595.335205,618.128723 
	C1593.363281,638.533752 1594.155518,829.054504 1596.182861,836.426147 
	C1608.648682,836.426147 1621.155762,836.426147 1634.358398,836.426147 
	C1634.358398,822.904846 1634.358398,809.952148 1634.358398,794.999756 
z"/>
<path fill="#FFFFFF" opacity="1.000000" stroke="none" 
	d="
M1835.677246,1357.672852 
	C1869.660400,1338.070801 1902.999268,1318.815308 1937.440552,1298.923096 
	C1937.440552,1637.284302 1937.440552,1974.036011 1937.440552,2311.657715 
	C1756.105835,2366.171143 1574.615234,2420.731445 1392.008057,2475.627197 
	C1392.008057,2470.781006 1392.008057,2467.500244 1392.008057,2464.219727 
	C1392.008179,2184.255615 1392.053223,1904.291382 1391.787842,1624.327393 
	C1391.779907,1616.047241 1394.767822,1612.052490 1401.481201,1608.186279 
	C1546.068237,1524.918335 1690.539307,1441.449341 1835.677246,1357.672852 
z"/>
<path fill="#FFFFFF" opacity="1.000000" stroke="none" 
	d="
M790.173828,1620.000000 
	C790.173828,1512.858521 790.173828,1406.717163 790.173828,1299.219482 
	C794.396667,1301.365845 797.331665,1302.689819 800.106201,1304.291870 
	C974.861511,1405.183105 1149.588989,1506.122803 1324.412354,1606.895874 
	C1330.210083,1610.238037 1332.768555,1613.681885 1332.763306,1620.768555 
	C1332.552612,1902.357056 1332.583984,2183.945801 1332.584106,2465.534424 
	C1332.584106,2468.153809 1332.584106,2470.772949 1332.584106,2473.395508 
	C1324.260254,2473.316162 816.181702,2321.134766 790.173828,2311.044678 
	C790.173828,2081.318848 790.173828,1851.159424 790.173828,1620.000000 
z"/>
<path fill="#FEFDFD" opacity="1.000000" stroke="none" 
	d="
M2054.173340,1416.000000 
	C2054.173340,1737.933716 2054.173340,2058.867432 2054.173340,2380.190186 
	C2052.083008,2381.006104 2050.335449,2381.809570 2048.515381,2382.381104 
	C1948.508545,2413.789062 1848.444214,2445.015381 1748.496582,2476.610596 
	C1634.266968,2512.720703 1520.152466,2549.195068 1405.934448,2585.342041 
	C1400.338257,2587.113037 1394.246338,2587.883545 1388.355713,2588.045654 
	C1374.368164,2588.430664 1360.353271,2587.850342 1346.367554,2588.267822 
	C1334.574707,2588.619873 1323.296265,2586.798828 1311.954468,2583.651367 
	C1102.883789,2525.634033 893.771606,2467.766113 684.671936,2409.853027 
	C681.496887,2408.973389 678.370789,2407.917236 674.778015,2406.806641 
	C674.620544,2403.714111 674.340454,2400.780273 674.340332,2397.846436 
	C674.320679,2048.892090 674.340393,1699.937622 674.175659,1350.983398 
	C674.172607,1344.612183 676.022034,1340.639160 681.096558,1336.826050 
	C695.744202,1325.819702 709.939880,1314.212646 724.344421,1302.881348 
	C726.617188,1301.093262 729.053223,1299.512939 732.675049,1296.940918 
	C732.675049,1653.816772 732.675049,2009.267578 732.675049,2365.097656 
	C735.743225,2366.259521 738.086975,2367.360840 740.546448,2368.048584 
	C935.718689,2422.637939 1130.899048,2477.197998 1326.089600,2531.721680 
	C1329.270264,2532.610352 1332.580688,2533.530029 1335.839355,2533.562256 
	C1353.835205,2533.741699 1371.835327,2533.772949 1389.830078,2533.547607 
	C1393.396240,2533.503174 1397.043213,2532.419189 1400.489014,2531.306885 
	C1596.199585,2468.125000 1791.893188,2404.889893 1987.584229,2341.647217 
	C1990.090698,2340.837402 1992.543823,2339.861816 1995.971069,2338.619385 
	C1995.971069,1992.023438 1995.971069,1645.303467 1995.971069,1296.951782 
	C1998.987549,1298.904663 2000.625610,1299.789917 2002.066772,1300.925171 
	C2017.509033,1313.090454 2032.776367,1325.484985 2048.430176,1337.370605 
	C2052.985352,1340.829224 2054.333252,1344.590454 2054.272705,1350.018188 
	C2054.030518,1371.676514 2054.173096,1393.338989 2054.173340,1416.000000 
z"/>
<path fill="#FFFEFE" opacity="1.000000" stroke="none" 
	d="
M2353.760986,2327.764160 
	C2335.730225,2390.807861 2317.881592,2453.061523 2300.033203,2515.315430 
	C2299.481934,2515.251465 2298.930664,2515.187500 2298.379395,2515.123535 
	C2291.985107,2492.742432 2285.597412,2470.359131 2279.194580,2447.980469 
	C2265.188721,2399.028076 2251.122314,2350.093262 2237.247070,2301.103760 
	C2235.906250,2296.369873 2235.106934,2291.305664 2235.105225,2286.394531 
	C2235.004883,1991.770508 2235.014404,1697.146362 2235.013916,1402.522339 
	C2235.013916,1399.575806 2235.014160,1396.629272 2235.014160,1393.009399 
	C2277.961914,1393.009399 2320.077148,1393.009399 2363.673584,1393.009399 
	C2363.673584,1396.469849 2363.673584,1399.983521 2363.673584,1403.497192 
	C2363.673584,1469.820923 2363.673584,1536.144775 2363.673584,1602.468506 
	C2363.673584,1825.102905 2363.606201,2047.737549 2363.822998,2270.371582 
	C2363.837646,2285.527344 2362.634521,2300.208008 2357.622559,2314.530273 
	C2356.195557,2318.608154 2355.158936,2322.822510 2353.760986,2327.764160 
z"/>
<path fill="#FFFEFE" opacity="1.000000" stroke="none" 
	d="
M500.986847,284.053345 
	C500.986786,394.303589 500.986786,503.564270 500.986786,613.846069 
	C519.824463,613.846069 538.294495,613.846069 557.876892,613.846069 
	C558.842285,641.955017 558.111328,669.079712 558.345459,697.235107 
	C539.404297,697.235107 520.932678,697.235107 501.274414,697.235107 
	C501.274414,742.980530 501.274414,787.713745 501.274414,833.051270 
	C467.666077,833.051270 435.262604,833.051270 402.054413,833.051270 
	C402.054413,788.152954 402.054413,743.650391 402.054413,698.062622 
	C344.181366,698.062622 287.091919,698.062622 229.576340,698.062622 
	C229.164932,694.821411 228.643127,692.600220 228.637726,690.377747 
	C228.578629,666.058411 228.382217,641.735352 228.776199,617.422302 
	C228.859070,612.308350 230.552200,606.959900 232.580933,602.176575 
	C271.424591,510.591003 310.433350,419.075500 349.398102,327.541290 
	C358.905762,305.206329 368.378357,282.856415 378.007263,260.183167 
	C418.812622,260.183167 459.322571,260.183167 500.986908,260.183167 
	C500.986908,267.917633 500.986908,275.490723 500.986847,284.053345 
M401.850189,563.000000 
	C401.850189,500.988861 401.850189,438.977753 401.850189,376.966614 
	C401.184448,376.868958 400.518738,376.771301 399.852997,376.673615 
	C371.689850,455.433685 343.526703,534.193726 314.864990,614.348022 
	C344.601654,614.334778 372.948761,614.390869 401.850189,614.306274 
	C401.850189,596.893494 401.850189,580.946777 401.850189,563.000000 
z"/>
<path fill="#FEFBFB" opacity="1.000000" stroke="none" 
	d="
M898.011841,490.278748 
	C902.980957,493.486938 905.147888,496.568268 902.872070,502.266266 
	C900.427856,508.385895 899.223267,515.000671 897.477661,521.399536 
	C885.951416,518.164673 876.698853,509.617096 854.892761,482.262695 
	C847.994263,481.564667 841.026184,481.101624 834.132568,480.116974 
	C813.025452,477.102112 798.692017,465.550568 792.291199,445.146912 
	C789.925171,437.604553 787.972778,429.573090 787.876404,421.739563 
	C787.434509,385.805695 787.466858,349.859619 787.941956,313.926025 
	C788.041016,306.430817 789.974304,298.713074 792.388672,291.544617 
	C798.102722,274.578827 809.756042,263.600159 827.478638,259.369110 
	C841.981506,255.906708 856.547058,255.638153 871.018433,258.850494 
	C894.091553,263.972290 907.645386,279.378601 911.754944,304.932007 
	C912.965759,312.461273 913.687805,320.146973 913.753235,327.768555 
	C913.987732,355.066315 914.001892,382.368744 913.746277,409.666138 
	C913.671753,417.618622 913.007385,425.666870 911.587341,433.484833 
	C908.428955,450.873871 900.712097,465.594788 883.501831,475.080292 
	C888.453430,480.298004 892.953125,485.039581 898.011841,490.278748 
M844.532715,451.003845 
	C862.794434,452.868500 870.816589,446.379547 872.290222,428.535339 
	C872.426941,426.879700 872.564514,425.217438 872.565247,423.558197 
	C872.581055,386.987518 872.680664,350.416229 872.461670,313.846863 
	C872.430481,308.630157 871.501282,303.197021 869.820068,298.261749 
	C866.989807,289.953094 860.092224,286.222809 850.013184,286.354004 
	C839.814087,286.486725 833.141541,290.296539 830.600037,298.844330 
	C828.924377,304.480072 828.148315,310.576752 828.110840,316.474335 
	C827.888977,351.381348 827.933838,386.290741 828.077271,421.198578 
	C828.097473,426.129028 828.890137,431.101898 829.777649,435.972687 
	C831.141846,443.459869 835.369629,448.618134 844.532715,451.003845 
z"/>
<path fill="#FEFAFB" opacity="1.000000" stroke="none" 
	d="
M998.712463,828.971191 
	C987.126892,834.951904 975.281189,836.713135 963.232483,836.908936 
	C945.580750,837.195923 927.921021,837.008484 910.264832,836.965027 
	C908.675232,836.961121 907.086731,836.532288 905.144104,836.249268 
	C905.144104,763.375671 905.144104,690.944397 905.144104,617.817566 
	C924.627075,617.817566 943.553284,617.658203 962.474182,617.907410 
	C968.761841,617.990234 975.101868,618.746521 981.304321,619.839966 
	C1006.406189,624.265503 1020.773560,639.289978 1023.903198,664.498413 
	C1024.926636,672.742188 1025.536743,681.085388 1025.612671,689.389648 
	C1025.834473,713.706726 1026.074097,738.035767 1025.525635,762.342468 
	C1025.264282,773.922974 1024.038696,785.622864 1021.794067,796.981018 
	C1019.115356,810.536011 1011.669006,821.479370 998.712463,828.971191 
M981.726501,658.099487 
	C973.405640,643.205383 959.206238,647.047546 945.592163,646.179565 
	C945.592163,700.465637 945.592163,753.969238 945.592163,807.802429 
	C952.730835,807.802429 959.672668,808.360046 966.485596,807.661011 
	C974.959961,806.791382 980.620422,801.550415 982.301636,793.213623 
	C983.606567,786.742371 984.217224,780.031494 984.257629,773.421753 
	C984.450989,741.760315 984.459229,710.096191 984.248413,678.434937 
	C984.206665,672.172668 982.914246,665.918701 981.726501,658.099487 
z"/>
<path fill="#FEFBFC" opacity="1.000000" stroke="none" 
	d="
M1666.568848,655.010132 
	C1676.553955,626.172607 1693.804810,614.802856 1726.607300,615.110168 
	C1732.579834,615.166077 1738.638184,615.539734 1744.496582,616.629150 
	C1768.788574,621.146301 1783.200684,636.457581 1787.668335,662.679688 
	C1789.003662,670.518005 1789.673340,678.554382 1789.745361,686.508179 
	C1789.992065,713.808167 1789.996216,741.113220 1789.738647,768.413086 
	C1789.663696,776.365845 1788.979980,784.409607 1787.587158,792.235840 
	C1782.608887,820.210266 1767.524536,834.602112 1739.261230,838.968201 
	C1727.258911,840.822327 1715.323730,840.097717 1703.591187,837.186768 
	C1687.279663,833.139587 1675.473267,823.380737 1669.938232,807.437195 
	C1666.918823,798.739868 1664.187866,789.447632 1663.970825,780.360535 
	C1663.168457,746.760803 1663.277954,713.133484 1663.492188,679.519470 
	C1663.542603,671.604919 1665.342407,663.701538 1666.568848,655.010132 
M1742.711426,803.619141 
	C1747.070923,798.129517 1748.412109,791.622498 1748.428223,784.897949 
	C1748.520508,746.329224 1748.541016,707.759827 1748.351318,669.191772 
	C1748.330566,664.972107 1747.334351,660.568970 1745.879272,656.583801 
	C1742.843994,648.270813 1736.151978,644.535767 1726.025146,644.685425 
	C1715.759766,644.837219 1709.156738,648.613281 1706.617188,657.174744 
	C1704.943970,662.815857 1704.129028,668.907898 1704.090942,674.805542 
	C1703.865112,709.727112 1703.910522,744.651123 1704.056030,779.573547 
	C1704.076782,784.505554 1704.667847,789.547302 1705.820923,794.339539 
	C1708.334229,804.784546 1714.305420,809.376831 1724.916992,809.890991 
	C1731.114136,810.191284 1736.805176,808.893250 1742.711426,803.619141 
z"/>
<path fill="#FEFBFB" opacity="1.000000" stroke="none" 
	d="
M1851.687744,766.000183 
	C1851.687744,789.927734 1851.687744,812.855164 1851.687744,836.387207 
	C1840.084961,836.387207 1829.247437,836.387207 1817.897949,836.387207 
	C1817.897949,763.574585 1817.897949,691.117004 1817.897949,618.154663 
	C1827.145630,618.154663 1836.003418,618.154663 1845.307129,618.154663 
	C1862.323608,657.446777 1879.325928,696.706055 1896.328247,735.965393 
	C1896.887695,735.888184 1897.447266,735.811035 1898.006714,735.733826 
	C1898.006714,696.792053 1898.006714,657.850281 1898.006714,618.286743 
	C1909.572144,618.286743 1920.055420,618.286743 1931.198120,618.286743 
	C1931.198120,690.758606 1931.198120,763.226624 1931.198120,836.348511 
	C1922.753906,836.348511 1914.248657,836.348511 1905.135620,836.348511 
	C1888.057739,795.304443 1870.965454,754.226074 1853.873291,713.147705 
	C1853.237671,713.180542 1852.602173,713.213440 1851.966553,713.246338 
	C1851.873535,721.835449 1851.744141,730.424316 1851.697998,739.013672 
	C1851.651611,747.675598 1851.687744,756.337952 1851.687744,766.000183 
z"/>
<path fill="#FFFDFD" opacity="1.000000" stroke="none" 
	d="
M1064.027588,819.828857 
	C1055.662476,807.145752 1052.607056,793.526428 1052.123779,779.413757 
	C1051.531128,762.103394 1051.701294,744.764465 1051.672729,727.437744 
	C1051.618286,694.445557 1051.656860,661.453308 1051.656860,628.461060 
	C1051.656860,625.204712 1051.656860,621.948425 1051.656860,618.185791 
	C1064.641357,618.185791 1076.817871,618.185791 1090.343140,618.185791 
	C1090.343140,621.679443 1090.343140,625.201904 1090.343140,628.724365 
	C1090.343018,675.380005 1090.172852,722.036865 1090.492554,768.690308 
	C1090.553467,777.583130 1092.046387,786.563477 1093.801270,795.318542 
	C1095.396484,803.277283 1101.342651,807.655945 1109.119629,809.292175 
	C1119.717285,811.521912 1129.800659,806.277466 1132.500122,795.637756 
	C1134.762329,786.721558 1135.787964,777.276184 1135.852661,768.054443 
	C1136.175415,722.067505 1136.000244,676.077148 1136.000244,630.087952 
	C1136.000244,626.456909 1136.000244,622.825928 1136.000244,617.814331 
	C1148.903320,617.511963 1161.362793,617.710693 1174.506104,617.700439 
	C1174.688965,621.234924 1174.969482,624.150757 1174.971191,627.066650 
	C1174.997803,672.056030 1175.173706,717.046753 1174.856323,762.033936 
	C1174.776855,773.304199 1173.996948,784.731689 1171.951538,795.793457 
	C1167.102905,822.015625 1153.741577,834.357239 1127.569580,838.741577 
	C1115.546143,840.755737 1103.603516,840.219238 1091.849976,837.461304 
	C1080.920898,834.896851 1071.256470,829.831177 1064.027588,819.828857 
z"/>
<path fill="#FFFDFD" opacity="1.000000" stroke="none" 
	d="
M978.343933,387.991669 
	C978.949219,402.950439 979.036804,416.959686 980.335083,430.855835 
	C981.259033,440.744965 986.048584,448.533295 996.924316,450.797516 
	C1007.709778,453.042908 1017.538513,448.238861 1020.551270,437.649323 
	C1022.704346,430.081421 1023.806274,421.967682 1023.854553,414.088196 
	C1024.146484,366.440277 1023.999939,318.789734 1024.000000,271.140045 
	C1024.000000,267.565308 1024.000000,263.990570 1024.000000,259.917175 
	C1037.185669,259.917175 1049.375000,259.917175 1062.240356,259.917175 
	C1062.498657,262.584503 1062.955933,265.118866 1062.958130,267.653656 
	C1062.999268,314.970093 1063.059570,362.286713 1062.935669,409.602875 
	C1062.902466,422.277954 1061.802856,434.856964 1057.761475,447.048828 
	C1052.029053,464.341827 1040.402832,475.080017 1022.706055,479.174591 
	C1008.524475,482.455841 994.282227,482.394653 980.099365,479.175629 
	C957.318115,474.005066 946.088806,458.203278 942.285889,436.475708 
	C940.516296,426.365509 939.835144,415.954498 939.778381,405.673676 
	C939.520996,359.025055 939.659790,312.374237 939.668823,265.724213 
	C939.669128,264.093933 939.804688,262.463623 939.908691,260.126587 
	C952.561707,260.126587 964.953308,260.126587 978.343933,260.126587 
	C978.343933,302.547943 978.343933,344.770844 978.343933,387.991669 
z"/>
<path fill="#FEFAFB" opacity="1.000000" stroke="none" 
	d="
M1241.758789,777.643799 
	C1242.679443,784.835693 1242.877930,791.269409 1244.584351,797.274658 
	C1247.071045,806.025635 1253.910400,810.020020 1263.849976,809.888367 
	C1273.980103,809.754211 1279.713257,805.841248 1282.141235,796.275940 
	C1283.434692,791.181091 1283.730347,785.762756 1283.908081,780.471313 
	C1284.185913,772.197693 1283.981689,763.907898 1283.981689,754.973816 
	C1296.875122,754.973816 1309.060669,754.973816 1322.295776,754.973816 
	C1322.772461,774.330017 1324.182129,793.872131 1315.645386,812.400635 
	C1310.359619,823.873230 1301.721191,831.840576 1289.677612,835.778687 
	C1273.407715,841.098816 1256.957275,841.295654 1240.461548,836.786011 
	C1224.600586,832.449890 1213.215210,822.793640 1207.663574,807.284668 
	C1204.888672,799.532471 1202.151001,791.243103 1202.025391,783.155823 
	C1201.446167,745.865723 1201.624268,708.559692 1201.972046,671.263489 
	C1202.029785,665.066101 1203.901123,658.786072 1205.574951,652.721008 
	C1211.832397,630.045105 1227.695679,618.544739 1250.334106,616.090393 
	C1259.203857,615.128784 1268.334595,615.271851 1277.231445,616.118896 
	C1299.888672,618.276123 1314.607422,631.371582 1320.040039,653.293457 
	C1323.610596,667.701538 1322.573608,682.294861 1322.396851,697.205322 
	C1309.457153,697.205322 1297.287109,697.205322 1283.983521,697.205322 
	C1283.983521,690.531555 1284.107300,684.295532 1283.947876,678.066772 
	C1283.794800,672.083679 1283.895996,666.016052 1282.909302,660.149719 
	C1281.209473,650.045166 1275.302979,645.325928 1264.998291,644.729492 
	C1254.358276,644.113708 1246.831665,648.514343 1244.066650,657.963623 
	C1242.593628,662.997559 1241.965454,668.441833 1241.931274,673.707275 
	C1241.708618,708.035217 1241.753418,742.364929 1241.758789,777.643799 
z"/>
<path fill="#FEFBFB" opacity="1.000000" stroke="none" 
	d="
M1203.641846,436.224792 
	C1206.445312,450.382324 1209.090454,463.703491 1211.971191,478.211334 
	C1199.291626,478.993896 1187.209595,478.489594 1174.781860,478.557465 
	C1171.735718,461.525726 1168.815308,445.197571 1165.808350,428.384857 
	C1153.395630,428.384857 1141.202759,428.384857 1128.211060,428.384857 
	C1125.245117,444.689453 1122.288574,460.942963 1119.207275,477.881775 
	C1107.010132,477.881775 1094.869507,477.881775 1081.361816,477.881775 
	C1096.102539,405.310028 1110.826050,332.823059 1125.632568,259.927429 
	C1139.711060,259.927429 1153.240234,259.927429 1167.740356,259.927429 
	C1179.622681,318.256683 1191.553223,376.822571 1203.641846,436.224792 
M1150.030396,331.077332 
	C1149.180664,326.430389 1148.331055,321.783478 1147.481445,317.136536 
	C1147.036499,317.150696 1146.591553,317.164825 1146.146606,317.178986 
	C1141.617432,344.954254 1137.088257,372.729492 1132.456787,401.132568 
	C1142.308594,401.132568 1151.413574,401.132568 1161.401001,401.132568 
	C1157.592285,377.870697 1153.898560,355.310577 1150.030396,331.077332 
z"/>
<path fill="#FFFEFE" opacity="1.000000" stroke="none" 
	d="
M2246.339355,1342.335693 
	C2242.416748,1342.335693 2239.449463,1342.335693 2236.056152,1342.335693 
	C2235.652100,1340.329834 2235.079590,1338.800659 2235.075439,1337.269775 
	C2235.016113,1315.639771 2234.614014,1293.999268 2235.141602,1272.382080 
	C2235.771973,1246.547485 2247.726807,1226.960449 2271.007568,1215.660645 
	C2293.767090,1204.613525 2316.329590,1206.597168 2337.070801,1221.345825 
	C2353.850098,1233.277222 2362.729248,1250.234619 2363.423096,1270.601196 
	C2364.204102,1293.533203 2363.572266,1316.513550 2363.513428,1339.472656 
	C2363.511719,1340.056274 2363.024414,1340.638428 2362.265137,1342.335693 
	C2324.279785,1342.335693 2285.787109,1342.335693 2246.339355,1342.335693 
z"/>
<path fill="#FEFBFB" opacity="1.000000" stroke="none" 
	d="
M1436.707275,681.055176 
	C1447.283813,732.978699 1457.643311,784.084290 1468.256714,836.443237 
	C1455.568726,837.548645 1443.538208,836.765442 1431.024048,836.970032 
	C1427.959351,819.875671 1425.039795,803.590637 1422.026855,786.784912 
	C1409.553101,786.784912 1397.413940,786.784912 1384.428711,786.784912 
	C1381.467163,803.043396 1378.507080,819.294373 1375.418945,836.248169 
	C1363.199219,836.248169 1351.077271,836.248169 1337.580566,836.248169 
	C1352.335571,763.595642 1367.054810,691.119141 1381.864014,618.199890 
	C1395.815308,618.199890 1409.333740,618.199890 1423.994751,618.199890 
	C1428.134277,638.751404 1432.312256,659.494324 1436.707275,681.055176 
M1394.200562,760.058472 
	C1401.781372,760.058472 1409.362183,760.058472 1417.759766,760.058472 
	C1413.013794,731.154602 1408.458130,703.409485 1403.902466,675.664429 
	C1400.555786,686.840820 1398.628296,697.936951 1396.821167,709.052673 
	C1394.367432,724.144958 1391.985352,739.248962 1389.625244,754.356201 
	C1389.238037,756.834839 1388.005005,759.921082 1394.200562,760.058472 
z"/>
<path fill="#FEFBFB" opacity="1.000000" stroke="none" 
	d="
M830.612671,763.999023 
	C830.612610,779.263733 830.612610,793.526489 830.612610,809.141235 
	C848.473328,809.141235 865.571899,809.141235 883.022888,809.141235 
	C883.022888,818.744812 883.022888,826.989075 883.022888,835.205200 
	C875.972595,837.487671 800.578674,837.855713 790.616211,835.616577 
	C790.616211,763.507446 790.616211,691.329590 790.616211,618.399414 
	C821.007996,618.399414 851.110046,618.399414 881.915344,618.399414 
	C881.915344,626.974731 881.915344,635.761719 881.915344,645.711182 
	C865.287048,645.711182 848.541931,645.711182 831.213989,645.711182 
	C831.213989,666.997864 831.213989,687.144470 831.213989,708.444214 
	C844.407410,708.444214 857.570129,708.444214 871.269287,708.444214 
	C871.269287,718.404419 871.269287,727.228333 871.269287,737.229492 
	C858.023071,737.229492 844.869141,737.229492 830.612671,737.229492 
	C830.612671,746.576660 830.612671,754.786865 830.612671,763.999023 
z"/>
<path fill="#FEFBFC" opacity="1.000000" stroke="none" 
	d="
M1599.686646,406.261566 
	C1599.686646,430.496643 1599.686646,453.766052 1599.686646,478.027740 
	C1586.687012,479.116272 1574.300781,478.441406 1560.993774,478.568176 
	C1560.993774,474.221588 1560.993774,470.948273 1560.993774,467.674957 
	C1560.993652,447.021454 1561.286377,426.361572 1560.834229,405.717957 
	C1560.676758,398.532593 1559.566772,391.102509 1557.374512,384.271118 
	C1544.873291,345.315277 1531.909790,306.507874 1519.121216,267.644135 
	C1518.402710,265.460297 1517.842407,263.224396 1516.962402,260.153564 
	C1529.275391,260.153564 1541.030518,260.153564 1554.119873,260.153564 
	C1562.623413,287.287140 1571.329956,315.068451 1580.036499,342.849792 
	C1580.604126,342.905823 1581.171753,342.961884 1581.739380,343.017944 
	C1590.030518,315.364807 1598.321777,287.711639 1606.652588,259.926147 
	C1619.085449,259.926147 1630.947266,259.926147 1643.445312,259.926147 
	C1642.408936,263.419739 1641.634766,266.273651 1640.718506,269.081207 
	C1628.130371,307.658142 1615.378174,346.182678 1603.060303,384.845642 
	C1600.984985,391.359467 1600.764282,398.464203 1599.686646,406.261566 
z"/>
<path fill="#FEFBFC" opacity="1.000000" stroke="none" 
	d="
M1438.585327,435.999146 
	C1438.585327,386.772614 1438.585327,338.545898 1438.585327,289.277954 
	C1426.346558,289.277954 1414.858643,289.277954 1402.696533,289.277954 
	C1402.696533,279.132416 1402.696533,269.999268 1402.696533,260.124603 
	C1439.544556,260.124603 1476.585083,260.124603 1513.897705,260.124603 
	C1513.897705,269.604675 1513.897705,278.817627 1513.897705,288.788452 
	C1502.552734,288.788452 1491.645630,288.788452 1479.425415,288.788452 
	C1478.543091,320.969666 1479.136719,352.442352 1479.027954,383.899200 
	C1478.919922,415.122131 1479.004150,446.345734 1479.004150,478.083496 
	C1465.266602,478.083496 1452.445923,478.083496 1438.585327,478.083496 
	C1438.585327,464.110077 1438.585327,450.554535 1438.585327,435.999146 
z"/>
<path fill="#FEFCFC" opacity="1.000000" stroke="none" 
	d="
M1478.250610,647.411377 
	C1473.694336,647.411377 1470.097778,647.411377 1465.968018,647.411377 
	C1465.968018,637.243042 1465.968018,628.069458 1465.968018,618.271851 
	C1502.858887,618.271851 1539.686768,618.271851 1577.179688,618.271851 
	C1577.179688,627.427368 1577.179688,636.603516 1577.179688,647.141357 
	C1565.981323,647.141357 1554.541260,647.141357 1542.230957,647.141357 
	C1542.230957,710.978027 1542.230957,773.476074 1542.230957,836.425781 
	C1528.453491,836.425781 1515.607788,836.425781 1501.853394,836.425781 
	C1501.853394,773.361572 1501.853394,710.858154 1501.853394,647.411377 
	C1493.717163,647.411377 1486.463745,647.411377 1478.250610,647.411377 
z"/>
<path fill="#FFFDFD" opacity="1.000000" stroke="none" 
	d="
M1324.593018,458.472107 
	C1324.594238,465.368439 1324.594238,471.320984 1324.594238,477.926208 
	C1293.804077,477.926208 1263.636230,477.926208 1232.731934,477.926208 
	C1232.731934,405.662506 1232.731934,333.225403 1232.731934,259.405396 
	C1239.185059,259.405396 1245.715088,259.405396 1252.244995,259.405396 
	C1258.513794,259.405396 1264.782593,259.405396 1272.022827,259.405396 
	C1272.022827,323.332062 1272.022827,386.480286 1272.022827,450.750641 
	C1289.787842,450.750641 1306.604492,450.750641 1323.731934,450.750641 
	C1324.109131,453.723907 1324.350342,455.626129 1324.593018,458.472107 
z"/>
<path fill="#FEFAFB" opacity="1.000000" stroke="none" 
	d="
M1371.568604,478.614807 
	C1362.675659,478.614777 1354.716064,478.614777 1346.205078,478.614777 
	C1346.205078,405.477539 1346.205078,333.034973 1346.205078,259.988770 
	C1359.054565,259.988770 1371.824219,259.988770 1385.009521,259.988770 
	C1385.009521,332.670837 1385.009521,404.847626 1385.009521,478.384827 
	C1380.834351,478.461609 1376.668213,478.538239 1371.568604,478.614807 
z"/>
<path fill="#FEFAFB" opacity="1.000000" stroke="none" 
	d="
M1634.358398,795.999634 
	C1634.358398,809.952148 1634.358398,822.904846 1634.358398,836.426147 
	C1621.155762,836.426147 1608.648682,836.426147 1596.182861,836.426147 
	C1594.155518,829.054504 1593.363281,638.533752 1595.335205,618.128723 
	C1607.909912,617.203064 1620.631470,617.654358 1634.358398,617.922852 
	C1634.358398,677.345703 1634.358398,736.172729 1634.358398,795.999634 
z"/>
<path fill="#C90526" opacity="1.000000" stroke="none" 
	d="
M401.850189,564.000000 
	C401.850189,580.946777 401.850189,596.893494 401.850189,614.306274 
	C372.948761,614.390869 344.601654,614.334778 314.864990,614.348022 
	C343.526703,534.193726 371.689850,455.433685 399.852997,376.673615 
	C400.518738,376.771301 401.184448,376.868958 401.850189,376.966614 
	C401.850189,438.977753 401.850189,500.988861 401.850189,564.000000 
z"/>
<path fill="#C90425" opacity="1.000000" stroke="none" 
	d="
M843.771973,450.770081 
	C835.369629,448.618134 831.141846,443.459869 829.777649,435.972687 
	C828.890137,431.101898 828.097473,426.129028 828.077271,421.198578 
	C827.933838,386.290741 827.888977,351.381348 828.110840,316.474335 
	C828.148315,310.576752 828.924377,304.480072 830.600037,298.844330 
	C833.141541,290.296539 839.814087,286.486725 850.013184,286.354004 
	C860.092224,286.222809 866.989807,289.953094 869.820068,298.261749 
	C871.501282,303.197021 872.430481,308.630157 872.461670,313.846863 
	C872.680664,350.416229 872.581055,386.987518 872.565247,423.558197 
	C872.564514,425.217438 872.426941,426.879700 872.290222,428.535339 
	C870.816589,446.379547 862.794434,452.868500 843.771973,450.770081 
z"/>
<path fill="#CA092A" opacity="1.000000" stroke="none" 
	d="
M981.962524,658.880249 
	C982.914246,665.918701 984.206665,672.172668 984.248413,678.434937 
	C984.459229,710.096191 984.450989,741.760315 984.257629,773.421753 
	C984.217224,780.031494 983.606567,786.742371 982.301636,793.213623 
	C980.620422,801.550415 974.959961,806.791382 966.485596,807.661011 
	C959.672668,808.360046 952.730835,807.802429 945.592163,807.802429 
	C945.592163,753.969238 945.592163,700.465637 945.592163,646.179565 
	C959.206238,647.047546 973.405640,643.205383 981.962524,658.880249 
z"/>
<path fill="#C90728" opacity="1.000000" stroke="none" 
	d="
M1742.163086,804.172607 
	C1736.805176,808.893250 1731.114136,810.191284 1724.916992,809.890991 
	C1714.305420,809.376831 1708.334229,804.784546 1705.820923,794.339539 
	C1704.667847,789.547302 1704.076782,784.505554 1704.056030,779.573547 
	C1703.910522,744.651123 1703.865112,709.727112 1704.090942,674.805542 
	C1704.129028,668.907898 1704.943970,662.815857 1706.617188,657.174744 
	C1709.156738,648.613281 1715.759766,644.837219 1726.025146,644.685425 
	C1736.151978,644.535767 1742.843994,648.270813 1745.879272,656.583801 
	C1747.334351,660.568970 1748.330566,664.972107 1748.351318,669.191772 
	C1748.541016,707.759827 1748.520508,746.329224 1748.428223,784.897949 
	C1748.412109,791.622498 1747.070923,798.129517 1742.163086,804.172607 
z"/>
<path fill="#CB0E2E" opacity="1.000000" stroke="none" 
	d="
M1150.117554,331.913879 
	C1153.898560,355.310577 1157.592285,377.870697 1161.401001,401.132568 
	C1151.413574,401.132568 1142.308594,401.132568 1132.456787,401.132568 
	C1137.088257,372.729492 1141.617432,344.954254 1146.146606,317.178986 
	C1146.591553,317.164825 1147.036499,317.150696 1147.481445,317.136536 
	C1148.331055,321.783478 1149.180664,326.430389 1150.117554,331.913879 
z"/>
<path fill="#CB0E2E" opacity="1.000000" stroke="none" 
	d="
M1393.341187,760.045166 
	C1388.005005,759.921082 1389.238037,756.834839 1389.625244,754.356201 
	C1391.985352,739.248962 1394.367432,724.144958 1396.821167,709.052673 
	C1398.628296,697.936951 1400.555786,686.840820 1403.902466,675.664429 
	C1408.458130,703.409485 1413.013794,731.154602 1417.759766,760.058472 
	C1409.362183,760.058472 1401.781372,760.058472 1393.341187,760.045166 
z"/>
</svg>