<svg version="1.1" id="Layer_1" xmlns="http://www.w3.org/2000/svg" xmlns:xlink="http://www.w3.org/1999/xlink" x="0px" y="0px"
	 width="100%" viewBox="0 0 3000 3000" enable-background="new 0 0 3000 3000" xml:space="preserve">
<path fill="#FF1B10" opacity="1.000000" stroke="none" 
	d="
M2.000000,1058.000000 
	C2.000000,705.333374 2.000000,353.666779 2.000000,2.000142 
	C1001.999756,2.000094 2001.999512,2.000094 3001.999512,2.000047 
	C3001.999512,1001.999573 3001.999512,2001.999146 3001.999756,3001.999023 
	C2002.000610,3001.999512 1002.001221,3001.999512 2.000899,3001.999756 
	C2.000000,2354.333252 2.000000,1706.666626 2.000000,1058.000000 
M1630.349121,618.949585 
	C1626.820312,618.506409 1623.292847,617.689514 1619.762573,617.678345 
	C1588.132568,617.578369 1556.502197,617.602234 1524.871826,617.651184 
	C1522.034546,617.655579 1519.198120,618.092346 1516.604858,618.308044 
	C1516.604858,628.267334 1516.604858,637.427734 1516.604858,647.582031 
	C1528.716675,647.582031 1540.208496,647.582031 1552.598755,647.582031 
	C1552.598755,711.018372 1552.598755,773.441772 1552.598755,836.464722 
	C1566.330933,836.464722 1579.118408,836.464722 1593.090576,836.464722 
	C1593.090576,804.788635 1593.072510,773.594238 1593.095581,742.399902 
	C1593.118896,710.948303 1592.991211,679.493530 1593.181885,647.403809 
	C1605.553223,647.403809 1616.455933,647.403809 1628.384155,647.403809 
	C1628.384155,643.166626 1628.355225,639.569031 1628.391602,635.972168 
	C1628.435303,631.647156 1628.390381,627.309998 1628.767090,623.011780 
	C1628.822876,622.375183 1630.982666,621.923096 1632.188354,622.964233 
	C1645.808105,664.327026 1659.499390,705.666565 1672.948120,747.084961 
	C1674.458252,751.735413 1675.208862,756.825195 1675.262939,761.722778 
	C1675.505493,783.692322 1675.349121,805.666077 1675.392212,827.638184 
	C1675.397949,830.534912 1675.722534,833.430969 1675.901367,836.359375 
	C1688.759399,836.359375 1700.916992,836.359375 1713.686035,836.359375 
	C1713.686035,832.395386 1713.686035,829.100647 1713.686035,825.805969 
	C1713.686035,804.499573 1713.512939,783.190857 1713.804199,761.888428 
	C1713.880005,756.339050 1714.687378,750.579590 1716.379272,745.308228 
	C1727.147095,711.759277 1738.271240,678.324829 1749.243164,644.841309 
	C1752.100098,636.122925 1754.833740,627.364197 1757.791016,618.100769 
	C1744.839111,618.100769 1732.948364,618.100769 1720.770752,618.100769 
	C1712.400635,646.016052 1704.128662,673.603760 1695.856812,701.191528 
	C1695.256104,701.099426 1694.655518,701.007263 1694.054810,700.915161 
	C1685.359253,673.153625 1676.663696,645.392090 1668.246582,618.519531 
	C1655.189209,618.519531 1643.604370,618.519531 1630.349121,618.949585 
M1814.783081,1136.394043 
	C1814.319458,1138.978149 1813.457397,1141.561523 1813.451660,1144.146606 
	C1813.366333,1182.812866 1813.352783,1221.479492 1813.427246,1260.145630 
	C1813.443359,1268.538208 1814.394287,1269.355347 1822.445435,1269.656982 
	C1824.442749,1269.731934 1826.444946,1269.671143 1828.444946,1269.671143 
	C1870.777954,1269.671143 1913.111084,1269.660400 1955.444092,1269.693115 
	C1958.586792,1269.695557 1961.729126,1270.010376 1962.786987,1270.067505 
	C1908.766724,1324.088745 1854.274048,1378.582397 1799.657593,1433.199829 
	C1628.765869,1300.982910 1404.099976,1301.282715 1239.353760,1403.869873 
	C1076.554810,1505.244507 979.903137,1695.877441 1012.264343,1900.288452 
	C1027.119873,1994.123657 1066.415283,2076.946533 1129.561157,2147.901611 
	C1210.903931,2239.304199 1312.902710,2292.949707 1433.613892,2310.559814 
	C1435.572144,2324.771973 1434.947754,2446.517090 1432.821533,2453.998047 
	C1429.352051,2453.998047 1425.724365,2453.998047 1422.096680,2453.998047 
	C1380.763672,2453.997803 1339.430542,2453.989014 1298.097534,2454.001953 
	C1280.668091,2454.007324 1281.640869,2452.350098 1281.653564,2469.937500 
	C1281.677856,2503.604004 1281.660278,2537.270264 1281.660767,2570.936768 
	C1281.660889,2576.936768 1281.546143,2582.939453 1281.695190,2588.935791 
	C1281.887085,2596.652832 1282.680664,2597.368164 1290.411743,2597.657227 
	C1292.409058,2597.731934 1294.411377,2597.671387 1296.411377,2597.671387 
	C1338.744385,2597.671875 1381.077393,2597.671631 1423.410400,2597.671631 
	C1426.948242,2597.671631 1430.485962,2597.671631 1434.586792,2597.671631 
	C1434.586792,2602.599609 1434.586792,2606.222656 1434.586792,2609.845947 
	C1434.586792,2650.512451 1434.573364,2691.178711 1434.595337,2731.845215 
	C1434.601929,2743.955322 1434.647583,2743.990234 1447.003296,2743.995361 
	C1486.669678,2744.012451 1526.336182,2744.002197 1566.002563,2744.000000 
	C1568.002441,2744.000000 1570.003174,2744.010254 1572.001953,2743.957764 
	C1576.029785,2743.852051 1578.128174,2741.808350 1578.144409,2737.728271 
	C1578.153687,2735.395020 1578.174316,2733.061768 1578.174438,2730.728516 
	C1578.176392,2690.062256 1578.175903,2649.395752 1578.176025,2608.729492 
	C1578.176025,2605.205322 1578.176025,2601.681152 1578.176025,2597.671631 
	C1583.249390,2597.671631 1586.898071,2597.671631 1590.546753,2597.671631 
	C1632.879761,2597.671387 1675.212891,2597.671875 1717.545898,2597.670166 
	C1719.879150,2597.670166 1722.213013,2597.612549 1724.545410,2597.652100 
	C1729.182495,2597.730713 1731.142090,2595.146240 1731.345459,2590.848633 
	C1731.439941,2588.852539 1731.410278,2586.850098 1731.410400,2584.850342 
	C1731.413330,2545.517334 1731.412598,2506.184082 1731.411499,2466.851074 
	C1731.411499,2465.184326 1731.494873,2463.511230 1731.377686,2461.852295 
	C1730.920166,2455.375977 1729.950806,2454.375977 1723.677734,2454.029541 
	C1721.351318,2453.901123 1719.012207,2453.998535 1716.678955,2453.998535 
	C1674.345947,2453.997559 1632.012817,2453.997803 1589.679810,2453.997803 
	C1586.119751,2453.997803 1582.559692,2453.997803 1578.804199,2453.997803 
	C1578.804199,2404.648682 1578.804199,2356.520020 1578.804199,2309.120117 
	C1753.835571,2272.809082 1879.524902,2175.869141 1952.331177,2012.323242 
	C2018.021973,1845.775757 1998.720825,1688.304688 1903.014038,1541.019287 
	C1956.920654,1487.115601 2010.485962,1433.553223 2063.992920,1380.049194 
	C2063.992920,1381.540527 2063.992920,1384.079590 2063.992920,1386.618774 
	C2063.992920,1427.285156 2063.977051,1467.951538 2064.002930,1508.617920 
	C2064.010254,1520.102295 2064.083984,1520.157471 2075.846680,1520.165894 
	C2106.513184,1520.187866 2137.179443,1520.174683 2167.845947,1520.172852 
	C2175.845947,1520.172363 2183.846436,1520.090576 2191.845459,1520.184570 
	C2196.387207,1520.238037 2198.696289,1518.285400 2198.590088,1513.651367 
	C2198.544189,1511.652832 2198.609131,1509.651733 2198.609131,1507.651855 
	C2198.610596,1387.652710 2198.613037,1267.653564 2198.606689,1147.654419 
	C2198.605957,1134.611938 2198.582520,1134.591064 2185.233887,1134.590454 
	C2065.901367,1134.584839 1946.568848,1134.579590 1827.236328,1134.621948 
	C1823.607788,1134.623291 1819.979370,1135.145874 1814.783081,1136.394043 
M347.907166,667.253662 
	C313.394684,666.741699 278.891907,667.059448 243.858215,667.006409 
	C243.559799,699.582703 246.026779,730.369019 254.985046,760.297791 
	C266.968353,800.333008 293.626099,825.596802 333.947540,836.116821 
	C367.039185,844.750549 400.603363,844.731262 434.103424,839.094482 
	C460.021942,834.733398 482.868866,823.846313 501.261414,804.410828 
	C519.977905,784.632935 530.445190,760.808899 535.738647,734.570312 
	C546.101990,683.201233 547.710205,631.378540 541.542847,579.424500 
	C538.466125,553.505676 531.512207,528.507324 518.626038,505.458252 
	C498.966614,470.294128 468.788971,452.654968 428.793915,452.275513 
	C397.681427,451.980316 368.094208,458.013824 341.144623,478.513428 
	C343.251221,436.209656 345.278625,395.496765 347.355316,353.794006 
	C405.837708,353.794006 463.324890,353.794006 521.039246,353.794006 
	C521.039246,321.949524 521.039246,291.150543 521.039246,260.215027 
	C432.892731,260.215027 345.381378,260.215027 257.064545,260.215027 
	C254.495178,368.825653 251.938492,476.901154 249.372208,585.381409 
	C281.646027,585.381409 312.496185,585.381409 343.509155,585.381409 
	C344.505951,581.801147 345.006897,578.425781 346.361328,575.437134 
	C350.187103,566.995361 353.340424,557.989685 358.618439,550.520386 
	C368.896088,535.975708 384.203400,532.073242 401.165253,534.581970 
	C417.691559,537.026245 428.533539,546.864258 432.509094,562.893311 
	C435.859955,576.403564 438.507751,590.224976 439.863251,604.065674 
	C442.956726,635.651794 441.277100,667.331055 439.621216,698.945129 
	C438.871094,713.266663 436.753601,727.400879 430.231842,740.561584 
	C422.361725,756.443359 409.023346,761.664062 392.347015,760.927917 
	C375.564056,760.187012 363.604553,752.241394 358.527710,736.169373 
	C355.343445,726.088745 353.453705,715.478943 352.130432,704.962219 
	C350.597046,692.775757 350.321442,680.431030 347.907166,667.253662 
M901.364197,756.876953 
	C901.365601,761.540283 901.380981,766.203613 901.365601,770.866882 
	C901.327942,782.269104 902.661926,793.481018 906.471680,804.271912 
	C913.281677,823.560608 926.654907,835.195984 947.049561,838.210388 
	C954.265564,839.276917 961.562317,839.796936 969.127502,840.598816 
	C980.709656,855.898376 992.765808,871.148621 1011.203430,881.238647 
	C1013.908386,871.207458 1016.222290,862.626709 1018.487000,854.227966 
	C1011.152222,847.197144 1003.105103,841.799622 998.747803,833.076843 
	C1015.041931,821.651489 1022.464111,810.654236 1025.639893,792.239868 
	C1026.935791,784.725647 1027.691650,777.029236 1027.757202,769.407715 
	C1028.000366,741.095886 1028.003662,712.779358 1027.754883,684.467590 
	C1027.687866,676.847473 1026.970947,669.134277 1025.586304,661.642395 
	C1020.831848,635.917847 1006.548523,620.959229 982.526245,616.584229 
	C970.330933,614.363159 957.945129,614.466858 945.735291,616.669739 
	C922.851318,620.798401 909.214539,634.978516 904.277039,657.233704 
	C902.277405,666.246582 901.641907,675.692627 901.491577,684.959534 
	C901.113464,708.270813 901.365051,731.592285 901.364197,756.876953 
M1462.567749,396.999695 
	C1462.567749,423.875610 1462.567749,450.751526 1462.567749,478.041626 
	C1476.364014,478.041626 1489.150513,478.041626 1502.632690,478.041626 
	C1502.632690,466.541473 1502.632690,455.608398 1502.632690,444.675354 
	C1502.632690,433.686737 1502.528564,422.696838 1502.662354,411.709869 
	C1502.794067,400.886932 1502.055542,390.007019 1503.210938,378.993164 
	C1509.292969,378.993164 1514.203125,378.993164 1520.237183,378.993164 
	C1528.942383,412.016663 1537.635010,444.992004 1546.258301,477.704773 
	C1559.976562,479.493713 1579.497559,479.012543 1586.259766,476.720673 
	C1576.419922,441.619324 1566.574097,406.496857 1556.590332,370.881989 
	C1571.939575,363.878632 1579.504883,351.556702 1581.246094,336.254364 
	C1582.552490,324.775665 1582.805786,312.883545 1581.356567,301.450714 
	C1578.916992,282.207153 1567.504639,269.349030 1548.716675,263.893036 
	C1541.745605,261.868713 1534.422729,260.251984 1527.209717,260.019104 
	C1507.250122,259.374573 1487.264038,259.544250 1467.288086,259.442108 
	C1466.016479,259.435608 1464.742798,259.856415 1462.567749,260.235870 
	C1462.567749,305.272461 1462.567749,350.136078 1462.567749,396.999695 
M1199.984985,454.968597 
	C1199.984985,462.536163 1199.984985,470.103760 1199.984985,479.153015 
	C1225.242065,478.533936 1249.598511,479.545258 1273.556274,476.919128 
	C1300.054688,474.014465 1313.462280,459.471100 1318.367798,433.283142 
	C1319.828003,425.487732 1320.447388,417.437866 1320.517212,409.496368 
	C1320.766235,381.207977 1320.641968,352.915985 1320.581543,324.625519 
	C1320.571411,319.972382 1320.336670,315.305450 1319.925049,310.669800 
	C1317.376709,281.971405 1303.576538,266.661407 1275.336060,261.183136 
	C1272.082397,260.551971 1268.757202,259.986115 1265.458008,259.943939 
	C1245.161255,259.684418 1224.862549,259.571930 1204.564087,259.460449 
	C1203.322876,259.453644 1202.079346,259.873688 1199.984985,260.246948 
	C1199.984985,324.675812 1199.984985,388.827911 1199.984985,454.968597 
M902.318970,367.372559 
	C885.720215,367.372559 869.121460,367.372559 852.529785,367.372559 
	C852.529785,376.456329 852.529785,384.584381 852.529785,393.658325 
	C860.409180,393.658325 867.588928,393.658325 875.171631,393.658325 
	C876.119019,407.217529 876.018982,419.768097 873.522278,432.214355 
	C873.004639,434.794617 872.010559,437.335388 870.881165,439.726776 
	C866.914734,448.125427 859.627014,452.142090 849.684814,451.623932 
	C839.526123,451.094482 833.081543,446.666687 830.648804,437.017822 
	C828.957642,430.310333 828.043518,423.236725 827.986023,416.316681 
	C827.717468,384.009186 827.771362,351.697693 827.954224,319.389008 
	C827.987915,313.446442 828.535034,307.361603 829.925659,301.603394 
	C832.493042,290.972382 840.179077,285.900208 851.442383,286.398743 
	C862.661011,286.895294 868.657837,291.675110 870.726501,302.769135 
	C871.754089,308.280029 871.688904,314.008209 871.938171,319.646057 
	C872.109375,323.519073 871.971008,327.405792 871.971008,331.406067 
	C885.387878,331.406067 897.518433,331.406067 909.969910,331.406067 
	C910.774048,318.496796 910.743042,306.252869 907.503418,294.237854 
	C902.368103,275.192413 890.557617,262.865204 870.916382,258.855316 
	C856.051453,255.820541 841.184387,255.684280 826.384033,259.558319 
	C811.930847,263.341461 801.621887,271.948822 795.350769,285.521271 
	C790.819397,295.328491 788.093933,305.641449 787.918274,316.366241 
	C787.405762,347.662323 786.850464,378.970978 787.265625,410.262024 
	C787.414062,421.445709 789.200134,432.889343 792.133057,443.700378 
	C800.179993,473.362244 822.742615,484.218536 852.885681,481.204834 
	C863.637207,480.129913 872.341492,474.729065 878.345032,465.431061 
	C879.305664,463.943329 880.598633,462.670227 882.756287,460.071320 
	C883.933838,467.282257 884.858154,472.942535 885.649780,477.790222 
	C895.234131,477.790222 903.349304,477.790222 911.424194,477.790222 
	C911.424194,440.737671 911.424194,404.524475 911.424194,367.996613 
	C908.731873,367.765869 906.442932,367.569702 902.318970,367.372559 
M1089.248047,275.640381 
	C1086.844604,270.246277 1084.441040,264.852203 1082.008789,259.393311 
	C1076.871460,259.393311 1072.557739,259.341522 1068.245850,259.407532 
	C1063.735962,259.476532 1059.227783,259.658813 1054.908203,259.785980 
	C1052.909790,280.946960 1053.713623,470.983124 1055.741211,478.140625 
	C1066.263672,478.140625 1076.805176,478.140625 1088.345337,478.140625 
	C1088.345337,467.466736 1088.345337,457.232941 1088.345337,446.999176 
	C1088.345337,436.675232 1088.345337,426.351318 1088.345337,416.027374 
	C1088.345337,405.370422 1088.190674,394.710541 1088.390381,384.057343 
	C1088.576660,374.112762 1087.542603,364.090118 1089.756958,354.098938 
	C1099.083740,374.530273 1107.608276,395.070099 1116.153320,415.601410 
	C1124.831543,436.452515 1133.529785,457.295258 1142.412964,478.606720 
	C1147.079468,478.606720 1151.377563,478.631042 1155.675537,478.599854 
	C1159.846191,478.569611 1164.016724,478.482361 1168.028687,478.422516 
	C1170.016479,451.870850 1169.119629,267.349823 1167.089722,259.929749 
	C1156.885010,259.929749 1146.703247,259.929749 1135.660400,259.929749 
	C1135.660400,299.494476 1135.660400,338.536011 1135.660400,377.577576 
	C1134.959717,377.755066 1134.259033,377.932587 1133.558350,378.110077 
	C1118.992065,344.423462 1104.425659,310.736847 1089.248047,275.640381 
M1138.148071,705.000000 
	C1138.099365,728.651917 1138.199219,752.305725 1137.898071,775.954407 
	C1137.822388,781.888855 1136.971436,787.930603 1135.575806,793.705261 
	C1133.140869,803.780701 1126.103760,809.271729 1116.407227,809.634705 
	C1106.290283,810.013489 1098.243652,804.745667 1095.865845,794.390869 
	C1093.873901,785.717773 1092.823364,776.645874 1092.766846,767.741577 
	C1092.472900,721.437134 1092.630859,675.129822 1092.631348,628.823547 
	C1092.631348,625.301025 1092.631348,621.778503 1092.631348,618.144409 
	C1079.138550,618.144409 1066.946167,618.144409 1054.107300,618.144409 
	C1053.996094,620.480347 1053.824097,622.413696 1053.823608,624.347046 
	C1053.811646,672.985291 1053.717773,721.623901 1053.920898,770.261292 
	C1053.954102,778.211121 1054.772339,786.250977 1056.159790,794.084106 
	C1060.073975,816.185425 1071.180786,832.394897 1094.386108,837.583130 
	C1106.170654,840.217896 1118.094238,840.760132 1130.106201,838.721802 
	C1155.514282,834.410217 1168.763916,822.544739 1173.860718,797.513367 
	C1176.103882,786.496338 1177.182739,775.069824 1177.273438,763.817078 
	C1177.644165,717.846924 1177.439453,671.872009 1177.402100,625.898865 
	C1177.400024,623.342590 1176.995117,620.786682 1176.793335,618.415649 
	C1163.603760,618.415649 1151.143188,618.415649 1138.148071,618.415649 
	C1138.148071,647.118652 1138.148071,675.059326 1138.148071,705.000000 
M1294.138916,678.697754 
	C1290.048706,658.542969 1285.958496,638.388245 1281.831787,618.054321 
	C1267.504395,618.054321 1253.935547,618.054321 1239.751465,618.054321 
	C1224.958496,690.893677 1210.220581,763.462463 1195.281616,837.020996 
	C1208.974731,836.859497 1221.111816,837.404053 1233.205688,836.693176 
	C1236.405273,819.212341 1239.380493,802.957153 1242.380127,786.569275 
	C1255.216309,786.569275 1267.123779,786.569275 1279.784668,786.569275 
	C1282.822388,803.326172 1285.820312,819.862732 1288.828613,836.457520 
	C1301.496704,836.457520 1313.329712,836.457520 1326.181030,836.457520 
	C1315.487549,783.931152 1304.946289,732.151855 1294.138916,678.697754 
M1387.003662,259.375427 
	C1374.397705,259.375427 1361.791748,259.375427 1348.763184,259.375427 
	C1348.763184,332.777039 1348.763184,405.227509 1348.763184,478.033447 
	C1379.715210,478.033447 1410.211792,478.033447 1440.820068,478.033447 
	C1440.820068,468.949677 1440.820068,460.463531 1440.820068,450.963623 
	C1431.639160,450.963623 1423.041016,451.134766 1414.452881,450.915131 
	C1405.990601,450.698639 1397.397339,451.930511 1388.687134,449.988007 
	C1388.630981,425.865509 1388.575806,402.708282 1388.708862,378.332458 
	C1403.224854,378.332458 1416.324219,378.332458 1428.989990,378.332458 
	C1428.989990,368.285065 1428.989990,359.494110 1428.989990,350.010712 
	C1415.225830,350.010712 1402.318726,350.010712 1389.141968,350.010712 
	C1389.141968,329.095490 1389.141968,308.936829 1389.141968,287.543823 
	C1406.392334,287.543823 1423.172974,287.543823 1439.624512,287.543823 
	C1439.624512,277.500427 1439.624512,268.710846 1439.624512,259.375488 
	C1422.265991,259.375488 1405.634399,259.375488 1387.003662,259.375427 
M790.304871,724.999878 
	C790.304871,761.937012 790.304871,798.874084 790.304871,836.415527 
	C821.567017,836.415527 852.035828,836.415527 882.919922,836.415527 
	C882.919922,827.306030 882.919922,818.827393 882.919922,809.268921 
	C865.587952,809.268921 848.745667,809.268921 830.615601,809.268921 
	C830.818176,784.838257 830.203308,761.491699 831.108887,737.247437 
	C845.072021,737.247437 857.947266,737.247437 870.632568,737.247437 
	C872.506836,726.379150 872.306641,716.373108 869.992737,708.338501 
	C857.377075,708.338501 844.493469,708.338501 831.164062,708.338501 
	C831.164062,687.307373 831.164062,667.158691 831.164062,645.842957 
	C848.430908,645.842957 865.213806,645.842957 881.976807,645.842957 
	C881.976807,635.855225 881.976807,627.044861 881.976807,617.635132 
	C851.176147,617.671692 821.046021,617.583496 790.304871,617.690857 
	C790.304871,653.765686 790.304871,688.382751 790.304871,724.999878 
M940.151489,410.999969 
	C940.151489,433.241028 940.151489,455.482117 940.151489,477.936829 
	C971.543396,477.936829 1002.012329,477.936829 1032.333984,477.936829 
	C1032.333984,468.749451 1032.333984,460.253876 1032.333984,450.681824 
	C1014.833923,450.681824 998.015991,450.681824 980.391235,450.681824 
	C980.398132,426.177795 980.166077,402.775818 980.549377,378.222229 
	C995.051941,378.222229 1008.180420,378.222229 1021.158936,378.222229 
	C1021.158936,368.492981 1021.158936,359.941986 1021.158936,350.310181 
	C1007.533142,350.310181 994.391052,350.310181 980.900391,350.310181 
	C980.900391,329.074585 980.900391,308.939697 980.900391,287.577881 
	C998.196228,287.577881 1014.976501,287.577881 1031.468750,287.577881 
	C1031.468750,277.540833 1031.468750,268.750793 1031.468750,259.843842 
	C1000.844910,259.843842 970.941895,259.843842 940.151489,259.843842 
	C940.151489,309.865784 940.151489,359.432861 940.151489,410.999969 
M1412.961914,837.019043 
	C1421.221313,837.019043 1429.480591,837.019043 1438.121338,837.019043 
	C1438.121338,827.430054 1438.121338,818.920105 1438.121338,809.341919 
	C1420.838623,809.341919 1404.025513,809.341919 1385.996094,809.341919 
	C1385.996094,744.894775 1385.996094,681.505066 1385.996094,618.172485 
	C1372.208618,618.172485 1359.672729,618.172485 1346.683105,618.172485 
	C1346.683105,691.122437 1346.683105,763.556885 1346.683105,837.018982 
	C1368.453491,837.018982 1389.712646,837.018982 1412.961914,837.019043 
M1482.828857,837.044556 
	C1488.063965,837.044556 1493.298950,837.044556 1498.872070,837.044556 
	C1498.872070,763.364319 1498.872070,690.949219 1498.872070,618.380005 
	C1485.542114,618.380005 1472.792969,618.380005 1460.352783,618.380005 
	C1460.352783,691.521851 1460.352783,763.922302 1460.352783,837.044373 
	C1467.670898,837.044373 1474.291504,837.044373 1482.828857,837.044556 
z"/>
<path fill="#FFFEFE" opacity="1.000000" stroke="none" 
	d="
M1815.567017,1135.909790 
	C1819.979370,1135.145874 1823.607788,1134.623291 1827.236328,1134.621948 
	C1946.568848,1134.579590 2065.901367,1134.584839 2185.233887,1134.590454 
	C2198.582520,1134.591064 2198.605957,1134.611938 2198.606689,1147.654419 
	C2198.613037,1267.653564 2198.610596,1387.652710 2198.609131,1507.651855 
	C2198.609131,1509.651733 2198.544189,1511.652832 2198.590088,1513.651367 
	C2198.696289,1518.285400 2196.387207,1520.238037 2191.845459,1520.184570 
	C2183.846436,1520.090576 2175.845947,1520.172363 2167.845947,1520.172852 
	C2137.179443,1520.174683 2106.513184,1520.187866 2075.846680,1520.165894 
	C2064.083984,1520.157471 2064.010254,1520.102295 2064.002930,1508.617920 
	C2063.977051,1467.951538 2063.992920,1427.285156 2063.992920,1386.618774 
	C2063.992920,1384.079590 2063.992920,1381.540527 2063.992920,1380.049194 
	C2010.485962,1433.553223 1956.920654,1487.115601 1903.014038,1541.019287 
	C1998.720825,1688.304688 2018.021973,1845.775757 1952.331177,2012.323242 
	C1879.524902,2175.869141 1753.835571,2272.809082 1578.804199,2309.120117 
	C1578.804199,2356.520020 1578.804199,2404.648682 1578.804199,2453.997803 
	C1582.559692,2453.997803 1586.119751,2453.997803 1589.679810,2453.997803 
	C1632.012817,2453.997803 1674.345947,2453.997559 1716.678955,2453.998535 
	C1719.012207,2453.998535 1721.351318,2453.901123 1723.677734,2454.029541 
	C1729.950806,2454.375977 1730.920166,2455.375977 1731.377686,2461.852295 
	C1731.494873,2463.511230 1731.411499,2465.184326 1731.411499,2466.851074 
	C1731.412598,2506.184082 1731.413330,2545.517334 1731.410400,2584.850342 
	C1731.410278,2586.850098 1731.439941,2588.852539 1731.345459,2590.848633 
	C1731.142090,2595.146240 1729.182495,2597.730713 1724.545410,2597.652100 
	C1722.213013,2597.612549 1719.879150,2597.670166 1717.545898,2597.670166 
	C1675.212891,2597.671875 1632.879761,2597.671387 1590.546753,2597.671631 
	C1586.898071,2597.671631 1583.249390,2597.671631 1578.176025,2597.671631 
	C1578.176025,2601.681152 1578.176025,2605.205322 1578.176025,2608.729492 
	C1578.175903,2649.395752 1578.176392,2690.062256 1578.174438,2730.728516 
	C1578.174316,2733.061768 1578.153687,2735.395020 1578.144409,2737.728271 
	C1578.128174,2741.808350 1576.029785,2743.852051 1572.001953,2743.957764 
	C1570.003174,2744.010254 1568.002441,2744.000000 1566.002563,2744.000000 
	C1526.336182,2744.002197 1486.669678,2744.012451 1447.003296,2743.995361 
	C1434.647583,2743.990234 1434.601929,2743.955322 1434.595337,2731.845215 
	C1434.573364,2691.178711 1434.586792,2650.512451 1434.586792,2609.845947 
	C1434.586792,2606.222656 1434.586792,2602.599609 1434.586792,2597.671631 
	C1430.485962,2597.671631 1426.948242,2597.671631 1423.410400,2597.671631 
	C1381.077393,2597.671631 1338.744385,2597.671875 1296.411377,2597.671387 
	C1294.411377,2597.671387 1292.409058,2597.731934 1290.411743,2597.657227 
	C1282.680664,2597.368164 1281.887085,2596.652832 1281.695190,2588.935791 
	C1281.546143,2582.939453 1281.660889,2576.936768 1281.660767,2570.936768 
	C1281.660278,2537.270264 1281.677856,2503.604004 1281.653564,2469.937500 
	C1281.640869,2452.350098 1280.668091,2454.007324 1298.097534,2454.001953 
	C1339.430542,2453.989014 1380.763672,2453.997803 1422.096680,2453.998047 
	C1425.724365,2453.998047 1429.352051,2453.998047 1432.821533,2453.998047 
	C1434.947754,2446.517090 1435.572144,2324.771973 1433.613892,2310.559814 
	C1312.902710,2292.949707 1210.903931,2239.304199 1129.561157,2147.901611 
	C1066.415283,2076.946533 1027.119873,1994.123657 1012.264343,1900.288452 
	C979.903137,1695.877441 1076.554810,1505.244507 1239.353760,1403.869873 
	C1404.099976,1301.282715 1628.765869,1300.982910 1799.657593,1433.199829 
	C1854.274048,1378.582397 1908.766724,1324.088745 1962.786987,1270.067505 
	C1961.729126,1270.010376 1958.586792,1269.695557 1955.444092,1269.693115 
	C1913.111084,1269.660400 1870.777954,1269.671143 1828.444946,1269.671143 
	C1826.444946,1269.671143 1824.442749,1269.731934 1822.445435,1269.656982 
	C1814.394287,1269.355347 1813.443359,1268.538208 1813.427246,1260.145630 
	C1813.352783,1221.479492 1813.366333,1182.812866 1813.451660,1144.146606 
	C1813.457397,1141.561523 1814.319458,1138.978149 1815.567017,1135.909790 
M1824.143799,1664.839355 
	C1822.803589,1662.159180 1821.483521,1659.468872 1820.120483,1656.800415 
	C1743.768311,1507.304932 1571.541504,1429.663574 1409.188721,1471.545044 
	C1216.939453,1521.138672 1100.508057,1713.208008 1146.215210,1906.562866 
	C1181.478271,2055.736328 1310.442627,2171.651855 1472.210938,2183.569580 
	C1533.818970,2188.108154 1593.552002,2178.489502 1649.122803,2151.250000 
	C1775.405396,2089.349854 1846.302490,1987.778687 1859.272705,1847.603882 
	C1865.123779,1784.369995 1852.403076,1723.604004 1824.143799,1664.839355 
z"/>
<path fill="#FFFEFD" opacity="1.000000" stroke="none" 
	d="
M348.703491,667.704346 
	C350.321442,680.431030 350.597046,692.775757 352.130432,704.962219 
	C353.453705,715.478943 355.343445,726.088745 358.527710,736.169373 
	C363.604553,752.241394 375.564056,760.187012 392.347015,760.927917 
	C409.023346,761.664062 422.361725,756.443359 430.231842,740.561584 
	C436.753601,727.400879 438.871094,713.266663 439.621216,698.945129 
	C441.277100,667.331055 442.956726,635.651794 439.863251,604.065674 
	C438.507751,590.224976 435.859955,576.403564 432.509094,562.893311 
	C428.533539,546.864258 417.691559,537.026245 401.165253,534.581970 
	C384.203400,532.073242 368.896088,535.975708 358.618439,550.520386 
	C353.340424,557.989685 350.187103,566.995361 346.361328,575.437134 
	C345.006897,578.425781 344.505951,581.801147 343.509155,585.381409 
	C312.496185,585.381409 281.646027,585.381409 249.372208,585.381409 
	C251.938492,476.901154 254.495178,368.825653 257.064545,260.215027 
	C345.381378,260.215027 432.892731,260.215027 521.039246,260.215027 
	C521.039246,291.150543 521.039246,321.949524 521.039246,353.794006 
	C463.324890,353.794006 405.837708,353.794006 347.355316,353.794006 
	C345.278625,395.496765 343.251221,436.209656 341.144623,478.513428 
	C368.094208,458.013824 397.681427,451.980316 428.793915,452.275513 
	C468.788971,452.654968 498.966614,470.294128 518.626038,505.458252 
	C531.512207,528.507324 538.466125,553.505676 541.542847,579.424500 
	C547.710205,631.378540 546.101990,683.201233 535.738647,734.570312 
	C530.445190,760.808899 519.977905,784.632935 501.261414,804.410828 
	C482.868866,823.846313 460.021942,834.733398 434.103424,839.094482 
	C400.603363,844.731262 367.039185,844.750549 333.947540,836.116821 
	C293.626099,825.596802 266.968353,800.333008 254.985046,760.297791 
	C246.026779,730.369019 243.559799,699.582703 243.858215,667.006409 
	C278.891907,667.059448 313.394684,666.741699 348.703491,667.704346 
z"/>
<path fill="#FFFBFB" opacity="1.000000" stroke="none" 
	d="
M901.364258,755.893311 
	C901.365051,731.592285 901.113464,708.270813 901.491577,684.959534 
	C901.641907,675.692627 902.277405,666.246582 904.277039,657.233704 
	C909.214539,634.978516 922.851318,620.798401 945.735291,616.669739 
	C957.945129,614.466858 970.330933,614.363159 982.526245,616.584229 
	C1006.548523,620.959229 1020.831848,635.917847 1025.586304,661.642395 
	C1026.970947,669.134277 1027.687866,676.847473 1027.754883,684.467590 
	C1028.003662,712.779358 1028.000366,741.095886 1027.757202,769.407715 
	C1027.691650,777.029236 1026.935791,784.725647 1025.639893,792.239868 
	C1022.464111,810.654236 1015.041931,821.651489 998.747803,833.076843 
	C1003.105103,841.799622 1011.152222,847.197144 1018.487000,854.227966 
	C1016.222290,862.626709 1013.908386,871.207458 1011.203430,881.238647 
	C992.765808,871.148621 980.709656,855.898376 969.127502,840.598816 
	C961.562317,839.796936 954.265564,839.276917 947.049561,838.210388 
	C926.654907,835.195984 913.281677,823.560608 906.471680,804.271912 
	C902.661926,793.481018 901.327942,782.269104 901.365601,770.866882 
	C901.380981,766.203613 901.365601,761.540283 901.364258,755.893311 
M984.347107,657.542542 
	C979.077881,646.931702 972.857239,643.596741 961.070740,645.063721 
	C950.256104,646.409729 945.819031,650.518127 943.327820,662.120239 
	C942.496277,665.992676 942.086487,670.029602 942.075989,673.992859 
	C941.982666,709.306641 941.961243,744.621094 942.096130,779.934570 
	C942.113708,784.546936 942.708801,789.256470 943.773743,793.746094 
	C946.507385,805.270386 953.523071,810.298523 965.482361,809.887024 
	C976.708679,809.500732 983.448608,804.061890 985.529053,792.760498 
	C986.606995,786.904480 986.882324,780.836243 986.906372,774.861389 
	C987.033630,743.212463 987.084229,711.562073 986.873413,679.914062 
	C986.827148,672.975952 985.609924,666.045654 984.347107,657.542542 
z"/>
<path fill="#FFFBFB" opacity="1.000000" stroke="none" 
	d="
M1462.567749,395.999695 
	C1462.567749,350.136078 1462.567749,305.272461 1462.567749,260.235870 
	C1464.742798,259.856415 1466.016479,259.435608 1467.288086,259.442108 
	C1487.264038,259.544250 1507.250122,259.374573 1527.209717,260.019104 
	C1534.422729,260.251984 1541.745605,261.868713 1548.716675,263.893036 
	C1567.504639,269.349030 1578.916992,282.207153 1581.356567,301.450714 
	C1582.805786,312.883545 1582.552490,324.775665 1581.246094,336.254364 
	C1579.504883,351.556702 1571.939575,363.878632 1556.590332,370.881989 
	C1566.574097,406.496857 1576.419922,441.619324 1586.259766,476.720673 
	C1579.497559,479.012543 1559.976562,479.493713 1546.258301,477.704773 
	C1537.635010,444.992004 1528.942383,412.016663 1520.237183,378.993164 
	C1514.203125,378.993164 1509.292969,378.993164 1503.210938,378.993164 
	C1502.055542,390.007019 1502.794067,400.886932 1502.662354,411.709869 
	C1502.528564,422.696838 1502.632690,433.686737 1502.632690,444.675354 
	C1502.632690,455.608398 1502.632690,466.541473 1502.632690,478.041626 
	C1489.150513,478.041626 1476.364014,478.041626 1462.567749,478.041626 
	C1462.567749,450.751526 1462.567749,423.875610 1462.567749,395.999695 
M1530.813477,289.589935 
	C1521.848022,286.634552 1512.749023,286.332123 1503.305420,287.703918 
	C1503.305420,309.571259 1503.305420,330.917358 1503.305420,353.409607 
	C1511.326416,352.744873 1518.641602,352.704895 1525.698486,351.334442 
	C1529.720337,350.553406 1533.697876,348.094208 1537.040894,345.535370 
	C1547.869995,337.246338 1547.601318,298.854095 1535.679932,292.194366 
	C1534.522583,291.547821 1533.410522,290.820129 1530.813477,289.589935 
z"/>
<path fill="#FFFDFD" opacity="1.000000" stroke="none" 
	d="
M1199.984985,453.974304 
	C1199.984985,388.827911 1199.984985,324.675812 1199.984985,260.246948 
	C1202.079346,259.873688 1203.322876,259.453644 1204.564087,259.460449 
	C1224.862549,259.571930 1245.161255,259.684418 1265.458008,259.943939 
	C1268.757202,259.986115 1272.082397,260.551971 1275.336060,261.183136 
	C1303.576538,266.661407 1317.376709,281.971405 1319.925049,310.669800 
	C1320.336670,315.305450 1320.571411,319.972382 1320.581543,324.625519 
	C1320.641968,352.915985 1320.766235,381.207977 1320.517212,409.496368 
	C1320.447388,417.437866 1319.828003,425.487732 1318.367798,433.283142 
	C1313.462280,459.471100 1300.054688,474.014465 1273.556274,476.919128 
	C1249.598511,479.545258 1225.242065,478.533936 1199.984985,479.153015 
	C1199.984985,470.103760 1199.984985,462.536163 1199.984985,453.974304 
M1279.468628,425.870056 
	C1279.576782,388.604156 1279.741821,351.338165 1279.709229,314.072388 
	C1279.705811,310.136475 1278.785278,306.142792 1277.857788,302.279724 
	C1276.432251,296.342438 1272.462280,292.239807 1266.847778,290.287476 
	C1258.295288,287.313599 1249.494751,287.295380 1240.836304,288.868744 
	C1240.836304,342.982605 1240.836304,396.392151 1240.836304,450.544678 
	C1248.150513,450.213196 1254.815918,450.347656 1261.356934,449.509857 
	C1270.625610,448.322632 1276.182373,442.624207 1278.184692,433.509369 
	C1278.612793,431.560852 1278.899170,429.581238 1279.468628,425.870056 
z"/>
<path fill="#FFFAFA" opacity="1.000000" stroke="none" 
	d="
M903.236450,367.373047 
	C906.442932,367.569702 908.731873,367.765869 911.424194,367.996613 
	C911.424194,404.524475 911.424194,440.737671 911.424194,477.790222 
	C903.349304,477.790222 895.234131,477.790222 885.649780,477.790222 
	C884.858154,472.942535 883.933838,467.282257 882.756287,460.071320 
	C880.598633,462.670227 879.305664,463.943329 878.345032,465.431061 
	C872.341492,474.729065 863.637207,480.129913 852.885681,481.204834 
	C822.742615,484.218536 800.179993,473.362244 792.133057,443.700378 
	C789.200134,432.889343 787.414062,421.445709 787.265625,410.262024 
	C786.850464,378.970978 787.405762,347.662323 787.918274,316.366241 
	C788.093933,305.641449 790.819397,295.328491 795.350769,285.521271 
	C801.621887,271.948822 811.930847,263.341461 826.384033,259.558319 
	C841.184387,255.684280 856.051453,255.820541 870.916382,258.855316 
	C890.557617,262.865204 902.368103,275.192413 907.503418,294.237854 
	C910.743042,306.252869 910.774048,318.496796 909.969910,331.406067 
	C897.518433,331.406067 885.387878,331.406067 871.971008,331.406067 
	C871.971008,327.405792 872.109375,323.519073 871.938171,319.646057 
	C871.688904,314.008209 871.754089,308.280029 870.726501,302.769135 
	C868.657837,291.675110 862.661011,286.895294 851.442383,286.398743 
	C840.179077,285.900208 832.493042,290.972382 829.925659,301.603394 
	C828.535034,307.361603 827.987915,313.446442 827.954224,319.389008 
	C827.771362,351.697693 827.717468,384.009186 827.986023,416.316681 
	C828.043518,423.236725 828.957642,430.310333 830.648804,437.017822 
	C833.081543,446.666687 839.526123,451.094482 849.684814,451.623932 
	C859.627014,452.142090 866.914734,448.125427 870.881165,439.726776 
	C872.010559,437.335388 873.004639,434.794617 873.522278,432.214355 
	C876.018982,419.768097 876.119019,407.217529 875.171631,393.658325 
	C867.588928,393.658325 860.409180,393.658325 852.529785,393.658325 
	C852.529785,384.584381 852.529785,376.456329 852.529785,367.372559 
	C869.121460,367.372559 885.720215,367.372559 903.236450,367.373047 
z"/>
<path fill="#FFFDFD" opacity="1.000000" stroke="none" 
	d="
M1089.553711,276.345306 
	C1104.425659,310.736847 1118.992065,344.423462 1133.558350,378.110077 
	C1134.259033,377.932587 1134.959717,377.755066 1135.660400,377.577576 
	C1135.660400,338.536011 1135.660400,299.494476 1135.660400,259.929749 
	C1146.703247,259.929749 1156.885010,259.929749 1167.089722,259.929749 
	C1169.119629,267.349823 1170.016479,451.870850 1168.028687,478.422516 
	C1164.016724,478.482361 1159.846191,478.569611 1155.675537,478.599854 
	C1151.377563,478.631042 1147.079468,478.606720 1142.412964,478.606720 
	C1133.529785,457.295258 1124.831543,436.452515 1116.153320,415.601410 
	C1107.608276,395.070099 1099.083740,374.530273 1089.756958,354.098938 
	C1087.542603,364.090118 1088.576660,374.112762 1088.390381,384.057343 
	C1088.190674,394.710541 1088.345337,405.370422 1088.345337,416.027374 
	C1088.345337,426.351318 1088.345337,436.675232 1088.345337,446.999176 
	C1088.345337,457.232941 1088.345337,467.466736 1088.345337,478.140625 
	C1076.805176,478.140625 1066.263672,478.140625 1055.741211,478.140625 
	C1053.713623,470.983124 1052.909790,280.946960 1054.908203,259.785980 
	C1059.227783,259.658813 1063.735962,259.476532 1068.245850,259.407532 
	C1072.557739,259.341522 1076.871460,259.393311 1082.008789,259.393311 
	C1084.441040,264.852203 1086.844604,270.246277 1089.553711,276.345306 
z"/>
<path fill="#FFFBFB" opacity="1.000000" stroke="none" 
	d="
M1138.148071,704.000000 
	C1138.148071,675.059326 1138.148071,647.118652 1138.148071,618.415649 
	C1151.143188,618.415649 1163.603760,618.415649 1176.793335,618.415649 
	C1176.995117,620.786682 1177.400024,623.342590 1177.402100,625.898865 
	C1177.439453,671.872009 1177.644165,717.846924 1177.273438,763.817078 
	C1177.182739,775.069824 1176.103882,786.496338 1173.860718,797.513367 
	C1168.763916,822.544739 1155.514282,834.410217 1130.106201,838.721802 
	C1118.094238,840.760132 1106.170654,840.217896 1094.386108,837.583130 
	C1071.180786,832.394897 1060.073975,816.185425 1056.159790,794.084106 
	C1054.772339,786.250977 1053.954102,778.211121 1053.920898,770.261292 
	C1053.717773,721.623901 1053.811646,672.985291 1053.823608,624.347046 
	C1053.824097,622.413696 1053.996094,620.480347 1054.107300,618.144409 
	C1066.946167,618.144409 1079.138550,618.144409 1092.631348,618.144409 
	C1092.631348,621.778503 1092.631348,625.301025 1092.631348,628.823547 
	C1092.630859,675.129822 1092.472900,721.437134 1092.766846,767.741577 
	C1092.823364,776.645874 1093.873901,785.717773 1095.865845,794.390869 
	C1098.243652,804.745667 1106.290283,810.013489 1116.407227,809.634705 
	C1126.103760,809.271729 1133.140869,803.780701 1135.575806,793.705261 
	C1136.971436,787.930603 1137.822388,781.888855 1137.898071,775.954407 
	C1138.199219,752.305725 1138.099365,728.651917 1138.148071,704.000000 
z"/>
<path fill="#FFFBFB" opacity="1.000000" stroke="none" 
	d="
M1294.271973,679.535156 
	C1304.946289,732.151855 1315.487549,783.931152 1326.181030,836.457520 
	C1313.329712,836.457520 1301.496704,836.457520 1288.828613,836.457520 
	C1285.820312,819.862732 1282.822388,803.326172 1279.784668,786.569275 
	C1267.123779,786.569275 1255.216309,786.569275 1242.380127,786.569275 
	C1239.380493,802.957153 1236.405273,819.212341 1233.205688,836.693176 
	C1221.111816,837.404053 1208.974731,836.859497 1195.281616,837.020996 
	C1210.220581,763.462463 1224.958496,690.893677 1239.751465,618.054321 
	C1253.935547,618.054321 1267.504395,618.054321 1281.831787,618.054321 
	C1285.958496,638.388245 1290.048706,658.542969 1294.271973,679.535156 
M1258.187256,687.485229 
	C1254.372070,711.316833 1250.556763,735.148438 1246.677002,759.382935 
	C1256.681274,759.382935 1265.781860,759.382935 1275.482544,759.382935 
	C1270.844360,731.119141 1266.326538,703.588074 1261.808594,676.057007 
	C1261.377319,676.101013 1260.945923,676.145081 1260.514648,676.189148 
	C1259.811279,679.415771 1259.107910,682.642334 1258.187256,687.485229 
z"/>
<path fill="#FFFBFB" opacity="1.000000" stroke="none" 
	d="
M1388.003296,259.375458 
	C1405.634399,259.375488 1422.265991,259.375488 1439.624512,259.375488 
	C1439.624512,268.710846 1439.624512,277.500427 1439.624512,287.543823 
	C1423.172974,287.543823 1406.392334,287.543823 1389.141968,287.543823 
	C1389.141968,308.936829 1389.141968,329.095490 1389.141968,350.010712 
	C1402.318726,350.010712 1415.225830,350.010712 1428.989990,350.010712 
	C1428.989990,359.494110 1428.989990,368.285065 1428.989990,378.332458 
	C1416.324219,378.332458 1403.224854,378.332458 1388.708862,378.332458 
	C1388.575806,402.708282 1388.630981,425.865509 1388.687134,449.988007 
	C1397.397339,451.930511 1405.990601,450.698639 1414.452881,450.915131 
	C1423.041016,451.134766 1431.639160,450.963623 1440.820068,450.963623 
	C1440.820068,460.463531 1440.820068,468.949677 1440.820068,478.033447 
	C1410.211792,478.033447 1379.715210,478.033447 1348.763184,478.033447 
	C1348.763184,405.227509 1348.763184,332.777039 1348.763184,259.375427 
	C1361.791748,259.375427 1374.397705,259.375427 1388.003296,259.375458 
z"/>
<path fill="#FFFAFA" opacity="1.000000" stroke="none" 
	d="
M790.304871,723.999878 
	C790.304871,688.382751 790.304871,653.765686 790.304871,617.690857 
	C821.046021,617.583496 851.176147,617.671692 881.976807,617.635132 
	C881.976807,627.044861 881.976807,635.855225 881.976807,645.842957 
	C865.213806,645.842957 848.430908,645.842957 831.164062,645.842957 
	C831.164062,667.158691 831.164062,687.307373 831.164062,708.338501 
	C844.493469,708.338501 857.377075,708.338501 869.992737,708.338501 
	C872.306641,716.373108 872.506836,726.379150 870.632568,737.247437 
	C857.947266,737.247437 845.072021,737.247437 831.108887,737.247437 
	C830.203308,761.491699 830.818176,784.838257 830.615601,809.268921 
	C848.745667,809.268921 865.587952,809.268921 882.919922,809.268921 
	C882.919922,818.827393 882.919922,827.306030 882.919922,836.415527 
	C852.035828,836.415527 821.567017,836.415527 790.304871,836.415527 
	C790.304871,798.874084 790.304871,761.937012 790.304871,723.999878 
z"/>
<path fill="#FFFCFC" opacity="1.000000" stroke="none" 
	d="
M940.151489,409.999939 
	C940.151489,359.432861 940.151489,309.865784 940.151489,259.843842 
	C970.941895,259.843842 1000.844910,259.843842 1031.468750,259.843842 
	C1031.468750,268.750793 1031.468750,277.540833 1031.468750,287.577881 
	C1014.976501,287.577881 998.196228,287.577881 980.900391,287.577881 
	C980.900391,308.939697 980.900391,329.074585 980.900391,350.310181 
	C994.391052,350.310181 1007.533142,350.310181 1021.158936,350.310181 
	C1021.158936,359.941986 1021.158936,368.492981 1021.158936,378.222229 
	C1008.180420,378.222229 995.051941,378.222229 980.549377,378.222229 
	C980.166077,402.775818 980.398132,426.177795 980.391235,450.681824 
	C998.015991,450.681824 1014.833923,450.681824 1032.333984,450.681824 
	C1032.333984,460.253876 1032.333984,468.749451 1032.333984,477.936829 
	C1002.012329,477.936829 971.543396,477.936829 940.151489,477.936829 
	C940.151489,455.482117 940.151489,433.241028 940.151489,409.999939 
z"/>
<path fill="#FFFBFB" opacity="1.000000" stroke="none" 
	d="
M1632.019653,618.519531 
	C1643.604370,618.519531 1655.189209,618.519531 1668.246582,618.519531 
	C1676.663696,645.392090 1685.359253,673.153625 1694.054810,700.915161 
	C1694.655518,701.007263 1695.256104,701.099426 1695.856812,701.191528 
	C1704.128662,673.603760 1712.400635,646.016052 1720.770752,618.100769 
	C1732.948364,618.100769 1744.839111,618.100769 1757.791016,618.100769 
	C1754.833740,627.364197 1752.100098,636.122925 1749.243164,644.841309 
	C1738.271240,678.324829 1727.147095,711.759277 1716.379272,745.308228 
	C1714.687378,750.579590 1713.880005,756.339050 1713.804199,761.888428 
	C1713.512939,783.190857 1713.686035,804.499573 1713.686035,825.805969 
	C1713.686035,829.100647 1713.686035,832.395386 1713.686035,836.359375 
	C1700.916992,836.359375 1688.759399,836.359375 1675.901367,836.359375 
	C1675.722534,833.430969 1675.397949,830.534912 1675.392212,827.638184 
	C1675.349121,805.666077 1675.505493,783.692322 1675.262939,761.722778 
	C1675.208862,756.825195 1674.458252,751.735413 1672.948120,747.084961 
	C1659.499390,705.666565 1645.808105,664.327026 1632.170166,621.696533 
	C1632.124023,619.791260 1632.079834,619.154846 1632.019653,618.519531 
z"/>
<path fill="#FFF6F6" opacity="1.000000" stroke="none" 
	d="
M1631.184326,618.734558 
	C1632.079834,619.154846 1632.124023,619.791260 1632.160645,620.907227 
	C1630.982666,621.923096 1628.822876,622.375183 1628.767090,623.011780 
	C1628.390381,627.309998 1628.435303,631.647156 1628.391602,635.972168 
	C1628.355225,639.569031 1628.384155,643.166626 1628.384155,647.403809 
	C1616.455933,647.403809 1605.553223,647.403809 1593.181885,647.403809 
	C1592.991211,679.493530 1593.118896,710.948303 1593.095581,742.399902 
	C1593.072510,773.594238 1593.090576,804.788635 1593.090576,836.464722 
	C1579.118408,836.464722 1566.330933,836.464722 1552.598755,836.464722 
	C1552.598755,773.441772 1552.598755,711.018372 1552.598755,647.582031 
	C1540.208496,647.582031 1528.716675,647.582031 1516.604858,647.582031 
	C1516.604858,637.427734 1516.604858,628.267334 1516.604858,618.308044 
	C1519.198120,618.092346 1522.034546,617.655579 1524.871826,617.651184 
	C1556.502197,617.602234 1588.132568,617.578369 1619.762573,617.678345 
	C1623.292847,617.689514 1626.820312,618.506409 1631.184326,618.734558 
z"/>
<path fill="#FFFDFD" opacity="1.000000" stroke="none" 
	d="
M1411.966919,837.019043 
	C1389.712646,837.018982 1368.453491,837.018982 1346.683105,837.018982 
	C1346.683105,763.556885 1346.683105,691.122437 1346.683105,618.172485 
	C1359.672729,618.172485 1372.208618,618.172485 1385.996094,618.172485 
	C1385.996094,681.505066 1385.996094,744.894775 1385.996094,809.341919 
	C1404.025513,809.341919 1420.838623,809.341919 1438.121338,809.341919 
	C1438.121338,818.920105 1438.121338,827.430054 1438.121338,837.019043 
	C1429.480591,837.019043 1421.221313,837.019043 1411.966919,837.019043 
z"/>
<path fill="#FFFAFA" opacity="1.000000" stroke="none" 
	d="
M1481.870483,837.044434 
	C1474.291504,837.044373 1467.670898,837.044373 1460.352783,837.044373 
	C1460.352783,763.922302 1460.352783,691.521851 1460.352783,618.380005 
	C1472.792969,618.380005 1485.542114,618.380005 1498.872070,618.380005 
	C1498.872070,690.949219 1498.872070,763.364319 1498.872070,837.044556 
	C1493.298950,837.044556 1488.063965,837.044556 1481.870483,837.044434 
z"/>
<path fill="#FF1D12" opacity="1.000000" stroke="none" 
	d="
M1824.477539,1665.514038 
	C1852.403076,1723.604004 1865.123779,1784.369995 1859.272705,1847.603882 
	C1846.302490,1987.778687 1775.405396,2089.349854 1649.122803,2151.250000 
	C1593.552002,2178.489502 1533.818970,2188.108154 1472.210938,2183.569580 
	C1310.442627,2171.651855 1181.478271,2055.736328 1146.215210,1906.562866 
	C1100.508057,1713.208008 1216.939453,1521.138672 1409.188721,1471.545044 
	C1571.541504,1429.663574 1743.768311,1507.304932 1820.120483,1656.800415 
	C1821.483521,1659.468872 1822.803589,1662.159180 1824.477539,1665.514038 
M1724.325073,1881.157837 
	C1724.324951,1878.824829 1724.346069,1876.491577 1724.321167,1874.158813 
	C1724.210571,1863.795654 1724.181763,1863.692383 1713.576660,1863.691040 
	C1570.931641,1863.673096 1428.286621,1863.671387 1285.641602,1863.695679 
	C1275.697266,1863.697388 1275.450562,1863.928711 1275.432251,1873.727783 
	C1275.372437,1905.722778 1275.388062,1937.718140 1275.452026,1969.713135 
	C1275.457153,1972.258911 1276.056641,1974.803345 1276.347900,1977.095093 
	C1287.057129,1979.468506 1715.960938,1979.055664 1724.325073,1976.476685 
	C1724.325073,1945.599243 1724.325073,1914.357788 1724.325073,1881.157837 
M1381.000000,1673.839233 
	C1349.004883,1673.840088 1317.009521,1673.806030 1285.014526,1673.863525 
	C1275.722168,1673.880249 1275.452637,1674.125244 1275.432983,1683.439575 
	C1275.365234,1715.434692 1275.360962,1747.430176 1275.438599,1779.425171 
	C1275.460205,1788.315063 1276.059814,1788.880615 1285.344849,1788.942261 
	C1302.674805,1789.057251 1320.006104,1788.979370 1337.336792,1788.979370 
	C1461.651489,1788.979492 1585.966187,1788.991211 1710.280884,1788.931152 
	C1714.749390,1788.929077 1719.217529,1788.220215 1723.388184,1787.866089 
	C1725.423462,1771.427856 1724.684692,1681.991211 1722.265991,1673.839233 
	C1609.430054,1673.839233 1496.214966,1673.839233 1381.000000,1673.839233 
z"/>
<path fill="#FF1D13" opacity="1.000000" stroke="none" 
	d="
M984.639526,658.327148 
	C985.609924,666.045654 986.827148,672.975952 986.873413,679.914062 
	C987.084229,711.562073 987.033630,743.212463 986.906372,774.861389 
	C986.882324,780.836243 986.606995,786.904480 985.529053,792.760498 
	C983.448608,804.061890 976.708679,809.500732 965.482361,809.887024 
	C953.523071,810.298523 946.507385,805.270386 943.773743,793.746094 
	C942.708801,789.256470 942.113708,784.546936 942.096130,779.934570 
	C941.961243,744.621094 941.982666,709.306641 942.075989,673.992859 
	C942.086487,670.029602 942.496277,665.992676 943.327820,662.120239 
	C945.819031,650.518127 950.256104,646.409729 961.070740,645.063721 
	C972.857239,643.596741 979.077881,646.931702 984.639526,658.327148 
z"/>
<path fill="#FF2419" opacity="1.000000" stroke="none" 
	d="
M1531.545410,289.860016 
	C1533.410522,290.820129 1534.522583,291.547821 1535.679932,292.194366 
	C1547.601318,298.854095 1547.869995,337.246338 1537.040894,345.535370 
	C1533.697876,348.094208 1529.720337,350.553406 1525.698486,351.334442 
	C1518.641602,352.704895 1511.326416,352.744873 1503.305420,353.409607 
	C1503.305420,330.917358 1503.305420,309.571259 1503.305420,287.703918 
	C1512.749023,286.332123 1521.848022,286.634552 1531.545410,289.860016 
z"/>
<path fill="#FF1F15" opacity="1.000000" stroke="none" 
	d="
M1279.359619,426.743011 
	C1278.899170,429.581238 1278.612793,431.560852 1278.184692,433.509369 
	C1276.182373,442.624207 1270.625610,448.322632 1261.356934,449.509857 
	C1254.815918,450.347656 1248.150513,450.213196 1240.836304,450.544678 
	C1240.836304,396.392151 1240.836304,342.982605 1240.836304,288.868744 
	C1249.494751,287.295380 1258.295288,287.313599 1266.847778,290.287476 
	C1272.462280,292.239807 1276.432251,296.342438 1277.857788,302.279724 
	C1278.785278,306.142792 1279.705811,310.136475 1279.709229,314.072388 
	C1279.741821,351.338165 1279.576782,388.604156 1279.359619,426.743011 
z"/>
<path fill="#FF2419" opacity="1.000000" stroke="none" 
	d="
M1258.295898,686.677124 
	C1259.107910,682.642334 1259.811279,679.415771 1260.514648,676.189148 
	C1260.945923,676.145081 1261.377319,676.101013 1261.808594,676.057007 
	C1266.326538,703.588074 1270.844360,731.119141 1275.482544,759.382935 
	C1265.781860,759.382935 1256.681274,759.382935 1246.677002,759.382935 
	C1250.556763,735.148438 1254.372070,711.316833 1258.295898,686.677124 
z"/>
<path fill="#FFFFFF" opacity="1.000000" stroke="none" 
	d="
M1724.325073,1882.137085 
	C1724.325073,1914.357788 1724.325073,1945.599243 1724.325073,1976.476685 
	C1715.960938,1979.055664 1287.057129,1979.468506 1276.347900,1977.095093 
	C1276.056641,1974.803345 1275.457153,1972.258911 1275.452026,1969.713135 
	C1275.388062,1937.718140 1275.372437,1905.722778 1275.432251,1873.727783 
	C1275.450562,1863.928711 1275.697266,1863.697388 1285.641602,1863.695679 
	C1428.286621,1863.671387 1570.931641,1863.673096 1713.576660,1863.691040 
	C1724.181763,1863.692383 1724.210571,1863.795654 1724.321167,1874.158813 
	C1724.346069,1876.491577 1724.324951,1878.824829 1724.325073,1882.137085 
z"/>
<path fill="#FFFFFF" opacity="1.000000" stroke="none" 
	d="
M1382.000000,1673.839233 
	C1496.214966,1673.839233 1609.430054,1673.839233 1722.265991,1673.839233 
	C1724.684692,1681.991211 1725.423462,1771.427856 1723.388184,1787.866089 
	C1719.217529,1788.220215 1714.749390,1788.929077 1710.280884,1788.931152 
	C1585.966187,1788.991211 1461.651489,1788.979492 1337.336792,1788.979370 
	C1320.006104,1788.979370 1302.674805,1789.057251 1285.344849,1788.942261 
	C1276.059814,1788.880615 1275.460205,1788.315063 1275.438599,1779.425171 
	C1275.360962,1747.430176 1275.365234,1715.434692 1275.432983,1683.439575 
	C1275.452637,1674.125244 1275.722168,1673.880249 1285.014526,1673.863525 
	C1317.009521,1673.806030 1349.004883,1673.840088 1382.000000,1673.839233 
z"/>
</svg>