<svg version="1.1" id="Layer_1" xmlns="http://www.w3.org/2000/svg" xmlns:xlink="http://www.w3.org/1999/xlink" x="0px" y="0px"
	 width="100%" viewBox="0 0 3000 3000" enable-background="new 0 0 3000 3000" xml:space="preserve">
<path fill="#2FEEE9" opacity="1.000000" stroke="none" 
	d="
M3002.000000,1106.000000 
	C3002.000000,1738.614136 3002.000000,2370.228271 3002.000000,3001.921387 
	C2002.135620,3001.921387 1002.271362,3001.921387 2.203506,3001.921387 
	C2.203506,2002.218872 2.203506,1002.437683 2.203506,2.328229 
	C1001.999939,2.328229 2002.000000,2.328229 3002.000000,2.328229 
	C3002.000000,369.729340 3002.000000,737.364685 3002.000000,1106.000000 
M1366.205811,2376.835938 
	C1370.529419,2427.503418 1375.261719,2478.140137 1379.049561,2530.155518 
	C1370.093384,2530.155518 1362.506348,2530.155762 1354.919312,2530.155762 
	C1347.252808,2530.155762 1339.586182,2530.155762 1331.919678,2530.155762 
	C1324.253174,2530.155762 1316.586182,2530.109619 1308.920166,2530.168701 
	C1301.515381,2530.225586 1294.111572,2530.390381 1286.607910,2530.509521 
	C1360.387695,2604.289062 1433.356445,2677.257812 1506.735718,2750.636719 
	C1507.736572,2749.765381 1509.556274,2748.367676 1511.161987,2746.756836 
	C1582.448608,2675.242432 1653.716675,2603.709229 1724.967163,2532.158936 
	C1725.114258,2532.010986 1725.013062,2531.558350 1724.943726,2531.268066 
	C1724.867432,2530.948486 1724.693604,2530.652588 1724.149536,2529.383789 
	C1694.386475,2529.383789 1664.203247,2529.383789 1632.868286,2529.383789 
	C1638.003540,2469.041016 1643.048828,2409.753662 1648.206665,2349.143799 
	C1653.000244,2349.143799 1656.896729,2349.143799 1660.793091,2349.143799 
	C1701.125854,2349.143799 1741.458496,2349.145752 1781.791260,2349.143555 
	C1812.457397,2349.142090 1843.124023,2349.220459 1873.789673,2349.088867 
	C1885.875000,2349.036865 1889.721436,2345.887451 1891.477295,2334.611084 
	C1899.726685,2281.627930 1907.832031,2228.622314 1916.010742,2175.628174 
	C1924.951294,2117.696533 1933.900513,2059.766602 1942.873657,2001.840088 
	C1951.183716,1948.193237 1959.560913,1894.556885 1967.852295,1840.907104 
	C1976.194824,1786.927490 1984.436523,1732.932129 1992.780029,1678.952637 
	C2002.496826,1616.086548 2012.278076,1553.230591 2022.027588,1490.369507 
	C2030.399048,1436.394775 2038.776367,1382.421143 2047.128784,1328.443481 
	C2052.425781,1294.212769 2057.723389,1259.982300 2062.930908,1225.738037 
	C2064.487061,1215.505127 2059.904297,1209.797119 2049.629883,1208.986328 
	C2045.984009,1208.698730 2042.300659,1208.860107 2038.634521,1208.859985 
	C1680.973389,1208.856079 1323.312256,1208.856323 965.651062,1208.857178 
	C962.651123,1208.857178 959.648071,1208.782959 956.651855,1208.891846 
	C943.766602,1209.359863 939.510193,1214.463013 941.652649,1227.496216 
	C952.943420,1296.180054 964.361267,1364.842896 975.680481,1433.522095 
	C992.632446,1536.378296 1009.480896,1639.251709 1026.481567,1742.099731 
	C1042.830200,1841.003784 1059.340942,1939.880981 1075.735596,2038.777344 
	C1091.694458,2135.045410 1107.579590,2231.325439 1123.536621,2327.593994 
	C1126.978394,2348.358887 1127.992798,2349.140869 1149.190186,2349.142334 
	C1216.855835,2349.146729 1284.521484,2349.131836 1352.187134,2349.175781 
	C1356.011963,2349.178223 1359.836548,2349.637451 1363.804688,2349.893311 
	C1364.655029,2359.094727 1365.389893,2367.046387 1366.205811,2376.835938 
M426.606384,254.204163 
	C401.959808,251.309067 377.394745,251.647873 352.932465,256.061737 
	C310.073792,263.794922 279.012695,286.626343 262.077606,327.340179 
	C258.756683,335.323975 255.677948,343.449432 253.135941,351.709106 
	C243.130569,384.219116 240.760864,417.781250 240.611725,451.503448 
	C240.330154,515.164917 240.264114,578.830200 240.690536,642.489990 
	C240.819702,661.769836 242.015930,681.135376 244.237259,700.286072 
	C247.373871,727.327637 255.649551,752.938110 269.523529,776.588806 
	C287.855469,807.838745 314.433594,827.938843 349.757629,836.247559 
	C382.154327,843.867737 414.578217,843.445435 446.742920,835.228943 
	C480.507202,826.603760 506.153687,807.013062 521.856079,775.691162 
	C528.094055,763.248108 533.729370,750.219971 537.450745,736.849121 
	C550.865723,688.650391 552.455811,639.568970 545.337280,590.220459 
	C542.130615,567.990845 535.336182,546.766541 524.114563,527.105774 
	C511.466614,504.945923 493.128204,489.857971 468.666168,482.546265 
	C448.224152,476.436188 427.276031,475.462189 406.313446,478.714600 
	C386.112335,481.848846 367.787445,489.295776 354.142456,505.535431 
	C353.873444,505.855621 352.989288,505.658936 352.260590,505.713196 
	C352.081085,504.778778 351.735809,503.831390 351.741241,502.885986 
	C351.911102,473.223969 351.607208,443.546722 352.508057,413.906189 
	C353.032776,396.641113 354.599854,379.314209 360.248901,362.689087 
	C366.946289,342.978638 381.081238,334.021912 403.959229,336.809418 
	C419.355499,338.685333 428.815430,347.131744 432.012177,362.389099 
	C432.830811,366.296143 433.798737,370.204376 434.189697,374.162292 
	C435.262054,385.019440 436.064209,395.903259 436.963654,406.661011 
	C447.084167,408.730682 532.052856,408.478455 540.033325,406.301392 
	C540.406372,375.877838 537.501953,345.935028 524.648376,317.698730 
	C512.729065,291.514923 493.402405,272.972473 466.126801,263.690369 
	C453.905151,259.531250 440.990479,257.408447 426.606384,254.204163 
M1622.231201,356.397583 
	C1616.810547,324.298218 1611.390015,292.198822 1605.912720,259.764038 
	C1596.421143,259.764038 1587.894653,259.764038 1578.606567,259.764038 
	C1574.927124,282.125916 1571.547241,304.121460 1567.637085,326.022308 
	C1563.720337,347.960785 1561.109985,370.166351 1554.524414,391.669922 
	C1548.902832,347.827148 1543.281250,303.984344 1537.696167,260.426941 
	C1526.136963,258.451538 1511.756470,258.784546 1503.923218,261.226776 
	C1514.248657,333.418060 1524.590332,405.723053 1534.945312,478.121948 
	C1546.657959,478.121948 1557.133179,478.121948 1568.223755,478.121948 
	C1572.189819,454.650970 1575.939575,431.698853 1579.974365,408.796967 
	C1584.015625,385.858185 1586.934082,362.695648 1593.661255,340.137817 
	C1601.448120,385.992737 1609.235107,431.847656 1617.063110,477.944580 
	C1628.255737,477.944580 1638.655518,477.944580 1648.856689,477.944580 
	C1655.425049,447.505554 1680.155273,267.969910 1678.889526,259.773621 
	C1668.737427,259.773621 1658.545776,259.773621 1647.444580,259.773621 
	C1641.727783,304.241272 1636.065430,348.285614 1630.403076,392.329926 
	C1629.773926,392.299652 1629.144653,392.269348 1628.515503,392.239044 
	C1626.506836,380.863342 1624.498291,369.487640 1622.231201,356.397583 
M1415.505493,395.000061 
	C1415.505493,350.147461 1415.505493,305.294891 1415.505493,259.826477 
	C1403.776123,259.826477 1393.299683,259.826477 1381.962646,259.826477 
	C1381.962646,273.397003 1381.962646,286.345734 1381.962646,299.294434 
	C1381.962646,312.282806 1382.096924,325.272949 1381.924316,338.259033 
	C1381.755981,350.935883 1382.669922,363.665466 1379.479980,376.681610 
	C1362.594482,337.742462 1345.709106,298.803284 1328.534424,259.196960 
	C1321.568848,259.196960 1314.957397,259.128662 1308.348877,259.234741 
	C1306.094971,259.270905 1303.848022,259.745392 1301.175049,260.071136 
	C1301.175049,332.887634 1301.175049,405.261353 1301.175049,478.084076 
	C1312.640503,478.084076 1323.418823,478.084076 1335.411377,478.084076 
	C1335.411377,437.362762 1335.411377,397.349457 1335.411377,357.336182 
	C1336.276855,357.145630 1337.142334,356.955078 1338.007812,356.764526 
	C1354.926025,397.346466 1371.844116,437.928436 1388.794556,478.587616 
	C1398.059570,478.616058 1406.544800,479.583618 1415.504883,477.822601 
	C1415.504883,450.231689 1415.504883,423.615875 1415.505493,395.000061 
M1580.719482,837.182007 
	C1585.207886,836.971313 1589.696289,836.760620 1594.802856,836.520935 
	C1594.802856,825.357666 1594.802856,815.398987 1594.802856,805.440308 
	C1594.802856,795.449219 1594.802856,785.458191 1594.802856,775.467102 
	C1594.802856,765.143005 1594.630859,754.815125 1594.852783,744.495850 
	C1595.061890,734.773499 1593.833984,724.951660 1595.624268,715.313232 
	C1596.363281,715.137268 1597.102417,714.961243 1597.841431,714.785278 
	C1614.761963,755.416443 1631.682373,796.047607 1648.690430,836.888794 
	C1657.881958,837.119507 1666.376465,837.808228 1674.641479,836.459106 
	C1676.951294,816.912476 1675.934692,625.146118 1673.591431,618.311035 
	C1663.429565,618.311035 1653.259155,618.311035 1642.175659,618.311035 
	C1641.586304,657.487183 1642.374146,696.063416 1641.743530,734.605225 
	C1640.957642,734.730042 1640.171875,734.854797 1639.386108,734.979553 
	C1622.501343,696.050720 1605.616699,657.121826 1588.807861,618.367615 
	C1579.184448,618.367615 1570.384033,618.367615 1561.718140,618.367615 
	C1559.666748,630.245972 1560.112183,828.910034 1562.361328,837.180786 
	C1567.658569,837.180786 1573.256226,837.180786 1580.719482,837.182007 
M2056.299561,428.999939 
	C2056.299561,445.219879 2056.299561,461.439789 2056.299561,478.480499 
	C2070.280029,478.878143 2082.994141,479.042145 2096.588135,478.411926 
	C2096.588135,444.752350 2096.588135,412.529266 2096.588135,380.570740 
	C2111.676514,376.560394 2113.686279,377.578613 2117.165771,390.792725 
	C2124.118896,417.199799 2130.978516,443.631561 2137.926270,470.040161 
	C2138.667480,472.857178 2139.734863,475.588348 2140.789551,478.778870 
	C2147.674072,478.778870 2153.995850,479.001068 2160.294922,478.717072 
	C2166.731201,478.426880 2173.387695,480.044617 2180.145508,477.242798 
	C2170.171143,441.577667 2160.343750,406.438446 2150.359131,370.736786 
	C2166.166016,363.569855 2173.365479,351.010010 2175.077637,335.703613 
	C2176.326904,324.538513 2176.585449,312.982727 2175.193115,301.863098 
	C2172.664307,281.666260 2160.509033,268.755676 2140.898926,263.351227 
	C2134.523682,261.594238 2127.853027,260.227814 2121.274658,260.017303 
	C2101.962646,259.399231 2082.629395,259.410706 2063.303955,259.298889 
	C2061.141113,259.286407 2058.973877,260.063904 2056.299805,260.571655 
	C2056.299805,316.404480 2056.299805,371.702209 2056.299561,428.999939 
M1165.657593,830.979858 
	C1180.233887,824.688354 1188.739380,813.209351 1192.620483,798.276062 
	C1194.450073,791.236145 1195.900879,783.873352 1195.977295,776.640442 
	C1196.333008,742.986389 1196.318359,709.325134 1196.016357,675.670227 
	C1195.954346,668.759888 1194.701172,661.707153 1192.945312,654.995117 
	C1188.461548,637.854614 1177.603149,626.350037 1160.347046,621.758545 
	C1153.000977,619.803894 1145.329102,618.349243 1137.758911,618.105225 
	C1119.447021,617.514893 1101.107910,617.729187 1082.779785,617.737976 
	C1080.608154,617.739014 1078.436768,618.480408 1076.484619,618.838379 
	C1076.484619,691.712830 1076.484619,763.880554 1076.484619,836.415649 
	C1079.037842,836.705078 1080.980103,837.111206 1082.923340,837.116394 
	C1099.919556,837.161743 1116.949341,837.776306 1133.899658,836.890320 
	C1144.082886,836.358154 1154.141846,833.452637 1165.657593,830.979858 
M2394.023193,818.873230 
	C2394.023193,783.856140 2394.023193,748.839050 2394.023193,713.821960 
	C2394.810547,713.698181 2395.597656,713.574402 2396.385010,713.450623 
	C2400.867920,724.078369 2405.390137,734.689697 2409.825928,745.337036 
	C2421.611084,773.625122 2433.370117,801.923950 2445.107666,830.231934 
	C2446.521484,833.641663 2447.489502,837.244690 2452.354736,837.147949 
	C2459.277100,837.010254 2466.204102,837.112976 2473.677979,837.112976 
	C2473.677979,763.569946 2473.677979,691.148499 2473.677979,618.439697 
	C2462.598877,618.439697 2452.189453,618.439697 2441.028564,618.439697 
	C2440.390869,657.456726 2441.277100,695.749573 2440.533203,734.004028 
	C2439.776123,734.118530 2439.018799,734.232971 2438.261475,734.347473 
	C2421.395996,695.438416 2404.530273,656.529358 2387.682617,617.661560 
	C2382.149658,617.661560 2377.833984,617.661560 2373.518311,617.661560 
	C2369.309814,617.661560 2365.101562,617.661560 2360.466064,617.661560 
	C2360.466064,691.327454 2360.466064,763.522827 2360.466064,836.432495 
	C2371.629639,836.432495 2382.407959,836.432495 2394.023193,836.432495 
	C2394.023193,830.740723 2394.023193,825.783020 2394.023193,818.873230 
M964.176697,826.597290 
	C964.265198,789.272644 964.352844,751.947998 964.462585,714.623413 
	C964.463257,714.387451 964.723206,714.070190 964.948425,713.937988 
	C965.221924,713.777649 965.587219,713.773926 966.423157,713.590210 
	C967.598938,716.137878 968.915894,718.769287 970.046997,721.478271 
	C977.363647,739.001465 984.635925,756.543213 991.929993,774.075806 
	C999.735962,792.838806 1007.535706,811.604309 1015.374817,830.353455 
	C1016.628662,833.352234 1017.343323,837.011536 1021.723755,837.034180 
	C1028.962891,837.071655 1036.202393,837.044373 1043.237793,837.044373 
	C1045.315063,823.028320 1044.673340,625.418091 1042.678467,618.292908 
	C1032.536377,618.292908 1022.362732,618.292908 1011.218567,618.292908 
	C1011.218567,631.517456 1011.218567,644.133728 1011.218567,656.750000 
	C1011.218567,669.749695 1011.327942,682.750488 1011.187073,695.748657 
	C1011.052734,708.143066 1011.842468,720.591064 1010.651245,732.940613 
	C1009.798706,733.127930 1008.946106,733.315308 1008.093567,733.502686 
	C991.358521,694.952637 974.623413,656.402649 957.883606,617.841797 
	C948.195557,617.991028 939.329285,616.603577 930.623474,618.793945 
	C930.623474,691.645813 930.623474,763.816589 930.623474,836.272095 
	C942.014282,836.272095 952.750488,836.272095 963.714539,836.272095 
	C963.902649,833.094788 964.039124,830.789429 964.176697,826.597290 
M2205.674316,735.000000 
	C2205.761719,748.994751 2205.696777,762.992615 2205.983643,776.983276 
	C2206.218262,788.416504 2208.636719,799.452698 2213.347168,809.917480 
	C2219.449707,823.475403 2229.535156,832.496033 2243.946289,836.517395 
	C2257.990479,840.436462 2272.139404,840.797302 2286.487549,838.251099 
	C2307.153564,834.583801 2321.004883,822.881226 2327.193604,802.989868 
	C2329.834473,794.500977 2331.664551,785.408142 2331.807861,776.556519 
	C2332.342285,743.576050 2332.140625,710.581177 2331.960449,677.593079 
	C2331.900146,666.510193 2329.475098,655.769531 2325.045166,645.563599 
	C2318.800781,631.176758 2308.071533,621.888306 2292.869629,618.012024 
	C2277.768555,614.161438 2262.552002,614.231995 2247.341309,617.425476 
	C2228.252930,621.433105 2215.941406,633.248535 2210.443359,651.549438 
	C2207.793701,660.368713 2206.416992,669.805359 2206.049805,679.025574 
	C2205.334473,696.993530 2205.735596,715.005981 2205.674316,735.000000 
M787.904358,425.178833 
	C789.727722,432.926575 790.851746,440.924805 793.519043,448.370178 
	C799.189514,464.198212 810.626648,474.230164 826.915527,478.609772 
	C843.092529,482.959320 859.224243,482.783722 875.186951,477.683624 
	C886.086975,474.201080 894.648926,467.637970 900.092346,457.370483 
	C910.222290,438.263062 909.553833,417.770569 908.690308,396.759430 
	C895.642761,396.759430 883.501404,396.759430 870.129333,396.759430 
	C870.129333,403.252228 870.248291,409.159698 870.097778,415.060333 
	C869.928040,421.711334 870.165466,428.465973 869.064880,434.979370 
	C867.152649,446.295715 860.807434,451.369019 849.935852,451.582367 
	C839.218933,451.792694 832.444641,446.771576 829.988403,435.853577 
	C828.684448,430.057495 828.005310,424.002045 827.972351,418.058563 
	C827.787537,384.736725 827.814697,351.412964 827.959717,318.090698 
	C827.982727,312.802460 828.461609,307.403778 829.618347,302.255829 
	C832.178711,290.861633 839.848694,285.604797 851.582031,286.485443 
	C862.416138,287.298584 868.311462,292.736755 869.452454,304.300110 
	C870.267822,312.563080 869.903870,320.939606 870.151245,329.262939 
	C870.245483,332.431580 870.577454,335.593109 870.851135,339.467407 
	C884.048340,339.164520 896.184570,340.191803 908.977966,338.771606 
	C909.392090,322.204254 909.850769,306.581543 905.248230,291.392883 
	C899.984497,274.022644 888.472656,262.982330 870.608276,258.933777 
	C856.748901,255.792862 842.842346,255.723495 828.985413,258.878448 
	C810.169373,263.162506 797.555664,274.425385 792.075439,293.013916 
	C790.110840,299.677826 788.144775,306.653595 788.065308,313.508881 
	C787.640442,350.133820 787.812317,386.765686 787.904358,425.178833 
M1273.988647,478.761658 
	C1275.853516,478.485809 1277.718506,478.209961 1280.650269,477.776306 
	C1265.924561,404.492950 1251.325195,331.929932 1236.407715,259.766357 
	C1221.702026,259.766357 1208.459106,259.766357 1194.418701,259.766357 
	C1179.593872,332.630310 1164.643066,405.085968 1150.144775,478.129150 
	C1163.547119,478.129150 1175.396606,478.129150 1187.841675,478.129150 
	C1190.936157,461.365570 1193.937012,445.108765 1196.982910,428.607849 
	C1209.812134,428.607849 1221.902954,428.607849 1234.483521,428.607849 
	C1237.547729,445.490082 1240.498047,461.744690 1243.588745,478.772705 
	C1253.651489,478.772705 1262.919800,478.772705 1273.988647,478.761658 
M1773.184814,442.029602 
	C1775.298340,454.068420 1777.411865,466.107208 1779.602905,478.587708 
	C1792.387329,478.601410 1804.131836,479.496704 1816.878662,477.940765 
	C1801.977783,404.428802 1787.323486,332.133453 1772.689697,259.938599 
	C1757.967651,259.938599 1744.481445,259.938599 1730.456665,259.938599 
	C1715.647949,332.814880 1700.957397,405.109528 1686.103394,478.207825 
	C1699.281494,478.207825 1711.146851,478.207825 1723.911621,478.207825 
	C1727.001709,461.603638 1730.080566,445.059082 1733.183105,428.387665 
	C1746.010376,428.387665 1757.883423,428.387665 1770.380737,428.387665 
	C1771.225586,432.633362 1771.993896,436.495544 1773.184814,442.029602 
M1411.264893,836.124634 
	C1423.150269,836.124634 1435.035767,836.124634 1447.813599,836.124634 
	C1450.843262,819.862000 1453.923950,803.326294 1457.006348,786.780640 
	C1469.933105,786.780640 1481.785767,786.780640 1494.361816,786.780640 
	C1497.460693,803.737671 1500.481689,820.268921 1503.438110,836.446777 
	C1516.373413,836.446777 1527.874268,836.446777 1540.741211,836.446777 
	C1525.766113,762.972046 1511.365356,690.390076 1496.346436,618.158936 
	C1481.623047,618.158936 1468.376831,618.158936 1454.740723,618.158936 
	C1453.829224,621.695129 1452.880859,624.838379 1452.218140,628.040649 
	C1449.720581,640.107300 1447.312744,652.192505 1444.877197,664.271912 
	C1433.425659,721.068848 1421.975708,777.866150 1411.264893,836.124634 
M1915.137939,663.797302 
	C1903.486694,721.122375 1891.835327,778.447388 1880.019409,836.582153 
	C1893.163574,836.582153 1905.037598,836.582153 1917.860229,836.582153 
	C1920.942383,820.011414 1924.019165,803.469299 1927.139404,786.693848 
	C1939.907471,786.693848 1951.769775,786.693848 1964.501831,786.693848 
	C1967.547729,803.554260 1970.536865,820.100708 1973.503418,836.522095 
	C1986.303223,836.522095 1997.816528,836.522095 2010.869141,836.522095 
	C1995.982056,763.069763 1981.282959,690.544739 1966.664673,618.418457 
	C1951.658691,618.418457 1938.150391,618.418457 1924.391846,618.418457 
	C1921.346069,633.441772 1918.436401,647.793823 1915.137939,663.797302 
M890.205505,738.440308 
	C882.089355,698.387512 873.973206,658.334656 865.731384,617.661499 
	C858.127502,617.661499 851.502625,617.661499 844.877747,617.661499 
	C837.994080,617.661499 831.110352,617.661499 823.726257,617.661499 
	C808.799927,691.153809 794.115112,763.456848 779.178345,837.000305 
	C792.898438,836.985474 804.987976,837.825867 817.172974,836.531921 
	C820.369629,819.215698 823.367432,802.976624 826.359558,786.768188 
	C839.425110,786.768188 851.299377,786.768188 863.738281,786.768188 
	C866.766541,803.530945 869.712830,819.839844 872.608887,835.870850 
	C884.413208,838.132019 902.805054,837.650574 909.791504,834.875000 
	C903.379639,803.350342 896.948547,771.731140 890.205505,738.440308 
M1389.059692,644.138489 
	C1383.275513,629.851196 1372.970703,620.581787 1357.962891,617.065125 
	C1343.025024,613.564758 1328.152710,614.217346 1313.806152,619.944641 
	C1300.365845,625.310181 1290.593628,634.846558 1286.779175,648.830078 
	C1280.054932,673.480469 1283.009277,696.522156 1301.753174,715.561401 
	C1308.514282,722.429077 1316.048096,728.536682 1323.236328,734.983154 
	C1331.417480,742.320068 1339.917236,749.334534 1347.715698,757.057373 
	C1358.024536,767.266235 1362.539062,779.842834 1360.260864,794.389099 
	C1358.803345,803.694885 1353.154663,808.230347 1343.807373,808.501770 
	C1335.633667,808.739136 1329.258545,805.340332 1325.879272,798.154297 
	C1323.091431,792.226074 1321.522827,785.670166 1319.895630,779.269897 
	C1318.853760,775.171631 1318.687500,770.850769 1317.960327,765.358398 
	C1306.267334,767.839905 1295.387939,770.148743 1284.794189,772.396973 
	C1283.270386,785.416443 1286.893555,802.178406 1293.331177,813.550842 
	C1300.450073,826.126953 1311.009277,834.513550 1325.072876,837.417236 
	C1333.454346,839.147827 1342.297119,840.042358 1350.810303,839.476074 
	C1376.610107,837.759827 1394.764771,820.750305 1398.722412,795.243835 
	C1402.157349,773.106689 1395.632202,753.582764 1381.136597,736.959229 
	C1373.729980,728.465393 1365.108521,721.008301 1356.831177,713.302856 
	C1348.546631,705.590637 1339.836060,698.332581 1331.628296,690.542542 
	C1323.928711,683.234863 1320.761963,674.012329 1321.615845,663.384644 
	C1322.433105,653.213135 1327.926392,647.011169 1337.398315,645.799927 
	C1347.482544,644.510376 1354.310181,648.433899 1357.540283,658.045105 
	C1359.009033,662.415405 1359.465454,667.126587 1360.370483,671.685242 
	C1360.926880,674.487854 1361.463745,677.294495 1362.197266,681.065857 
	C1373.716553,678.848022 1384.350708,676.800598 1395.140015,674.723328 
	C1395.216187,663.921936 1393.056885,654.627258 1389.059692,644.138489 
M1091.527832,287.971680 
	C1107.091187,287.971680 1122.654541,287.971680 1138.790771,287.971680 
	C1138.790771,277.875336 1138.790771,269.116974 1138.790771,260.485077 
	C1127.036621,258.364105 1054.981934,258.792358 1047.874023,260.896942 
	C1045.790405,281.079559 1046.767212,471.228149 1048.990479,478.218719 
	C1070.020630,480.083557 1132.123047,479.229614 1139.560791,476.905792 
	C1139.560791,468.728821 1139.560791,460.486206 1139.560791,450.815247 
	C1122.362915,450.815247 1105.575073,450.815247 1088.388916,450.815247 
	C1088.388916,426.249207 1088.388916,403.118134 1088.388916,378.712341 
	C1101.864258,378.712341 1114.675903,378.712341 1127.947021,378.712341 
	C1128.180664,368.635956 1129.282104,359.825989 1127.210205,350.810791 
	C1113.939331,349.418060 1100.991943,351.366608 1087.831421,349.521729 
	C1087.831421,329.624817 1087.800537,310.659760 1087.909546,291.695557 
	C1087.915894,290.573669 1089.047607,289.458313 1091.527832,287.971680 
M1985.000977,259.211487 
	C1971.077148,259.211487 1957.153442,259.211487 1942.719727,259.211487 
	C1942.719727,332.809387 1942.719727,405.216125 1942.719727,477.512268 
	C1954.274902,479.698181 2027.502930,479.215759 2034.910522,476.884827 
	C2034.922485,468.537018 2036.228027,460.014160 2033.966553,451.457489 
	C2016.693726,449.603180 1999.765747,452.272156 1982.945312,449.906250 
	C1982.945312,426.023743 1982.945312,403.184937 1982.945312,378.883026 
	C1996.617432,378.883026 2009.744751,378.883026 2023.400146,378.883026 
	C2023.518677,368.614380 2024.633667,359.801758 2022.470337,350.083466 
	C2009.204346,350.083466 1996.357788,350.083466 1983.057617,350.083466 
	C1983.057617,328.977509 1983.057617,308.891907 1983.057617,287.635712 
	C2000.228149,287.635712 2016.719238,287.635712 2033.494629,287.635712 
	C2033.494629,277.683136 2033.494629,268.912445 2033.494629,259.213287 
	C2017.549805,259.213287 2002.275269,259.213287 1985.000977,259.211487 
M1841.223633,693.000122 
	C1841.342773,678.167908 1840.966187,663.317322 1841.495117,647.476196 
	C1853.680420,647.476196 1864.514282,647.476196 1875.770996,647.476196 
	C1875.770996,636.987366 1875.770996,627.573853 1875.770996,618.183105 
	C1838.256714,618.183105 1801.485107,618.183105 1764.629150,618.183105 
	C1764.629150,628.037170 1764.629150,637.186523 1764.629150,647.709900 
	C1776.693359,647.709900 1788.127930,647.709900 1800.482788,647.709900 
	C1800.482788,669.984985 1800.482910,690.888611 1800.482910,711.792297 
	C1800.482910,732.427185 1800.451660,753.062134 1800.491333,773.696960 
	C1800.531494,794.519043 1800.310669,815.349182 1800.644775,836.398865 
	C1814.781128,836.398865 1827.530762,836.398865 1841.222534,836.398865 
	C1841.222534,788.730408 1841.222534,741.865295 1841.223633,693.000122 
M1926.339355,271.191589 
	C1926.339355,267.585571 1926.339355,263.979553 1926.339355,259.794159 
	C1888.577759,259.794159 1851.780762,259.794159 1814.510376,259.794159 
	C1814.510376,269.534393 1814.510376,278.696594 1814.510376,289.251343 
	C1826.460083,289.251343 1837.905273,289.251343 1850.612183,289.251343 
	C1850.612183,352.978668 1850.612183,415.328888 1850.612183,477.958588 
	C1864.650513,477.958588 1877.381470,477.958588 1890.791870,477.958588 
	C1890.791870,456.197235 1890.791870,435.259705 1890.791870,414.322174 
	C1890.791870,393.686005 1890.625244,373.048126 1890.838501,352.414154 
	C1891.053223,331.645935 1889.867798,310.823639 1891.728027,289.001648 
	C1903.657471,289.001648 1914.510376,289.001648 1926.339600,289.001648 
	C1926.339600,282.944000 1926.339600,278.012909 1926.339355,271.191589 
M2084.791260,808.967529 
	C2084.791504,795.635437 2084.791992,782.303284 2084.791992,768.971191 
	C2084.792236,755.639099 2084.791992,742.307007 2084.791992,728.974915 
	C2084.791992,715.309509 2084.704102,701.643433 2084.817383,687.978943 
	C2084.926514,674.812744 2084.293701,661.605042 2085.343506,647.351440 
	C2097.400635,647.351440 2108.241699,647.351440 2119.547852,647.351440 
	C2119.547852,637.042969 2119.547852,627.919617 2119.547852,618.913757 
	C2108.355225,616.900085 2016.098877,617.253540 2008.240479,619.338562 
	C2007.834229,628.351685 2007.004761,637.481201 2008.986328,647.920532 
	C2020.824097,647.920532 2032.269165,647.920532 2044.537842,647.920532 
	C2044.537842,711.504883 2044.537842,773.698486 2044.537842,836.441772 
	C2058.217285,836.441772 2070.978516,836.441772 2084.789307,836.441772 
	C2084.789307,827.476135 2084.789307,819.213684 2084.791260,808.967529 
M934.776428,438.998413 
	C934.776428,451.879364 934.776428,464.760315 934.776428,477.351379 
	C946.502380,479.626190 1019.893677,479.275696 1027.107788,477.194031 
	C1027.107788,468.701782 1027.107788,460.244629 1027.107788,450.662231 
	C1009.856750,450.662231 993.362671,450.662231 975.615845,450.662231 
	C975.615845,386.478973 975.615845,323.427704 975.615845,259.831421 
	C961.545349,259.831421 948.760376,259.831421 934.777588,259.831421 
	C934.777588,319.321014 934.777588,378.160065 934.776428,438.998413 
M2176.483887,619.003052 
	C2163.780762,615.814697 2151.050781,618.114868 2138.065918,617.664062 
	C2138.065918,691.206909 2138.065918,763.596802 2138.065918,836.556396 
	C2151.057129,836.556396 2163.484375,836.556396 2176.659424,836.556396 
	C2176.863770,832.735291 2177.175781,829.503418 2177.186035,826.270691 
	C2177.237061,809.966064 2177.225830,793.661194 2177.206543,777.356445 
	C2177.144287,725.117188 2177.068848,672.877869 2176.483887,619.003052 
M1707.654175,703.000000 
	C1707.654297,725.305481 1707.535156,747.611816 1707.688110,769.916260 
	C1707.839722,792.039368 1707.003540,814.192444 1708.229614,836.352539 
	C1721.788452,836.352539 1734.241577,836.352539 1746.556030,836.352539 
	C1748.640259,820.785889 1747.859985,625.310486 1745.805664,618.455688 
	C1733.331787,618.455688 1720.878784,618.455688 1707.653931,618.455688 
	C1707.653931,646.499817 1707.653931,673.749878 1707.654175,703.000000 
z"/>
<path fill="#FEFFFF" opacity="1.000000" stroke="none" 
	d="
M1366.165283,2375.916992 
	C1365.389893,2367.046387 1364.655029,2359.094727 1363.804688,2349.893311 
	C1359.836548,2349.637451 1356.011963,2349.178223 1352.187134,2349.175781 
	C1284.521484,2349.131836 1216.855835,2349.146729 1149.190186,2349.142334 
	C1127.992798,2349.140869 1126.978394,2348.358887 1123.536621,2327.593994 
	C1107.579590,2231.325439 1091.694458,2135.045410 1075.735596,2038.777344 
	C1059.340942,1939.880981 1042.830200,1841.003784 1026.481567,1742.099731 
	C1009.480896,1639.251709 992.632446,1536.378296 975.680481,1433.522095 
	C964.361267,1364.842896 952.943420,1296.180054 941.652649,1227.496216 
	C939.510193,1214.463013 943.766602,1209.359863 956.651855,1208.891846 
	C959.648071,1208.782959 962.651123,1208.857178 965.651062,1208.857178 
	C1323.312256,1208.856323 1680.973389,1208.856079 2038.634521,1208.859985 
	C2042.300659,1208.860107 2045.984009,1208.698730 2049.629883,1208.986328 
	C2059.904297,1209.797119 2064.487061,1215.505127 2062.930908,1225.738037 
	C2057.723389,1259.982300 2052.425781,1294.212769 2047.128784,1328.443481 
	C2038.776367,1382.421143 2030.399048,1436.394775 2022.027588,1490.369507 
	C2012.278076,1553.230591 2002.496826,1616.086548 1992.780029,1678.952637 
	C1984.436523,1732.932129 1976.194824,1786.927490 1967.852295,1840.907104 
	C1959.560913,1894.556885 1951.183716,1948.193237 1942.873657,2001.840088 
	C1933.900513,2059.766602 1924.951294,2117.696533 1916.010742,2175.628174 
	C1907.832031,2228.622314 1899.726685,2281.627930 1891.477295,2334.611084 
	C1889.721436,2345.887451 1885.875000,2349.036865 1873.789673,2349.088867 
	C1843.124023,2349.220459 1812.457397,2349.142090 1781.791260,2349.143555 
	C1741.458496,2349.145752 1701.125854,2349.143799 1660.793091,2349.143799 
	C1656.896729,2349.143799 1653.000244,2349.143799 1648.206665,2349.143799 
	C1643.048828,2409.753662 1638.003540,2469.041016 1632.868286,2529.383789 
	C1664.203247,2529.383789 1694.386475,2529.383789 1724.149536,2529.383789 
	C1724.693604,2530.652588 1724.867432,2530.948486 1724.943726,2531.268066 
	C1725.013062,2531.558350 1725.114258,2532.010986 1724.967163,2532.158936 
	C1653.716675,2603.709229 1582.448608,2675.242432 1511.161987,2746.756836 
	C1509.556274,2748.367676 1507.736572,2749.765381 1506.735718,2750.636719 
	C1433.356445,2677.257812 1360.387695,2604.289062 1286.607910,2530.509521 
	C1294.111572,2530.390381 1301.515381,2530.225586 1308.920166,2530.168701 
	C1316.586182,2530.109619 1324.253174,2530.155762 1331.919678,2530.155762 
	C1339.586182,2530.155762 1347.252808,2530.155762 1354.919312,2530.155762 
	C1362.506348,2530.155762 1370.093384,2530.155518 1379.049561,2530.155518 
	C1375.261719,2478.140137 1370.529419,2427.503418 1366.165283,2375.916992 
M1705.000000,1257.685913 
	C1466.823608,1257.685913 1228.647217,1257.685913 989.206421,1257.685913 
	C1003.735229,1332.111450 1017.985535,1405.110596 1032.311646,1478.497803 
	C1036.994141,1478.497803 1040.291260,1478.528564 1043.587646,1478.492798 
	C1069.683228,1478.209839 1095.340942,1474.468140 1120.754272,1468.753052 
	C1157.893921,1460.400513 1193.758667,1447.936401 1229.308960,1434.598877 
	C1268.615479,1419.852295 1308.464355,1418.236938 1349.164429,1427.419678 
	C1381.496582,1434.714478 1412.119385,1446.883179 1442.613525,1459.425415 
	C1485.514282,1477.070435 1529.132202,1492.280396 1574.861694,1500.947388 
	C1620.756958,1509.645630 1666.754150,1511.157959 1713.038818,1504.481323 
	C1751.798218,1498.890015 1789.175049,1488.102051 1825.879761,1474.843018 
	C1848.426758,1466.698242 1870.571289,1457.427490 1893.183105,1449.477295 
	C1922.083740,1439.316040 1951.489990,1435.822144 1981.315063,1446.029175 
	C1981.838257,1446.208374 1982.550537,1445.834961 1984.474854,1445.478638 
	C1994.546265,1383.666626 2004.689331,1321.415527 2015.073242,1257.685669 
	C1911.413208,1257.685669 1809.206543,1257.685669 1705.000000,1257.685913 
M1376.653076,1825.688721 
	C1369.273682,1837.579590 1361.581299,1849.289307 1354.574585,1861.395752 
	C1334.735107,1895.674805 1322.988892,1932.375488 1321.186768,1972.216064 
	C1317.752441,2048.140625 1365.907349,2126.254395 1452.508179,2146.515137 
	C1482.761108,2153.592773 1513.458740,2153.479736 1543.886353,2149.284668 
	C1579.043213,2144.437500 1610.706299,2130.197510 1636.146851,2105.111816 
	C1680.930054,2060.953125 1697.145020,2007.095459 1687.013428,1945.223877 
	C1681.554321,1911.886108 1669.395630,1880.989258 1651.063477,1852.710327 
	C1604.299927,1780.573608 1557.216064,1708.644409 1510.230957,1636.651367 
	C1509.005005,1634.772705 1507.442017,1633.114258 1505.046997,1630.113647 
	C1461.623779,1695.158569 1419.042847,1759.487915 1376.653076,1825.688721 
z"/>
<path fill="#FDFFFF" opacity="1.000000" stroke="none" 
	d="
M427.498352,254.282867 
	C440.990479,257.408447 453.905151,259.531250 466.126801,263.690369 
	C493.402405,272.972473 512.729065,291.514923 524.648376,317.698730 
	C537.501953,345.935028 540.406372,375.877838 540.033325,406.301392 
	C532.052856,408.478455 447.084167,408.730682 436.963654,406.661011 
	C436.064209,395.903259 435.262054,385.019440 434.189697,374.162292 
	C433.798737,370.204376 432.830811,366.296143 432.012177,362.389099 
	C428.815430,347.131744 419.355499,338.685333 403.959229,336.809418 
	C381.081238,334.021912 366.946289,342.978638 360.248901,362.689087 
	C354.599854,379.314209 353.032776,396.641113 352.508057,413.906189 
	C351.607208,443.546722 351.911102,473.223969 351.741241,502.885986 
	C351.735809,503.831390 352.081085,504.778778 352.260590,505.713196 
	C352.989288,505.658936 353.873444,505.855621 354.142456,505.535431 
	C367.787445,489.295776 386.112335,481.848846 406.313446,478.714600 
	C427.276031,475.462189 448.224152,476.436188 468.666168,482.546265 
	C493.128204,489.857971 511.466614,504.945923 524.114563,527.105774 
	C535.336182,546.766541 542.130615,567.990845 545.337280,590.220459 
	C552.455811,639.568970 550.865723,688.650391 537.450745,736.849121 
	C533.729370,750.219971 528.094055,763.248108 521.856079,775.691162 
	C506.153687,807.013062 480.507202,826.603760 446.742920,835.228943 
	C414.578217,843.445435 382.154327,843.867737 349.757629,836.247559 
	C314.433594,827.938843 287.855469,807.838745 269.523529,776.588806 
	C255.649551,752.938110 247.373871,727.327637 244.237259,700.286072 
	C242.015930,681.135376 240.819702,661.769836 240.690536,642.489990 
	C240.264114,578.830200 240.330154,515.164917 240.611725,451.503448 
	C240.760864,417.781250 243.130569,384.219116 253.135941,351.709106 
	C255.677948,343.449432 258.756683,335.323975 262.077606,327.340179 
	C279.012695,286.626343 310.073792,263.794922 352.932465,256.061737 
	C377.394745,251.647873 401.959808,251.309067 427.498352,254.282867 
M439.440491,658.995972 
	C438.891785,643.350159 438.582764,627.691101 437.716919,612.062866 
	C437.050354,600.032104 434.990997,588.250549 428.589386,577.643188 
	C422.844879,568.124634 414.527405,562.931458 403.520142,561.552185 
	C385.193939,559.255737 370.219482,565.366943 357.789886,578.768066 
	C353.465363,583.430542 351.486176,588.374084 351.558502,594.895630 
	C351.868896,622.882202 351.480011,650.876648 351.804810,678.862915 
	C351.931976,689.820496 352.778381,700.826782 354.180023,711.697083 
	C355.679413,723.324951 359.127075,734.506042 366.113159,744.212524 
	C374.692474,756.132629 386.690399,760.798767 400.961456,759.509521 
	C415.336304,758.210815 424.851715,750.115784 429.882690,736.787842 
	C431.638550,732.136169 432.928497,727.277954 434.063751,722.428040 
	C438.808624,702.157288 438.334656,681.414062 439.440491,658.995972 
z"/>
<path fill="#FBFFFF" opacity="1.000000" stroke="none" 
	d="
M1622.360352,357.254761 
	C1624.498291,369.487640 1626.506836,380.863342 1628.515503,392.239044 
	C1629.144653,392.269348 1629.773926,392.299652 1630.403076,392.329926 
	C1636.065430,348.285614 1641.727783,304.241272 1647.444580,259.773621 
	C1658.545776,259.773621 1668.737427,259.773621 1678.889526,259.773621 
	C1680.155273,267.969910 1655.425049,447.505554 1648.856689,477.944580 
	C1638.655518,477.944580 1628.255737,477.944580 1617.063110,477.944580 
	C1609.235107,431.847656 1601.448120,385.992737 1593.661255,340.137817 
	C1586.934082,362.695648 1584.015625,385.858185 1579.974365,408.796967 
	C1575.939575,431.698853 1572.189819,454.650970 1568.223755,478.121948 
	C1557.133179,478.121948 1546.657959,478.121948 1534.945312,478.121948 
	C1524.590332,405.723053 1514.248657,333.418060 1503.923218,261.226776 
	C1511.756470,258.784546 1526.136963,258.451538 1537.696167,260.426941 
	C1543.281250,303.984344 1548.902832,347.827148 1554.524414,391.669922 
	C1561.109985,370.166351 1563.720337,347.960785 1567.637085,326.022308 
	C1571.547241,304.121460 1574.927124,282.125916 1578.606567,259.764038 
	C1587.894653,259.764038 1596.421143,259.764038 1605.912720,259.764038 
	C1611.390015,292.198822 1616.810547,324.298218 1622.360352,357.254761 
z"/>
<path fill="#F9FFFE" opacity="1.000000" stroke="none" 
	d="
M1415.505127,396.000061 
	C1415.504883,423.615875 1415.504883,450.231689 1415.504883,477.822601 
	C1406.544800,479.583618 1398.059570,478.616058 1388.794556,478.587616 
	C1371.844116,437.928436 1354.926025,397.346466 1338.007812,356.764526 
	C1337.142334,356.955078 1336.276855,357.145630 1335.411377,357.336182 
	C1335.411377,397.349457 1335.411377,437.362762 1335.411377,478.084076 
	C1323.418823,478.084076 1312.640503,478.084076 1301.175049,478.084076 
	C1301.175049,405.261353 1301.175049,332.887634 1301.175049,260.071136 
	C1303.848022,259.745392 1306.094971,259.270905 1308.348877,259.234741 
	C1314.957397,259.128662 1321.568848,259.196960 1328.534424,259.196960 
	C1345.709106,298.803284 1362.594482,337.742462 1379.479980,376.681610 
	C1382.669922,363.665466 1381.755981,350.935883 1381.924316,338.259033 
	C1382.096924,325.272949 1381.962646,312.282806 1381.962646,299.294434 
	C1381.962646,286.345734 1381.962646,273.397003 1381.962646,259.826477 
	C1393.299683,259.826477 1403.776123,259.826477 1415.505493,259.826477 
	C1415.505493,305.294891 1415.505493,350.147461 1415.505127,396.000061 
z"/>
<path fill="#FAFFFE" opacity="1.000000" stroke="none" 
	d="
M1579.786621,837.181396 
	C1573.256226,837.180786 1567.658569,837.180786 1562.361328,837.180786 
	C1560.112183,828.910034 1559.666748,630.245972 1561.718140,618.367615 
	C1570.384033,618.367615 1579.184448,618.367615 1588.807861,618.367615 
	C1605.616699,657.121826 1622.501343,696.050720 1639.386108,734.979553 
	C1640.171875,734.854797 1640.957642,734.730042 1641.743530,734.605225 
	C1642.374146,696.063416 1641.586304,657.487183 1642.175659,618.311035 
	C1653.259155,618.311035 1663.429565,618.311035 1673.591431,618.311035 
	C1675.934692,625.146118 1676.951294,816.912476 1674.641479,836.459106 
	C1666.376465,837.808228 1657.881958,837.119507 1648.690430,836.888794 
	C1631.682373,796.047607 1614.761963,755.416443 1597.841431,714.785278 
	C1597.102417,714.961243 1596.363281,715.137268 1595.624268,715.313232 
	C1593.833984,724.951660 1595.061890,734.773499 1594.852783,744.495850 
	C1594.630859,754.815125 1594.802856,765.143005 1594.802856,775.467102 
	C1594.802856,785.458191 1594.802856,795.449219 1594.802856,805.440308 
	C1594.802856,815.398987 1594.802856,825.357666 1594.802856,836.520935 
	C1589.696289,836.760620 1585.207886,836.971313 1579.786621,837.181396 
z"/>
<path fill="#FCFFFF" opacity="1.000000" stroke="none" 
	d="
M2056.299805,427.999939 
	C2056.299805,371.702209 2056.299805,316.404480 2056.299805,260.571655 
	C2058.973877,260.063904 2061.141113,259.286407 2063.303955,259.298889 
	C2082.629395,259.410706 2101.962646,259.399231 2121.274658,260.017303 
	C2127.853027,260.227814 2134.523682,261.594238 2140.898926,263.351227 
	C2160.509033,268.755676 2172.664307,281.666260 2175.193115,301.863098 
	C2176.585449,312.982727 2176.326904,324.538513 2175.077637,335.703613 
	C2173.365479,351.010010 2166.166016,363.569855 2150.359131,370.736786 
	C2160.343750,406.438446 2170.171143,441.577667 2180.145508,477.242798 
	C2173.387695,480.044617 2166.731201,478.426880 2160.294922,478.717072 
	C2153.995850,479.001068 2147.674072,478.778870 2140.789551,478.778870 
	C2139.734863,475.588348 2138.667480,472.857178 2137.926270,470.040161 
	C2130.978516,443.631561 2124.118896,417.199799 2117.165771,390.792725 
	C2113.686279,377.578613 2111.676514,376.560394 2096.588135,380.570740 
	C2096.588135,412.529266 2096.588135,444.752350 2096.588135,478.411926 
	C2082.994141,479.042145 2070.280029,478.878143 2056.299561,478.480499 
	C2056.299561,461.439789 2056.299561,445.219879 2056.299805,427.999939 
M2125.648682,349.249817 
	C2131.001709,346.545288 2134.571045,342.281891 2136.191162,336.555267 
	C2139.438721,325.074677 2139.430908,313.534210 2136.120605,302.069580 
	C2134.569580,296.697723 2131.305664,292.390045 2126.072266,290.281281 
	C2116.629150,286.476257 2106.860596,286.059967 2097.049805,287.688202 
	C2097.049805,309.772980 2097.049805,330.920990 2097.049805,352.473083 
	C2106.784668,353.598846 2115.590332,352.922485 2125.648682,349.249817 
z"/>
<path fill="#FCFFFF" opacity="1.000000" stroke="none" 
	d="
M1164.957153,831.296814 
	C1154.141846,833.452637 1144.082886,836.358154 1133.899658,836.890320 
	C1116.949341,837.776306 1099.919556,837.161743 1082.923340,837.116394 
	C1080.980103,837.111206 1079.037842,836.705078 1076.484619,836.415649 
	C1076.484619,763.880554 1076.484619,691.712830 1076.484619,618.838379 
	C1078.436768,618.480408 1080.608154,617.739014 1082.779785,617.737976 
	C1101.107910,617.729187 1119.447021,617.514893 1137.758911,618.105225 
	C1145.329102,618.349243 1153.000977,619.803894 1160.347046,621.758545 
	C1177.603149,626.350037 1188.461548,637.854614 1192.945312,654.995117 
	C1194.701172,661.707153 1195.954346,668.759888 1196.016357,675.670227 
	C1196.318359,709.325134 1196.333008,742.986389 1195.977295,776.640442 
	C1195.900879,783.873352 1194.450073,791.236145 1192.620483,798.276062 
	C1188.739380,813.209351 1180.233887,824.688354 1164.957153,831.296814 
M1143.902344,805.726501 
	C1150.148071,802.624146 1152.997192,797.116272 1154.089111,790.638977 
	C1154.915894,785.733459 1155.606567,780.735046 1155.627441,775.774963 
	C1155.766235,742.835571 1155.793823,709.894897 1155.626587,676.955811 
	C1155.599731,671.681458 1154.720337,666.351990 1153.685303,661.157471 
	C1152.414673,654.779968 1148.209961,650.403198 1142.140137,648.474670 
	C1133.866821,645.846191 1125.366333,645.306152 1116.957764,647.306702 
	C1114.822144,662.266174 1115.602783,801.090271 1118.236206,809.233459 
	C1126.082520,808.273682 1134.224121,807.277771 1143.902344,805.726501 
z"/>
<path fill="#FBFFFF" opacity="1.000000" stroke="none" 
	d="
M2394.023193,819.849243 
	C2394.023193,825.783020 2394.023193,830.740723 2394.023193,836.432495 
	C2382.407959,836.432495 2371.629639,836.432495 2360.466064,836.432495 
	C2360.466064,763.522827 2360.466064,691.327454 2360.466064,617.661560 
	C2365.101562,617.661560 2369.309814,617.661560 2373.518311,617.661560 
	C2377.833984,617.661560 2382.149658,617.661560 2387.682617,617.661560 
	C2404.530273,656.529358 2421.395996,695.438416 2438.261475,734.347473 
	C2439.018799,734.232971 2439.776123,734.118530 2440.533203,734.004028 
	C2441.277100,695.749573 2440.390869,657.456726 2441.028564,618.439697 
	C2452.189453,618.439697 2462.598877,618.439697 2473.677979,618.439697 
	C2473.677979,691.148499 2473.677979,763.569946 2473.677979,837.112976 
	C2466.204102,837.112976 2459.277100,837.010254 2452.354736,837.147949 
	C2447.489502,837.244690 2446.521484,833.641663 2445.107666,830.231934 
	C2433.370117,801.923950 2421.611084,773.625122 2409.825928,745.337036 
	C2405.390137,734.689697 2400.867920,724.078369 2396.385010,713.450623 
	C2395.597656,713.574402 2394.810547,713.698181 2394.023193,713.821960 
	C2394.023193,748.839050 2394.023193,783.856140 2394.023193,819.849243 
z"/>
<path fill="#FCFFFF" opacity="1.000000" stroke="none" 
	d="
M964.176147,827.540649 
	C964.039124,830.789429 963.902649,833.094788 963.714539,836.272095 
	C952.750488,836.272095 942.014282,836.272095 930.623474,836.272095 
	C930.623474,763.816589 930.623474,691.645813 930.623474,618.793945 
	C939.329285,616.603577 948.195557,617.991028 957.883606,617.841797 
	C974.623413,656.402649 991.358521,694.952637 1008.093567,733.502686 
	C1008.946106,733.315308 1009.798706,733.127930 1010.651245,732.940613 
	C1011.842468,720.591064 1011.052734,708.143066 1011.187073,695.748657 
	C1011.327942,682.750488 1011.218567,669.749695 1011.218567,656.750000 
	C1011.218567,644.133728 1011.218567,631.517456 1011.218567,618.292908 
	C1022.362732,618.292908 1032.536377,618.292908 1042.678467,618.292908 
	C1044.673340,625.418091 1045.315063,823.028320 1043.237793,837.044373 
	C1036.202393,837.044373 1028.962891,837.071655 1021.723755,837.034180 
	C1017.343323,837.011536 1016.628662,833.352234 1015.374817,830.353455 
	C1007.535706,811.604309 999.735962,792.838806 991.929993,774.075806 
	C984.635925,756.543213 977.363647,739.001465 970.046997,721.478271 
	C968.915894,718.769287 967.598938,716.137878 966.423157,713.590210 
	C965.587219,713.773926 965.221924,713.777649 964.948425,713.937988 
	C964.723206,714.070190 964.463257,714.387451 964.462585,714.623413 
	C964.352844,751.947998 964.265198,789.272644 964.176147,827.540649 
z"/>
<path fill="#FDFFFF" opacity="1.000000" stroke="none" 
	d="
M2205.674316,734.000000 
	C2205.735596,715.005981 2205.334473,696.993530 2206.049805,679.025574 
	C2206.416992,669.805359 2207.793701,660.368713 2210.443359,651.549438 
	C2215.941406,633.248535 2228.252930,621.433105 2247.341309,617.425476 
	C2262.552002,614.231995 2277.768555,614.161438 2292.869629,618.012024 
	C2308.071533,621.888306 2318.800781,631.176758 2325.045166,645.563599 
	C2329.475098,655.769531 2331.900146,666.510193 2331.960449,677.593079 
	C2332.140625,710.581177 2332.342285,743.576050 2331.807861,776.556519 
	C2331.664551,785.408142 2329.834473,794.500977 2327.193604,802.989868 
	C2321.004883,822.881226 2307.153564,834.583801 2286.487549,838.251099 
	C2272.139404,840.797302 2257.990479,840.436462 2243.946289,836.517395 
	C2229.535156,832.496033 2219.449707,823.475403 2213.347168,809.917480 
	C2208.636719,799.452698 2206.218262,788.416504 2205.983643,776.983276 
	C2205.696777,762.992615 2205.761719,748.994751 2205.674316,734.000000 
M2268.933105,809.895264 
	C2283.482666,808.427124 2288.150879,804.173523 2290.482422,789.826477 
	C2291.174561,785.568542 2291.634766,781.220947 2291.646729,776.912903 
	C2291.739990,743.582153 2291.824707,710.250061 2291.583008,676.920776 
	C2291.537598,670.661316 2290.682129,664.231201 2289.029541,658.200623 
	C2286.449219,648.784424 2278.996582,644.371216 2268.253174,644.672058 
	C2257.721191,644.966980 2251.219727,649.235535 2248.664551,658.512390 
	C2247.263916,663.596680 2246.436279,669.005371 2246.406982,674.273621 
	C2246.212646,709.270142 2246.263916,744.268372 2246.360352,779.265625 
	C2246.371338,783.233826 2246.904053,787.248108 2247.637451,791.158081 
	C2250.039795,803.970947 2254.055420,807.693237 2268.933105,809.895264 
z"/>
<path fill="#FAFFFE" opacity="1.000000" stroke="none" 
	d="
M787.841064,424.286987 
	C787.812317,386.765686 787.640442,350.133820 788.065308,313.508881 
	C788.144775,306.653595 790.110840,299.677826 792.075439,293.013916 
	C797.555664,274.425385 810.169373,263.162506 828.985413,258.878448 
	C842.842346,255.723495 856.748901,255.792862 870.608276,258.933777 
	C888.472656,262.982330 899.984497,274.022644 905.248230,291.392883 
	C909.850769,306.581543 909.392090,322.204254 908.977966,338.771606 
	C896.184570,340.191803 884.048340,339.164520 870.851135,339.467407 
	C870.577454,335.593109 870.245483,332.431580 870.151245,329.262939 
	C869.903870,320.939606 870.267822,312.563080 869.452454,304.300110 
	C868.311462,292.736755 862.416138,287.298584 851.582031,286.485443 
	C839.848694,285.604797 832.178711,290.861633 829.618347,302.255829 
	C828.461609,307.403778 827.982727,312.802460 827.959717,318.090698 
	C827.814697,351.412964 827.787537,384.736725 827.972351,418.058563 
	C828.005310,424.002045 828.684448,430.057495 829.988403,435.853577 
	C832.444641,446.771576 839.218933,451.792694 849.935852,451.582367 
	C860.807434,451.369019 867.152649,446.295715 869.064880,434.979370 
	C870.165466,428.465973 869.928040,421.711334 870.097778,415.060333 
	C870.248291,409.159698 870.129333,403.252228 870.129333,396.759430 
	C883.501404,396.759430 895.642761,396.759430 908.690308,396.759430 
	C909.553833,417.770569 910.222290,438.263062 900.092346,457.370483 
	C894.648926,467.637970 886.086975,474.201080 875.186951,477.683624 
	C859.224243,482.783722 843.092529,482.959320 826.915527,478.609772 
	C810.626648,474.230164 799.189514,464.198212 793.519043,448.370178 
	C790.851746,440.924805 789.727722,432.926575 787.841064,424.286987 
z"/>
<path fill="#FCFFFF" opacity="1.000000" stroke="none" 
	d="
M1273.088379,478.767181 
	C1262.919800,478.772705 1253.651489,478.772705 1243.588745,478.772705 
	C1240.498047,461.744690 1237.547729,445.490082 1234.483521,428.607849 
	C1221.902954,428.607849 1209.812134,428.607849 1196.982910,428.607849 
	C1193.937012,445.108765 1190.936157,461.365570 1187.841675,478.129150 
	C1175.396606,478.129150 1163.547119,478.129150 1150.144775,478.129150 
	C1164.643066,405.085968 1179.593872,332.630310 1194.418701,259.766357 
	C1208.459106,259.766357 1221.702026,259.766357 1236.407715,259.766357 
	C1251.325195,331.929932 1265.924561,404.492950 1280.650269,477.776306 
	C1277.718506,478.209961 1275.853516,478.485809 1273.088379,478.767181 
M1222.156738,352.615234 
	C1219.999878,341.377228 1219.413330,329.790588 1215.325317,318.955048 
	C1212.386475,332.503937 1210.171143,345.911621 1208.005127,359.327271 
	C1205.801392,372.977020 1203.646240,386.634583 1201.348389,401.049744 
	C1211.478394,401.049744 1220.243530,401.049744 1230.099121,401.049744 
	C1227.442017,384.950043 1224.915894,369.643646 1222.156738,352.615234 
z"/>
<path fill="#FCFFFF" opacity="1.000000" stroke="none" 
	d="
M1772.973633,441.193665 
	C1771.993896,436.495544 1771.225586,432.633362 1770.380737,428.387665 
	C1757.883423,428.387665 1746.010376,428.387665 1733.183105,428.387665 
	C1730.080566,445.059082 1727.001709,461.603638 1723.911621,478.207825 
	C1711.146851,478.207825 1699.281494,478.207825 1686.103394,478.207825 
	C1700.957397,405.109528 1715.647949,332.814880 1730.456665,259.938599 
	C1744.481445,259.938599 1757.967651,259.938599 1772.689697,259.938599 
	C1787.323486,332.133453 1801.977783,404.428802 1816.878662,477.940765 
	C1804.131836,479.496704 1792.387329,478.601410 1779.602905,478.587708 
	C1777.411865,466.107208 1775.298340,454.068420 1772.973633,441.193665 
M1763.647217,401.346893 
	C1764.096802,398.674896 1765.271484,395.892120 1764.882812,393.348175 
	C1761.321777,370.040955 1757.510620,346.771667 1753.693237,323.504303 
	C1753.405396,321.750092 1752.506958,320.096039 1751.084106,316.159515 
	C1746.680786,345.973328 1741.146973,373.106537 1737.812134,401.616913 
	C1746.730835,401.616913 1754.317017,401.616913 1763.647217,401.346893 
z"/>
<path fill="#FBFFFF" opacity="1.000000" stroke="none" 
	d="
M1410.895142,835.393921 
	C1421.975708,777.866150 1433.425659,721.068848 1444.877197,664.271912 
	C1447.312744,652.192505 1449.720581,640.107300 1452.218140,628.040649 
	C1452.880859,624.838379 1453.829224,621.695129 1454.740723,618.158936 
	C1468.376831,618.158936 1481.623047,618.158936 1496.346436,618.158936 
	C1511.365356,690.390076 1525.766113,762.972046 1540.741211,836.446777 
	C1527.874268,836.446777 1516.373413,836.446777 1503.438110,836.446777 
	C1500.481689,820.268921 1497.460693,803.737671 1494.361816,786.780640 
	C1481.785767,786.780640 1469.933105,786.780640 1457.006348,786.780640 
	C1453.923950,803.326294 1450.843262,819.862000 1447.813599,836.124634 
	C1435.035767,836.124634 1423.150269,836.124634 1410.895142,835.393921 
M1462.604248,749.791016 
	C1462.442749,752.926147 1462.281250,756.061279 1462.107788,759.428833 
	C1471.803833,759.428833 1480.313721,759.428833 1488.802979,759.428833 
	C1489.125000,746.723450 1477.919678,682.201660 1474.550049,677.123657 
	C1470.681519,700.861450 1466.834473,724.467957 1462.604248,749.791016 
z"/>
<path fill="#FBFFFF" opacity="1.000000" stroke="none" 
	d="
M1915.332275,662.971558 
	C1918.436401,647.793823 1921.346069,633.441772 1924.391846,618.418457 
	C1938.150391,618.418457 1951.658691,618.418457 1966.664673,618.418457 
	C1981.282959,690.544739 1995.982056,763.069763 2010.869141,836.522095 
	C1997.816528,836.522095 1986.303223,836.522095 1973.503418,836.522095 
	C1970.536865,820.100708 1967.547729,803.554260 1964.501831,786.693848 
	C1951.769775,786.693848 1939.907471,786.693848 1927.139404,786.693848 
	C1924.019165,803.469299 1920.942383,820.011414 1917.860229,836.582153 
	C1905.037598,836.582153 1893.163574,836.582153 1880.019409,836.582153 
	C1891.835327,778.447388 1903.486694,721.122375 1915.332275,662.971558 
M1957.861938,745.053101 
	C1954.104980,722.286743 1950.347900,699.520386 1946.590942,676.754028 
	C1945.948608,676.808472 1945.306274,676.862915 1944.663940,676.917358 
	C1940.277344,704.179382 1935.890625,731.441406 1931.411621,759.277954 
	C1941.695557,759.277954 1950.456543,759.277954 1959.862427,759.277954 
	C1959.185913,754.573364 1958.624634,750.670044 1957.861938,745.053101 
z"/>
<path fill="#FBFFFF" opacity="1.000000" stroke="none" 
	d="
M890.361450,739.276123 
	C896.948547,771.731140 903.379639,803.350342 909.791504,834.875000 
	C902.805054,837.650574 884.413208,838.132019 872.608887,835.870850 
	C869.712830,819.839844 866.766541,803.530945 863.738281,786.768188 
	C851.299377,786.768188 839.425110,786.768188 826.359558,786.768188 
	C823.367432,802.976624 820.369629,819.215698 817.172974,836.531921 
	C804.987976,837.825867 792.898438,836.985474 779.178345,837.000305 
	C794.115112,763.456848 808.799927,691.153809 823.726257,617.661499 
	C831.110352,617.661499 837.994080,617.661499 844.877747,617.661499 
	C851.502625,617.661499 858.127502,617.661499 865.731384,617.661499 
	C873.973206,658.334656 882.089355,698.387512 890.361450,739.276123 
M853.344543,721.671509 
	C850.801331,706.644958 848.258118,691.618347 845.714905,676.591797 
	C845.135742,676.625854 844.556641,676.659912 843.977478,676.694031 
	C839.546570,704.074280 835.115662,731.454590 830.595154,759.388794 
	C840.705139,759.388794 849.501526,759.388794 859.170898,759.388794 
	C857.255066,746.908447 855.450195,735.150879 853.344543,721.671509 
z"/>
<path fill="#FBFFFF" opacity="1.000000" stroke="none" 
	d="
M1389.367188,644.846436 
	C1393.056885,654.627258 1395.216187,663.921936 1395.140015,674.723328 
	C1384.350708,676.800598 1373.716553,678.848022 1362.197266,681.065857 
	C1361.463745,677.294495 1360.926880,674.487854 1360.370483,671.685242 
	C1359.465454,667.126587 1359.009033,662.415405 1357.540283,658.045105 
	C1354.310181,648.433899 1347.482544,644.510376 1337.398315,645.799927 
	C1327.926392,647.011169 1322.433105,653.213135 1321.615845,663.384644 
	C1320.761963,674.012329 1323.928711,683.234863 1331.628296,690.542542 
	C1339.836060,698.332581 1348.546631,705.590637 1356.831177,713.302856 
	C1365.108521,721.008301 1373.729980,728.465393 1381.136597,736.959229 
	C1395.632202,753.582764 1402.157349,773.106689 1398.722412,795.243835 
	C1394.764771,820.750305 1376.610107,837.759827 1350.810303,839.476074 
	C1342.297119,840.042358 1333.454346,839.147827 1325.072876,837.417236 
	C1311.009277,834.513550 1300.450073,826.126953 1293.331177,813.550842 
	C1286.893555,802.178406 1283.270386,785.416443 1284.794189,772.396973 
	C1295.387939,770.148743 1306.267334,767.839905 1317.960327,765.358398 
	C1318.687500,770.850769 1318.853760,775.171631 1319.895630,779.269897 
	C1321.522827,785.670166 1323.091431,792.226074 1325.879272,798.154297 
	C1329.258545,805.340332 1335.633667,808.739136 1343.807373,808.501770 
	C1353.154663,808.230347 1358.803345,803.694885 1360.260864,794.389099 
	C1362.539062,779.842834 1358.024536,767.266235 1347.715698,757.057373 
	C1339.917236,749.334534 1331.417480,742.320068 1323.236328,734.983154 
	C1316.048096,728.536682 1308.514282,722.429077 1301.753174,715.561401 
	C1283.009277,696.522156 1280.054932,673.480469 1286.779175,648.830078 
	C1290.593628,634.846558 1300.365845,625.310181 1313.806152,619.944641 
	C1328.152710,614.217346 1343.025024,613.564758 1357.962891,617.065125 
	C1372.970703,620.581787 1383.275513,629.851196 1389.367188,644.846436 
z"/>
<path fill="#FCFFFF" opacity="1.000000" stroke="none" 
	d="
M1090.591797,288.155823 
	C1089.047607,289.458313 1087.915894,290.573669 1087.909546,291.695557 
	C1087.800537,310.659760 1087.831421,329.624817 1087.831421,349.521729 
	C1100.991943,351.366608 1113.939331,349.418060 1127.210205,350.810791 
	C1129.282104,359.825989 1128.180664,368.635956 1127.947021,378.712341 
	C1114.675903,378.712341 1101.864258,378.712341 1088.388916,378.712341 
	C1088.388916,403.118134 1088.388916,426.249207 1088.388916,450.815247 
	C1105.575073,450.815247 1122.362915,450.815247 1139.560791,450.815247 
	C1139.560791,460.486206 1139.560791,468.728821 1139.560791,476.905792 
	C1132.123047,479.229614 1070.020630,480.083557 1048.990479,478.218719 
	C1046.767212,471.228149 1045.790405,281.079559 1047.874023,260.896942 
	C1054.981934,258.792358 1127.036621,258.364105 1138.790771,260.485077 
	C1138.790771,269.116974 1138.790771,277.875336 1138.790771,287.971680 
	C1122.654541,287.971680 1107.091187,287.971680 1090.591797,288.155823 
z"/>
<path fill="#FBFFFF" opacity="1.000000" stroke="none" 
	d="
M1986.000854,259.212402 
	C2002.275269,259.213287 2017.549805,259.213287 2033.494629,259.213287 
	C2033.494629,268.912445 2033.494629,277.683136 2033.494629,287.635712 
	C2016.719238,287.635712 2000.228149,287.635712 1983.057617,287.635712 
	C1983.057617,308.891907 1983.057617,328.977509 1983.057617,350.083466 
	C1996.357788,350.083466 2009.204346,350.083466 2022.470337,350.083466 
	C2024.633667,359.801758 2023.518677,368.614380 2023.400146,378.883026 
	C2009.744751,378.883026 1996.617432,378.883026 1982.945312,378.883026 
	C1982.945312,403.184937 1982.945312,426.023743 1982.945312,449.906250 
	C1999.765747,452.272156 2016.693726,449.603180 2033.966553,451.457489 
	C2036.228027,460.014160 2034.922485,468.537018 2034.910522,476.884827 
	C2027.502930,479.215759 1954.274902,479.698181 1942.719727,477.512268 
	C1942.719727,405.216125 1942.719727,332.809387 1942.719727,259.211487 
	C1957.153442,259.211487 1971.077148,259.211487 1986.000854,259.212402 
z"/>
<path fill="#F7FEFE" opacity="1.000000" stroke="none" 
	d="
M1841.223145,694.000183 
	C1841.222534,741.865295 1841.222534,788.730408 1841.222534,836.398865 
	C1827.530762,836.398865 1814.781128,836.398865 1800.644775,836.398865 
	C1800.310669,815.349182 1800.531494,794.519043 1800.491333,773.696960 
	C1800.451660,753.062134 1800.482910,732.427185 1800.482910,711.792297 
	C1800.482910,690.888611 1800.482788,669.984985 1800.482788,647.709900 
	C1788.127930,647.709900 1776.693359,647.709900 1764.629150,647.709900 
	C1764.629150,637.186523 1764.629150,628.037170 1764.629150,618.183105 
	C1801.485107,618.183105 1838.256714,618.183105 1875.770996,618.183105 
	C1875.770996,627.573853 1875.770996,636.987366 1875.770996,647.476196 
	C1864.514282,647.476196 1853.680420,647.476196 1841.495117,647.476196 
	C1840.966187,663.317322 1841.342773,678.167908 1841.223145,694.000183 
z"/>
<path fill="#FBFFFF" opacity="1.000000" stroke="none" 
	d="
M1926.339478,272.136719 
	C1926.339600,278.012909 1926.339600,282.944000 1926.339600,289.001648 
	C1914.510376,289.001648 1903.657471,289.001648 1891.728027,289.001648 
	C1889.867798,310.823639 1891.053223,331.645935 1890.838501,352.414154 
	C1890.625244,373.048126 1890.791870,393.686005 1890.791870,414.322174 
	C1890.791870,435.259705 1890.791870,456.197235 1890.791870,477.958588 
	C1877.381470,477.958588 1864.650513,477.958588 1850.612183,477.958588 
	C1850.612183,415.328888 1850.612183,352.978668 1850.612183,289.251343 
	C1837.905273,289.251343 1826.460083,289.251343 1814.510376,289.251343 
	C1814.510376,278.696594 1814.510376,269.534393 1814.510376,259.794159 
	C1851.780762,259.794159 1888.577759,259.794159 1926.339355,259.794159 
	C1926.339355,263.979553 1926.339355,267.585571 1926.339478,272.136719 
z"/>
<path fill="#FBFFFF" opacity="1.000000" stroke="none" 
	d="
M2084.790283,809.959412 
	C2084.789307,819.213684 2084.789307,827.476135 2084.789307,836.441772 
	C2070.978516,836.441772 2058.217285,836.441772 2044.537842,836.441772 
	C2044.537842,773.698486 2044.537842,711.504883 2044.537842,647.920532 
	C2032.269165,647.920532 2020.824097,647.920532 2008.986328,647.920532 
	C2007.004761,637.481201 2007.834229,628.351685 2008.240479,619.338562 
	C2016.098877,617.253540 2108.355225,616.900085 2119.547852,618.913757 
	C2119.547852,627.919617 2119.547852,637.042969 2119.547852,647.351440 
	C2108.241699,647.351440 2097.400635,647.351440 2085.343506,647.351440 
	C2084.293701,661.605042 2084.926514,674.812744 2084.817383,687.978943 
	C2084.704102,701.643433 2084.791992,715.309509 2084.791992,728.974915 
	C2084.791992,742.307007 2084.792236,755.639099 2084.791992,768.971191 
	C2084.791992,782.303284 2084.791504,795.635437 2084.790283,809.959412 
z"/>
<path fill="#F7FEFE" opacity="1.000000" stroke="none" 
	d="
M934.776978,437.998749 
	C934.777588,378.160065 934.777588,319.321014 934.777588,259.831421 
	C948.760376,259.831421 961.545349,259.831421 975.615845,259.831421 
	C975.615845,323.427704 975.615845,386.478973 975.615845,450.662231 
	C993.362671,450.662231 1009.856750,450.662231 1027.107788,450.662231 
	C1027.107788,460.244629 1027.107788,468.701782 1027.107788,477.194031 
	C1019.893677,479.275696 946.502380,479.626190 934.776428,477.351379 
	C934.776428,464.760315 934.776428,451.879364 934.776978,437.998749 
z"/>
<path fill="#F9FFFE" opacity="1.000000" stroke="none" 
	d="
M2176.741211,619.820801 
	C2177.068848,672.877869 2177.144287,725.117188 2177.206543,777.356445 
	C2177.225830,793.661194 2177.237061,809.966064 2177.186035,826.270691 
	C2177.175781,829.503418 2176.863770,832.735291 2176.659424,836.556396 
	C2163.484375,836.556396 2151.057129,836.556396 2138.065918,836.556396 
	C2138.065918,763.596802 2138.065918,691.206909 2138.065918,617.664062 
	C2151.050781,618.114868 2163.780762,615.814697 2176.741211,619.820801 
z"/>
<path fill="#FAFFFE" opacity="1.000000" stroke="none" 
	d="
M1707.654053,702.000000 
	C1707.653931,673.749878 1707.653931,646.499817 1707.653931,618.455688 
	C1720.878784,618.455688 1733.331787,618.455688 1745.805664,618.455688 
	C1747.859985,625.310486 1748.640259,820.785889 1746.556030,836.352539 
	C1734.241577,836.352539 1721.788452,836.352539 1708.229614,836.352539 
	C1707.003540,814.192444 1707.839722,792.039368 1707.688110,769.916260 
	C1707.535156,747.611816 1707.654297,725.305481 1707.654053,702.000000 
z"/>
<path fill="#2FEEE9" opacity="1.000000" stroke="none" 
	d="
M1706.000000,1257.685791 
	C1809.206543,1257.685669 1911.413208,1257.685669 2015.073242,1257.685669 
	C2004.689331,1321.415527 1994.546265,1383.666626 1984.474854,1445.478638 
	C1982.550537,1445.834961 1981.838257,1446.208374 1981.315063,1446.029175 
	C1951.489990,1435.822144 1922.083740,1439.316040 1893.183105,1449.477295 
	C1870.571289,1457.427490 1848.426758,1466.698242 1825.879761,1474.843018 
	C1789.175049,1488.102051 1751.798218,1498.890015 1713.038818,1504.481323 
	C1666.754150,1511.157959 1620.756958,1509.645630 1574.861694,1500.947388 
	C1529.132202,1492.280396 1485.514282,1477.070435 1442.613525,1459.425415 
	C1412.119385,1446.883179 1381.496582,1434.714478 1349.164429,1427.419678 
	C1308.464355,1418.236938 1268.615479,1419.852295 1229.308960,1434.598877 
	C1193.758667,1447.936401 1157.893921,1460.400513 1120.754272,1468.753052 
	C1095.340942,1474.468140 1069.683228,1478.209839 1043.587646,1478.492798 
	C1040.291260,1478.528564 1036.994141,1478.497803 1032.311646,1478.497803 
	C1017.985535,1405.110596 1003.735229,1332.111450 989.206421,1257.685913 
	C1228.647217,1257.685913 1466.823608,1257.685913 1706.000000,1257.685791 
z"/>
<path fill="#30EEE9" opacity="1.000000" stroke="none" 
	d="
M1377.058105,1825.085693 
	C1419.042847,1759.487915 1461.623779,1695.158569 1505.046997,1630.113647 
	C1507.442017,1633.114258 1509.005005,1634.772705 1510.230957,1636.651367 
	C1557.216064,1708.644409 1604.299927,1780.573608 1651.063477,1852.710327 
	C1669.395630,1880.989258 1681.554321,1911.886108 1687.013428,1945.223877 
	C1697.145020,2007.095459 1680.930054,2060.953125 1636.146851,2105.111816 
	C1610.706299,2130.197510 1579.043213,2144.437500 1543.886353,2149.284668 
	C1513.458740,2153.479736 1482.761108,2153.592773 1452.508179,2146.515137 
	C1365.907349,2126.254395 1317.752441,2048.140625 1321.186768,1972.216064 
	C1322.988892,1932.375488 1334.735107,1895.674805 1354.574585,1861.395752 
	C1361.581299,1849.289307 1369.273682,1837.579590 1377.058105,1825.085693 
z"/>
<path fill="#30EEE9" opacity="1.000000" stroke="none" 
	d="
M439.438507,659.905396 
	C438.334656,681.414062 438.808624,702.157288 434.063751,722.428040 
	C432.928497,727.277954 431.638550,732.136169 429.882690,736.787842 
	C424.851715,750.115784 415.336304,758.210815 400.961456,759.509521 
	C386.690399,760.798767 374.692474,756.132629 366.113159,744.212524 
	C359.127075,734.506042 355.679413,723.324951 354.180023,711.697083 
	C352.778381,700.826782 351.931976,689.820496 351.804810,678.862915 
	C351.480011,650.876648 351.868896,622.882202 351.558502,594.895630 
	C351.486176,588.374084 353.465363,583.430542 357.789886,578.768066 
	C370.219482,565.366943 385.193939,559.255737 403.520142,561.552185 
	C414.527405,562.931458 422.844879,568.124634 428.589386,577.643188 
	C434.990997,588.250549 437.050354,600.032104 437.716919,612.062866 
	C438.582764,627.691101 438.891785,643.350159 439.438507,659.905396 
z"/>
<path fill="#34EEEA" opacity="1.000000" stroke="none" 
	d="
M2124.925781,349.569855 
	C2115.590332,352.922485 2106.784668,353.598846 2097.049805,352.473083 
	C2097.049805,330.920990 2097.049805,309.772980 2097.049805,287.688202 
	C2106.860596,286.059967 2116.629150,286.476257 2126.072266,290.281281 
	C2131.305664,292.390045 2134.569580,296.697723 2136.120605,302.069580 
	C2139.430908,313.534210 2139.438721,325.074677 2136.191162,336.555267 
	C2134.571045,342.281891 2131.001709,346.545288 2124.925781,349.569855 
z"/>
<path fill="#34EEEA" opacity="1.000000" stroke="none" 
	d="
M1143.134033,806.004150 
	C1134.224121,807.277771 1126.082520,808.273682 1118.236206,809.233459 
	C1115.602783,801.090271 1114.822144,662.266174 1116.957764,647.306702 
	C1125.366333,645.306152 1133.866821,645.846191 1142.140137,648.474670 
	C1148.209961,650.403198 1152.414673,654.779968 1153.685303,661.157471 
	C1154.720337,666.351990 1155.599731,671.681458 1155.626587,676.955811 
	C1155.793823,709.894897 1155.766235,742.835571 1155.627441,775.774963 
	C1155.606567,780.735046 1154.915894,785.733459 1154.089111,790.638977 
	C1152.997192,797.116272 1150.148071,802.624146 1143.134033,806.004150 
z"/>
<path fill="#34EEEA" opacity="1.000000" stroke="none" 
	d="
M2268.111328,809.879761 
	C2254.055420,807.693237 2250.039795,803.970947 2247.637451,791.158081 
	C2246.904053,787.248108 2246.371338,783.233826 2246.360352,779.265625 
	C2246.263916,744.268372 2246.212646,709.270142 2246.406982,674.273621 
	C2246.436279,669.005371 2247.263916,663.596680 2248.664551,658.512390 
	C2251.219727,649.235535 2257.721191,644.966980 2268.253174,644.672058 
	C2278.996582,644.371216 2286.449219,648.784424 2289.029541,658.200623 
	C2290.682129,664.231201 2291.537598,670.661316 2291.583008,676.920776 
	C2291.824707,710.250061 2291.739990,743.582153 2291.646729,776.912903 
	C2291.634766,781.220947 2291.174561,785.568542 2290.482422,789.826477 
	C2288.150879,804.173523 2283.482666,808.427124 2268.111328,809.879761 
z"/>
<path fill="#34EEEA" opacity="1.000000" stroke="none" 
	d="
M1222.273315,353.476257 
	C1224.915894,369.643646 1227.442017,384.950043 1230.099121,401.049744 
	C1220.243530,401.049744 1211.478394,401.049744 1201.348389,401.049744 
	C1203.646240,386.634583 1205.801392,372.977020 1208.005127,359.327271 
	C1210.171143,345.911621 1212.386475,332.503937 1215.325317,318.955048 
	C1219.413330,329.790588 1219.999878,341.377228 1222.273315,353.476257 
z"/>
<path fill="#34EEEA" opacity="1.000000" stroke="none" 
	d="
M1762.775269,401.481903 
	C1754.317017,401.616913 1746.730835,401.616913 1737.812134,401.616913 
	C1741.146973,373.106537 1746.680786,345.973328 1751.084106,316.159515 
	C1752.506958,320.096039 1753.405396,321.750092 1753.693237,323.504303 
	C1757.510620,346.771667 1761.321777,370.040955 1764.882812,393.348175 
	C1765.271484,395.892120 1764.096802,398.674896 1762.775269,401.481903 
z"/>
<path fill="#34EEEA" opacity="1.000000" stroke="none" 
	d="
M1462.795776,748.932739 
	C1466.834473,724.467957 1470.681519,700.861450 1474.550049,677.123657 
	C1477.919678,682.201660 1489.125000,746.723450 1488.802979,759.428833 
	C1480.313721,759.428833 1471.803833,759.428833 1462.107788,759.428833 
	C1462.281250,756.061279 1462.442749,752.926147 1462.795776,748.932739 
z"/>
<path fill="#34EEEA" opacity="1.000000" stroke="none" 
	d="
M1957.962646,745.909912 
	C1958.624634,750.670044 1959.185913,754.573364 1959.862427,759.277954 
	C1950.456543,759.277954 1941.695557,759.277954 1931.411621,759.277954 
	C1935.890625,731.441406 1940.277344,704.179382 1944.663940,676.917358 
	C1945.306274,676.862915 1945.948608,676.808472 1946.590942,676.754028 
	C1950.347900,699.520386 1954.104980,722.286743 1957.962646,745.909912 
z"/>
<path fill="#34EEEA" opacity="1.000000" stroke="none" 
	d="
M853.494873,722.532471 
	C855.450195,735.150879 857.255066,746.908447 859.170898,759.388794 
	C849.501526,759.388794 840.705139,759.388794 830.595154,759.388794 
	C835.115662,731.454590 839.546570,704.074280 843.977478,676.694031 
	C844.556641,676.659912 845.135742,676.625854 845.714905,676.591797 
	C848.258118,691.618347 850.801331,706.644958 853.494873,722.532471 
z"/>
</svg>