<svg version="1.1" id="Layer_1" xmlns="http://www.w3.org/2000/svg" xmlns:xlink="http://www.w3.org/1999/xlink" x="0px" y="0px"
	 width="100%" viewBox="0 0 3000 3000" enable-background="new 0 0 3000 3000" xml:space="preserve">
<path fill="#FFB101" opacity="1.000000" stroke="none" 
	d="
M2.000000,1100.000000 
	C2.000000,733.333374 2.000000,367.666809 2.000000,2.000147 
	C1001.999756,2.000098 2001.999512,2.000098 3001.999512,2.000049 
	C3001.999512,1001.999573 3001.999512,2001.999146 3001.999756,3001.999023 
	C2002.000610,3001.999512 1002.001221,3001.999512 2.000903,3001.999756 
	C2.000000,2368.333252 2.000000,1734.666626 2.000000,1100.000000 
M1935.980713,2008.948608 
	C1942.768555,1980.675903 1946.631470,1951.954468 1947.539795,1922.947144 
	C1949.920654,1846.925171 1934.506958,1774.685181 1899.982300,1706.744629 
	C1808.882324,1527.471191 1608.404907,1429.002563 1406.381836,1474.869873 
	C1179.083252,1526.475830 1031.225342,1744.070557 1066.510498,1973.967407 
	C1082.228394,2076.376221 1128.116211,2163.739014 1204.973511,2233.206543 
	C1310.515625,2328.600830 1434.931274,2365.880127 1575.497437,2344.127197 
	C1690.583252,2326.317627 1783.598511,2269.120605 1855.428711,2177.729004 
	C1894.476929,2128.046875 1920.682007,2071.943848 1935.980713,2008.948608 
M295.351501,776.088867 
	C290.752350,794.946289 285.528320,813.669128 281.624634,833.302124 
	C317.662872,833.302124 352.235138,833.302124 387.233246,833.302124 
	C388.165131,830.285889 389.188171,827.519409 389.875427,824.671997 
	C428.992371,662.607239 468.090729,500.537872 507.116943,338.451233 
	C508.042664,334.606384 508.514038,330.562378 508.542664,326.606537 
	C508.684875,306.952118 508.639008,287.296021 508.567749,267.640869 
	C508.558655,265.134613 508.012756,262.630371 507.742676,260.354004 
	C420.147217,260.354004 333.373779,260.354004 246.362854,260.354004 
	C246.362854,288.204651 246.362854,315.363220 246.362854,343.706177 
	C297.979126,343.706177 349.069702,343.706177 400.898834,343.706177 
	C400.126343,347.893463 399.734528,350.841553 399.030060,353.712891 
	C386.977661,402.836853 374.866852,451.946472 362.808350,501.068970 
	C340.436920,592.202576 318.091095,683.342529 295.351501,776.088867 
M2485.422119,442.173523 
	C2486.905518,430.659454 2489.392822,419.169434 2489.669678,407.626434 
	C2490.308350,381.000427 2490.017822,354.347412 2489.787354,327.708130 
	C2489.718506,319.749329 2489.067383,311.728546 2487.872314,303.859253 
	C2484.377441,280.845032 2471.002930,266.780853 2448.289795,261.961334 
	C2442.781494,260.792542 2437.112549,259.913239 2431.498779,259.795441 
	C2413.523926,259.418274 2395.540527,259.434021 2377.560303,259.371490 
	C2374.987549,259.362549 2372.413330,259.758331 2369.549805,259.990265 
	C2369.549805,332.937836 2369.549805,405.325531 2369.549805,479.146088 
	C2394.090820,478.588501 2418.063721,479.153931 2441.823730,477.168945 
	C2462.551025,475.437408 2477.918945,464.335724 2485.422119,442.173523 
M1766.711548,364.424316 
	C1764.217651,363.349762 1761.723755,362.275177 1757.333618,360.383514 
	C1775.425415,355.404449 1783.591431,343.627411 1785.220825,327.945312 
	C1786.305176,317.509430 1785.699585,306.643280 1784.089478,296.242310 
	C1781.715454,280.907196 1772.169556,270.261871 1757.634888,265.092285 
	C1749.905151,262.342987 1741.544067,260.362305 1733.385498,260.024719 
	C1713.438721,259.199371 1693.444214,259.512970 1673.468506,259.434052 
	C1671.871094,259.427734 1670.271606,259.928772 1668.591797,260.207550 
	C1668.591797,332.943634 1668.591797,405.363861 1668.591797,477.774536 
	C1694.787109,477.774536 1720.467285,479.172119 1745.920288,477.367706 
	C1769.713257,475.681000 1784.904907,460.125916 1790.509766,436.640869 
	C1793.569458,423.820038 1793.474854,410.812347 1791.250610,397.955078 
	C1788.747925,383.489227 1781.822266,371.727325 1766.711548,364.424316 
M1810.899902,824.543274 
	C1811.047852,828.413696 1811.195679,832.284119 1811.348633,836.285461 
	C1825.193481,836.285461 1837.972534,836.285461 1851.751221,836.285461 
	C1851.751221,803.000854 1851.751221,770.502136 1851.751221,737.740662 
	C1857.935547,737.740662 1863.091187,737.740662 1868.781982,737.740662 
	C1877.515869,770.921326 1886.126953,803.635620 1894.752319,836.403809 
	C1908.261597,836.403809 1921.046143,836.403809 1935.047852,836.403809 
	C1924.906982,800.118530 1915.026733,764.765259 1905.101440,729.250977 
	C1919.193726,722.517639 1926.310425,711.773926 1929.175903,697.983093 
	C1932.055908,684.122498 1932.335449,670.194702 1929.303833,656.338501 
	C1925.661865,639.693054 1915.713623,628.056458 1899.489014,623.082092 
	C1890.060669,620.191406 1880.004761,618.506958 1870.147705,618.038391 
	C1852.534790,617.200989 1834.858521,617.668091 1817.208740,617.668884 
	C1815.298340,617.669006 1813.388062,618.190613 1810.900391,618.554810 
	C1810.900391,686.826782 1810.900391,754.736755 1810.899902,824.543274 
M1246.311646,332.999908 
	C1246.311646,381.203979 1246.311646,429.408020 1246.311646,478.072479 
	C1260.114258,478.072479 1272.927856,478.072479 1286.645630,478.072479 
	C1286.645630,466.613647 1286.645630,455.695282 1286.645630,444.776917 
	C1286.645630,433.785950 1286.540405,422.793671 1286.675537,411.804352 
	C1286.808472,400.983887 1286.044189,390.098877 1287.246216,379.144592 
	C1293.453125,379.144592 1298.340942,379.144592 1304.127563,379.144592 
	C1312.898315,412.369293 1321.608521,445.364532 1330.372803,478.564301 
	C1344.065674,478.634247 1356.843750,478.730164 1370.607300,478.514648 
	C1360.318359,441.784027 1350.479614,406.660339 1340.418335,370.742493 
	C1355.848145,364.029633 1363.294922,351.611176 1365.049683,336.312225 
	C1366.365601,324.840424 1366.659180,312.951202 1365.204346,301.528473 
	C1362.696167,281.834503 1350.930664,268.910278 1331.655273,263.618500 
	C1324.649780,261.695251 1317.321899,260.207397 1310.094360,259.975586 
	C1290.795410,259.356567 1271.471191,259.495789 1252.156738,259.433685 
	C1250.330811,259.427795 1248.502686,260.127228 1246.311646,260.573273 
	C1246.311646,284.408539 1246.311646,307.704224 1246.311646,332.999908 
M1148.270020,257.419312 
	C1119.549805,260.690338 1103.796143,274.731842 1098.505005,302.275848 
	C1097.192017,309.110931 1096.322876,316.140900 1096.268677,323.089233 
	C1096.032227,353.382599 1096.009644,383.680206 1096.253174,413.973480 
	C1096.352539,426.338745 1098.422241,438.465149 1103.261719,450.004822 
	C1109.471313,464.811462 1120.163452,474.411804 1135.745605,478.502594 
	C1151.533813,482.647430 1167.307983,482.648438 1183.105713,478.530121 
	C1198.688477,474.467865 1209.944824,465.023071 1215.648071,450.140961 
	C1218.934204,441.566010 1221.757202,432.215179 1221.942139,423.155518 
	C1222.675171,387.233551 1222.692261,351.281158 1222.028564,315.357544 
	C1221.860962,306.285400 1219.083984,296.951385 1215.929932,288.313202 
	C1210.443359,273.286591 1199.295288,263.752747 1183.664062,259.733154 
	C1172.605469,256.889435 1161.411377,255.786377 1148.270020,257.419312 
M1361.712036,781.000061 
	C1361.712036,726.799622 1361.712036,672.599182 1361.712036,618.360229 
	C1349.850464,618.360229 1339.385010,618.360229 1328.120850,618.360229 
	C1328.120850,628.677185 1328.120850,638.283630 1328.120850,647.890015 
	C1328.120850,657.555542 1328.120850,667.221008 1328.120850,676.886536 
	C1328.120850,686.885315 1328.280884,696.887451 1328.074097,706.881958 
	C1327.881836,716.180847 1329.004639,725.578247 1325.671143,735.050110 
	C1308.772827,696.057129 1291.874512,657.064148 1275.052979,618.248352 
	C1265.541626,618.248352 1256.699341,618.248352 1247.962280,618.248352 
	C1245.971558,631.144226 1246.541748,829.181580 1248.501709,836.223267 
	C1259.292236,836.223267 1270.070801,836.223267 1281.959717,836.223267 
	C1281.959717,795.416992 1281.958984,755.466736 1281.988037,715.516541 
	C1281.988159,715.356323 1282.396362,715.133728 1282.650024,715.052368 
	C1282.960205,714.952881 1283.308350,714.972046 1284.200562,714.885559 
	C1301.114136,755.481201 1318.093872,796.235718 1334.838501,836.426147 
	C1344.390015,836.426147 1352.599243,836.426147 1361.712036,836.426147 
	C1361.712036,818.189087 1361.712036,800.594604 1361.712036,781.000061 
M1391.380615,456.977203 
	C1391.380615,463.863129 1391.380615,470.749054 1391.380615,478.650848 
	C1416.841553,478.087830 1441.157104,480.621582 1465.199463,477.044037 
	C1490.665649,473.254608 1504.706055,459.224274 1509.522461,434.848755 
	C1510.934937,427.700470 1511.810913,420.329559 1511.873779,413.051605 
	C1512.135010,382.751526 1512.272705,352.443848 1511.823486,322.148315 
	C1511.691772,313.262421 1510.269043,304.201721 1508.040283,295.582550 
	C1503.803345,279.196655 1493.051514,268.342316 1476.696777,263.708862 
	C1470.024170,261.818481 1463.043335,260.236603 1456.156860,260.028076 
	C1436.195557,259.423431 1416.210815,259.574493 1396.235229,259.475403 
	C1394.982056,259.469177 1393.726929,259.861572 1391.380493,260.248688 
	C1391.380493,325.325592 1391.380493,390.152679 1391.380615,456.977203 
M2311.001465,468.100311 
	C2312.463867,471.408813 2313.926025,474.717346 2315.372803,477.990631 
	C2324.344971,477.990631 2332.845215,477.990631 2341.327881,477.990631 
	C2341.327881,404.945709 2341.327881,332.545258 2341.327881,259.955475 
	C2330.090332,259.955475 2319.552979,259.955475 2307.926025,259.955475 
	C2307.926025,299.159485 2307.926025,337.788391 2307.926025,376.417297 
	C2307.289307,376.528290 2306.652344,376.639282 2306.015625,376.750305 
	C2289.149414,337.825317 2272.283203,298.900299 2255.424561,259.992920 
	C2246.019287,259.992920 2237.202393,259.992920 2228.297363,259.992920 
	C2228.297363,333.037659 2228.297363,405.454681 2228.297363,478.574280 
	C2239.721436,478.497131 2250.490967,478.994812 2262.044922,478.241974 
	C2262.044922,436.656342 2262.043945,396.393036 2262.069092,356.129730 
	C2262.069092,355.932648 2262.403320,355.655457 2262.639893,355.559174 
	C2262.936523,355.438385 2263.293701,355.466003 2264.168213,355.369812 
	C2279.526855,392.385376 2294.945312,429.544312 2311.001465,468.100311 
M1622.978027,778.205017 
	C1631.138062,797.787048 1639.298096,817.369141 1647.235962,836.417969 
	C1656.759766,836.417969 1664.971313,836.417969 1673.324951,836.417969 
	C1673.324951,763.314941 1673.324951,690.851562 1673.324951,618.339600 
	C1662.134033,618.339600 1651.658936,618.339600 1640.306274,618.339600 
	C1640.306274,628.606140 1640.306152,638.207336 1640.306152,647.808533 
	C1640.306152,657.474854 1640.306152,667.141113 1640.306152,676.807434 
	C1640.306152,686.807068 1640.478638,696.810608 1640.255859,706.805298 
	C1640.048828,716.086304 1641.255249,725.476257 1637.941040,734.858704 
	C1621.042358,695.874878 1604.143677,656.890991 1587.493164,618.479675 
	C1577.650635,618.479675 1568.851440,618.479675 1560.171021,618.479675 
	C1560.171021,691.534790 1560.171021,763.758789 1560.171021,836.272095 
	C1571.508301,836.272095 1582.301758,836.272095 1593.693726,836.272095 
	C1593.693726,821.853210 1593.693726,808.209534 1593.693726,794.565918 
	C1593.693726,780.899780 1593.628906,767.233215 1593.712280,753.567566 
	C1593.793457,740.255615 1593.338623,726.916260 1594.011841,713.625732 
	C1594.678711,713.547607 1595.345581,713.469543 1596.012451,713.391479 
	C1604.789307,734.531433 1613.566162,755.671448 1622.978027,778.205017 
M2051.621582,1866.571289 
	C2050.955078,1866.573120 2050.287109,1866.603882 2049.622314,1866.572510 
	C2030.879028,1865.691284 2012.840820,1883.979126 2013.297363,1903.986084 
	C2013.750977,1923.858887 2032.462280,1940.276733 2051.198242,1940.087891 
	C2113.841553,1939.456909 2176.497803,1939.545044 2239.143555,1940.037964 
	C2257.463135,1940.182129 2276.057617,1922.922729 2275.930908,1902.838623 
	C2275.820068,1885.236572 2259.699951,1866.222656 2238.437744,1866.394043 
	C2176.791992,1866.890747 2115.139160,1866.569824 2051.621582,1866.571289 
M1468.141846,2603.000000 
	C1468.144165,2614.993164 1467.981689,2626.989258 1468.183228,2638.979248 
	C1468.607300,2664.193604 1495.981689,2681.742188 1518.953491,2671.230225 
	C1533.946411,2664.369629 1541.542114,2652.427979 1541.497559,2635.542236 
	C1541.345459,2577.908203 1541.440186,2520.273682 1541.438599,2462.639160 
	C1541.438354,2457.308838 1541.658203,2451.965576 1541.369507,2446.650391 
	C1540.315186,2427.245605 1523.755859,2411.694336 1504.494629,2411.833496 
	C1484.687378,2411.976562 1468.231323,2428.191895 1468.185547,2448.085449 
	C1468.068237,2499.056641 1468.143555,2550.028564 1468.141846,2603.000000 
M841.000000,1939.850952 
	C880.647766,1939.849731 920.296021,1939.971680 959.942993,1939.795654 
	C979.843933,1939.707275 996.046509,1923.121338 996.128418,1903.355835 
	C996.210266,1883.606934 980.109619,1866.705933 960.263672,1866.646240 
	C896.627991,1866.454834 832.990662,1866.456177 769.356018,1866.783691 
	C763.648010,1866.813232 757.407837,1868.738159 752.357849,1871.504395 
	C737.530273,1879.626953 730.493713,1896.965332 734.788330,1912.422607 
	C739.346191,1928.827393 753.646973,1939.747192 771.032532,1939.824219 
	C793.687988,1939.924561 816.344116,1939.850098 841.000000,1939.850952 
M1541.439697,1346.853760 
	C1541.439697,1289.543701 1541.439941,1232.233643 1541.438354,1174.923584 
	C1541.438354,1172.258057 1541.546021,1169.585327 1541.391846,1166.928223 
	C1540.272217,1147.634277 1523.554443,1131.797607 1504.460571,1132.046631 
	C1482.457886,1132.333618 1467.808105,1152.601929 1467.935791,1168.439331 
	C1468.446655,1231.742920 1468.457764,1295.055542 1467.930786,1358.358887 
	C1467.795654,1374.579346 1482.932129,1394.077148 1503.493652,1394.519531 
	C1523.449341,1394.948853 1540.350464,1379.655029 1541.391602,1359.790039 
	C1541.583252,1356.134521 1541.432373,1352.461060 1541.439697,1346.853760 
M885.931213,1506.848877 
	C866.427979,1497.122314 844.434692,1503.186523 834.965332,1520.885498 
	C826.080750,1537.491333 832.061829,1561.940674 850.973328,1571.480103 
	C866.402344,1579.262939 881.101013,1588.493896 896.120300,1597.088379 
	C935.112244,1619.401001 974.326477,1641.337891 1012.992737,1664.201294 
	C1030.606323,1674.616333 1060.202271,1666.910278 1066.804688,1642.156982 
	C1071.243164,1625.515747 1064.255127,1608.958740 1048.401245,1599.871460 
	C994.700317,1569.091431 940.955811,1538.387573 885.931213,1506.848877 
M1251.805176,2418.890381 
	C1256.575073,2410.500977 1261.490234,2402.189941 1266.081421,2393.703613 
	C1273.325439,2380.314453 1271.582886,2367.196777 1263.395874,2355.038574 
	C1255.409546,2343.178467 1243.533936,2338.563965 1229.554443,2340.310547 
	C1217.358643,2341.834473 1207.897339,2347.771484 1201.626343,2358.893311 
	C1184.301025,2389.620361 1166.636475,2420.156250 1149.113159,2450.771973 
	C1135.226807,2475.033691 1121.069092,2499.145752 1107.555420,2523.613281 
	C1095.442993,2545.544434 1109.812378,2573.277832 1134.556519,2576.679443 
	C1150.442261,2578.863525 1163.901733,2572.269287 1172.156006,2557.893066 
	C1198.503540,2512.005371 1224.758057,2466.064453 1251.805176,2418.890381 
M2044.278320,1635.176147 
	C2082.932617,1612.926147 2121.668945,1590.817139 2160.203369,1568.361450 
	C2177.386719,1558.348145 2182.965820,1535.642700 2173.228760,1518.665405 
	C2164.416992,1503.302246 2141.116699,1494.822266 2123.553467,1505.002441 
	C2068.552002,1536.882568 2013.382935,1568.473389 1958.255859,1600.136353 
	C1952.272705,1603.572754 1947.849243,1608.350586 1944.860718,1614.512939 
	C1937.663330,1629.354492 1940.608276,1647.014282 1951.968262,1657.802490 
	C1961.860229,1667.197021 1980.845215,1672.432373 1996.319702,1662.865845 
	C2011.599487,1653.419556 2027.423950,1644.854736 2044.278320,1635.176147 
M1238.329224,1366.578003 
	C1215.773804,1327.333374 1192.844971,1288.296387 1170.853882,1248.738159 
	C1162.503906,1233.718018 1139.581909,1223.902832 1120.527954,1234.536621 
	C1103.514771,1244.031616 1096.970093,1268.112671 1106.784912,1284.944824 
	C1138.638306,1339.572754 1169.873901,1394.560913 1201.677490,1449.218262 
	C1204.554932,1454.163330 1209.189209,1458.729126 1214.074097,1461.742065 
	C1228.345093,1470.543091 1247.087769,1468.111450 1258.390991,1456.923462 
	C1270.396729,1445.040405 1272.911865,1427.107666 1264.424194,1412.006104 
	C1256.107666,1397.209473 1247.550903,1382.547607 1238.329224,1366.578003 
M2029.697998,648.864929 
	C2037.280273,655.255249 2036.547241,664.345642 2037.238770,672.851318 
	C2037.687378,678.369995 2037.323242,683.954773 2037.323242,689.470337 
	C2050.789307,689.470337 2062.936768,689.470337 2075.406738,689.470337 
	C2076.644043,674.363281 2075.674561,660.248596 2070.738770,646.543640 
	C2065.363770,631.619019 2054.921143,622.151062 2039.662354,618.077148 
	C2025.250122,614.229370 2010.600342,614.142944 1996.050903,616.784241 
	C1977.028320,620.237610 1964.440796,631.545227 1958.095459,649.804871 
	C1953.890503,661.905090 1952.356567,674.472778 1952.253418,687.163391 
	C1952.033936,714.159119 1951.631470,741.173767 1952.421387,768.147949 
	C1952.768311,779.998779 1954.669678,792.103638 1957.907715,803.513550 
	C1967.375366,836.875122 1996.550049,843.122681 2021.722900,838.827759 
	C2030.272095,837.369141 2037.067139,832.642334 2042.291748,825.686401 
	C2043.793335,823.687256 2045.447021,821.802429 2047.873901,818.834167 
	C2049.166504,825.640808 2050.191650,831.037842 2051.183594,836.260864 
	C2060.085449,836.260864 2068.206543,836.260864 2076.207275,836.260864 
	C2078.294678,819.437805 2077.494141,733.066223 2075.319092,726.317871 
	C2056.130859,726.317871 2036.972900,726.317871 2017.394653,726.317871 
	C2017.038696,735.103943 2015.755981,743.227600 2018.401001,751.973328 
	C2025.689819,751.973328 2032.588257,751.973328 2040.012573,751.973328 
	C2040.833374,764.980469 2041.192505,777.194702 2038.983398,789.341370 
	C2038.453613,792.254456 2037.395752,795.139771 2036.155762,797.842896 
	C2032.098389,806.688293 2024.843384,810.530884 2014.101807,809.797607 
	C2004.369873,809.133362 1998.328369,805.051392 1996.113403,795.402954 
	C1994.195801,787.049927 1993.321045,778.302795 1993.220459,769.715393 
	C1992.880859,740.721802 1993.028564,711.721497 1993.139526,682.724365 
	C1993.163696,676.404114 1993.397949,670.030579 1994.248535,663.778687 
	C1996.111450,650.086609 2005.069092,643.385498 2018.785278,645.216614 
	C2022.019409,645.648376 2025.125610,647.038025 2029.697998,648.864929 
M1885.751709,2573.462402 
	C1903.445557,2566.625977 1913.785156,2540.677734 1902.923462,2522.031982 
	C1870.934326,2467.117676 1839.550781,2411.850830 1807.744995,2356.829346 
	C1799.630493,2342.791992 1786.409790,2338.265625 1771.046997,2339.933350 
	C1756.317383,2341.532715 1746.976196,2350.483643 1742.117188,2364.107422 
	C1738.204712,2375.077393 1739.667847,2385.444336 1745.593384,2395.674561 
	C1776.446899,2448.940430 1807.463989,2502.120605 1837.479370,2555.858154 
	C1847.312500,2573.462646 1867.794434,2580.090332 1885.751709,2573.462402 
M911.147339,2202.241211 
	C890.670288,2214.034912 870.442932,2226.293213 849.637146,2237.474854 
	C833.025757,2246.402588 826.413818,2270.978760 836.398071,2288.028564 
	C846.000183,2304.425293 869.618042,2310.934082 886.153931,2301.293945 
	C940.783264,2269.447510 995.737183,2238.157959 1050.487183,2206.517334 
	C1064.146606,2198.623535 1070.413452,2184.319824 1067.976685,2168.194824 
	C1065.900024,2154.451416 1055.281738,2143.542236 1040.599365,2139.651611 
	C1030.669922,2137.020264 1021.646362,2138.676758 1012.826355,2143.788818 
	C979.424561,2163.148193 945.916077,2182.323730 911.147339,2202.241211 
M1850.165161,1373.246704 
	C1866.864502,1344.075928 1883.702515,1314.982910 1900.131348,1285.660522 
	C1902.974243,1280.586060 1905.272339,1274.643799 1905.771362,1268.923584 
	C1907.293823,1251.464600 1896.758911,1235.660278 1881.045776,1231.034912 
	C1863.295654,1225.809692 1845.176514,1234.012573 1837.204590,1248.173584 
	C1806.513184,1302.691895 1775.168701,1356.842285 1744.144653,1411.173828 
	C1742.351562,1414.314209 1740.748779,1417.724365 1739.896362,1421.213867 
	C1735.665527,1438.531860 1745.244019,1457.256958 1761.440186,1463.859497 
	C1778.427979,1470.784790 1797.983887,1464.246582 1807.296631,1448.178223 
	C1821.480835,1423.704102 1835.437500,1399.098145 1850.165161,1373.246704 
M2013.086548,2151.975098 
	C2007.013916,2148.519531 2001.057617,2144.832520 1994.823364,2141.698486 
	C1991.324219,2139.939453 1987.447754,2138.420654 1983.600220,2137.951904 
	C1965.175659,2135.707275 1948.734497,2145.638916 1943.371460,2162.050537 
	C1938.126709,2178.100098 1944.613159,2198.225830 1960.801758,2206.555176 
	C1975.578857,2214.158203 1989.729614,2222.978027 2004.166748,2231.243164 
	C2044.013794,2254.055908 2083.864502,2276.862305 2123.718018,2299.663330 
	C2136.910156,2307.210938 2149.994141,2306.152588 2162.427979,2298.230957 
	C2174.444824,2290.575195 2179.528809,2279.122803 2178.302002,2264.944824 
	C2177.155762,2251.704346 2170.825928,2242.107910 2159.066162,2235.437012 
	C2110.737793,2208.021484 2062.591309,2180.285156 2013.086548,2151.975098 
M791.275146,788.914185 
	C790.917786,784.939819 790.259949,780.966248 790.250244,776.991028 
	C790.168091,743.329407 790.148743,709.667297 790.269104,676.005920 
	C790.285645,671.374573 790.868469,666.690308 791.713684,662.127686 
	C793.994568,649.816162 801.142334,644.223145 813.376160,644.784851 
	C825.465210,645.339905 831.245667,651.510132 832.125183,664.863098 
	C832.300354,667.521851 832.391907,670.190369 832.403992,672.854919 
	C832.439880,680.763977 832.416870,688.673401 832.416870,696.900513 
	C846.180603,696.900513 858.578491,696.900513 871.209412,696.900513 
	C872.327881,682.469910 872.041321,668.835632 869.189697,655.436157 
	C864.747314,634.561646 852.481750,620.868835 831.006592,616.853577 
	C817.135376,614.260010 803.177856,614.271545 789.381165,617.833008 
	C772.641418,622.154297 760.836487,632.186218 755.619507,648.764587 
	C752.943665,657.267700 750.403259,666.236023 750.251404,675.036438 
	C749.647766,710.015930 749.527710,745.023071 750.324097,779.994995 
	C750.545532,789.719604 753.608276,799.702148 757.022400,808.955811 
	C762.155518,822.868591 772.750061,831.793579 787.006165,836.168518 
	C799.974487,840.148254 813.100342,840.721008 826.519226,838.693726 
	C849.205750,835.266296 863.676147,822.704468 868.260132,800.287598 
	C870.575562,788.964417 870.729553,777.185486 871.627869,765.594604 
	C871.898682,762.100037 871.386536,758.544861 871.202454,754.314514 
	C864.211914,754.314514 858.258972,754.314575 852.306030,754.314575 
	C846.080872,754.314575 839.855713,754.314514 832.557129,754.314514 
	C832.557129,759.463257 832.628235,763.378235 832.542419,767.289673 
	C832.359863,775.615417 832.616089,783.994446 831.741638,792.250977 
	C830.470215,804.255371 823.414307,810.036804 811.618958,809.854187 
	C799.879395,809.672424 794.660339,804.653625 791.275146,788.914185 
M830.505249,452.638123 
	C832.085571,461.059113 833.665833,469.480103 835.265442,478.004028 
	C847.823303,478.004028 859.611877,478.004028 872.525146,478.004028 
	C857.639648,404.602478 842.922485,332.030823 828.264709,259.752075 
	C813.614136,259.752075 800.336792,259.752075 786.156006,259.752075 
	C771.367920,332.519836 756.619690,405.091095 741.749084,478.264679 
	C755.004089,478.264679 766.924683,478.264679 779.553162,478.264679 
	C782.658325,461.506622 785.723999,444.961731 788.818176,428.262756 
	C801.609070,428.262756 813.512329,428.262756 826.226318,428.262756 
	C827.595276,435.986664 828.920166,443.461945 830.505249,452.638123 
M2085.088623,478.602112 
	C2096.007324,478.602112 2106.926025,478.602112 2118.413574,478.602112 
	C2121.603760,461.259338 2124.641602,444.743347 2127.724609,427.981110 
	C2141.009766,427.904999 2153.160645,427.547455 2165.101562,428.148407 
	C2168.300781,445.819336 2171.246582,462.091736 2174.241699,478.636322 
	C2181.284912,478.636322 2187.269531,478.697571 2193.252686,478.618774 
	C2199.052246,478.542419 2204.850098,478.322113 2211.438721,478.143646 
	C2196.502197,404.472076 2181.846436,332.184479 2167.195557,259.919983 
	C2152.612305,259.919983 2139.069580,259.919983 2125.368896,259.919983 
	C2124.809326,261.976898 2124.289307,263.538727 2123.962646,265.140015 
	C2113.990723,314.070557 2104.042236,363.005859 2094.079102,411.938171 
	C2090.293457,430.530701 2086.315430,449.086823 2082.832764,467.735687 
	C2082.202393,471.110901 2078.900391,475.214417 2085.088623,478.602112 
M1608.718384,444.467773 
	C1610.728882,455.572815 1612.739380,466.677826 1614.715210,477.591034 
	C1626.469360,479.424866 1644.520874,479.028687 1651.885254,476.736938 
	C1637.221191,404.453003 1622.547119,332.119690 1607.906860,259.952576 
	C1593.319946,259.952576 1579.799194,259.952576 1565.708984,259.952576 
	C1550.926880,332.708801 1536.236938,405.011108 1521.405029,478.012817 
	C1534.732666,478.012817 1546.838257,478.012817 1559.262207,478.012817 
	C1562.343506,461.194366 1565.326172,444.914215 1568.338745,428.471252 
	C1581.245850,428.471252 1593.419189,428.471252 1605.857544,428.471252 
	C1606.766479,433.605988 1607.577271,438.186737 1608.718384,444.467773 
M1205.737793,711.063965 
	C1199.427979,680.159607 1193.118042,649.255249 1186.831177,618.464050 
	C1172.156128,618.464050 1158.392212,618.464050 1144.570435,618.464050 
	C1129.753174,691.463440 1115.092041,763.693115 1100.297241,836.581909 
	C1113.627075,836.581909 1125.487793,836.581909 1138.099976,836.581909 
	C1141.212524,819.725159 1144.268433,803.175293 1147.312378,786.689941 
	C1160.231323,786.689941 1172.114258,786.689941 1184.732544,786.689941 
	C1187.797607,803.570251 1190.803589,820.125916 1193.776489,836.498840 
	C1206.458496,836.498840 1218.002441,836.498840 1231.034424,836.498840 
	C1222.579468,794.703369 1214.289551,753.724060 1205.737793,711.063965 
M1749.352661,646.052490 
	C1763.578247,646.052490 1777.803833,646.052490 1792.504395,646.052490 
	C1792.504395,636.089478 1792.504395,627.295471 1792.504395,618.294067 
	C1761.750854,618.294067 1731.612427,618.294067 1701.545288,618.294067 
	C1699.439697,640.549927 1700.417480,829.227295 1702.628662,836.402100 
	C1732.793213,836.402100 1762.973755,836.402100 1793.276611,836.402100 
	C1793.276611,827.203186 1793.276611,818.713135 1793.276611,808.982727 
	C1775.896851,808.982727 1759.106567,808.982727 1742.170654,808.982727 
	C1742.170654,784.598572 1742.170654,761.471436 1742.170654,737.248413 
	C1755.673828,737.248413 1768.515991,737.248413 1781.635132,737.248413 
	C1781.635132,727.312500 1781.635132,718.486755 1781.635132,708.541626 
	C1768.253418,708.541626 1755.427246,708.541626 1741.596924,708.541626 
	C1741.596924,688.212402 1741.550659,668.986572 1741.635864,649.761230 
	C1741.652954,645.921814 1744.724731,646.105408 1749.352661,646.052490 
M1994.272461,378.631195 
	C1996.782837,378.352356 1999.293213,378.073486 2001.825928,377.792175 
	C2001.825928,368.543365 2001.825928,360.002289 2001.825928,350.074524 
	C1988.264404,350.074524 1975.168091,350.074524 1961.688477,350.074524 
	C1961.688477,338.707245 1961.617554,328.728333 1961.708374,318.750854 
	C1961.800781,308.587860 1961.302246,298.384460 1962.051880,287.848328 
	C1971.692749,287.848328 1980.010498,288.068176 1988.311279,287.785919 
	C1996.457886,287.508911 2004.751953,289.064087 2012.931030,286.661591 
	C2012.931030,277.590057 2012.931030,269.053192 2012.931030,260.007263 
	C1982.316772,260.007263 1952.209351,260.007263 1922.049683,260.007263 
	C1922.049683,333.098877 1922.049683,405.548126 1922.049683,478.021545 
	C1952.933105,478.021545 1983.117188,478.021545 2013.375000,478.021545 
	C2013.375000,468.906952 2013.375000,460.417480 2013.375000,450.654053 
	C1995.977051,450.654053 1979.192261,450.654053 1962.215332,450.654053 
	C1962.215332,426.167267 1962.215332,402.970703 1962.215332,378.632080 
	C1972.620483,378.632080 1982.516235,378.632080 1994.272461,378.631195 
M1449.345825,776.999146 
	C1449.364624,796.839905 1449.300537,816.682861 1449.391479,836.319031 
	C1481.047729,836.319031 1511.200439,836.319031 1541.367920,836.319031 
	C1541.367920,827.099548 1541.367920,818.628235 1541.367920,808.958618 
	C1523.955933,808.958618 1507.187744,808.958618 1490.324707,808.958618 
	C1490.324707,784.604004 1490.324707,761.467346 1490.324707,737.273804 
	C1503.755981,737.273804 1516.590088,737.273804 1529.825195,737.273804 
	C1529.825195,727.379395 1529.825195,718.551392 1529.825195,708.280884 
	C1516.270386,708.280884 1503.208862,708.280884 1489.695312,708.280884 
	C1489.695312,696.877625 1489.615845,686.913940 1489.717407,676.952087 
	C1489.821045,666.800537 1489.259766,656.603455 1490.156494,645.578247 
	C1507.876709,645.578247 1524.364624,645.578247 1540.939209,645.578247 
	C1540.939209,635.807434 1540.939209,627.031006 1540.939209,618.051880 
	C1510.284180,618.051880 1480.386475,618.051880 1449.346313,618.051880 
	C1449.346313,670.631104 1449.346313,722.815125 1449.345825,776.999146 
M1001.641479,696.999878 
	C1001.641479,743.273376 1001.641479,789.546875 1001.641479,835.645081 
	C1012.420715,837.880005 1086.428955,837.499451 1093.423340,835.392578 
	C1093.423340,826.895447 1093.423340,818.456360 1093.423340,809.360413 
	C1084.362183,809.360413 1076.060303,809.360413 1067.758545,809.360413 
	C1059.506226,809.360413 1051.253784,809.360413 1043.221313,809.360413 
	C1041.148071,798.518555 1041.441406,745.237305 1043.684937,736.993896 
	C1056.211792,736.993896 1069.030273,736.993896 1082.019653,736.993896 
	C1082.019653,727.108276 1082.019653,718.268494 1082.019653,708.421387 
	C1068.567627,708.421387 1055.730957,708.421387 1042.454834,708.421387 
	C1042.454834,687.287537 1042.454834,667.171082 1042.454834,646.021851 
	C1051.266113,646.021851 1059.520752,646.239319 1067.758789,645.961548 
	C1076.232544,645.675781 1084.855591,647.241028 1093.093140,644.973999 
	C1093.093140,635.687256 1093.093140,627.158997 1093.093140,618.400513 
	C1062.408813,618.400513 1032.330688,618.400513 1001.641418,618.400513 
	C1001.641418,644.430725 1001.641418,669.715332 1001.641479,696.999878 
M2190.213867,689.393982 
	C2197.896973,665.863647 2205.580078,642.333374 2213.521729,618.011475 
	C2200.280518,618.011475 2188.704834,618.011475 2176.406250,618.011475 
	C2168.111328,645.725342 2159.854980,673.309570 2151.598877,700.893738 
	C2150.996338,700.957397 2150.393555,701.021057 2149.791016,701.084717 
	C2141.083496,673.350891 2132.375977,645.617065 2123.798828,618.299194 
	C2110.858154,618.299194 2099.044922,618.299194 2086.585205,618.299194 
	C2087.861328,622.558167 2088.824707,626.064148 2089.958740,629.514160 
	C2102.537109,667.775635 2115.250732,705.993347 2127.619385,744.322327 
	C2129.421875,749.908447 2130.328613,756.004028 2130.418701,761.882751 
	C2130.745117,783.203979 2130.547852,804.533325 2130.548096,825.859558 
	C2130.548340,829.120972 2130.548096,832.382385 2130.548096,836.908386 
	C2143.900879,837.078186 2156.310059,837.341248 2169.451904,836.707336 
	C2169.451904,832.192993 2169.451904,828.900696 2169.451904,825.608337 
	C2169.452148,804.282104 2169.276855,782.953369 2169.572021,761.631226 
	C2169.648926,756.078796 2170.540039,750.344604 2172.181152,745.041748 
	C2177.789062,726.920044 2183.897461,708.953247 2190.213867,689.393982 
M975.542786,287.295776 
	C976.531189,286.163727 978.338440,285.057953 978.375793,283.895416 
	C978.628723,276.013519 978.507935,268.119659 978.507935,259.926086 
	C948.050720,259.926086 918.575684,259.926086 888.875732,259.926086 
	C888.875732,332.893555 888.875732,405.293304 888.875732,478.026428 
	C902.253296,478.026428 915.054565,478.026428 928.999207,478.026428 
	C928.999207,445.004242 928.999207,412.579742 928.999207,379.079712 
	C942.603455,379.079712 955.092773,379.079712 968.065918,379.079712 
	C968.065918,369.167358 968.065918,360.365021 968.065918,351.035980 
	C954.816406,349.723663 941.898071,351.538727 929.351196,349.927216 
	C929.351196,328.728119 929.351196,308.587158 929.351196,287.407410 
	C944.607178,287.407410 959.187012,287.407410 975.542786,287.295776 
M1074.358398,366.840057 
	C1074.199829,361.661011 1074.041382,356.481995 1073.855103,350.396240 
	C1060.315674,350.396240 1047.806885,350.396240 1034.914551,350.396240 
	C1034.914551,328.999298 1034.914551,308.594788 1034.914551,287.267090 
	C1051.486084,287.267090 1067.358521,287.267090 1083.701172,287.267090 
	C1083.701172,277.593597 1083.701172,268.853516 1083.701172,260.107178 
	C1053.602783,260.107178 1024.167603,260.107178 994.815125,260.107178 
	C992.956177,279.886200 993.754333,470.501434 995.717773,478.148987 
	C1008.214172,478.148987 1020.771240,478.148987 1034.354248,478.148987 
	C1034.354248,445.191803 1034.354248,412.707062 1034.354248,378.919250 
	C1048.129517,378.919250 1060.900024,378.919250 1074.358276,378.919250 
	C1074.358276,374.634491 1074.358276,371.675476 1074.358398,366.840057 
M1812.885010,366.999573 
	C1812.885010,403.875580 1812.885010,440.751556 1812.885010,477.421661 
	C1825.120972,479.436066 1897.973755,479.064636 1905.123779,477.190460 
	C1905.123779,468.678528 1905.123779,460.218048 1905.123779,450.451233 
	C1887.618896,450.451233 1870.849121,450.451233 1853.334106,450.451233 
	C1853.334106,386.260559 1853.334106,323.405182 1853.334106,259.940918 
	C1839.706299,259.940918 1826.884888,259.940918 1812.885498,259.940918 
	C1812.885498,295.245911 1812.885498,330.122711 1812.885010,366.999573 
M893.639893,637.054199 
	C893.639893,703.330811 893.639893,769.607422 893.639893,836.469116 
	C924.686401,836.469116 954.856689,836.469116 985.528320,836.469116 
	C985.528320,827.377808 985.528320,818.865967 985.528320,809.212891 
	C968.297607,809.212891 951.460083,809.212891 933.577271,809.212891 
	C933.577271,744.928406 933.577271,681.772766 933.577271,618.414246 
	C919.718506,618.414246 906.963257,618.414246 893.639832,618.414246 
	C893.639832,624.473999 893.639832,629.771912 893.639893,637.054199 
z"/>
<path fill="#FFFFFE" opacity="1.000000" stroke="none" 
	d="
M1935.830444,2009.767456 
	C1920.682007,2071.943848 1894.476929,2128.046875 1855.428711,2177.729004 
	C1783.598511,2269.120605 1690.583252,2326.317627 1575.497437,2344.127197 
	C1434.931274,2365.880127 1310.515625,2328.600830 1204.973511,2233.206543 
	C1128.116211,2163.739014 1082.228394,2076.376221 1066.510498,1973.967407 
	C1031.225342,1744.070557 1179.083252,1526.475830 1406.381836,1474.869873 
	C1608.404907,1429.002563 1808.882324,1527.471191 1899.982300,1706.744629 
	C1934.506958,1774.685181 1949.920654,1846.925171 1947.539795,1922.947144 
	C1946.631470,1951.954468 1942.768555,1980.675903 1935.830444,2009.767456 
M1359.699585,1724.687500 
	C1289.083374,1785.834717 1261.237427,1862.461792 1280.243896,1953.997803 
	C1305.615234,2076.186035 1430.410278,2155.697998 1552.130005,2128.991211 
	C1672.628418,2102.552734 1751.047485,1990.884644 1731.922241,1869.071777 
	C1717.870239,1779.571655 1665.574219,1719.301636 1581.426514,1686.430054 
	C1579.101318,1685.521729 1576.570435,1685.139771 1572.985596,1684.216309 
	C1572.985596,1688.532837 1572.985718,1691.787720 1572.985596,1695.042725 
	C1572.984741,1716.370239 1573.326050,1737.706177 1572.795044,1759.020508 
	C1572.612305,1766.355469 1575.276978,1770.058472 1581.329834,1773.894165 
	C1635.626709,1808.301270 1661.104736,1857.700806 1654.218018,1921.822632 
	C1645.052612,2007.161011 1564.771484,2067.177734 1479.945679,2052.255371 
	C1420.253418,2041.754395 1379.401978,2006.757690 1361.150391,1949.222656 
	C1342.904663,1891.706909 1356.352051,1839.814331 1398.759644,1796.547241 
	C1409.359131,1785.732788 1422.551880,1777.460205 1436.004272,1766.877563 
	C1435.837646,1740.958740 1436.353638,1712.913330 1435.665405,1683.977295 
	C1407.236450,1692.876953 1382.901489,1706.210938 1359.699585,1724.687500 
M1471.992676,1768.983154 
	C1471.992188,1775.311279 1472.461914,1781.681641 1471.896118,1787.958862 
	C1470.622559,1802.087524 1482.249512,1816.176636 1495.478271,1820.214355 
	C1508.952515,1824.326904 1523.662720,1818.994751 1532.167358,1806.677368 
	C1536.511597,1800.385498 1537.753662,1793.371094 1537.729736,1785.836548 
	C1537.614258,1749.533691 1537.678345,1713.230103 1537.677246,1676.926880 
	C1537.677002,1664.936768 1537.872559,1652.942505 1537.619629,1640.957764 
	C1537.296875,1625.661621 1526.927002,1612.963135 1512.053589,1609.098145 
	C1498.796387,1605.653198 1483.827393,1612.298462 1476.215820,1624.922974 
	C1472.826904,1630.543823 1471.911499,1636.600708 1471.930420,1643.091431 
	C1472.051147,1684.390381 1471.992310,1725.689575 1471.992676,1768.983154 
z"/>
<path fill="#FFFFFD" opacity="1.000000" stroke="none" 
	d="
M295.543060,775.284363 
	C318.091095,683.342529 340.436920,592.202576 362.808350,501.068970 
	C374.866852,451.946472 386.977661,402.836853 399.030060,353.712891 
	C399.734528,350.841553 400.126343,347.893463 400.898834,343.706177 
	C349.069702,343.706177 297.979126,343.706177 246.362854,343.706177 
	C246.362854,315.363220 246.362854,288.204651 246.362854,260.354004 
	C333.373779,260.354004 420.147217,260.354004 507.742676,260.354004 
	C508.012756,262.630371 508.558655,265.134613 508.567749,267.640869 
	C508.639008,287.296021 508.684875,306.952118 508.542664,326.606537 
	C508.514038,330.562378 508.042664,334.606384 507.116943,338.451233 
	C468.090729,500.537872 428.992371,662.607239 389.875427,824.671997 
	C389.188171,827.519409 388.165131,830.285889 387.233246,833.302124 
	C352.235138,833.302124 317.662872,833.302124 281.624634,833.302124 
	C285.528320,813.669128 290.752350,794.946289 295.543060,775.284363 
z"/>
<path fill="#FFFDF7" opacity="1.000000" stroke="none" 
	d="
M2485.124268,442.903992 
	C2477.918945,464.335724 2462.551025,475.437408 2441.823730,477.168945 
	C2418.063721,479.153931 2394.090820,478.588501 2369.549805,479.146088 
	C2369.549805,405.325531 2369.549805,332.937836 2369.549805,259.990265 
	C2372.413330,259.758331 2374.987549,259.362549 2377.560303,259.371490 
	C2395.540527,259.434021 2413.523926,259.418274 2431.498779,259.795441 
	C2437.112549,259.913239 2442.781494,260.792542 2448.289795,261.961334 
	C2471.002930,266.780853 2484.377441,280.845032 2487.872314,303.859253 
	C2489.067383,311.728546 2489.718506,319.749329 2489.787354,327.708130 
	C2490.017822,354.347412 2490.308350,381.000427 2489.669678,407.626434 
	C2489.392822,419.169434 2486.905518,430.659454 2485.124268,442.903992 
M2409.882812,448.556763 
	C2416.342529,448.950714 2422.901855,450.242798 2429.239502,449.538757 
	C2440.118896,448.330200 2445.811768,442.294434 2447.572510,431.517273 
	C2448.321533,426.935913 2448.483643,422.221802 2448.511963,417.565552 
	C2448.698486,386.907745 2448.839355,356.249237 2448.836182,325.590973 
	C2448.835449,319.272736 2448.541504,312.905396 2447.720703,306.647491 
	C2446.391113,296.509460 2441.297852,290.843384 2431.347412,289.164886 
	C2424.597656,288.026245 2417.619141,288.243561 2409.547119,287.786804 
	C2409.547119,341.559967 2409.547119,394.104095 2409.882812,448.556763 
z"/>
<path fill="#FFFEFC" opacity="1.000000" stroke="none" 
	d="
M1767.344360,364.753510 
	C1781.822266,371.727325 1788.747925,383.489227 1791.250610,397.955078 
	C1793.474854,410.812347 1793.569458,423.820038 1790.509766,436.640869 
	C1784.904907,460.125916 1769.713257,475.681000 1745.920288,477.367706 
	C1720.467285,479.172119 1694.787109,477.774536 1668.591797,477.774536 
	C1668.591797,405.363861 1668.591797,332.943634 1668.591797,260.207550 
	C1670.271606,259.928772 1671.871094,259.427734 1673.468506,259.434052 
	C1693.444214,259.512970 1713.438721,259.199371 1733.385498,260.024719 
	C1741.544067,260.362305 1749.905151,262.342987 1757.634888,265.092285 
	C1772.169556,270.261871 1781.715454,280.907196 1784.089478,296.242310 
	C1785.699585,306.643280 1786.305176,317.509430 1785.220825,327.945312 
	C1783.591431,343.627411 1775.425415,355.404449 1757.333618,360.383514 
	C1761.723755,362.275177 1764.217651,363.349762 1767.344360,364.753510 
M1731.774902,449.774139 
	C1744.892456,447.964172 1751.646851,439.781555 1753.369385,427.285980 
	C1754.825684,416.723877 1755.080444,406.069122 1751.755493,395.697205 
	C1749.764160,389.485443 1746.398315,384.192108 1740.363281,381.220337 
	C1730.163208,376.197571 1719.458618,376.700226 1708.768799,377.401215 
	C1708.768799,402.230316 1708.768799,425.693268 1708.768799,449.955505 
	C1716.239868,449.955505 1723.134277,449.955505 1731.774902,449.774139 
M1726.287598,288.028015 
	C1720.457031,288.028015 1714.626465,288.028015 1708.834717,288.028015 
	C1708.834717,308.756744 1708.834717,328.237793 1708.834717,348.784851 
	C1717.114868,348.375244 1724.765137,348.545563 1732.241211,347.486237 
	C1741.310181,346.201202 1747.277832,340.534607 1749.458130,331.560730 
	C1751.598389,322.751007 1752.108521,313.837494 1750.177734,304.828278 
	C1748.638184,297.645203 1744.520142,292.867523 1737.730103,290.478577 
	C1734.616211,289.382996 1731.284668,288.905731 1726.287598,288.028015 
z"/>
<path fill="#FFFDF7" opacity="1.000000" stroke="none" 
	d="
M1810.900146,823.594971 
	C1810.900391,754.736755 1810.900391,686.826782 1810.900391,618.554810 
	C1813.388062,618.190613 1815.298340,617.669006 1817.208740,617.668884 
	C1834.858521,617.668091 1852.534790,617.200989 1870.147705,618.038391 
	C1880.004761,618.506958 1890.060669,620.191406 1899.489014,623.082092 
	C1915.713623,628.056458 1925.661865,639.693054 1929.303833,656.338501 
	C1932.335449,670.194702 1932.055908,684.122498 1929.175903,697.983093 
	C1926.310425,711.773926 1919.193726,722.517639 1905.101440,729.250977 
	C1915.026733,764.765259 1924.906982,800.118530 1935.047852,836.403809 
	C1921.046143,836.403809 1908.261597,836.403809 1894.752319,836.403809 
	C1886.126953,803.635620 1877.515869,770.921326 1868.781982,737.740662 
	C1863.091187,737.740662 1857.935547,737.740662 1851.751221,737.740662 
	C1851.751221,770.502136 1851.751221,803.000854 1851.751221,836.285461 
	C1837.972534,836.285461 1825.193481,836.285461 1811.348633,836.285461 
	C1811.195679,832.284119 1811.047852,828.413696 1810.900146,823.594971 
M1887.229980,701.985779 
	C1895.256470,688.432129 1894.702148,674.174438 1890.461182,659.725098 
	C1888.779297,653.994995 1884.860352,650.021118 1879.183350,647.955444 
	C1870.271973,644.712830 1861.217407,645.282410 1852.059814,645.875488 
	C1852.059814,668.125977 1852.059814,689.211304 1852.059814,711.088379 
	C1864.609009,711.428894 1876.446411,712.138489 1887.229980,701.985779 
z"/>
<path fill="#FFFEFC" opacity="1.000000" stroke="none" 
	d="
M1246.311646,331.999878 
	C1246.311646,307.704224 1246.311646,284.408539 1246.311646,260.573273 
	C1248.502686,260.127228 1250.330811,259.427795 1252.156738,259.433685 
	C1271.471191,259.495789 1290.795410,259.356567 1310.094360,259.975586 
	C1317.321899,260.207397 1324.649780,261.695251 1331.655273,263.618500 
	C1350.930664,268.910278 1362.696167,281.834503 1365.204346,301.528473 
	C1366.659180,312.951202 1366.365601,324.840424 1365.049683,336.312225 
	C1363.294922,351.611176 1355.848145,364.029633 1340.418335,370.742493 
	C1350.479614,406.660339 1360.318359,441.784027 1370.607300,478.514648 
	C1356.843750,478.730164 1344.065674,478.634247 1330.372803,478.564301 
	C1321.608521,445.364532 1312.898315,412.369293 1304.127563,379.144592 
	C1298.340942,379.144592 1293.453125,379.144592 1287.246216,379.144592 
	C1286.044189,390.098877 1286.808472,400.983887 1286.675537,411.804352 
	C1286.540405,422.793671 1286.645630,433.785950 1286.645630,444.776917 
	C1286.645630,455.695282 1286.645630,466.613647 1286.645630,478.072479 
	C1272.927856,478.072479 1260.114258,478.072479 1246.311646,478.072479 
	C1246.311646,429.408020 1246.311646,381.203979 1246.311646,331.999878 
M1303.408936,352.423706 
	C1318.500732,350.227173 1325.562378,345.165405 1327.356934,332.636414 
	C1328.612549,323.869568 1328.167969,314.702850 1327.277710,305.835754 
	C1326.597290,299.059570 1322.985840,293.049896 1316.209473,290.222534 
	C1306.786133,286.290710 1297.004395,286.365234 1287.266357,287.551239 
	C1287.266357,309.815796 1287.266357,330.962128 1287.266357,352.583099 
	C1292.573242,352.583099 1297.163452,352.583099 1303.408936,352.423706 
z"/>
<path fill="#FFFDF9" opacity="1.000000" stroke="none" 
	d="
M1149.149902,257.304443 
	C1161.411377,255.786377 1172.605469,256.889435 1183.664062,259.733154 
	C1199.295288,263.752747 1210.443359,273.286591 1215.929932,288.313202 
	C1219.083984,296.951385 1221.860962,306.285400 1222.028564,315.357544 
	C1222.692261,351.281158 1222.675171,387.233551 1221.942139,423.155518 
	C1221.757202,432.215179 1218.934204,441.566010 1215.648071,450.140961 
	C1209.944824,465.023071 1198.688477,474.467865 1183.105713,478.530121 
	C1167.307983,482.648438 1151.533813,482.647430 1135.745605,478.502594 
	C1120.163452,474.411804 1109.471313,464.811462 1103.261719,450.004822 
	C1098.422241,438.465149 1096.352539,426.338745 1096.253174,413.973480 
	C1096.009644,383.680206 1096.032227,353.382599 1096.268677,323.089233 
	C1096.322876,316.140900 1097.192017,309.110931 1098.505005,302.275848 
	C1103.796143,274.731842 1119.549805,260.690338 1149.149902,257.304443 
M1168.384033,450.089752 
	C1175.441650,447.688293 1179.072388,442.423370 1180.328003,435.385559 
	C1181.084351,431.145630 1181.891113,426.835815 1181.905640,422.554810 
	C1182.028076,386.573883 1182.072876,350.591766 1181.859131,314.611694 
	C1181.828003,309.372223 1180.968506,303.909912 1179.248535,298.985107 
	C1178.022583,295.474487 1175.316162,291.770264 1172.226685,289.743225 
	C1158.349365,280.638184 1140.744263,288.710999 1138.113281,305.047546 
	C1137.691040,307.669556 1137.484131,310.355042 1137.481689,313.011505 
	C1137.446533,350.317017 1137.401001,387.622803 1137.555298,424.927704 
	C1137.572998,429.190033 1138.521606,433.507874 1139.494995,437.693848 
	C1141.276733,445.356171 1146.543579,449.792572 1154.078247,450.900513 
	C1158.232056,451.511353 1162.598022,450.681030 1168.384033,450.089752 
z"/>
<path fill="#FFFDF7" opacity="1.000000" stroke="none" 
	d="
M1361.712036,782.000122 
	C1361.712036,800.594604 1361.712036,818.189087 1361.712036,836.426147 
	C1352.599243,836.426147 1344.390015,836.426147 1334.838501,836.426147 
	C1318.093872,796.235718 1301.114136,755.481201 1284.200562,714.885559 
	C1283.308350,714.972046 1282.960205,714.952881 1282.650024,715.052368 
	C1282.396362,715.133728 1281.988159,715.356323 1281.988037,715.516541 
	C1281.958984,755.466736 1281.959717,795.416992 1281.959717,836.223267 
	C1270.070801,836.223267 1259.292236,836.223267 1248.501709,836.223267 
	C1246.541748,829.181580 1245.971558,631.144226 1247.962280,618.248352 
	C1256.699341,618.248352 1265.541626,618.248352 1275.052979,618.248352 
	C1291.874512,657.064148 1308.772827,696.057129 1325.671143,735.050110 
	C1329.004639,725.578247 1327.881836,716.180847 1328.074097,706.881958 
	C1328.280884,696.887451 1328.120850,686.885315 1328.120850,676.886536 
	C1328.120850,667.221008 1328.120850,657.555542 1328.120850,647.890015 
	C1328.120850,638.283630 1328.120850,628.677185 1328.120850,618.360229 
	C1339.385010,618.360229 1349.850464,618.360229 1361.712036,618.360229 
	C1361.712036,672.599182 1361.712036,726.799622 1361.712036,782.000122 
z"/>
<path fill="#FFFEFC" opacity="1.000000" stroke="none" 
	d="
M1391.380615,455.978485 
	C1391.380493,390.152679 1391.380493,325.325592 1391.380493,260.248688 
	C1393.726929,259.861572 1394.982056,259.469177 1396.235229,259.475403 
	C1416.210815,259.574493 1436.195557,259.423431 1456.156860,260.028076 
	C1463.043335,260.236603 1470.024170,261.818481 1476.696777,263.708862 
	C1493.051514,268.342316 1503.803345,279.196655 1508.040283,295.582550 
	C1510.269043,304.201721 1511.691772,313.262421 1511.823486,322.148315 
	C1512.272705,352.443848 1512.135010,382.751526 1511.873779,413.051605 
	C1511.810913,420.329559 1510.934937,427.700470 1509.522461,434.848755 
	C1504.706055,459.224274 1490.665649,473.254608 1465.199463,477.044037 
	C1441.157104,480.621582 1416.841553,478.087830 1391.380615,478.650848 
	C1391.380615,470.749054 1391.380615,463.863129 1391.380615,455.978485 
M1463.415405,293.433289 
	C1453.703735,286.308563 1442.922485,288.036804 1432.171387,288.349518 
	C1432.171387,342.858185 1432.171387,396.057892 1432.171387,450.195007 
	C1437.543457,450.195007 1442.460571,450.453186 1447.342285,450.146912 
	C1462.394653,449.202545 1469.751587,442.899445 1470.058960,427.834412 
	C1470.832886,389.885895 1470.659668,351.917877 1470.810425,313.957458 
	C1470.819580,311.639832 1470.768188,309.167389 1470.001831,307.033936 
	C1468.463013,302.750977 1466.410400,298.652588 1463.415405,293.433289 
z"/>
<path fill="#FFFEFC" opacity="1.000000" stroke="none" 
	d="
M2310.682617,467.401794 
	C2294.945312,429.544312 2279.526855,392.385376 2264.168213,355.369812 
	C2263.293701,355.466003 2262.936523,355.438385 2262.639893,355.559174 
	C2262.403320,355.655457 2262.069092,355.932648 2262.069092,356.129730 
	C2262.043945,396.393036 2262.044922,436.656342 2262.044922,478.241974 
	C2250.490967,478.994812 2239.721436,478.497131 2228.297363,478.574280 
	C2228.297363,405.454681 2228.297363,333.037659 2228.297363,259.992920 
	C2237.202393,259.992920 2246.019287,259.992920 2255.424561,259.992920 
	C2272.283203,298.900299 2289.149414,337.825317 2306.015625,376.750305 
	C2306.652344,376.639282 2307.289307,376.528290 2307.926025,376.417297 
	C2307.926025,337.788391 2307.926025,299.159485 2307.926025,259.955475 
	C2319.552979,259.955475 2330.090332,259.955475 2341.327881,259.955475 
	C2341.327881,332.545258 2341.327881,404.945709 2341.327881,477.990631 
	C2332.845215,477.990631 2324.344971,477.990631 2315.372803,477.990631 
	C2313.926025,474.717346 2312.463867,471.408813 2310.682617,467.401794 
z"/>
<path fill="#FFFEFB" opacity="1.000000" stroke="none" 
	d="
M1622.660645,777.508179 
	C1613.566162,755.671448 1604.789307,734.531433 1596.012451,713.391479 
	C1595.345581,713.469543 1594.678711,713.547607 1594.011841,713.625732 
	C1593.338623,726.916260 1593.793457,740.255615 1593.712280,753.567566 
	C1593.628906,767.233215 1593.693726,780.899780 1593.693726,794.565918 
	C1593.693726,808.209534 1593.693726,821.853210 1593.693726,836.272095 
	C1582.301758,836.272095 1571.508301,836.272095 1560.171021,836.272095 
	C1560.171021,763.758789 1560.171021,691.534790 1560.171021,618.479675 
	C1568.851440,618.479675 1577.650635,618.479675 1587.493164,618.479675 
	C1604.143677,656.890991 1621.042358,695.874878 1637.941040,734.858704 
	C1641.255249,725.476257 1640.048828,716.086304 1640.255859,706.805298 
	C1640.478638,696.810608 1640.306152,686.807068 1640.306152,676.807434 
	C1640.306152,667.141113 1640.306152,657.474854 1640.306152,647.808533 
	C1640.306152,638.207336 1640.306274,628.606140 1640.306274,618.339600 
	C1651.658936,618.339600 1662.134033,618.339600 1673.324951,618.339600 
	C1673.324951,690.851562 1673.324951,763.314941 1673.324951,836.417969 
	C1664.971313,836.417969 1656.759766,836.417969 1647.235962,836.417969 
	C1639.298096,817.369141 1631.138062,797.787048 1622.660645,777.508179 
z"/>
<path fill="#FFFEFB" opacity="1.000000" stroke="none" 
	d="
M2052.555420,1866.570557 
	C2115.139160,1866.569824 2176.791992,1866.890747 2238.437744,1866.394043 
	C2259.699951,1866.222656 2275.820068,1885.236572 2275.930908,1902.838623 
	C2276.057617,1922.922729 2257.463135,1940.182129 2239.143555,1940.037964 
	C2176.497803,1939.545044 2113.841553,1939.456909 2051.198242,1940.087891 
	C2032.462280,1940.276733 2013.750977,1923.858887 2013.297363,1903.986084 
	C2012.840820,1883.979126 2030.879028,1865.691284 2049.622314,1866.572510 
	C2050.287109,1866.603882 2050.955078,1866.573120 2052.555420,1866.570557 
z"/>
<path fill="#FFFEFB" opacity="1.000000" stroke="none" 
	d="
M1468.141846,2602.000000 
	C1468.143555,2550.028564 1468.068237,2499.056641 1468.185547,2448.085449 
	C1468.231323,2428.191895 1484.687378,2411.976562 1504.494629,2411.833496 
	C1523.755859,2411.694336 1540.315186,2427.245605 1541.369507,2446.650391 
	C1541.658203,2451.965576 1541.438354,2457.308838 1541.438599,2462.639160 
	C1541.440186,2520.273682 1541.345459,2577.908203 1541.497559,2635.542236 
	C1541.542114,2652.427979 1533.946411,2664.369629 1518.953491,2671.230225 
	C1495.981689,2681.742188 1468.607300,2664.193604 1468.183228,2638.979248 
	C1467.981689,2626.989258 1468.144165,2614.993164 1468.141846,2602.000000 
z"/>
<path fill="#FFFEFB" opacity="1.000000" stroke="none" 
	d="
M840.000000,1939.850952 
	C816.344116,1939.850098 793.687988,1939.924561 771.032532,1939.824219 
	C753.646973,1939.747192 739.346191,1928.827393 734.788330,1912.422607 
	C730.493713,1896.965332 737.530273,1879.626953 752.357849,1871.504395 
	C757.407837,1868.738159 763.648010,1866.813232 769.356018,1866.783691 
	C832.990662,1866.456177 896.627991,1866.454834 960.263672,1866.646240 
	C980.109619,1866.705933 996.210266,1883.606934 996.128418,1903.355835 
	C996.046509,1923.121338 979.843933,1939.707275 959.942993,1939.795654 
	C920.296021,1939.971680 880.647766,1939.849731 840.000000,1939.850952 
z"/>
<path fill="#FFFEFB" opacity="1.000000" stroke="none" 
	d="
M1541.439697,1347.824829 
	C1541.432373,1352.461060 1541.583252,1356.134521 1541.391602,1359.790039 
	C1540.350464,1379.655029 1523.449341,1394.948853 1503.493652,1394.519531 
	C1482.932129,1394.077148 1467.795654,1374.579346 1467.930786,1358.358887 
	C1468.457764,1295.055542 1468.446655,1231.742920 1467.935791,1168.439331 
	C1467.808105,1152.601929 1482.457886,1132.333618 1504.460571,1132.046631 
	C1523.554443,1131.797607 1540.272217,1147.634277 1541.391846,1166.928223 
	C1541.546021,1169.585327 1541.438354,1172.258057 1541.438354,1174.923584 
	C1541.439941,1232.233643 1541.439697,1289.543701 1541.439697,1347.824829 
z"/>
<path fill="#FFFEFC" opacity="1.000000" stroke="none" 
	d="
M886.579590,1507.251709 
	C940.955811,1538.387573 994.700317,1569.091431 1048.401245,1599.871460 
	C1064.255127,1608.958740 1071.243164,1625.515747 1066.804688,1642.156982 
	C1060.202271,1666.910278 1030.606323,1674.616333 1012.992737,1664.201294 
	C974.326477,1641.337891 935.112244,1619.401001 896.120300,1597.088379 
	C881.101013,1588.493896 866.402344,1579.262939 850.973328,1571.480103 
	C832.061829,1561.940674 826.080750,1537.491333 834.965332,1520.885498 
	C844.434692,1503.186523 866.427979,1497.122314 886.579590,1507.251709 
z"/>
<path fill="#FFFEFC" opacity="1.000000" stroke="none" 
	d="
M1251.426880,2419.517090 
	C1224.758057,2466.064453 1198.503540,2512.005371 1172.156006,2557.893066 
	C1163.901733,2572.269287 1150.442261,2578.863525 1134.556519,2576.679443 
	C1109.812378,2573.277832 1095.442993,2545.544434 1107.555420,2523.613281 
	C1121.069092,2499.145752 1135.226807,2475.033691 1149.113159,2450.771973 
	C1166.636475,2420.156250 1184.301025,2389.620361 1201.626343,2358.893311 
	C1207.897339,2347.771484 1217.358643,2341.834473 1229.554443,2340.310547 
	C1243.533936,2338.563965 1255.409546,2343.178467 1263.395874,2355.038574 
	C1271.582886,2367.196777 1273.325439,2380.314453 1266.081421,2393.703613 
	C1261.490234,2402.189941 1256.575073,2410.500977 1251.426880,2419.517090 
z"/>
<path fill="#FFFEFC" opacity="1.000000" stroke="none" 
	d="
M2043.643921,1635.539795 
	C2027.423950,1644.854736 2011.599487,1653.419556 1996.319702,1662.865845 
	C1980.845215,1672.432373 1961.860229,1667.197021 1951.968262,1657.802490 
	C1940.608276,1647.014282 1937.663330,1629.354492 1944.860718,1614.512939 
	C1947.849243,1608.350586 1952.272705,1603.572754 1958.255859,1600.136353 
	C2013.382935,1568.473389 2068.552002,1536.882568 2123.553467,1505.002441 
	C2141.116699,1494.822266 2164.416992,1503.302246 2173.228760,1518.665405 
	C2182.965820,1535.642700 2177.386719,1558.348145 2160.203369,1568.361450 
	C2121.668945,1590.817139 2082.932617,1612.926147 2043.643921,1635.539795 
z"/>
<path fill="#FFFEFC" opacity="1.000000" stroke="none" 
	d="
M1238.714355,1367.202393 
	C1247.550903,1382.547607 1256.107666,1397.209473 1264.424194,1412.006104 
	C1272.911865,1427.107666 1270.396729,1445.040405 1258.390991,1456.923462 
	C1247.087769,1468.111450 1228.345093,1470.543091 1214.074097,1461.742065 
	C1209.189209,1458.729126 1204.554932,1454.163330 1201.677490,1449.218262 
	C1169.873901,1394.560913 1138.638306,1339.572754 1106.784912,1284.944824 
	C1096.970093,1268.112671 1103.514771,1244.031616 1120.527954,1234.536621 
	C1139.581909,1223.902832 1162.503906,1233.718018 1170.853882,1248.738159 
	C1192.844971,1288.296387 1215.773804,1327.333374 1238.714355,1367.202393 
z"/>
<path fill="#FFFDF8" opacity="1.000000" stroke="none" 
	d="
M2028.994385,648.425964 
	C2025.125610,647.038025 2022.019409,645.648376 2018.785278,645.216614 
	C2005.069092,643.385498 1996.111450,650.086609 1994.248535,663.778687 
	C1993.397949,670.030579 1993.163696,676.404114 1993.139526,682.724365 
	C1993.028564,711.721497 1992.880859,740.721802 1993.220459,769.715393 
	C1993.321045,778.302795 1994.195801,787.049927 1996.113403,795.402954 
	C1998.328369,805.051392 2004.369873,809.133362 2014.101807,809.797607 
	C2024.843384,810.530884 2032.098389,806.688293 2036.155762,797.842896 
	C2037.395752,795.139771 2038.453613,792.254456 2038.983398,789.341370 
	C2041.192505,777.194702 2040.833374,764.980469 2040.012573,751.973328 
	C2032.588257,751.973328 2025.689819,751.973328 2018.401001,751.973328 
	C2015.755981,743.227600 2017.038696,735.103943 2017.394653,726.317871 
	C2036.972900,726.317871 2056.130859,726.317871 2075.319092,726.317871 
	C2077.494141,733.066223 2078.294678,819.437805 2076.207275,836.260864 
	C2068.206543,836.260864 2060.085449,836.260864 2051.183594,836.260864 
	C2050.191650,831.037842 2049.166504,825.640808 2047.873901,818.834167 
	C2045.447021,821.802429 2043.793335,823.687256 2042.291748,825.686401 
	C2037.067139,832.642334 2030.272095,837.369141 2021.722900,838.827759 
	C1996.550049,843.122681 1967.375366,836.875122 1957.907715,803.513550 
	C1954.669678,792.103638 1952.768311,779.998779 1952.421387,768.147949 
	C1951.631470,741.173767 1952.033936,714.159119 1952.253418,687.163391 
	C1952.356567,674.472778 1953.890503,661.905090 1958.095459,649.804871 
	C1964.440796,631.545227 1977.028320,620.237610 1996.050903,616.784241 
	C2010.600342,614.142944 2025.250122,614.229370 2039.662354,618.077148 
	C2054.921143,622.151062 2065.363770,631.619019 2070.738770,646.543640 
	C2075.674561,660.248596 2076.644043,674.363281 2075.406738,689.470337 
	C2062.936768,689.470337 2050.789307,689.470337 2037.323242,689.470337 
	C2037.323242,683.954773 2037.687378,678.369995 2037.238770,672.851318 
	C2036.547241,664.345642 2037.280273,655.255249 2028.994385,648.425964 
z"/>
<path fill="#FFFEFC" opacity="1.000000" stroke="none" 
	d="
M1885.003662,2573.733887 
	C1867.794434,2580.090332 1847.312500,2573.462646 1837.479370,2555.858154 
	C1807.463989,2502.120605 1776.446899,2448.940430 1745.593384,2395.674561 
	C1739.667847,2385.444336 1738.204712,2375.077393 1742.117188,2364.107422 
	C1746.976196,2350.483643 1756.317383,2341.532715 1771.046997,2339.933350 
	C1786.409790,2338.265625 1799.630493,2342.791992 1807.744995,2356.829346 
	C1839.550781,2411.850830 1870.934326,2467.117676 1902.923462,2522.031982 
	C1913.785156,2540.677734 1903.445557,2566.625977 1885.003662,2573.733887 
z"/>
<path fill="#FFFEFC" opacity="1.000000" stroke="none" 
	d="
M911.797363,2201.904541 
	C945.916077,2182.323730 979.424561,2163.148193 1012.826355,2143.788818 
	C1021.646362,2138.676758 1030.669922,2137.020264 1040.599365,2139.651611 
	C1055.281738,2143.542236 1065.900024,2154.451416 1067.976685,2168.194824 
	C1070.413452,2184.319824 1064.146606,2198.623535 1050.487183,2206.517334 
	C995.737183,2238.157959 940.783264,2269.447510 886.153931,2301.293945 
	C869.618042,2310.934082 846.000183,2304.425293 836.398071,2288.028564 
	C826.413818,2270.978760 833.025757,2246.402588 849.637146,2237.474854 
	C870.442932,2226.293213 890.670288,2214.034912 911.797363,2201.904541 
z"/>
<path fill="#FFFEFD" opacity="1.000000" stroke="none" 
	d="
M1849.828003,1373.897461 
	C1835.437500,1399.098145 1821.480835,1423.704102 1807.296631,1448.178223 
	C1797.983887,1464.246582 1778.427979,1470.784790 1761.440186,1463.859497 
	C1745.244019,1457.256958 1735.665527,1438.531860 1739.896362,1421.213867 
	C1740.748779,1417.724365 1742.351562,1414.314209 1744.144653,1411.173828 
	C1775.168701,1356.842285 1806.513184,1302.691895 1837.204590,1248.173584 
	C1845.176514,1234.012573 1863.295654,1225.809692 1881.045776,1231.034912 
	C1896.758911,1235.660278 1907.293823,1251.464600 1905.771362,1268.923584 
	C1905.272339,1274.643799 1902.974243,1280.586060 1900.131348,1285.660522 
	C1883.702515,1314.982910 1866.864502,1344.075928 1849.828003,1373.897461 
z"/>
<path fill="#FFFEFD" opacity="1.000000" stroke="none" 
	d="
M2013.732178,2152.321045 
	C2062.591309,2180.285156 2110.737793,2208.021484 2159.066162,2235.437012 
	C2170.825928,2242.107910 2177.155762,2251.704346 2178.302002,2264.944824 
	C2179.528809,2279.122803 2174.444824,2290.575195 2162.427979,2298.230957 
	C2149.994141,2306.152588 2136.910156,2307.210938 2123.718018,2299.663330 
	C2083.864502,2276.862305 2044.013794,2254.055908 2004.166748,2231.243164 
	C1989.729614,2222.978027 1975.578857,2214.158203 1960.801758,2206.555176 
	C1944.613159,2198.225830 1938.126709,2178.100098 1943.371460,2162.050537 
	C1948.734497,2145.638916 1965.175659,2135.707275 1983.600220,2137.951904 
	C1987.447754,2138.420654 1991.324219,2139.939453 1994.823364,2141.698486 
	C2001.057617,2144.832520 2007.013916,2148.519531 2013.732178,2152.321045 
z"/>
<path fill="#FFFEFB" opacity="1.000000" stroke="none" 
	d="
M791.430237,789.751465 
	C794.660339,804.653625 799.879395,809.672424 811.618958,809.854187 
	C823.414307,810.036804 830.470215,804.255371 831.741638,792.250977 
	C832.616089,783.994446 832.359863,775.615417 832.542419,767.289673 
	C832.628235,763.378235 832.557129,759.463257 832.557129,754.314514 
	C839.855713,754.314514 846.080872,754.314575 852.306030,754.314575 
	C858.258972,754.314575 864.211914,754.314514 871.202454,754.314514 
	C871.386536,758.544861 871.898682,762.100037 871.627869,765.594604 
	C870.729553,777.185486 870.575562,788.964417 868.260132,800.287598 
	C863.676147,822.704468 849.205750,835.266296 826.519226,838.693726 
	C813.100342,840.721008 799.974487,840.148254 787.006165,836.168518 
	C772.750061,831.793579 762.155518,822.868591 757.022400,808.955811 
	C753.608276,799.702148 750.545532,789.719604 750.324097,779.994995 
	C749.527710,745.023071 749.647766,710.015930 750.251404,675.036438 
	C750.403259,666.236023 752.943665,657.267700 755.619507,648.764587 
	C760.836487,632.186218 772.641418,622.154297 789.381165,617.833008 
	C803.177856,614.271545 817.135376,614.260010 831.006592,616.853577 
	C852.481750,620.868835 864.747314,634.561646 869.189697,655.436157 
	C872.041321,668.835632 872.327881,682.469910 871.209412,696.900513 
	C858.578491,696.900513 846.180603,696.900513 832.416870,696.900513 
	C832.416870,688.673401 832.439880,680.763977 832.403992,672.854919 
	C832.391907,670.190369 832.300354,667.521851 832.125183,664.863098 
	C831.245667,651.510132 825.465210,645.339905 813.376160,644.784851 
	C801.142334,644.223145 793.994568,649.816162 791.713684,662.127686 
	C790.868469,666.690308 790.285645,671.374573 790.269104,676.005920 
	C790.148743,709.667297 790.168091,743.329407 790.250244,776.991028 
	C790.259949,780.966248 790.917786,784.939819 791.430237,789.751465 
z"/>
<path fill="#FFFEFB" opacity="1.000000" stroke="none" 
	d="
M830.375122,451.787659 
	C828.920166,443.461945 827.595276,435.986664 826.226318,428.262756 
	C813.512329,428.262756 801.609070,428.262756 788.818176,428.262756 
	C785.723999,444.961731 782.658325,461.506622 779.553162,478.264679 
	C766.924683,478.264679 755.004089,478.264679 741.749084,478.264679 
	C756.619690,405.091095 771.367920,332.519836 786.156006,259.752075 
	C800.336792,259.752075 813.614136,259.752075 828.264709,259.752075 
	C842.922485,332.030823 857.639648,404.602478 872.525146,478.004028 
	C859.611877,478.004028 847.823303,478.004028 835.265442,478.004028 
	C833.665833,469.480103 832.085571,461.059113 830.375122,451.787659 
M804.731995,328.205078 
	C800.886841,352.306549 797.041687,376.408020 793.095825,401.140717 
	C803.369568,401.140717 812.173706,401.140717 820.991516,401.140717 
	C820.529785,385.309631 809.803284,324.375305 806.480835,318.690826 
	C806.000488,321.469513 805.550293,324.073547 804.731995,328.205078 
z"/>
<path fill="#FFFEFB" opacity="1.000000" stroke="none" 
	d="
M2084.298584,478.535065 
	C2078.900391,475.214417 2082.202393,471.110901 2082.832764,467.735687 
	C2086.315430,449.086823 2090.293457,430.530701 2094.079102,411.938171 
	C2104.042236,363.005859 2113.990723,314.070557 2123.962646,265.140015 
	C2124.289307,263.538727 2124.809326,261.976898 2125.368896,259.919983 
	C2139.069580,259.919983 2152.612305,259.919983 2167.195557,259.919983 
	C2181.846436,332.184479 2196.502197,404.472076 2211.438721,478.143646 
	C2204.850098,478.322113 2199.052246,478.542419 2193.252686,478.618774 
	C2187.269531,478.697571 2181.284912,478.636322 2174.241699,478.636322 
	C2171.246582,462.091736 2168.300781,445.819336 2165.101562,428.148407 
	C2153.160645,427.547455 2141.009766,427.904999 2127.724609,427.981110 
	C2124.641602,444.743347 2121.603760,461.259338 2118.413574,478.602112 
	C2106.926025,478.602112 2096.007324,478.602112 2084.298584,478.535065 
M2154.415283,401.710724 
	C2159.572510,402.254639 2160.665527,399.631317 2159.905273,395.083435 
	C2155.651123,369.625977 2151.493652,344.152374 2147.303223,318.684265 
	C2146.651855,318.628113 2146.000244,318.571930 2145.348877,318.515778 
	C2140.883789,345.810974 2136.418945,373.106171 2131.738281,401.718933 
	C2139.407715,401.718933 2145.981934,401.718933 2154.415283,401.710724 
z"/>
<path fill="#FFFEFB" opacity="1.000000" stroke="none" 
	d="
M1608.553223,443.617615 
	C1607.577271,438.186737 1606.766479,433.605988 1605.857544,428.471252 
	C1593.419189,428.471252 1581.245850,428.471252 1568.338745,428.471252 
	C1565.326172,444.914215 1562.343506,461.194366 1559.262207,478.012817 
	C1546.838257,478.012817 1534.732666,478.012817 1521.405029,478.012817 
	C1536.236938,405.011108 1550.926880,332.708801 1565.708984,259.952576 
	C1579.799194,259.952576 1593.319946,259.952576 1607.906860,259.952576 
	C1622.547119,332.119690 1637.221191,404.453003 1651.885254,476.736938 
	C1644.520874,479.028687 1626.469360,479.424866 1614.715210,477.591034 
	C1612.739380,466.677826 1610.728882,455.572815 1608.553223,443.617615 
M1574.807739,401.424072 
	C1583.354126,401.424072 1591.900635,401.424072 1601.509766,401.424072 
	C1596.828613,372.661224 1592.310425,344.899963 1587.792236,317.138733 
	C1584.524780,328.172577 1582.490601,339.185669 1580.796265,350.250793 
	C1578.237793,366.957794 1575.916382,383.701111 1574.807739,401.424072 
z"/>
<path fill="#FFFEFA" opacity="1.000000" stroke="none" 
	d="
M1205.868652,711.904358 
	C1214.289551,753.724060 1222.579468,794.703369 1231.034424,836.498840 
	C1218.002441,836.498840 1206.458496,836.498840 1193.776489,836.498840 
	C1190.803589,820.125916 1187.797607,803.570251 1184.732544,786.689941 
	C1172.114258,786.689941 1160.231323,786.689941 1147.312378,786.689941 
	C1144.268433,803.175293 1141.212524,819.725159 1138.099976,836.581909 
	C1125.487793,836.581909 1113.627075,836.581909 1100.297241,836.581909 
	C1115.092041,763.693115 1129.753174,691.463440 1144.570435,618.464050 
	C1158.392212,618.464050 1172.156128,618.464050 1186.831177,618.464050 
	C1193.118042,649.255249 1199.427979,680.159607 1205.868652,711.904358 
M1154.573730,739.637451 
	C1153.684814,746.090271 1152.795898,752.543091 1151.840698,759.476807 
	C1161.666870,759.476807 1170.481323,759.476807 1179.280151,759.476807 
	C1179.570679,746.497192 1168.442627,682.843811 1164.825439,677.638489 
	C1161.493164,698.023010 1158.230957,717.979065 1154.573730,739.637451 
z"/>
<path fill="#FFFCF5" opacity="1.000000" stroke="none" 
	d="
M1748.387329,646.057617 
	C1744.724731,646.105408 1741.652954,645.921814 1741.635864,649.761230 
	C1741.550659,668.986572 1741.596924,688.212402 1741.596924,708.541626 
	C1755.427246,708.541626 1768.253418,708.541626 1781.635132,708.541626 
	C1781.635132,718.486755 1781.635132,727.312500 1781.635132,737.248413 
	C1768.515991,737.248413 1755.673828,737.248413 1742.170654,737.248413 
	C1742.170654,761.471436 1742.170654,784.598572 1742.170654,808.982727 
	C1759.106567,808.982727 1775.896851,808.982727 1793.276611,808.982727 
	C1793.276611,818.713135 1793.276611,827.203186 1793.276611,836.402100 
	C1762.973755,836.402100 1732.793213,836.402100 1702.628662,836.402100 
	C1700.417480,829.227295 1699.439697,640.549927 1701.545288,618.294067 
	C1731.612427,618.294067 1761.750854,618.294067 1792.504395,618.294067 
	C1792.504395,627.295471 1792.504395,636.089478 1792.504395,646.052490 
	C1777.803833,646.052490 1763.578247,646.052490 1748.387329,646.057617 
z"/>
<path fill="#FFFEFC" opacity="1.000000" stroke="none" 
	d="
M1993.342285,378.631653 
	C1982.516235,378.632080 1972.620483,378.632080 1962.215332,378.632080 
	C1962.215332,402.970703 1962.215332,426.167267 1962.215332,450.654053 
	C1979.192261,450.654053 1995.977051,450.654053 2013.375000,450.654053 
	C2013.375000,460.417480 2013.375000,468.906952 2013.375000,478.021545 
	C1983.117188,478.021545 1952.933105,478.021545 1922.049683,478.021545 
	C1922.049683,405.548126 1922.049683,333.098877 1922.049683,260.007263 
	C1952.209351,260.007263 1982.316772,260.007263 2012.931030,260.007263 
	C2012.931030,269.053192 2012.931030,277.590057 2012.931030,286.661591 
	C2004.751953,289.064087 1996.457886,287.508911 1988.311279,287.785919 
	C1980.010498,288.068176 1971.692749,287.848328 1962.051880,287.848328 
	C1961.302246,298.384460 1961.800781,308.587860 1961.708374,318.750854 
	C1961.617554,328.728333 1961.688477,338.707245 1961.688477,350.074524 
	C1975.168091,350.074524 1988.264404,350.074524 2001.825928,350.074524 
	C2001.825928,360.002289 2001.825928,368.543365 2001.825928,377.792175 
	C1999.293213,378.073486 1996.782837,378.352356 1993.342285,378.631653 
z"/>
<path fill="#FFFEFA" opacity="1.000000" stroke="none" 
	d="
M1449.346069,775.999146 
	C1449.346313,722.815125 1449.346313,670.631104 1449.346313,618.051880 
	C1480.386475,618.051880 1510.284180,618.051880 1540.939209,618.051880 
	C1540.939209,627.031006 1540.939209,635.807434 1540.939209,645.578247 
	C1524.364624,645.578247 1507.876709,645.578247 1490.156494,645.578247 
	C1489.259766,656.603455 1489.821045,666.800537 1489.717407,676.952087 
	C1489.615845,686.913940 1489.695312,696.877625 1489.695312,708.280884 
	C1503.208862,708.280884 1516.270386,708.280884 1529.825195,708.280884 
	C1529.825195,718.551392 1529.825195,727.379395 1529.825195,737.273804 
	C1516.590088,737.273804 1503.755981,737.273804 1490.324707,737.273804 
	C1490.324707,761.467346 1490.324707,784.604004 1490.324707,808.958618 
	C1507.187744,808.958618 1523.955933,808.958618 1541.367920,808.958618 
	C1541.367920,818.628235 1541.367920,827.099548 1541.367920,836.319031 
	C1511.200439,836.319031 1481.047729,836.319031 1449.391479,836.319031 
	C1449.300537,816.682861 1449.364624,796.839905 1449.346069,775.999146 
z"/>
<path fill="#FFFEFB" opacity="1.000000" stroke="none" 
	d="
M1001.641479,695.999878 
	C1001.641418,669.715332 1001.641418,644.430725 1001.641418,618.400513 
	C1032.330688,618.400513 1062.408813,618.400513 1093.093140,618.400513 
	C1093.093140,627.158997 1093.093140,635.687256 1093.093140,644.973999 
	C1084.855591,647.241028 1076.232544,645.675781 1067.758789,645.961548 
	C1059.520752,646.239319 1051.266113,646.021851 1042.454834,646.021851 
	C1042.454834,667.171082 1042.454834,687.287537 1042.454834,708.421387 
	C1055.730957,708.421387 1068.567627,708.421387 1082.019653,708.421387 
	C1082.019653,718.268494 1082.019653,727.108276 1082.019653,736.993896 
	C1069.030273,736.993896 1056.211792,736.993896 1043.684937,736.993896 
	C1041.441406,745.237305 1041.148071,798.518555 1043.221313,809.360413 
	C1051.253784,809.360413 1059.506226,809.360413 1067.758545,809.360413 
	C1076.060303,809.360413 1084.362183,809.360413 1093.423340,809.360413 
	C1093.423340,818.456360 1093.423340,826.895447 1093.423340,835.392578 
	C1086.428955,837.499451 1012.420715,837.880005 1001.641479,835.645081 
	C1001.641479,789.546875 1001.641479,743.273376 1001.641479,695.999878 
z"/>
<path fill="#FFFDF9" opacity="1.000000" stroke="none" 
	d="
M2190.014404,690.160645 
	C2183.897461,708.953247 2177.789062,726.920044 2172.181152,745.041748 
	C2170.540039,750.344604 2169.648926,756.078796 2169.572021,761.631226 
	C2169.276855,782.953369 2169.452148,804.282104 2169.451904,825.608337 
	C2169.451904,828.900696 2169.451904,832.192993 2169.451904,836.707336 
	C2156.310059,837.341248 2143.900879,837.078186 2130.548096,836.908386 
	C2130.548096,832.382385 2130.548340,829.120972 2130.548096,825.859558 
	C2130.547852,804.533325 2130.745117,783.203979 2130.418701,761.882751 
	C2130.328613,756.004028 2129.421875,749.908447 2127.619385,744.322327 
	C2115.250732,705.993347 2102.537109,667.775635 2089.958740,629.514160 
	C2088.824707,626.064148 2087.861328,622.558167 2086.585205,618.299194 
	C2099.044922,618.299194 2110.858154,618.299194 2123.798828,618.299194 
	C2132.375977,645.617065 2141.083496,673.350891 2149.791016,701.084717 
	C2150.393555,701.021057 2150.996338,700.957397 2151.598877,700.893738 
	C2159.854980,673.309570 2168.111328,645.725342 2176.406250,618.011475 
	C2188.704834,618.011475 2200.280518,618.011475 2213.521729,618.011475 
	C2205.580078,642.333374 2197.896973,665.863647 2190.014404,690.160645 
z"/>
<path fill="#FFFEFA" opacity="1.000000" stroke="none" 
	d="
M974.654785,287.351593 
	C959.187012,287.407410 944.607178,287.407410 929.351196,287.407410 
	C929.351196,308.587158 929.351196,328.728119 929.351196,349.927216 
	C941.898071,351.538727 954.816406,349.723663 968.065918,351.035980 
	C968.065918,360.365021 968.065918,369.167358 968.065918,379.079712 
	C955.092773,379.079712 942.603455,379.079712 928.999207,379.079712 
	C928.999207,412.579742 928.999207,445.004242 928.999207,478.026428 
	C915.054565,478.026428 902.253296,478.026428 888.875732,478.026428 
	C888.875732,405.293304 888.875732,332.893555 888.875732,259.926086 
	C918.575684,259.926086 948.050720,259.926086 978.507935,259.926086 
	C978.507935,268.119659 978.628723,276.013519 978.375793,283.895416 
	C978.338440,285.057953 976.531189,286.163727 974.654785,287.351593 
z"/>
<path fill="#FFFEFB" opacity="1.000000" stroke="none" 
	d="
M1074.358398,367.778259 
	C1074.358276,371.675476 1074.358276,374.634491 1074.358276,378.919250 
	C1060.900024,378.919250 1048.129517,378.919250 1034.354248,378.919250 
	C1034.354248,412.707062 1034.354248,445.191803 1034.354248,478.148987 
	C1020.771240,478.148987 1008.214172,478.148987 995.717773,478.148987 
	C993.754333,470.501434 992.956177,279.886200 994.815125,260.107178 
	C1024.167603,260.107178 1053.602783,260.107178 1083.701172,260.107178 
	C1083.701172,268.853516 1083.701172,277.593597 1083.701172,287.267090 
	C1067.358521,287.267090 1051.486084,287.267090 1034.914551,287.267090 
	C1034.914551,308.594788 1034.914551,328.999298 1034.914551,350.396240 
	C1047.806885,350.396240 1060.315674,350.396240 1073.855103,350.396240 
	C1074.041382,356.481995 1074.199829,361.661011 1074.358398,367.778259 
z"/>
<path fill="#FFFCF5" opacity="1.000000" stroke="none" 
	d="
M1812.885254,365.999573 
	C1812.885498,330.122711 1812.885498,295.245911 1812.885498,259.940918 
	C1826.884888,259.940918 1839.706299,259.940918 1853.334106,259.940918 
	C1853.334106,323.405182 1853.334106,386.260559 1853.334106,450.451233 
	C1870.849121,450.451233 1887.618896,450.451233 1905.123779,450.451233 
	C1905.123779,460.218048 1905.123779,468.678528 1905.123779,477.190460 
	C1897.973755,479.064636 1825.120972,479.436066 1812.885010,477.421661 
	C1812.885010,440.751556 1812.885010,403.875580 1812.885254,365.999573 
z"/>
<path fill="#FFFEFA" opacity="1.000000" stroke="none" 
	d="
M893.639893,636.062012 
	C893.639832,629.771912 893.639832,624.473999 893.639832,618.414246 
	C906.963257,618.414246 919.718506,618.414246 933.577271,618.414246 
	C933.577271,681.772766 933.577271,744.928406 933.577271,809.212891 
	C951.460083,809.212891 968.297607,809.212891 985.528320,809.212891 
	C985.528320,818.865967 985.528320,827.377808 985.528320,836.469116 
	C954.856689,836.469116 924.686401,836.469116 893.639893,836.469116 
	C893.639893,769.607422 893.639893,703.330811 893.639893,636.062012 
z"/>
<path fill="#FFB203" opacity="1.000000" stroke="none" 
	d="
M1360.260742,1724.248413 
	C1382.901489,1706.210938 1407.236450,1692.876953 1435.665405,1683.977295 
	C1436.353638,1712.913330 1435.837646,1740.958740 1436.004272,1766.877563 
	C1422.551880,1777.460205 1409.359131,1785.732788 1398.759644,1796.547241 
	C1356.352051,1839.814331 1342.904663,1891.706909 1361.150391,1949.222656 
	C1379.401978,2006.757690 1420.253418,2041.754395 1479.945679,2052.255371 
	C1564.771484,2067.177734 1645.052612,2007.161011 1654.218018,1921.822632 
	C1661.104736,1857.700806 1635.626709,1808.301270 1581.329834,1773.894165 
	C1575.276978,1770.058472 1572.612305,1766.355469 1572.795044,1759.020508 
	C1573.326050,1737.706177 1572.984741,1716.370239 1572.985596,1695.042725 
	C1572.985718,1691.787720 1572.985596,1688.532837 1572.985596,1684.216309 
	C1576.570435,1685.139771 1579.101318,1685.521729 1581.426514,1686.430054 
	C1665.574219,1719.301636 1717.870239,1779.571655 1731.922241,1869.071777 
	C1751.047485,1990.884644 1672.628418,2102.552734 1552.130005,2128.991211 
	C1430.410278,2155.697998 1305.615234,2076.186035 1280.243896,1953.997803 
	C1261.237427,1862.461792 1289.083374,1785.834717 1360.260742,1724.248413 
z"/>
<path fill="#FFB205" opacity="1.000000" stroke="none" 
	d="
M1471.992676,1767.985962 
	C1471.992310,1725.689575 1472.051147,1684.390381 1471.930420,1643.091431 
	C1471.911499,1636.600708 1472.826904,1630.543823 1476.215820,1624.922974 
	C1483.827393,1612.298462 1498.796387,1605.653198 1512.053589,1609.098145 
	C1526.927002,1612.963135 1537.296875,1625.661621 1537.619629,1640.957764 
	C1537.872559,1652.942505 1537.677002,1664.936768 1537.677246,1676.926880 
	C1537.678345,1713.230103 1537.614258,1749.533691 1537.729736,1785.836548 
	C1537.753662,1793.371094 1536.511597,1800.385498 1532.167358,1806.677368 
	C1523.662720,1818.994751 1508.952515,1824.326904 1495.478271,1820.214355 
	C1482.249512,1816.176636 1470.622559,1802.087524 1471.896118,1787.958862 
	C1472.461914,1781.681641 1471.992188,1775.311279 1471.992676,1767.985962 
z"/>
<path fill="#FFB203" opacity="1.000000" stroke="none" 
	d="
M2409.714844,447.602478 
	C2409.547119,394.104095 2409.547119,341.559967 2409.547119,287.786804 
	C2417.619141,288.243561 2424.597656,288.026245 2431.347412,289.164886 
	C2441.297852,290.843384 2446.391113,296.509460 2447.720703,306.647491 
	C2448.541504,312.905396 2448.835449,319.272736 2448.836182,325.590973 
	C2448.839355,356.249237 2448.698486,386.907745 2448.511963,417.565552 
	C2448.483643,422.221802 2448.321533,426.935913 2447.572510,431.517273 
	C2445.811768,442.294434 2440.118896,448.330200 2429.239502,449.538757 
	C2422.901855,450.242798 2416.342529,448.950714 2409.714844,447.602478 
z"/>
<path fill="#FFB205" opacity="1.000000" stroke="none" 
	d="
M1730.901855,449.864807 
	C1723.134277,449.955505 1716.239868,449.955505 1708.768799,449.955505 
	C1708.768799,425.693268 1708.768799,402.230316 1708.768799,377.401215 
	C1719.458618,376.700226 1730.163208,376.197571 1740.363281,381.220337 
	C1746.398315,384.192108 1749.764160,389.485443 1751.755493,395.697205 
	C1755.080444,406.069122 1754.825684,416.723877 1753.369385,427.285980 
	C1751.646851,439.781555 1744.892456,447.964172 1730.901855,449.864807 
z"/>
<path fill="#FFB205" opacity="1.000000" stroke="none" 
	d="
M1727.169678,288.088013 
	C1731.284668,288.905731 1734.616211,289.382996 1737.730103,290.478577 
	C1744.520142,292.867523 1748.638184,297.645203 1750.177734,304.828278 
	C1752.108521,313.837494 1751.598389,322.751007 1749.458130,331.560730 
	C1747.277832,340.534607 1741.310181,346.201202 1732.241211,347.486237 
	C1724.765137,348.545563 1717.114868,348.375244 1708.834717,348.784851 
	C1708.834717,328.237793 1708.834717,308.756744 1708.834717,288.028015 
	C1714.626465,288.028015 1720.457031,288.028015 1727.169678,288.088013 
z"/>
<path fill="#FFB205" opacity="1.000000" stroke="none" 
	d="
M1886.724487,702.566589 
	C1876.446411,712.138489 1864.609009,711.428894 1852.059814,711.088379 
	C1852.059814,689.211304 1852.059814,668.125977 1852.059814,645.875488 
	C1861.217407,645.282410 1870.271973,644.712830 1879.183350,647.955444 
	C1884.860352,650.021118 1888.779297,653.994995 1890.461182,659.725098 
	C1894.702148,674.174438 1895.256470,688.432129 1886.724487,702.566589 
z"/>
<path fill="#FFB50E" opacity="1.000000" stroke="none" 
	d="
M1302.581299,352.503418 
	C1297.163452,352.583099 1292.573242,352.583099 1287.266357,352.583099 
	C1287.266357,330.962128 1287.266357,309.815796 1287.266357,287.551239 
	C1297.004395,286.365234 1306.786133,286.290710 1316.209473,290.222534 
	C1322.985840,293.049896 1326.597290,299.059570 1327.277710,305.835754 
	C1328.167969,314.702850 1328.612549,323.869568 1327.356934,332.636414 
	C1325.562378,345.165405 1318.500732,350.227173 1302.581299,352.503418 
z"/>
<path fill="#FFB205" opacity="1.000000" stroke="none" 
	d="
M1167.626221,450.295105 
	C1162.598022,450.681030 1158.232056,451.511353 1154.078247,450.900513 
	C1146.543579,449.792572 1141.276733,445.356171 1139.494995,437.693848 
	C1138.521606,433.507874 1137.572998,429.190033 1137.555298,424.927704 
	C1137.401001,387.622803 1137.446533,350.317017 1137.481689,313.011505 
	C1137.484131,310.355042 1137.691040,307.669556 1138.113281,305.047546 
	C1140.744263,288.710999 1158.349365,280.638184 1172.226685,289.743225 
	C1175.316162,291.770264 1178.022583,295.474487 1179.248535,298.985107 
	C1180.968506,303.909912 1181.828003,309.372223 1181.859131,314.611694 
	C1182.072876,350.591766 1182.028076,386.573883 1181.905640,422.554810 
	C1181.891113,426.835815 1181.084351,431.145630 1180.328003,435.385559 
	C1179.072388,442.423370 1175.441650,447.688293 1167.626221,450.295105 
z"/>
<path fill="#FFB205" opacity="1.000000" stroke="none" 
	d="
M1463.992676,293.955627 
	C1466.410400,298.652588 1468.463013,302.750977 1470.001831,307.033936 
	C1470.768188,309.167389 1470.819580,311.639832 1470.810425,313.957458 
	C1470.659668,351.917877 1470.832886,389.885895 1470.058960,427.834412 
	C1469.751587,442.899445 1462.394653,449.202545 1447.342285,450.146912 
	C1442.460571,450.453186 1437.543457,450.195007 1432.171387,450.195007 
	C1432.171387,396.057892 1432.171387,342.858185 1432.171387,288.349518 
	C1442.922485,288.036804 1453.703735,286.308563 1463.992676,293.955627 
z"/>
<path fill="#FFB50E" opacity="1.000000" stroke="none" 
	d="
M804.916077,327.441345 
	C805.550293,324.073547 806.000488,321.469513 806.480835,318.690826 
	C809.803284,324.375305 820.529785,385.309631 820.991516,401.140717 
	C812.173706,401.140717 803.369568,401.140717 793.095825,401.140717 
	C797.041687,376.408020 800.886841,352.306549 804.916077,327.441345 
z"/>
<path fill="#FFB50E" opacity="1.000000" stroke="none" 
	d="
M2153.485840,401.714844 
	C2145.981934,401.718933 2139.407715,401.718933 2131.738281,401.718933 
	C2136.418945,373.106171 2140.883789,345.810974 2145.348877,318.515778 
	C2146.000244,318.571930 2146.651855,318.628113 2147.303223,318.684265 
	C2151.493652,344.152374 2155.651123,369.625977 2159.905273,395.083435 
	C2160.665527,399.631317 2159.572510,402.254639 2153.485840,401.714844 
z"/>
<path fill="#FFB50E" opacity="1.000000" stroke="none" 
	d="
M1574.151001,400.926514 
	C1575.916382,383.701111 1578.237793,366.957794 1580.796265,350.250793 
	C1582.490601,339.185669 1584.524780,328.172577 1587.792236,317.138733 
	C1592.310425,344.899963 1596.828613,372.661224 1601.509766,401.424072 
	C1591.900635,401.424072 1583.354126,401.424072 1574.151001,400.926514 
z"/>
<path fill="#FFB50E" opacity="1.000000" stroke="none" 
	d="
M1154.771240,738.786255 
	C1158.230957,717.979065 1161.493164,698.023010 1164.825439,677.638489 
	C1168.442627,682.843811 1179.570679,746.497192 1179.280151,759.476807 
	C1170.481323,759.476807 1161.666870,759.476807 1151.840698,759.476807 
	C1152.795898,752.543091 1153.684814,746.090271 1154.771240,738.786255 
z"/>
</svg>