<svg version="1.1" id="Layer_1" xmlns="http://www.w3.org/2000/svg" xmlns:xlink="http://www.w3.org/1999/xlink" x="0px" y="0px"
	 width="100%" viewBox="0 0 3000 3000" enable-background="new 0 0 3000 3000" xml:space="preserve">
<path fill="#850139" opacity="1.000000" stroke="none" 
	d="
M2.000000,1096.000000 
	C2.000000,730.666748 2.000000,366.333466 2.000000,2.000147 
	C1001.999756,2.000098 2001.999512,2.000098 3001.999512,2.000049 
	C3001.999512,1001.999573 3001.999512,2001.999146 3001.999756,3001.999023 
	C2002.000610,3001.999512 1002.001221,3001.999512 2.000903,3001.999756 
	C2.000000,2367.000000 2.000000,1732.000000 2.000000,1096.000000 
M2104.544678,2327.000244 
	C2104.544678,2233.666992 2104.544678,2140.333740 2104.544678,2047.000610 
	C2104.544434,1862.334839 2104.548096,1677.668945 2104.521240,1493.003174 
	C2104.520508,1488.681152 2104.715332,1484.251831 2103.882812,1480.058350 
	C2101.867920,1469.907104 2094.042480,1466.435181 2085.220459,1471.752563 
	C2081.560059,1473.958862 2078.295898,1476.938477 2075.174805,1479.906128 
	C1974.461548,1575.670532 1873.925293,1671.621704 1772.956055,1767.115112 
	C1758.265259,1781.009277 1752.007812,1796.701294 1752.026611,1816.675903 
	C1752.279541,2086.674561 1752.196045,2356.673096 1752.197876,2626.671875 
	C1752.197876,2629.338379 1752.041382,2632.020752 1752.273926,2634.668213 
	C1753.006226,2643.005127 1758.104248,2648.878418 1766.368530,2650.578613 
	C1769.592407,2651.242188 1772.978882,2651.317383 1776.291504,2651.318604 
	C1877.624390,2651.354492 1978.957153,2651.356445 2080.290039,2651.313721 
	C2083.932373,2651.312012 2087.666748,2651.218994 2091.198242,2650.441650 
	C2099.085205,2648.706055 2103.768799,2643.066895 2104.432373,2634.994385 
	C2104.677734,2632.012939 2104.541260,2628.998535 2104.541260,2625.999023 
	C2104.545166,2526.999512 2104.544678,2428.000000 2104.544678,2327.000244 
M1313.453857,2132.999756 
	C1313.453857,2296.951660 1313.452881,2460.903564 1313.454956,2624.855469 
	C1313.455200,2646.900146 1317.826782,2651.345215 1339.577637,2651.346924 
	C1439.547974,2651.354248 1539.518311,2651.354004 1639.488647,2651.346924 
	C1661.023682,2651.345459 1665.803955,2646.517090 1665.804077,2624.838379 
	C1665.805420,2390.907715 1665.805054,2156.977051 1665.804688,1923.046387 
	C1665.804688,1920.713745 1665.993408,1918.360229 1665.745117,1916.053955 
	C1665.463257,1913.435547 1665.126709,1910.734375 1664.222290,1908.287842 
	C1661.213379,1900.149170 1655.343262,1897.631348 1647.632935,1901.743896 
	C1643.308105,1904.050659 1639.288696,1907.274902 1635.804443,1910.758545 
	C1608.235474,1938.323120 1580.825684,1966.046997 1553.372314,1993.727051 
	C1532.488892,2014.783081 1511.642944,2035.876343 1490.716797,2056.889648 
	C1484.050415,2063.583496 1481.923218,2063.512451 1475.117310,2056.726562 
	C1469.927124,2051.551758 1464.877808,2046.235962 1459.742432,2041.005737 
	C1421.459595,2002.014893 1383.214111,1962.987427 1344.822632,1924.103882 
	C1340.650513,1919.878174 1336.015869,1915.815063 1330.905884,1912.876221 
	C1322.546265,1908.068237 1315.904297,1911.516724 1314.106079,1921.110229 
	C1313.377441,1924.997070 1313.480469,1929.069824 1313.478394,1933.058228 
	C1313.444458,1999.038696 1313.453979,2065.019043 1313.453857,2132.999756 
M1128.323608,1919.321533 
	C1078.843628,1966.395020 1029.365479,2013.470581 979.882935,2060.541504 
	C948.744202,2090.162598 917.788757,2119.979980 886.364746,2149.295410 
	C873.632874,2161.172852 866.666626,2174.993896 867.113586,2192.449463 
	C867.181763,2195.113037 867.105957,2197.780518 867.105957,2200.446045 
	C867.104980,2341.727783 867.343933,2483.010010 866.869202,2624.290283 
	C866.790283,2647.766113 876.076233,2651.541016 893.814270,2651.489502 
	C993.443604,2651.201172 1093.074219,2651.352539 1192.704468,2651.348877 
	C1215.003784,2651.348145 1219.804321,2646.588867 1219.804443,2624.501953 
	C1219.805908,2374.926514 1219.805542,2125.351318 1219.804077,1875.775879 
	C1219.804077,1872.777100 1220.058472,1869.744263 1219.695312,1866.788696 
	C1219.293945,1863.521973 1218.779907,1860.127441 1217.498047,1857.138916 
	C1214.476074,1850.093140 1208.839844,1847.921631 1202.045532,1851.505127 
	C1197.997437,1853.640015 1194.303467,1856.687256 1190.944580,1859.849365 
	C1170.326538,1879.258667 1149.849609,1898.817993 1128.323608,1919.321533 
M1233.922607,1677.344971 
	C1313.070679,1756.538696 1392.217651,1835.733521 1471.367554,1914.925415 
	C1483.393921,1926.958252 1483.401611,1926.953491 1495.585449,1914.769653 
	C1691.891357,1718.464600 1888.196777,1522.158936 2084.504395,1325.855469 
	C2087.283203,1323.076538 2090.091064,1320.326050 2093.218750,1317.232422 
	C2096.109619,1319.954834 2098.559082,1322.151245 2100.885742,1324.470825 
	C2114.337646,1337.884033 2127.752197,1351.334839 2141.199951,1364.752441 
	C2144.263916,1367.809570 2147.147461,1371.131592 2150.575928,1373.719971 
	C2155.894043,1377.734741 2161.847168,1375.819946 2164.282959,1369.682739 
	C2164.892334,1368.147583 2165.188965,1366.478271 2165.538818,1364.851196 
	C2182.195312,1287.417114 2198.845459,1209.981567 2215.469238,1132.540283 
	C2215.957031,1130.266846 2216.345947,1127.938843 2216.447266,1125.621704 
	C2216.799072,1117.551636 2212.800781,1113.770996 2204.925781,1114.765259 
	C2201.959961,1115.139404 2199.035156,1115.879639 2196.110840,1116.537842 
	C2160.722656,1124.502563 2125.343994,1132.508545 2089.951416,1140.452637 
	C2048.718750,1149.707520 2007.476685,1158.920288 1966.234375,1168.131470 
	C1957.229614,1170.142578 1954.848145,1177.251099 1960.891724,1184.379761 
	C1962.180786,1185.900146 1963.679932,1187.243408 1965.093384,1188.657227 
	C1976.639038,1200.206299 1988.188110,1211.751831 1999.734253,1223.300415 
	C2005.093994,1228.661133 2010.449463,1234.026123 2014.766113,1238.347534 
	C1836.813965,1416.299561 1659.481445,1593.632080 1481.188232,1771.925293 
	C1479.554077,1769.941528 1477.438354,1766.893921 1474.857666,1764.310791 
	C1397.835449,1687.210815 1320.767212,1610.156738 1243.705688,1533.096069 
	C1241.820435,1531.210815 1240.037354,1529.205200 1238.017700,1527.476196 
	C1233.426147,1523.545410 1231.154907,1523.484985 1226.636230,1527.109375 
	C1225.084961,1528.353882 1223.762329,1529.885742 1222.348389,1531.299316 
	C1071.524536,1682.121216 920.699646,1832.942261 769.884888,1983.773193 
	C761.203918,1992.455200 761.263611,1994.070557 770.311096,2003.128540 
	C788.917297,2021.756470 807.537170,2040.370728 826.156250,2058.985596 
	C837.304749,2070.131348 837.666992,2070.129395 849.008972,2058.787598 
	C973.910583,1933.888672 1098.805542,1808.983032 1223.743530,1684.120605 
	C1226.504639,1681.361328 1229.752197,1679.088745 1233.922607,1677.344971 
M262.384094,565.471680 
	C257.501099,574.537720 252.004395,583.333313 247.864563,592.726868 
	C239.580139,611.524841 236.183990,631.569214 234.990845,651.962769 
	C233.029373,685.488892 235.638702,718.608215 246.223282,750.646851 
	C260.898560,795.067688 290.471924,824.216248 336.233856,835.971436 
	C364.714935,843.287598 393.606720,843.705627 422.561401,839.774231 
	C476.067352,832.509155 512.345215,803.792419 530.164551,752.407288 
	C536.316956,734.665710 539.739868,716.369568 541.135681,697.723877 
	C543.540161,665.603455 542.104126,633.772278 531.926819,602.870239 
	C522.234131,573.439819 506.036896,548.945496 478.260345,533.428040 
	C477.487640,532.996399 477.058044,531.950439 476.474457,531.198730 
	C503.612640,507.117920 517.010620,487.700439 524.884399,458.273285 
	C534.802856,421.204254 535.540833,383.682861 525.467102,346.631500 
	C513.041443,300.930084 484.000275,270.547455 437.665680,258.438263 
	C405.181854,249.948868 372.265686,249.973495 339.736542,258.257263 
	C297.261383,269.073853 268.389282,295.456451 253.253677,336.701233 
	C246.406372,355.360291 243.700409,374.749420 243.184235,394.501282 
	C242.309158,427.986481 246.770432,460.285950 264.283844,489.732544 
	C273.752350,505.652679 285.581299,519.476501 301.200867,531.569885 
	C285.978668,540.274719 273.070679,550.589600 262.384094,565.471680 
M1554.007812,617.711487 
	C1549.715942,618.198853 1550.350464,621.801453 1549.762817,624.548828 
	C1544.471313,649.281128 1539.222656,674.022644 1533.955566,698.760193 
	C1529.141602,721.369385 1524.320679,743.977051 1519.502686,766.585388 
	C1518.911865,766.618835 1518.321045,766.652344 1517.730225,766.685791 
	C1507.520508,717.301514 1497.310913,667.917236 1487.073120,618.396851 
	C1473.100464,618.396851 1459.688721,618.396851 1445.811890,618.396851 
	C1444.575562,691.334717 1443.351807,763.534485 1442.119507,836.242432 
	C1452.662720,836.242432 1462.432739,836.242432 1473.040039,836.242432 
	C1473.720703,789.433167 1474.391846,743.284546 1475.062988,697.135864 
	C1475.854248,697.065002 1476.645386,696.994141 1477.436646,696.923279 
	C1487.265747,743.283691 1497.094849,789.644165 1507.007446,836.398071 
	C1515.026855,836.398071 1522.539795,836.398071 1530.805054,836.398071 
	C1540.693115,789.421143 1550.529541,742.689819 1560.365845,695.958435 
	C1560.982910,696.054749 1561.599976,696.151062 1562.216919,696.247437 
	C1563.066528,742.774414 1563.916138,789.301453 1564.777222,836.451904 
	C1568.877930,836.634521 1572.128418,836.869934 1575.381226,836.904663 
	C1581.624634,836.971313 1587.869385,836.924072 1595.039673,836.924072 
	C1593.841309,763.384521 1592.661011,690.950562 1591.466675,617.659119 
	C1579.014771,617.659119 1567.421387,617.659119 1554.007812,617.711487 
M2454.895752,697.745728 
	C2452.560791,715.860901 2450.226074,733.976074 2447.891113,752.091248 
	C2447.327148,752.069824 2446.763184,752.048401 2446.198975,752.026978 
	C2438.634033,707.516541 2431.068848,663.006104 2423.462646,618.252075 
	C2414.075928,618.252075 2405.246338,618.252075 2396.305420,618.252075 
	C2388.791992,663.310486 2381.373047,707.803650 2373.953857,752.296753 
	C2373.411865,752.240906 2372.869629,752.185059 2372.327393,752.129211 
	C2366.639893,707.638916 2360.952148,663.148621 2355.205322,618.194885 
	C2343.863525,618.194885 2333.062744,618.194885 2321.433105,618.194885 
	C2331.865234,691.223572 2342.206055,763.611023 2352.583252,836.255493 
	C2363.850586,836.255493 2374.639404,836.255493 2385.749756,836.255493 
	C2388.505127,820.276794 2391.181885,804.892517 2393.806641,789.499329 
	C2396.435303,774.082275 2398.925049,758.641052 2401.636963,743.238708 
	C2404.274170,728.259705 2405.587646,712.988403 2411.397461,698.605408 
	C2419.169678,744.458557 2426.942139,790.311707 2434.674316,835.927917 
	C2446.361816,837.595520 2459.804199,837.303650 2467.176025,835.247620 
	C2477.480713,763.128662 2487.808105,690.849548 2498.174805,618.295898 
	C2486.469238,618.295898 2475.996582,618.295898 2464.989990,618.295898 
	C2461.696533,644.572632 2458.473633,670.285400 2454.895752,697.745728 
M1603.420044,377.384399 
	C1598.354126,338.227356 1593.288208,299.070282 1588.187622,259.645233 
	C1576.314697,259.423828 1565.587158,259.150269 1554.491699,259.752441 
	C1565.053345,333.560760 1575.403198,405.889954 1585.700439,477.851318 
	C1597.620972,477.851318 1608.107666,477.851318 1618.938232,477.851318 
	C1626.804077,431.182892 1634.563110,385.148407 1642.322144,339.113922 
	C1642.957764,339.088837 1643.593384,339.063721 1644.229004,339.038605 
	C1652.121704,385.406647 1660.014282,431.774719 1667.881104,477.990356 
	C1679.277344,477.990356 1689.481201,477.990356 1700.119629,477.990356 
	C1710.526855,405.157959 1720.862061,332.829956 1731.266113,260.020081 
	C1719.590942,260.020081 1709.098877,260.020081 1698.273193,260.020081 
	C1692.134155,303.929382 1687.471191,347.514130 1681.205933,390.866516 
	C1680.418457,390.853638 1679.630981,390.840759 1678.843628,390.827881 
	C1671.392944,347.154877 1663.942261,303.481903 1656.544067,260.117126 
	C1646.761719,260.117126 1638.277954,260.117126 1629.339233,260.117126 
	C1621.936279,304.659729 1614.630493,348.617249 1607.324829,392.574768 
	C1606.680542,392.588257 1606.036255,392.601715 1605.391968,392.615204 
	C1604.815796,388.110107 1604.239624,383.604980 1603.420044,377.384399 
M2007.446899,350.051514 
	C2013.734131,334.385742 2013.745728,318.035889 2011.523315,301.792480 
	C2009.256470,285.225311 2000.728638,272.206360 1984.559448,266.207428 
	C1975.944946,263.011383 1966.609009,260.619690 1957.485107,260.169525 
	C1937.206177,259.169006 1916.855713,259.600494 1896.534180,259.528320 
	C1895.345825,259.524078 1894.155029,260.230652 1893.118896,260.557922 
	C1893.118896,333.211182 1893.118896,405.399231 1893.118896,477.976440 
	C1906.403809,477.976440 1919.191895,477.976440 1932.570679,477.976440 
	C1932.570679,466.442200 1932.570679,455.493622 1932.570679,444.545074 
	C1932.570679,433.549561 1932.464844,422.552704 1932.600708,411.558868 
	C1932.734497,400.735687 1931.983521,389.853271 1933.124268,379.205505 
	C1939.572632,379.205505 1944.763306,379.205505 1950.409424,379.205505 
	C1959.137817,412.422729 1967.742676,445.170074 1976.278442,477.654266 
	C1989.922363,479.435028 2009.596680,478.958405 2016.237549,476.719757 
	C2006.387939,441.584442 1996.534424,406.434540 1986.594604,370.977020 
	C1995.735962,366.216278 2002.872437,360.406403 2007.446899,350.051514 
M2303.323486,792.012451 
	C2304.008545,784.729553 2305.226318,777.450867 2305.284912,770.162964 
	C2305.515137,741.538513 2305.541748,712.909851 2305.307373,684.285522 
	C2305.200928,671.274170 2303.559082,658.437500 2298.349121,646.261597 
	C2292.027832,631.488098 2281.252197,621.957214 2265.700928,617.968323 
	C2251.278809,614.269043 2236.684570,614.306091 2222.151855,617.014221 
	C2200.519531,621.045410 2187.436279,634.579651 2182.310791,655.472290 
	C2180.033447,664.754395 2178.933105,674.521790 2178.783203,684.092102 
	C2178.335938,712.711426 2178.503418,741.342834 2178.678467,769.968018 
	C2178.751953,781.980652 2180.220215,793.871155 2184.400146,805.256409 
	C2191.177002,823.714233 2204.246582,834.638855 2223.635010,838.139465 
	C2235.896240,840.353333 2248.087402,840.439575 2260.336914,838.087280 
	C2278.740479,834.552979 2291.880371,824.543579 2298.792725,806.949158 
	C2300.484863,802.642578 2301.500488,798.070251 2303.323486,792.012451 
M1307.442749,632.514709 
	C1295.847046,646.306702 1292.744019,663.004517 1292.450073,680.139587 
	C1291.918945,711.096985 1292.073486,742.072266 1292.396729,773.035278 
	C1292.529053,785.717468 1294.685669,798.211487 1300.039062,809.924194 
	C1306.205078,823.414490 1316.209961,832.450256 1330.634644,836.451904 
	C1343.998291,840.159241 1357.425293,840.579163 1371.155151,838.552490 
	C1395.063232,835.023254 1409.253784,821.082397 1415.439575,798.355774 
	C1416.914917,792.935425 1418.094727,787.235291 1418.132568,781.655273 
	C1418.377441,745.375549 1418.523193,709.090332 1418.068726,672.814819 
	C1417.974854,665.322876 1415.927612,657.628540 1413.545166,650.436829 
	C1407.654785,632.656189 1395.510010,621.305786 1376.871094,617.406616 
	C1362.674194,614.436646 1348.485474,614.412842 1334.289795,617.393616 
	C1324.258911,619.499878 1315.484253,623.922180 1307.442749,632.514709 
M2711.848633,777.001099 
	C2711.848633,796.622070 2711.848633,816.243042 2711.848633,836.374756 
	C2725.445557,836.374756 2738.298828,836.374756 2751.395996,836.374756 
	C2751.395996,763.369385 2751.395996,690.901672 2751.395996,618.317017 
	C2738.021729,618.317017 2725.236572,618.317017 2711.577393,618.317017 
	C2711.577393,648.794861 2711.577393,678.623840 2711.577393,708.796326 
	C2696.553711,708.796326 2682.427734,708.796326 2667.458008,708.796326 
	C2667.458008,678.288147 2667.458008,648.413635 2667.458008,618.221741 
	C2653.799072,618.221741 2640.995605,618.221741 2628.075439,618.221741 
	C2628.075439,691.233948 2628.075439,763.681824 2628.075439,836.201172 
	C2641.545654,836.201172 2654.371582,836.201172 2667.943848,836.201172 
	C2667.943848,803.287659 2667.943848,771.076355 2667.943848,738.594971 
	C2682.824463,738.594971 2696.932861,738.594971 2711.848633,738.594971 
	C2711.848633,751.137695 2711.848633,763.069702 2711.848633,777.001099 
M2137.563965,751.337646 
	C2135.532959,744.053162 2133.501709,736.768677 2131.349609,729.050537 
	C2144.444824,723.171753 2151.689697,713.336792 2154.849121,700.314697 
	C2158.521729,685.178284 2158.863281,669.981628 2155.180176,654.835571 
	C2151.543701,639.881958 2142.607666,628.880005 2127.994629,624.050598 
	C2118.334717,620.858154 2108.001709,618.781067 2097.854736,618.191406 
	C2080.595215,617.188599 2063.244873,617.728699 2045.932495,617.681274 
	C2043.383911,617.674316 2040.834473,618.001404 2038.189087,618.180420 
	C2038.189087,691.247253 2038.189087,763.662598 2038.189087,836.221680 
	C2051.555908,836.221680 2064.371826,836.221680 2077.888428,836.221680 
	C2077.888428,802.990540 2077.888428,770.445618 2077.888428,737.623535 
	C2084.058594,737.623535 2089.490479,737.623535 2095.196533,737.623535 
	C2103.941895,770.898315 2112.533203,803.586792 2121.103027,836.193848 
	C2134.679932,836.193848 2147.438721,836.193848 2161.299561,836.193848 
	C2153.331787,807.803894 2145.631348,780.366516 2137.563965,751.337646 
M2625.832520,323.239075 
	C2625.286865,317.280426 2624.999023,311.284790 2624.150635,305.369598 
	C2620.599365,280.604095 2607.356445,266.147247 2582.883545,261.892242 
	C2571.819824,259.968628 2560.392822,259.828888 2549.113281,259.529449 
	C2534.892090,259.151886 2520.653076,259.438354 2505.940430,259.438354 
	C2505.940430,332.795441 2505.940430,405.196075 2505.940430,479.022491 
	C2530.320312,478.494263 2554.348877,479.581848 2577.987793,477.042603 
	C2605.731689,474.062439 2620.335693,457.642853 2624.123779,429.973175 
	C2625.158936,422.410004 2625.829102,414.737579 2625.881348,407.109863 
	C2626.068848,379.800964 2625.919434,352.489746 2625.832520,323.239075 
M877.974243,406.878479 
	C877.973755,380.229370 878.363342,353.571747 877.783875,326.935242 
	C877.547119,316.052704 876.285950,304.939026 873.575806,294.424103 
	C869.671814,279.276947 859.370239,268.854736 844.289612,264.248688 
	C836.727356,261.938965 828.707092,260.318939 820.830505,260.011505 
	C802.535461,259.297424 784.201904,259.549835 765.883667,259.465668 
	C763.326233,259.453918 760.767273,259.753265 758.048462,259.918335 
	C758.048462,332.995483 758.048462,405.404266 758.048462,478.553009 
	C776.902222,478.553009 795.158569,478.613190 813.414124,478.513611 
	C818.402283,478.486420 823.432251,478.307800 828.367126,477.638763 
	C856.711609,473.796112 872.252075,458.257965 876.219177,429.703217 
	C877.178467,422.798462 877.407471,415.792206 877.974243,406.878479 
M1867.256836,439.878418 
	C1868.205444,433.976990 1869.932739,428.081085 1869.974976,422.173187 
	C1870.229492,386.568329 1870.508179,350.952667 1869.811401,315.359558 
	C1869.633911,306.290314 1866.845947,296.961914 1863.681763,288.330200 
	C1858.179077,273.319000 1847.005859,263.839752 1831.411987,259.751770 
	C1818.337646,256.324280 1805.145874,256.050201 1791.817627,257.900055 
	C1769.443481,261.005371 1754.252930,273.019806 1748.430054,294.903351 
	C1745.642090,305.380951 1744.448120,316.519562 1744.218506,327.394440 
	C1743.642212,354.675720 1743.876465,381.978638 1744.120361,409.269897 
	C1744.191284,417.218445 1744.887573,425.238708 1746.164429,433.084961 
	C1750.337769,458.729401 1764.055664,474.387207 1786.731201,479.295258 
	C1793.515503,480.763702 1800.608398,481.717377 1807.520752,481.521332 
	C1834.704834,480.750214 1857.002197,474.105652 1867.256836,439.878418 
M1040.317261,618.838623 
	C1022.559204,624.644165 1012.083008,637.320190 1007.941223,654.981506 
	C1005.683044,664.610901 1004.374268,674.658020 1004.200867,684.544128 
	C1003.710632,712.495483 1003.873779,740.462341 1004.123718,768.420044 
	C1004.194763,776.367126 1004.901978,784.396973 1006.250122,792.228333 
	C1011.036926,820.033936 1025.738403,834.844971 1053.439331,838.521973 
	C1063.497437,839.857117 1074.035645,839.355652 1084.153931,838.088257 
	C1105.384766,835.428955 1119.221924,822.954163 1125.684570,802.766052 
	C1127.992676,795.555847 1129.806763,787.838745 1129.901855,780.328430 
	C1130.348511,745.059448 1130.518433,709.774414 1129.856201,674.512573 
	C1129.685547,665.428711 1127.006958,656.102600 1123.953369,647.425110 
	C1118.367920,631.552246 1106.693237,621.698547 1090.250366,617.813965 
	C1074.095337,613.997437 1057.942261,614.313171 1040.317261,618.838623 
M2412.418213,380.662262 
	C2425.956299,413.143860 2439.494385,445.625458 2452.940186,477.885315 
	C2462.154297,477.885315 2470.625244,477.885315 2479.129639,477.885315 
	C2479.129639,404.799896 2479.129639,332.400421 2479.129639,260.095856 
	C2467.927246,260.095856 2457.432861,260.095856 2446.062500,260.095856 
	C2446.062500,299.459137 2446.062500,338.169617 2446.062500,376.880096 
	C2445.386719,377.043518 2444.710938,377.206940 2444.035156,377.370361 
	C2427.078125,338.255524 2410.121094,299.140686 2393.160400,260.017578 
	C2383.847900,260.017578 2375.027344,260.017578 2366.030762,260.017578 
	C2366.030762,333.006195 2366.030762,405.406708 2366.030762,478.131042 
	C2377.162109,478.131042 2387.691406,478.131042 2399.333984,478.131042 
	C2399.445801,436.829102 2399.304199,395.935120 2399.413330,355.046661 
	C2400.136475,354.956604 2400.859863,354.866577 2401.583252,354.776520 
	C2405.029541,362.921936 2408.475830,371.067352 2412.418213,380.662262 
M1354.992432,259.433746 
	C1349.125977,259.433746 1343.259521,259.433746 1336.406250,259.433746 
	C1336.406250,299.523163 1336.406250,338.231995 1336.406250,376.940826 
	C1335.736694,377.077271 1335.067139,377.213684 1334.397583,377.350128 
	C1317.417969,338.182587 1300.438354,299.015045 1283.538086,260.030365 
	C1274.026733,260.030365 1265.194702,260.030365 1256.291748,260.030365 
	C1256.291748,333.085266 1256.291748,405.541687 1256.291748,478.474243 
	C1267.731567,478.455566 1278.525269,478.973663 1289.822510,478.130737 
	C1289.822510,466.695068 1289.822632,456.404755 1289.822632,446.114410 
	C1289.822632,435.781921 1289.822632,425.449432 1289.822632,415.116943 
	C1289.822632,404.784454 1289.714722,394.450531 1289.853394,384.119904 
	C1289.986694,374.197632 1289.260498,364.216156 1291.857422,354.249573 
	C1309.084839,395.636627 1326.312256,437.023712 1343.389160,478.049377 
	C1352.590576,478.049377 1360.805176,478.049377 1369.375244,478.049377 
	C1369.375244,405.082764 1369.375244,332.634064 1369.375244,259.433746 
	C1364.839722,259.433746 1360.888428,259.433746 1354.992432,259.433746 
M1184.609375,623.856812 
	C1182.774292,621.808533 1181.067139,618.151611 1179.081665,617.993713 
	C1170.982300,617.349915 1162.797852,617.776428 1154.583252,617.808777 
	C1154.583252,691.424866 1154.583252,763.606445 1154.583252,836.348999 
	C1165.815430,836.348999 1176.648926,836.348999 1188.151733,836.348999 
	C1188.151733,825.512024 1188.151733,815.212891 1188.151733,804.913757 
	C1188.151733,794.587341 1188.151733,784.260864 1188.151733,773.934448 
	C1188.151733,763.274902 1188.127075,752.615295 1188.158936,741.955811 
	C1188.188721,731.987000 1188.022827,722.004883 1188.252930,712.044861 
	C1188.925903,711.990112 1189.598877,711.935425 1190.271973,711.880676 
	C1207.627441,753.548279 1224.982910,795.215820 1242.091309,836.290283 
	C1251.438232,836.290283 1259.635864,836.290283 1267.947266,836.290283 
	C1267.947266,763.232849 1267.947266,690.797913 1267.947266,618.386230 
	C1256.892700,618.386230 1246.460449,618.386230 1235.254150,618.386230 
	C1235.254150,658.133118 1235.254150,697.158508 1235.254150,736.183899 
	C1234.653198,736.325073 1234.052246,736.466309 1233.451416,736.607483 
	C1217.419189,699.499512 1201.387085,662.391479 1184.609375,623.856812 
M1921.359985,619.965027 
	C1907.221558,625.389893 1898.216675,636.008850 1894.280640,650.047180 
	C1891.075073,661.480103 1888.810913,673.512085 1888.469604,685.346008 
	C1887.653320,713.654114 1887.824585,742.010498 1888.431641,770.329468 
	C1888.650757,780.547119 1890.270630,790.980042 1892.948975,800.854309 
	C1901.470215,832.269409 1924.182251,842.576843 1954.973145,839.364563 
	C1965.345581,838.282532 1973.662109,832.685120 1979.520264,823.803101 
	C1980.638916,822.106934 1981.995239,820.567322 1983.979614,818.001587 
	C1985.098389,824.916626 1985.994019,830.452148 1986.906494,836.091309 
	C1995.666016,836.091309 2004.090454,836.091309 2012.445435,836.091309 
	C2012.445435,799.009094 2012.445435,762.757080 2012.445435,726.390503 
	C1992.538940,726.390503 1973.121460,726.390503 1953.620605,726.390503 
	C1953.620605,735.018188 1953.620605,742.898682 1953.620605,751.678955 
	C1961.300659,751.678955 1968.489380,751.678955 1977.056152,751.678955 
	C1976.463379,764.476318 1976.135742,776.353455 1975.229370,788.186279 
	C1974.958618,791.721680 1973.400024,795.288940 1971.856812,798.571472 
	C1967.591675,807.643311 1959.735718,810.345947 1950.369873,809.869019 
	C1940.607056,809.371948 1934.363647,805.242554 1932.085205,795.848389 
	C1930.143799,787.843689 1929.156250,779.432556 1929.061646,771.186157 
	C1928.718140,741.191528 1928.863525,711.190247 1928.980347,681.192078 
	C1929.003662,675.209534 1929.368530,669.181396 1930.200562,663.262024 
	C1931.046753,657.240662 1933.172852,651.611206 1938.736084,648.097717 
	C1952.931519,639.132690 1970.172852,646.888306 1972.304199,663.512268 
	C1973.393433,672.007385 1973.478027,680.631287 1974.011719,689.119751 
	C1985.722534,690.942444 2004.758545,690.557373 2012.483643,688.091309 
	C2011.611572,678.084839 2011.399902,667.724854 2009.689087,657.618713 
	C2005.722900,634.189270 1992.458862,620.615234 1969.236572,616.707214 
	C1953.724854,614.096985 1938.037354,613.963196 1921.359985,619.965027 
M2075.978516,413.043976 
	C2075.978516,408.712494 2076.338379,404.344360 2075.902100,400.057281 
	C2075.039062,391.575775 2077.835205,384.500214 2084.146729,377.030090 
	C2096.769043,411.267639 2109.125732,444.785553 2121.393066,478.061035 
	C2134.844727,478.061035 2147.391357,478.061035 2161.087402,478.061035 
	C2159.616211,473.885101 2158.504883,470.483459 2157.228516,467.144836 
	C2144.396484,433.578674 2131.680908,399.966522 2118.559814,366.513550 
	C2116.052734,360.121124 2116.281982,354.808044 2119.039062,348.550903 
	C2130.578857,322.363007 2141.614014,295.952759 2152.827637,269.621277 
	C2154.092285,266.652130 2155.316162,263.665710 2156.900635,259.868134 
	C2143.364990,259.868134 2131.139893,259.868134 2118.720215,259.868134 
	C2105.085205,289.849548 2091.576416,319.553223 2078.067627,349.256897 
	C2077.311523,349.047546 2076.555176,348.838226 2075.798828,348.628906 
	C2075.798828,319.190399 2075.798828,289.751862 2075.798828,260.080200 
	C2062.104248,260.080200 2049.332031,260.080200 2036.522949,260.080200 
	C2036.522949,333.160492 2036.522949,405.596802 2036.522949,478.506805 
	C2049.991455,478.514313 2062.775146,478.752228 2075.978516,478.374237 
	C2075.978516,456.282806 2075.978516,435.656403 2075.978516,413.043976 
M1126.578003,412.788086 
	C1126.578003,407.511139 1126.578003,402.234161 1126.578003,396.175537 
	C1119.385254,396.175537 1113.107666,395.968384 1106.849976,396.234314 
	C1100.696045,396.495850 1094.356079,394.961639 1088.009644,397.585114 
	C1088.009644,400.499176 1088.080444,403.154968 1087.996948,405.805878 
	C1087.682983,415.777924 1088.139526,425.864197 1086.753784,435.688568 
	C1085.213501,446.608612 1078.877686,451.266052 1068.277222,451.623596 
	C1057.362671,451.991699 1050.643311,447.183105 1047.867676,436.507538 
	C1046.787964,432.354919 1045.989624,427.992432 1045.972290,423.721863 
	C1045.821899,386.741821 1045.786011,349.760498 1045.985962,312.780975 
	C1046.012573,307.874329 1046.909912,302.750153 1048.533447,298.123047 
	C1051.453369,289.801636 1059.544800,285.659912 1069.532349,286.409515 
	C1079.435181,287.152771 1085.191162,291.635498 1086.818115,301.274231 
	C1087.917603,307.787750 1087.779053,314.526855 1087.973755,321.171478 
	C1088.144897,327.010590 1088.009644,332.858673 1088.009644,338.707733 
	C1101.619141,338.707733 1113.730591,338.707733 1126.564819,338.707733 
	C1126.564819,330.767212 1126.677734,323.481110 1126.524048,316.200623 
	C1126.425659,311.543854 1126.261841,306.845398 1125.562622,302.251587 
	C1121.882324,278.072052 1109.487915,263.663757 1087.603149,258.823090 
	C1073.459106,255.694611 1059.205566,255.899384 1045.040405,259.475281 
	C1027.826172,263.820892 1016.088013,274.242371 1010.668579,291.070801 
	C1008.242432,298.604492 1006.122681,306.593445 1005.928711,314.426941 
	C1005.145813,346.048492 1004.991150,377.689850 1004.975891,409.324097 
	C1004.969482,422.653961 1006.135986,435.901215 1011.267151,448.524536 
	C1017.448242,463.730621 1028.084229,473.794800 1043.951782,478.285675 
	C1058.708618,482.462128 1073.532471,482.611969 1088.382568,479.034760 
	C1105.290283,474.961884 1116.400513,464.523682 1122.071411,448.085815 
	C1125.827759,437.198029 1126.623291,425.969330 1126.578003,412.788086 
M943.915100,616.511475 
	C933.947937,616.300964 923.917175,615.273071 914.026123,616.041870 
	C889.846741,617.921265 874.463928,630.570740 868.140564,653.860962 
	C865.722412,662.767456 864.280212,672.195374 864.129639,681.414062 
	C863.628906,712.069763 863.778931,742.739441 864.006958,773.401245 
	C864.058655,780.351135 864.934204,787.389343 866.283325,794.218384 
	C871.411194,820.175720 886.166687,834.788330 912.361206,838.395996 
	C922.411560,839.780273 932.979858,839.315125 943.085327,837.978149 
	C962.354675,835.428772 975.148499,824.162292 981.135559,805.615967 
	C986.433411,789.204651 986.231140,772.330566 985.231079,754.857910 
	C972.508240,754.857910 960.357117,754.857910 947.072632,754.857910 
	C947.072632,758.747192 947.165955,762.336426 947.054016,765.919189 
	C946.783691,774.574219 946.790222,783.260559 945.997986,791.871033 
	C944.940369,803.365906 938.968445,809.091309 928.296692,809.855225 
	C916.423157,810.705139 908.893982,805.566284 906.393494,794.093506 
	C905.126099,788.278259 904.477600,782.217163 904.444885,776.262268 
	C904.263367,743.265259 904.265137,710.266296 904.441467,677.269226 
	C904.473328,671.313538 905.059937,665.240723 906.357971,659.438416 
	C908.655518,649.168457 917.010132,643.854126 928.203796,644.708069 
	C939.268555,645.552185 945.008606,651.169250 946.104980,662.380676 
	C946.428894,665.693115 946.505066,669.031982 946.633728,672.361023 
	C946.952209,680.604004 947.235413,688.848389 947.531250,697.048340 
	C960.517761,697.048340 972.684998,697.048340 986.289490,697.048340 
	C985.541809,684.144775 985.680847,671.817017 983.952393,659.756836 
	C980.274414,634.093811 966.550415,621.263245 943.915100,616.511475 
M1785.192627,697.683838 
	C1793.027954,697.663818 1800.863281,697.643860 1809.309082,697.622253 
	C1809.394775,681.890381 1809.668335,667.645325 1806.349121,653.581299 
	C1801.583130,633.386719 1789.208374,620.866943 1768.774048,616.918945 
	C1755.925293,614.436340 1742.963745,614.460266 1730.083130,617.151428 
	C1710.313232,621.282043 1697.432129,633.018982 1692.017822,652.453674 
	C1690.065674,659.460388 1688.172241,666.770447 1688.090820,673.962830 
	C1687.687012,709.595520 1687.450073,745.244507 1688.194336,780.866089 
	C1688.390503,790.254211 1691.369141,799.907654 1694.697632,808.832275 
	C1699.870117,822.700928 1710.360107,831.727234 1724.614502,836.094055 
	C1741.666138,841.317688 1758.752930,841.283264 1775.719116,835.834045 
	C1787.371216,832.091553 1796.036621,824.647766 1801.353516,813.539429 
	C1810.302490,794.841980 1809.425171,774.997375 1809.029419,754.347961 
	C1795.600586,754.394226 1783.171997,754.111450 1770.306885,754.520752 
	C1770.306885,761.254395 1770.414551,766.568542 1770.281128,771.876587 
	C1770.096924,779.194885 1770.395264,786.611145 1769.286377,793.800171 
	C1767.626587,804.560547 1761.404297,809.497253 1750.878906,809.904236 
	C1739.803955,810.332458 1732.819702,805.593628 1730.214966,795.132202 
	C1728.938721,790.006592 1728.121582,784.624329 1728.094604,779.353088 
	C1727.914062,744.041626 1727.936646,708.728577 1728.083618,673.416748 
	C1728.102783,668.803833 1728.786377,664.090088 1729.898804,659.605774 
	C1732.546143,648.934387 1740.128174,643.904175 1751.538940,644.695129 
	C1762.601074,645.461853 1768.417603,650.946350 1769.711426,662.185181 
	C1770.167114,666.143311 1770.155518,670.165100 1770.192383,674.159363 
	C1770.262085,681.713440 1770.212402,689.268616 1770.212402,697.683838 
	C1775.419312,697.683838 1779.347778,697.683838 1785.192627,697.683838 
M2328.138428,366.705078 
	C2320.917725,331.010193 2313.696777,295.315308 2306.579346,260.131958 
	C2291.512939,260.131958 2277.996582,260.131958 2264.404053,260.131958 
	C2249.600098,332.995300 2234.928223,405.208801 2220.139404,477.998413 
	C2233.315674,477.998413 2245.480957,477.998413 2257.922852,477.998413 
	C2260.969482,461.219391 2263.926514,444.934326 2266.947510,428.297485 
	C2279.703857,428.297485 2291.861328,428.297485 2304.561279,428.297485 
	C2307.621338,445.176086 2310.616943,461.698090 2313.681152,478.599884 
	C2326.519531,478.367035 2338.285400,479.001007 2350.829834,478.101593 
	C2343.188965,440.679626 2335.807861,404.530396 2328.138428,366.705078 
M807.078735,708.633179 
	C804.195496,708.502380 801.312195,708.371582 798.573181,708.247375 
	C796.767456,692.901672 797.293884,653.243042 799.569092,645.416870 
	C815.752686,645.416870 832.223022,645.416870 848.585571,645.416870 
	C848.585571,635.699768 848.585571,626.936157 848.585571,618.172852 
	C817.965454,618.172852 788.129517,618.172852 757.907471,618.172852 
	C757.907471,691.116455 757.907471,763.543213 757.907471,835.896851 
	C770.370850,837.828918 842.651123,837.276184 849.204041,835.357117 
	C849.204041,826.790894 849.204041,818.320190 849.204041,809.196777 
	C831.878479,809.196777 815.320923,809.196777 798.231323,809.196777 
	C798.231323,785.060303 798.231323,761.634033 798.231323,737.322266 
	C811.554871,737.322266 824.399170,737.322266 837.613159,737.322266 
	C837.613159,727.394958 837.613159,718.359680 837.613159,708.633240 
	C827.613403,708.633240 818.339172,708.633240 807.078735,708.633179 
M900.023254,359.000000 
	C900.023254,398.547638 900.023254,438.095276 900.023254,477.475586 
	C913.726807,479.486267 985.535461,478.935150 992.135620,476.966522 
	C992.135620,468.657501 992.135620,460.385803 992.135620,451.078674 
	C974.890442,451.078674 958.035278,451.078674 940.684204,451.078674 
	C940.684204,426.574188 940.684204,403.111542 940.684204,378.447632 
	C954.299011,378.447632 967.414551,378.447632 980.607422,378.447632 
	C980.607422,368.445679 980.607422,359.657410 980.607422,349.773285 
	C966.742432,349.773285 953.618286,349.773285 940.153320,349.773285 
	C940.153320,338.683289 940.123962,328.712616 940.161499,318.742218 
	C940.199829,308.554901 940.303833,298.367889 940.384949,287.383606 
	C958.190002,287.383606 974.716125,287.383606 991.333496,287.383606 
	C991.333496,277.706116 991.333496,268.900360 991.333496,259.390625 
	C960.610352,259.744324 930.524780,258.888275 900.023254,259.891602 
	C900.023254,293.088593 900.023254,325.044281 900.023254,359.000000 
M1194.999634,478.564728 
	C1202.325195,478.564728 1209.657715,478.764282 1216.974365,478.509155 
	C1224.441895,478.248779 1232.058105,479.695862 1239.415649,477.452148 
	C1239.415649,468.630829 1239.415649,460.406677 1239.415649,451.174622 
	C1222.200439,451.174622 1205.362793,451.174622 1188.742798,451.174622 
	C1186.526978,439.677216 1186.933228,386.152100 1189.385376,378.219635 
	C1201.880249,378.219635 1214.695679,378.219635 1227.420654,378.219635 
	C1227.420654,368.473999 1227.420654,359.711639 1227.420654,350.108887 
	C1213.858765,350.108887 1201.014648,350.108887 1187.828613,350.108887 
	C1187.828613,329.109650 1187.828613,308.971405 1187.828613,287.663300 
	C1205.013550,287.663300 1221.779907,287.663300 1238.675293,287.663300 
	C1238.675293,277.695648 1238.675293,268.908295 1238.675293,259.901855 
	C1208.140015,259.901855 1178.301514,259.901855 1147.950073,259.901855 
	C1147.950073,332.756866 1147.950073,405.145721 1147.950073,478.564758 
	C1163.230225,478.564758 1178.114868,478.564758 1194.999634,478.564728 
M1417.074585,406.999268 
	C1417.074585,430.551880 1417.074585,454.104492 1417.074585,478.021881 
	C1430.903931,478.021881 1443.726074,478.021881 1457.370117,478.021881 
	C1457.370117,467.233826 1457.369995,456.970032 1457.369995,446.706268 
	C1457.369995,436.046509 1457.369995,425.386780 1457.369995,414.727020 
	C1457.369995,404.400391 1457.369995,394.073761 1457.369995,383.747131 
	C1457.369995,373.087372 1457.369995,362.427643 1457.369995,351.767883 
	C1457.369995,341.441254 1457.323975,331.114319 1457.382935,320.788025 
	C1457.442871,310.290924 1457.101807,299.767700 1457.664551,288.634827 
	C1469.911987,288.634827 1480.797607,288.634827 1491.806885,288.634827 
	C1491.806885,278.479919 1491.806885,269.075439 1491.806885,260.163483 
	C1454.242676,260.163483 1417.441528,260.163483 1380.498779,260.163483 
	C1380.498779,269.835693 1380.498779,278.775482 1380.498779,289.013794 
	C1392.567261,289.013794 1404.364258,289.013794 1417.074829,289.013794 
	C1417.074829,328.537292 1417.074829,366.768280 1417.074585,406.999268 
M2614.925293,632.851685 
	C2614.925293,627.983948 2614.925293,623.116272 2614.925293,618.211487 
	C2576.813477,618.211487 2540.012939,618.211487 2502.798828,618.211487 
	C2502.798828,627.913940 2502.798828,637.056396 2502.798828,647.430908 
	C2515.014160,647.430908 2526.792480,647.430908 2539.450684,647.430908 
	C2539.450684,711.096069 2539.450684,773.536865 2539.450684,836.347168 
	C2553.207520,836.347168 2566.043457,836.347168 2580.009277,836.347168 
	C2580.009277,773.095886 2580.009277,710.407837 2580.009277,647.048462 
	C2592.024414,647.048462 2602.908936,647.048462 2614.925293,647.048462 
	C2614.925293,642.473206 2614.925293,638.572021 2614.925293,632.851685 
M1662.544800,665.000366 
	C1662.544800,649.468079 1662.544800,633.935791 1662.544800,618.211304 
	C1648.890381,618.211304 1636.400391,618.211304 1623.746338,618.211304 
	C1623.746338,691.165894 1623.746338,763.578308 1623.746338,836.280334 
	C1636.835693,836.280334 1649.278076,836.280334 1662.544800,836.280334 
	C1662.544800,779.452026 1662.544800,723.226196 1662.544800,665.000366 
z"/>
<path fill="#FFFEFF" opacity="1.000000" stroke="none" 
	d="
M2104.544678,2328.000488 
	C2104.544678,2428.000000 2104.545166,2526.999512 2104.541260,2625.999023 
	C2104.541260,2628.998535 2104.677734,2632.012939 2104.432373,2634.994385 
	C2103.768799,2643.066895 2099.085205,2648.706055 2091.198242,2650.441650 
	C2087.666748,2651.218994 2083.932373,2651.312012 2080.290039,2651.313721 
	C1978.957153,2651.356445 1877.624390,2651.354492 1776.291504,2651.318604 
	C1772.978882,2651.317383 1769.592407,2651.242188 1766.368530,2650.578613 
	C1758.104248,2648.878418 1753.006226,2643.005127 1752.273926,2634.668213 
	C1752.041382,2632.020752 1752.197876,2629.338379 1752.197876,2626.671875 
	C1752.196045,2356.673096 1752.279541,2086.674561 1752.026611,1816.675903 
	C1752.007812,1796.701294 1758.265259,1781.009277 1772.956055,1767.115112 
	C1873.925293,1671.621704 1974.461548,1575.670532 2075.174805,1479.906128 
	C2078.295898,1476.938477 2081.560059,1473.958862 2085.220459,1471.752563 
	C2094.042480,1466.435181 2101.867920,1469.907104 2103.882812,1480.058350 
	C2104.715332,1484.251831 2104.520508,1488.681152 2104.521240,1493.003174 
	C2104.548096,1677.668945 2104.544434,1862.334839 2104.544678,2047.000610 
	C2104.544678,2140.333740 2104.544678,2233.666992 2104.544678,2328.000488 
z"/>
<path fill="#FFFEFE" opacity="1.000000" stroke="none" 
	d="
M1313.453857,2131.999512 
	C1313.453979,2065.019043 1313.444458,1999.038696 1313.478394,1933.058228 
	C1313.480469,1929.069824 1313.377441,1924.997070 1314.106079,1921.110229 
	C1315.904297,1911.516724 1322.546265,1908.068237 1330.905884,1912.876221 
	C1336.015869,1915.815063 1340.650513,1919.878174 1344.822632,1924.103882 
	C1383.214111,1962.987427 1421.459595,2002.014893 1459.742432,2041.005737 
	C1464.877808,2046.235962 1469.927124,2051.551758 1475.117310,2056.726562 
	C1481.923218,2063.512451 1484.050415,2063.583496 1490.716797,2056.889648 
	C1511.642944,2035.876343 1532.488892,2014.783081 1553.372314,1993.727051 
	C1580.825684,1966.046997 1608.235474,1938.323120 1635.804443,1910.758545 
	C1639.288696,1907.274902 1643.308105,1904.050659 1647.632935,1901.743896 
	C1655.343262,1897.631348 1661.213379,1900.149170 1664.222290,1908.287842 
	C1665.126709,1910.734375 1665.463257,1913.435547 1665.745117,1916.053955 
	C1665.993408,1918.360229 1665.804688,1920.713745 1665.804688,1923.046387 
	C1665.805054,2156.977051 1665.805420,2390.907715 1665.804077,2624.838379 
	C1665.803955,2646.517090 1661.023682,2651.345459 1639.488647,2651.346924 
	C1539.518311,2651.354004 1439.547974,2651.354248 1339.577637,2651.346924 
	C1317.826782,2651.345215 1313.455200,2646.900146 1313.454956,2624.855469 
	C1313.452881,2460.903564 1313.453857,2296.951660 1313.453857,2131.999512 
z"/>
<path fill="#FFFEFE" opacity="1.000000" stroke="none" 
	d="
M1128.824585,1918.824463 
	C1149.849609,1898.817993 1170.326538,1879.258667 1190.944580,1859.849365 
	C1194.303467,1856.687256 1197.997437,1853.640015 1202.045532,1851.505127 
	C1208.839844,1847.921631 1214.476074,1850.093140 1217.498047,1857.138916 
	C1218.779907,1860.127441 1219.293945,1863.521973 1219.695312,1866.788696 
	C1220.058472,1869.744263 1219.804077,1872.777100 1219.804077,1875.775879 
	C1219.805542,2125.351318 1219.805908,2374.926514 1219.804443,2624.501953 
	C1219.804321,2646.588867 1215.003784,2651.348145 1192.704468,2651.348877 
	C1093.074219,2651.352539 993.443604,2651.201172 893.814270,2651.489502 
	C876.076233,2651.541016 866.790283,2647.766113 866.869202,2624.290283 
	C867.343933,2483.010010 867.104980,2341.727783 867.105957,2200.446045 
	C867.105957,2197.780518 867.181763,2195.113037 867.113586,2192.449463 
	C866.666626,2174.993896 873.632874,2161.172852 886.364746,2149.295410 
	C917.788757,2119.979980 948.744202,2090.162598 979.882935,2060.541504 
	C1029.365479,2013.470581 1078.843628,1966.395020 1128.824585,1918.824463 
z"/>
<path fill="#FEFDFE" opacity="1.000000" stroke="none" 
	d="
M1233.347656,1676.967041 
	C1229.752197,1679.088745 1226.504639,1681.361328 1223.743530,1684.120605 
	C1098.805542,1808.983032 973.910583,1933.888672 849.008972,2058.787598 
	C837.666992,2070.129395 837.304749,2070.131348 826.156250,2058.985596 
	C807.537170,2040.370728 788.917297,2021.756470 770.311096,2003.128540 
	C761.263611,1994.070557 761.203918,1992.455200 769.884888,1983.773193 
	C920.699646,1832.942261 1071.524536,1682.121216 1222.348389,1531.299316 
	C1223.762329,1529.885742 1225.084961,1528.353882 1226.636230,1527.109375 
	C1231.154907,1523.484985 1233.426147,1523.545410 1238.017700,1527.476196 
	C1240.037354,1529.205200 1241.820435,1531.210815 1243.705688,1533.096069 
	C1320.767212,1610.156738 1397.835449,1687.210815 1474.857666,1764.310791 
	C1477.438354,1766.893921 1479.554077,1769.941528 1481.188232,1771.925293 
	C1659.481445,1593.632080 1836.813965,1416.299561 2014.766113,1238.347534 
	C2010.449463,1234.026123 2005.093994,1228.661133 1999.734253,1223.300415 
	C1988.188110,1211.751831 1976.639038,1200.206299 1965.093384,1188.657227 
	C1963.679932,1187.243408 1962.180786,1185.900146 1960.891724,1184.379761 
	C1954.848145,1177.251099 1957.229614,1170.142578 1966.234375,1168.131470 
	C2007.476685,1158.920288 2048.718750,1149.707520 2089.951416,1140.452637 
	C2125.343994,1132.508545 2160.722656,1124.502563 2196.110840,1116.537842 
	C2199.035156,1115.879639 2201.959961,1115.139404 2204.925781,1114.765259 
	C2212.800781,1113.770996 2216.799072,1117.551636 2216.447266,1125.621704 
	C2216.345947,1127.938843 2215.957031,1130.266846 2215.469238,1132.540283 
	C2198.845459,1209.981567 2182.195312,1287.417114 2165.538818,1364.851196 
	C2165.188965,1366.478271 2164.892334,1368.147583 2164.282959,1369.682739 
	C2161.847168,1375.819946 2155.894043,1377.734741 2150.575928,1373.719971 
	C2147.147461,1371.131592 2144.263916,1367.809570 2141.199951,1364.752441 
	C2127.752197,1351.334839 2114.337646,1337.884033 2100.885742,1324.470825 
	C2098.559082,1322.151245 2096.109619,1319.954834 2093.218750,1317.232422 
	C2090.091064,1320.326050 2087.283203,1323.076538 2084.504395,1325.855469 
	C1888.196777,1522.158936 1691.891357,1718.464600 1495.585449,1914.769653 
	C1483.401611,1926.953491 1483.393921,1926.958252 1471.367554,1914.925415 
	C1392.217651,1835.733521 1313.070679,1756.538696 1233.347656,1676.967041 
z"/>
<path fill="#FEFDFE" opacity="1.000000" stroke="none" 
	d="
M262.818726,564.897278 
	C273.070679,550.589600 285.978668,540.274719 301.200867,531.569885 
	C285.581299,519.476501 273.752350,505.652679 264.283844,489.732544 
	C246.770432,460.285950 242.309158,427.986481 243.184235,394.501282 
	C243.700409,374.749420 246.406372,355.360291 253.253677,336.701233 
	C268.389282,295.456451 297.261383,269.073853 339.736542,258.257263 
	C372.265686,249.973495 405.181854,249.948868 437.665680,258.438263 
	C484.000275,270.547455 513.041443,300.930084 525.467102,346.631500 
	C535.540833,383.682861 534.802856,421.204254 524.884399,458.273285 
	C517.010620,487.700439 503.612640,507.117920 476.474457,531.198730 
	C477.058044,531.950439 477.487640,532.996399 478.260345,533.428040 
	C506.036896,548.945496 522.234131,573.439819 531.926819,602.870239 
	C542.104126,633.772278 543.540161,665.603455 541.135681,697.723877 
	C539.739868,716.369568 536.316956,734.665710 530.164551,752.407288 
	C512.345215,803.792419 476.067352,832.509155 422.561401,839.774231 
	C393.606720,843.705627 364.714935,843.287598 336.233856,835.971436 
	C290.471924,824.216248 260.898560,795.067688 246.223282,750.646851 
	C235.638702,718.608215 233.029373,685.488892 234.990845,651.962769 
	C236.183990,631.569214 239.580139,611.524841 247.864563,592.726868 
	C252.004395,583.333313 257.501099,574.537720 262.818726,564.897278 
M342.783356,697.896484 
	C345.794220,710.812195 348.215332,723.904175 352.004425,736.587341 
	C354.981964,746.554199 362.082245,753.745789 371.967804,757.634460 
	C395.066376,766.720886 417.618866,756.524963 426.081329,733.248291 
	C426.875488,731.063843 427.576843,728.840332 428.209229,726.603271 
	C436.508362,697.245544 436.234222,667.349854 432.836823,637.459717 
	C431.571320,626.325745 428.481415,615.281555 425.129913,604.537537 
	C422.169006,595.045715 415.796265,587.771301 406.398193,583.560059 
	C383.151215,573.143066 359.033173,583.265259 350.440826,607.140076 
	C349.429169,609.951050 348.634338,612.846741 347.860535,615.735657 
	C340.781586,642.163940 341.107666,669.086121 342.783356,697.896484 
M360.331970,474.428925 
	C361.098450,475.519135 361.853516,476.617584 362.633087,477.698364 
	C375.304657,495.265991 404.653198,496.106476 416.235229,472.448914 
	C419.568024,465.641235 422.185059,458.316742 423.967896,450.947937 
	C429.271210,429.028259 429.535156,406.624146 427.441742,384.378540 
	C426.494690,374.314545 423.202606,364.174255 419.309296,354.756958 
	C414.026978,341.979858 403.473663,335.338776 389.483032,334.951355 
	C375.673798,334.568970 364.719543,340.150909 357.895599,352.214050 
	C354.497986,358.220215 351.737122,364.839691 350.071442,371.526306 
	C344.417786,394.222198 346.086639,417.162262 349.183746,440.028748 
	C350.754791,451.627899 353.558014,462.912079 360.331970,474.428925 
z"/>
<path fill="#FDFBFC" opacity="1.000000" stroke="none" 
	d="
M1554.917969,617.685303 
	C1567.421387,617.659119 1579.014771,617.659119 1591.466675,617.659119 
	C1592.661011,690.950562 1593.841309,763.384521 1595.039673,836.924072 
	C1587.869385,836.924072 1581.624634,836.971313 1575.381226,836.904663 
	C1572.128418,836.869934 1568.877930,836.634521 1564.777222,836.451904 
	C1563.916138,789.301453 1563.066528,742.774414 1562.216919,696.247437 
	C1561.599976,696.151062 1560.982910,696.054749 1560.365845,695.958435 
	C1550.529541,742.689819 1540.693115,789.421143 1530.805054,836.398071 
	C1522.539795,836.398071 1515.026855,836.398071 1507.007446,836.398071 
	C1497.094849,789.644165 1487.265747,743.283691 1477.436646,696.923279 
	C1476.645386,696.994141 1475.854248,697.065002 1475.062988,697.135864 
	C1474.391846,743.284546 1473.720703,789.433167 1473.040039,836.242432 
	C1462.432739,836.242432 1452.662720,836.242432 1442.119507,836.242432 
	C1443.351807,763.534485 1444.575562,691.334717 1445.811890,618.396851 
	C1459.688721,618.396851 1473.100464,618.396851 1487.073120,618.396851 
	C1497.310913,667.917236 1507.520508,717.301514 1517.730225,766.685791 
	C1518.321045,766.652344 1518.911865,766.618835 1519.502686,766.585388 
	C1524.320679,743.977051 1529.141602,721.369385 1533.955566,698.760193 
	C1539.222656,674.022644 1544.471313,649.281128 1549.762817,624.548828 
	C1550.350464,621.801453 1549.715942,618.198853 1554.917969,617.685303 
z"/>
<path fill="#FDFBFC" opacity="1.000000" stroke="none" 
	d="
M2455.073242,696.871948 
	C2458.473633,670.285400 2461.696533,644.572632 2464.989990,618.295898 
	C2475.996582,618.295898 2486.469238,618.295898 2498.174805,618.295898 
	C2487.808105,690.849548 2477.480713,763.128662 2467.176025,835.247620 
	C2459.804199,837.303650 2446.361816,837.595520 2434.674316,835.927917 
	C2426.942139,790.311707 2419.169678,744.458557 2411.397461,698.605408 
	C2405.587646,712.988403 2404.274170,728.259705 2401.636963,743.238708 
	C2398.925049,758.641052 2396.435303,774.082275 2393.806641,789.499329 
	C2391.181885,804.892517 2388.505127,820.276794 2385.749756,836.255493 
	C2374.639404,836.255493 2363.850586,836.255493 2352.583252,836.255493 
	C2342.206055,763.611023 2331.865234,691.223572 2321.433105,618.194885 
	C2333.062744,618.194885 2343.863525,618.194885 2355.205322,618.194885 
	C2360.952148,663.148621 2366.639893,707.638916 2372.327393,752.129211 
	C2372.869629,752.185059 2373.411865,752.240906 2373.953857,752.296753 
	C2381.373047,707.803650 2388.791992,663.310486 2396.305420,618.252075 
	C2405.246338,618.252075 2414.075928,618.252075 2423.462646,618.252075 
	C2431.068848,663.006104 2438.634033,707.516541 2446.198975,752.026978 
	C2446.763184,752.048401 2447.327148,752.069824 2447.891113,752.091248 
	C2450.226074,733.976074 2452.560791,715.860901 2455.073242,696.871948 
z"/>
<path fill="#FDFBFC" opacity="1.000000" stroke="none" 
	d="
M1603.541748,378.242126 
	C1604.239624,383.604980 1604.815796,388.110107 1605.391968,392.615204 
	C1606.036255,392.601715 1606.680542,392.588257 1607.324829,392.574768 
	C1614.630493,348.617249 1621.936279,304.659729 1629.339233,260.117126 
	C1638.277954,260.117126 1646.761719,260.117126 1656.544067,260.117126 
	C1663.942261,303.481903 1671.392944,347.154877 1678.843628,390.827881 
	C1679.630981,390.840759 1680.418457,390.853638 1681.205933,390.866516 
	C1687.471191,347.514130 1692.134155,303.929382 1698.273193,260.020081 
	C1709.098877,260.020081 1719.590942,260.020081 1731.266113,260.020081 
	C1720.862061,332.829956 1710.526855,405.157959 1700.119629,477.990356 
	C1689.481201,477.990356 1679.277344,477.990356 1667.881104,477.990356 
	C1660.014282,431.774719 1652.121704,385.406647 1644.229004,339.038605 
	C1643.593384,339.063721 1642.957764,339.088837 1642.322144,339.113922 
	C1634.563110,385.148407 1626.804077,431.182892 1618.938232,477.851318 
	C1608.107666,477.851318 1597.620972,477.851318 1585.700439,477.851318 
	C1575.403198,405.889954 1565.053345,333.560760 1554.491699,259.752441 
	C1565.587158,259.150269 1576.314697,259.423828 1588.187622,259.645233 
	C1593.288208,299.070282 1598.354126,338.227356 1603.541748,378.242126 
z"/>
<path fill="#FDFBFC" opacity="1.000000" stroke="none" 
	d="
M2007.082886,350.722076 
	C2002.872437,360.406403 1995.735962,366.216278 1986.594604,370.977020 
	C1996.534424,406.434540 2006.387939,441.584442 2016.237549,476.719757 
	C2009.596680,478.958405 1989.922363,479.435028 1976.278442,477.654266 
	C1967.742676,445.170074 1959.137817,412.422729 1950.409424,379.205505 
	C1944.763306,379.205505 1939.572632,379.205505 1933.124268,379.205505 
	C1931.983521,389.853271 1932.734497,400.735687 1932.600708,411.558868 
	C1932.464844,422.552704 1932.570679,433.549561 1932.570679,444.545074 
	C1932.570679,455.493622 1932.570679,466.442200 1932.570679,477.976440 
	C1919.191895,477.976440 1906.403809,477.976440 1893.118896,477.976440 
	C1893.118896,405.399231 1893.118896,333.211182 1893.118896,260.557922 
	C1894.155029,260.230652 1895.345825,259.524078 1896.534180,259.528320 
	C1916.855713,259.600494 1937.206177,259.169006 1957.485107,260.169525 
	C1966.609009,260.619690 1975.944946,263.011383 1984.559448,266.207428 
	C2000.728638,272.206360 2009.256470,285.225311 2011.523315,301.792480 
	C2013.745728,318.035889 2013.734131,334.385742 2007.082886,350.722076 
M1959.369385,288.918945 
	C1950.622681,286.924896 1941.858032,286.089020 1933.096680,287.541779 
	C1933.096680,309.694580 1933.096680,330.873962 1933.096680,352.387817 
	C1941.943359,353.854675 1950.115723,352.927673 1958.139038,350.729584 
	C1967.622314,348.131622 1972.652710,341.092773 1973.693115,331.912598 
	C1974.620728,323.729401 1974.541382,315.291382 1973.702393,307.088989 
	C1972.891479,299.161560 1969.026733,292.523560 1959.369385,288.918945 
z"/>
<path fill="#FCF9FB" opacity="1.000000" stroke="none" 
	d="
M2303.075439,792.816284 
	C2301.500488,798.070251 2300.484863,802.642578 2298.792725,806.949158 
	C2291.880371,824.543579 2278.740479,834.552979 2260.336914,838.087280 
	C2248.087402,840.439575 2235.896240,840.353333 2223.635010,838.139465 
	C2204.246582,834.638855 2191.177002,823.714233 2184.400146,805.256409 
	C2180.220215,793.871155 2178.751953,781.980652 2178.678467,769.968018 
	C2178.503418,741.342834 2178.335938,712.711426 2178.783203,684.092102 
	C2178.933105,674.521790 2180.033447,664.754395 2182.310791,655.472290 
	C2187.436279,634.579651 2200.519531,621.045410 2222.151855,617.014221 
	C2236.684570,614.306091 2251.278809,614.269043 2265.700928,617.968323 
	C2281.252197,621.957214 2292.027832,631.488098 2298.349121,646.261597 
	C2303.559082,658.437500 2305.200928,671.274170 2305.307373,684.285522 
	C2305.541748,712.909851 2305.515137,741.538513 2305.284912,770.162964 
	C2305.226318,777.450867 2304.008545,784.729553 2303.075439,792.816284 
M2264.311035,770.916016 
	C2264.310547,739.607361 2264.364746,708.298462 2264.256348,676.990173 
	C2264.237793,671.689331 2264.136230,666.254333 2262.999023,661.119202 
	C2260.500000,649.832581 2253.870117,644.858032 2242.399658,644.651672 
	C2230.508057,644.437744 2223.574951,649.617249 2220.902344,661.237549 
	C2220.016846,665.088562 2219.767334,669.156982 2219.758057,673.127258 
	C2219.674561,709.098572 2219.632568,745.070557 2219.798096,781.041260 
	C2219.820801,785.966370 2220.499023,791.041321 2221.834961,795.775696 
	C2224.628662,805.678650 2231.154541,809.950378 2242.060059,809.922607 
	C2252.900635,809.895020 2259.787842,805.596130 2262.088379,795.596375 
	C2263.780273,788.242920 2263.636719,780.467285 2264.311035,770.916016 
z"/>
<path fill="#FDFAFB" opacity="1.000000" stroke="none" 
	d="
M1307.903198,631.961548 
	C1315.484253,623.922180 1324.258911,619.499878 1334.289795,617.393616 
	C1348.485474,614.412842 1362.674194,614.436646 1376.871094,617.406616 
	C1395.510010,621.305786 1407.654785,632.656189 1413.545166,650.436829 
	C1415.927612,657.628540 1417.974854,665.322876 1418.068726,672.814819 
	C1418.523193,709.090332 1418.377441,745.375549 1418.132568,781.655273 
	C1418.094727,787.235291 1416.914917,792.935425 1415.439575,798.355774 
	C1409.253784,821.082397 1395.063232,835.023254 1371.155151,838.552490 
	C1357.425293,840.579163 1343.998291,840.159241 1330.634644,836.451904 
	C1316.209961,832.450256 1306.205078,823.414490 1300.039062,809.924194 
	C1294.685669,798.211487 1292.529053,785.717468 1292.396729,773.035278 
	C1292.073486,742.072266 1291.918945,711.096985 1292.450073,680.139587 
	C1292.744019,663.004517 1295.847046,646.306702 1307.903198,631.961548 
M1378.184448,743.000000 
	C1378.141113,719.683777 1378.267212,696.365173 1377.931152,673.053162 
	C1377.850952,667.489624 1376.919678,661.717041 1375.156250,656.450195 
	C1372.408569,648.243164 1365.183228,644.241150 1355.165771,644.709839 
	C1346.815674,645.100464 1338.849976,647.194397 1336.222168,656.411560 
	C1334.514893,662.399597 1333.537109,668.799194 1333.491455,675.023621 
	C1333.236938,709.664062 1333.240723,744.308167 1333.482788,778.948853 
	C1333.526367,785.183228 1334.209839,791.718750 1336.261719,797.527405 
	C1337.657227,801.477356 1341.323486,805.604614 1345.067627,807.569519 
	C1358.627563,814.686096 1373.141846,807.660400 1376.656494,792.820435 
	C1377.491821,789.293213 1377.915527,785.597717 1377.975342,781.970459 
	C1378.178711,769.649170 1378.134277,757.323792 1378.184448,743.000000 
z"/>
<path fill="#FEFCFD" opacity="1.000000" stroke="none" 
	d="
M2711.848633,776.001404 
	C2711.848633,763.069702 2711.848633,751.137695 2711.848633,738.594971 
	C2696.932861,738.594971 2682.824463,738.594971 2667.943848,738.594971 
	C2667.943848,771.076355 2667.943848,803.287659 2667.943848,836.201172 
	C2654.371582,836.201172 2641.545654,836.201172 2628.075439,836.201172 
	C2628.075439,763.681824 2628.075439,691.233948 2628.075439,618.221741 
	C2640.995605,618.221741 2653.799072,618.221741 2667.458008,618.221741 
	C2667.458008,648.413635 2667.458008,678.288147 2667.458008,708.796326 
	C2682.427734,708.796326 2696.553711,708.796326 2711.577393,708.796326 
	C2711.577393,678.623840 2711.577393,648.794861 2711.577393,618.317017 
	C2725.236572,618.317017 2738.021729,618.317017 2751.395996,618.317017 
	C2751.395996,690.901672 2751.395996,763.369385 2751.395996,836.374756 
	C2738.298828,836.374756 2725.445557,836.374756 2711.848633,836.374756 
	C2711.848633,816.243042 2711.848633,796.622070 2711.848633,776.001404 
z"/>
<path fill="#FDFCFC" opacity="1.000000" stroke="none" 
	d="
M2137.747559,752.133423 
	C2145.631348,780.366516 2153.331787,807.803894 2161.299561,836.193848 
	C2147.438721,836.193848 2134.679932,836.193848 2121.103027,836.193848 
	C2112.533203,803.586792 2103.941895,770.898315 2095.196533,737.623535 
	C2089.490479,737.623535 2084.058594,737.623535 2077.888428,737.623535 
	C2077.888428,770.445618 2077.888428,802.990540 2077.888428,836.221680 
	C2064.371826,836.221680 2051.555908,836.221680 2038.189087,836.221680 
	C2038.189087,763.662598 2038.189087,691.247253 2038.189087,618.180420 
	C2040.834473,618.001404 2043.383911,617.674316 2045.932495,617.681274 
	C2063.244873,617.728699 2080.595215,617.188599 2097.854736,618.191406 
	C2108.001709,618.781067 2118.334717,620.858154 2127.994629,624.050598 
	C2142.607666,628.880005 2151.543701,639.881958 2155.180176,654.835571 
	C2158.863281,669.981628 2158.521729,685.178284 2154.849121,700.314697 
	C2151.689697,713.336792 2144.444824,723.171753 2131.349609,729.050537 
	C2133.501709,736.768677 2135.532959,744.053162 2137.747559,752.133423 
M2110.192383,705.448792 
	C2112.075195,703.154968 2114.628418,701.142456 2115.728760,698.520325 
	C2121.527344,684.701477 2121.434814,670.683350 2115.690918,656.870483 
	C2113.193359,650.863647 2107.834717,647.583008 2101.758301,646.705444 
	C2094.057129,645.593262 2086.190674,645.625183 2078.362793,645.161804 
	C2078.362793,667.998413 2078.362793,689.399780 2078.362793,711.288879 
	C2089.368652,711.648865 2099.562012,711.779785 2110.192383,705.448792 
z"/>
<path fill="#FDFCFC" opacity="1.000000" stroke="none" 
	d="
M2625.864746,324.209229 
	C2625.919434,352.489746 2626.068848,379.800964 2625.881348,407.109863 
	C2625.829102,414.737579 2625.158936,422.410004 2624.123779,429.973175 
	C2620.335693,457.642853 2605.731689,474.062439 2577.987793,477.042603 
	C2554.348877,479.581848 2530.320312,478.494263 2505.940430,479.022491 
	C2505.940430,405.196075 2505.940430,332.795441 2505.940430,259.438354 
	C2520.653076,259.438354 2534.892090,259.151886 2549.113281,259.529449 
	C2560.392822,259.828888 2571.819824,259.968628 2582.883545,261.892242 
	C2607.356445,266.147247 2620.599365,280.604095 2624.150635,305.369598 
	C2624.999023,311.284790 2625.286865,317.280426 2625.864746,324.209229 
M2545.337402,297.179718 
	C2545.337402,347.970520 2545.337402,398.761322 2545.337402,449.986542 
	C2552.372803,449.986542 2558.342285,450.498688 2564.192383,449.879883 
	C2576.356445,448.593201 2582.651611,442.100189 2583.985352,429.966766 
	C2584.638672,424.023102 2585.050293,418.021881 2585.071777,412.044922 
	C2585.179199,382.095703 2585.238770,352.145233 2585.087158,322.196411 
	C2584.940430,293.219574 2578.367676,287.017395 2549.476074,288.010681 
	C2548.248047,288.052917 2547.037842,288.607422 2545.711426,288.951172 
	C2545.572754,291.287140 2545.455811,293.256927 2545.337402,297.179718 
z"/>
<path fill="#FEFCFD" opacity="1.000000" stroke="none" 
	d="
M877.973267,407.855560 
	C877.407471,415.792206 877.178467,422.798462 876.219177,429.703217 
	C872.252075,458.257965 856.711609,473.796112 828.367126,477.638763 
	C823.432251,478.307800 818.402283,478.486420 813.414124,478.513611 
	C795.158569,478.613190 776.902222,478.553009 758.048462,478.553009 
	C758.048462,405.404266 758.048462,332.995483 758.048462,259.918335 
	C760.767273,259.753265 763.326233,259.453918 765.883667,259.465668 
	C784.201904,259.549835 802.535461,259.297424 820.830505,260.011505 
	C828.707092,260.318939 836.727356,261.938965 844.289612,264.248688 
	C859.370239,268.854736 869.671814,279.276947 873.575806,294.424103 
	C876.285950,304.939026 877.547119,316.052704 877.783875,326.935242 
	C878.363342,353.571747 877.973755,380.229370 877.973267,407.855560 
M797.658875,340.999847 
	C797.658875,377.213837 797.658875,413.427826 797.658875,449.824371 
	C805.032043,449.824371 811.374939,450.479645 817.529358,449.681763 
	C828.778442,448.223419 834.574219,441.975403 835.957703,430.630920 
	C836.682068,424.690918 837.054077,418.672760 837.075439,412.688080 
	C837.183472,382.357635 837.171997,352.026459 837.076416,321.695923 
	C837.060730,316.713623 836.678711,311.698090 836.010803,306.759460 
	C834.620911,296.482056 829.836853,290.836334 819.844299,289.120575 
	C812.815186,287.913635 805.535339,288.167236 797.658875,287.729279 
	C797.658875,305.775635 797.658875,322.387726 797.658875,340.999847 
z"/>
<path fill="#FEFCFD" opacity="1.000000" stroke="none" 
	d="
M1866.966797,440.643311 
	C1857.002197,474.105652 1834.704834,480.750214 1807.520752,481.521332 
	C1800.608398,481.717377 1793.515503,480.763702 1786.731201,479.295258 
	C1764.055664,474.387207 1750.337769,458.729401 1746.164429,433.084961 
	C1744.887573,425.238708 1744.191284,417.218445 1744.120361,409.269897 
	C1743.876465,381.978638 1743.642212,354.675720 1744.218506,327.394440 
	C1744.448120,316.519562 1745.642090,305.380951 1748.430054,294.903351 
	C1754.252930,273.019806 1769.443481,261.005371 1791.817627,257.900055 
	C1805.145874,256.050201 1818.337646,256.324280 1831.411987,259.751770 
	C1847.005859,263.839752 1858.179077,273.319000 1863.681763,288.330200 
	C1866.845947,296.961914 1869.633911,306.290314 1869.811401,315.359558 
	C1870.508179,350.952667 1870.229492,386.568329 1869.974976,422.173187 
	C1869.932739,428.081085 1868.205444,433.976990 1866.966797,440.643311 
M1786.104614,434.232849 
	C1786.353882,435.197876 1786.520508,436.193451 1786.864746,437.123322 
	C1790.838623,447.858307 1797.613770,452.306580 1808.948242,451.659454 
	C1819.779053,451.041107 1825.774414,446.064636 1828.244141,434.984314 
	C1829.247314,430.483368 1829.795410,425.785919 1829.812012,421.175232 
	C1829.938110,386.232239 1829.948730,351.288269 1829.802979,316.345428 
	C1829.782349,311.407562 1829.235718,306.344513 1828.035156,301.564819 
	C1825.317505,290.745819 1818.334106,286.027557 1806.619385,286.325989 
	C1794.999268,286.622009 1788.374634,291.755524 1786.270752,302.951660 
	C1785.233887,308.470032 1784.942749,314.193481 1784.920044,319.826599 
	C1784.796265,350.443207 1784.801392,381.060822 1784.906982,411.677582 
	C1784.931030,418.648865 1785.526978,425.618164 1786.104614,434.232849 
z"/>
<path fill="#FEFCFD" opacity="1.000000" stroke="none" 
	d="
M1041.083252,618.582886 
	C1057.942261,614.313171 1074.095337,613.997437 1090.250366,617.813965 
	C1106.693237,621.698547 1118.367920,631.552246 1123.953369,647.425110 
	C1127.006958,656.102600 1129.685547,665.428711 1129.856201,674.512573 
	C1130.518433,709.774414 1130.348511,745.059448 1129.901855,780.328430 
	C1129.806763,787.838745 1127.992676,795.555847 1125.684570,802.766052 
	C1119.221924,822.954163 1105.384766,835.428955 1084.153931,838.088257 
	C1074.035645,839.355652 1063.497437,839.857117 1053.439331,838.521973 
	C1025.738403,834.844971 1011.036926,820.033936 1006.250122,792.228333 
	C1004.901978,784.396973 1004.194763,776.367126 1004.123718,768.420044 
	C1003.873779,740.462341 1003.710632,712.495483 1004.200867,684.544128 
	C1004.374268,674.658020 1005.683044,664.610901 1007.941223,654.981506 
	C1012.083008,637.320190 1022.559204,624.644165 1041.083252,618.582886 
M1087.670654,658.036072 
	C1081.992798,646.607666 1075.140381,643.074585 1062.736694,645.180237 
	C1052.012207,647.000854 1047.459229,651.976074 1045.800293,664.163513 
	C1045.128540,669.098145 1044.613281,674.098328 1044.596558,679.070557 
	C1044.489380,711.015991 1044.376587,742.963501 1044.664551,774.906738 
	C1044.729736,782.145569 1045.604370,789.573975 1047.467285,796.551941 
	C1050.026123,806.137268 1057.197388,810.212341 1068.170410,809.937134 
	C1078.333740,809.682251 1085.191528,805.090576 1087.629395,795.969910 
	C1088.987915,790.887695 1089.752686,785.492859 1089.779785,780.233704 
	C1089.962036,744.961060 1089.943970,709.686768 1089.793701,674.413879 
	C1089.772705,669.476196 1088.673218,664.543091 1087.670654,658.036072 
z"/>
<path fill="#FDFAFB" opacity="1.000000" stroke="none" 
	d="
M2412.170166,379.937500 
	C2408.475830,371.067352 2405.029541,362.921936 2401.583252,354.776520 
	C2400.859863,354.866577 2400.136475,354.956604 2399.413330,355.046661 
	C2399.304199,395.935120 2399.445801,436.829102 2399.333984,478.131042 
	C2387.691406,478.131042 2377.162109,478.131042 2366.030762,478.131042 
	C2366.030762,405.406708 2366.030762,333.006195 2366.030762,260.017578 
	C2375.027344,260.017578 2383.847900,260.017578 2393.160400,260.017578 
	C2410.121094,299.140686 2427.078125,338.255524 2444.035156,377.370361 
	C2444.710938,377.206940 2445.386719,377.043518 2446.062500,376.880096 
	C2446.062500,338.169617 2446.062500,299.459137 2446.062500,260.095856 
	C2457.432861,260.095856 2467.927246,260.095856 2479.129639,260.095856 
	C2479.129639,332.400421 2479.129639,404.799896 2479.129639,477.885315 
	C2470.625244,477.885315 2462.154297,477.885315 2452.940186,477.885315 
	C2439.494385,445.625458 2425.956299,413.143860 2412.170166,379.937500 
z"/>
<path fill="#FDFBFC" opacity="1.000000" stroke="none" 
	d="
M1355.964722,259.433746 
	C1360.888428,259.433746 1364.839722,259.433746 1369.375244,259.433746 
	C1369.375244,332.634064 1369.375244,405.082764 1369.375244,478.049377 
	C1360.805176,478.049377 1352.590576,478.049377 1343.389160,478.049377 
	C1326.312256,437.023712 1309.084839,395.636627 1291.857422,354.249573 
	C1289.260498,364.216156 1289.986694,374.197632 1289.853394,384.119904 
	C1289.714722,394.450531 1289.822632,404.784454 1289.822632,415.116943 
	C1289.822632,425.449432 1289.822632,435.781921 1289.822632,446.114410 
	C1289.822632,456.404755 1289.822510,466.695068 1289.822510,478.130737 
	C1278.525269,478.973663 1267.731567,478.455566 1256.291748,478.474243 
	C1256.291748,405.541687 1256.291748,333.085266 1256.291748,260.030365 
	C1265.194702,260.030365 1274.026733,260.030365 1283.538086,260.030365 
	C1300.438354,299.015045 1317.417969,338.182587 1334.397583,377.350128 
	C1335.067139,377.213684 1335.736694,377.077271 1336.406250,376.940826 
	C1336.406250,338.231995 1336.406250,299.523163 1336.406250,259.433746 
	C1343.259521,259.433746 1349.125977,259.433746 1355.964722,259.433746 
z"/>
<path fill="#FEFCFD" opacity="1.000000" stroke="none" 
	d="
M1184.982178,624.570129 
	C1201.387085,662.391479 1217.419189,699.499512 1233.451416,736.607483 
	C1234.052246,736.466309 1234.653198,736.325073 1235.254150,736.183899 
	C1235.254150,697.158508 1235.254150,658.133118 1235.254150,618.386230 
	C1246.460449,618.386230 1256.892700,618.386230 1267.947266,618.386230 
	C1267.947266,690.797913 1267.947266,763.232849 1267.947266,836.290283 
	C1259.635864,836.290283 1251.438232,836.290283 1242.091309,836.290283 
	C1224.982910,795.215820 1207.627441,753.548279 1190.271973,711.880676 
	C1189.598877,711.935425 1188.925903,711.990112 1188.252930,712.044861 
	C1188.022827,722.004883 1188.188721,731.987000 1188.158936,741.955811 
	C1188.127075,752.615295 1188.151733,763.274902 1188.151733,773.934448 
	C1188.151733,784.260864 1188.151733,794.587341 1188.151733,804.913757 
	C1188.151733,815.212891 1188.151733,825.512024 1188.151733,836.348999 
	C1176.648926,836.348999 1165.815430,836.348999 1154.583252,836.348999 
	C1154.583252,763.606445 1154.583252,691.424866 1154.583252,617.808777 
	C1162.797852,617.776428 1170.982300,617.349915 1179.081665,617.993713 
	C1181.067139,618.151611 1182.774292,621.808533 1184.982178,624.570129 
z"/>
<path fill="#FDFBFC" opacity="1.000000" stroke="none" 
	d="
M1922.106689,619.720215 
	C1938.037354,613.963196 1953.724854,614.096985 1969.236572,616.707214 
	C1992.458862,620.615234 2005.722900,634.189270 2009.689087,657.618713 
	C2011.399902,667.724854 2011.611572,678.084839 2012.483643,688.091309 
	C2004.758545,690.557373 1985.722534,690.942444 1974.011719,689.119751 
	C1973.478027,680.631287 1973.393433,672.007385 1972.304199,663.512268 
	C1970.172852,646.888306 1952.931519,639.132690 1938.736084,648.097717 
	C1933.172852,651.611206 1931.046753,657.240662 1930.200562,663.262024 
	C1929.368530,669.181396 1929.003662,675.209534 1928.980347,681.192078 
	C1928.863525,711.190247 1928.718140,741.191528 1929.061646,771.186157 
	C1929.156250,779.432556 1930.143799,787.843689 1932.085205,795.848389 
	C1934.363647,805.242554 1940.607056,809.371948 1950.369873,809.869019 
	C1959.735718,810.345947 1967.591675,807.643311 1971.856812,798.571472 
	C1973.400024,795.288940 1974.958618,791.721680 1975.229370,788.186279 
	C1976.135742,776.353455 1976.463379,764.476318 1977.056152,751.678955 
	C1968.489380,751.678955 1961.300659,751.678955 1953.620605,751.678955 
	C1953.620605,742.898682 1953.620605,735.018188 1953.620605,726.390503 
	C1973.121460,726.390503 1992.538940,726.390503 2012.445435,726.390503 
	C2012.445435,762.757080 2012.445435,799.009094 2012.445435,836.091309 
	C2004.090454,836.091309 1995.666016,836.091309 1986.906494,836.091309 
	C1985.994019,830.452148 1985.098389,824.916626 1983.979614,818.001587 
	C1981.995239,820.567322 1980.638916,822.106934 1979.520264,823.803101 
	C1973.662109,832.685120 1965.345581,838.282532 1954.973145,839.364563 
	C1924.182251,842.576843 1901.470215,832.269409 1892.948975,800.854309 
	C1890.270630,790.980042 1888.650757,780.547119 1888.431641,770.329468 
	C1887.824585,742.010498 1887.653320,713.654114 1888.469604,685.346008 
	C1888.810913,673.512085 1891.075073,661.480103 1894.280640,650.047180 
	C1898.216675,636.008850 1907.221558,625.389893 1922.106689,619.720215 
z"/>
<path fill="#FDFCFC" opacity="1.000000" stroke="none" 
	d="
M2075.978516,414.036987 
	C2075.978516,435.656403 2075.978516,456.282806 2075.978516,478.374237 
	C2062.775146,478.752228 2049.991455,478.514313 2036.522949,478.506805 
	C2036.522949,405.596802 2036.522949,333.160492 2036.522949,260.080200 
	C2049.332031,260.080200 2062.104248,260.080200 2075.798828,260.080200 
	C2075.798828,289.751862 2075.798828,319.190399 2075.798828,348.628906 
	C2076.555176,348.838226 2077.311523,349.047546 2078.067627,349.256897 
	C2091.576416,319.553223 2105.085205,289.849548 2118.720215,259.868134 
	C2131.139893,259.868134 2143.364990,259.868134 2156.900635,259.868134 
	C2155.316162,263.665710 2154.092285,266.652130 2152.827637,269.621277 
	C2141.614014,295.952759 2130.578857,322.363007 2119.039062,348.550903 
	C2116.281982,354.808044 2116.052734,360.121124 2118.559814,366.513550 
	C2131.680908,399.966522 2144.396484,433.578674 2157.228516,467.144836 
	C2158.504883,470.483459 2159.616211,473.885101 2161.087402,478.061035 
	C2147.391357,478.061035 2134.844727,478.061035 2121.393066,478.061035 
	C2109.125732,444.785553 2096.769043,411.267639 2084.146729,377.030090 
	C2077.835205,384.500214 2075.039062,391.575775 2075.902100,400.057281 
	C2076.338379,404.344360 2075.978516,408.712494 2075.978516,414.036987 
z"/>
<path fill="#FCF9FB" opacity="1.000000" stroke="none" 
	d="
M1126.577515,413.693848 
	C1126.623291,425.969330 1125.827759,437.198029 1122.071411,448.085815 
	C1116.400513,464.523682 1105.290283,474.961884 1088.382568,479.034760 
	C1073.532471,482.611969 1058.708618,482.462128 1043.951782,478.285675 
	C1028.084229,473.794800 1017.448242,463.730621 1011.267151,448.524536 
	C1006.135986,435.901215 1004.969482,422.653961 1004.975891,409.324097 
	C1004.991150,377.689850 1005.145813,346.048492 1005.928711,314.426941 
	C1006.122681,306.593445 1008.242432,298.604492 1010.668579,291.070801 
	C1016.088013,274.242371 1027.826172,263.820892 1045.040405,259.475281 
	C1059.205566,255.899384 1073.459106,255.694611 1087.603149,258.823090 
	C1109.487915,263.663757 1121.882324,278.072052 1125.562622,302.251587 
	C1126.261841,306.845398 1126.425659,311.543854 1126.524048,316.200623 
	C1126.677734,323.481110 1126.564819,330.767212 1126.564819,338.707733 
	C1113.730591,338.707733 1101.619141,338.707733 1088.009644,338.707733 
	C1088.009644,332.858673 1088.144897,327.010590 1087.973755,321.171478 
	C1087.779053,314.526855 1087.917603,307.787750 1086.818115,301.274231 
	C1085.191162,291.635498 1079.435181,287.152771 1069.532349,286.409515 
	C1059.544800,285.659912 1051.453369,289.801636 1048.533447,298.123047 
	C1046.909912,302.750153 1046.012573,307.874329 1045.985962,312.780975 
	C1045.786011,349.760498 1045.821899,386.741821 1045.972290,423.721863 
	C1045.989624,427.992432 1046.787964,432.354919 1047.867676,436.507538 
	C1050.643311,447.183105 1057.362671,451.991699 1068.277222,451.623596 
	C1078.877686,451.266052 1085.213501,446.608612 1086.753784,435.688568 
	C1088.139526,425.864197 1087.682983,415.777924 1087.996948,405.805878 
	C1088.080444,403.154968 1088.009644,400.499176 1088.009644,397.585114 
	C1094.356079,394.961639 1100.696045,396.495850 1106.849976,396.234314 
	C1113.107666,395.968384 1119.385254,396.175537 1126.578003,396.175537 
	C1126.578003,402.234161 1126.578003,407.511139 1126.577515,413.693848 
z"/>
<path fill="#FDFBFC" opacity="1.000000" stroke="none" 
	d="
M944.726379,616.725220 
	C966.550415,621.263245 980.274414,634.093811 983.952393,659.756836 
	C985.680847,671.817017 985.541809,684.144775 986.289490,697.048340 
	C972.684998,697.048340 960.517761,697.048340 947.531250,697.048340 
	C947.235413,688.848389 946.952209,680.604004 946.633728,672.361023 
	C946.505066,669.031982 946.428894,665.693115 946.104980,662.380676 
	C945.008606,651.169250 939.268555,645.552185 928.203796,644.708069 
	C917.010132,643.854126 908.655518,649.168457 906.357971,659.438416 
	C905.059937,665.240723 904.473328,671.313538 904.441467,677.269226 
	C904.265137,710.266296 904.263367,743.265259 904.444885,776.262268 
	C904.477600,782.217163 905.126099,788.278259 906.393494,794.093506 
	C908.893982,805.566284 916.423157,810.705139 928.296692,809.855225 
	C938.968445,809.091309 944.940369,803.365906 945.997986,791.871033 
	C946.790222,783.260559 946.783691,774.574219 947.054016,765.919189 
	C947.165955,762.336426 947.072632,758.747192 947.072632,754.857910 
	C960.357117,754.857910 972.508240,754.857910 985.231079,754.857910 
	C986.231140,772.330566 986.433411,789.204651 981.135559,805.615967 
	C975.148499,824.162292 962.354675,835.428772 943.085327,837.978149 
	C932.979858,839.315125 922.411560,839.780273 912.361206,838.395996 
	C886.166687,834.788330 871.411194,820.175720 866.283325,794.218384 
	C864.934204,787.389343 864.058655,780.351135 864.006958,773.401245 
	C863.778931,742.739441 863.628906,712.069763 864.129639,681.414062 
	C864.280212,672.195374 865.722412,662.767456 868.140564,653.860962 
	C874.463928,630.570740 889.846741,617.921265 914.026123,616.041870 
	C923.917175,615.273071 933.947937,616.300964 944.726379,616.725220 
z"/>
<path fill="#FDFAFB" opacity="1.000000" stroke="none" 
	d="
M1784.234375,697.683838 
	C1779.347778,697.683838 1775.419312,697.683838 1770.212402,697.683838 
	C1770.212402,689.268616 1770.262085,681.713440 1770.192383,674.159363 
	C1770.155518,670.165100 1770.167114,666.143311 1769.711426,662.185181 
	C1768.417603,650.946350 1762.601074,645.461853 1751.538940,644.695129 
	C1740.128174,643.904175 1732.546143,648.934387 1729.898804,659.605774 
	C1728.786377,664.090088 1728.102783,668.803833 1728.083618,673.416748 
	C1727.936646,708.728577 1727.914062,744.041626 1728.094604,779.353088 
	C1728.121582,784.624329 1728.938721,790.006592 1730.214966,795.132202 
	C1732.819702,805.593628 1739.803955,810.332458 1750.878906,809.904236 
	C1761.404297,809.497253 1767.626587,804.560547 1769.286377,793.800171 
	C1770.395264,786.611145 1770.096924,779.194885 1770.281128,771.876587 
	C1770.414551,766.568542 1770.306885,761.254395 1770.306885,754.520752 
	C1783.171997,754.111450 1795.600586,754.394226 1809.029419,754.347961 
	C1809.425171,774.997375 1810.302490,794.841980 1801.353516,813.539429 
	C1796.036621,824.647766 1787.371216,832.091553 1775.719116,835.834045 
	C1758.752930,841.283264 1741.666138,841.317688 1724.614502,836.094055 
	C1710.360107,831.727234 1699.870117,822.700928 1694.697632,808.832275 
	C1691.369141,799.907654 1688.390503,790.254211 1688.194336,780.866089 
	C1687.450073,745.244507 1687.687012,709.595520 1688.090820,673.962830 
	C1688.172241,666.770447 1690.065674,659.460388 1692.017822,652.453674 
	C1697.432129,633.018982 1710.313232,621.282043 1730.083130,617.151428 
	C1742.963745,614.460266 1755.925293,614.436340 1768.774048,616.918945 
	C1789.208374,620.866943 1801.583130,633.386719 1806.349121,653.581299 
	C1809.668335,667.645325 1809.394775,681.890381 1809.309082,697.622253 
	C1800.863281,697.643860 1793.027954,697.663818 1784.234375,697.683838 
z"/>
<path fill="#FDFBFC" opacity="1.000000" stroke="none" 
	d="
M2328.282715,367.543091 
	C2335.807861,404.530396 2343.188965,440.679626 2350.829834,478.101593 
	C2338.285400,479.001007 2326.519531,478.367035 2313.681152,478.599884 
	C2310.616943,461.698090 2307.621338,445.176086 2304.561279,428.297485 
	C2291.861328,428.297485 2279.703857,428.297485 2266.947510,428.297485 
	C2263.926514,444.934326 2260.969482,461.219391 2257.922852,477.998413 
	C2245.480957,477.998413 2233.315674,477.998413 2220.139404,477.998413 
	C2234.928223,405.208801 2249.600098,332.995300 2264.404053,260.131958 
	C2277.996582,260.131958 2291.512939,260.131958 2306.579346,260.131958 
	C2313.696777,295.315308 2320.917725,331.010193 2328.282715,367.543091 
M2291.276123,345.737671 
	C2288.845215,336.732849 2289.640869,326.961090 2284.901367,316.764069 
	C2280.214844,345.904144 2275.807373,373.307861 2271.328613,401.155518 
	C2281.659424,401.155518 2290.514160,401.155518 2300.096924,401.155518 
	C2297.197021,382.835205 2294.396240,365.140350 2291.276123,345.737671 
z"/>
<path fill="#FDFCFC" opacity="1.000000" stroke="none" 
	d="
M808.071838,708.633179 
	C818.339172,708.633240 827.613403,708.633240 837.613159,708.633240 
	C837.613159,718.359680 837.613159,727.394958 837.613159,737.322266 
	C824.399170,737.322266 811.554871,737.322266 798.231323,737.322266 
	C798.231323,761.634033 798.231323,785.060303 798.231323,809.196777 
	C815.320923,809.196777 831.878479,809.196777 849.204041,809.196777 
	C849.204041,818.320190 849.204041,826.790894 849.204041,835.357117 
	C842.651123,837.276184 770.370850,837.828918 757.907471,835.896851 
	C757.907471,763.543213 757.907471,691.116455 757.907471,618.172852 
	C788.129517,618.172852 817.965454,618.172852 848.585571,618.172852 
	C848.585571,626.936157 848.585571,635.699768 848.585571,645.416870 
	C832.223022,645.416870 815.752686,645.416870 799.569092,645.416870 
	C797.293884,653.243042 796.767456,692.901672 798.573181,708.247375 
	C801.312195,708.371582 804.195496,708.502380 808.071838,708.633179 
z"/>
<path fill="#FEFCFD" opacity="1.000000" stroke="none" 
	d="
M900.023254,358.000000 
	C900.023254,325.044281 900.023254,293.088593 900.023254,259.891602 
	C930.524780,258.888275 960.610352,259.744324 991.333496,259.390625 
	C991.333496,268.900360 991.333496,277.706116 991.333496,287.383606 
	C974.716125,287.383606 958.190002,287.383606 940.384949,287.383606 
	C940.303833,298.367889 940.199829,308.554901 940.161499,318.742218 
	C940.123962,328.712616 940.153320,338.683289 940.153320,349.773285 
	C953.618286,349.773285 966.742432,349.773285 980.607422,349.773285 
	C980.607422,359.657410 980.607422,368.445679 980.607422,378.447632 
	C967.414551,378.447632 954.299011,378.447632 940.684204,378.447632 
	C940.684204,403.111542 940.684204,426.574188 940.684204,451.078674 
	C958.035278,451.078674 974.890442,451.078674 992.135620,451.078674 
	C992.135620,460.385803 992.135620,468.657501 992.135620,476.966522 
	C985.535461,478.935150 913.726807,479.486267 900.023254,477.475586 
	C900.023254,438.095276 900.023254,398.547638 900.023254,358.000000 
z"/>
<path fill="#FDFBFC" opacity="1.000000" stroke="none" 
	d="
M1193.999512,478.564758 
	C1178.114868,478.564758 1163.230225,478.564758 1147.950073,478.564758 
	C1147.950073,405.145721 1147.950073,332.756866 1147.950073,259.901855 
	C1178.301514,259.901855 1208.140015,259.901855 1238.675293,259.901855 
	C1238.675293,268.908295 1238.675293,277.695648 1238.675293,287.663300 
	C1221.779907,287.663300 1205.013550,287.663300 1187.828613,287.663300 
	C1187.828613,308.971405 1187.828613,329.109650 1187.828613,350.108887 
	C1201.014648,350.108887 1213.858765,350.108887 1227.420654,350.108887 
	C1227.420654,359.711639 1227.420654,368.473999 1227.420654,378.219635 
	C1214.695679,378.219635 1201.880249,378.219635 1189.385376,378.219635 
	C1186.933228,386.152100 1186.526978,439.677216 1188.742798,451.174622 
	C1205.362793,451.174622 1222.200439,451.174622 1239.415649,451.174622 
	C1239.415649,460.406677 1239.415649,468.630829 1239.415649,477.452148 
	C1232.058105,479.695862 1224.441895,478.248779 1216.974365,478.509155 
	C1209.657715,478.764282 1202.325195,478.564728 1193.999512,478.564758 
z"/>
<path fill="#FDFBFC" opacity="1.000000" stroke="none" 
	d="
M1417.074707,405.999268 
	C1417.074829,366.768280 1417.074829,328.537292 1417.074829,289.013794 
	C1404.364258,289.013794 1392.567261,289.013794 1380.498779,289.013794 
	C1380.498779,278.775482 1380.498779,269.835693 1380.498779,260.163483 
	C1417.441528,260.163483 1454.242676,260.163483 1491.806885,260.163483 
	C1491.806885,269.075439 1491.806885,278.479919 1491.806885,288.634827 
	C1480.797607,288.634827 1469.911987,288.634827 1457.664551,288.634827 
	C1457.101807,299.767700 1457.442871,310.290924 1457.382935,320.788025 
	C1457.323975,331.114319 1457.369995,341.441254 1457.369995,351.767883 
	C1457.369995,362.427643 1457.369995,373.087372 1457.369995,383.747131 
	C1457.369995,394.073761 1457.369995,404.400391 1457.369995,414.727020 
	C1457.369995,425.386780 1457.369995,436.046509 1457.369995,446.706268 
	C1457.369995,456.970032 1457.370117,467.233826 1457.370117,478.021881 
	C1443.726074,478.021881 1430.903931,478.021881 1417.074585,478.021881 
	C1417.074585,454.104492 1417.074585,430.551880 1417.074707,405.999268 
z"/>
<path fill="#FDFBFC" opacity="1.000000" stroke="none" 
	d="
M2614.925293,633.761230 
	C2614.925293,638.572021 2614.925293,642.473206 2614.925293,647.048462 
	C2602.908936,647.048462 2592.024414,647.048462 2580.009277,647.048462 
	C2580.009277,710.407837 2580.009277,773.095886 2580.009277,836.347168 
	C2566.043457,836.347168 2553.207520,836.347168 2539.450684,836.347168 
	C2539.450684,773.536865 2539.450684,711.096069 2539.450684,647.430908 
	C2526.792480,647.430908 2515.014160,647.430908 2502.798828,647.430908 
	C2502.798828,637.056396 2502.798828,627.913940 2502.798828,618.211487 
	C2540.012939,618.211487 2576.813477,618.211487 2614.925293,618.211487 
	C2614.925293,623.116272 2614.925293,627.983948 2614.925293,633.761230 
z"/>
<path fill="#FFFEFF" opacity="1.000000" stroke="none" 
	d="
M1662.544800,666.000366 
	C1662.544800,723.226196 1662.544800,779.452026 1662.544800,836.280334 
	C1649.278076,836.280334 1636.835693,836.280334 1623.746338,836.280334 
	C1623.746338,763.578308 1623.746338,691.165894 1623.746338,618.211304 
	C1636.400391,618.211304 1648.890381,618.211304 1662.544800,618.211304 
	C1662.544800,633.935791 1662.544800,649.468079 1662.544800,666.000366 
z"/>
<path fill="#86033B" opacity="1.000000" stroke="none" 
	d="
M342.666321,696.988403 
	C341.107666,669.086121 340.781586,642.163940 347.860535,615.735657 
	C348.634338,612.846741 349.429169,609.951050 350.440826,607.140076 
	C359.033173,583.265259 383.151215,573.143066 406.398193,583.560059 
	C415.796265,587.771301 422.169006,595.045715 425.129913,604.537537 
	C428.481415,615.281555 431.571320,626.325745 432.836823,637.459717 
	C436.234222,667.349854 436.508362,697.245544 428.209229,726.603271 
	C427.576843,728.840332 426.875488,731.063843 426.081329,733.248291 
	C417.618866,756.524963 395.066376,766.720886 371.967804,757.634460 
	C362.082245,753.745789 354.981964,746.554199 352.004425,736.587341 
	C348.215332,723.904175 345.794220,710.812195 342.666321,696.988403 
z"/>
<path fill="#86033B" opacity="1.000000" stroke="none" 
	d="
M359.979004,473.778503 
	C353.558014,462.912079 350.754791,451.627899 349.183746,440.028748 
	C346.086639,417.162262 344.417786,394.222198 350.071442,371.526306 
	C351.737122,364.839691 354.497986,358.220215 357.895599,352.214050 
	C364.719543,340.150909 375.673798,334.568970 389.483032,334.951355 
	C403.473663,335.338776 414.026978,341.979858 419.309296,354.756958 
	C423.202606,364.174255 426.494690,374.314545 427.441742,384.378540 
	C429.535156,406.624146 429.271210,429.028259 423.967896,450.947937 
	C422.185059,458.316742 419.568024,465.641235 416.235229,472.448914 
	C404.653198,496.106476 375.304657,495.265991 362.633087,477.698364 
	C361.853516,476.617584 361.098450,475.519135 359.979004,473.778503 
z"/>
<path fill="#88083F" opacity="1.000000" stroke="none" 
	d="
M1960.094360,289.240723 
	C1969.026733,292.523560 1972.891479,299.161560 1973.702393,307.088989 
	C1974.541382,315.291382 1974.620728,323.729401 1973.693115,331.912598 
	C1972.652710,341.092773 1967.622314,348.131622 1958.139038,350.729584 
	C1950.115723,352.927673 1941.943359,353.854675 1933.096680,352.387817 
	C1933.096680,330.873962 1933.096680,309.694580 1933.096680,287.541779 
	C1941.858032,286.089020 1950.622681,286.924896 1960.094360,289.240723 
z"/>
<path fill="#86033B" opacity="1.000000" stroke="none" 
	d="
M2264.311035,771.897888 
	C2263.636719,780.467285 2263.780273,788.242920 2262.088379,795.596375 
	C2259.787842,805.596130 2252.900635,809.895020 2242.060059,809.922607 
	C2231.154541,809.950378 2224.628662,805.678650 2221.834961,795.775696 
	C2220.499023,791.041321 2219.820801,785.966370 2219.798096,781.041260 
	C2219.632568,745.070557 2219.674561,709.098572 2219.758057,673.127258 
	C2219.767334,669.156982 2220.016846,665.088562 2220.902344,661.237549 
	C2223.574951,649.617249 2230.508057,644.437744 2242.399658,644.651672 
	C2253.870117,644.858032 2260.500000,649.832581 2262.999023,661.119202 
	C2264.136230,666.254333 2264.237793,671.689331 2264.256348,676.990173 
	C2264.364746,708.298462 2264.310547,739.607361 2264.311035,771.897888 
z"/>
<path fill="#86033B" opacity="1.000000" stroke="none" 
	d="
M1378.184448,744.000000 
	C1378.134277,757.323792 1378.178711,769.649170 1377.975342,781.970459 
	C1377.915527,785.597717 1377.491821,789.293213 1376.656494,792.820435 
	C1373.141846,807.660400 1358.627563,814.686096 1345.067627,807.569519 
	C1341.323486,805.604614 1337.657227,801.477356 1336.261719,797.527405 
	C1334.209839,791.718750 1333.526367,785.183228 1333.482788,778.948853 
	C1333.240723,744.308167 1333.236938,709.664062 1333.491455,675.023621 
	C1333.537109,668.799194 1334.514893,662.399597 1336.222168,656.411560 
	C1338.849976,647.194397 1346.815674,645.100464 1355.165771,644.709839 
	C1365.183228,644.241150 1372.408569,648.243164 1375.156250,656.450195 
	C1376.919678,661.717041 1377.850952,667.489624 1377.931152,673.053162 
	C1378.267212,696.365173 1378.141113,719.683777 1378.184448,744.000000 
z"/>
<path fill="#87063D" opacity="1.000000" stroke="none" 
	d="
M2109.547119,705.859314 
	C2099.562012,711.779785 2089.368652,711.648865 2078.362793,711.288879 
	C2078.362793,689.399780 2078.362793,667.998413 2078.362793,645.161804 
	C2086.190674,645.625183 2094.057129,645.593262 2101.758301,646.705444 
	C2107.834717,647.583008 2113.193359,650.863647 2115.690918,656.870483 
	C2121.434814,670.683350 2121.527344,684.701477 2115.728760,698.520325 
	C2114.628418,701.142456 2112.075195,703.154968 2109.547119,705.859314 
z"/>
<path fill="#87063D" opacity="1.000000" stroke="none" 
	d="
M2545.338379,296.203186 
	C2545.455811,293.256927 2545.572754,291.287140 2545.711426,288.951172 
	C2547.037842,288.607422 2548.248047,288.052917 2549.476074,288.010681 
	C2578.367676,287.017395 2584.940430,293.219574 2585.087158,322.196411 
	C2585.238770,352.145233 2585.179199,382.095703 2585.071777,412.044922 
	C2585.050293,418.021881 2584.638672,424.023102 2583.985352,429.966766 
	C2582.651611,442.100189 2576.356445,448.593201 2564.192383,449.879883 
	C2558.342285,450.498688 2552.372803,449.986542 2545.337402,449.986542 
	C2545.337402,398.761322 2545.337402,347.970520 2545.338379,296.203186 
z"/>
<path fill="#87063D" opacity="1.000000" stroke="none" 
	d="
M797.658875,339.999817 
	C797.658875,322.387726 797.658875,305.775635 797.658875,287.729279 
	C805.535339,288.167236 812.815186,287.913635 819.844299,289.120575 
	C829.836853,290.836334 834.620911,296.482056 836.010803,306.759460 
	C836.678711,311.698090 837.060730,316.713623 837.076416,321.695923 
	C837.171997,352.026459 837.183472,382.357635 837.075439,412.688080 
	C837.054077,418.672760 836.682068,424.690918 835.957703,430.630920 
	C834.574219,441.975403 828.778442,448.223419 817.529358,449.681763 
	C811.374939,450.479645 805.032043,449.824371 797.658875,449.824371 
	C797.658875,413.427826 797.658875,377.213837 797.658875,339.999817 
z"/>
<path fill="#88083F" opacity="1.000000" stroke="none" 
	d="
M1785.982178,433.410614 
	C1785.526978,425.618164 1784.931030,418.648865 1784.906982,411.677582 
	C1784.801392,381.060822 1784.796265,350.443207 1784.920044,319.826599 
	C1784.942749,314.193481 1785.233887,308.470032 1786.270752,302.951660 
	C1788.374634,291.755524 1794.999268,286.622009 1806.619385,286.325989 
	C1818.334106,286.027557 1825.317505,290.745819 1828.035156,301.564819 
	C1829.235718,306.344513 1829.782349,311.407562 1829.802979,316.345428 
	C1829.948730,351.288269 1829.938110,386.232239 1829.812012,421.175232 
	C1829.795410,425.785919 1829.247314,430.483368 1828.244141,434.984314 
	C1825.774414,446.064636 1819.779053,451.041107 1808.948242,451.659454 
	C1797.613770,452.306580 1790.838623,447.858307 1786.864746,437.123322 
	C1786.520508,436.193451 1786.353882,435.197876 1785.982178,433.410614 
z"/>
<path fill="#88073E" opacity="1.000000" stroke="none" 
	d="
M1087.871826,658.822021 
	C1088.673218,664.543091 1089.772705,669.476196 1089.793701,674.413879 
	C1089.943970,709.686768 1089.962036,744.961060 1089.779785,780.233704 
	C1089.752686,785.492859 1088.987915,790.887695 1087.629395,795.969910 
	C1085.191528,805.090576 1078.333740,809.682251 1068.170410,809.937134 
	C1057.197388,810.212341 1050.026123,806.137268 1047.467285,796.551941 
	C1045.604370,789.573975 1044.729736,782.145569 1044.664551,774.906738 
	C1044.376587,742.963501 1044.489380,711.015991 1044.596558,679.070557 
	C1044.613281,674.098328 1045.128540,669.098145 1045.800293,664.163513 
	C1047.459229,651.976074 1052.012207,647.000854 1062.736694,645.180237 
	C1075.140381,643.074585 1081.992798,646.607666 1087.871826,658.822021 
z"/>
<path fill="#88083F" opacity="1.000000" stroke="none" 
	d="
M2291.435791,346.591583 
	C2294.396240,365.140350 2297.197021,382.835205 2300.096924,401.155518 
	C2290.514160,401.155518 2281.659424,401.155518 2271.328613,401.155518 
	C2275.807373,373.307861 2280.214844,345.904144 2284.901367,316.764069 
	C2289.640869,326.961090 2288.845215,336.732849 2291.435791,346.591583 
z"/>
</svg>